<svg viewBox="0 0 20 20" xmlns="http://www.w3.org/2000/svg"><path d="M18.707 1.293a1 1 0 0 1 .083 1.32l-.083.094-16 16a1 1 0 0 1-1.497-1.32l.083-.094 6.814-6.816-1.508-2.535A4 4 0 0 0 3.39 6.006L3.169 6H1a1 1 0 0 1-.117-1.993L1 4h2.169a6 6 0 0 1 5.01 2.7l.135.213 1.258 2.099L12.584 6H11a1 1 0 0 1 0-2l3.573.011 1.426-1.426.001-.217c0-.203.24-.368.538-.368l.043.003.712-.71a1 1 0 0 1 1.414 0Zm-7.434 10.553.128.212a4 4 0 0 0 3.209 1.936l.221.006h1.168L16 12.368c0-.203.24-.368.538-.368.163 0 .318.05.42.138l2.806 2.402c.315.269.315.651 0 .92l-2.806 2.402c-.186.159-.524.184-.756.057-.128-.07-.202-.175-.202-.287L15.999 16h-1.168a6 6 0 0 1-5.003-2.688l1.445-1.466Zm7.795-7.902.696.596c.315.269.315.651 0 .92l-2.806 2.402c-.186.159-.524.184-.756.057-.128-.07-.202-.175-.202-.287v-.578l3.068-3.11Z" fill="#313132" fill-rule="evenodd"/></svg>