<svg viewBox="0 0 20 20" xmlns="http://www.w3.org/2000/svg"><path d="M3.169 4.063a6.016 6.016 0 0 1 5.037 2.711l.108.171 3.087 5.092a4.007 4.007 0 0 0 3.262 1.918l.168.003H16v-1.615c0-.2.24-.364.538-.364a.66.66 0 0 1 .42.137l2.806 2.377c.315.266.315.644 0 .91l-2.806 2.377c-.186.157-.524.183-.756.057-.128-.07-.202-.174-.202-.285v-1.614h-1.169a6.016 6.016 0 0 1-5.037-2.712l-.108-.171-3.087-5.092a4.007 4.007 0 0 0-3.262-1.918l-.168-.003H1c-.552 0-1-.443-1-.99 0-.514.397-.937.904-.985L1 4.062h2.169Zm13.369-1.98a.66.66 0 0 1 .42.137l2.806 2.377c.315.266.315.644 0 .91l-2.806 2.377c-.186.157-.524.183-.756.057-.128-.07-.202-.174-.202-.284l-.001-1.616h-4.01a.99.99 0 1 1 0-1.979H16V2.448c0-.202.24-.365.538-.365Z" fill="#313132" fill-rule="evenodd"/></svg>