<svg xmlns="http://www.w3.org/2000/svg" width="100%" height="auto" viewBox="0 0 450.473 108.633">
  <g id="Gruppe_418" data-name="Gruppe 418" transform="translate(-397.599 -135.767) rotate(-7)">
    <path id="Pfad_656" data-name="Pfad 656" d="M390.165,281.137c0,2.573.572,5.576,3.431,6.577v4.146c-12.439-.357-22.018-12.51-22.018-27.808,0-15.37,9.579-27.522,22.018-27.808v4.146c-2.859,1-3.431,3.932-3.431,6.505Zm6.648,6.577a4.265,4.265,0,0,0,3.289-4.575V270.271c0-1.573-.072-1.93-2.931-2.431a2.1,2.1,0,0,1-1.859-2.145c0-1.93,2.5-2,2.86-2h17.086a2.075,2.075,0,0,1,2.5,2.145,2.34,2.34,0,0,1-1.287,2.145c-1.5.929-1.287,1.787-1.287,2.145v14.154a28.819,28.819,0,0,1-18.372,7.578Zm0-51.471c7.506.643,11.367,2.645,12.153,2.645,2.145,0,1.93-2.645,4.218-2.645a1.928,1.928,0,0,1,2,2.287v15.942c0,.358,0,2.573-2.216,2.573-1.859,0-2.359-1.358-2.717-2.859-2.216-9.15-7.649-13.511-13.44-13.8Z" transform="translate(0 0)" fill="#64ada5"/>
    <path id="Pfad_657" data-name="Pfad 657" d="M517.317,239.266H536.19v53.472H517.317c-.286,0-2.645-.143-2.645-2.216a1.983,1.983,0,0,1,1.573-1.93c2.5-.786,2.43-1.215,2.43-3.86V247.272c0-2.645.072-3.074-2.43-3.86a1.983,1.983,0,0,1-1.573-1.93C514.672,239.409,517.031,239.266,517.317,239.266Zm22.089,0h15.942v14.512c0,.358-.072,1.716-2.216,1.716-1.215,0-1.573-.715-1.93-1.787-1.859-5.79-5.5-9.293-11.8-10.294Zm0,23.877c3-.787,4.361-3.574,5-6.291.358-1.215.786-2.359,2.288-2.359,2.216,0,1.859,2.574,1.859,3.146v15.441c0,.572.358,3.146-1.859,3.146-1.5,0-1.93-1.144-2.288-2.359-.643-2.716-2-5.5-5-6.291Zm0,25.449c5.791-.715,10.223-4.647,12.153-10.366.5-1.072.929-2.216,2.216-2.216a2.027,2.027,0,0,1,2.073,2.431v14.3H539.406Z" transform="translate(-92.337 -1.951)" fill="#64ada5"/>
    <path id="Pfad_658" data-name="Pfad 658" d="M652.6,252.706h.143l4,7.149v21.589c1.144,8.936,5.719,6.148,5.719,9.222,0,2.217-2.931,2.073-3.717,2.073H650.6c-.786,0-3.717.143-3.717-2.073,0-3.074,4.575-.286,5.719-9.222Zm37.245,22.733v17.3H679.2L653.031,247.63c-1.144-2-1.5-3.074-3.86-3.861-1.216-.429-2.145-.715-2.145-2.288,0-2.145,2.145-2.145,3.646-2.216h18.372ZM685.7,252.205c0-10.223-5.862-7.506-5.862-10.794,0-2,2.359-2.145,3.074-2.145h9.723c.715,0,3.074.143,3.074,2.145,0,3.288-5.862.572-5.862,10.794v17.371H689.7l-4-7.22Z" transform="translate(-177.652 -1.951)" fill="#64ada5"/>
    <path id="Pfad_659" data-name="Pfad 659" d="M801.692,239.266h18.873v53.472H801.692c-.286,0-2.645-.143-2.645-2.216a1.983,1.983,0,0,1,1.573-1.93c2.5-.786,2.43-1.215,2.43-3.86V247.272c0-2.645.072-3.074-2.43-3.86a1.983,1.983,0,0,1-1.573-1.93C799.047,239.409,801.406,239.266,801.692,239.266Zm22.089,0h15.942v14.512c0,.358-.072,1.716-2.216,1.716-1.215,0-1.573-.715-1.93-1.787-1.859-5.79-5.5-9.293-11.8-10.294Zm0,23.877c3-.787,4.361-3.574,5-6.291.358-1.215.786-2.359,2.287-2.359,2.216,0,1.859,2.574,1.859,3.146v15.441c0,.572.358,3.146-1.859,3.146-1.5,0-1.93-1.144-2.287-2.359-.644-2.716-2-5.5-5-6.291Zm0,25.449c5.791-.715,10.223-4.647,12.153-10.366.5-1.072.929-2.216,2.216-2.216a2.028,2.028,0,0,1,2.073,2.431v14.3H823.781Z" transform="translate(-275.842 -1.951)" fill="#64ada5"/>
    <path id="Pfad_660" data-name="Pfad 660" d="M957.008,284.732c0,2.645-.071,3.074,2.43,3.86a1.983,1.983,0,0,1,1.573,1.93c0,2.073-2.359,2.216-2.645,2.216H938.135c-.286,0-2.645-.143-2.645-2.216a1.983,1.983,0,0,1,1.573-1.93c2.5-.786,2.43-1.215,2.43-3.86V247.272c0-2.645.072-3.074-2.43-3.86a1.983,1.983,0,0,1-1.573-1.93c0-2.073,2.359-2.216,2.645-2.216h20.231c.286,0,2.645.143,2.645,2.216a1.983,1.983,0,0,1-1.573,1.93c-2.5.786-2.43,1.215-2.43,3.86Zm9.508-17.086h-6.291V263.5h6.291V247.272c0-2.645.071-3.074-2.431-3.86a1.982,1.982,0,0,1-1.572-1.93c0-2.073,2.359-2.216,2.645-2.216h20.231c.286,0,2.645.143,2.645,2.216a1.983,1.983,0,0,1-1.573,1.93c-2.5.786-2.431,1.215-2.431,3.86v37.459c0,2.645-.071,3.074,2.431,3.86a1.983,1.983,0,0,1,1.573,1.93c0,2.073-2.359,2.216-2.645,2.216H965.157c-.286,0-2.645-.143-2.645-2.216a1.982,1.982,0,0,1,1.572-1.93c2.5-.786,2.431-1.215,2.431-3.86Z" transform="translate(-363.888 -1.951)" fill="#64ada5"/>
    <path id="Pfad_661" data-name="Pfad 661" d="M1106.174,239.266h18.158l7.649,21.946h.143l3.217-11.867h.143v13.01l-9.079,30.382h-2.073l-14.941-44.25a14.688,14.688,0,0,0-1.287-3.074c-.643-1.072-.929-1.93-2.145-2-.858-.072-2.788-.215-2.788-1.93C1103.172,239.266,1105.317,239.266,1106.174,239.266Zm3,18.086h.143l4,11.8v12.3c1.144,8.936,5.719,6.148,5.719,9.222,0,2.217-2.931,2.073-3.717,2.073h-8.149c-.786,0-3.717.143-3.717-2.073,0-3.074,4.575-.286,5.719-9.222Zm29.524-18.086h18.873c.286,0,2.645.143,2.645,2.216a1.982,1.982,0,0,1-1.573,1.93c-2.5.786-2.43,1.215-2.43,3.86v37.459c0,2.645-.071,3.074,2.43,3.86a1.982,1.982,0,0,1,1.573,1.93c0,2.073-2.359,2.216-2.645,2.216h-20.231c-.286,0-2.645-.143-2.645-2.216a1.983,1.983,0,0,1,1.573-1.93c2.5-.786,2.43-1.215,2.43-3.86Z" transform="translate(-472.092 -1.951)" fill="#64ada5"/>
    <path id="Pfad_662" data-name="Pfad 662" d="M1302.653,284.732c0,2.645-.072,3.074,2.43,3.86a1.983,1.983,0,0,1,1.573,1.93c0,2.073-2.359,2.216-2.645,2.216H1283.78c-.286,0-2.645-.143-2.645-2.216a1.982,1.982,0,0,1,1.573-1.93c2.5-.786,2.431-1.215,2.431-3.86V247.272c0-2.645.071-3.074-2.431-3.86a1.982,1.982,0,0,1-1.573-1.93c0-2.073,2.359-2.216,2.645-2.216h20.231c.286,0,2.645.143,2.645,2.216a1.983,1.983,0,0,1-1.573,1.93c-2.5.786-2.43,1.215-2.43,3.86Z" transform="translate(-586.93 -1.951)" fill="#64ada5"/>
    <path id="Pfad_663" data-name="Pfad 663" d="M1385.175,281.137c0,2.573.572,5.576,3.431,6.577v4.146c-12.439-.357-22.018-12.51-22.018-27.808,0-15.37,9.579-27.522,22.018-27.808v4.146c-2.859,1-3.431,3.932-3.431,6.505Zm6.648,6.577a4.264,4.264,0,0,0,3.288-4.575V270.271c0-1.573-.071-1.93-2.931-2.431a2.1,2.1,0,0,1-1.858-2.145c0-1.93,2.5-2,2.86-2h17.085a2.075,2.075,0,0,1,2.5,2.145,2.34,2.34,0,0,1-1.286,2.145c-1.5.929-1.287,1.787-1.287,2.145v14.154a28.818,28.818,0,0,1-18.372,7.578Zm0-51.471c7.506.643,11.366,2.645,12.153,2.645,2.145,0,1.93-2.645,4.218-2.645a1.928,1.928,0,0,1,2,2.287v15.942c0,.358,0,2.573-2.216,2.573-1.858,0-2.359-1.358-2.716-2.859-2.216-9.15-7.649-13.511-13.44-13.8Z" transform="translate(-642.072 0)" fill="#64ada5"/>
    <path id="Pfad_664" data-name="Pfad 664" d="M1506.659,239.266h10.294v4.146c-3.717,2.645-4.718,7.363-5.362,11.152-.214,1.573-.572,3.431-2.573,3.431a2.157,2.157,0,0,1-2.359-2.073Zm13.511,0h17.514v45.466c0,2.645-.071,3.074,2.43,3.86a1.982,1.982,0,0,1,1.573,1.93c0,2.073-2.359,2.216-2.645,2.216h-20.231c-.286,0-2.645-.143-2.645-2.216a1.982,1.982,0,0,1,1.573-1.93c2.5-.786,2.431-1.215,2.431-3.86Zm31.026,16.656a2.157,2.157,0,0,1-2.359,2.073c-2,0-2.359-1.859-2.573-3.431-.643-3.789-1.644-8.507-5.362-11.152v-4.146H1551.2Z" transform="translate(-732.459 -1.951)" fill="#64ada5"/>
  </g>
</svg>
