<svg xmlns="http://www.w3.org/2000/svg" width="100%" height="auto" viewBox="0 0 415.082 57.446">
  <g id="Gruppe_421" data-name="Gruppe 421" transform="translate(-410.755 -445.735)">
    <path id="Pfad_683" data-name="Pfad 683" d="M429.583,465.524l-6.94,25.252c-1.182,4.5-.148,5.76,2.362,6.867,1.182.517,2.216.96,2.216,2.437,0,2.067-2.363,1.993-3.84,1.993H414.89c-1.477,0-4.135-.073-4.135-2.215,0-1.772,1.255-1.7,2.88-2.51,1.55-.812,3.544-2.511,4.947-7.753l8.86-32.415h.222Zm7.9,22.225H426.7l1.034-4.283h9.008l-7.458-32.636.96-3.987h16.318l11.076,46.665c.442,2.068.517,3.471,2.584,4.357,1.034.443,1.846.959,1.846,2.288,0,1.994-2.658,1.92-4.061,1.92H439.625c-1.477,0-3.618-.147-3.618-2.067,0-1.182.443-1.551,1.4-2.067,1.92-1.108,2.215-1.625,1.551-4.505Z" fill="#64ada5"/>
    <path id="Pfad_684" data-name="Pfad 684" d="M469.161,455.113c0-2.732.073-3.175-2.511-3.987a2.048,2.048,0,0,1-1.624-1.994c0-2.141,2.436-2.289,2.732-2.289h19.493V493.8c0,2.733-.074,3.176,2.51,3.988a2.048,2.048,0,0,1,1.625,1.993c0,2.142-2.437,2.289-2.732,2.289h-20.9c-.3,0-2.732-.147-2.732-2.289a2.047,2.047,0,0,1,1.624-1.993c2.584-.812,2.511-1.255,2.511-3.988Zm21.413-8.27c7.014,0,11.149.739,14.619,2.732,5.464,3.249,7.606,8.122,7.606,14.324s-2.142,11.076-7.606,14.325c-3.47,1.993-7.6,2.732-14.619,2.732v-4.283c4.356-.812,4.577-3.839,4.577-7.457v-11.15c0-3.322-.664-6.35-4.577-6.94Z" fill="#64ada5"/>
    <path id="Pfad_685" data-name="Pfad 685" d="M521.881,455.113c0-2.732.074-3.175-2.51-3.987a2.049,2.049,0,0,1-1.625-1.994c0-2.141,2.437-2.289,2.732-2.289h19.493V493.8c0,2.733-.074,3.176,2.51,3.988a2.048,2.048,0,0,1,1.625,1.993c0,2.142-2.437,2.289-2.732,2.289h-20.9c-.3,0-2.732-.147-2.732-2.289a2.048,2.048,0,0,1,1.625-1.993c2.584-.812,2.51-1.255,2.51-3.988Zm21.413-8.27c7.014,0,11.149.739,14.62,2.732,5.463,3.249,7.6,8.122,7.6,14.324s-2.142,11.076-7.6,14.325c-3.471,1.993-7.606,2.732-14.62,2.732v-4.283c4.356-.812,4.578-3.839,4.578-7.457v-11.15c0-3.322-.665-6.35-4.578-6.94Z" fill="#64ada5"/>
    <path id="Pfad_686" data-name="Pfad 686" d="M575.93,455.113c0-2.732.074-3.175-2.51-3.987a2.049,2.049,0,0,1-1.625-1.994c0-2.141,2.437-2.289,2.732-2.289h19.494V493.8c0,2.733-.074,3.176,2.51,3.988a2.047,2.047,0,0,1,1.624,1.993c0,2.142-2.436,2.289-2.732,2.289h-20.9c-.295,0-2.732-.147-2.732-2.289a2.048,2.048,0,0,1,1.625-1.993c2.584-.812,2.51-1.255,2.51-3.988Zm21.413-8.27h.369c4.8,0,9.821-.148,14.251,1.994,4.947,2.436,7.457,6.5,7.531,12.109.148,8.491-5.464,12.183-12.995,13.955v.148c6.571.96,12.848,2.879,12.995,10.706v6.5c0,.665-.221,2.141.738,2.141,1.182,0,1.4-2.141,3.176-2.141a2.431,2.431,0,0,1,2.141,2.141c0,2.142-2.437,4.874-4.061,6.129a12.18,12.18,0,0,1-8.344,2.658,11.22,11.22,0,0,1-8.343-3.1c-2.585-2.659-2.954-5.907-2.954-9.378v-5.021c0-3.4-.074-7.531-4.5-7.974v-4.356c3.987-.369,4.5-2.806,4.5-6.424v-8.935c0-3.692-.812-5.464-4.5-6.793Z" fill="#64ada5"/>
    <path id="Pfad_687" data-name="Pfad 687" d="M649.252,450.018c-3.47,1.255-3.765,3.47-3.765,5.317v38.247c0,1.846.295,4.061,3.765,5.317v4.282c-15.653-1.4-22.963-14.029-22.963-28.723s7.31-27.32,22.963-28.723Zm3.323,48.881c3.47-1.256,3.766-3.471,3.766-5.317V455.335c0-1.847-.3-4.062-3.766-5.317v-4.283c15.654,1.4,22.964,14.03,22.964,28.723s-7.31,27.32-22.964,28.723Z" fill="#64ada5"/>
    <path id="Pfad_688" data-name="Pfad 688" d="M707.068,502.073H696.435L682.258,454.6c-.591-2.141-.369-2.363-2.362-3.249a2.317,2.317,0,0,1-1.477-2.141c0-2.437,3.1-2.363,4.8-2.363h16.171c1.7,0,5.242-.443,5.242,2.215,0,2.88-3.249,1.625-3.249,4.652a7.266,7.266,0,0,0,.369,2.141l9.156,32.046Zm3.248-27.393,4.357-16.318a7.658,7.658,0,0,0,.517-2.88,3.778,3.778,0,0,0-2.806-3.987c-1.255-.443-2.289-.886-2.289-2.363,0-2.289,2.658-2.289,4.209-2.289h8.122c1.624,0,4.356-.3,4.356,2.068,0,1.624-1.033,1.845-2.289,2.436a6.961,6.961,0,0,0-3.765,3.028,17.822,17.822,0,0,0-1.994,4.946l-6.2,22.964h-.148Z" fill="#64ada5"/>
    <path id="Pfad_689" data-name="Pfad 689" d="M731.287,446.843H750.78v55.23H731.287c-.295,0-2.732-.147-2.732-2.289a2.048,2.048,0,0,1,1.625-1.993c2.584-.812,2.51-1.255,2.51-3.988v-38.69c0-2.732.074-3.175-2.51-3.987a2.049,2.049,0,0,1-1.625-1.994C728.555,446.991,730.992,446.843,731.287,446.843Zm22.816,0h16.466v14.989c0,.369-.074,1.772-2.289,1.772-1.256,0-1.625-.738-1.994-1.846-1.92-5.981-5.685-9.6-12.183-10.632Zm0,24.661c3.1-.812,4.5-3.691,5.168-6.5.37-1.255.813-2.437,2.363-2.437,2.289,0,1.92,2.659,1.92,3.249v15.949c0,.591.369,3.249-1.92,3.249-1.55,0-1.993-1.181-2.363-2.437-.664-2.806-2.067-5.685-5.168-6.5Zm0,26.287c5.981-.739,10.559-4.8,12.552-10.706.517-1.108.96-2.29,2.289-2.29a2.094,2.094,0,0,1,2.141,2.511v14.767H754.1Z" fill="#64ada5"/>
    <path id="Pfad_690" data-name="Pfad 690" d="M798.553,502.073H779.8c-1.624,0-3.47-.147-3.47-2.289a2.048,2.048,0,0,1,1.624-1.993c2.585-.812,2.511-1.255,2.511-3.988v-38.69c0-1.108.147-3.1-1.255-3.545-1.477-.516-2.88-.738-2.88-2.584,0-1.919,1.846-2.141,3.323-2.141h18.9Zm3.322-55.23c12.553-.148,23.038,8.565,23.924,27.615.812,17.352-11.666,27.615-23.924,27.615v-4.282c4.505-.591,4.726-4.8,4.726-7.6V458.731c0-2.806-.221-7.015-4.726-7.6Z" fill="#64ada5"/>
  </g>
</svg>
