<svg xmlns="http://www.w3.org/2000/svg" width="100%" height="auto" viewBox="0 0 390.936 57.453">
  <g id="Gruppe_422" data-name="Gruppe 422" transform="translate(-415.038 -445.735)">
    <path id="Pfad_691" data-name="Pfad 691" d="M419.172,455.113c0-2.732.074-3.175-2.51-3.987a2.048,2.048,0,0,1-1.624-1.994c0-2.141,2.436-2.289,2.732-2.289h19.493V493.8c0,2.733-.074,3.176,2.51,3.988a2.047,2.047,0,0,1,1.624,1.993c0,2.142-2.436,2.289-2.731,2.289h-20.9c-.3,0-2.732-.147-2.732-2.289a2.047,2.047,0,0,1,1.624-1.993c2.584-.812,2.51-1.255,2.51-3.988Zm21.413-8.27h.37c4.8,0,9.82-.148,14.25,1.994,4.947,2.436,7.458,6.5,7.531,12.109.148,8.491-5.464,12.183-12.995,13.955v.148c6.571.96,12.848,2.879,12.995,10.706v6.5c0,.665-.221,2.141.739,2.141,1.181,0,1.4-2.141,3.175-2.141a2.431,2.431,0,0,1,2.141,2.141c0,2.142-2.437,4.874-4.061,6.129a12.178,12.178,0,0,1-8.344,2.658,11.22,11.22,0,0,1-8.343-3.1c-2.585-2.659-2.954-5.907-2.954-9.378v-5.021c0-3.4-.073-7.531-4.5-7.974v-4.356c3.987-.369,4.5-2.806,4.5-6.424v-8.935c0-3.692-.812-5.464-4.5-6.793Z" fill="#d83356"/>
    <path id="Pfad_692" data-name="Pfad 692" d="M473.371,446.843h19.493v55.23H473.371c-.3,0-2.732-.147-2.732-2.289a2.047,2.047,0,0,1,1.624-1.993c2.585-.812,2.51-1.255,2.51-3.988v-38.69c0-2.732.075-3.175-2.51-3.987a2.048,2.048,0,0,1-1.624-1.994C470.639,446.991,473.075,446.843,473.371,446.843Zm22.816,0h16.465v14.989c0,.369-.074,1.772-2.289,1.772-1.255,0-1.624-.738-1.993-1.846-1.92-5.981-5.686-9.6-12.183-10.632Zm0,24.661c3.1-.812,4.5-3.691,5.168-6.5.369-1.255.812-2.437,2.363-2.437,2.289,0,1.92,2.659,1.92,3.249v15.949c0,.591.369,3.249-1.92,3.249-1.551,0-1.994-1.181-2.363-2.437-.665-2.806-2.067-5.685-5.168-6.5Zm0,26.287c5.98-.739,10.558-4.8,12.552-10.706.517-1.108.96-2.29,2.289-2.29a2.094,2.094,0,0,1,2.141,2.511v14.767H496.187Z" fill="#d83356"/>
    <path id="Pfad_693" data-name="Pfad 693" d="M530.447,502.96c-6.941-.739-13.882-5.317-13.882-12.922a8.763,8.763,0,0,1,8.64-8.934,8.086,8.086,0,0,1,8.048,7.9,7.827,7.827,0,0,1-5.095,7.384c-.148.074-.739.369-.739.591,0,.738,2.363,1.476,3.028,1.624Zm24.292-15.875c0,4.651-.812,8.712-4.5,11.887-3.544,3.028-9.3,4.209-13.881,4.209l-2.584-.074v-4.356c2.879-1.33,2.879-4.209,2.879-6.793V455.113c0-2.732.074-3.175-2.51-3.987a2.049,2.049,0,0,1-1.625-1.994c0-2.141,2.437-2.289,2.733-2.289h20.9c.295,0,2.733.148,2.733,2.289a2.049,2.049,0,0,1-1.625,1.994c-2.584.812-2.511,1.255-2.511,3.987Z" fill="#d83356"/>
    <path id="Pfad_694" data-name="Pfad 694" d="M566.554,446.843h19.493v55.23H566.554c-.3,0-2.732-.147-2.732-2.289a2.047,2.047,0,0,1,1.624-1.993c2.585-.812,2.511-1.255,2.511-3.988v-38.69c0-2.732.074-3.175-2.511-3.987a2.048,2.048,0,0,1-1.624-1.994C563.822,446.991,566.258,446.843,566.554,446.843Zm22.816,0h16.465v14.989c0,.369-.074,1.772-2.289,1.772-1.255,0-1.624-.738-1.993-1.846-1.92-5.981-5.686-9.6-12.183-10.632Zm0,24.661c3.1-.812,4.5-3.691,5.168-6.5.369-1.255.813-2.437,2.363-2.437,2.289,0,1.92,2.659,1.92,3.249v15.949c0,.591.369,3.249-1.92,3.249-1.55,0-1.994-1.181-2.363-2.437-.664-2.806-2.067-5.685-5.168-6.5Zm0,26.287c5.981-.739,10.558-4.8,12.552-10.706.516-1.108.96-2.29,2.289-2.29a2.094,2.094,0,0,1,2.141,2.511v14.767H589.37Z" fill="#d83356"/>
    <path id="Pfad_695" data-name="Pfad 695" d="M635.223,503.181c-16.244-.3-23.924-12.626-23.924-27.763,0-17.056,9.6-29.165,23.924-29.683v4.283c-3.545.738-4.726,3.766-4.726,6.867v35c0,3.1,1.181,6.128,4.726,7.015Zm3.322-57.446c2.732.074,8.417,2.954,10.337,2.954a1.916,1.916,0,0,0,1.994-1.4c.443-.96.96-1.551,1.994-1.551a2.368,2.368,0,0,1,2.362,2.659v17.13a2.367,2.367,0,0,1-2.362,2.658c-1.551,0-2.437-1.255-2.732-2.658-1.256-5.981-4.726-13.66-11.593-15.506Zm14.546,40.316a2.3,2.3,0,0,1,2.215,2.51c-.147,6.055-9.082,14.915-16.761,14.62V498.9c5.685-1.256,10.485-5.021,12.109-10.485C651.1,487.158,651.541,486.051,653.091,486.051Z" fill="#d83356"/>
    <path id="Pfad_696" data-name="Pfad 696" d="M659.737,446.843h10.632v4.283c-3.839,2.732-4.873,7.6-5.537,11.518-.222,1.625-.591,3.545-2.659,3.545a2.227,2.227,0,0,1-2.436-2.142Zm13.955,0h18.09V493.8c0,2.733-.074,3.176,2.51,3.988a2.048,2.048,0,0,1,1.625,1.993c0,2.142-2.437,2.289-2.732,2.289h-20.9c-.295,0-2.732-.147-2.732-2.289a2.048,2.048,0,0,1,1.625-1.993c2.584-.812,2.51-1.255,2.51-3.988Zm32.045,17.2a2.227,2.227,0,0,1-2.436,2.142c-2.068,0-2.437-1.92-2.658-3.545-.665-3.913-1.7-8.786-5.538-11.518v-4.283h10.632Z" fill="#d83356"/>
    <path id="Pfad_697" data-name="Pfad 697" d="M711.423,446.843h19.494v55.23H711.423c-.295,0-2.732-.147-2.732-2.289a2.048,2.048,0,0,1,1.625-1.993c2.584-.812,2.51-1.255,2.51-3.988v-38.69c0-2.732.074-3.175-2.51-3.987a2.049,2.049,0,0,1-1.625-1.994C708.691,446.991,711.128,446.843,711.423,446.843Zm22.816,0h16.466v14.989c0,.369-.074,1.772-2.289,1.772-1.255,0-1.624-.738-1.994-1.846-1.92-5.981-5.685-9.6-12.183-10.632Zm0,24.661c3.1-.812,4.5-3.691,5.169-6.5.369-1.255.812-2.437,2.363-2.437,2.289,0,1.919,2.659,1.919,3.249v15.949c0,.591.37,3.249-1.919,3.249-1.551,0-1.994-1.181-2.363-2.437-.665-2.806-2.068-5.685-5.169-6.5Zm0,26.287c5.981-.739,10.559-4.8,12.553-10.706.517-1.108.959-2.29,2.289-2.29a2.1,2.1,0,0,1,2.141,2.511v14.767H734.239Z" fill="#d83356"/>
    <path id="Pfad_698" data-name="Pfad 698" d="M778.69,502.073H759.935c-1.624,0-3.47-.147-3.47-2.289a2.047,2.047,0,0,1,1.624-1.993c2.584-.812,2.511-1.255,2.511-3.988v-38.69c0-1.108.147-3.1-1.256-3.545-1.476-.516-2.879-.738-2.879-2.584,0-1.919,1.846-2.141,3.323-2.141h18.9Zm3.322-55.23c12.553-.148,23.038,8.565,23.924,27.615.812,17.352-11.666,27.615-23.924,27.615v-4.282c4.505-.591,4.726-4.8,4.726-7.6V458.731c0-2.806-.221-7.015-4.726-7.6Z" fill="#d83356"/>
  </g>
</svg>
