<svg xmlns="http://www.w3.org/2000/svg" width="100%" height="auto" viewBox="0 0 465.623 110.78">
  <g id="Gruppe_420" data-name="Gruppe 420" transform="translate(-403.89 -233.691) rotate(-7)">
    <path id="Pfad_674" data-name="Pfad 674" d="M384.226,355.65l-6.891,25.073c-1.173,4.472-.147,5.718,2.346,6.818,1.173.513,2.2.953,2.2,2.419,0,2.053-2.346,1.98-3.812,1.98h-8.431c-1.466,0-4.1-.074-4.1-2.2,0-1.759,1.246-1.686,2.859-2.492,1.539-.807,3.519-2.493,4.912-7.7l8.8-32.184h.22Zm7.845,22.067h-10.7l1.027-4.252h8.944l-7.4-32.4.953-3.959h16.2l11,46.333c.44,2.053.513,3.446,2.566,4.326,1.026.44,1.833.953,1.833,2.272,0,1.98-2.639,1.907-4.032,1.907H394.2c-1.466,0-3.592-.147-3.592-2.053,0-1.173.439-1.54,1.393-2.053,1.906-1.1,2.2-1.613,1.539-4.472Z" fill="#d83356"/>
    <path id="Pfad_675" data-name="Pfad 675" d="M441.558,391.94H421.837a2.159,2.159,0,0,1-2.346-2.273,2.033,2.033,0,0,1,1.612-1.98c2.566-.806,2.493-1.246,2.493-3.958V345.313c0-2.713.073-3.153-2.493-3.959a2.032,2.032,0,0,1-1.612-1.979,2.158,2.158,0,0,1,2.346-2.273h19.721Zm3.3-54.838h2.272c4.619,0,9.311.073,13.563,2.126,4.545,2.273,7.185,6.085,7.185,11.29,0,8.064-6.745,11.8-13.856,12.9v.147c8.137,1.319,14.589,4.912,14.589,14.076a12.811,12.811,0,0,1-6.892,11.876c-4.692,2.639-9.31,2.42-14.516,2.42h-2.345v-4.253c4.912-.22,5.5-3.005,5.5-5.645v-9.457c0-3.372-.807-6.525-5.5-6.891v-4.252c5.351-.44,5.5-3.593,5.5-6.3V347.8c0-3.079-1.1-6.011-5.5-6.451Z" fill="#d83356"/>
    <path id="Pfad_676" data-name="Pfad 676" d="M492.8,382.042c0,2.64.586,5.719,3.519,6.745v4.252c-12.757-.366-22.58-12.829-22.58-28.518,0-15.763,9.823-28.226,22.58-28.519v4.252c-2.933,1.027-3.519,4.032-3.519,6.672Zm6.818,6.745a4.373,4.373,0,0,0,3.372-4.692V370.9c0-1.613-.073-1.98-3.006-2.493a2.152,2.152,0,0,1-1.906-2.2c0-1.98,2.566-2.053,2.933-2.053h17.522a2.127,2.127,0,0,1,2.565,2.2,2.4,2.4,0,0,1-1.319,2.2c-1.54.953-1.32,1.833-1.32,2.2v14.516a29.551,29.551,0,0,1-18.841,7.771Zm0-52.785c7.7.66,11.656,2.713,12.463,2.713,2.2,0,1.979-2.713,4.325-2.713a1.977,1.977,0,0,1,2.053,2.346V354.7c0,.366,0,2.639-2.272,2.639-1.907,0-2.42-1.393-2.786-2.932-2.273-9.384-7.845-13.857-13.783-14.15Z" fill="#d83356"/>
    <path id="Pfad_677" data-name="Pfad 677" d="M528.508,337.1h19.354V391.94H528.508c-.293,0-2.713-.147-2.713-2.273a2.034,2.034,0,0,1,1.613-1.98c2.566-.806,2.493-1.246,2.493-3.958V345.313c0-2.713.073-3.153-2.493-3.959a2.033,2.033,0,0,1-1.613-1.979C525.795,337.248,528.215,337.1,528.508,337.1Zm22.653,0H567.51v14.882c0,.367-.073,1.76-2.273,1.76-1.246,0-1.612-.733-1.979-1.833-1.906-5.938-5.645-9.531-12.1-10.557Zm0,24.486c3.08-.806,4.473-3.665,5.132-6.451.367-1.247.807-2.42,2.346-2.42,2.273,0,1.906,2.64,1.906,3.226v15.836c0,.586.367,3.225-1.906,3.225-1.539,0-1.979-1.173-2.346-2.419-.659-2.786-2.052-5.645-5.132-6.451Zm0,26.1c5.939-.733,10.484-4.765,12.464-10.63.513-1.1.953-2.273,2.272-2.273a2.08,2.08,0,0,1,2.126,2.493V391.94H551.161Z" fill="#d83356"/>
    <path id="Pfad_678" data-name="Pfad 678" d="M596.323,391.94H576.968c-.293,0-2.712-.147-2.712-2.273a2.033,2.033,0,0,1,1.612-1.98c2.566-.806,2.493-1.246,2.493-3.958V345.313c0-2.713.073-3.153-2.493-3.959a2.032,2.032,0,0,1-1.612-1.979c0-2.127,2.419-2.273,2.712-2.273h20.747c.294,0,2.713.146,2.713,2.273a2.033,2.033,0,0,1-1.613,1.979c-2.566.806-2.492,1.246-2.492,3.959Zm3.3-4.253c5.938-.806,9.31-5.938,10.85-12.756.366-1.613,1.246-2.053,2.786-2.053,1.686,0,1.833,1.393,1.833,2.786V391.94H599.622Z" fill="#d83356"/>
    <path id="Pfad_679" data-name="Pfad 679" d="M620.516,337.1H639.87V391.94H620.516c-.293,0-2.713-.147-2.713-2.273a2.034,2.034,0,0,1,1.613-1.98c2.566-.806,2.493-1.246,2.493-3.958V345.313c0-2.713.073-3.153-2.493-3.959a2.033,2.033,0,0,1-1.613-1.979C617.8,337.248,620.223,337.1,620.516,337.1Zm22.653,0h16.349v14.882c0,.367-.073,1.76-2.273,1.76-1.246,0-1.613-.733-1.979-1.833-1.906-5.938-5.645-9.531-12.1-10.557Zm0,24.486c3.08-.806,4.472-3.665,5.132-6.451.367-1.247.807-2.42,2.346-2.42,2.273,0,1.906,2.64,1.906,3.226v15.836c0,.586.367,3.225-1.906,3.225-1.539,0-1.979-1.173-2.346-2.419-.66-2.786-2.052-5.645-5.132-6.451Zm0,26.1c5.939-.733,10.484-4.765,12.463-10.63.514-1.1.954-2.273,2.273-2.273a2.08,2.08,0,0,1,2.126,2.493V391.94H643.169Z" fill="#d83356"/>
    <path id="Pfad_680" data-name="Pfad 680" d="M689.5,383.729c0,2.712-.073,3.152,2.493,3.958a2.034,2.034,0,0,1,1.613,1.98c0,2.126-2.42,2.273-2.713,2.273H670.149c-.293,0-2.713-.147-2.713-2.273a2.034,2.034,0,0,1,1.613-1.98c2.566-.806,2.493-1.246,2.493-3.958V345.313c0-2.713.073-3.153-2.493-3.959a2.033,2.033,0,0,1-1.613-1.979c0-2.127,2.42-2.273,2.713-2.273H690.9c.293,0,2.713.146,2.713,2.273A2.033,2.033,0,0,1,692,341.354c-2.566.806-2.493,1.246-2.493,3.959Zm9.751-17.522H692.8v-4.252h6.451V345.313c0-2.713.073-3.153-2.493-3.959a2.032,2.032,0,0,1-1.612-1.979c0-2.127,2.419-2.273,2.712-2.273h20.747c.294,0,2.713.146,2.713,2.273a2.033,2.033,0,0,1-1.613,1.979c-2.566.806-2.492,1.246-2.492,3.959v38.416c0,2.712-.074,3.152,2.492,3.958a2.034,2.034,0,0,1,1.613,1.98c0,2.126-2.419,2.273-2.713,2.273H697.861c-.293,0-2.712-.147-2.712-2.273a2.033,2.033,0,0,1,1.612-1.98c2.566-.806,2.493-1.246,2.493-3.958Z" fill="#d83356"/>
    <path id="Pfad_681" data-name="Pfad 681" d="M733.858,350.885h.147l4.1,7.331v22.14c1.173,9.164,5.865,6.305,5.865,9.457,0,2.273-3.005,2.127-3.812,2.127h-8.357c-.807,0-3.813.146-3.813-2.127,0-3.152,4.692-.293,5.865-9.457Zm38.2,23.313V391.94H761.131L734.3,345.679c-1.173-2.052-1.539-3.152-3.959-3.959-1.246-.439-2.2-.733-2.2-2.345,0-2.2,2.2-2.2,3.739-2.273H750.72ZM767.8,350.371c0-10.483-6.012-7.7-6.012-11.07,0-2.053,2.419-2.2,3.153-2.2h9.97c.733,0,3.152.146,3.152,2.2,0,3.373-6.011.587-6.011,11.07v17.815h-.147l-4.1-7.4Z" fill="#d83356"/>
    <path id="Pfad_682" data-name="Pfad 682" d="M782.245,337.1H792.8v4.252c-3.812,2.712-4.839,7.551-5.5,11.437-.22,1.613-.587,3.519-2.639,3.519a2.212,2.212,0,0,1-2.42-2.126Zm13.856,0h17.962v46.627c0,2.712-.073,3.152,2.493,3.958a2.033,2.033,0,0,1,1.612,1.98c0,2.126-2.419,2.273-2.712,2.273H794.708c-.293,0-2.712-.147-2.712-2.273a2.033,2.033,0,0,1,1.613-1.98c2.565-.806,2.492-1.246,2.492-3.958Zm31.818,17.082a2.212,2.212,0,0,1-2.42,2.126c-2.052,0-2.419-1.906-2.639-3.519-.659-3.886-1.686-8.725-5.5-11.437V337.1h10.557Z" fill="#d83356"/>
  </g>
</svg>
