<?xml version="1.0" encoding="utf-8"?>
<!-- Generator: Adobe Illustrator 25.0.1, SVG Export Plug-In . SVG Version: 6.00 Build 0)  -->
<svg version="1.1" id="Layer_1" xmlns="http://www.w3.org/2000/svg" xmlns:xlink="http://www.w3.org/1999/xlink" x="0px" y="0px"
	 viewBox="0 0 548.8 470.3" style="enable-background:new 0 0 548.8 470.3;" xml:space="preserve">
<path d="M415.4,317.9c22-11.7,38.8-29.3,57.4-44.5c7.7-6.3,15.8-12.3,24.2-17.7c7.9-5.1,16.3-6.6,24.7-0.3c1.1,0.8,3.1,0.7,4.7,0.6
	c13.1-1.3,21.3,8.6,17.2,21.2c-0.9,2.6-2.2,5.3-3.8,7.5c-15.1,21.2-30.1,42.4-45.6,63.3c-4.2,5.7-9,11.5-14.8,15.4
	c-10.1,6.9-21.1,12.5-31.9,18.4c-25.7,13.8-51.9,26.7-77,41.4c-23.3,13.6-47.6,15.6-72.8,9.1c-30-7.8-59.7-16.4-89.5-25
	c-23.6-6.8-46.7-6.3-69.1,4.5c-7.3,3.5-14.9,6.6-23.1,10.1c-15.1-34.1-30.1-68.1-45.5-102.7c18.5-6.8,31.2-21,46.5-31.6
	c36-25.1,75.4-28.4,116.5-15.9c13.5,4.1,26.3,10.3,39.4,15.7c30.5,12.8,62.5,19.6,94.8,25.7c4,0.7,23.3,4,30,6.2
	c8,2.5,15.3,6.9,15.9,16.5c0.6,9.6-6.2,14.6-13.7,18.5c-7.7,4-15.9,6.1-24.6,4.8c-11.7-1.8-73.5-12.2-85.8-13.6
	c-13.9-1.6-27.6,0.4-40.8,5.2c-0.8,0.3-1.6,0.6-2.3,0.9c-3.2,1.5-4.7,3.9-3.3,7.2c1.4,3.3,4.2,2.8,6.8,1.7c16.1-6.4,32.8-7,49.7-4.3
	c18.1,2.9,36.1,6,54.2,9.1c5.7,1,11.5,1.9,17.2,2.9c13.3,2.4,25.5-0.6,36.9-7.4C422.8,352.2,430.4,335.4,415.4,317.9z" fill="#7a7a7a"/>
<path d="M115.4,439.6c-16.8,9.8-33.2,19.3-51,29.7c-1.6-6-54-124.6-60.7-139.8C3.2,328.3,2.8,327,2,325
	c18.4-5.8,36.6-11.5,55.2-17.3c2.6,5.9,5.1,11.4,7.6,17C75.8,349.6,112.8,433.5,115.4,439.6z" fill="#7a7a7a"/>
<path d="M337.4,0c6.6,1.6,13.5,2.5,19.7,4.9c26.8,10.6,43,30.3,47.2,58.8c5.3,36.2-16,69.6-50.8,80.9
	c-39.6,12.9-83.4-11.2-93.7-51.5C249.8,54.3,271,15.6,309,3.5c5.2-1.6,10.6-2.4,16-3.5C329.1,0,333.3,0,337.4,0z" fill="#7a7a7a"/>
<path d="M233.5,261.7c13.5,4.1,26.3,10.3,39.4,15.7c30.5,12.8,62.5,19.6,94.8,25.7c4,0.7,23,5.5,30,6.2c6.2,0.6,10.9,0.2,17.7-1.4
	c14.4-7.6,26.6-17.9,38.5-28.3c0-8,0-16-0.2-23.9c-0.1-6.9-0.8-13.9-2.3-20.6c-5.3-24.6-18.5-44.2-39.1-58.6
	c-14.7-10.3-31.1-16.3-49.1-16.7c-21.4-0.5-42.8-0.5-64.1,0c-21.3,0.6-40.1,8.4-56.3,22.1c-22.8,19.4-33.9,44.4-34.4,74.1
	C216.8,257.3,225.1,259.2,233.5,261.7z" fill="#7a7a7a"/>
</svg>
