<svg xmlns="http://www.w3.org/2000/svg" width="24.509" height="24.5" viewBox="0 0 24.509 24.5">
  <path id="Pfad_563" data-name="Pfad 563" d="M105.969,241.125h-1.436c-.323-.039-.647-.071-.97-.117a12.258,12.258,0,0,1-10.375-10.025c-.08-.46-.126-.927-.188-1.39v-1.435a1.987,1.987,0,0,0,.042-.229,11.652,11.652,0,0,1,.682-3.214,12.254,12.254,0,0,1,23.564,6.458,12.262,12.262,0,0,1-9.924,9.763C106.9,241.016,106.434,241.063,105.969,241.125Zm1.19-5.84v-8.6h-5.241v1.426h1.405v7.179h-1.4v1.417h6.665v-1.425Zm.724-12.668a2.631,2.631,0,1,0-2.641,2.621A2.64,2.64,0,0,0,107.882,222.618Z" transform="translate(-93 -216.625)" fill="#2388ae"/>
</svg>
