<?xml version="1.0" encoding="utf-8"?>
<!-- Generator: Adobe Illustrator 25.0.1, SVG Export Plug-In . SVG Version: 6.00 Build 0)  -->
<svg version="1.1" id="Layer_1" xmlns="http://www.w3.org/2000/svg" xmlns:xlink="http://www.w3.org/1999/xlink" x="0px" y="0px"
	 viewBox="0 0 400 400" style="enable-background:new 0 0 400 400;" xml:space="preserve">
<g>
	<path d="M210.9,8c7.4,1,14.9,1.6,22.2,3c60.7,11.7,106,44.7,135.7,98.7c16.7,30.4,24,63.3,22.2,97.9c-2.7,54.2-24.5,99.6-65,135.7
		c-30.5,27.2-66.5,43-107.1,46.8c-56.9,5.3-107-11.4-149.2-50c-32.4-29.6-51.8-66.6-59.2-109.8c-1.1-6.5-1.7-13-2.5-19.6
		c0-7.5,0-15,0-22.5c0.2-1.1,0.6-2.1,0.6-3.2c1.9-26.7,8.9-52.1,21.9-75.5c29.8-54,75.1-87,135.7-98.7c7.3-1.4,14.8-2,22.2-3
		C195.9,8,203.4,8,210.9,8z M199.9,20.8c-98.4-0.3-178.7,79.7-179.1,178.4c-0.4,98.5,79.8,179,178.6,179.3
		c98.5,0.3,178.7-79.7,179.1-178.4C378.9,101.7,298.6,21.1,199.9,20.8z"/>
	<path d="M126.7,206c-6.8,0-9.9-2-10-6.3c-0.1-4.4,3.1-6.5,9.8-6.5c48.8,0,97.5,0,146.3,0c0.9,0,1.7,0,2.6,0
		c4.5,0.3,7.3,2.8,7.2,6.5c-0.1,3.7-2.8,6.1-7.4,6.3c-1.1,0.1-2.2,0-3.4,0C247.8,206,151,206,126.7,206z"/>
</g>
</svg>
