<?xml version="1.0" encoding="utf-8"?>
<!-- Generator: Adobe Illustrator 25.0.1, SVG Export Plug-In . SVG Version: 6.00 Build 0)  -->
<svg version="1.1" id="Layer_1" xmlns="http://www.w3.org/2000/svg" xmlns:xlink="http://www.w3.org/1999/xlink" x="0px" y="0px"
	 viewBox="0 0 300 300" style="enable-background:new 0 0 300 300;" xml:space="preserve">
<style type="text/css">
	.st0{fill:#FFFFFF;}
</style>
<path d="M293.8,189.3c0-0.1,0-0.2,0-0.3c-0.2-3.6-1.2-7.3-3.1-11.2c-0.7-1.6-1.6-3.2-2.3-4.8c-2.4-5-4.9-10.1-7.5-15.1
	c-0.5-0.9-0.9-1.9-1.2-2.8c-1.4-4.3-0.9-8.6,1.4-13c2.7-5.2,5.2-10.5,7.7-15.6c0,0,1.4-3,2-4.3c6.2-13,2.3-25.3-10.3-31.9L278,89
	c-5.8-3.2-11.9-6.4-17.9-9.5c-4.9-2.5-7.8-6.5-8.7-12c-0.6-3.8-1.3-7.9-1.9-11.3c-0.6-3.5-1.2-7.1-1.9-10.7
	c-2.2-13.3-10.6-20.8-23-20.8c-0.1,0-0.2,0-0.2,0l0-0.1c-1.3,0-2.6,0-4,0.2c-6.7,0.8-13.9,1.9-22.8,3.3c-1,0.1-2,0.2-3.1,0.2
	c-1.6,0-3-0.2-4.5-0.7c-2.5-0.8-4.8-2.3-6.8-4.4c-4.9-4.9-9.9-9.8-14.9-14.5l-1.8-1.7c-2.6-2.4-5.5-4.3-8.4-5.5
	c-1.8-0.8-3.6-1.3-5.5-1.7h-0.1h-5.3h-0.1c-2,0.3-3.9,0.9-5.8,1.8c-2.8,1.2-5.5,2.9-8,5.2c-5.7,5.5-11.5,11-17.3,16.7
	c-3,3-6.6,4.5-10.5,4.5c-0.7,0-1.5,0-2.3-0.2c-2.2-0.4-4.6-0.7-6.9-1l-0.6-0.1c-4.9-0.6-10.4-1.4-15.7-2.2c-1.7-0.2-3.3-0.4-4.9-0.4
	c-11.7,0-20.1,7.2-22.6,19.3c-0.3,1.7-0.7,3.5-1,5.2c-1,5.4-2,11.2-3,17.6c-0.1,0.6-0.2,1.2-0.3,1.7c-1.2,4.9-4,8.5-8.4,10.9
	c-0.2,0.1-0.3,0.2-0.5,0.3c-6.7,3.2-13.4,7-19.8,10.4L19.1,90c-8.1,4.4-12.6,11.2-12.9,18.9c0,0.1,0,0.2,0,0.3c0,0.2,0,0.5,0,0.7
	c0,0.2,0,0.5,0,0.7c0,0.1,0,0.2,0,0.3c0.2,3.6,1.2,7.3,3.1,11.2c0.7,1.6,1.6,3.2,2.3,4.8c2.4,5,4.9,10.1,7.5,15.1
	c0.5,0.9,0.9,1.9,1.2,2.8c1.4,4.3,0.9,8.6-1.4,13c-2.7,5.2-5.2,10.5-7.7,15.6c0,0-1.4,3-2,4.3c-6.2,13-2.3,25.3,10.3,31.9l2.5,1.4
	c5.8,3.2,11.9,6.4,17.9,9.5c4.9,2.5,7.8,6.5,8.7,12c0.6,3.8,1.3,7.9,1.9,11.3c0.6,3.5,1.2,7.1,1.9,10.7c2.2,13.3,10.6,20.8,23,20.8
	c0.1,0,0.2,0,0.2,0l0,0.1c1.3,0,2.6,0,4-0.2c6.7-0.8,13.9-1.9,22.8-3.3c1-0.1,2-0.2,3.1-0.2c1.6,0,3,0.2,4.5,0.7
	c2.5,0.8,4.8,2.3,6.8,4.4c4.9,4.9,9.9,9.8,14.9,14.5l1.8,1.7c2.6,2.4,5.5,4.3,8.4,5.5c1.8,0.8,3.6,1.3,5.5,1.7h0.1h2.6c0,0,0,0,0,0
	c0,0,0,0,0,0l2.7,0h0.1c2-0.3,3.9-0.9,5.8-1.8c2.8-1.2,5.5-2.9,8-5.2c5.7-5.5,11.5-11,17.3-16.7c3-3,6.6-4.5,10.5-4.5
	c0.7,0,1.5,0,2.3,0.2c2.2,0.4,4.6,0.7,6.9,1l0.6,0.1c4.9,0.6,10.4,1.4,15.7,2.2c1.7,0.2,3.3,0.4,4.9,0.4c11.7,0,20.1-7.2,22.6-19.3
	c0.3-1.7,0.7-3.5,1-5.2c1-5.4,2-11.2,3-17.6c0.1-0.6,0.2-1.2,0.3-1.7c1.2-4.9,4-8.5,8.4-10.9c0.2-0.1,0.3-0.2,0.5-0.3
	c6.7-3.2,13.4-7,19.8-10.4l0.6-0.3c8.1-4.4,12.6-11.2,12.9-18.9c0-0.1,0-0.2,0-0.3c0-0.2,0-0.5,0-0.7
	C293.8,189.8,293.8,189.6,293.8,189.3z M219.4,166H80.5c-8.8,0-16-7.2-16-16s7.2-16,16-16h138.9c8.8,0,16,7.2,16,16
	S228.3,166,219.4,166z"/>
</svg>
