<svg xmlns="http://www.w3.org/2000/svg" width="24.213" height="23.462" viewBox="0 0 24.213 23.462">
  <g id="Gruppe_312" data-name="Gruppe 312" transform="translate(-208 -114.279)">
    <path id="Pfad_474" data-name="Pfad 474" d="M208,115.777c.025-.089.052-.179.075-.268a1.531,1.531,0,0,1,1.684-1.207,1.51,1.51,0,0,1,1.5,1.316,4.789,4.789,0,0,1,.052.777c.007.717,0,1.434,0,2.2.082-.059.138-.092.186-.135.642-.571,1.256-1.177,1.928-1.709a11.516,11.516,0,0,1,14.46.168,11.349,11.349,0,0,1,4.158,7.133,11.5,11.5,0,0,1-2.539,9.456,11.3,11.3,0,0,1-7.892,4.169,11.092,11.092,0,0,1-9.286-3.367,1.526,1.526,0,0,1-.454-1.722,1.6,1.6,0,0,1,1.459-1.1,1.776,1.776,0,0,1,1.246.422c.484.379.947.79,1.456,1.13a7.731,7.731,0,0,0,7.545.755,7.946,7.946,0,0,0,5.143-6.031,8.364,8.364,0,0,0-6.659-10,8.072,8.072,0,0,0-7.342,2.218c-.267.245-.526.5-.783.756a.856.856,0,0,0-.111.189.784.784,0,0,0,.21.063c.709,0,1.419-.013,2.127.01a2.768,2.768,0,0,1,.9.166,1.645,1.645,0,0,1-.589,3.133c-.29.02-.583.014-.874.015q-2.8,0-5.6,0a4.024,4.024,0,0,1-.728-.054,1.443,1.443,0,0,1-1.219-1.22c-.014-.069-.034-.136-.051-.2Z" fill="#fff"/>
  </g>
</svg>
