<svg xmlns="http://www.w3.org/2000/svg" width="45.644" height="45.797" viewBox="0 0 45.644 45.797">
  <path id="Pfad_502" data-name="Pfad 502" d="M30.238,17.082a20.9,20.9,0,0,0-1.191-5.828A21.553,21.553,0,0,1,27.6,5.511a4.9,4.9,0,0,1,1.023-3.362A3.391,3.391,0,0,1,31.219,1a2.938,2.938,0,0,1,2.3,1.149,4.911,4.911,0,0,1,.977,3.274,18.317,18.317,0,0,1-1.149,5.362,28.87,28.87,0,0,0-1.362,6.3A19.652,19.652,0,0,0,36.2,13.468a21.376,21.376,0,0,1,4.3-4.171,5.659,5.659,0,0,1,2.851-.809,3.1,3.1,0,0,1,2.339.981,3,3,0,0,1,.981,2.252,3.67,3.67,0,0,1-1.4,2.809Q43.852,15.766,38.238,17a30.4,30.4,0,0,0-5.446,1.66A19.633,19.633,0,0,0,38.2,20.4q5.146.933,6.725,2.339a4.048,4.048,0,0,1,1.614,3.065,2.951,2.951,0,0,1-.977,2.21,3.026,3.026,0,0,1-2.214.939,5.863,5.863,0,0,1-2.851-.9,19.315,19.315,0,0,1-4.168-4,22.471,22.471,0,0,0-4.343-3.912,20.157,20.157,0,0,0,.981,5.274,29.218,29.218,0,0,1,1.53,6.85,4.3,4.3,0,0,1-1.019,2.893A2.92,2.92,0,0,1,31.3,36.313a4.017,4.017,0,0,1-2.851-1.233,3.9,3.9,0,0,1-.893-2.851,15.473,15.473,0,0,1,.977-4.893q.979-2.891,1.237-3.958a28.181,28.181,0,0,0,.466-3.232,23.475,23.475,0,0,0-4.381,3.7,24.692,24.692,0,0,1-4.679,4.423,4.332,4.332,0,0,1-2.3.683,3.437,3.437,0,0,1-2.469-.981,2.958,2.958,0,0,1-1.023-2.168,3.772,3.772,0,0,1,.851-2.214,6.475,6.475,0,0,1,2.641-1.958,33.159,33.159,0,0,1,5.232-1.362,27.852,27.852,0,0,0,5.148-1.614,21.9,21.9,0,0,0-5.488-1.79q-5.232-1.1-6.469-2a4.125,4.125,0,0,1-1.916-3.4,2.891,2.891,0,0,1,.939-2.088A3.1,3.1,0,0,1,18.583,8.4,6.066,6.066,0,0,1,21.56,9.3a16.842,16.842,0,0,1,3.916,3.618,21.074,21.074,0,0,0,4.763,4.168M8.309,32.218a6.934,6.934,0,0,1,5.19,2.168,6.966,6.966,0,0,1,2.1,5.122,7.075,7.075,0,0,1-2.164,5.187,6.978,6.978,0,0,1-5.125,2.1A7.182,7.182,0,0,1,1.02,39.508a7.048,7.048,0,0,1,2.1-5.186,7.181,7.181,0,0,1,5.186-2.1" transform="translate(-1.02 -1)" fill="#fff"/>
</svg>
