<svg xmlns="http://www.w3.org/2000/svg" width="25.393" height="23.636" viewBox="0 0 25.393 23.636">
  <g id="Gruppe_357" data-name="Gruppe 357" transform="translate(-285.052 -408.771)">
    <path id="Pfad_569" data-name="Pfad 569" d="M310.445,409.477c-.381,1.028-.765,2.054-1.141,3.083q-3.208,8.777-6.412,17.553a1.769,1.769,0,0,1-1.917,1.307,2.11,2.11,0,0,1-.907-.356c-2.328-1.672-4.642-3.365-6.96-5.052-.019-.014-.035-.033-.075-.069l15.915-15.683-.03-.034c-.063.046-.128.09-.189.138q-8.817,6.936-17.629,13.875a.284.284,0,0,1-.419.014q-2.447-1.8-4.906-3.577a1.606,1.606,0,0,1,.379-2.864c.332-.126.663-.255.994-.382l22.35-8.563c.479-.183.676-.117.947.312Z" fill="#2388ae"/>
    <path id="Pfad_570" data-name="Pfad 570" d="M289.692,425.675l6.1,4.369a4.034,4.034,0,0,1-.313.258c-.94.628-1.875,1.266-2.827,1.876a1.232,1.232,0,0,1-1.944-.827c-.352-1.856-.684-3.716-1.024-5.574A.547.547,0,0,1,289.692,425.675Z" fill="#2388ae"/>
  </g>
</svg>
