<?xml version="1.0" encoding="utf-8"?>
<!-- Generator: Adobe Illustrator 25.0.1, SVG Export Plug-In . SVG Version: 6.00 Build 0)  -->
<svg version="1.1" id="Layer_1" xmlns="http://www.w3.org/2000/svg" xmlns:xlink="http://www.w3.org/1999/xlink" x="0px" y="0px"
	 viewBox="0 0 300 300" style="enable-background:new 0 0 300 300;" xml:space="preserve">
<style type="text/css">
	.st0{fill:#2388AE;}
  .st1{fill:#ffffff;}
</style>
<g>
	<path class="st0" d="M236.1,273.1c2.3-1.4,5.3-2.6,7.4-4.6c8.5-8.1,16.7-16.5,24.9-24.8c4.5-4.5,5.1-8.4,2.4-14.3
		c-2.8-6.2-5.6-12.4-8.6-18.5c-1.1-2.2-1.1-4,0-6.2c2.2-4.7,4.2-9.6,6-14.5c0.7-2,1.8-3.1,3.7-3.8c6.6-2.3,13.2-4.7,19.8-7.2
		c5.9-2.2,8.3-5.6,8.3-11.9c0-11.6,0-23.2,0-34.8c0-6.3-2.4-9.7-8.3-11.9c-6.7-2.5-13.4-4.8-20.1-7.4c-1.3-0.5-2.6-1.9-3.2-3.2
		c-2.3-5.1-4.5-10.2-6.4-15.4c-0.5-1.5-0.6-3.5,0-4.9c2.9-6.6,6.1-13.1,9.1-19.7c2.4-5.3,1.7-9.3-2.4-13.4
		c-8.3-8.4-16.7-16.8-25.1-25.1c-4.4-4.4-8.4-5-14-2.4c-6.4,2.9-12.7,6.1-19.1,8.8c-1.5,0.6-3.6,0.6-5.2,0c-5.1-1.9-10.2-4-15.1-6.2
		c-1.4-0.6-2.9-2-3.5-3.4c-2.6-6.6-4.9-13.4-7.4-20.1C177,2.3,173.7,0,167.3,0c-11.5,0-23,0-34.5,0c-6.7,0-9.9,2.3-12.3,8.7
		c-2.4,6.6-4.7,13.2-7.3,19.7c-0.5,1.3-2,2.6-3.3,3.2c-5.1,2.3-10.2,4.4-15.4,6.4c-1.4,0.5-3.3,0.6-4.6,0c-6.5-2.8-12.9-6-19.4-9
		c-5.8-2.7-9.7-2-14.3,2.5C48.1,39.8,39.9,48,31.7,56.2c-4.6,4.6-5.3,8.4-2.6,14.2c3,6.5,6.1,12.9,8.9,19.4c0.6,1.3,0.5,3.2,0,4.6
		c-2,5.3-4.2,10.6-6.5,15.7c-0.6,1.2-1.8,2.5-3,3c-6.6,2.6-13.4,4.9-20,7.4C2.3,123,0,126.2,0,132.8c0,11.4,0,22.8,0,34.1
		c0,7,2.2,10.1,8.8,12.6c6.6,2.4,13.2,4.7,19.7,7.3c1.2,0.5,2.5,1.8,3,3c2.3,5.2,4.5,10.4,6.5,15.7c0.5,1.4,0.6,3.3,0,4.6
		c-2.8,6.5-6,13-8.9,19.4c-2.7,5.8-2,9.7,2.6,14.2c8.1,8.1,16.2,16.3,24.4,24.4c4.8,4.8,8.6,5.5,14.8,2.6c6.4-3,12.7-6,19.1-8.8
		c1.3-0.6,3.2-0.5,4.6,0c5.2,1.9,10.4,4.1,15.4,6.4c1.4,0.6,2.9,2.1,3.4,3.5c2.6,6.6,4.9,13.4,7.4,20.1c2.1,5.7,5.6,8.1,11.7,8.1
		c11.5,0,23,0,34.5,0c7,0,10.1-2.2,12.5-8.8c2.4-6.6,4.7-13.2,7.3-19.7c0.5-1.2,1.8-2.4,3.1-3c5.1-2.3,10.2-4.5,15.4-6.4
		c1.6-0.6,3.7-0.6,5.2,0c6.4,2.8,12.7,5.9,19.1,8.8C231.4,271.8,233.4,272.2,236.1,273.1z"/>
	<path class="st1" d="M236.1,273.1c-2.7-0.9-4.7-1.3-6.5-2.1c-6.4-2.9-12.7-6-19.1-8.8c-1.5-0.6-3.7-0.6-5.2,0c-5.2,1.9-10.4,4.1-15.4,6.4
		c-1.2,0.6-2.6,1.7-3.1,3c-2.6,6.5-4.9,13.1-7.3,19.7c-2.4,6.6-5.5,8.8-12.5,8.8c-11.5,0-23,0-34.5,0c-6.1,0-9.6-2.4-11.7-8.1
		c-2.5-6.7-4.8-13.4-7.4-20.1c-0.6-1.4-2-2.8-3.4-3.5c-5-2.3-10.2-4.4-15.4-6.4c-1.4-0.5-3.3-0.6-4.6,0c-6.4,2.8-12.8,5.8-19.1,8.8
		c-6.2,2.9-10,2.2-14.8-2.6c-8.1-8.1-16.3-16.2-24.4-24.4c-4.5-4.6-5.2-8.4-2.6-14.2c3-6.5,6.1-12.9,8.9-19.4c0.6-1.3,0.5-3.2,0-4.6
		c-2-5.3-4.2-10.6-6.5-15.7c-0.6-1.2-1.8-2.5-3-3c-6.5-2.6-13.1-4.9-19.7-7.3c-6.5-2.4-8.8-5.6-8.8-12.6c0-11.4,0-22.8,0-34.1
		c0-6.5,2.3-9.8,8.5-12.1c6.7-2.5,13.4-4.8,20-7.4c1.2-0.5,2.4-1.8,3-3c2.3-5.2,4.5-10.4,6.5-15.7c0.5-1.4,0.6-3.3,0-4.6
		c-2.8-6.5-6-13-8.9-19.4c-2.7-5.8-2-9.6,2.6-14.2c8.2-8.2,16.4-16.4,24.6-24.6c4.5-4.5,8.4-5.2,14.3-2.5c6.5,3,12.9,6.1,19.4,9
		c1.3,0.6,3.2,0.5,4.6,0c5.2-1.9,10.4-4.1,15.4-6.4c1.3-0.6,2.8-1.9,3.3-3.2c2.6-6.5,4.9-13.2,7.3-19.7c2.4-6.4,5.6-8.7,12.3-8.7
		c11.5,0,23,0,34.5,0c6.4,0,9.7,2.3,11.9,8.2c2.5,6.7,4.8,13.4,7.4,20.1c0.6,1.4,2.1,2.7,3.5,3.4c5,2.3,10,4.4,15.1,6.2
		c1.6,0.6,3.7,0.6,5.2,0c6.4-2.8,12.7-5.9,19.1-8.8c5.6-2.6,9.6-1.9,14,2.4c8.4,8.3,16.8,16.7,25.1,25.1c4.1,4.1,4.8,8.1,2.4,13.4
		c-3,6.6-6.2,13.1-9.1,19.7c-0.6,1.4-0.5,3.4,0,4.9c1.9,5.2,4.1,10.4,6.4,15.4c0.6,1.3,1.9,2.7,3.2,3.2c6.6,2.6,13.4,4.9,20.1,7.4
		c5.9,2.2,8.3,5.6,8.3,11.9c0,11.6,0,23.2,0,34.8c0,6.3-2.4,9.7-8.3,11.9c-6.6,2.4-13.2,4.9-19.8,7.2c-2,0.7-3,1.7-3.7,3.8
		c-1.8,4.9-3.7,9.8-6,14.5c-1.1,2.3-1.1,4,0,6.2c3,6.1,5.8,12.3,8.6,18.5c2.7,5.9,2.1,9.8-2.4,14.3c-8.3,8.3-16.5,16.7-24.9,24.8
		C241.4,270.5,238.4,271.7,236.1,273.1z M150.1,207.5c31.7-0.1,57.5-26,57.4-57.6c-0.1-31.7-26.1-57.4-57.7-57.3
		c-31.5,0.1-57.2,25.9-57.2,57.5C92.5,181.6,118.5,207.6,150.1,207.5z"/>
</g>
</svg>
