<?xml version="1.0" encoding="UTF-8"?>
<svg id="Ebene_1" data-name="Ebene 1" xmlns="http://www.w3.org/2000/svg" version="1.1" viewBox="0 0 335.38 326.49">
  <defs>
    <style>
      .cls-1 {
        fill: #000;
        stroke-width: 0px;
      }
    </style>
  </defs>
  <g>
    <path class="cls-1" d="M218.81,204.72c-3.4-1.61-4.47-4.32-4.41-8.01.17-9.59.06-19.18.06-28.77v-2.23h113.95v5.45c0,8.6-.12,17.2.05,25.79.07,3.65-1.07,6.26-4.45,7.76h-105.2Z"/>
    <path class="cls-1" d="M208.09,132.87c1.29-3.53,3.87-4.76,7.55-4.75,37.24.06,74.48.04,111.71.04,5.31,0,7.42,2.12,7.42,7.46,0,3.7,0,7.41,0,11.11-.01,4.7-2.22,6.95-6.9,6.95-15.01.01-30.03,0-45.04,0-22.36,0-44.71-.05-67.07.05-3.66.02-6.27-1.11-7.67-4.59v-16.28Z"/>
    <path class="cls-1" d="M268.21,58.37c-16.75-2.38-26.39-16.59-25.15-31.1,1.2-13.99,13.32-25.44,27.36-25.78,14.93-.36,27.56,10.35,29.31,24.92,1.75,14.64-7.72,29.41-25.55,32.1,6.59.54,12.5,2.04,17.91,5.07,15.01,8.42,22.9,21.28,23.56,38.48.18,4.62.03,9.25.03,14.04h-88.44c0-4.95-.12-9.89.02-14.83.57-19.32,13.75-36.07,32.39-41.17,2.85-.78,5.81-1.18,8.57-1.72Z"/>
    <path class="cls-1" d="M121.54,8.28c0-4.49,2.35-6.81,6.87-6.81,22.75,0,45.5,0,68.25,0,4.64,0,6.97,2.31,6.98,6.93.01,6.75.04,13.49-.03,20.24-.01,1.38.41,2.33,1.39,3.28,3.1,2.98,6.11,6.05,9.14,9.1,3,3.02,2.99,6.35-.01,9.38-3.07,3.1-6.22,6.13-9.21,9.3-.68.72-1.2,1.9-1.21,2.88-.1,6.81-.04,13.62-.06,20.43-.01,4.57-2.39,6.93-7.01,6.93-22.68,0-45.36,0-68.05,0-4.74,0-7.04-2.32-7.04-7.07,0-12.37,0-24.73,0-37.1,0-12.5,0-25,0-37.5ZM171.8,38.85c3.62-.04,6.18-2.45,6.25-5.79.07-3.42-2.51-6.05-6.19-6.09-6.21-.07-12.43-.07-18.64,0-3.54.04-6.17,2.65-6.19,5.93-.03,3.37,2.64,5.91,6.33,5.95,3.11.04,6.21,0,9.32,0,3.04,0,6.08.03,9.12,0ZM171.57,64.41c3.89-.07,6.5-2.51,6.48-6-.02-3.48-2.64-5.87-6.56-5.89-5.95-.03-11.9-.03-17.84,0-3.92.02-6.58,2.42-6.62,5.87-.04,3.48,2.69,5.97,6.7,6.02,2.97.04,5.95,0,8.92,0,2.97,0,5.95.04,8.92-.01Z"/>
  </g>
  <g>
    <path class="cls-1" d="M188.82,156.77c-12.38-12.39-24.81-24.81-37.36-37.36.1-.13.35-.54.68-.87,2.85-2.87,5.68-5.76,8.58-8.57,2.67-2.59,6.36-2.7,8.97-.12,9.63,9.53,19.21,19.11,28.74,28.73,2.4,2.42,2.56,6.03.25,8.49-3.19,3.41-6.65,6.56-9.87,9.7Z"/>
    <path class="cls-1" d="M188.77,175.25c-20.12-20.01-40.19-40.07-60.2-60.19-4.78-4.8-10.36-7.11-17.13-7.09-28.87.07-57.75.03-86.62.03-14.4,0-24.42,9.92-24.43,24.29-.02,56.46-.02,112.93,0,169.39,0,12.56,7.32,21.37,19.78,23.98.2.04.37.2.55.3h154.13c4.31-.97,8.45-2.35,11.89-5.29,5.68-4.85,8.49-11.03,8.53-18.48.14-24.4.28-48.8.41-73.2.06-12.13,0-24.26.19-36.39.1-6.87-2.22-12.5-7.09-17.34ZM42.11,164.62c-9.49-.04-16.92-6.82-17.69-16.07-.76-9.11,5.48-17.05,14.69-18.67.83-.15,1.69-.19,2.54-.19,15.81-.01,31.62-.07,47.43.01,8.34.04,15.07,5.62,16.94,13.73,2.42,10.51-5.67,20.9-16.48,21.17-.21,0-.43.01-.64.01-7.87,0-15.74,0-23.61,0-7.73,0-15.46.03-23.18,0ZM109.01,293.41c-3.02,1.12-4.25,2.35-4.15,5.68.15,5.09-2.71,8.19-6.76,8.22-4.09.03-6.98-3.05-6.79-8.12.12-3.31-1.1-4.54-4.07-5.75-11.64-4.74-18.13-13.56-19.15-26.17-.41-5.07,2.06-8.31,6.23-8.63,3.91-.3,6.68,2.41,7.4,7.24,1.53,10.31,7.67,16.14,16.79,15.93,8.4-.19,15.09-6.53,15.91-15.09.75-7.8-4.77-15.38-12.67-17.06-3.48-.74-7.13-.73-10.58-1.56-12.61-3.01-21.97-13.98-22.83-26.45-.95-13.75,6.32-25.78,18.92-30.59,3.05-1.16,4.15-2.54,4.04-5.82-.17-5.2,2.55-8.04,6.84-7.98,4.25.06,6.8,2.88,6.73,8.18-.04,3.03.87,4.36,3.82,5.51,11.74,4.59,18.16,13.45,19.36,26.01.45,4.71-1.88,8.04-5.82,8.6-4.1.59-7.45-2.08-7.74-7.15-.71-12.59-14.63-20.26-25.55-13.01-5.76,3.83-8.42,10.97-6.72,17.73,1.71,6.77,7.64,11.56,14.98,12.09,15.83,1.14,26.25,8.97,29.87,22.58.66,2.47.88,5.06,1.1,6.39.05,13.52-7.56,24.9-19.17,29.2Z"/>
  </g>
</svg>