<?xml version="1.0" encoding="UTF-8"?>
<svg id="Ebene_1" data-name="Ebene 1" xmlns="http://www.w3.org/2000/svg" version="1.1" viewBox="0 0 335.38 326.49">
  <defs>
    <style>
      .cls-1 {
        fill: #000;
        stroke-width: 0px;
      }
    </style>
  </defs>
  <path class="cls-1" d="M159.03,305.17c-20.46,0-40.92-.05-61.38.09-1.64.01-3.64.84-4.85,1.96-5.75,5.35-11.27,10.96-16.91,16.43-3.93,3.81-6.76,3.8-10.61-.04-20.84-20.81-41.66-41.64-62.46-62.49-3.8-3.81-3.75-6.78.13-10.59,17.64-17.3,35.32-34.57,52.96-51.86,4.36-4.27,8.25-9.14,13.04-12.84,21.37-16.53,44.7-19.47,69.12-7.86,8.61,4.09,17.42,6.33,26.57,6.52,10.54.21,21.2-.34,31.63-1.84,17.87-2.56,33.38,12.79,30.01,30.52-1.22,6.4-5.18,10.62-10.74,13.56-9,4.77-18.92,5.44-28.73,5.67-7.43.17-14.9-.89-22.34-1.57-5.74-.52-10.19,3.21-10.2,8.81,0,3.38,1.84,5.61,5.15,5.61,18.84.02,37.68.03,56.52-.19,6.35-.07,11.65-3.07,16.53-7.06,21.24-17.38,42.59-34.63,63.85-51.99,8.23-6.72,17.39-9.39,27.9-7.31,10.69,2.11,14.71,13.09,7.62,21.35-25.53,29.72-50.97,59.52-76.76,89.01-10,11.43-23.26,16.27-38.4,16.21-19.21-.08-38.42-.02-57.64-.02,0-.03,0-.07,0-.1Z"/>
  <path class="cls-1" d="M238.32.03c48.94,2.07,82.03,39.03,80.51,87.76-1.39,44.69-41.27,80.69-86.16,78.8-47.08-1.99-82.17-40.96-80.35-85C154.59,26.92,195.67-.96,238.32.03ZM261.83,102.23c-.19-1.16-.38-3.41-.96-5.57-3.15-11.86-12.22-18.67-26.01-19.66-6.4-.46-11.56-4.62-13.05-10.52-1.48-5.88.84-12.1,5.85-15.43,9.51-6.31,21.63.37,22.25,11.33.25,4.42,3.17,6.74,6.74,6.23,3.43-.49,5.46-3.39,5.07-7.49-1.04-10.94-6.63-18.65-16.85-22.65-2.57-1.01-3.36-2.17-3.33-4.8.06-4.61-2.16-7.07-5.86-7.12-3.74-.05-6.1,2.42-5.95,6.95.09,2.85-.87,4.05-3.52,5.07-10.97,4.19-17.3,14.66-16.47,26.64.75,10.86,8.9,20.41,19.88,23.03,3.01.72,6.18.71,9.22,1.35,6.87,1.46,11.68,8.06,11.03,14.85-.72,7.45-6.54,12.97-13.85,13.14-7.94.18-13.29-4.89-14.62-13.87-.62-4.21-3.04-6.57-6.44-6.31-3.63.28-5.78,3.1-5.43,7.52.89,10.98,6.54,18.65,16.67,22.78,2.58,1.05,3.65,2.12,3.54,5-.16,4.41,2.35,7.1,5.91,7.07,3.53-.03,6.02-2.73,5.89-7.16-.09-2.9.99-3.97,3.61-4.94,10.11-3.75,16.73-13.65,16.69-25.43Z"/>
</svg>