<?xml version="1.0" encoding="UTF-8"?>
<svg id="Ebene_1" data-name="Ebene 1" xmlns="http://www.w3.org/2000/svg" version="1.1" viewBox="0 0 335.38 326.49">
  <defs>
    <style>
      .cls-1 {
        fill: #000;
        stroke-width: 0px;
      }
    </style>
  </defs>
  <g>
    <path class="cls-1" d="M158.44,305.17c-20.46,0-40.92-.05-61.38.09-1.64.01-3.64.84-4.85,1.96-5.75,5.35-11.27,10.96-16.91,16.43-3.93,3.81-6.76,3.8-10.61-.04-20.84-20.81-41.66-41.64-62.46-62.49-3.8-3.81-3.75-6.78.13-10.59,17.64-17.3,35.32-34.57,52.96-51.86,4.36-4.27,8.25-9.14,13.04-12.84,21.37-16.53,44.7-19.47,69.12-7.86,8.61,4.09,17.42,6.33,26.57,6.52,10.54.21,21.2-.34,31.63-1.84,17.87-2.56,33.38,12.79,30.01,30.52-1.22,6.4-5.18,10.62-10.74,13.56-9,4.77-18.92,5.44-28.73,5.67-7.43.17-14.9-.89-22.34-1.57-5.74-.52-10.19,3.21-10.2,8.81,0,3.38,1.84,5.61,5.15,5.61,18.84.02,37.68.03,56.52-.19,6.35-.07,11.65-3.07,16.53-7.06,21.24-17.38,42.59-34.63,63.85-51.99,8.23-6.72,17.39-9.39,27.9-7.31,10.69,2.11,14.71,13.09,7.62,21.35-25.53,29.72-50.97,59.52-76.76,89.01-10,11.43-23.26,16.27-38.4,16.21-19.21-.08-38.42-.02-57.64-.02,0-.03,0-.07,0-.1Z"/>
    <path class="cls-1" d="M237.73.03c48.94,2.07,82.03,39.03,80.51,87.76-1.39,44.69-41.27,80.69-86.16,78.8-47.08-1.99-82.17-40.96-80.35-85C154,26.92,195.08-.96,237.73.03ZM261.24,102.23c-.19-1.16-.38-3.41-.96-5.57-3.15-11.86-12.22-18.67-26.01-19.66-6.4-.46-11.56-4.62-13.05-10.52-1.48-5.88.84-12.1,5.85-15.43,9.51-6.31,21.63.37,22.25,11.33.25,4.42,3.17,6.74,6.74,6.23,3.43-.49,5.46-3.39,5.07-7.49-1.04-10.94-6.63-18.65-16.85-22.65-2.57-1.01-3.36-2.17-3.33-4.8.06-4.61-2.16-7.07-5.86-7.12-3.74-.05-6.1,2.42-5.95,6.95.09,2.85-.87,4.05-3.52,5.07-10.97,4.19-17.3,14.66-16.47,26.64.75,10.86,8.9,20.41,19.88,23.03,3.01.72,6.18.71,9.22,1.35,6.87,1.46,11.68,8.06,11.03,14.85-.72,7.45-6.54,12.97-13.85,13.14-7.94.18-13.29-4.89-14.62-13.87-.62-4.21-3.04-6.57-6.44-6.31-3.63.28-5.78,3.1-5.43,7.52.89,10.98,6.54,18.65,16.67,22.78,2.58,1.05,3.65,2.12,3.54,5-.16,4.41,2.35,7.1,5.91,7.07,3.53-.03,6.02-2.73,5.89-7.16-.09-2.9.99-3.97,3.61-4.94,10.11-3.75,16.73-13.65,16.69-25.43Z"/>
  </g>
  <path class="cls-1" d="M50.65,53.74c.33,1.79.94,3.55,1.81,5.24.85,1.63,2.05,2.96,3.58,3.94,1.46.94,3.29,1.22,5.45.83,1.13-.21,2.22-.66,3.24-1.33.9-.64,1.69-1.53,2.31-2.63.65-1.15,1.06-2.47,1.22-3.95.19-1.54.12-3.32-.2-5.3-.34-1.86-.89-3.55-1.64-5.01-.66-1.3-1.5-2.4-2.51-3.28-.93-.77-1.99-1.3-3.13-1.58-1.14-.28-2.33-.31-3.52-.09-1.6.29-3,1-4.16,2.11-1.17,1.14-1.99,2.64-2.43,4.46-.46,1.9-.46,4.11-.01,6.58Z"/>
  <path class="cls-1" d="M126.8,38.94c-1,.18-1.48.27-1.97.36-8,1.46-15.99,2.93-23.99,4.38-3.77.68-6.16-.93-6.84-4.64-1.56-8.48-3.1-16.96-4.76-26.03,1.55.47,2.97.58,3.99,1.27,10.37,7.07,20.7,14.21,30.97,21.41.99.7,1.59,1.97,2.58,3.25Z"/>
  <g>
    <path class="cls-1" d="M34.18,46.63c-1.28-.82-2.69-1.06-4.33-.76l-4.85.89,2.06,11.3,4.69-.86c1.75-.32,3.02-1.1,3.88-2.4.89-1.28,1.17-2.73.86-4.42s-1.08-3-2.31-3.74Z"/>
    <path class="cls-1" d="M103.27,54.03c-1.08.2-2.19.39-3.28.41-8.36.13-14.89-5.21-16.42-13.44-1.57-8.48-3.1-16.97-4.7-25.71l-1.78.32c-18.28,3.34-36.56,6.67-54.84,10.01-9.77,1.79-15.29,9.76-13.52,19.51,6.89,37.77,13.78,75.54,20.68,113.3,1.79,9.77,9.76,15.29,19.52,13.51,27.32-4.98,54.63-9.97,81.94-14.96,9.77-1.79,15.27-9.75,13.49-19.53-5.24-28.74-10.49-57.47-15.73-86.2l-.33-1.8c-8.5,1.55-16.77,3.07-25.03,4.56ZM45.52,46.54c.67-2.67,1.94-4.98,3.78-6.87,1.88-1.9,4.27-3.13,7.12-3.65,2.14-.39,4.21-.31,6.16.24,1.83.51,3.52,1.44,5.03,2.76,1.44,1.24,2.66,2.81,3.64,4.66.94,1.75,1.65,3.77,2.1,6,.53,2.92.48,5.7-.17,8.28-.3,1.28-.79,2.52-1.44,3.67-.65,1.15-1.45,2.21-2.38,3.13-1.79,1.83-4.16,3.03-7.04,3.56-2.63.48-5.16.24-7.52-.72-2.44-1-4.5-2.61-6.12-4.8-1.66-2.27-2.79-4.96-3.34-7.99-.52-2.83-.45-5.62.19-8.27ZM33.43,61.6l-5.54,1.01,1.66,9.11c.18,1.01-.16,1.64-.48,2-.39.5-.94.83-1.6.95-.61.11-1.23,0-1.83-.34l-.04-.03c-.58-.38-.95-.97-1.09-1.75l-4.89-26.79c-.17-.92,0-1.66.47-2.2.44-.5.96-.81,1.54-.91l7.55-1.38c1.42-.26,2.8-.28,4.12-.06,1.35.21,2.59.66,3.68,1.34,1.1.67,2.09,1.6,2.92,2.76.76,1.16,1.31,2.56,1.65,4.2.25,1.35.23,2.72-.03,4.09-.29,1.35-.8,2.58-1.52,3.67-.75,1.14-1.71,2.08-2.86,2.8-1.08.76-2.34,1.28-3.72,1.53ZM98.29,134.96c-.88.75-2.07,1.31-3.21,1.53-5.91,1.17-11.85,2.21-17.79,3.29-5.82,1.06-11.64,2.13-17.47,3.19-3.63.66-6.4-.96-6.99-4.08-.6-3.15,1.39-5.69,4.99-6.35l35.59-6.49c2.63-.48,4.82.6,5.96,2.85,1.03,2.01.68,4.56-1.09,6.07ZM105.91,107.55c-17.03,3.12-34.06,6.23-51.1,9.33-3.44.63-6.22-1.12-6.75-4.21-.54-3.09,1.44-5.61,4.93-6.25,8.49-1.56,16.98-3.1,25.47-4.65s16.98-3.1,25.47-4.65c3.48-.63,6.24,1.04,6.82,4.11.59,3.08-1.39,5.69-4.84,6.32Z"/>
  </g>
</svg>