<?xml version="1.0" encoding="UTF-8"?>
<svg id="Ebene_1" data-name="Ebene 1" xmlns="http://www.w3.org/2000/svg" version="1.1" viewBox="0 0 335.38 326.49">
  <defs>
    <style>
      .cls-1 {
        fill: #000;
        stroke-width: 0px;
      }
    </style>
  </defs>
  <path class="cls-1" d="M129.69,172.3c-2.33.86-3.28,1.81-3.2,4.38.12,3.92-2.09,6.32-5.22,6.35-3.16.03-5.38-2.35-5.24-6.27.09-2.56-.85-3.5-3.14-4.43-8.98-3.66-13.99-10.46-14.78-20.2-.32-3.91,1.59-6.41,4.81-6.66,3.02-.23,5.16,1.86,5.71,5.59,1.18,7.96,5.92,12.45,12.96,12.3,6.48-.15,11.64-5.04,12.28-11.65.58-6.02-3.68-11.87-9.78-13.17-2.69-.57-5.5-.56-8.17-1.2-9.73-2.32-16.96-10.79-17.62-20.41-.74-10.61,4.88-19.9,14.6-23.61,2.35-.9,3.2-1.96,3.12-4.49-.13-4.02,1.97-6.21,5.28-6.16,3.28.05,5.25,2.22,5.2,6.31-.03,2.34.67,3.36,2.95,4.26,9.06,3.54,14.02,10.38,14.94,20.07.35,3.64-1.45,6.2-4.49,6.64-3.17.45-5.75-1.6-5.97-5.52-.55-9.72-11.29-15.64-19.72-10.04-4.45,2.95-6.5,8.46-5.19,13.68,1.32,5.23,5.89,8.92,11.56,9.33,12.22.88,20.26,6.92,23.05,17.43.51,1.91.68,3.9.85,4.93.03,10.44-5.84,19.22-14.8,22.54Z"/>
  <path class="cls-1" d="M333.21,164.11c-13.83-18.4-27.67-36.8-41.41-55.27-1.53-2.06-3.12-2.82-5.66-2.79-12.77.13-25.54.06-38.31.06h-3.82v-60.96c-1.44,0-2.58,0-3.73,0-69.31,0-138.62,0-207.92,0-15.8,0-27.03,8.16-31.17,22.79-.82,2.89-1.12,6.02-1.13,9.04C-.02,131.35,0,185.7,0,240.06c0,.96.1,1.91.17,3.19,8.11,0,16.05,0,23.98,0,.87,0,1.76.11,2.62-.02,2.93-.44,3.86.69,4.02,3.71,1.29,25.64,26.55,45.8,51.86,41.55,22.56-3.79,37.75-20.58,39.21-43.32.03-.52.15-1.04.26-1.73h90.11c2.04,6.9,3.22,13.75,6.03,19.85,8.64,18.78,29.68,28.93,50.05,24.81,20.06-4.05,35.12-21.3,36.33-41.77.14-2.38.82-3.16,3.26-3.14,9.16.08,18.32-.08,27.48-.14v-76.64c-.73-.76-1.55-1.46-2.18-2.29ZM76.39,266.06c-12.63.09-22.88-10.04-22.97-22.7-.08-12.57,10.19-22.87,22.8-22.88,12.61,0,22.83,10.25,22.79,22.87-.04,12.51-10.11,22.61-22.62,22.71ZM225.28,202.64H17.28v-119.4c0-9.09,7.37-16.46,16.46-16.46h191.54v135.87ZM281.93,243.72c-.43,12.87-10.6,22.62-23.28,22.33-12.68-.29-22.58-10.69-22.25-23.36.33-12.52,10.75-22.52,23.11-22.18,12.82.36,22.84,10.73,22.42,23.21ZM244.08,166.91v-37.91c5.84,0,11.49,0,17.14,0,6.22,0,12.44-.05,18.65.05,1.05.02,2.48.44,3.08,1.19,9.57,12.01,19.04,24.11,28.91,36.67h-67.78Z"/>
</svg>