<?xml version="1.0" encoding="UTF-8"?>
<svg id="Ebene_1" data-name="Ebene 1" xmlns="http://www.w3.org/2000/svg" version="1.1" viewBox="0 0 335.38 326.49">
  <defs>
    <style>
      .cls-1 {
        fill: #000;
        stroke-width: 0px;
      }
    </style>
  </defs>
  <path class="cls-1" d="M198.52,66.74c.05-34.45,28.04-62.43,62.37-62.35,34.62.08,62.49,28.06,62.38,62.63-.1,34.57-28.17,62.22-63.04,62.13-33.89-.09-61.77-28.29-61.71-62.41ZM265.69,44.02c0-6.64,0-13.28,0-19.93,0-3.15-2.02-5.33-4.85-5.3-2.78.03-4.73,2.18-4.74,5.26,0,14.03-.04,28.07.06,42.1,0,1.34.55,2.88,1.33,3.98,3.11,4.4,6.42,8.66,9.66,12.97,1.47,1.96,2.89,3.95,4.42,5.85,1.22,1.53,2.88,2.13,4.81,1.65,1.92-.47,3.13-1.72,3.58-3.63.37-1.57-.12-2.94-1.07-4.2-4.14-5.5-8.29-11-12.37-16.55-.48-.66-.79-1.61-.8-2.43-.06-6.59-.04-13.18-.04-19.78Z"/>
  <path class="cls-1" d="M333.21,199.66c-13.83-18.4-27.67-36.8-41.41-55.27-1.53-2.06-3.12-2.82-5.66-2.79-1.25.01-2.5.02-3.75.02-7.07,2.03-14.56,3.13-22.32,3.11-37.62-.1-69.29-27.93-75.85-64.03-50.62,0-101.24,0-151.86,0-15.8,0-27.03,8.16-31.17,22.79-.82,2.89-1.12,6.02-1.13,9.04-.02,14.68-.02,29.36-.03,44.04v21.21c.62-.75,1.2-1.54,1.89-2.23,16.32-16.33,32.65-32.65,48.99-48.97.34-.34.67-.69,1.05-.97,1.62-1.2,3.64-.44,4.05,1.53.1.46.1.95.1,1.42,0,8.48,0,16.96,0,25.44v1.59h1.45c20.38,0,36.76,0,57.14,0,2.82,0,3.61.79,3.61,3.63,0,12.86,0,25.72,0,38.57,0,2.88-.79,3.65-3.71,3.65-20.3,0-36.6,0-56.91,0h-1.58v1.46c0,8.52,0,17.04,0,25.56,0,.55-.01,1.12-.15,1.65-.43,1.66-2.21,2.39-3.68,1.49-.5-.31-.94-.73-1.36-1.15-16.3-16.29-32.61-32.59-48.9-48.89-.72-.72-1.33-1.54-1.99-2.31v23.19C0,226.82,0,251.21,0,275.6c0,.96.1,1.91.17,3.19,8.11,0,16.05,0,23.98,0,.87,0,1.76.11,2.62-.02,2.93-.44,3.86.69,4.02,3.71,1.29,25.64,26.55,45.8,51.86,41.55,22.56-3.79,37.75-20.58,39.21-43.32.03-.52.15-1.04.26-1.73h90.11c2.04,6.9,3.22,13.75,6.03,19.85,8.64,18.78,29.68,28.93,50.05,24.81,20.06-4.05,35.12-21.3,36.33-41.77.14-2.38.82-3.16,3.26-3.14,9.16.08,18.32-.08,27.48-.14v-76.64c-.73-.76-1.55-1.46-2.18-2.29ZM76.39,301.61c-12.63.09-22.88-10.04-22.97-22.7-.08-12.57,10.19-22.87,22.8-22.88,12.61,0,22.83,10.25,22.79,22.87-.04,12.51-10.11,22.61-22.62,22.71ZM170.45,215.26c-2.9,1.07-4.08,2.26-3.99,5.46.15,4.89-2.6,7.87-6.5,7.91-3.93.03-6.71-2.93-6.53-7.8.12-3.18-1.06-4.36-3.91-5.52-11.19-4.56-17.43-13.03-18.41-25.15-.39-4.87,1.98-7.99,5.99-8.3,3.76-.29,6.43,2.32,7.11,6.96,1.47,9.91,7.38,15.51,16.14,15.31,8.07-.18,14.5-6.28,15.29-14.5.72-7.49-4.59-14.78-12.18-16.4-3.35-.71-6.85-.7-10.17-1.5-12.12-2.89-21.12-13.44-21.95-25.42-.92-13.22,6.08-24.78,18.19-29.4,2.93-1.12,3.99-2.44,3.89-5.59-.16-5,2.45-7.73,6.57-7.67,4.09.06,6.54,2.77,6.47,7.86-.04,2.91.83,4.19,3.68,5.3,11.29,4.41,17.46,12.93,18.61,25,.43,4.53-1.81,7.73-5.6,8.27-3.94.56-7.16-2-7.44-6.88-.68-12.1-14.06-19.48-24.56-12.51-5.54,3.68-8.1,10.54-6.46,17.04,1.64,6.51,7.34,11.11,14.4,11.62,15.22,1.09,25.23,8.62,28.71,21.71.63,2.38.84,4.86,1.06,6.15.04,13-7.27,23.93-18.43,28.07ZM281.93,279.26c-.43,12.87-10.6,22.62-23.28,22.33-12.68-.29-22.58-10.69-22.25-23.36.33-12.52,10.75-22.52,23.11-22.18,12.82.36,22.84,10.73,22.42,23.21ZM244.07,202.46v-37.91c5.84,0,11.49,0,17.14,0,6.22,0,12.44-.05,18.65.05,1.05.02,2.48.44,3.08,1.19,9.57,12.01,19.04,24.11,28.91,36.67h-67.78Z"/>
</svg>