<?xml version="1.0" encoding="UTF-8"?>
<svg id="Ebene_1" data-name="Ebene 1" xmlns="http://www.w3.org/2000/svg" version="1.1" viewBox="0 0 335.38 326.49">
  <defs>
    <style>
      .cls-1 {
        fill: #000;
        stroke-width: 0px;
      }
    </style>
  </defs>
  <path class="cls-1" d="M243.31,321.75c-8.38-1.65-16.77-3.31-25.15-4.93-4.05-.78-8.13-1.4-12.16-2.26-3.47-.74-5.14-2.89-4.68-6.17,1.19-8.57-1.85-15.13-9.06-19.83-.24-.15-.4-.42-.95-1.01,10.05,1.86,19.68,3.47,29.23,5.47,9.81,2.05,18.69.9,26.15-6.34,3.82-3.7,6.19-8.23,7.16-13.44,7.46-40.14,14.9-80.29,22.33-120.44,1.73-9.33,3.55-18.64,5.1-28,2.3-13.88-6.62-26.52-20.51-29.21-10.02-1.94-20.08-3.73-30.11-5.61-.99-.18-1.95-.47-3.61-.88,9.67-1.51,15.54-6.28,17.75-15.28.9-3.67,3.26-4.95,7.37-4.2,10.35,1.88,20.63,4.23,31.04,5.62,6.78.9,10.5,3.32,12,10.54,1.71,8.2,7.28,14.44,14.3,19.16,3.99,2.69,4.45,3.86,3.58,8.52-8.4,45.32-16.79,90.63-25.18,135.95-2.91,15.71-5.83,31.43-8.71,47.15-.56,3.07-2.13,4.88-5.34,5.55-10.19,2.12-18.13,7.6-23.86,16.32-.86,1.31-2.36,2.21-3.56,3.3h-3.1Z"/>
  <path class="cls-1" d="M196.94,204.38c.18,8.18-4.57,14.34-12.03,15.76-23.31,4.41-46.65,8.69-69.98,13.01-2.53.47-5.07,1.08-7.63,1.2-7.5.37-13.8-4.4-15.23-11.78-3.56-18.43-6.95-36.89-10.37-55.35-5.73-30.93-11.44-61.87-17.12-92.81-1.5-8.19,3.42-15.71,11.67-17.29,20.97-4.03,41.98-7.85,62.97-11.75,4.06-.75,8.12-1.49,12.18-2.24,8.87-1.64,16.44,3.4,18.09,12.24,5.41,29,10.77,58.01,16.14,87.01,3.64,19.67,7.28,39.35,10.91,59.03.22,1.21.34,2.45.42,2.99ZM151.54,140.19c4.49-.02,6.88-3.54,5.52-7.44-2.11-6.03-4.35-12.01-6.66-17.97-.63-1.62-.5-2.8.55-4.22,3.6-4.9,7.03-9.93,10.58-14.88,1.46-2.04,2.43-4.1,1.1-6.57-1.31-2.41-3.44-2.98-6.02-2.86-6.08.29-12.17.41-18.25.73-1.84.1-3.01-.4-4.12-1.95-3.6-5.03-7.4-9.92-11.07-14.91-1.48-2.02-3.31-3.05-5.84-2.56-2.45.47-3.58,2.18-4.2,4.42-1.62,5.86-3.36,11.68-4.91,17.56-.52,1.96-1.38,3.09-3.45,3.73-5.8,1.79-11.5,3.93-17.28,5.83-2.37.78-4.05,2.08-4.4,4.62-.35,2.56.97,4.25,3.04,5.61,5.09,3.33,10.06,6.85,15.21,10.09,1.83,1.15,2.41,2.46,2.39,4.52-.05,5.88.12,11.76.11,17.65,0,2.55.54,4.72,2.98,5.98,2.62,1.36,4.73.26,6.79-1.39,4.67-3.74,9.44-7.35,14.07-11.15,1.44-1.19,2.72-1.46,4.47-.88,4.69,1.56,9.43,2.99,14.15,4.45,1.96.61,3.93,1.18,5.26,1.57ZM109.89,175.79c.84-.11,1.77-.19,2.68-.36,16.31-3.03,32.62-6.06,48.93-9.13,3.91-.74,5.8-3.13,5.18-6.3-.65-3.32-3.33-4.73-7.42-3.97-10.74,1.99-21.49,3.94-32.23,5.93-6.08,1.13-12.17,2.22-18.21,3.5-2.9.61-4.53,3.01-4.25,5.6.29,2.68,2.51,4.68,5.33,4.73ZM151.83,188.4c-.21.01-.42,0-.62.04-12.36,2.28-24.74,4.51-37.08,6.9-2.92.57-4.52,3.39-3.95,6.07.61,2.85,3.2,4.61,6.3,4.08,5.08-.86,10.15-1.82,15.21-2.75,6.99-1.28,14-2.52,20.98-3.9,3.25-.64,4.91-3.01,4.55-5.98-.33-2.7-2.47-4.48-5.38-4.47Z"/>
  <path class="cls-1" d="M154.49,236.63c6.15-1.15,12.31-2.31,18.46-3.46,4.56-.85,9.13-1.65,13.69-2.54,14.2-2.79,23.13-15.9,20.5-30.14-9.04-48.87-18.07-97.74-27.15-146.6-2.76-14.82-15.74-24-30.7-21.6-10.27,1.65-20.48,3.7-31.28,4.94.45-.18.95-.28,1.33-.55,6.05-4.34,8.69-10.24,8.1-17.66-.42-5.26.91-6.79,6.07-7.72,11.77-2.14,23.54-4.28,35.28-6.55,3.15-.61,5.39.18,7.12,2.9,5.61,8.79,13.58,14.28,23.77,16.43,3.14.66,4.79,2.29,5.37,5.47,5.9,32.04,11.88,64.07,17.82,96.11,5.45,29.4,10.85,58.81,16.34,88.2.57,3.07-.32,5.19-2.88,6.83-8.9,5.67-14.41,13.71-16.51,24.04-.62,3.05-2.41,4.59-5.39,5.13-11.97,2.19-23.93,4.44-35.89,6.66-4.74.88-6.71-.33-7.99-4.9-2.29-8.19-7.71-12.9-16.03-14.99Z"/>
  <path class="cls-1" d="M144.07,238.79c-1.1.82-1.92,1.38-2.69,2-5.68,4.54-8.28,10.39-7.4,17.67.49,4.05-.8,6.31-4.62,7.05-12.66,2.45-25.33,4.79-38.01,7.12-2.36.43-4.27-.53-5.55-2.56-5.89-9.31-14.19-15.05-25.02-17.16-2.82-.55-4.05-2.59-4.54-5.24-2.93-15.92-5.86-31.85-8.81-47.76-7.53-40.66-15.07-81.32-22.6-121.98-.88-4.77-1.76-9.53-2.69-14.29-.62-3.19.27-5.49,3.14-7.34,8.55-5.51,14.01-13.28,16.08-23.29.69-3.33,2.4-5.14,5.89-5.75,11.78-2.06,23.53-4.36,35.29-6.55,5.15-.96,6.96.22,8.36,5.19,1.87,6.68,6.18,11.04,12.75,13.2.68.22,1.37.43,2.05.66.08.03.12.15.33.41-9.97,1.87-19.84,3.66-29.69,5.59-15.97,3.12-24.88,15.74-21.96,31.71,8.86,48.38,17.83,96.75,26.91,145.09,3.18,16.94,15.76,24.86,33.16,21.46,9.31-1.82,18.65-3.51,27.98-5.24.39-.07.81,0,1.65,0Z"/>
  <path class="cls-1" d="M228.94,100.39c10.81,2.05,21.19,3.73,31.41,6.06,7.37,1.68,11.88,9.27,10.51,16.69-7.19,39.04-14.43,78.06-21.65,117.09-1.76,9.53-3.59,19.05-5.28,28.59-2,11.3-8.68,16.04-20.07,13.96-23.94-4.38-47.87-8.8-71.79-13.22-1.21-.22-2.42-.52-3.59-.92-4.37-1.47-4.48-1.8-3.92-6.26.21-1.71.03-3.5-.12-5.23-.4-4.39,2.18-8.21,6.22-9.07,4.27-.91,8.22,1.53,9.55,5.89,3.34,10.96,9.66,14.79,21.03,12.72,11.56-2.11,23.12-4.26,34.69-6.35,7.88-1.42,12.68-5.95,14.33-13.82,1.49-7.11,5.26-12.69,11.38-16.64,6.83-4.4,9.4-10.49,7.89-18.55-6.37-33.94-12.62-67.91-18.92-101.87-.52-2.83-1.03-5.65-1.66-9.07Z"/>
  <path class="cls-1" d="M181.13,285.67c-8.64,2.07-14.13,6.95-16.4,15.4-1.05,3.9-2.83,5.26-6.77,4.56-12.69-2.23-25.37-4.53-37.99-7.09-1.56-.32-3.37-2.17-4.02-3.75-1.97-4.8-3.44-9.82-5.17-14.97,6.46-1.22,13.5-2.17,20.3-4,4.13-1.11,7.14-.27,11.01,1.31,6.19,2.54,13.06,3.5,19.69,4.9,6.42,1.36,12.9,2.43,19.35,3.63Z"/>
  <path class="cls-1" d="M147.13,97.67c-2.41,3.43-4.62,6.74-7.02,9.92-1.73,2.3-1.98,4.6-.94,7.24,1.47,3.72,2.79,7.51,4.37,11.82-4.22-1.3-8.05-2.37-11.79-3.68-2.94-1.03-5.35-.53-7.72,1.48-2.95,2.52-6.09,4.82-9.83,7.76,0-4.62-.08-8.49.02-12.35.08-3.21-1.17-5.47-3.94-7.14-3.25-1.97-6.33-4.2-10.06-6.7,3.98-1.36,7.37-2.7,10.87-3.67,3.56-.99,5.61-3.04,6.4-6.69.79-3.59,1.97-7.09,3.13-11.19,2.71,3.61,5.15,6.66,7.36,9.88,1.77,2.57,3.99,3.56,7.09,3.39,3.86-.22,7.75-.05,12.04-.05Z"/>
</svg>