<?xml version="1.0" encoding="UTF-8"?>
<svg id="Ebene_1" data-name="Ebene 1" xmlns="http://www.w3.org/2000/svg" version="1.1" viewBox="0 0 335.38 326.49">
  <defs>
    <style>
      .cls-1 {
        fill: #000;
        stroke-width: 0px;
      }
    </style>
  </defs>
  <path class="cls-1" d="M63.04,78.77c0,12.05,0,23.63,0,35.22,0,1.16-.04,2.32.01,3.48.16,3.88,2.21,5.99,6.13,6.02,10.67.07,21.35.06,32.02,0,4.3-.02,6.36-2.12,6.37-6.48.05-11.37.02-22.75.02-34.12,0-1.25,0-2.5,0-3.93,1.34-.08,2.35-.18,3.36-.18,14.97-.01,29.93-.02,44.9,0,5.73,0,7.44,1.73,7.44,7.48,0,43.29,0,86.57,0,129.86,0,5.63-1.85,7.49-7.54,7.49-46.99.01-93.98.01-140.97,0-5.63,0-7.44-1.89-7.44-7.59,0-43.29,0-86.57,0-129.86,0-5.57,1.73-7.37,7.2-7.38,16-.02,32,0,48.5,0ZM90.89,153.64c.33-.19.65-.38.98-.57,1.61,1.81,3.12,3.72,4.85,5.4,2.69,2.61,6.08,2.68,8.33.37,2.21-2.27,2.15-5.45-.4-8.07-4.94-5.07-9.94-10.07-15-15.01-2.82-2.75-5.79-2.77-8.58-.05-5.07,4.94-10.06,9.95-15.01,15-2.58,2.63-2.7,5.74-.53,8.07,2.22,2.38,5.6,2.35,8.32-.22,1.81-1.71,3.46-3.6,5.18-5.4.73,6.43.72,12.42.73,18.41.01,4.69,2.02,7.17,5.68,7.11,3.52-.06,5.44-2.49,5.45-6.99.02-6.01,0-12.03,0-18.04ZM85.51,190.08c-3.71,0-7.42-.1-11.13.03-3.4.11-5.64,2.29-5.74,5.29-.1,3,2.02,5.56,5.37,5.64,7.53.19,15.06.19,22.59,0,3.35-.08,5.49-2.63,5.4-5.62-.09-3.01-2.32-5.19-5.72-5.31-3.59-.13-7.18-.03-10.78-.03Z"/>
  <path class="cls-1" d="M230.14,78.76c0,3.72,0,7.06,0,10.4,0,9.28-.03,18.57.02,27.85.02,4.36,2.07,6.45,6.38,6.47,10.56.05,21.12.05,31.67,0,4.47-.02,6.47-2.11,6.48-6.73.03-11.26.01-22.51.01-33.77,0-1.25,0-2.51,0-4,1.25-.09,2.25-.22,3.25-.22,14.97-.01,29.93-.02,44.9,0,5.92,0,7.54,1.68,7.54,7.73,0,43.05,0,86.11,0,129.16,0,6.18-1.71,7.94-7.79,7.94-46.76,0-93.51,0-140.27,0-6.14,0-7.89-1.75-7.89-7.85,0-43.17,0-86.34,0-129.51,0-5.74,1.71-7.48,7.44-7.48,15.89-.02,31.78,0,48.25,0ZM245.87,153.54c.33.18.65.36.98.53,0,6.35-.05,12.69.02,19.04.04,3.58,2.27,5.96,5.39,6.05,3.25.1,5.61-2.36,5.7-6.1.08-3.25.02-6.5.02-9.74,0-3.14,0-6.28,0-9.41.33-.11.65-.22.98-.34,1.72,1.88,3.33,3.88,5.19,5.62,2.62,2.44,5.85,2.34,8.06-.02,2.08-2.22,2.11-5.33-.29-7.82-5.08-5.25-10.24-10.43-15.5-15.49-2.62-2.52-5.44-2.48-8.05.04-5.25,5.08-10.41,10.25-15.49,15.51-2.38,2.46-2.32,5.59-.2,7.81,2.25,2.36,5.4,2.43,8.04-.05,1.85-1.74,3.45-3.75,5.16-5.63ZM252.42,190.07c-3.59,0-7.19-.08-10.78.02-3.58.11-5.92,2.37-5.92,5.48,0,2.98,2.17,5.42,5.56,5.5,7.41.17,14.83.17,22.24,0,3.38-.08,5.57-2.52,5.58-5.48,0-3.12-2.32-5.38-5.9-5.5-3.59-.11-7.18-.02-10.78-.03Z"/>
  <g>
    <polygon class="cls-1" points="103.18 270.85 114.19 270.85 108.68 255.35 103.18 270.85"/>
    <path class="cls-1" d="M225.96,271.45c.53-1.69.81-3.7.86-5.98,0-2.15-.27-4.15-.81-5.93-.47-1.58-1.18-2.98-2.12-4.15-.87-1.03-1.93-1.83-3.13-2.37-1.21-.54-2.51-.81-3.88-.81-1.85,0-3.49.49-5.02,1.49-1.52,1.02-2.73,2.52-3.59,4.45-.9,2.02-1.35,4.5-1.35,7.35,0,2.07.32,4.17.96,6.25.61,1.98,1.68,3.7,3.17,5.1,1.43,1.34,3.34,2,5.83,2,1.29,0,2.58-.28,3.85-.82,1.12-.52,2.16-1.35,3.07-2.43.95-1.14,1.67-2.53,2.15-4.13Z"/>
    <path class="cls-1" d="M335.96,241.4c-.01-5.24-1.9-7.16-7.11-7.16-106.63,0-213.26,0-319.89,0-5.25,0-7.17,1.9-7.18,7.09-.02,10.1-.02,34.19,0,44.29.01,5.25,1.9,7.15,7.09,7.18,4.83.02,9.66,0,14.66,0v4.31c0,7.43-.04,14.86.02,22.28.03,4.21,1.87,6.72,5.4,6.76,11.25.14,22.51.13,33.76,0,3.39-.04,5.29-2.32,5.34-6.01.09-5.69.03-11.37.03-17.06,0-3.33,0-6.66,0-10.09h78.5c0,8.99-.03,17.78.01,26.57.02,4.57,2.04,6.62,6.56,6.64,10.44.04,20.88.04,31.33,0,4.57-.02,6.6-2.04,6.64-6.57.05-5.69.01-11.37.01-17.06v-9.53h83.37c0,8.48,0,16.7,0,24.92,0,6.75,1.47,8.24,8.08,8.25,9.51,0,19.03,0,28.54,0,6.17,0,7.92-1.71,7.93-7.81.02-8.35,0-16.7,0-25.62,3.5,0,6.61.02,9.72,0,5.24-.03,7.15-1.9,7.16-7.11.02-10.1.02-34.19,0-44.29ZM31.74,251.96c-.57.57-1.33.85-2.27.85h-9.55v9.74h8.5c.9,0,1.67.33,2.21.95.49.57.74,1.29.74,2.15,0,.8-.25,1.49-.73,2.05-.55.63-1.28.95-2.12.95h-8.59v12.65c0,1-.32,1.83-.95,2.46-.67.6-1.41.88-2.25.88-.77,0-1.5-.27-2.15-.82-.68-.65-1-1.45-1-2.43v-31.25c0-.93.25-1.74.73-2.4.59-.7,1.31-1.04,2.12-1.04h13.45c.77,0,1.45.33,1.96.95l.07.1c.4.62.6,1.33.6,2.1,0,.87-.26,1.58-.78,2.1ZM46.21,281.21c0,1.25-.35,2.16-1.05,2.7-.63.49-1.31.74-2.04.74-2.06,0-3.25-1.22-3.25-3.34v-31.54c0-2.14,1.18-3.37,3.25-3.37.84,0,1.6.31,2.2.9.58.48.9,1.33.9,2.47v31.45ZM85.51,281.5c0,.9-.26,1.67-.76,2.29-.58.64-1.33.96-2.19.96-1.21,0-2.3-.6-3.23-1.77l-16.96-24.42v22.95c0,1.31-.57,2.04-1.05,2.41-.63.49-1.35.74-2.14.74-.84,0-1.58-.29-2.19-.85-.62-.52-.96-1.34-.96-2.39v-31.74c0-1.01.25-1.81.73-2.37.53-.65,1.27-1,2.12-1,.92,0,2.25.34,3.32,1.96l16.92,24.29v-22.79c0-1.03.32-1.86.96-2.48,1.37-1.23,3.12-1.14,4.43-.05.68.68,1,1.51,1,2.53v31.74ZM123.61,284.1c-.56.43-1.26.65-2.09.65-.66,0-1.28-.18-1.87-.54-.68-.44-1.13-1.05-1.34-1.83l-2.08-5.71h-15.1l-2.1,5.79c-.42,1.4-1.57,2.2-3.21,2.2-.83,0-1.52-.23-2.04-.68-.59-.51-.93-1.19-1-1.96v-.15s.02-.15.02-.15c.05-.23.11-.46.17-.68.03-.15.08-.36.17-.63l11.52-30.79c.36-1.05.89-1.86,1.57-2.39,1.5-1.24,3.49-1.18,4.89-.04.63.49,1.16,1.27,1.57,2.32l11.68,30.95c.15.59.23,1.11.23,1.57,0,1.11-.52,1.75-.96,2.09ZM148.56,283.83c-.65.36-1.18.53-1.65.53h-11.99c-.78,0-1.5-.3-2.08-.86-.65-.54-.97-1.45-.97-2.8v-30.93c0-1.09.33-1.94.97-2.51.61-.57,1.38-.86,2.27-.86s3.1.35,3.1,3.56v28.3h8.01c.88,0,1.67.23,2.34.68.78.53,1.2,1.32,1.2,2.27,0,1.27-.4,2.15-1.2,2.62ZM194.79,251.86c-.55.63-1.32.95-2.22.95h-5.88v28.59c0,1.26-.54,2-1,2.41-.63.56-1.38.84-2.25.84-.77,0-1.5-.27-2.15-.82-.68-.65-1-1.45-1-2.43v-28.59h-5.86c-1.15,0-1.84-.53-2.21-.97-.48-.49-.77-1.18-.84-2v-.08s0-.08,0-.08c.07-.83.39-1.53.95-2.09.32-.38,1.01-.88,2.2-.88h17.85c.98,0,1.76.3,2.33.89.56.68.82,1.39.82,2.16,0,.83-.25,1.54-.73,2.1ZM231.54,275.03c-.62,1.4-1.43,2.73-2.43,3.92-.99,1.19-2.13,2.23-3.39,3.09-2.44,1.73-5.42,2.62-8.84,2.62-3.13,0-5.98-.81-8.5-2.4-2.59-1.66-4.62-3.94-6.02-6.8-1.43-2.95-2.15-6.25-2.15-9.84,0-3.35.65-6.52,1.94-9.42,1.32-2.92,3.27-5.31,5.78-7.1,2.56-1.79,5.57-2.7,8.95-2.7,2.53,0,4.9.53,7.03,1.57,2,.97,3.75,2.4,5.2,4.23,1.39,1.73,2.46,3.78,3.2,6.11.71,2.19,1.09,4.65,1.15,7.29,0,3.45-.65,6.62-1.92,9.44ZM262.28,251.86c-.55.63-1.32.95-2.22.95h-5.88v28.59c0,1.26-.54,2-1,2.41-.63.56-1.38.84-2.25.84-.77,0-1.5-.27-2.15-.82-.68-.65-1-1.45-1-2.43v-28.59h-5.86c-1.15,0-1.84-.53-2.21-.97-.48-.49-.77-1.18-.84-2v-.08s0-.08,0-.08c.07-.83.39-1.53.95-2.09.32-.38,1.01-.88,2.2-.88h17.85c.98,0,1.76.3,2.33.89.56.68.82,1.39.82,2.16,0,.83-.25,1.54-.73,2.1ZM297.4,284.1c-.56.43-1.26.65-2.09.65-.66,0-1.28-.18-1.87-.54-.68-.44-1.13-1.05-1.34-1.83l-2.08-5.71h-15.1l-2.1,5.79c-.42,1.4-1.57,2.2-3.21,2.2-.83,0-1.52-.23-2.04-.68-.59-.51-.93-1.19-1-1.96v-.15s.02-.15.02-.15c.05-.23.11-.46.17-.68.03-.15.08-.36.17-.63l11.52-30.79c.36-1.05.89-1.86,1.57-2.39,1.5-1.24,3.49-1.18,4.89-.04.63.49,1.16,1.27,1.57,2.32l11.68,30.95c.15.59.23,1.11.23,1.57,0,1.11-.52,1.75-.96,2.09ZM322.35,283.83c-.65.36-1.18.53-1.65.53h-11.99c-.78,0-1.5-.3-2.08-.86-.65-.54-.97-1.45-.97-2.8v-30.93c0-1.09.33-1.94.97-2.51.61-.57,1.38-.86,2.27-.86s3.1.35,3.1,3.56v28.3h8.01c.88,0,1.67.23,2.34.68.78.53,1.2,1.32,1.2,2.27,0,1.27-.4,2.15-1.2,2.62Z"/>
    <polygon class="cls-1" points="276.98 270.85 287.99 270.85 282.47 255.35 276.98 270.85"/>
  </g>
  <path class="cls-1" d="M135.45.27c0,10.71,0,21.02,0,31.32,0,5.92,1.74,7.65,7.66,7.66,17.28,0,34.56.01,51.84,0,5.47,0,7.32-1.85,7.33-7.28.02-10.42,0-20.84,0-31.5,1.22-.08,2.22-.2,3.22-.2,15.08-.01,30.15-.02,45.23,0,5.4,0,7.24,1.88,7.25,7.37.01,17.4.01,34.8,0,52.2,0,5.43-1.87,7.27-7.34,7.27-54.51,0-109.02,0-163.53,0-5.48,0-7.35-1.84-7.36-7.25-.01-17.63-.02-35.26,0-52.9,0-4.16,1.86-6.61,5.48-6.63,16.57-.1,33.14-.05,50.21-.05Z"/>
  <path class="cls-1" d="M190.98.44v27.41h-44.17V.44h44.17Z"/>
  <path class="cls-1" d="M96.32,78.94v33.13h-21.88v-33.13h21.88Z"/>
  <path class="cls-1" d="M263.45,79.03v33.09h-21.96v-33.09h21.96Z"/>
</svg>