<?xml version="1.0" encoding="UTF-8"?>
<svg id="Ebene_1" data-name="Ebene 1" xmlns="http://www.w3.org/2000/svg" version="1.1" viewBox="0 0 335.38 326.49">
  <defs>
    <style>
      .cls-1 {
        fill: #000;
        stroke-width: 0px;
      }
    </style>
  </defs>
  <path class="cls-1" d="M159.03,301.3c-20.46,0-40.92-.05-61.38.09-1.64.01-3.64.84-4.85,1.96-5.75,5.35-11.27,10.96-16.91,16.43-3.93,3.81-6.76,3.8-10.61-.04-20.84-20.81-41.66-41.64-62.46-62.49-3.8-3.81-3.75-6.78.13-10.59,17.64-17.3,35.32-34.57,52.96-51.86,4.36-4.27,8.25-9.14,13.04-12.84,21.37-16.53,44.7-19.47,69.12-7.86,8.61,4.09,17.42,6.33,26.57,6.52,10.54.21,21.2-.34,31.63-1.84,17.87-2.56,33.38,12.79,30.01,30.52-1.22,6.4-5.18,10.62-10.74,13.56-9,4.77-18.92,5.44-28.73,5.67-7.43.17-14.9-.89-22.34-1.57-5.74-.52-10.19,3.21-10.2,8.81,0,3.38,1.84,5.61,5.15,5.61,18.84.02,37.68.03,56.52-.19,6.35-.07,11.65-3.07,16.53-7.06,21.24-17.38,42.59-34.63,63.85-51.99,8.23-6.72,17.39-9.39,27.9-7.31,10.69,2.11,14.71,13.09,7.62,21.35-25.53,29.72-50.97,59.52-76.76,89.01-10,11.43-23.26,16.27-38.4,16.21-19.21-.08-38.42-.02-57.64-.02,0-.03,0-.07,0-.1Z"/>
  <path class="cls-1" d="M307.52,82.46c-9.14-12.16-18.28-24.31-27.36-36.51-1.01-1.36-2.06-1.86-3.74-1.85-8.44.08-16.87.04-25.31.04h-2.53V3.87c-.95,0-1.71,0-2.47,0-45.79,0-91.57,0-137.36,0-10.44,0-17.86,5.39-20.59,15.06-.54,1.91-.74,3.98-.74,5.97-.04,35.91-.03,71.82-.03,107.72,0,.63.06,1.26.11,2.11,5.36,0,10.6,0,15.84,0,.58,0,1.16.07,1.73-.01,1.94-.29,2.55.46,2.65,2.45.86,16.94,17.54,30.26,34.26,27.45,14.9-2.5,24.94-13.59,25.9-28.62.02-.34.1-.69.17-1.14h59.53c1.35,4.56,2.13,9.09,3.98,13.12,5.71,12.41,19.61,19.11,33.06,16.39,13.25-2.68,23.2-14.07,24-27.6.09-1.57.54-2.09,2.15-2.08,6.05.05,12.1-.05,18.16-.09v-50.63c-.48-.5-1.02-.96-1.44-1.51ZM137.85,149.81c-8.34.06-15.12-6.64-15.17-14.99-.05-8.3,6.73-15.11,15.06-15.12,8.33,0,15.08,6.77,15.05,15.11-.03,8.27-6.68,14.94-14.94,15ZM182.85,101.61c-2.23.83-3.15,1.74-3.07,4.2.11,3.77-2,6.07-5.01,6.09-3.03.03-5.17-2.26-5.03-6.01.09-2.45-.82-3.36-3.01-4.26-8.62-3.51-13.43-10.04-14.18-19.38-.3-3.75,1.53-6.15,4.62-6.39,2.9-.23,4.95,1.79,5.48,5.36,1.13,7.64,5.68,11.95,12.44,11.8,6.22-.14,11.17-4.84,11.78-11.18.56-5.77-3.53-11.39-9.38-12.63-2.58-.55-5.28-.54-7.84-1.15-9.34-2.23-16.27-10.35-16.91-19.59-.71-10.18,4.68-19.09,14.01-22.66,2.26-.86,3.07-1.88,3-4.31-.12-3.85,1.89-5.95,5.06-5.91,3.15.04,5.04,2.13,4.99,6.06-.03,2.24.64,3.23,2.83,4.08,8.7,3.4,13.45,9.96,14.33,19.26.33,3.49-1.4,5.95-4.31,6.37-3.04.44-5.52-1.54-5.73-5.3-.53-9.32-10.83-15.01-18.92-9.64-4.27,2.83-6.24,8.12-4.98,13.13,1.26,5.02,5.66,8.56,11.1,8.95,11.72.84,19.44,6.64,22.12,16.72.49,1.83.65,3.75.81,4.74.03,10.02-5.6,18.44-14.2,21.63ZM273.64,135.05c-.28,8.5-7,14.94-15.38,14.75-8.38-.19-14.92-7.06-14.7-15.44.22-8.27,7.1-14.88,15.27-14.65,8.47.24,15.09,7.09,14.81,15.33ZM248.63,84.31v-25.05c3.86,0,7.59,0,11.32,0,4.11,0,8.22-.04,12.32.04.69.01,1.64.29,2.03.79,6.32,7.94,12.58,15.93,19.1,24.23h-44.78Z"/>
</svg>