<?xml version="1.0" encoding="UTF-8"?>
<svg id="Ebene_1" data-name="Ebene 1" xmlns="http://www.w3.org/2000/svg" version="1.1" viewBox="0 0 335.38 326.49">
  <defs>
    <style>
      .cls-1 {
        fill: #000;
        stroke-width: 0px;
      }
    </style>
  </defs>
  <path class="cls-1" d="M299.76,74.96c-18.49-18.49-37.03-37.04-55.76-55.77.15-.2.52-.81,1.01-1.31,4.25-4.28,8.47-8.6,12.81-12.8,3.98-3.86,9.49-4.04,13.39-.17,14.37,14.23,28.67,28.53,42.91,42.89,3.58,3.61,3.82,9,.38,12.67-4.76,5.08-9.92,9.8-14.73,14.48Z"/>
  <path class="cls-1" d="M299.68,102.55c-30.03-29.87-59.99-59.82-89.86-89.85-7.13-7.17-15.46-10.61-25.58-10.59-43.1.11-86.21.04-129.31.05-21.5,0-36.46,14.81-36.46,36.25-.03,84.29-.03,168.57,0,252.86,0,18.75,10.93,31.9,29.53,35.79.29.06.55.29.82.44h230.07c6.44-1.45,12.61-3.51,17.75-7.9,8.48-7.24,12.67-16.46,12.73-27.59.21-36.42.42-72.85.61-109.27.1-18.11,0-36.21.28-54.32.16-10.25-3.32-18.66-10.58-25.88ZM80.76,86.69c-14.16-.06-25.26-10.17-26.41-23.98-1.13-13.6,8.18-25.45,21.92-27.86,1.24-.22,2.53-.29,3.79-.29,23.6-.02,47.2-.1,70.81.02,12.46.06,22.5,8.38,25.29,20.5,3.61,15.68-8.47,31.2-24.6,31.6-.32,0-.63.02-.95.02-11.75,0-23.5,0-35.24,0-11.54,0-23.07.04-34.61,0ZM180.62,278.94c-4.5,1.67-6.34,3.5-6.19,8.48.23,7.59-4.04,12.23-10.09,12.28-6.11.05-10.41-4.55-10.14-12.12.18-4.94-1.65-6.77-6.08-8.58-17.37-7.08-27.06-20.24-28.58-39.06-.61-7.57,3.08-12.4,9.3-12.89,5.84-.45,9.98,3.6,11.05,10.81,2.29,15.39,11.45,24.09,25.07,23.78,12.54-.28,22.52-9.75,23.75-22.52,1.12-11.64-7.12-22.96-18.91-25.46-5.2-1.11-10.64-1.09-15.8-2.32-18.83-4.5-32.8-20.86-34.09-39.48-1.42-20.53,9.44-38.48,28.24-45.66,4.55-1.74,6.2-3.79,6.04-8.68-.25-7.77,3.81-12,10.21-11.91,6.34.09,10.15,4.3,10.05,12.21-.06,4.52,1.3,6.51,5.71,8.23,17.53,6.85,27.11,20.08,28.89,38.83.67,7.04-2.81,12-8.69,12.84-6.12.88-11.12-3.1-11.55-10.68-1.06-18.79-21.84-30.25-38.14-19.42-8.6,5.71-12.57,16.37-10.03,26.46,2.55,10.11,11.4,17.25,22.37,18.04,23.63,1.7,39.19,13.38,44.59,33.71.98,3.69,1.31,7.55,1.64,9.54.07,20.19-11.29,37.17-28.62,43.59Z"/>
</svg>