<?xml version="1.0" encoding="UTF-8"?>
<svg id="Ebene_1" data-name="Ebene 1" xmlns="http://www.w3.org/2000/svg" version="1.1" viewBox="0 0 335.38 326.49">
  <defs>
    <style>
      .cls-1 {
        fill: #000;
        stroke-width: 0px;
      }
    </style>
  </defs>
  <path class="cls-1" d="M205.3,302.03c-9.92-1.88-17.14-6.86-21.73-15.45-2.04-3.83-3.23-7.93-3.23-12.28-.03-32.28-.16-64.56.03-96.84.09-15.16,13.19-27.62,28.61-27.83,4.51-.06,9.02-.08,13.53.03,1.57.04,2.33-.38,2.8-1.96,1.12-3.71,2.45-7.36,3.74-11.02,1.52-4.31,4.18-6.2,8.78-6.21,13.3-.02,26.6-.02,39.89,0,4.63,0,7.2,1.85,8.76,6.21,1.33,3.73,2.69,7.45,3.88,11.22.43,1.37,1.11,1.75,2.48,1.76,5.75.02,11.54-.23,17.24.36,13.93,1.43,25.12,13.64,25.19,27.65.16,32.05.04,64.09.05,96.14,0,11.02-7.56,25-24.99,28.26,1.87,2.28,3.66,4.36,5.33,6.53,3.86,5.04,1.32,11.85-4.85,12.97-3.11.56-5.65-.62-7.63-3-4.07-4.9-8.16-9.8-12.15-14.77-.93-1.16-1.9-1.55-3.36-1.55-19.91.04-39.82.05-59.72,0-1.56,0-2.54.5-3.51,1.7-3.84,4.79-7.77,9.52-11.72,14.22-3.38,4.04-8.08,4.7-11.7,1.73-3.72-3.05-3.94-7.84-.55-11.98,1.52-1.86,3.04-3.71,4.81-5.87ZM257.81,173.66c-14.15,0-28.29,0-42.44,0-7.6,0-11.17,3.55-11.17,11.08,0,14.31,0,28.61,0,42.92,0,7.41,3.62,11.06,10.97,11.06,28.45,0,56.9,0,85.35,0,7.24,0,10.94-3.67,10.94-10.86,0-14.38,0-28.77,0-43.15,0-7.41-3.6-11.04-10.98-11.04-14.22-.01-28.45,0-42.67,0ZM211.12,269.21c.02,5.48,4.41,9.86,9.93,9.91,5.5.05,10.12-4.59,10.03-10.08-.09-5.53-4.48-9.86-9.98-9.86-5.64,0-10.01,4.39-9.98,10.04ZM294.59,259.17c-5.58.02-10.1,4.58-10.01,10.09.09,5.42,4.61,9.85,10.05,9.85,5.6,0,9.97-4.46,9.91-10.12-.06-5.55-4.4-9.83-9.95-9.81Z"/>
  <path class="cls-1" d="M81.83,3.12h16.12v8.13c1.02,0,1.82,0,2.62,0,23.35,0,46.71,0,70.06,0,5.17,0,8.53,2.8,9,7.45.24,2.35-.62,4.35-2.01,6.2-6.41,8.51-12.79,17.04-19.17,25.57-.38.51-.74,1.03-1.17,1.62,5.03,6.71,10.03,13.39,15.03,20.07,1.8,2.4,3.59,4.8,5.39,7.2,2.11,2.81,2.49,5.85.92,8.99-1.57,3.15-4.27,4.59-7.78,4.59-23.42,0-46.84,0-70.25,0h-2.5v57h-16.27V3.12Z"/>
  <path class="cls-1" d="M114.82,118.64c8.41-.43,16.97.15,25.44,1.89,9.69,1.99,19.04,5.03,27.11,10.91,3.4,2.48,6.76,5.42,9.13,8.84,5.9,8.51,3.7,17.92-5.22,24.8-7.21,5.56-15.58,8.59-24.23,10.97-14.9,4.11-30.15,5.81-45.54,6.51-13.22.6-26.42.25-39.57-1.2-15.19-1.67-30.18-4.27-44.22-10.7-4.43-2.03-8.52-4.57-12.05-8-8.98-8.73-6.08-19.8.33-26.22,7.1-7.12,15.91-11.16,25.37-13.95,10.48-3.1,21.23-4.29,32.14-4.11.69.01,1.39.07,1.99.11v16.22c-1.06,0-1.85,0-2.65,0-12.31-.03-24.32,1.62-35.57,6.88-3.08,1.44-6.01,3.37-8.71,5.45-3.01,2.32-2.96,3.93.33,5.74,4.16,2.29,8.49,4.43,12.99,5.94,12.4,4.18,25.27,6.02,38.27,7.02,13.39,1.03,26.78,1.05,40.16-.06,14.91-1.23,29.66-3.41,43.6-9.19,2.68-1.11,5.25-2.62,7.66-4.25,2.26-1.53,2.4-2.7.28-4.36-2.99-2.33-6.13-4.63-9.54-6.24-11.11-5.25-23-6.96-35.19-6.73-1.7.03-2.39-.26-2.35-2.1.1-4.65.03-9.3.03-14.19Z"/>
</svg>