<?xml version="1.0" encoding="UTF-8"?>
<svg id="Ebene_1" data-name="Ebene 1" xmlns="http://www.w3.org/2000/svg" version="1.1" viewBox="0 0 335.38 326.49">
  <defs>
    <style>
      .cls-1 {
        fill: #000;
        stroke-width: 0px;
      }
    </style>
  </defs>
  <path class="cls-1" d="M0,200.2c0,24.39,0,48.78,0,73.17,0,.96.1,1.91.17,3.19,8.11,0,16.05,0,23.98,0,.87,0,1.76.11,2.62-.02,2.93-.44,3.86.69,4.02,3.71,1.29,25.64,26.55,45.8,51.86,41.55,22.56-3.79,37.75-20.58,39.21-43.32.03-.52.15-1.04.26-1.73h90.11c2.04,6.9,3.22,13.75,6.03,19.85,8.64,18.78,29.68,28.93,50.05,24.81,20.06-4.05,35.12-21.3,36.33-41.77.14-2.38.82-3.16,3.26-3.14,9.16.08,18.32-.08,27.48-.14v-76.64c-.73-.76-1.55-1.46-2.18-2.29-13.83-18.4-27.67-36.8-41.41-55.27-1.53-2.06-3.12-2.82-5.66-2.79-1.25.01-2.5.02-3.75.02-7.07,2.03-14.56,3.13-22.32,3.11-37.62-.1-69.29-27.93-75.85-64.03-50.62,0-101.24,0-151.86,0-15.8,0-27.03,8.16-31.17,22.79-.82,2.89-1.12,6.02-1.13,9.04-.02,14.68-.02,29.36-.03,44.04L0,200.2ZM76.39,299.38c-12.63.09-22.88-10.04-22.97-22.7-.08-12.57,10.19-22.87,22.8-22.88,12.61,0,22.83,10.25,22.79,22.87-.04,12.51-10.11,22.61-22.62,22.71ZM170.45,213.03c-2.9,1.07-4.08,2.26-3.99,5.46.15,4.89-2.6,7.87-6.5,7.91-3.93.03-6.71-2.93-6.53-7.8.12-3.18-1.06-4.36-3.91-5.52-11.19-4.56-17.43-13.03-18.41-25.15-.39-4.87,1.98-7.99,5.99-8.3,3.76-.29,6.43,2.32,7.11,6.96,1.47,9.91,7.38,15.51,16.14,15.31,8.07-.18,14.5-6.28,15.29-14.5.72-7.49-4.59-14.78-12.18-16.4-3.35-.71-6.85-.7-10.17-1.5-12.12-2.89-21.12-13.44-21.95-25.42-.92-13.22,6.08-24.78,18.19-29.4,2.93-1.12,3.99-2.44,3.89-5.59-.16-5,2.45-7.73,6.57-7.67,4.09.06,6.54,2.77,6.47,7.86-.04,2.91.83,4.19,3.68,5.3,11.29,4.41,17.46,12.93,18.61,25,.43,4.53-1.81,7.73-5.6,8.27-3.94.56-7.16-2-7.44-6.88-.68-12.1-14.06-19.48-24.56-12.51-5.54,3.68-8.1,10.54-6.46,17.04,1.64,6.51,7.34,11.11,14.4,11.62,15.22,1.09,25.23,8.62,28.71,21.71.63,2.38.84,4.86,1.06,6.15.04,13-7.27,23.93-18.43,28.07ZM281.93,277.03c-.43,12.87-10.6,22.62-23.28,22.33-12.68-.29-22.58-10.69-22.25-23.36.33-12.52,10.75-22.52,23.11-22.18,12.82.36,22.84,10.73,22.42,23.21ZM244.07,200.23v-37.91c5.84,0,11.49,0,17.14,0,6.22,0,12.44-.05,18.65.05,1.05.02,2.48.44,3.08,1.19,9.57,12.01,19.04,24.11,28.91,36.67h-67.78Z"/>
  <g>
    <path class="cls-1" d="M196.89,70.61c0-2.49,0-4.98,0-7.48.27-2.13.46-4.28.82-6.4,2.24-13.28,7.99-24.85,17.49-34.38,14.3-14.34,31.67-20.74,51.86-18.93,12.47,1.12,23.71,5.73,33.35,13.71,17.55,14.53,25.59,33.28,23.74,56.04-.86,10.53-4.45,20.23-10.42,28.96-10.24,14.96-24.27,24.26-42.16,27.55-2.36.43-4.75.66-7.13.98h-7.48c-.86-.1-1.72-.21-2.58-.3-10.51-1.12-20.23-4.5-28.96-10.47-14.97-10.24-24.26-24.26-27.55-42.16-.43-2.36-.66-4.75-.98-7.13ZM249.53,107.93v-29.84c6.15,0,12.17,0,18.19,0,4.39,0,8.53-.96,12.47-2.94,11.35-5.69,17.02-19.75,12.72-31.69-3.91-10.87-13.46-17.66-25.01-17.7-10.76-.04-21.51,0-32.27,0-.35,0-.71.05-1.04.07v82.1h14.94Z"/>
    <path class="cls-1" d="M249.55,40.7c2.02,0,3.96,0,5.9,0,4.15,0,8.3-.04,12.46,0,6.06.07,10.57,4.03,11.36,9.91.86,6.41-3.98,12.2-10.75,12.44-6.22.22-12.45.05-18.68.04-.07,0-.15-.06-.28-.11v-22.29Z"/>
  </g>
</svg>