<?xml version="1.0" encoding="UTF-8"?>
<svg id="Ebene_1" data-name="Ebene 1" xmlns="http://www.w3.org/2000/svg" version="1.1" viewBox="0 0 335.38 326.49">
  <defs>
    <style>
      .cls-1 {
        fill: #000;
      }

      .cls-1, .cls-2 {
        stroke-width: 0px;
      }

      .cls-2 {
        fill: #fff;
      }
    </style>
  </defs>
  <g>
    <path class="cls-2" d="M192.4,167.12c0,1.42,0,2.3,0,3.18,0,8.3-.02,16.6,0,24.9.01,2.97-1.03,5.37-3.62,6.91-4.97,2.97-10.85-.64-10.88-6.73-.06-11.84,0-23.69-.04-35.53,0-.8-.15-2.09-.63-2.33-4.45-2.15-9-4.11-13.84-6.27,0,1.47,0,2.35,0,3.23,0,18.29,0,36.58,0,54.87,0,4.96-2.87,8.24-7.17,8.29-4.38.05-7.3-3.29-7.33-8.37,0-.64,0-1.29,0-1.93,0-22.72,0-45.44,0-68.17,0-5.81-2.77-8.54-8.62-8.54-8.7,0-17.4,0-26.11,0-6.13,0-8.79,2.68-8.79,8.86,0,22.96,0,45.93,0,68.89,0,.89.04,1.78-.05,2.66-.37,3.73-3.44,6.56-7.11,6.6-3.76.05-6.93-2.84-7.29-6.67-.08-.88-.05-1.77-.05-2.66,0-17.97,0-35.94,0-53.9v-3.11c-4.22,1.85-8.07,3.64-12.01,5.2-1.92.76-2.58,1.79-2.56,3.91.12,11.52.07,23.04.05,34.57,0,4.9-2.98,8.19-7.29,8.16-4.3-.03-7.19-3.31-7.2-8.25-.02-8.46,0-16.92-.01-25.38,0-.67-.09-1.33-.15-2.09-.38.18-.53.23-.66.31-.27.18-.52.38-.77.58-26.81,21.7-40.94,49.72-41.87,84.25-.21,7.63-.03,15.26-.03,22.98h217.56c0-6.89,0-13.64,0-20.4.03-26.36-8.21-49.8-24.87-70.23-5.35-6.56-11.42-12.4-18.65-17.78Z"/>
    <path class="cls-1" d="M3.35,302.26c1.51-2.69,2.64-5.73,4.63-8,2.98-3.4,7.25-4.11,11.69-4.11,70,.03,139.99.02,209.99.02,2.34,0,4.67-.07,7.01.03,6.58.28,11.86,4.36,13.61,10.42,2.36,8.15-2.64,16.49-10.98,18.17-1.64.33-3.36.37-5.04.37-70.88.02-141.76.02-212.65.02-10.96,0-14.23-2.17-18.25-12.09,0-1.61,0-3.22,0-4.84Z"/>
    <path class="cls-1" d="M192.4,167.12c7.22,5.38,13.29,11.22,18.65,17.78,16.67,20.43,24.9,43.87,24.87,70.23,0,6.75,0,13.5,0,20.4H18.36c0-7.72-.18-15.35.03-22.98.94-34.53,15.07-62.56,41.87-84.25.25-.2.51-.4.77-.58.13-.09.28-.14.66-.31.06.76.15,1.42.15,2.09,0,8.46,0,16.92.01,25.38.01,4.94,2.9,8.22,7.2,8.25,4.31.03,7.28-3.26,7.29-8.16.02-11.52.07-23.05-.05-34.57-.02-2.12.63-3.15,2.56-3.91,3.94-1.56,7.78-3.36,12.01-5.2v3.11c0,17.97,0,35.94,0,53.9,0,.89-.04,1.78.05,2.66.36,3.83,3.53,6.72,7.29,6.67,3.67-.04,6.74-2.87,7.11-6.6.09-.88.05-1.77.05-2.66,0-22.96,0-45.93,0-68.89,0-6.18,2.65-8.86,8.79-8.86,8.7,0,17.4,0,26.11,0,5.85,0,8.62,2.74,8.62,8.54,0,22.72,0,45.44,0,68.17,0,.64,0,1.29,0,1.93.03,5.08,2.95,8.42,7.33,8.37,4.3-.05,7.16-3.33,7.17-8.29.01-18.29,0-36.58,0-54.87,0-.88,0-1.76,0-3.23,4.85,2.16,9.39,4.13,13.84,6.27.48.23.63,1.52.63,2.33.04,11.84-.01,23.69.04,35.53.03,6.1,5.91,9.7,10.88,6.73,2.59-1.55,3.63-3.94,3.62-6.91-.03-8.3,0-16.6,0-24.9,0-.88,0-1.76,0-3.18Z"/>
  </g>
  <path class="cls-1" d="M253.61,1.16c48.94,2.07,82.03,39.03,80.51,87.76-1.39,44.69-41.27,80.69-86.16,78.8-47.08-1.99-82.17-40.96-80.35-85C169.88,28.05,210.96.17,253.61,1.16ZM277.12,103.36c-.19-1.16-.38-3.41-.96-5.57-3.15-11.86-12.22-18.67-26.01-19.66-6.4-.46-11.56-4.62-13.05-10.52-1.48-5.88.84-12.1,5.85-15.43,9.51-6.31,21.63.37,22.25,11.33.25,4.42,3.17,6.74,6.74,6.23,3.43-.49,5.46-3.39,5.07-7.49-1.04-10.94-6.63-18.65-16.85-22.65-2.57-1.01-3.36-2.17-3.33-4.8.06-4.61-2.16-7.07-5.86-7.12-3.74-.05-6.1,2.42-5.95,6.95.09,2.85-.87,4.05-3.52,5.07-10.97,4.19-17.3,14.66-16.47,26.64.75,10.86,8.9,20.41,19.88,23.03,3.01.72,6.18.71,9.22,1.35,6.87,1.46,11.68,8.06,11.03,14.85-.72,7.45-6.54,12.97-13.85,13.14-7.94.18-13.29-4.89-14.62-13.87-.62-4.21-3.04-6.57-6.44-6.31-3.63.28-5.78,3.1-5.43,7.52.89,10.98,6.54,18.65,16.67,22.78,2.58,1.05,3.65,2.12,3.54,5-.16,4.41,2.35,7.1,5.91,7.07,3.53-.03,6.02-2.73,5.89-7.16-.09-2.9.99-3.97,3.61-4.94,10.11-3.75,16.73-13.65,16.69-25.43Z"/>
</svg>