<?xml version="1.0" encoding="UTF-8"?>
<svg id="Ebene_1" data-name="Ebene 1" xmlns="http://www.w3.org/2000/svg" version="1.1" viewBox="0 0 335.38 326.49">
  <defs>
    <style>
      .cls-1 {
        fill: #000;
        stroke-width: 0px;
      }
    </style>
  </defs>
  <path class="cls-1" d="M6.71,210.27c.73-3.46,1.29-6.97,2.22-10.38,7.72-28.06,32.45-46.83,61.82-46.85,64.32-.04,128.65,0,192.97-.02,20.96,0,38.34-12.62,44.08-31.82,8.54-28.57-12.63-57.24-42.52-57.34-37.29-.12-74.59-.03-111.89-.03-1.23,0-2.45,0-3.84,0v-18.84c1.15,0,2.26,0,3.36,0,37.09,0,74.17-.02,111.26,0,32.02.02,57.76,21.51,63.52,52.95,6.08,33.18-17.52,67.03-50.82,72.69-4.72.8-9.58,1.18-14.37,1.19-64.01.08-128.02.03-192.03.06-20.94.01-38.97,14.09-43.65,33.91-6.73,28.51,14.28,55.13,43.86,55.24,39.49.14,78.99.04,118.49.04,1.88,0,3.76,0,5.87,0v18.67c-.94.06-1.85.17-2.76.17-40.44,0-80.88.09-121.31-.02-31.91-.09-57.42-21.47-63.39-52.83-.27-1.41-.59-2.82-.89-4.23,0-4.19,0-8.38,0-12.56Z"/>
  <path class="cls-1" d="M109.38,32.11C99.53,11.03,74.71-1.7,51.78,2.65,31.45,6.51,16.81,17.54,9.57,37.33c-1.35,3.69-1.92,7.66-2.86,11.51v10.05c1.67,7.92,4.37,15.45,8.41,22.49,11.82,20.57,27.89,37.55,45.52,53.79,5.39-5.3,10.81-10.36,15.92-15.72,12.02-12.61,23.08-25.95,31.21-41.51,7.87-15.05,8.87-30.32,1.61-45.83ZM60.7,73.25c-10.97.03-19.94-8.86-19.98-19.81-.05-10.95,8.89-19.89,19.87-19.89,10.96,0,19.85,8.96,19.82,19.94-.04,10.82-8.92,19.72-19.7,19.75Z"/>
  <path class="cls-1" d="M326.96,229.54c-7.14-27.68-35.58-44.64-64.48-38.06-34.11,7.77-50.9,43.25-36.01,72.48,5.36,10.52,11.95,20.13,19.42,29.2,8.79,10.68,18.34,20.63,29.47,30.41,6.65-6.93,13.38-13.65,19.78-20.67,11.24-12.33,21.61-25.31,28.62-40.65,4.84-10.56,6.1-21.4,3.19-32.72ZM274.92,261.41c-10.97.03-19.94-8.86-19.98-19.81-.05-10.95,8.89-19.89,19.87-19.89,10.96,0,19.85,8.96,19.82,19.94-.04,10.82-8.92,19.72-19.7,19.75Z"/>
</svg>