<?xml version="1.0" encoding="UTF-8"?>
<svg id="Ebene_1" data-name="Ebene 1" xmlns="http://www.w3.org/2000/svg" version="1.1" viewBox="0 0 335.38 326.49">
  <defs>
    <style>
      .cls-1 {
        fill: #000;
        stroke-width: 0px;
      }
    </style>
  </defs>
  <path class="cls-1" d="M83.86,2.36h16.12v8.13c1.02,0,1.82,0,2.62,0,23.35,0,46.71,0,70.06,0,5.17,0,8.53,2.8,9,7.45.24,2.35-.62,4.35-2.01,6.2-6.41,8.51-12.79,17.04-19.17,25.57-.38.51-.74,1.03-1.17,1.62,5.03,6.71,10.03,13.39,15.03,20.07,1.8,2.4,3.59,4.8,5.39,7.2,2.11,2.81,2.49,5.85.92,8.99-1.57,3.15-4.27,4.59-7.78,4.59-23.42,0-46.84,0-70.25,0h-2.5v57h-16.27V2.36Z"/>
  <path class="cls-1" d="M116.85,117.88c8.41-.43,16.97.15,25.44,1.89,9.69,1.99,19.04,5.03,27.11,10.91,3.4,2.48,6.76,5.42,9.13,8.84,5.9,8.51,3.7,17.92-5.22,24.8-7.21,5.56-15.58,8.59-24.23,10.97-14.9,4.11-30.15,5.81-45.54,6.51-13.22.6-26.42.25-39.57-1.2-15.19-1.67-30.18-4.27-44.22-10.7-4.43-2.03-8.52-4.57-12.05-8-8.98-8.73-6.08-19.8.33-26.22,7.1-7.12,15.91-11.16,25.37-13.95,10.48-3.1,21.23-4.29,32.14-4.11.69.01,1.39.07,1.99.11v16.22c-1.06,0-1.85,0-2.65,0-12.31-.03-24.32,1.62-35.57,6.88-3.08,1.44-6.01,3.37-8.71,5.45-3.01,2.32-2.96,3.93.33,5.74,4.16,2.29,8.49,4.43,12.99,5.94,12.4,4.18,25.27,6.02,38.27,7.02,13.39,1.03,26.78,1.05,40.16-.06,14.91-1.23,29.66-3.41,43.6-9.19,2.68-1.11,5.25-2.62,7.66-4.25,2.26-1.53,2.4-2.7.28-4.36-2.99-2.33-6.13-4.63-9.54-6.24-11.11-5.25-23-6.96-35.19-6.73-1.7.03-2.39-.26-2.35-2.1.1-4.65.03-9.3.03-14.19Z"/>
  <g>
    <path class="cls-1" d="M332.89,243.04c-9.14-12.16-18.28-24.31-27.36-36.51-1.01-1.36-2.06-1.86-3.74-1.85-8.44.08-16.87.04-25.31.04h-2.53v-40.27c-.95,0-1.71,0-2.47,0-24.79,0-49.58,0-74.37,0-1.14,1.19-2.42,2.33-3.84,3.43-8.98,6.92-19.41,10.7-30.18,13.67-16.49,4.55-33.32,6.73-50.32,7.77-.04,34.63-.03,69.26-.02,103.89,0,.63.06,1.26.11,2.11,5.36,0,10.6,0,15.84,0,.58,0,1.16.07,1.73-.01,1.94-.29,2.55.46,2.65,2.45.86,16.94,17.54,30.26,34.26,27.45,14.9-2.5,24.94-13.59,25.9-28.62.02-.34.1-.69.17-1.14h59.53c1.35,4.56,2.13,9.09,3.98,13.12,5.71,12.41,19.61,19.11,33.06,16.39,13.25-2.68,23.2-14.07,24-27.6.09-1.57.54-2.09,2.15-2.08,6.05.05,12.1-.05,18.16-.09v-50.63c-.48-.5-1.02-.96-1.44-1.51ZM163.23,310.39c-8.34.06-15.12-6.64-15.17-14.99-.05-8.3,6.73-15.11,15.06-15.12,8.33,0,15.08,6.77,15.05,15.11-.03,8.27-6.68,14.94-14.94,15ZM208.22,262.19c-2.23.83-3.15,1.74-3.07,4.2.11,3.77-2,6.07-5.01,6.09-3.03.03-5.17-2.26-5.03-6.01.09-2.45-.82-3.36-3.01-4.26-8.62-3.51-13.43-10.04-14.18-19.38-.3-3.75,1.53-6.15,4.61-6.39,2.9-.23,4.95,1.79,5.48,5.36,1.13,7.64,5.68,11.95,12.44,11.8,6.22-.14,11.17-4.84,11.78-11.18.56-5.77-3.53-11.39-9.38-12.63-2.58-.55-5.28-.54-7.84-1.15-9.34-2.23-16.27-10.35-16.91-19.59-.71-10.18,4.68-19.09,14.01-22.66,2.26-.86,3.07-1.88,3-4.31-.12-3.85,1.89-5.95,5.06-5.91,3.15.04,5.04,2.13,4.99,6.06-.03,2.24.64,3.23,2.83,4.08,8.7,3.4,13.45,9.96,14.33,19.26.33,3.49-1.4,5.95-4.31,6.37-3.04.44-5.52-1.54-5.73-5.3-.53-9.32-10.83-15.01-18.92-9.64-4.27,2.83-6.24,8.12-4.98,13.13,1.26,5.02,5.66,8.56,11.1,8.95,11.72.84,19.44,6.64,22.12,16.72.49,1.83.65,3.75.81,4.74.03,10.02-5.6,18.44-14.2,21.63ZM283.63,310.38c-8.38-.19-14.92-7.06-14.7-15.44.22-8.27,7.1-14.88,15.27-14.65,8.47.24,15.09,7.09,14.81,15.33-.28,8.5-7,14.94-15.38,14.75ZM274.01,244.89v-25.05c3.86,0,7.59,0,11.32,0,4.11,0,8.22-.04,12.32.04.7.01,1.64.29,2.03.79,6.32,7.94,12.58,15.93,19.1,24.23h-44.78Z"/>
    <path class="cls-1" d="M147.81,164.45c-4.56,0-9.11,0-13.67,0-5.19,0-9.62,1.33-13.12,3.86,9.02-.83,17.98-1.99,26.79-3.86Z"/>
  </g>
</svg>