<?xml version="1.0" encoding="UTF-8"?>
<svg id="Ebene_1" data-name="Ebene 1" xmlns="http://www.w3.org/2000/svg" version="1.1" viewBox="0 0 335.38 326.49">
  <defs>
    <style>
      .cls-1 {
        fill: #000;
        stroke-width: 0px;
      }
    </style>
  </defs>
  <path class="cls-1" d="M333.21,167.98c-13.83-18.4-27.67-36.8-41.41-55.27-1.53-2.06-3.12-2.82-5.66-2.79-12.77.13-25.54.06-38.31.06h-3.82v-60.96c-1.44,0-2.58,0-3.73,0-69.31,0-138.62,0-207.92,0-15.8,0-27.03,8.16-31.17,22.79-.82,2.89-1.12,6.02-1.13,9.04C-.02,135.21,0,189.57,0,243.92c0,.96.1,1.91.17,3.19,8.11,0,16.05,0,23.98,0,.87,0,1.76.11,2.62-.02,2.93-.44,3.86.69,4.02,3.71,1.29,25.64,26.55,45.8,51.86,41.55,22.56-3.79,37.75-20.58,39.21-43.32.03-.52.15-1.04.26-1.73h90.11c2.04,6.9,3.22,13.75,6.03,19.85,8.64,18.78,29.68,28.93,50.05,24.81,20.06-4.05,35.12-21.3,36.33-41.77.14-2.38.82-3.16,3.26-3.14,9.16.08,18.32-.08,27.48-.14v-76.64c-.73-.76-1.55-1.46-2.18-2.29ZM76.39,269.93c-12.63.09-22.88-10.04-22.97-22.7-.08-12.57,10.19-22.87,22.8-22.88,12.61,0,22.83,10.25,22.79,22.87-.04,12.51-10.11,22.61-22.62,22.71ZM144.5,196.96c-3.38,1.25-4.76,2.63-4.65,6.37.17,5.7-3.03,9.18-7.58,9.22-4.59.04-7.82-3.42-7.61-9.1.14-3.71-1.24-5.09-4.56-6.44-13.05-5.32-20.32-15.2-21.47-29.33-.46-5.68,2.31-9.31,6.99-9.68,4.38-.34,7.49,2.7,8.3,8.12,1.72,11.56,8.6,18.09,18.83,17.86,9.42-.21,16.91-7.32,17.84-16.92.84-8.74-5.35-17.24-14.2-19.12-3.9-.83-7.99-.82-11.87-1.74-14.14-3.38-24.63-15.67-25.6-29.65-1.07-15.42,7.09-28.9,21.21-34.29,3.42-1.3,4.65-2.85,4.53-6.52-.19-5.83,2.86-9.01,7.67-8.95,4.76.07,7.62,3.23,7.55,9.17-.04,3.39.97,4.89,4.29,6.18,13.16,5.15,20.36,15.08,21.7,29.16.5,5.28-2.11,9.01-6.53,9.64-4.6.66-8.35-2.33-8.67-8.02-.8-14.11-16.4-22.72-28.64-14.59-6.46,4.29-9.44,12.3-7.54,19.87,1.91,7.59,8.56,12.96,16.8,13.55,17.75,1.27,29.43,10.05,33.48,25.32.74,2.77.98,5.67,1.23,7.17.05,15.16-8.48,27.91-21.49,32.74ZM281.93,247.58c-.43,12.87-10.6,22.62-23.29,22.33-12.68-.29-22.58-10.69-22.25-23.36.33-12.52,10.75-22.52,23.11-22.18,12.82.36,22.84,10.73,22.42,23.21ZM244.08,170.78v-37.91c5.84,0,11.49,0,17.14,0,6.22,0,12.44-.05,18.65.05,1.05.02,2.48.44,3.08,1.19,9.57,12.01,19.04,24.11,28.91,36.67h-67.78Z"/>
</svg>