<?xml version="1.0" encoding="UTF-8"?>
<svg id="Ebene_1" data-name="Ebene 1" xmlns="http://www.w3.org/2000/svg" version="1.1" viewBox="0 0 335.38 326.49">
  <defs>
    <style>
      .cls-1 {
        fill: #000;
        stroke-width: 0px;
      }
    </style>
  </defs>
  <path class="cls-1" d="M38.19,265.6c19.61,0,38.61.02,57.61-.02,4.1,0,9,1.1,12.06-.75,2.92-1.77,3.96-6.69,5.77-10.26,2.72-5.36,5.34-10.78,8.09-16.12,3.24-6.28,9.55-8.53,15.43-5.61,5.81,2.89,7.9,9.41,4.77,15.7-11.06,22.28-22.19,44.53-33.35,66.75-3.2,6.38-9.5,8.66-15.36,5.79-5.98-2.93-7.99-9.46-4.83-15.97,2.66-5.48,5.41-10.92,8.35-16.85-1.82,0-3.08,0-4.34,0-23.85,0-47.69,0-71.54,0-11.59,0-16.61-8.48-11.01-18.6,16.63-30.01,33.25-60.04,50-89.98,1.53-2.74,1.58-4.48-.41-7.09-15.66-20.59-30.53-41.75-41.54-65.25-4.06-8.68-7.9-17.87-9.49-27.23-3.47-20.36,3.17-38.46,17.17-53.26C44.59,6.75,68.18-.02,94.71,7.85c26.67,7.91,42.39,26.65,47.84,53.9,2.25,11.23.27,22.04-3.77,32.6-6.92,18.08-16.75,34.58-27.53,50.52-7.47,11.04-15.55,21.65-23.31,32.49-1.92,2.68-3.83,5.38-5.43,8.25-14.24,25.54-28.41,51.12-42.6,76.69-.5.9-.95,1.84-1.7,3.3ZM75.48,50.21c-12.54,0-22.74,10.21-22.69,22.71.05,12.5,10.29,22.66,22.82,22.62,12.31-.03,22.46-10.2,22.5-22.56.04-12.55-10.12-22.77-22.63-22.78Z"/>
  <path class="cls-1" d="M234.01,265.6c-1.95-2.74-3.45-4.82-4.91-6.91-13.35-19.19-25.61-38.94-35.01-60.51-17.39-39.85,11.59-85.71,54.36-90.75,40.46-4.77,76.29,26.45,76.36,66.89.02,9.76-3.13,18.79-6.92,27.6-9.54,22.13-22.78,42.07-36.73,61.56-4.67,6.52-9.65,12.82-14.43,19.27-2.82,3.79-6.47,5.56-11.23,5.55-33.17-.06-66.34-.02-99.52-.04-7.43,0-12.59-4.79-12.5-11.5.09-6.57,5.16-11.15,12.46-11.16,24.44-.02,48.87,0,73.31,0,1.29,0,2.58,0,4.76,0ZM279.47,174.67c-.06-12.45-10.41-22.56-22.97-22.43-12.33.12-22.37,10.32-22.35,22.7.02,12.52,10.29,22.72,22.78,22.63,12.49-.09,22.61-10.37,22.55-22.9Z"/>
</svg>