<?xml version="1.0" encoding="UTF-8"?>
<svg id="Ebene_1" data-name="Ebene 1" xmlns="http://www.w3.org/2000/svg" version="1.1" viewBox="0 0 335.38 326.49">
  <defs>
    <style>
      .cls-1 {
        fill: #000;
        stroke-width: 0px;
      }
    </style>
  </defs>
  <path class="cls-1" d="M8,260.47c.89-3.72,1.55-7.51,2.71-11.14,8.81-27.44,35.54-43.46,63.9-38.25,3.05.56,5.07-.11,7.3-2.35,44-44.15,88.07-88.22,132.22-132.22,2.03-2.02,2.46-3.85,2.01-6.52-3.6-21.23,2.48-39.28,18.66-53.52,11.35-9.99,24.92-14.22,40.02-13.09,3.91.29,7.85.86,11.65,1.79,5.01,1.23,6.17,5.78,2.57,9.47-5.29,5.43-10.77,10.68-16.01,16.16-1.01,1.06-1.8,2.79-1.83,4.23-.18,7.87-.08,15.75-.08,24.03,5.87,0,11.59-.46,17.21.12,6.69.68,11.63-1.31,15.86-6.56,3.37-4.18,7.49-7.77,11.38-11.52,3.71-3.58,8.09-2.3,9.48,2.65,9.95,35.48-16.3,70.78-53.13,71.32-4.22.06-8.49-.58-12.68-1.23-2.08-.32-3.43.1-4.9,1.59-8.08,8.22-16.27,16.34-24.43,24.49-36.29,36.29-72.55,72.59-108.91,108.8-1.96,1.95-2.34,3.69-1.92,6.26,3.97,24.29-4.11,43.66-24.2,57.87-6.8,4.81-14.54,7.46-22.77,8.68-.8.12-1.58.41-2.36.62h-9.98c-3.34-.65-6.68-1.3-10.02-1.93-2.47-.47-4.61-1.42-5.38-4.08-.77-2.67.62-4.54,2.41-6.3,5.26-5.17,10.48-10.37,15.67-15.6.7-.7,1.64-1.62,1.66-2.46.12-8.48.07-16.96.07-25.74-8.68,0-17.07-.05-25.45.08-.94.01-2,.92-2.76,1.66-5.33,5.24-10.61,10.53-15.87,15.84-1.71,1.73-3.57,2.9-6.09,2.16-2.52-.73-3.53-2.73-4-5.09-.68-3.43-1.33-6.86-1.99-10.29,0-3.33,0-6.65,0-9.98Z"/>
  <path class="cls-1" d="M275.47,322.2c-4.74-1.4-9.83-2.14-14.15-4.38-5.26-2.73-10.43-6.14-14.67-10.26-21.46-20.84-42.73-41.88-63.76-63.16-4.14-4.19-7-9.68-10.23-14.71-.47-.73-.11-2.67.57-3.36,19.09-19.25,38.26-38.42,57.5-57.52.68-.68,2.62-1.04,3.36-.58,4.96,3.15,10.34,5.96,14.5,10,21.62,20.98,43.02,42.18,64.28,63.52,22.69,22.77,17.9,59.16-9.9,74.47-5.32,2.93-11.65,4.02-17.52,5.97h-9.98ZM235.63,220.47c-5.18.32-8.07,2.07-9.76,5.56-1.73,3.58-1.1,7.52,2,10.59,15.19,15.08,30.41,30.13,45.73,45.08,4.07,3.97,9.76,3.77,13.4-.03,3.65-3.81,3.58-9.36-.49-13.4-15.04-14.93-30.13-29.83-45.33-44.6-1.74-1.69-4.33-2.52-5.55-3.21Z"/>
  <path class="cls-1" d="M8,26.67c1.72-2.42,3.2-5.05,5.2-7.2,4.02-4.34,8.31-8.44,12.52-12.6,4.6-4.54,8.52-5.04,13.96-1.67,18.09,11.21,36.17,22.44,54.23,33.69,4.93,3.07,5.28,6.4,1.13,10.54-2.27,2.27-4.68,4.4-6.94,6.5,20.19,20.18,40,39.99,59.61,59.59-9.14,9.17-17.85,17.91-26.68,26.78-19.56-19.57-39.35-39.37-59.59-59.62-2.59,2.73-4.87,5.25-7.28,7.63-3.76,3.71-7.2,3.39-9.97-1.03-11.45-18.31-22.83-36.66-34.22-55-.76-1.22-1.32-2.57-1.97-3.86,0-1.25,0-2.49,0-3.74Z"/>
</svg>