<?xml version="1.0" encoding="UTF-8"?>
<svg id="Ebene_1" data-name="Ebene 1" xmlns="http://www.w3.org/2000/svg" version="1.1" viewBox="0 0 335.38 326.49">
  <defs>
    <style>
      .cls-1 {
        fill: #000;
        stroke-width: 0px;
      }
    </style>
  </defs>
  <path class="cls-1" d="M131,114.6v47.67h-31.47v-47.67h31.47Z"/>
  <path class="cls-1" d="M253.75.03c48.94,2.07,82.03,39.03,80.51,87.76-1.39,44.69-41.27,80.69-86.16,78.8-47.08-1.99-82.17-40.96-80.35-85C170.02,26.92,211.1-.96,253.75.03ZM277.26,102.23c-.19-1.16-.38-3.41-.96-5.57-3.15-11.86-12.22-18.67-26.01-19.66-6.4-.46-11.56-4.62-13.05-10.52-1.48-5.88.84-12.1,5.85-15.43,9.51-6.31,21.63.37,22.25,11.33.25,4.42,3.17,6.74,6.74,6.23,3.43-.49,5.46-3.39,5.07-7.49-1.04-10.94-6.63-18.65-16.85-22.65-2.57-1.01-3.36-2.17-3.33-4.8.06-4.61-2.16-7.07-5.86-7.12-3.74-.05-6.1,2.42-5.95,6.95.09,2.85-.87,4.05-3.52,5.07-10.97,4.19-17.3,14.66-16.47,26.64.75,10.86,8.9,20.41,19.88,23.03,3.01.72,6.18.71,9.22,1.35,6.87,1.46,11.68,8.06,11.03,14.85-.72,7.45-6.54,12.97-13.85,13.14-7.94.18-13.29-4.89-14.62-13.87-.62-4.21-3.04-6.57-6.44-6.31-3.63.28-5.78,3.1-5.43,7.52.89,10.98,6.54,18.65,16.67,22.78,2.58,1.05,3.65,2.12,3.54,5-.16,4.41,2.35,7.1,5.91,7.07,3.53-.03,6.02-2.73,5.89-7.16-.09-2.9.99-3.97,3.61-4.94,10.11-3.75,16.73-13.65,16.69-25.43Z"/>
  <g>
    <path class="cls-1" d="M230.36,128.68c0-2.52,0-5.04,0-7.56,0-7.78-2.17-10.44-9.28-10.74,1.02,7.59,4.14,13.71,9.28,18.29Z"/>
    <path class="cls-1" d="M155.19,114.35c-1.04,0-2.08,0-3.13,0-1.45,0-2.91.16-4.83.27v5.66c0,16.36.04,32.72-.02,49.08-.03,6.27-2.99,9.29-9.17,9.32-15.36.08-30.71.09-46.07,0-5.64-.03-8.59-3.08-8.82-8.66-.07-1.67-.02-3.34-.02-5.01,0-16.66,0-33.33,0-50.66-23.73,0-46.75-.02-69.77.01-7.86.01-10.35,2.6-10.35,10.61,0,62.27,0,124.55,0,186.82,0,8.21,2.61,10.92,10.7,10.93,67.6.02,135.2.02,202.8,0,8.18,0,10.85-2.68,10.85-10.78,0-43.51,0-87.02,0-130.54-35.49-7.78-62.76-34.25-72.17-67.05ZM131.41,290.26c-10.83.27-21.67.27-32.5,0-4.83-.12-7.88-3.8-7.73-8.12.15-4.31,3.37-7.45,8.26-7.61,5.33-.18,10.67-.04,16.01-.04,5.17,0,10.34-.14,15.5.04,4.89.17,8.1,3.32,8.23,7.65.13,4.3-2.95,7.97-7.77,8.09ZM143.57,229.54c-3.24,3.32-8.12,3.22-11.99-.54-2.49-2.42-4.66-5.17-6.98-7.77-.47.27-.94.55-1.41.82,0,8.65.02,17.3,0,25.95-.02,6.48-2.77,9.96-7.84,10.05-5.27.1-8.15-3.48-8.17-10.22-.02-8.61,0-17.23-1.05-26.48-2.48,2.6-4.85,5.31-7.45,7.77-3.92,3.7-8.77,3.74-11.97.31-3.13-3.35-2.95-7.82.76-11.61,7.12-7.27,14.31-14.48,21.6-21.58,4.02-3.91,8.29-3.88,12.34.07,7.28,7.11,14.48,14.3,21.58,21.59,3.68,3.78,3.76,8.35.58,11.61Z"/>
  </g>
</svg>