<?xml version="1.0" encoding="UTF-8"?>
<svg id="Ebene_1" data-name="Ebene 1" xmlns="http://www.w3.org/2000/svg" version="1.1" viewBox="0 0 335.38 326.49">
  <defs>
    <style>
      .cls-1 {
        fill: #000;
        stroke-width: 0px;
      }
    </style>
  </defs>
  <path class="cls-1" d="M333.56,216.71c-11.63-15.47-23.27-30.93-34.81-46.47-1.29-1.73-2.62-2.37-4.76-2.35-10.73.11-21.47.05-32.21.05h-3.21v-51.25c-1.21,0-2.17,0-3.14,0-38.83,0-77.65,0-116.48,0-11.8,11.76-23.57,23.55-35.38,35.31-.93.92-2.14,1.57-3.21,2.34h-46.89c-.04,42.07-.03,84.14-.03,126.21,0,.8.08,1.61.14,2.68,6.82,0,13.49,0,20.16,0,.73,0,1.48.09,2.2-.02,2.46-.37,3.25.58,3.38,3.12,1.09,21.56,22.32,38.5,43.6,34.93,18.96-3.19,31.74-17.3,32.97-36.42.03-.44.13-.87.22-1.45h75.76c1.72,5.8,2.71,11.56,5.07,16.69,7.26,15.79,24.95,24.32,42.07,20.86,16.86-3.41,29.53-17.91,30.55-35.12.12-2,.69-2.66,2.74-2.64,7.7.06,15.4-.06,23.11-.12v-64.43c-.61-.64-1.3-1.22-1.83-1.93ZM117.64,302.42c-10.62.08-19.24-8.44-19.31-19.08-.07-10.57,8.57-19.23,19.17-19.24,10.6,0,19.19,8.62,19.16,19.23-.04,10.52-8.5,19.01-19.02,19.09ZM174.9,241.07c-2.84,1.05-4,2.21-3.91,5.35.15,4.79-2.55,7.72-6.37,7.75-3.86.03-6.58-2.87-6.4-7.65.12-3.12-1.04-4.28-3.84-5.42-10.97-4.47-17.09-12.78-18.05-24.66-.39-4.78,1.94-7.83,5.87-8.14,3.69-.29,6.3,2.27,6.98,6.83,1.44,9.72,7.23,15.21,15.83,15.02,7.92-.18,14.22-6.16,15-14.22.71-7.35-4.5-14.5-11.94-16.08-3.28-.7-6.72-.69-9.98-1.47-11.89-2.84-20.71-13.17-21.52-24.93-.9-12.96,5.96-24.3,17.83-28.83,2.87-1.1,3.91-2.39,3.81-5.48-.16-4.91,2.4-7.58,6.45-7.52,4.01.06,6.41,2.71,6.35,7.71-.04,2.85.82,4.11,3.6,5.2,11.07,4.33,17.12,12.68,18.24,24.51.42,4.44-1.78,7.58-5.49,8.11-3.87.55-7.02-1.96-7.29-6.74-.67-11.86-13.79-19.1-24.08-12.26-5.43,3.61-7.94,10.34-6.34,16.71,1.61,6.38,7.2,10.89,14.12,11.39,14.92,1.07,24.74,8.45,28.15,21.28.62,2.33.83,4.77,1.03,6.03.04,12.75-7.13,23.47-18.07,27.52ZM270.87,302.4c-10.66-.24-18.98-8.99-18.7-19.64.28-10.53,9.04-18.93,19.43-18.64,10.77.3,19.2,9.02,18.85,19.51-.36,10.82-8.91,19.02-19.58,18.77ZM258.62,219.06v-31.88c4.91,0,9.66,0,14.41,0,5.23,0,10.46-.05,15.68.05.88.02,2.08.37,2.59,1,8.05,10.1,16.01,20.27,24.31,30.83h-56.99Z"/>
  <g>
    <path class="cls-1" d="M5.09,103.77c0-17.29,0-34.58,0-51.87.62-.88,1.14-1.86,1.88-2.61,11.34-11.39,22.72-22.73,34.06-34.12,1.24-1.24,2.57-1.82,4.34-1.82,16.11.04,32.23.04,48.34,0,1.77,0,3.11.55,4.35,1.8,11.37,11.42,22.76,22.81,34.18,34.18,1.25,1.24,1.8,2.59,1.8,4.35-.04,16.07-.04,32.14,0,48.21,0,1.87-.59,3.26-1.9,4.57-11.33,11.27-22.62,22.6-33.95,33.88-.78.78-1.8,1.32-2.71,1.97h-51.88c-.91-.65-1.92-1.19-2.7-1.97-11.31-11.26-22.6-22.55-33.86-33.85-.78-.78-1.32-1.79-1.97-2.7ZM79.42,62.73c-8.32-.01-15.14,6.78-15.15,15.1,0,8.26,6.76,15.08,15.01,15.12,8.33.04,15.19-6.74,15.21-15.04.03-8.32-6.76-15.16-15.07-15.18ZM31.76,92.95c2.86-.02,5.25-.79,7.3-2.48,4.26-3.52,4.19-9.43-.2-12.77-1.02-.77-2.21-1.36-3.39-1.88-2.22-.98-4.5-1.82-6.74-2.76-1.32-.55-1.93-1.88-1.19-3.07.51-.81,1.42-1.61,2.31-1.9,2.74-.89,5.16.15,7.43,1.69,1.3.88,2.74.68,3.58-.44.87-1.16.63-2.67-.67-3.64-2.26-1.7-4.81-2.73-7.64-2.94-2.22-.16-4.37.2-6.29,1.37-2.74,1.65-4.23,4.1-4,7.32.22,3.1,1.86,5.3,4.85,6.42,2.11.8,4.21,1.65,6.29,2.54.88.38,1.76.82,2.5,1.41,1.62,1.29,1.68,3.15.15,4.54-.63.57-1.44,1.08-2.26,1.28-3.24.78-6.02-.22-8.42-2.45-1.32-1.23-2.7-1.33-3.79-.28-1.08,1.05-.99,2.63.28,3.88,2.79,2.76,6.21,4.02,9.87,4.17ZM103.76,81.91c1.87,0,3.54.08,5.21-.02,4.74-.28,8.66-4.12,8.96-8.67.34-5.1-2.88-9.5-7.85-10.25-2.63-.4-5.35-.22-8.03-.25-2.53-.03-3.33.78-3.33,3.28,0,7.89,0,15.78,0,23.67,0,.34,0,.67.03,1.01.14,1.25,1.1,2.17,2.33,2.24,1.16.07,2.23-.68,2.52-1.85.13-.52.15-1.08.15-1.62.01-2.43,0-4.86,0-7.55ZM56.7,67.76c1.39,0,2.64,0,3.88,0,1.91,0,3.09-.99,3.07-2.55-.02-1.51-1.18-2.48-3.01-2.48-4.32,0-8.64,0-12.96,0-1.81,0-2.97,1.02-2.95,2.54.02,1.51,1.18,2.48,3,2.49,1.28,0,2.56,0,3.92,0,0,.63,0,1.09,0,1.54,0,6.71,0,13.42,0,20.13,0,.38-.02.76.02,1.13.11,1.32,1.08,2.29,2.35,2.36,1.24.07,2.38-.81,2.61-2.08.08-.45.06-.92.06-1.38,0-7.17,0-14.34,0-21.71Z"/>
    <path class="cls-1" d="M69.31,77.78c.02-5.55,4.58-10.05,10.15-10.02,5.55.03,10.03,4.6,9.99,10.18-.05,5.49-4.58,9.96-10.09,9.95-5.56,0-10.07-4.56-10.05-10.12Z"/>
    <path class="cls-1" d="M103.82,76.88v-9.06c1.76,0,3.48-.15,5.17.04,2.34.26,3.99,2.35,3.93,4.63-.06,2.26-1.85,4.2-4.22,4.37-1.58.11-3.17.02-4.88.02Z"/>
  </g>
</svg>