<?xml version="1.0" encoding="UTF-8"?>
<svg id="Ebene_1" data-name="Ebene 1" xmlns="http://www.w3.org/2000/svg" version="1.1" viewBox="0 0 335.38 326.49">
  <defs>
    <style>
      .cls-1 {
        fill: #000;
        stroke-width: 0px;
      }
    </style>
  </defs>
  <path class="cls-1" d="M14.99,9.41h.19c5.17,0,9.37,4.19,9.37,9.37v111.09c0,5.17,4.19,9.37,9.37,9.37h267.69c5.17,0,9.37-4.19,9.37-9.37V19.25c0-5.17,4.19-9.37,9.37-9.37h.06c5.17,0,9.37,4.19,9.37,9.37v291.98c0,5.17-4.19,9.37-9.37,9.37h0c-5.17,0-9.37-4.19-9.37-9.37v-5.13c0-5.17-4.19-9.37-9.37-9.37H34.12c-5.17,0-9.37,4.19-9.37,9.37v5.63c0,5.17-4.19,9.37-9.37,9.37h-.39c-5.17,0-9.37-4.19-9.37-9.37V18.77c0-5.17,4.19-9.37,9.37-9.37ZM310.81,268v-100.03c0-5.17-4.19-9.37-9.37-9.37H34.22c-5.17,0-9.37,4.19-9.37,9.37v100.03c0,5.17,4.19,9.37,9.37,9.37h267.22c5.17,0,9.37-4.19,9.37-9.37Z"/>
  <path class="cls-1" d="M61.44,110.44V43.63c0-5.24,4.25-9.49,9.49-9.49h14.46c5.24,0,9.49,4.25,9.49,9.49v13.25c0,5.24,4.25,9.49,9.49,9.49h0c5.24,0,9.49-4.25,9.49-9.49v-13.34c0-5.24,4.25-9.49,9.49-9.49h14.45c5.24,0,9.49,4.25,9.49,9.49v66.9c0,5.24-4.25,9.49-9.49,9.49h-66.88c-5.24,0-9.49-4.25-9.49-9.49Z"/>
  <path class="cls-1" d="M197.01,34.05h14.38c5.24,0,9.49,4.25,9.49,9.49v13.32c0,5.24,4.25,9.49,9.49,9.49h.02c5.24,0,9.49-4.25,9.49-9.49v-13.29c0-5.24,4.25-9.49,9.49-9.49h14.58c5.24,0,9.49,4.25,9.49,9.49v66.96c0,5.24-4.25,9.49-9.49,9.49h-66.94c-5.24,0-9.49-4.25-9.49-9.49V43.54c0-5.24,4.25-9.49,9.49-9.49Z"/>
  <path class="cls-1" d="M147.38,182.61v66.94c0,5.24-4.25,9.49-9.49,9.49h-66.92c-5.24,0-9.49-4.25-9.49-9.49v-66.99c0-5.24,4.25-9.49,9.49-9.49h14.32c5.24,0,9.49,4.25,9.49,9.49v13.45c0,5.24,4.25,9.49,9.49,9.49h.1c5.24,0,9.49-4.25,9.49-9.49v-13.4c0-5.24,4.25-9.49,9.49-9.49h14.54c5.24,0,9.49,4.25,9.49,9.49Z"/>
  <path class="cls-1" d="M187.48,249.47v-66.85c0-5.24,4.25-9.49,9.49-9.49h14.46c5.24,0,9.49,4.25,9.49,9.49v13.43c0,5.24,4.25,9.49,9.49,9.49h0c5.24,0,9.49-4.25,9.49-9.49v-13.49c0-5.24,4.25-9.49,9.49-9.49h14.5c5.24,0,9.49,4.25,9.49,9.49v66.91c0,5.24-4.25,9.49-9.49,9.49h-66.91c-5.24,0-9.49-4.25-9.49-9.49Z"/>
</svg>