<?xml version="1.0" encoding="UTF-8"?>
<svg id="Ebene_1" data-name="Ebene 1" xmlns="http://www.w3.org/2000/svg" version="1.1" viewBox="0 0 335.38 326.49">
  <defs>
    <style>
      .cls-1 {
        fill: #000;
        stroke-width: 0px;
      }
    </style>
  </defs>
  <g>
    <path class="cls-1" d="M61.28,78.52c0,12.05,0,23.63,0,35.22,0,1.16-.04,2.32.01,3.48.16,3.88,2.21,5.99,6.13,6.02,10.67.07,21.35.06,32.02,0,4.3-.02,6.36-2.12,6.37-6.48.05-11.37.02-22.75.02-34.12,0-1.25,0-2.5,0-3.93,1.34-.08,2.35-.18,3.36-.18,14.97-.01,29.93-.02,44.9,0,5.73,0,7.44,1.73,7.44,7.48,0,43.29,0,86.57,0,129.86,0,5.63-1.85,7.49-7.54,7.49-46.99.01-93.98.01-140.97,0-5.63,0-7.44-1.89-7.44-7.59,0-43.29,0-86.57,0-129.86,0-5.57,1.73-7.37,7.2-7.38,16-.02,32,0,48.5,0ZM89.13,153.4c.33-.19.65-.38.98-.57,1.61,1.81,3.12,3.72,4.85,5.4,2.69,2.61,6.08,2.68,8.33.37,2.21-2.27,2.15-5.45-.4-8.07-4.94-5.07-9.94-10.07-15-15.01-2.82-2.75-5.79-2.77-8.58-.05-5.07,4.94-10.06,9.95-15.01,15-2.58,2.63-2.7,5.74-.53,8.07,2.22,2.38,5.6,2.35,8.32-.22,1.81-1.71,3.46-3.6,5.18-5.4.73,6.43.72,12.42.73,18.41.01,4.69,2.02,7.17,5.68,7.11,3.52-.06,5.44-2.49,5.45-6.99.02-6.01,0-12.03,0-18.04ZM83.74,189.83c-3.71,0-7.42-.1-11.13.03-3.4.11-5.64,2.29-5.74,5.29-.1,3,2.02,5.56,5.37,5.64,7.53.19,15.06.19,22.59,0,3.35-.08,5.49-2.63,5.4-5.62-.09-3.01-2.32-5.19-5.72-5.31-3.59-.13-7.18-.03-10.78-.03Z"/>
    <path class="cls-1" d="M228.37,78.52c0,3.72,0,7.06,0,10.4,0,9.28-.03,18.57.02,27.85.02,4.36,2.07,6.45,6.38,6.47,10.56.05,21.12.05,31.67,0,4.47-.02,6.47-2.11,6.48-6.73.03-11.26.01-22.51.01-33.77,0-1.25,0-2.51,0-4,1.25-.09,2.25-.22,3.25-.22,14.97-.01,29.93-.02,44.9,0,5.92,0,7.54,1.68,7.54,7.73,0,43.05,0,86.11,0,129.16,0,6.18-1.71,7.94-7.79,7.94-46.76,0-93.51,0-140.27,0-6.14,0-7.89-1.75-7.89-7.85,0-43.17,0-86.34,0-129.51,0-5.74,1.71-7.48,7.44-7.48,15.89-.02,31.78,0,48.25,0ZM244.11,153.3c.33.18.65.36.98.53,0,6.35-.05,12.69.02,19.04.04,3.58,2.27,5.96,5.39,6.05,3.25.1,5.61-2.36,5.7-6.1.08-3.25.02-6.5.02-9.74,0-3.14,0-6.28,0-9.41.33-.11.65-.22.98-.34,1.72,1.88,3.33,3.88,5.19,5.62,2.62,2.44,5.85,2.34,8.06-.02,2.08-2.22,2.11-5.33-.29-7.82-5.08-5.25-10.24-10.43-15.5-15.49-2.62-2.52-5.44-2.48-8.05.04-5.25,5.08-10.41,10.25-15.49,15.51-2.38,2.46-2.32,5.59-.2,7.81,2.25,2.36,5.4,2.43,8.04-.05,1.85-1.74,3.45-3.75,5.16-5.63ZM250.66,189.83c-3.59,0-7.19-.08-10.78.02-3.58.11-5.92,2.37-5.92,5.48,0,2.98,2.17,5.42,5.56,5.5,7.41.17,14.83.17,22.24,0,3.38-.08,5.57-2.52,5.58-5.48,0-3.12-2.32-5.38-5.9-5.5-3.59-.11-7.18-.02-10.78-.03Z"/>
    <g>
      <polygon class="cls-1" points="199.56 249.26 191.98 270.65 207.28 270.65 199.67 249.26 199.56 249.26"/>
      <path class="cls-1" d="M135.75,251.76c-1.1-1.29-2.39-2.27-3.87-2.94s-3.06-1-4.73-1c-2.25,0-4.3.61-6.15,1.83-1.87,1.26-3.33,3.05-4.37,5.39-1.06,2.39-1.59,5.25-1.59,8.57,0,2.41.37,4.82,1.11,7.22.74,2.39,2,4.43,3.8,6.12,1.78,1.67,4.18,2.51,7.2,2.51,1.58,0,3.15-.33,4.69-1,1.42-.66,2.69-1.66,3.8-2.99,1.15-1.38,2.01-3.04,2.59-4.96.61-1.96.94-4.26,1-6.9,0-2.52-.32-4.82-.94-6.9-.56-1.89-1.4-3.54-2.54-4.96Z"/>
      <path class="cls-1" d="M334.19,241.15c-.01-5.24-1.9-7.16-7.11-7.16-106.63,0-213.26,0-319.89,0-5.25,0-7.17,1.9-7.18,7.09-.02,10.1-.02,34.19,0,44.29.01,5.25,1.9,7.15,7.09,7.18,4.83.02,9.66,0,14.66,0v4.31c0,7.43-.04,14.86.02,22.28.03,4.21,1.87,6.72,5.4,6.76,11.25.14,22.51.13,33.76,0,3.39-.04,5.29-2.32,5.34-6.01.09-5.69.03-11.37.03-17.06,0-3.33,0-6.66,0-10.09h78.5c0,8.99-.03,17.78.01,26.57.02,4.57,2.04,6.62,6.56,6.64,10.44.04,20.89.04,31.33,0,4.57-.02,6.6-2.04,6.64-6.57.05-5.69.01-11.37.01-17.06,0-3.2,0-6.4,0-9.53h83.37c0,8.48,0,16.7,0,24.92,0,6.75,1.47,8.24,8.08,8.25,9.51,0,19.03,0,28.54,0,6.17,0,7.92-1.71,7.93-7.81.02-8.35,0-16.7,0-25.62,3.5,0,6.61.02,9.72,0,5.24-.03,7.15-1.9,7.16-7.11.02-10.1.02-34.19,0-44.29ZM101.91,247.83c-.4.45-.93.67-1.62.67h-7.61v32.69c0,.79-.24,1.4-.73,1.83-.49.43-1.07.65-1.75.65-.59,0-1.15-.22-1.67-.65-.47-.45-.7-1.06-.7-1.83v-32.69h-7.58c-.68,0-1.21-.22-1.59-.67-.4-.41-.62-.94-.67-1.59.05-.65.3-1.19.73-1.62.38-.43.93-.65,1.65-.65h19.72c.77,0,1.37.22,1.78.65.4.49.59,1.02.59,1.62,0,.65-.18,1.18-.54,1.59ZM142.33,273.7c-.65,1.47-1.49,2.83-2.52,4.07-1.03,1.24-2.21,2.31-3.52,3.21-2.54,1.8-5.58,2.7-9.14,2.7-3.25,0-6.19-.83-8.79-2.48-2.7-1.73-4.78-4.08-6.26-7.07-1.51-3.11-2.27-6.57-2.27-10.38,0-3.56.68-6.88,2.05-9.95,1.38-3.06,3.39-5.52,6.02-7.39,2.64-1.85,5.73-2.78,9.25-2.78,2.64,0,5.07.54,7.28,1.62,2.07,1.01,3.86,2.46,5.37,4.37,1.46,1.82,2.57,3.95,3.34,6.39.75,2.34,1.16,4.92,1.21,7.74,0,3.65-.67,6.97-2.02,9.95ZM176.48,247.83c-.4.45-.93.67-1.62.67h-7.61v32.69c0,.79-.24,1.4-.73,1.83-.49.43-1.07.65-1.75.65-.59,0-1.15-.22-1.67-.65-.47-.45-.7-1.06-.7-1.83v-32.69h-7.58c-.68,0-1.21-.22-1.59-.67-.4-.41-.62-.94-.67-1.59.05-.65.3-1.19.73-1.62.38-.43.93-.65,1.65-.65h19.72c.77,0,1.37.22,1.78.65.4.49.59,1.02.59,1.62,0,.65-.18,1.18-.54,1.59ZM215.44,283.3c-.42.32-.97.49-1.63.49-.52,0-1.02-.14-1.48-.43-.5-.32-.84-.78-1-1.38l-2.59-7.12h-18.23l-2.59,7.12c-.34,1.13-1.18,1.7-2.51,1.7-.65,0-1.16-.16-1.54-.49-.43-.38-.67-.85-.73-1.43.05-.25.12-.49.19-.73.02-.13.07-.33.16-.62l12.71-33.96c.34-.99.8-1.71,1.38-2.16.63-.52,1.29-.78,2-.78.76,0,1.43.24,2.02.73.56.43,1.03,1.13,1.4,2.1l12.87,34.07c.14.56.22,1.04.22,1.46,0,.63-.21,1.11-.63,1.43ZM243.12,282.92c-.52.29-.94.43-1.27.43h-13.25c-.59,0-1.12-.22-1.56-.67-.47-.36-.7-1.11-.7-2.27v-34.18c0-.88.23-1.53.7-1.94.49-.45,1.08-.67,1.78-.67,1.55,0,2.32.94,2.32,2.83v32.37h9.95c.76,0,1.41.19,1.97.57.56.38.84.91.84,1.59,0,.99-.26,1.64-.78,1.94Z"/>
    </g>
    <path class="cls-1" d="M133.69.02c0,10.71,0,21.02,0,31.32,0,5.92,1.74,7.65,7.66,7.66,17.28,0,34.56.01,51.84,0,5.47,0,7.32-1.85,7.33-7.28.02-10.42,0-20.84,0-31.5,1.22-.08,2.22-.2,3.22-.2,15.08-.01,30.15-.02,45.23,0,5.4,0,7.24,1.88,7.25,7.37.01,17.4.01,34.8,0,52.2,0,5.43-1.87,7.27-7.34,7.27-54.51,0-109.02,0-163.53,0-5.48,0-7.35-1.84-7.36-7.25-.01-17.63-.02-35.26,0-52.9,0-4.16,1.86-6.61,5.48-6.63,16.57-.1,33.14-.05,50.21-.05Z"/>
    <path class="cls-1" d="M189.22.2v27.41h-44.17V.2h44.17Z"/>
    <path class="cls-1" d="M94.55,78.7v33.13h-21.88v-33.13h21.88Z"/>
    <path class="cls-1" d="M261.69,78.79v33.09h-21.96v-33.09h21.96Z"/>
  </g>
  <g>
    <path class="cls-1" d="M63.9,209.89h-2.46v-.89h5.98v.89h-2.47v7.2h-1.06v-7.2Z"/>
    <path class="cls-1" d="M74.91,212.96c0,2.78-1.69,4.26-3.75,4.26s-3.63-1.65-3.63-4.1,1.6-4.25,3.75-4.25,3.63,1.69,3.63,4.09ZM68.64,213.09c0,1.73.94,3.27,2.58,3.27s2.59-1.52,2.59-3.36c0-1.61-.84-3.29-2.58-3.29s-2.59,1.59-2.59,3.37Z"/>
    <path class="cls-1" d="M77.51,209.89h-2.46v-.89h5.98v.89h-2.47v7.2h-1.06v-7.2Z"/>
    <path class="cls-1" d="M82.35,214.54l-.84,2.54h-1.08l2.75-8.08h1.26l2.76,8.08h-1.12l-.86-2.54h-2.87ZM85,213.72l-.79-2.33c-.18-.53-.3-1.01-.42-1.48h-.02c-.12.48-.25.97-.41,1.46l-.79,2.34h2.43Z"/>
    <path class="cls-1" d="M88.38,209h1.04v7.21h3.45v.88h-4.5v-8.08Z"/>
    <path class="cls-1" d="M96.59,209h4.35v.88h-3.31v2.69h3.06v.86h-3.06v3.66h-1.04v-8.08Z"/>
    <path class="cls-1" d="M102.43,209.11c.53-.11,1.28-.17,2-.17,1.12,0,1.83.2,2.34.66.41.36.64.91.64,1.54,0,1.07-.67,1.77-1.52,2.06v.04c.62.22,1,.79,1.19,1.63.26,1.13.46,1.91.62,2.22h-1.08c-.13-.23-.31-.92-.54-1.93-.24-1.12-.67-1.54-1.62-1.57h-.98v3.5h-1.04v-7.98ZM103.48,212.79h1.07c1.12,0,1.82-.61,1.82-1.54,0-1.04-.76-1.5-1.86-1.51-.5,0-.86.05-1.03.1v2.95Z"/>
    <path class="cls-1" d="M113.08,213.29h-3.14v2.92h3.5v.88h-4.55v-8.08h4.37v.88h-3.32v2.55h3.14v.86Z"/>
    <path class="cls-1" d="M115.84,209v8.08h-1.04v-8.08h1.04Z"/>
    <path class="cls-1" d="M123.82,216.72c-.47.17-1.39.44-2.48.44-1.22,0-2.23-.31-3.02-1.07-.7-.67-1.13-1.75-1.13-3.01.01-2.41,1.67-4.17,4.38-4.17.94,0,1.67.2,2.01.37l-.25.85c-.43-.19-.97-.35-1.79-.35-1.97,0-3.25,1.22-3.25,3.25s1.24,3.26,3.12,3.26c.68,0,1.15-.1,1.39-.22v-2.41h-1.64v-.84h2.66v3.89Z"/>
    <path class="cls-1" d="M126.46,209v3.38h3.91v-3.38h1.05v8.08h-1.05v-3.79h-3.91v3.79h-1.04v-8.08h1.04Z"/>
    <path class="cls-1" d="M134.77,209.89h-2.46v-.89h5.98v.89h-2.47v7.2h-1.06v-7.2Z"/>
  </g>
</svg>