<?xml version="1.0" encoding="UTF-8"?>
<svg id="Ebene_1" data-name="Ebene 1" xmlns="http://www.w3.org/2000/svg" version="1.1" viewBox="0 0 335.38 326.49">
  <defs>
    <style>
      .cls-1 {
        fill: #000;
        stroke-width: 0px;
      }
    </style>
  </defs>
  <path class="cls-1" d="M333.81,205.76c-12.59-16.76-25.2-33.5-37.7-50.33-1.39-1.88-2.84-2.57-5.16-2.54-11.63.11-23.25.05-34.88.05h-3.48v-55.51c-1.31,0-2.35,0-3.4,0-26.34,0-52.68,0-79.02,0-.28,1.45-.6,2.89-.96,4.34-8.97,36.37-38.08,63.51-75.12,70-3.28.57-6.6.93-9.9,1.38h-11.33c-.47-.1-.94-.26-1.41-.29-8.12-.54-16.06-2.04-23.67-4.9-6.24-2.34-12.02-5.08-17.35-8.19-.02,38.38-.02,76.76-.02,115.14,0,.87.09,1.74.15,2.9,7.38,0,14.61,0,21.84,0,.8,0,1.6.1,2.38-.02,2.67-.4,3.52.63,3.66,3.38,1.18,23.35,24.17,41.7,47.22,37.83,20.54-3.45,34.37-18.73,35.7-39.44.03-.48.14-.94.24-1.57h82.05c1.86,6.29,2.94,12.52,5.49,18.08,7.87,17.1,27.03,26.34,45.57,22.59,18.26-3.69,31.98-19.39,33.08-38.04.13-2.16.74-2.88,2.97-2.86,8.34.07,16.68-.07,25.03-.13v-69.78c-.66-.69-1.41-1.33-1.98-2.09ZM99.96,298.59c-11.5.09-20.84-9.15-20.91-20.67-.07-11.44,9.28-20.83,20.76-20.83,11.48,0,20.79,9.33,20.75,20.83-.04,11.39-9.2,20.59-20.6,20.67ZM265.92,298.58c-11.54-.26-20.56-9.73-20.26-21.27.3-11.4,9.79-20.51,21.04-20.19,11.67.33,20.79,9.77,20.41,21.13-.39,11.72-9.65,20.6-21.2,20.33ZM252.65,208.31v-34.52c5.32,0,10.46,0,15.61,0,5.66,0,11.32-.05,16.98.05.96.02,2.26.4,2.8,1.08,8.72,10.94,17.34,21.95,26.32,33.39h-61.72Z"/>
  <path class="cls-1" d="M83.24,157.93h-9.48c-.39-.08-.79-.22-1.18-.24-6.79-.45-13.45-1.71-19.81-4.1C24.51,142.97,7.33,122.84,1.29,93.27c-.59-2.87-.83-5.82-1.24-8.73,0-3.26,0-6.52,0-9.79.09-.44.21-.88.27-1.33.45-3.22.71-6.49,1.37-9.67C10.46,21.5,51.71-5.63,94.06,2.94c43.27,8.75,70.92,52.39,60.35,95.23-7.51,30.44-31.88,53.17-62.89,58.6-2.75.48-5.52.78-8.29,1.16ZM78.37,89.73c.42.4.79.73,1.15,1.08,6.2,6.19,12.4,12.39,18.6,18.58,1.95,1.94,3.84,3.95,5.86,5.81,4.09,3.77,10.58,1.79,11.83-3.59.65-2.78-.35-5.07-2.33-7.05-7.94-7.92-15.85-15.86-23.78-23.78-.39-.39-.96-.6-1.79-1.11.93-.69,1.39-.95,1.75-1.31,7.18-7.16,14.35-14.33,21.52-21.5,1.01-1.01,2.06-1.98,3-3.05,3.53-4.03,1.6-10.19-3.59-11.52-2.85-.73-5.19.2-7.21,2.22-7.92,7.93-15.85,15.86-23.78,23.78-.38.38-.79.74-1.48,1.37-.4-.56-.67-1.08-1.06-1.47-7.81-7.83-15.65-15.63-23.45-23.46-1.99-2-4.31-2.89-7.07-2.23-2.64.63-4.39,2.32-5.15,4.92-.8,2.74-.05,5.13,1.95,7.13,7.92,7.93,15.86,15.85,23.79,23.77.39.39.75.79,1.28,1.35-4.44,4.39-8.84,8.71-13.2,13.06-4.12,4.1-8.25,8.18-12.29,12.35-3.71,3.83-2.21,10.01,2.78,11.65,2.96.97,5.49.13,7.66-2.05,7.92-7.94,15.85-15.86,23.78-23.78.39-.39.8-.76,1.25-1.19Z"/>
</svg>