<?xml version="1.0" encoding="UTF-8"?>
<svg id="Ebene_1" data-name="Ebene 1" xmlns="http://www.w3.org/2000/svg" version="1.1" viewBox="0 0 335.38 326.49">
  <defs>
    <style>
      .cls-1 {
        fill: #000;
        stroke-width: 0px;
      }
    </style>
  </defs>
  <path class="cls-1" d="M51.29,159.43h30.92c-5.18-14.84-10.27-29.42-15.49-44.35-5.22,14.99-10.3,29.61-15.43,44.35Z"/>
  <path class="cls-1" d="M155.81,123.48h30.75c-5.12-14.48-10.19-28.81-15.38-43.47-5.19,14.66-10.26,29-15.38,43.47Z"/>
  <path class="cls-1" d="M333.23,169.96c-13.83-18.4-27.67-36.8-41.41-55.27-1.53-2.06-3.12-2.82-5.66-2.79-12.77.13-25.54.06-38.31.06h-3.82v-60.96c-1.44,0-2.58,0-3.73,0-69.31,0-138.61,0-207.92,0-15.8,0-27.03,8.16-31.17,22.79-.82,2.89-1.12,6.02-1.13,9.04C.01,137.19.03,191.55.03,245.9c0,.96.1,1.91.17,3.19,8.11,0,16.05,0,23.98,0,.87,0,1.76.11,2.62-.02,2.93-.44,3.86.69,4.02,3.71,1.29,25.64,26.55,45.8,51.86,41.55,22.56-3.79,37.75-20.57,39.21-43.32.03-.52.15-1.04.26-1.73h90.11c2.04,6.9,3.22,13.75,6.03,19.85,8.64,18.78,29.68,28.93,50.05,24.81,20.06-4.05,35.12-21.3,36.33-41.77.14-2.38.82-3.16,3.26-3.14,9.16.08,18.32-.08,27.48-.14v-76.64c-.73-.76-1.55-1.46-2.18-2.29ZM76.41,271.91c-12.63.09-22.88-10.04-22.97-22.7-.08-12.57,10.19-22.87,22.8-22.88,12.61,0,22.83,10.25,22.79,22.87-.04,12.51-10.11,22.61-22.62,22.71ZM197.23,136.68c-3.55,10.19-13.5,17.54-24.33,17.96-12.43.48-23.15-6.07-27.36-16.9-.89-2.28-1.41-4.76-1.67-7.2-.18-1.62.12-3.42.67-4.98,5.97-17.09,12.02-34.16,18.05-51.23.15-.43.26-.87.46-1.55-3.23.98-6.26,1.9-9.28,2.83-6.21,1.92-12.41,3.88-18.62,5.77-.9.27-1.3.67-1.51,1.61-1.05,4.86-3.88,8.38-8.37,10.48-.99.46-1.2,1.02-1.2,2,.03,9.92.02,19.84.02,29.77,0,24.03,0,48.06,0,72.09v2.21h1.95c10.85,0,21.7,0,32.56,0,3.11,0,5.27,1.98,5.32,4.82.05,2.69-1.9,4.88-4.58,5.12-.31.03-.62.02-.93.02-26.2,0-52.4,0-78.6,0-3.01,0-5.22-1.76-5.51-4.35-.34-3.02,1.9-5.55,5.04-5.57,6.41-.04,12.82-.01,19.22-.01,4.75,0,9.51,0,14.26,0h1.21c.04-.67.1-1.21.1-1.76,0-34.05,0-68.11.03-102.16,0-1.14-.36-1.67-1.38-2.21-1.49-.78-2.76-1.96-4.17-2.9-.39-.26-1.03-.52-1.41-.38-11.22,4.15-22.43,8.35-33.63,12.55-.09.03-.17.12-.35.26.11.38.21.81.36,1.23,6.58,18.9,13.11,37.82,19.79,56.68,1.24,3.49.94,6.82.05,10.18-3.42,12.9-16.84,21.52-30.08,19.73-12.36-1.67-21.67-10.89-23.54-21.49-.02-.14-.15-.26-.23-.39v-6.51c.71-1.87,1.46-3.72,2.12-5.61,6.66-19.09,13.32-38.18,19.93-57.29.83-2.4,2.28-3.86,4.66-4.74,12.2-4.49,24.36-9.08,36.55-13.58.98-.36,1.29-.83,1.36-1.86.44-6.48,4.56-11.74,10.5-13.57,6.02-1.85,12.25.15,16.28,5.34.67.86,1.21.81,2.08.54,11.92-3.7,23.85-7.37,35.78-11.04,3.62-1.12,6.04.07,7.29,3.6,7.28,20.57,14.63,41.11,21.77,61.73,1.22,3.51.56,7.25-.67,10.79ZM281.96,249.56c-.43,12.87-10.6,22.62-23.28,22.33-12.68-.29-22.58-10.69-22.25-23.36.33-12.52,10.75-22.52,23.11-22.18,12.82.36,22.84,10.73,22.42,23.21ZM244.1,172.75v-37.91c5.84,0,11.49,0,17.14,0,6.22,0,12.44-.05,18.65.05,1.05.02,2.48.44,3.08,1.19,9.57,12.01,19.04,24.11,28.91,36.67h-67.78Z"/>
</svg>