<?xml version="1.0" encoding="utf-8"?>
<!-- Generator: Adobe Illustrator 25.0.1, SVG Export Plug-In . SVG Version: 6.00 Build 0)  -->
<svg version="1.1" xmlns="http://www.w3.org/2000/svg" xmlns:xlink="http://www.w3.org/1999/xlink" x="0px" y="0px"
	 viewBox="0 0 512 512" style="enable-background:new 0 0 512 512;" xml:space="preserve">
<style type="text/css">
	.st0{fill:none;stroke:#565656;stroke-width:15;stroke-linecap:round;stroke-linejoin:round;stroke-miterlimit:10;}
	.st1{fill:none;stroke:#565656;stroke-width:15;stroke-miterlimit:10;}
	.st2{fill:none;stroke:#565656;stroke-width:15;stroke-linecap:round;stroke-miterlimit:10;}
	.st3{fill:none;stroke:#565656;stroke-width:15;stroke-linecap:round;}
	.st4{fill:#565656;}
	.st5{fill:none;stroke:#565656;stroke-width:15;stroke-linecap:round;stroke-linejoin:round;}
	.st6{fill:none;stroke:#565656;stroke-width:15;stroke-linecap:round;stroke-linejoin:round;stroke-dasharray:24.8533,49.7066;}
	
		.st7{fill:none;stroke:#565656;stroke-width:15;stroke-linecap:round;stroke-linejoin:round;stroke-dasharray:24.8533,49.7066,24.8533,49.7066;}
	.st8{fill:#BABABA;}
	.st9{fill:none;stroke:#2388AE;stroke-width:15;stroke-linecap:round;}
	.st10{fill:none;stroke:#565656;stroke-width:15;stroke-linecap:round;stroke-miterlimit:10;stroke-dasharray:32.1931,42.9241;}
	
		.st11{fill:none;stroke:#565656;stroke-width:15;stroke-linecap:round;stroke-miterlimit:10;stroke-dasharray:32.1931,42.9241,32.1931,42.9241;}
	.st12{fill:none;stroke:#565656;stroke-width:15;stroke-linejoin:round;stroke-miterlimit:10;}
</style>
<g id="Layer_1">
	<g>
		<path class="st0" d="M-5912.9-979c-6.1,9.7-12.2,19.4-18.8,28.8c-31.4,44-69.9,80.1-119.8,102.1c-92.6,40.9-180.1,30.5-261.9-28.5
			c-37.9-27.3-67.1-62.8-91.1-102.6c-1.6-2.7-1.7-7.9-0.1-10.6c30.6-50.7,69.5-93.4,121.7-122.7c38-21.4,78.8-32.8,135.2-32.8
			c64,1.6,128.6,30.8,182,85.2c10.7,10.9,20.2,22.9,29.7,34.9"/>
		<path class="st1" d="M-6158.2-1085.6c54.5-0.1,100.4,45.8,100.4,100.5c0,56.2-45,101.2-101.3,101.2c-55.2,0-100.2-45-100.4-100.4
			C-6259.6-1040.2-6214.4-1085.4-6158.2-1085.6z"/>
		<path class="st2" d="M-6222.6-979.9c0.4-8.5,0.8-17.3,3.4-25.3c8.9-27.5,36.2-45.3,65-43.6"/>
	</g>
	<polyline class="st0" points="-6362.3,-1093.4 -6362.3,-1196.2 -6259.4,-1196.2 	"/>
	<polyline class="st0" points="-6259.4,-767.5 -6362.3,-767.5 -6362.3,-870.4 	"/>
	<polyline class="st0" points="-5961.1,-870.4 -5961.1,-767.5 -6063.9,-767.5 	"/>
	<polyline class="st0" points="-6063.9,-1196.8 -5961.1,-1196.8 -5961.1,-1093.9 	"/>
	<circle class="st1" cx="-5677.9" cy="-1034.9" r="198.6"/>
	<line class="st0" x1="-5381.2" y1="-738.2" x2="-5536.1" y2="-893"/>
	<line class="st3" x1="-5812.1" y1="-1034.1" x2="-5545.1" y2="-1034.1"/>
	<circle class="st1" cx="-5145.9" cy="-1034.9" r="198.6"/>
	<line class="st0" x1="-4849.2" y1="-738.2" x2="-5004.1" y2="-893"/>
	<line class="st3" x1="-5280.1" y1="-1034.1" x2="-5013.1" y2="-1034.1"/>
	<line class="st3" x1="-5678.6" y1="-900.6" x2="-5678.6" y2="-1167.6"/>
	<g>
		<path class="st4" d="M-4700.9-1226.5c10.5,0,19,8.5,19,19v444.1c0,10.5-8.5,19-19,19h-85.7c-10.5,0-19-8.5-19-19v-444.1
			c0-10.5,8.5-19,19-19H-4700.9 M-4700.9-1241.5h-85.7c-18.8,0-34,15.2-34,34v444.1c0,18.8,15.2,34,34,34h85.7c18.8,0,34-15.2,34-34
			v-444.1C-4666.9-1226.3-4682.1-1241.5-4700.9-1241.5L-4700.9-1241.5z"/>
	</g>
	<g>
		<path class="st4" d="M-4342.5-1225.3c10.5,0,19,8.5,19,19v444.1c0,10.5-8.5,19-19,19h-85.7c-10.5,0-19-8.5-19-19v-444.1
			c0-10.5,8.5-19,19-19H-4342.5 M-4342.5-1240.3h-85.7c-18.8,0-34,15.2-34,34v444.1c0,18.8,15.2,34,34,34h85.7c18.8,0,34-15.2,34-34
			v-444.1C-4308.5-1225.1-4323.8-1240.3-4342.5-1240.3L-4342.5-1240.3z"/>
	</g>
	<g>
		<g>
			<line class="st5" x1="-4564.5" y1="-1208.8" x2="-4564.5" y2="-1196.8"/>
			<line class="st6" x1="-4564.5" y1="-1147.1" x2="-4564.5" y2="-1097.4"/>
			<line class="st7" x1="-4564.5" y1="-1072.5" x2="-4564.5" y2="-799.1"/>
			<line class="st5" x1="-4564.5" y1="-774.3" x2="-4564.5" y2="-762.3"/>
		</g>
	</g>
	<line class="st0" x1="-4623.8" y1="-985.5" x2="-4505.3" y2="-985.5"/>
	<polyline class="st0" points="-4615.1,-964.3 -4636.3,-985.5 -4615.1,-1006.8 	"/>
	<polyline class="st0" points="-4518,-1006.8 -4496.8,-985.5 -4518,-964.3 	"/>
	<path class="st4" d="M-4234.7-728.4c-28.6,0-47.6-15.3-53.9-43.1c-0.1-0.7,1.2-342.5,2-345c2-5.8,3.9-11.2,7.2-15.9
		c9.6-14.3,23.9-21.6,42.6-21.6c28.9,0,190.4,0,190.4,0c3.6,0,6.5,0.9,8.4,2.7c1.3,1.3,2,3.2,2,5.4c0,7.3-7.3,8.1-10.4,8.1
		c-30.5,0-156.2,0-188.4,0c-6.3,0-14.4,0.5-21.7,5.3c-10.5,6.7-16.1,16.7-16.6,29.6c-0.1,2.2,0,242.5,0,320.3
		c0,18.5,9.6,32.3,25.8,36.6c3.5,0.9,7.4,1.5,11.6,1.5c64.6,0,277.1,0,318.7,0c22.5,0,37.3-14.7,37.3-37.7c0-32.4,0-157,0-186.9
		c0-2.3,0-4.7,0.5-6.9c0.8-3.4,3.9-5.8,7.6-5.8h0.3c3.6,0.1,6.5,2.4,7.4,5.8c0.5,2,0.7,132.7,0.5,193.3c0,32.4-22,54.1-54.5,54.1
		h-316.8V-728.4z"/>
	<path class="st4" d="M-4102.3-907c-3.1,0-5.3-0.8-6.6-2.4c-1.8-2-2.2-5.5-1.2-10.1c1.2-5.8,2.3-11.6,3.5-17.5
		c3.4-17.3,7-35.1,10.7-52.6c0.7-3.2,2.7-6.7,5.3-9.3c51.7-52,104.5-104.7,155.5-155.6l29.2-29.2c3.2-3.2,6.5-6.5,9.9-9.7
		c7.3-7.2,14.8-14.6,22-22.3c10.4-11.1,22.4-21.7,39.4-24.6h12.7c12.3,2.7,20.9,6.6,27.8,13c10.5,9.6,16.7,22.5,17.3,36.3
		c0.5,13.5-4.3,26.6-13.8,36.7c-8.6,9.2-17.8,18.4-26.7,27c-3.6,3.6-7.3,7.3-10.9,10.9l-47,47c-46.7,46.7-94.9,94.9-142.3,142.4
		c-3.2,3.2-6.7,5.1-11.2,5.9c-17.8,3.4-35.9,7-53.3,10.7l-15.5,3.1C-4099.5-907.1-4100.9-907-4102.3-907z M-4062.3-1005.2
		c-14.4,14.2-21.3,27-22.9,42.6c-0.8,7.4-7.2,37-7.2,37s4.9-0.5,5.3-0.7c0.9-0.1,38.6-7.4,51-10.1c3.4-0.7,7-2.7,9.4-5.1
		c53.9-53.6,108.4-108.2,161.1-161.2l25.1-25.4l-50.1-49.8C-3890.4-1177.7-4020.5-1046.3-4062.3-1005.2z M-3828.7-1224.3
		c-7.3,0-14.2,2.3-19.7,6.7c-6.9,5.5-13.2,11.9-19.3,18c-2.7,2.7-5.4,5.4-8.1,8l-2,1.9l49.8,49.8l7.6-7.7c5-5,10-10,14.8-15
		c1.5-1.5,3-3,4.3-4.7c10.9-13.6,10.1-33.3-1.9-46C-3809.8-1220.2-3819.1-1224.3-3828.7-1224.3z"/>
	<path class="st4" d="M-3323.4-976.9c5.3,0,9.5-4.3,9.5-9.5s-4.3-9.5-9.5-9.5c-5.3,0-9.5,4.3-9.5,9.5S-3328.7-976.9-3323.4-976.9z"
		/>
	<path class="st0" d="M-3660.3-795.4l6.3,6.3c11.6,11.6,30.3,11.6,41.9,0l10.6-10.6c13.1,7.2,26.8,13.1,41.1,17.3v14.7
		c0,16.3,13.3,29.6,29.6,29.6h60.5c16.3,0,29.6-13.3,29.6-29.6v-14.7c14.3-4.3,28.1-10.1,41.1-17.3l10.6,10.6
		c11.6,11.6,30.3,11.6,41.9,0l42.8-42.8c11.6-11.6,11.6-30.3,0-41.9l-11.6-11.6c6.7-12.8,12-26.2,15.9-40.1h17.1
		c16.3,0,29.6-13.3,29.6-29.6v-60.5c0-16.3-13.3-29.6-29.6-29.6h0h-19.1c-4.2-13.1-9.6-25.7-16.3-37.8l14-14
		c11.6-11.6,11.6-30.3,0-41.9l-42.8-42.8c-11.6-11.6-30.3-11.6-41.9,0l-15,15c-11.8-6.2-24.1-11.2-36.8-15v-21.4
		c0-16.3-13.3-29.6-29.6-29.6h-60.5c-16.3,0-29.6,13.3-29.6,29.6v21.4c-17.3,5.2-28.9,10.9-36.8,15l-15-15
		c-11.6-11.6-30.3-11.6-41.9,0l-42.8,42.8c-11.6,11.6-11.6,30.3,0,41.9l14,14c-6.7,12-12.1,24.7-16.3,37.8h-19.1
		c-16.3,0-29.6,13.3-29.6,29.6v60.5c0,16.3,13.3,29.6,29.6,29.6h17.1c3.9,13.9,9.2,27.3,16,40.1l-11.6,11.6
		c-11.6,11.6-11.6,30.3,0,41.9l5.9,5.9"/>
	<path class="st0" d="M-3525.1-1116.5L-3525.1-1116.5c-64.4,11.8-111.2,67.9-111.2,133.5c0,74.9,60.9,135.7,135.7,135.7
		s135.7-60.9,135.7-135.7c0-65.7-46.8-121.8-111.4-133.6"/>
	
		<ellipse transform="matrix(6.026211e-03 -1 1 6.026211e-03 -2667.8945 -4656.8232)" class="st4" cx="-3676.4" cy="-986.4" rx="9.5" ry="9.5"/>
	<g>
		<path class="st4" d="M-2923.7-1240.2c3.7,1.5,7.6,2.5,10.9,4.5c10.1,6.3,15.2,15.5,15.3,27.4c0,8.4,0,16.9,0,25.9
			c2.5,0,80.5-0.1,117.5,0c18.7,0,33.6,14.3,34.6,32.5c1.1,19.5-14.1,35.8-33.7,36.4c-2.8,0.1-5.6,0-8.8,0
			c-0.8,8.7-18.5,217.2-21.2,249.2c-0.5,5.9-3.5,8.9-8.1,8.5c-4.7-0.4-7.2-4-6.7-9.9c4.5-52.8,20.7-245.7,20.7-247.8
			c-2.3,0-181.1,0-268.5,0c-1.3,0-2.7,0-4,0c-5.9-0.1-9.2-2.8-9.1-7.6c0-4.7,3.3-7.5,9.3-7.5c42.1,0,237.3,0,292.9,0
			c3.1,0,6.4-0.1,9.3-1.1c8.8-2.8,14.4-12.1,12.9-21.2c-1.5-9.3-9.1-16.3-18.4-16.7c-1.3,0-2.7,0-4,0c-124.1,0-248.1,0-372.2,0
			c-2.8,0-5.7,0.1-8.4,0.9c-9.2,2.7-15.1,11.7-13.9,21.1c1.3,9.5,9.1,16.8,18.7,16.9c14.8,0.3,29.6,0.1,44.4,0.1
			c4.3,0,7.6,1.3,8.7,5.7c1.2,4.9-2.1,9.1-7.7,9.2c-6.9,0.1-13.9,0-21.5,0c0.9,10.9,24.5,289.7,27,323.1
			c0.9,12.7,3.6,24.3,13.1,33.4c8.1,7.9,17.7,12.3,29,12.3c64.4,0.1,128.7,0.1,193.1,0c21.7,0,39.2-16.4,41.4-38.2
			c1.5-14.5,3.9-45.7,4.1-46.6c0.9-4,3.5-6.4,7.7-6.3c4,0.1,7.2,3.2,6.9,7.6c-1.5,17.9-2.1,36-5.2,53.6
			c-4.4,25.7-27.6,44.8-53.7,44.9c-65.2,0.3-130.3,0.3-195.5,0c-28.5-0.1-52.5-22.9-54.9-51.3c-4.4-51.3-27.3-321.7-28.1-332.6
			c-2.7,0-5.3,0-7.9,0c-19.5-0.3-34.6-15.5-34.6-34.5s15.3-34.4,34.6-34.4c36.9-0.1,114.7,0,117.5,0c0-2.5-0.1-20.3,0.1-26.9
			c0.5-14.9,9.5-26,24-30c0.8-0.3,1.5-0.7,2.3-0.9C-2983.6-1240.2-2953.7-1240.2-2923.7-1240.2z M-3024.5-1182.7
			c37.3,0,74.5,0,111.8,0c0-10,0.5-19.7-0.1-29.4c-0.5-7.3-7.7-13.1-15.3-13.1c-26.9-0.1-53.8-0.1-80.7,0c-7.7,0-14.9,5.7-15.3,13.1
			C-3025.1-1202.4-3024.5-1192.6-3024.5-1182.7z"/>
		<path class="st4" d="M-2961.1-826.7c0,8-2.4,11.6-7.7,11.5c-5.1-0.1-7.2-3.5-7.2-11.5c0-70.9,0-141.6,0-212.5
			c0-8,2.5-11.7,7.7-11.5c5.1,0.1,7.2,3.6,7.2,11.5C-2961.1-1003.6-2961.1-861.9-2961.1-826.7z"/>
		<path class="st4" d="M-2872.8-1036.3c-3.6,41.4-15.6,183.9-18,212.5c-0.7,7.3-6.7,11.3-11.6,7.2c-2-1.7-3.3-5.5-3.1-8.1
			c1.1-17.1,16-190.9,18.1-216.1c0.1-1.3,0.3-2.7,0.5-4c1.1-3.9,3.7-6,7.6-5.7c4,0.3,6.4,2.7,6.8,6.7
			C-2872.1-1041.8-2872.5-1039.5-2872.8-1036.3z"/>
		<path class="st4" d="M-3031.5-823.4c0.1,4.5-2.3,7.9-6.8,8.1c-4.8,0.4-7.6-2.7-8.1-8.5c-4.9-57.6-17.2-202.7-18.4-217.6
			c-0.4-5.3,2.3-8.9,6.7-9.3c4.3-0.4,7.6,2.4,8,7.6C-3048.4-1025.2-3033.3-845.4-3031.5-823.4z"/>
	</g>
	<polyline class="st0" points="-2524.1,-1117.8 -2640.1,-1117.8 -2640.1,-1233.8 	"/>
	<path class="st0" d="M-2671-913c31.2,100.3,124.8,173.2,235.4,173.2c136.1,0,246.5-110.4,246.5-246.5s-110.4-246.5-246.5-246.5
		c-84.9,0-159.7,42.9-204.1,108.2"/>
	<path class="st0" d="M-2682.1-986.3c0,5.6,0.2,11.2,0.6,16.7"/>
	<g>
		<path class="st4" d="M-1683.1-867.6c10.5,0,19,8.5,19,19v85.7c0,10.5-8.5,19-19,19h-444.1c-10.5,0-19-8.5-19-19v-85.7
			c0-10.5,8.5-19,19-19H-1683.1 M-1683.1-882.6h-444.1c-18.8,0-34,15.2-34,34v85.7c0,18.8,15.2,34,34,34h444.1c18.8,0,34-15.2,34-34
			v-85.7C-1649.1-867.4-1664.4-882.6-1683.1-882.6L-1683.1-882.6z"/>
	</g>
	<g>
		<path class="st4" d="M-1681.9-1225.9c10.5,0,19,8.5,19,19v85.7c0,10.5-8.5,19-19,19H-2126c-10.5,0-19-8.5-19-19v-85.7
			c0-10.5,8.5-19,19-19H-1681.9 M-1681.9-1240.9H-2126c-18.8,0-34,15.2-34,34v85.7c0,18.8,15.2,34,34,34h444.1c18.8,0,34-15.2,34-34
			v-85.7C-1648-1225.7-1663.2-1240.9-1681.9-1240.9L-1681.9-1240.9z"/>
	</g>
	<g>
		<g>
			<line class="st5" x1="-2128.4" y1="-984.9" x2="-2116.4" y2="-984.9"/>
			<line class="st6" x1="-2066.7" y1="-984.9" x2="-2017" y2="-984.9"/>
			<line class="st7" x1="-1992.1" y1="-984.9" x2="-1718.7" y2="-984.9"/>
			<line class="st5" x1="-1693.9" y1="-984.9" x2="-1681.9" y2="-984.9"/>
		</g>
	</g>
	<line class="st0" x1="-1905.1" y1="-925.6" x2="-1905.1" y2="-1044.2"/>
	<polyline class="st0" points="-1883.9,-934.4 -1905.1,-913.2 -1926.4,-934.4 	"/>
	<polyline class="st0" points="-1926.4,-1031.5 -1905.1,-1052.7 -1883.9,-1031.5 	"/>
	<line class="st0" x1="-1125.4" y1="-1232.8" x2="-1619.8" y2="-738.4"/>
	<line class="st0" x1="-1619.8" y1="-1232.8" x2="-1125.4" y2="-738.4"/>
	<line class="st0" x1="-665.7" y1="-1160.5" x2="-1014.2" y2="-812"/>
	<circle class="st0" cx="-840.5" cy="-985.5" r="247.4"/>
	<g>
		<path class="st4" d="M-444.3-1226.5c10.5,0,19,8.5,19,19v278.2c0,10.5-8.5,19-19,19H-530c-10.5,0-19-8.5-19-19v-278.2
			c0-10.5,8.5-19,19-19H-444.3 M-444.3-1241.5H-530c-18.8,0-34,15.2-34,34v278.2c0,18.8,15.2,34,34,34h85.7c18.8,0,34-15.2,34-34
			v-278.2C-410.3-1226.3-425.5-1241.5-444.3-1241.5L-444.3-1241.5z"/>
	</g>
	<g>
		<path class="st4" d="M-85.9-1225.7c10.5,0,19,8.5,19,19v278.2c0,10.5-8.5,19-19,19h-85.7c-10.5,0-19-8.5-19-19v-278.2
			c0-10.5,8.5-19,19-19H-85.9 M-85.9-1240.7h-85.7c-18.8,0-34,15.2-34,34v278.2c0,18.8,15.2,34,34,34h85.7c18.8,0,34-15.2,34-34
			v-278.2C-52-1225.5-67.2-1240.7-85.9-1240.7L-85.9-1240.7z"/>
	</g>
	<line class="st0" x1="-308" y1="-1157.5" x2="-308" y2="-1013.9"/>
	<polyline class="st0" points="-360.4,-1118.9 -308,-1171.3 -255.5,-1118.9 	"/>
	<g>
		<path class="st4" d="M-265.1-1060.6c10.5,0,19,8.5,19,19v278.2c0,10.5-8.5,19-19,19h-85.7c-10.5,0-19-8.5-19-19v-278.2
			c0-10.5,8.5-19,19-19H-265.1 M-265.1-1075.6h-85.7c-18.8,0-34,15.2-34,34v278.2c0,18.8,15.2,34,34,34h85.7c18.8,0,34-15.2,34-34
			v-278.2C-231.1-1060.4-246.3-1075.6-265.1-1075.6L-265.1-1075.6z"/>
	</g>
	<g>
		<path class="st4" d="M446.1-1226.5c10.5,0,19,8.5,19,19v85.7c0,10.5-8.5,19-19,19H167.9c-10.5,0-19-8.5-19-19v-85.7
			c0-10.5,8.5-19,19-19H446.1 M446.1-1241.5H167.9c-18.8,0-34,15.2-34,34v85.7c0,18.8,15.2,34,34,34h278.2c18.8,0,34-15.2,34-34
			v-85.7C480-1226.3,464.8-1241.5,446.1-1241.5L446.1-1241.5z"/>
	</g>
	<g>
		<path class="st4" d="M445.3-868.2c10.5,0,19,8.5,19,19v85.7c0,10.5-8.5,19-19,19H167.1c-10.5,0-19-8.5-19-19v-85.7
			c0-10.5,8.5-19,19-19H445.3 M445.3-883.2H167.1c-18.8,0-34,15.2-34,34v85.7c0,18.8,15.2,34,34,34h278.2c18.8,0,34-15.2,34-34
			v-85.7C479.2-868,464-883.2,445.3-883.2L445.3-883.2z"/>
	</g>
	<line class="st0" x1="396" y1="-985.5" x2="252.4" y2="-985.5"/>
	<polyline class="st0" points="357.4,-1038 409.8,-985.5 357.4,-933.1 	"/>
	<g>
		<path class="st4" d="M280.2-1047.4c10.5,0,19,8.5,19,19v85.7c0,10.5-8.5,19-19,19H2c-10.5,0-19-8.5-19-19v-85.7
			c0-10.5,8.5-19,19-19H280.2 M280.2-1062.4H2c-18.8,0-34,15.2-34,34v85.7c0,18.8,15.2,34,34,34h278.2c18.8,0,34-15.2,34-34v-85.7
			C314.2-1047.2,298.9-1062.4,280.2-1062.4L280.2-1062.4z"/>
	</g>
	<g>
		<path class="st4" d="M1510.1-1226.5c10.5,0,19,8.5,19,19v444.7c0,10.5-8.5,19-19,19h-444.7c-10.5,0-19-8.5-19-19v-444.7
			c0-10.5,8.5-19,19-19H1510.1 M1510.1-1241.5h-444.7c-18.8,0-34,15.2-34,34v444.7c0,18.8,15.2,34,34,34h444.7c18.8,0,34-15.2,34-34
			v-444.7C1544-1226.3,1528.8-1241.5,1510.1-1241.5L1510.1-1241.5z"/>
	</g>
	<g>
		<line class="st0" x1="1040.4" y1="-1067.3" x2="1530" y2="-1067.3"/>
	</g>
	<line class="st0" x1="1040.4" y1="-903.2" x2="1530" y2="-903.2"/>
	<g>
		<line class="st0" x1="1199" y1="-736.2" x2="1199" y2="-1234.2"/>
	</g>
	<line class="st0" x1="1363.1" y1="-736.2" x2="1363.1" y2="-1234.2"/>
	<g>
		<path class="st4" d="M978.1-1226.5c10.5,0,19,8.5,19,19v444.7c0,10.5-8.5,19-19,19H533.4c-10.5,0-19-8.5-19-19v-444.7
			c0-10.5,8.5-19,19-19H978.1 M978.1-1241.5H533.4c-18.8,0-34,15.2-34,34v444.7c0,18.8,15.2,34,34,34h444.7c18.8,0,34-15.2,34-34
			v-444.7C1012-1226.3,996.8-1241.5,978.1-1241.5L978.1-1241.5z"/>
	</g>
	<g>
		<line class="st0" x1="512" y1="-1067.3" x2="998" y2="-1067.3"/>
	</g>
	<line class="st0" x1="509.4" y1="-903.2" x2="998" y2="-903.2"/>
	<g>
		<path class="st8" d="M-5933.6-417.5h-453.7c-11,0-19.9-8.9-19.9-19.9v-124.4c0-11,8.9-19.9,19.9-19.9h453.7
			c11,0,19.9,8.9,19.9,19.9v124.4C-5913.6-426.4-5922.6-417.5-5933.6-417.5z"/>
		<path class="st0" d="M-6160.4-244.4h-215.3c-18.1,0-32.8-14.9-32.8-33.3v-273.4c0-18.4,14.7-33.3,32.8-33.3h429.8
			c18.1,0,32.8,14.9,32.8,33.3v273.4"/>
		<g>
			<line class="st0" x1="-6404.6" y1="-417.5" x2="-5918.6" y2="-417.5"/>
		</g>
	</g>
	<line class="st9" x1="-6115.7" y1="-200.3" x2="-5935.8" y2="-200.3"/>
	<line class="st9" x1="-6025.7" y1="-110.4" x2="-6025.7" y2="-290.3"/>
	<g>
		<line class="st0" x1="-6236.3" y1="-253.7" x2="-6236.3" y2="-584.7"/>
	</g>
	<line class="st0" x1="-6072.1" y1="-333.7" x2="-6072.1" y2="-584.7"/>
	<circle class="st9" cx="-6025.7" cy="-200.3" r="112.6"/>
	<g>
		<path class="st8" d="M-5709.8-106.4v-453.7c0-11-8.9-19.9-19.9-19.9h-124.4c-11,0-19.9,8.9-19.9,19.9v453.7
			c0,11,8.9,19.9,19.9,19.9h124.4C-5718.7-86.4-5709.8-95.4-5709.8-106.4z"/>
		<path class="st0" d="M-5536.8-333.2v-215.3c0-18.1-14.9-32.8-33.3-32.8h-273.4c-18.4,0-33.3,14.7-33.3,32.8v429.8
			c0,18.1,14.9,32.8,33.3,32.8h273.4"/>
		<g>
			<line class="st0" x1="-5709.8" y1="-577.4" x2="-5709.8" y2="-91.4"/>
		</g>
	</g>
	<line class="st9" x1="-5492.7" y1="-288.5" x2="-5492.7" y2="-108.6"/>
	<line class="st9" x1="-5402.7" y1="-198.5" x2="-5582.7" y2="-198.5"/>
	<g>
		<line class="st0" x1="-5546" y1="-409.1" x2="-5877" y2="-409.1"/>
	</g>
	<line class="st0" x1="-5626" y1="-244.9" x2="-5877" y2="-244.9"/>
	<circle class="st9" cx="-5492.7" cy="-198.5" r="112.6"/>
	<g>
		<path class="st2" d="M-4443.1-452.9v-100.8c0-16.6-13.4-30-30-30h-302.6c-16.6,0-30,13.4-30,30v302.6c0,16.6,13.4,30,30,30h102.9"
			/>
		<path class="st2" d="M-4310.2-221.2v-201.7c0-16.6-13.4-30-30-30h-102.9"/>
		<path class="st2" d="M-4672.7-221.2v103.8c0,16.6,13.4,30,30,30h302.6c16.6,0,30-13.4,30-30v-37.1"/>
		<g>
			<g>
				<polyline class="st2" points="-4443.1,-437.9 -4443.1,-452.9 -4458.1,-452.9 				"/>
				<line class="st10" x1="-4501" y1="-452.9" x2="-4554.6" y2="-452.9"/>
				<path class="st11" d="M-4576.1-452.9h-66.6c-16.6,0-30,13.4-30,30v165.3"/>
				<polyline class="st2" points="-4672.7,-236.2 -4672.7,-221.2 -4657.7,-221.2 				"/>
				<line class="st10" x1="-4614.8" y1="-221.2" x2="-4561.1" y2="-221.2"/>
				<path class="st11" d="M-4539.7-221.2h66.6c16.6,0,30-13.4,30-30v-165.3"/>
			</g>
		</g>
	</g>
	<rect x="-5305" y="-552.6" class="st2" width="434.9" height="434.9"/>
	<circle class="st4" cx="-5305" cy="-552.2" r="39"/>
	<circle class="st4" cx="-4873.4" cy="-552.2" r="39"/>
	<circle class="st4" cx="-5305.3" cy="-120.4" r="39"/>
	<circle class="st4" cx="-4873.7" cy="-120.4" r="39"/>
	<g>
		<path class="st2" d="M-5047.8-374.5v-84c0-16.6-13.4-30-30-30h-136.6c-16.6,0-30,13.4-30,30v136.6c0,16.6,13.4,30,30,30h87.3"/>
		<path class="st2" d="M-4960.5-374.5h-87.3v52.6c0,16.6-13.4,30-30,30h-49.4v84c0,16.6,13.4,30,30,30h136.6c16.6,0,30-13.4,30-30
			v-136.6C-4930.5-361.1-4944-374.5-4960.5-374.5z"/>
	</g>
	<path class="st2" d="M-4280.7-346v-207.8c0-16.6,13.4-30,30-30h357.7c5.2,0,10.3,2.1,14,5.7l88.7,86.8c3.8,3.8,6,8.9,6,14.3v359.5
		c0,16.6-13.4,30-30,30h-436.4c-16.6,0-30-13.4-30-30v-165"/>
	<path class="st1" d="M-4207.8-87.5v-205.1c0-16.6,13.4-30,30-30h288.3c16.6,0,30,13.4,30,30v205.1"/>
	<path class="st1" d="M-3905.4-583.8V-419c0,13.3-10.8,24.1-24,24.1h-230.9c-13.3,0-24-10.8-24-24.1v-164.9"/>
	<path class="st1" d="M-3975.8-439.8L-3975.8-439.8c-11.9,0-21.5-9.6-21.5-21.5v-47.9c0-11.9,9.6-21.5,21.5-21.5l0,0
		c11.9,0,21.5,9.6,21.5,21.5v47.9C-3954.3-449.4-3963.9-439.8-3975.8-439.8z"/>
	<line class="st2" x1="-4171.2" y1="-257" x2="-3905.4" y2="-257"/>
	<line class="st2" x1="-4171.2" y1="-207" x2="-3905.4" y2="-207"/>
	<line class="st2" x1="-4171.2" y1="-157" x2="-3975.8" y2="-157"/>
	<path class="st0" d="M-3253.2-172.9v52.4c0,18.2-14.8,33-33,33h-429.8c-17.7,0-32-14.3-32-32v-430.4c0-18.7,15.3-34,33.9-34h427.9
		c18.2,0,33,14.8,33,33v321"/>
	<g>
		<line class="st0" x1="-3747.7" y1="-456.2" x2="-3258.6" y2="-456.2"/>
	</g>
	<g>
		<line class="st0" x1="-3589.3" y1="-85.5" x2="-3589.3" y2="-456.2"/>
	</g>
	<line class="st0" x1="-3425.3" y1="-85.5" x2="-3425.3" y2="-456.2"/>
	<circle class="st4" cx="-3158.3" cy="-348" r="54.2"/>
	<circle class="st4" cx="-2956.8" cy="-348" r="54.2"/>
	<circle class="st4" cx="-2755.3" cy="-348" r="54.2"/>
	<line class="st2" x1="-2613.2" y1="-421" x2="-2352.8" y2="-421"/>
	<line class="st2" x1="-2613.2" y1="-353.4" x2="-2430.1" y2="-353.4"/>
	<line class="st2" x1="-2613.2" y1="-285.7" x2="-2475.1" y2="-285.7"/>
	<line class="st2" x1="-2613.2" y1="-218" x2="-2475.1" y2="-218"/>
	<path class="st0" d="M-2615.8-86.9h-44.5c-11,0-20-9-20-20v-456.6c0-11,9-20,20-20h135.1"/>
	<line class="st0" x1="-2387.4" y1="-583.5" x2="-2284.7" y2="-480.8"/>
	<g>
		<path class="st0" d="M-2475.1-583.5h87.1c0,0-0.2,52.5,0,82.8c0.1,11,9,19.9,20,19.9h83.2v116.2"/>
		<path class="st12" d="M-2284.8-336.6"/>
		<path class="st12" d="M-2284.8-157.2"/>
		<path class="st0" d="M-2284.8-127.2v20.3c0,11-9,20-20,20h-273.9"/>
		<path class="st12" d="M-2284.8-336.6c-16.7-10.8-36.5-17-57.9-17c-58.9,0-106.7,47.8-106.7,106.7c0,58.9,47.8,106.7,106.7,106.7
			c21.3,0,41.2-6.3,57.9-17"/>
		<path class="st12" d="M-2284.8-157.2c29.4-19,48.9-52.1,48.9-89.7s-19.5-70.7-48.9-89.7"/>
	</g>
	<line class="st0" x1="-2183.3" y1="-87.5" x2="-2266.5" y2="-170.7"/>
	<line class="st2" x1="-2412.9" y1="-290.9" x2="-2274.8" y2="-290.9"/>
	<line class="st2" x1="-2412.9" y1="-247.2" x2="-2274.8" y2="-247.2"/>
	<line class="st2" x1="-2412.9" y1="-204.2" x2="-2274.8" y2="-204.2"/>
	<path class="st12" d="M-1946.6-129.1v-172.2c0-2.9-1-5.6-2.8-7.9l-190.1-231.2c-13.7-16.6-2.9-42.2,18.6-43.2c0.5,0,0.9,0,1.4,0
		h444.1c0.5,0,0.9,0,1.4,0c21.5,1,32.3,26.6,18.6,43.2L-1846-308.7c-1.6,1.9-2.4,4.3-2.4,6.8v116.1c0,3.5-1.7,6.8-4.5,8.9
		l-77.4,56.1C-1937.1-115.9-1946.6-120.7-1946.6-129.1z"/>
	<line class="st0" x1="-2093.5" y1="-489.4" x2="-1856.9" y2="-489.4"/>
	<line class="st0" x1="-1814.4" y1="-489.4" x2="-1787" y2="-489.4"/>
	<g>
		<line class="st2" x1="-1118.6" y1="-463.9" x2="-1478.6" y2="-463.9"/>
		<line class="st2" x1="-1562" y1="-463.9" x2="-1613.8" y2="-463.9"/>
		<path class="st2" d="M-1478.6-463.9c0-23-18.7-41.7-41.7-41.7c-23,0-41.7,18.7-41.7,41.7"/>
		<path class="st2" d="M-1562-463.9c0,23,18.7,41.7,41.7,41.7c23,0,41.7-18.7,41.7-41.7"/>
	</g>
	<g>
		<line class="st2" x1="-1253" y1="-335.9" x2="-1613.8" y2="-335.9"/>
		<line class="st2" x1="-1118.6" y1="-335.9" x2="-1169.6" y2="-335.9"/>
		<path class="st2" d="M-1253-335.9c0,23,18.7,41.7,41.7,41.7c23,0,41.7-18.7,41.7-41.7"/>
		<path class="st2" d="M-1169.6-335.9c0-23-18.7-41.7-41.7-41.7c-23,0-41.7,18.7-41.7,41.7"/>
	</g>
	<g>
		<line class="st2" x1="-1118.6" y1="-207.9" x2="-1325.6" y2="-207.9"/>
		<line class="st2" x1="-1409" y1="-207.9" x2="-1613.8" y2="-207.9"/>
		<path class="st2" d="M-1325.6-207.9c0-23-18.7-41.7-41.7-41.7c-23,0-41.7,18.7-41.7,41.7"/>
		<path class="st2" d="M-1409-207.9c0,23,18.7,41.7,41.7,41.7c23,0,41.7-18.7,41.7-41.7"/>
	</g>
	<path class="st2" d="M-775.9-409.2h100c16.6,0,30,13.4,30,30v259.3c0,16.6-13.4,30-30,32h-333.6c-16.6-2-30-15.4-30-32v-259.3
		c0-16.6,13.4-30,30-30h100"/>
	<line class="st0" x1="-843" y1="-507.9" x2="-843" y2="-244.4"/>
	<polyline class="st0" points="-895.5,-469.3 -843,-521.8 -790.6,-469.3 	"/>
	<g>
		<path class="st0" d="M-241.5-159.3c0,4.9,0,9.7,0,14.6c0,16.5-8.5,22.2-26.4,22.4c-26.7,0.2-52.8,0.2-79.8-0.1
			c-17.7-0.2-26.7-5.7-26.7-21.9c0-66.6,0-200.5,0-200.5c0-2.8-2.3-5.1-5.1-5.1l0,0c-26,0-52,0-77.9,0c-3.8,0-7.4-0.6-9.9-3.9
			c-2.9-3.9-2.5-8.4,1.4-13.2c14.5-18.1,136.4-177.9,156.3-204c1.4-1.8,4.1-1.8,5.5,0C-256-508-197.1-427.8-150-366.9
			c3.7,4.6,4.2,8.6,1.8,12.5c-2.4,3.9-6.2,4.6-10.3,4.6c-25.8,0-77.9,0-77.9,0c-2.8,0-5.1,2.3-5.1,5.1v0.3c0,47.4,0,94.8,0,142.1"/>
	</g>
	<line class="st0" x1="-555.9" y1="-79.9" x2="-60.3" y2="-79.9"/>
	<g>
		<path class="st0" d="M290.5-492.1c0,47.4,0,94.8,0,142.1v0.3c0,2.8,2.3,5.1,5.1,5.1c0,0,52.1,0,77.9,0c4.2,0,7.9,0.7,10.3,4.6
			c2.4,3.9,1.9,7.9-1.8,12.5c-47.1,60.9-106,141.1-154.1,204c-1.4,1.8-4.1,1.8-5.5,0c-19.9-26.1-141.8-185.8-156.3-204
			c-3.8-4.8-4.3-9.3-1.4-13.2c2.5-3.3,6-3.9,9.9-3.9c26,0,52,0,77.9,0l0,0c2.8,0,5.1-2.3,5.1-5.1c0,0,0-133.9,0-200.5
			c0-16.1,9-21.7,26.7-21.9c27-0.2,53.1-0.2,79.8-0.1c17.9,0.1,26.4,5.8,26.4,22.4c0,4.9,0,9.7,0,14.6"/>
	</g>
	<line class="st0" x1="-23.9" y1="-79.9" x2="471.7" y2="-79.9"/>
	<g>
		<path class="st1" d="M592.2-432.7c-22.9,0-41.7-18.7-41.7-41.7c0-22.9,18.7-41.7,41.7-41.7c23.2,0,42,18.4,42.1,41.3
			C634.4-451.6,615.6-432.8,592.2-432.7z"/>
	</g>
	<path class="st2" d="M630.2-347.2v63.8c0,10,8.1,18.1,18.1,18.1l0,0c10,0,18.1-8.1,18.1-18.1v-77.9c0-25.7-20.8-46.5-46.5-46.5
		h-53.5c-25.7,0-46.5,20.8-46.5,46.5v77.9c0,10,8.1,18.1,18.1,18.1h0c10,0,18.1-8.1,18.1-18.1v-63.8"/>
	<path class="st2" d="M625.7-198.7l-0.8,15.2c0,16.6-13.4,30-30,30h-4c-16.6,0-30-13.4-30-30l-5-96.4"/>
	<line class="st2" x1="629.9" y1="-279.9" x2="627.2" y2="-228"/>
	<g>
		<path class="st1" d="M941.8-425.7c-22.9,0-41.7-18.7-41.7-41.7c0-22.9,18.7-41.7,41.7-41.7c23.2,0,42,18.4,42.1,41.3
			C984-444.6,965.2-425.8,941.8-425.7z"/>
	</g>
	<path class="st2" d="M979.8-340.2v63.8c0,10,8.1,18.1,18.1,18.1h0c10,0,18.1-8.1,18.1-18.1v-77.9c0-25.7-20.8-46.5-46.5-46.5H916
		c-25.7,0-46.5,20.8-46.5,46.5v77.9c0,10,8.1,18.1,18.1,18.1h0c10,0,18.1-8.1,18.1-18.1v-63.8"/>
	<path class="st2" d="M975.2-191.7l-0.8,15.2c0,16.6-13.4,30-30,30h-4c-16.6,0-30-13.4-30-30l-5-96.4"/>
	<line class="st2" x1="979.4" y1="-272.9" x2="976.7" y2="-221"/>
	<line class="st0" x1="825.3" y1="-309.9" x2="706.7" y2="-309.9"/>
	<polyline class="st0" points="800.7,-347 837.8,-309.9 800.7,-272.9 	"/>
	<polyline class="st0" points="735.3,-272.9 698.2,-309.9 735.3,-347 	"/>
	<path class="st1" d="M1075.6-77.2c-4.5,0-7.6-1.2-9.6-3.5c-2.5-2.9-3.1-8-1.8-14.6c1.8-8.4,15.2-76.2,20.5-101.6
		c1-4.7,3.9-9.8,7.6-13.5c74.8-75.2,303-302.6,313.3-313.7c15-16,32.4-31.4,57-35.6h18.4c17.8,3.9,30.3,9.6,40.2,18.8
		c15.2,13.9,24.2,32.6,25,52.5c0.8,19.5-6.3,38.5-19.9,53.1c-12.5,13.3-259.8,260.2-328.3,328.9c-4.7,4.7-9.8,7.4-16.2,8.6
		C1156.1-92.8,1077.6-77.2,1075.6-77.2z"/>
	<line class="st1" x1="1387.1" y1="-502.5" x2="1487.2" y2="-400.2"/>
	<path class="st2" d="M-5912.3,422.1v24.5c0,21.8-17.7,39.5-39.5,39.5h-278.4c-21.8,0-39.5-17.7-39.5-39.5V104.1
		c0-21.8,17.7-39.5,39.5-39.5h278.4c21.8,0,39.5,17.7,39.5,39.5v245.3"/>
	<path class="st2" d="M-6307.6,412h-61.2c-21.8,0-39.5-17.7-39.5-39.5V30c0-21.8,17.7-39.5,39.5-39.5h278.4
		c21.8,0,39.5,17.7,39.5,39.5"/>
	<line class="st2" x1="-6203.1" y1="159.3" x2="-5975" y2="159.3"/>
	<line class="st2" x1="-6203.1" y1="243.1" x2="-5975" y2="243.1"/>
	<line class="st2" x1="-6203.1" y1="327" x2="-5975" y2="327"/>
	<line class="st2" x1="-6203.1" y1="410.8" x2="-5975" y2="410.8"/>
	<g>
		<path class="st0" d="M-5722,101.7c30.5-12.6,64.5-19.3,107.5-19.3c64,1.6,128.6,30.8,182,85.2c10.7,10.9,20.2,22.9,29.7,34.9"/>
		<path class="st0" d="M-5524.4,382.3c-90.3,37.7-175.8,26.5-255.8-31.2c-37.9-27.3-67.1-62.8-91.1-102.6c-1.6-2.7-1.7-7.9-0.1-10.6
			c25.3-42,56.4-78.5,95.9-106.4"/>
		<path class="st0" d="M-5379.5,248.7c-6.1,9.7-12.2,19.4-18.8,28.8c-21.1,29.5-45.3,55.5-74.1,76"/>
		<path class="st2" d="M-5574.7,330.3c-15,8.6-32.4,13.6-51,13.6c-55.2,0-100.2-45-100.4-100.4c-0.1-18.8,5-36.4,13.8-51.4
			 M-5672.7,154.2c14.2-7.6,30.5-11.9,47.9-12c54.5-0.1,100.4,45.8,100.4,100.5c0,18.1-4.7,35.1-12.9,49.7"/>
	</g>
	<line class="st0" x1="-5379.9" y1="486.7" x2="-5876" y2="-9.4"/>
	<path class="st0" d="M-5039.3,387.9c0,3.5-1.7,6.8-4.5,8.9l-77.4,56.1c-6.8,4.9-16.3,0.1-16.3-8.3V272.4c0-2.9-1-5.6-2.8-7.9
		l-190.1-231.2c-13.7-16.6-2.9-42.2,18.6-43.2c0.5,0,0.9,0,1.4,0h444.1c0.5,0,0.9,0,1.4,0c21.5,1,32.3,26.6,18.6,43.2l-74.1,90.1"/>
	<line class="st0" x1="-5284.4" y1="84.2" x2="-5047.9" y2="84.2"/>
	<line class="st0" x1="-5005.3" y1="84.2" x2="-4978" y2="84.2"/>
	<circle class="st1" cx="-4960.4" cy="266.3" r="118.8"/>
	<line class="st3" x1="-5016.7" y1="323.4" x2="-4903.8" y2="210.6"/>
	<line class="st3" x1="-4903.8" y1="323.4" x2="-5016.7" y2="210.6"/>
	
		<text transform="matrix(1 0 0 1 -4774.7935 216.4063)" class="st4" style="font-family:'ArialRoundedMTBold'; font-size:61.8146px;">FUZZY</text>
	<path class="st2" d="M-4620.2,291.3c-16.1,8.8-34.6,13.8-54.3,13.8c-62.7,0-113.6-50.8-113.6-113.6s50.8-113.6,113.6-113.6
		c62.7,0,113.6,50.8,113.6,113.6c0,29.9-11.6,57.1-30.5,77.4"/>
	<line class="st0" x1="-4796.3" y1="404.2" x2="-4729.9" y2="296.6"/>
	<path class="st2" d="M-4572.9,361.5c-7.8-3.8-13.9-9.4-18.1-16.6c-4.9-8.2-7.3-17.3-7.6-26.8"/>
	<path class="st2" d="M-4523.6,98v273.2c0,29.3-28.8,53.1-64.3,53.1c-35.5,0-64.3-23.8-64.3-53.1c0-11.7,4.6-22.6,12.4-31.3"/>
	<path class="st0" d="M-4369.2,357.1c-5.8,2.8-12.3,4.4-19,4.4c-2.3,0-7.9,0-7.9,0c0.7,3.1,1.1,6.3,1.1,9.6
		c0,29.3-28.8,53.1-64.3,53.1c-35.5,0-64.3-23.8-64.3-53.1"/>
	<path class="st0" d="M-4345.7,333c4-8.1,6.3-17.6,6.3-27.6c0-14.4-4.7-27.6-12.5-37.5l-3.7-2.5c26,0,47-23.1,47-51.7
		c0-16.9-7.3-31.8-18.7-41.3"/>
	<path class="st0" d="M-4348.4,182.5c19.3-4.5,33.5-20.3,33.5-39.2c0-22.4-19.9-40.5-44.5-40.5l-2.8,1.3c9.4-11.2,10-29.3,0.3-44.1
		c-11.5-17.5-32.9-23.7-47.9-13.9"/>
	<path class="st0" d="M-4419,66.3c5.2-7.4,8.1-16.2,8.1-25.5c0-27.2-25.2-49.3-56.4-49.3s-56.4,22.1-56.4,49.3v26.5"/>
	<path class="st0" d="M-4636.4,40.8c0-27.2,25.2-49.3,56.4-49.3s56.4,22.1,56.4,49.3"/>
	<circle class="st0" cx="-4463.2" cy="80.4" r="14.9"/>
	<circle class="st0" cx="-4407.3" cy="122.2" r="14.9"/>
	<circle class="st0" cx="-4407.3" cy="303" r="14.9"/>
	<circle class="st0" cx="-4463.2" cy="346.2" r="14.9"/>
	<path class="st0" d="M-4523.6,131.9c0,0,59.5,14.8,60.5-36.6"/>
	<path class="st0" d="M-4519.8,186.2c0,0,111.5,7.6,112.5-43.8"/>
	<path class="st0" d="M-4523.6,294c0,0,59.5-14.8,60.5,36.6"/>
	<path class="st0" d="M-4519.8,239.8c0,0,111.5-7.6,112.5,43.8"/>
	<circle class="st4" cx="-4463.2" cy="33.8" r="7.5"/>
	<circle class="st4" cx="-4430.6" cy="213" r="7.5"/>
	<circle class="st4" cx="-4386.4" cy="213" r="7.5"/>
	<circle class="st4" cx="-4463.2" cy="392.6" r="7.5"/>
	<g>
		<path class="st2" d="M-4222.8,180.6c0.8-1.3,2-2.5,3.1-3.6c12.8-12.8,25.7-25.7,38.5-38.5c10.9-10.9,24.8-10,34.8,1.6
			c7.7,8.9,11.7,19.3,12.8,31c1.1,12.3,8.6,18.1,21,16.3c18-2.5,34.6-19.9,36.4-38c1.1-10.7-4.8-18.1-15.6-19
			c-12.5-1.1-23.6-5.4-33-13.9c-10.1-9-11.1-23.3-1.6-32.8c28.2-28.5,56.7-56.8,85.1-85.1c9.9-9.8,21.7-9.4,31.8,0.7
			c27.1,27.1,54.3,54.3,81.4,81.4c6.3,6.3,8.9,6.4,13.5-1c3.3-5.3,6.5-11.6,6.9-17.6c1.2-26.4,23-38.8,48.3-31.6
			c23.6,6.8,42.1,30,43.4,54.5c0.8,17.1-10.5,31.5-27.5,34c-8.9,1.3-17.8,2.4-25.1,8.6c-5.5,4.8-5.8,6.8-0.5,12.1
			c26.3,26.3,52.7,52.6,78.8,79.1c4.3,4.5,7.4,10.2,10.9,15.4c0.1,2.8,0.1,5.3,0.1,7.8c-2.3,8.3-8.8,13.5-14.6,19.3
			c-3.5,3.5-6.9,7.1-10.6,10.5"/>
		<path class="st2" d="M-3828.3,295.4c-1,1.8-2.5,3.4-4,4.8c-11.7,11.7-23.9,22.9-35,35.2c-12.9,14.2-31,13.9-42.7-5.9
			c-4.5-7.6-7-15.7-7.8-24.5c-1.1-12.1-8.6-17.7-20.7-16c-18.4,2.7-34.7,19.7-36.6,38.2c-1.1,10.4,5.1,17.8,15.8,18.8
			c12.4,1.1,23.3,5.4,32.7,13.6c10,8.9,11.2,22.5,2.2,32.6c-5.4,5.9-11.2,11.5-16.9,17.1c-21.7,21.7-43.2,43.5-65.1,64.9
			c-4.3,4.2-10,7.1-15.1,10.6c-2.8-0.1-5.3-0.1-7.8-0.1c-5.1-3.5-10.9-6.3-15.1-10.6c-26.4-26-52.6-52.3-78.7-78.5
			c-6-6-8.2-5.9-13.7,0.8c-4.1,5.1-6.6,10.9-6.8,17.1c-0.2,26.2-21.9,39.5-48,32.2c-23.6-6.6-42.2-30.1-43.3-54.5
			c-0.7-17.7,10.2-31.5,27.8-34c8.4-1.2,16.9-2.4,23.7-8c6.5-5.2,6.6-7.2,0.8-13c-27.2-27.2-54.4-54.5-81.7-81.7
			c-6.4-6.4-9.5-13.7-6.5-22.7c1.2-3.4,3.4-6.5,5.9-9.2c5.2-5.7,10.7-11,16.3-16.4"/>
	</g>
	<path class="st0" d="M-3214.9,140.6l245.3,245.3l245.3-245.3"/>
	<g>
		<path class="st0" d="M-3745.6,314.7c38.2,38.2,76.3,76.5,114.5,114.7c1.4,1.4,2.7,3.1,4.5,5.1c2-1.9,3.6-3.3,5.1-4.9
			c121.9-122.1,243.7-244.2,365.5-366.3"/>
	</g>
	<g>
		<path class="st0" d="M-2286.3,42.9c-27.6-18.6-57.5-31.3-89.9-37.9c-131.8-26.7-261,57.2-289.5,188.8
			c-15.4,71.2-2.2,137.4,39.4,197.4c3.9,5.6,4.9,10.6,2.9,17.1c-4.5,15.4-8.4,31.1-12.6,46.4c-0.4,1.4-0.6,2.9-1.1,5.3
			c9.9-2.7,19.2-5,28.4-7.6c8-2.1,15.9-4.1,23.6-6.6c6.3-2,11.3-0.7,16.5,3.1c22.7,16.5,47.6,28.5,74.4,36.1
			c139.7,39.3,282.1-46.2,310.8-188.7c13.3-66.3,0.8-128-35.7-184.9c-0.7-1.1-1.5-2.4-2.2-3.5"/>
	</g>
	<path class="st2" d="M-2531.2,179.9c-0.3-24.1,9.2-47,26.9-64.8c17.8-18,42.2-28.4,67.1-28.4c0.4,0,0.8,0,1.4,0
		c54.7,0.8,93.7,46.3,92.9,108.3c-0.8,28.3-18.3,57.6-47,78.6c-32,23.5-36.4,48-36.9,64.3"/>
	<path class="st4" d="M-2426.5,417.4c-2.8,0-5.4-1.1-7.4-3.2c-2-2-3.1-4.6-3.1-7.3c0-5.5,5-10.5,10.5-10.5
		c5.7,0.1,10.5,4.9,10.5,10.6C-2416.1,412.9-2420.6,417.4-2426.5,417.4L-2426.5,417.4z"/>
	<g>
		<path class="st0" d="M-2063.1,164.8l-35.9,0c-21.1,0-38.3,17.1-38.3,38.3v255.8c0,21.1,17.1,38.3,38.3,38.3h71.8
			c21.1,0,38.3-17.1,38.3-38.3V259.6l0-45.8c1.2-0.2,49-13.3,67.3-44.5c16.1-23.2,21.8-51.1,24.9-79.2c2-18.5,1.6-37.2,2.2-55.8
			c0.1-2.6,0-5.3,0.4-7.8c1.8-11,12.4-17.5,22.8-13.4c31.3,12.2,51.2,34.8,57.8,67.7c2.5,12.5,1.6,25.7,2.2,38.6"/>
		<path class="st0" d="M-1803.7,175.6h125.1c19.3,0,35,15.7,35,35"/>
		<path class="st0" d="M-1734.9,247.8h49.5c19.3,0,35,15.7,35,35v5.9c0,19.3-15.7,35-35,35h-49.8"/>
		<path class="st0" d="M-1689.8,323.8c17.6,0,31.9,15.7,31.9,35v5.9c0,19.3-14.3,35-31.9,35h-41.4"/>
		<path class="st0" d="M-1761.3,400.1h44.9c17.5,0,31.7,13.3,31.7,29.6v5c0,16.4-14.2,29.6-31.7,29.6h-231.1"/>
	</g>
	<g>
		<path class="st0" d="M-1430.8,390.9c69.6-47.5,138.4-94.4,207.9-141.7c-69.7-47.5-138.4-94.3-207.9-141.7
			C-1430.8,202.4-1430.8,296.1-1430.8,390.9z"/>
	</g>
	<circle class="st1" cx="-1357.4" cy="256.4" r="247.4"/>
	<circle class="st1" cx="-829.7" cy="256.4" r="247.4"/>
	<path class="st0" d="M-758.6,109.9L-904.7,256l146.1,146.1"/>
	<polyline class="st0" points="-109.5,331 -56.1,331 -56.1,277.7 	"/>
	<path class="st0" d="M-41.9,425.3C-56.3,471.5-99.3,505-150.2,505c-62.7,0-113.4-50.8-113.4-113.4s50.8-113.4,113.4-113.4
		c39.1,0,73.5,19.7,93.9,49.8"/>
	<g>
		<path class="st0" d="M-194.6,256V40.7c0-18.1-14.9-32.8-33.3-32.8h-273.4c-18.4,0-33.3,14.7-33.3,32.8v429.8
			c0,18.1,14.9,32.8,33.3,32.8h273.4"/>
		<g>
			<line class="st0" x1="-367.6" y1="11.8" x2="-367.6" y2="497.9"/>
		</g>
	</g>
	<polyline class="st0" points="-153.5,323.8 -153.5,398.2 -104.5,398.2 	"/>
</g>
<g id="Einstellungen">
	<polygon class="st0" points="-6284.5,-1867.8 -6408.1,-1921.7 -6408.1,-2073.7 -6284.5,-2019.7 	"/>
	<polygon class="st0" points="-6160.8,-2073.7 -6284.5,-2019.7 -6284.5,-1867.8 -6160.8,-1921.7 	"/>
	<polyline class="st0" points="-6127.7,-1907.3 -6160.8,-1921.7 -6160.8,-2073.7 -6037.2,-2019.7 -6037.2,-1867.8 -6076.5,-1884.9 	
		"/>
	<polygon class="st0" points="-5913.5,-2073.7 -6037.2,-2019.7 -6037.2,-1867.8 -5913.5,-1921.7 	"/>
	<polyline class="st0" points="-6284.5,-2235.7 -6284.5,-2281.2 -6160.8,-2227.3 -6160.8,-2075.3 -6284.5,-2129.3 -6284.5,-2178.3 	
		"/>
	<polygon class="st0" points="-6037.2,-2281.2 -6160.8,-2227.3 -6160.8,-2075.3 -6037.2,-2129.3 	"/>
	<line class="st0" x1="-6037.4" y1="-2281.2" x2="-6161" y2="-2335.2"/>
	<line class="st0" x1="-6284.7" y1="-2281.2" x2="-6161" y2="-2335.2"/>
	<line class="st0" x1="-5914.1" y1="-2074.5" x2="-6037.8" y2="-2128.5"/>
	<line class="st0" x1="-6407.3" y1="-2074.5" x2="-6283.7" y2="-2128.5"/>
	<path class="st4" d="M-5649.1-1832.7c-0.3,0-0.6,0-0.9-0.1c-2-0.2-3.8-1.3-5-2.9c-1.2-1.6-1.8-3.6-1.5-5.6l10.8-86.4l-19,21.8
		c-1.5,1.7-3.5,2.6-5.6,2.6c-3.6,0-6.6-2.4-7.4-5.9l-12.1-55l-1,0.2c-3.6,0.8-7.3,1.2-10.9,1.2c-39.7,0-72,32.3-72,72v50.4
		c0,4.2-3.4,7.5-7.5,7.5c-4.2,0-7.5-3.4-7.5-7.5v-50.4c0-47.9,38.9-86.9,86.8-87.1c0.3,0.1,0.6,0.1,1.1,0.1
		c2.4,0,14.8-0.5,25.1-10.8c6.9-6.9,10.7-16.1,10.7-25.9v-2.9l-0.6-0.3c-38.2-18.3-62.9-55.8-64.4-97.9l0-0.8l-0.7-0.2
		c-15.3-3.7-26-17.1-26-32.8v-104c0-17.7,13.2-33.2,30.7-35.9l0.5-0.1l0.2-0.5c15.3-32.8,47.4-53.2,83.7-53.2h73.2
		c50.9,0,92.4,41.4,92.4,92.4v101.2c0,4.2-3.4,7.5-7.5,7.5s-7.5-3.4-7.5-7.5v-101.2c0-42.6-34.7-77.3-77.3-77.3h-73.2
		c-31.8,0-60,19.1-71.8,48.6c-1.2,2.9-3.9,4.7-7,4.7c-11.7,0-21.3,9.5-21.3,21.3v104c0,6.9,3.9,13.3,10.1,16.5l1.5,0.8l0-43.4
		c0-24.9,0-25.9,0-26.3c0.4-3.9,3.7-6.8,7.5-6.8c0.3,0,0.6,0,1,0.1c1,0.1,2.6,0.2,4.6,0.2c6.3,0,12.1-1.5,17.2-4.6
		c16.5-9.9,16.6-31.7,16.6-31.9c0-2,0.8-3.9,2.2-5.3c1.4-1.4,3.4-2.3,5.4-2.3c1.5,0,3,0.5,4.3,1.4c35.9,25.4,77.9,42.1,121.4,48.2
		c4.1,0.6,7,4.4,6.4,8.5c-0.5,3.7-3.7,6.5-7.5,6.5c-0.4,0-0.7,0-1.1-0.1c-41.9-5.9-81.1-20.4-116.8-43.2l-1.2-0.7l-0.4,1.3
		c-5.9,22-22.3,35.9-43.9,37.2l-0.9,0.1v73.4c0,54.1,44,98.1,98.1,98.1s98.1-44,98.1-98.1v-70.5c0-4.2,3.4-7.5,7.5-7.5
		c4.2,0,7.5,3.4,7.5,7.5v70.5c0,30.6-12,59.2-33.9,80.6c-21.4,21-49.5,32.6-79.2,32.6c-10.8,0-21.5-1.6-32-4.7l-1.2-0.3l-0.1,1.2
		c-0.5,6.9-2.4,13.5-5.6,19.6l-0.3,0.6l39,43.3l15.7-18.1c1.4-1.6,3.5-2.6,5.7-2.6c1.8,0,3.6,0.7,4.9,1.8c1.5,1.3,2.4,3.1,2.6,5
		c0.2,2.1-0.6,4.2-2.3,6.1l-0.6,0.7l23.2,26.7l9.4-42.8l-0.6-0.4c-7.1-4.3-13.2-10.3-17.5-17.4c-1-1.7-1.4-3.7-0.9-5.7
		s1.7-3.6,3.4-4.7c1.2-0.7,2.5-1.1,3.9-1.1c2.7,0,5.1,1.4,6.4,3.6c6.7,11,18.4,17.6,31.4,17.6c23.3,0,45.2,9.1,61.6,25.5
		c16.4,16.4,25.5,38.3,25.5,61.6v50.4c0,4.2-3.4,7.5-7.5,7.5s-7.5-3.4-7.5-7.5v-50.4c0-39.7-32.3-72-72-72c-3.6,0-7.3-0.4-10.9-1.2
		l-1-0.2l-12.1,55c-0.8,3.5-3.8,5.9-7.4,5.9c-2.2,0-4.2-0.9-5.6-2.6l-19-21.8l10.8,86.4c0.5,4.1-2.4,7.9-6.5,8.4
		c-0.3,0-0.6,0.1-0.9,0.1c-3.8,0-7-2.8-7.5-6.6l-12.3-98.4l-6.3,7.2c-0.1,0.1-0.2,0.2-0.3,0.4c-1.4,1.6-3.5,2.5-5.6,2.5
		c-1.8,0-3.6-0.7-5-1.9c-0.3-0.3-2.1-2.3-5.4-5.9l-1.9-2.1l-12.3,98.2C-5642.1-1835.6-5645.3-1832.7-5649.1-1832.7z M-5666.2-1976.9
		c-2.8,2.6-5.8,4.9-8.9,6.8l-0.6,0.4l9.4,42.8l22.8-26.3l-22-24.4L-5666.2-1976.9z"/>
	<g>
		<g>
			<path class="st4" d="M-5151.6-2102.7c-5.5,0-11-0.2-16.4,0.1c-1.5,0.1-3.6,1.6-4.3,3c-1.7,3.3-2.7,7-4.1,10.5
				c-2.2,5.6-6.1,7.8-10.6,6.1c-4.5-1.7-6-5.9-3.8-11.6c9.2-24.3,18.5-48.6,27.7-72.9c0.9-2.2,1.7-4.5,2.6-6.7
				c1.6-4.3,4.4-6.9,9.2-6.9c5,0,7.8,2.7,9.5,7.1c7.2,19,14.4,38.1,21.5,57.1c2.8,7.5,5.7,15,8.5,22.6c2,5.4,0.5,9.5-3.8,11.2
				c-4.5,1.8-8.4-0.5-10.7-6c-1.8-4.4-2.4-10.6-5.7-12.8c-3.5-2.3-9.5-0.8-14.5-1C-5148.2-2102.8-5149.9-2102.7-5151.6-2102.7z
				 M-5151.3-2155.1c-5,13.1-9.4,24.7-13.9,36.6c9.7,0,18.4,0,27.7,0C-5142-2130.7-5146.4-2142.2-5151.3-2155.1z"/>
			<path class="st4" d="M-5079.3-2118.8c0,9.4,0,18,0,26.5c0,6.3-3.1,10-7.9,9.9c-4.7-0.1-7.4-3.6-7.4-9.7c0-26.6,0-53.1,0-79.7
				c0-6.6,2.6-9.2,9.4-9.3c7.2-0.1,14.4-0.2,21.6,0c17.9,0.4,31.7,14,31.6,31.2c0,17.1-13.8,30.6-31.7,31.1
				C-5068.8-2118.7-5073.7-2118.8-5079.3-2118.8z M-5079-2134.2c4.9,0,9.3,0,13.8,0c1.2,0,2.4,0,3.6-0.2c7.6-0.9,13.9-7.7,14.1-15.2
				c0.2-7.4-5.8-15-13.4-15.7c-5.9-0.6-11.8-0.1-18.1-0.1C-5079-2155.1-5079-2144.9-5079-2134.2z"/>
			<path class="st4" d="M-5016.7-2133.4c0-13.2,0-26.4,0-39.6c0-6,3-9.5,7.7-9.4c4.5,0.1,7.6,3.6,7.6,9.2c0.1,26.7,0.1,53.4,0,80.1
				c0,6-3,9.4-7.9,9.3c-4.9-0.1-7.4-3.3-7.4-9.6C-5016.7-2106.7-5016.7-2120.1-5016.7-2133.4z"/>
		</g>
	</g>
	<path class="st4" d="M-4980.3-1980.1c0-15.1-0.1-30.1,0.1-45.2c0-2.4,1.3-5.2,2.9-6.9c6.3-6.9,6.5-16.6,0-23.1
		c-6.3-6.2-16.4-6.1-22.6,0.2c-6.4,6.5-6.1,16.1,0.3,23c1.4,1.5,2.8,3.9,2.8,5.9c0.2,19.5,0.2,39,0.1,58.5
		C-4996.6-1966.2-4980.3-1980.1-4980.3-1980.1z"/>
	<path class="st4" d="M-5039.7-1943.9c0.2-9.3,0.2-18.6,0-27.9c0-1.7-1.3-3.6-2.6-4.9c-6.6-7-6.8-16.5-0.3-23
		c6.4-6.4,16.7-6.3,23,0.3c6.2,6.5,5.8,16.2-0.9,23c-1.3,1.3-2.6,3.2-2.6,4.9c-0.3,7.6-0.1,15.3-0.1,24.7L-5039.7-1943.9"/>
	<path class="st4" d="M-5064.8-1938.4c0-14.7,0-23.3,0-37c0-8.5-2.2-18,0.9-25.4c3-7.3,11.3-12.5,17.2-18.6c0.6-0.7,1.3-1.3,1.9-1.9
		c4.1-3.6,5.7-8.2,5.7-13.6c-0.1-9.5,0.1-18.9-0.1-28.4c-0.1-3.6,0.6-6.3,3.5-9.1c6.2-6,5.9-15.4,0-21.7c-5.8-6.2-15.2-6.8-21.8-1.6
		c-6.5,5.2-8.7,15.6-2.9,21.4c5.1,5.1,4.9,10.4,4.9,16.3c0,6.6,0.3,13.1-0.1,19.7c-0.2,2.6-1.3,5.6-3.1,7.6
		c-5.2,5.8-10.8,11.3-16.5,16.7c-4.3,4-6.1,8.7-6,14.6c0.1,20.6,0.1,41.2,0,61.7L-5064.8-1938.4z"/>
	<path class="st4" d="M-5121.8-1938.4c0-19.5,0.1-39-0.1-58.5c0-2.2-1.3-4.7-2.9-6.4c-6.4-6.8-6.6-16.7-0.2-23.1
		c6.3-6.2,16.3-6.2,22.6,0c6.4,6.4,6.3,16.2-0.3,23c-1.2,1.2-2.7,2.9-2.7,4.3c-0.2,22.2-0.1,40.4-0.1,63.1L-5121.8-1938.4z"/>
	<path class="st4" d="M-5160.5-1946.1c-0.6-8.8,3-17.2-5.6-23.8c-5.3-4.1-9.5-9.5-14.4-14.1c-4-3.8-5.7-8.2-5.6-13.7
		c0.1-9.8,0.2-19.7-0.1-29.5c-0.1-2.4-1.2-5.2-2.9-6.9c-6.3-6.9-6.5-16.7,0-23.1c6.2-6.1,16.5-6.1,22.6,0.1
		c6.3,6.4,5.9,16.3-0.4,23.1c-1.5,1.6-2.7,4.2-2.8,6.5c-0.3,9.1-0.3,18.2,0,27.3c0.1,2.2,1.2,4.9,2.8,6.5c5.4,5.9,11.1,11.6,16.9,17
		c4.2,3.9,6,8.5,5.8,14.1c-0.1,6.2,0.2,12.4-0.1,18.6L-5160.5-1946.1"/>
	<path class="st0" d="M-5256.3-1897.7l6.3,6.3c11.6,11.6,30.4,11.6,41.9,0l10.6-10.6c13.1,7.2,26.8,13.1,41.1,17.3v14.7
		c0,16.3,13.3,29.6,29.6,29.6h60.5c16.3,0,29.6-13.3,29.6-29.6v-14.7c14.3-4.3,28.1-10.1,41.1-17.3l10.6,10.6
		c11.6,11.6,30.4,11.6,41.9,0l42.8-42.8c11.6-11.6,11.6-30.3,0-41.9l-11.6-11.6c6.7-12.8,12-26.2,15.9-40.1h17.1
		c16.3,0,29.6-13.3,29.6-29.6v-60.5c0-16.3-13.3-29.6-29.6-29.6l0,0h-19.1c-4.2-13.1-9.6-25.7-16.3-37.8l14-14
		c11.6-11.6,11.6-30.3,0-41.9l-42.8-42.8c-11.6-11.6-30.4-11.6-41.9,0l-15,15c-11.8-6.2-24.1-11.2-36.8-15v-21.4
		c0-16.3-13.3-29.6-29.6-29.6h-60.5c-16.3,0-29.6,13.3-29.6,29.6v21.4c-17.3,5.2-28.9,10.9-36.8,15l-15-15
		c-11.6-11.6-30.4-11.6-41.9,0l-42.8,42.8c-11.6,11.6-11.6,30.3,0,41.9l14,14c-6.7,12-12.1,24.7-16.3,37.8h-19.1
		c-16.3,0-29.6,13.3-29.6,29.6v60.5c0,16.3,13.3,29.6,29.6,29.6h17.1c3.9,13.9,9.2,27.3,16,40.1l-11.6,11.6
		c-11.6,11.6-11.6,30.3,0,41.9l5.9,5.9"/>
	<path class="st0" d="M-5124.8-2242.8L-5124.8-2242.8c-74.2,13.6-128.1,78.2-128.1,153.8c0,86.2,70.1,156.3,156.3,156.3
		c86.2,0,156.3-70.1,156.3-156.3c0-75.6-53.9-140.3-128.2-153.8"/>
	<path class="st0" d="M-4554.3-2093.2l3.5,3.5c6.4,6.4,16.8,6.4,23.2,0l5.9-5.9c7.2,4,14.8,7.2,22.7,9.6v8.2c0,9,7.4,16.4,16.4,16.4
		h33.5c9,0,16.4-7.4,16.4-16.4v-8.2c7.9-2.4,15.5-5.6,22.7-9.6l5.9,5.9c6.4,6.4,16.8,6.4,23.2,0l23.7-23.7c6.4-6.4,6.4-16.8,0-23.2
		l-6.4-6.4c3.7-7.1,6.7-14.5,8.8-22.2h9.5c9,0,16.4-7.4,16.4-16.4v-33.5c0-9-7.3-16.4-16.4-16.4v0h-10.6c-2.3-7.2-5.3-14.2-9-20.9
		l7.7-7.7c6.4-6.4,6.4-16.8,0-23.2l-23.7-23.7c-6.4-6.4-16.8-6.4-23.2,0l-8.3,8.3c-6.5-3.4-13.3-6.2-20.3-8.3v-11.9
		c0-9-7.4-16.4-16.4-16.4h-33.5c-9,0-16.4,7.4-16.4,16.4v11.9c-9.6,2.9-16,6-20.3,8.3l-8.3-8.3c-6.4-6.4-16.8-6.4-23.2,0l-23.7,23.7
		c-6.4,6.4-6.4,16.8,0,23.2l7.7,7.7c-3.7,6.7-6.7,13.7-9,20.9"/>
	<path class="st0" d="M-4481.5-2284.1L-4481.5-2284.1c-41,7.5-70.8,43.3-70.8,85c0,47.7,38.8,86.5,86.5,86.5
		c47.7,0,86.5-38.8,86.5-86.5c0-41.8-29.8-77.6-70.9-85.1"/>
	<path class="st0" d="M-4423.4-2227c-19.3,19.3-38.5,38.5-57.4,57.4c-9.1-9-18.4-18.3-27.7-27.7"/>
	<g>
		<path class="st0" d="M-4603.2-1919.9c-8.6,4.7-18.5,7.4-29,7.4c-33.1,0-60-26.9-60-60c0-33.1,26.9-60,60-60
			c10.5,0,20.4,2.7,29,7.4"/>
		<line class="st0" x1="-4712.6" y1="-1985.4" x2="-4624.9" y2="-1985.8"/>
		<line class="st0" x1="-4712.6" y1="-1954.4" x2="-4624.9" y2="-1954.8"/>
		<path class="st0" d="M-4686.6-2155.9c-4.5-8.3-9-16.6-13.7-25.3c0,0-2.9-5.3-4.8-9.5c-0.1-14.2,8.2-22.8,22.1-22.9
			c19.1-0.1,38.2-0.2,57.2,0.1c4.2,0.1,8.8,1.4,12.4,3.5c7,4,11.2,10.2,9.8,19.2l-4.2,9.6c-4.2,7.8-8.4,15.6-12.6,23.3
			c-0.6,1.2-1.2,2.4-2,3.5 M-4600-2189.4c5.1,2.1,10.2,4.2,15.3,6.4c2.6,1.1,5.1,2.4,7.4,4c8.4,5.9,9.5,14.7,2.7,22.4
			c-7.9,9-16.1,17.8-24.2,26.7c-2.4,2.7-4.8,5.4-7.3,8 M-4696-2115.4c-11.7-12.9-23.2-25.6-34.8-38.3c-9.9-10.8-6.6-24.4,7.2-29.9
			c5-2,10-3.8,14.9-5.7 M-4673.5-2112.3c16.4,0.6,32.8,0.8,49.1,1.7c4,0.2,8.3,2.1,11.8,4.4c18.9,12.6,35,28.4,50,45.3
			c22.4,25.2,41.1,52.8,53.4,84.4c7.1,18.1,12,36.8,12.4,56.3c0.7,37.4-18.5,63.6-54.4,74.5c-11.6,3.5-23.4,5.3-35.5,5.2
			c-45.5-0.1-91,0-136.5,0c-15.8,0-31.1-2.9-45.4-9.5c-29.4-13.5-43.7-36.9-43-69.1c0.5-25.7,7.8-49.7,19-72.6
			c21.4-43.9,52.3-80.3,90.7-110.4c3.4-2.7,7.2-5,11.2-7.8C-4690.8-2109.7-4684.9-2112.7-4673.5-2112.3z"/>
	</g>
	<g>
		<line class="st0" x1="-3854.3" y1="-2174.3" x2="-4210.5" y2="-2174.3"/>
		<polyline class="st0" points="-4248.7,-2174.3 -4280,-2174.3 -4213,-2285.3 -3850.7,-2285.3 -3784.7,-2174.3 -3813.9,-2174.3 		
			"/>
		<path class="st0" d="M-3783.9-2173.8c0,34.1-27.6,61.7-61.7,61.7c-34.1,0-61.7-27.6-61.7-61.7h0c0,34.1-27.6,61.7-61.7,61.7
			s-61.7-27.6-61.7-61.7h-0.7c0,34.1-27.6,61.7-61.7,61.7c-34.1,0-61.7-27.6-61.7-61.7h-0.5c0,34.1-27.6,61.7-61.7,61.7
			s-61.7-27.6-61.7-61.7"/>
		<rect x="-4204.8" y="-2079.6" class="st0" width="213.3" height="149"/>
		<polyline class="st0" points="-3952,-1890.2 -3952,-2079.6 -3857.3,-2079.6 -3857.3,-1890.2 		"/>
		<line class="st0" x1="-4244.6" y1="-1890.2" x2="-4244.6" y2="-2117.4"/>
		<line class="st0" x1="-3817.3" y1="-2117.4" x2="-3817.3" y2="-1890.2"/>
		<line class="st0" x1="-4262.1" y1="-1890.2" x2="-3801.7" y2="-1890.2"/>
		<line class="st0" x1="-3952" y1="-1930.6" x2="-3857.3" y2="-1930.6"/>
	</g>
	<path class="st0" d="M-3406-1868.7c-5.4,3.1-10.6,6.1-15.9,9.1c-12,6.8-19.3-0.1-19.5-15.9c-0.3-24.8-0.3-47.4,0-71.1
		c0.2-16.7,8.1-23,21.3-15c22.5,13.6,40.8,22.5,66,38c11.8,7.3,12.7,17.4,1.3,24c-5.1,3-10.2,5.9-15.5,9c4.3,7.6,8.5,14.7,12.6,21.9
		c4.8,8.5,3.2,14.9-5.1,19.8c-2.7,1.6-8,4.6-12.9,7.4c-6,3.4-13.5,1.6-17.3-4.1C-3396.5-1853.7-3403.6-1864.7-3406-1868.7z"/>
	<path class="st0" d="M-3665.3-2234.9v-74.6c0-13.6,11-24.7,24.7-24.7h307.8c13.6,0,24.7,11,24.7,24.7v408.3
		c0,13.6-11,24.7-24.7,24.7"/>
	<path class="st0" d="M-3464.2-1876.6h-176.5c-13.6,0-24.7-11-24.7-24.7v-291.3"/>
	<line class="st0" x1="-3665.3" y1="-2257.1" x2="-3308.2" y2="-2257.1"/>
	<circle class="st0" cx="-3617" cy="-2296.1" r="16.1"/>
	<circle class="st0" cx="-3557" cy="-2296.1" r="16.1"/>
	<circle class="st0" cx="-3497" cy="-2296.1" r="16.1"/>
	<line class="st0" x1="-3557" y1="-2214.6" x2="-3415.7" y2="-2214.6"/>
	<rect x="-3594.4" y="-2152.2" class="st0" width="217.7" height="40.1"/>
	<rect x="-3595.9" y="-2068.5" class="st0" width="217.7" height="40.1"/>
	<rect x="-3553.2" y="-1979.1" class="st0" width="71" height="40.1"/>
	<g>
		<path class="st0" d="M347.8,258.4V43.1c0-18.1-14.9-32.8-33.3-32.8H41.1C22.7,10.3,7.8,25,7.8,43.1v429.8
			c0,18.1,14.9,32.8,33.3,32.8h273.4"/>
		<g>
			<line class="st0" x1="174.7" y1="14.3" x2="174.7" y2="500.3"/>
		</g>
	</g>
	<line class="st9" x1="471.5" y1="313.5" x2="312.2" y2="472.8"/>
	<g>
		<line class="st0" x1="338.5" y1="182.6" x2="7.5" y2="182.6"/>
	</g>
	<line class="st0" x1="258.5" y1="346.8" x2="7.5" y2="346.8"/>
	<circle class="st9" cx="391.9" cy="393.1" r="112.6"/>
</g>
</svg>
