<?xml version="1.0" encoding="utf-8"?>
<!-- Generator: Adobe Illustrator 25.0.1, SVG Export Plug-In . SVG Version: 6.00 Build 0)  -->
<svg version="1.1" id="Capa_1" xmlns="http://www.w3.org/2000/svg" xmlns:xlink="http://www.w3.org/1999/xlink" x="0px" y="0px"
	 viewBox="0 0 132.9 149" style="enable-background:new 0 0 132.9 149;" xml:space="preserve">
<style type="text/css">
	.st0{fill:#EDEDED;}
	.st1{fill:#FFFFFF;}
	.st2{fill:url(#SVGID_1_);}
	.st3{fill:#FBBB00;}
	.st4{fill:#E9D0BC;}
	.st5{fill:none;stroke:#9C9B9B;stroke-width:3;stroke-miterlimit:10;}
	.st6{fill:#B90713;}
	.st7{font-family:'BradleyHandITCTT-Bold';}
	.st8{font-size:37.1882px;}
</style>
<g>
	<g>
		<g>
			<path class="st0" d="M11.5,147.2c-5.4,0-9.7-4.4-9.7-9.7V17c0-5.4,4.4-9.7,9.7-9.7h109.8c5.4,0,9.7,4.4,9.7,9.7v120.5
				c0,5.4-4.4,9.7-9.7,9.7H11.5z"/>
			<path class="st1" d="M121.3,9c4.4,0,8,3.6,8,8v120.5c0,4.4-3.6,8-8,8H11.5c-4.4,0-8-3.6-8-8V17c0-4.4,3.6-8,8-8H121.3 M121.3,5.5
				H11.5C5.2,5.5,0,10.6,0,17v120.5c0,6.3,5.2,11.5,11.5,11.5h109.8c6.3,0,11.5-5.2,11.5-11.5V17C132.9,10.6,127.7,5.5,121.3,5.5
				L121.3,5.5z"/>
		</g>
		<linearGradient id="SVGID_1_" gradientUnits="userSpaceOnUse" x1="9.2892" y1="9.7604" x2="126.0404" y2="47.8913">
			<stop  offset="0" style="stop-color:#B90713"/>
			<stop  offset="1" style="stop-color:#FAA92B"/>
		</linearGradient>
		<path class="st2" d="M129.3,45.7V17c0-4.4-3.6-8-8-8H11.5c-4.4,0-8,3.6-8,8v28.7H129.3z"/>
		<path class="st1" d="M18.2,16.7c0,2-1.6,3.7-3.7,3.7c-2,0-3.7-1.6-3.7-3.7c0-2,1.6-3.7,3.7-3.7C16.6,13,18.2,14.7,18.2,16.7z"/>
		<path class="st1" d="M33.2,16.7c0,2-1.6,3.7-3.7,3.7c-2,0-3.7-1.6-3.7-3.7c0-2,1.6-3.7,3.7-3.7C31.6,13,33.2,14.7,33.2,16.7z"/>
		<path class="st1" d="M48.2,16.7c0,2-1.6,3.7-3.7,3.7c-2,0-3.7-1.6-3.7-3.7c0-2,1.6-3.7,3.7-3.7C46.5,13,48.2,14.7,48.2,16.7z"/>
		<path class="st1" d="M63.1,16.7c0,2-1.6,3.7-3.7,3.7c-2,0-3.7-1.6-3.7-3.7c0-2,1.6-3.7,3.7-3.7C61.5,13,63.1,14.7,63.1,16.7z"/>
		<path class="st1" d="M78.1,16.7c0,2-1.6,3.7-3.7,3.7c-2,0-3.7-1.6-3.7-3.7c0-2,1.6-3.7,3.7-3.7C76.4,13,78.1,14.7,78.1,16.7z"/>
		<path class="st1" d="M93,16.7c0,2-1.6,3.7-3.7,3.7s-3.7-1.6-3.7-3.7c0-2,1.6-3.7,3.7-3.7S93,14.7,93,16.7z"/>
		<path class="st1" d="M108,16.7c0,2-1.6,3.7-3.7,3.7s-3.7-1.6-3.7-3.7c0-2,1.6-3.7,3.7-3.7S108,14.7,108,16.7z"/>
		<path class="st1" d="M123,16.7c0,2-1.6,3.7-3.7,3.7c-2,0-3.7-1.6-3.7-3.7c0-2,1.6-3.7,3.7-3.7C121.3,13,123,14.7,123,16.7z"/>
		<path class="st3" d="M16.8,15.1c0,1.6-1,2.9-2.2,2.9l0,0c-1.2,0-2.2-1.3-2.2-2.9V2.9c0-1.6,1-2.9,2.2-2.9l0,0
			c1.2,0,2.2,1.3,2.2,2.9V15.1z"/>
		<path class="st4" d="M14.3,0c-1.1,0.2-1.9,1.4-1.9,2.9v12.2c0,1.5,0.8,2.7,1.9,2.9V0z"/>
		<path class="st1" d="M16.6,7.6c0,4.2,0,9.8-1.7,10c1.1-1.3,1.1-5.3,1.1-9.5c0.1-6.4-0.8-7.1-1.1-7.8C15.6,0.4,16.9,1.3,16.6,7.6z"
			/>
		<path class="st3" d="M31.7,15.1c0,1.6-1,2.9-2.2,2.9l0,0c-1.2,0-2.2-1.3-2.2-2.9V2.9c0-1.6,1-2.9,2.2-2.9l0,0
			c1.2,0,2.2,1.3,2.2,2.9V15.1z"/>
		<path class="st4" d="M29.3,0c-1.1,0.2-1.9,1.4-1.9,2.9v12.2c0,1.5,0.8,2.7,1.9,2.9V0z"/>
		<path class="st1" d="M31.5,7.6c0,4.2,0,9.8-1.7,10c1.1-1.3,1.1-5.3,1.1-9.5c0.1-6.4-0.8-7.1-1.1-7.8C30.6,0.4,31.8,1.3,31.5,7.6z"
			/>
		<path class="st3" d="M46.7,15.1c0,1.6-1,2.9-2.2,2.9l0,0c-1.2,0-2.2-1.3-2.2-2.9V2.9c0-1.6,1-2.9,2.2-2.9l0,0
			c1.2,0,2.2,1.3,2.2,2.9V15.1z"/>
		<path class="st4" d="M44.2,0c-1.1,0.2-1.9,1.4-1.9,2.9v12.2c0,1.5,0.8,2.7,1.9,2.9V0z"/>
		<path class="st1" d="M46.5,7.6c0,4.2,0,9.8-1.7,10c1.1-1.3,1.1-5.3,1.1-9.5c0.1-6.4-0.8-7.1-1.1-7.8C45.5,0.4,46.8,1.3,46.5,7.6z"
			/>
		<path class="st3" d="M61.6,15.1c0,1.6-1,2.9-2.2,2.9l0,0c-1.2,0-2.2-1.3-2.2-2.9V2.9c0-1.6,1-2.9,2.2-2.9l0,0
			c1.2,0,2.2,1.3,2.2,2.9V15.1z"/>
		<path class="st4" d="M59.2,0c-1.1,0.2-1.9,1.4-1.9,2.9v12.2c0,1.5,0.8,2.7,1.9,2.9V0z"/>
		<path class="st1" d="M61.5,7.6c0,4.2,0,9.8-1.7,10c1.1-1.3,1.1-5.3,1.1-9.5C61,1.8,60,1.1,59.8,0.3C60.5,0.4,61.8,1.3,61.5,7.6z"
			/>
		<path class="st3" d="M76.6,15.1c0,1.6-1,2.9-2.2,2.9l0,0c-1.2,0-2.2-1.3-2.2-2.9V2.9c0-1.6,1-2.9,2.2-2.9l0,0
			c1.2,0,2.2,1.3,2.2,2.9V15.1z"/>
		<path class="st4" d="M74.2,0c-1.1,0.2-1.9,1.4-1.9,2.9v12.2c0,1.5,0.8,2.7,1.9,2.9V0z"/>
		<path class="st1" d="M76.4,7.6c0,4.2,0,9.8-1.7,10c1.1-1.3,1.1-5.3,1.1-9.5c0.1-6.4-0.8-7.1-1.1-7.8C75.5,0.4,76.7,1.3,76.4,7.6z"
			/>
		<path class="st3" d="M91.6,15.1c0,1.6-1,2.9-2.2,2.9l0,0c-1.2,0-2.2-1.3-2.2-2.9V2.9c0-1.6,1-2.9,2.2-2.9l0,0
			c1.2,0,2.2,1.3,2.2,2.9V15.1z"/>
		<path class="st4" d="M89.1,0c-1.1,0.2-1.9,1.4-1.9,2.9v12.2c0,1.5,0.8,2.7,1.9,2.9V0z"/>
		<path class="st1" d="M91.4,7.6c0,4.2,0,9.8-1.7,10c1.1-1.3,1.1-5.3,1.1-9.5c0.1-6.4-0.8-7.1-1.1-7.8C90.4,0.4,91.7,1.3,91.4,7.6z"
			/>
		<path class="st3" d="M106.5,15.1c0,1.6-1,2.9-2.2,2.9l0,0c-1.2,0-2.2-1.3-2.2-2.9V2.9c0-1.6,1-2.9,2.2-2.9l0,0
			c1.2,0,2.2,1.3,2.2,2.9V15.1z"/>
		<path class="st4" d="M104.1,0c-1.1,0.2-1.9,1.4-1.9,2.9v12.2c0,1.5,0.8,2.7,1.9,2.9V0z"/>
		<path class="st1" d="M106.4,7.6c0,4.2,0,9.8-1.7,10c1.1-1.3,1.1-5.3,1.1-9.5c0.1-6.4-0.8-7.1-1.1-7.8
			C105.4,0.4,106.6,1.3,106.4,7.6z"/>
		<path class="st3" d="M121.5,15.1c0,1.6-1,2.9-2.2,2.9l0,0c-1.2,0-2.2-1.3-2.2-2.9V2.9c0-1.6,1-2.9,2.2-2.9l0,0
			c1.2,0,2.2,1.3,2.2,2.9V15.1z"/>
		<path class="st4" d="M119.1,0c-1.1,0.2-1.9,1.4-1.9,2.9v12.2c0,1.5,0.8,2.7,1.9,2.9V0z"/>
		<path class="st1" d="M121.3,7.6c0,4.2,0,9.8-1.7,10c1.1-1.3,1.1-5.3,1.1-9.5c0.1-6.4-0.8-7.1-1.1-7.8
			C120.4,0.4,121.6,1.3,121.3,7.6z"/>
	</g>
</g>
<path class="st5" d="M27.6,74.1h-8.2c-2.8,0-5.1-2.3-5.1-5.1v-8.2c0-2.8,2.3-5.1,5.1-5.1h8.2c2.8,0,5.1,2.3,5.1,5.1v8.2
	C32.7,71.9,30.4,74.1,27.6,74.1z"/>
<path class="st5" d="M56.2,74.3H48c-2.8,0-5.1-2.3-5.1-5.1V61c0-2.8,2.3-5.1,5.1-5.1h8.2c2.8,0,5.1,2.3,5.1,5.1v8.2
	C61.3,72,59,74.3,56.2,74.3z"/>
<path class="st5" d="M84.9,73.8h-8.2c-2.8,0-5.1-2.3-5.1-5.1v-8.2c0-2.8,2.3-5.1,5.1-5.1h8.2c2.8,0,5.1,2.3,5.1,5.1v8.2
	C89.9,71.5,87.6,73.8,84.9,73.8z"/>
<path class="st5" d="M113.5,73.8h-8.2c-2.8,0-5.1-2.3-5.1-5.1v-8.2c0-2.8,2.3-5.1,5.1-5.1h8.2c2.8,0,5.1,2.3,5.1,5.1v8.2
	C118.5,71.5,116.3,73.8,113.5,73.8z"/>
<path class="st5" d="M27.6,104.1h-8.2c-2.8,0-5.1-2.3-5.1-5.1v-8.2c0-2.8,2.3-5.1,5.1-5.1h8.2c2.8,0,5.1,2.3,5.1,5.1v8.2
	C32.7,101.9,30.4,104.1,27.6,104.1z"/>
<path class="st5" d="M56.2,104.3H48c-2.8,0-5.1-2.3-5.1-5.1V91c0-2.8,2.3-5.1,5.1-5.1h8.2c2.8,0,5.1,2.3,5.1,5.1v8.2
	C61.3,102,59,104.3,56.2,104.3z"/>
<path class="st5" d="M84.9,103.8h-8.2c-2.8,0-5.1-2.3-5.1-5.1v-8.2c0-2.8,2.3-5.1,5.1-5.1h8.2c2.8,0,5.1,2.3,5.1,5.1v8.2
	C89.9,101.5,87.6,103.8,84.9,103.8z"/>
<path class="st5" d="M113.5,103.8h-8.2c-2.8,0-5.1-2.3-5.1-5.1v-8.2c0-2.8,2.3-5.1,5.1-5.1h8.2c2.8,0,5.1,2.3,5.1,5.1v8.2
	C118.5,101.5,116.3,103.8,113.5,103.8z"/>
<path class="st5" d="M27.6,136.1h-8.2c-2.8,0-5.1-2.3-5.1-5.1v-8.2c0-2.8,2.3-5.1,5.1-5.1h8.2c2.8,0,5.1,2.3,5.1,5.1v8.2
	C32.7,133.9,30.4,136.1,27.6,136.1z"/>
<path class="st5" d="M56.2,136.3H48c-2.8,0-5.1-2.3-5.1-5.1V123c0-2.8,2.3-5.1,5.1-5.1h8.2c2.8,0,5.1,2.3,5.1,5.1v8.2
	C61.3,134,59,136.3,56.2,136.3z"/>
<path class="st5" d="M84.9,135.8h-8.2c-2.8,0-5.1-2.3-5.1-5.1v-8.2c0-2.8,2.3-5.1,5.1-5.1h8.2c2.8,0,5.1,2.3,5.1,5.1v8.2
	C89.9,133.5,87.6,135.8,84.9,135.8z"/>
<path class="st5" d="M113.5,135.8h-8.2c-2.8,0-5.1-2.3-5.1-5.1v-8.2c0-2.8,2.3-5.1,5.1-5.1h8.2c2.8,0,5.1,2.3,5.1,5.1v8.2
	C118.5,133.5,116.3,135.8,113.5,135.8z"/>
<text transform="matrix(1 0 0 1 44.8848 102.6206)" class="st6 st7 st8">x</text>
</svg>
