<?xml version="1.0" encoding="utf-8"?>
<!-- Generator: Adobe Illustrator 25.0.1, SVG Export Plug-In . SVG Version: 6.00 Build 0)  -->
<svg version="1.1" id="Layer_1" xmlns="http://www.w3.org/2000/svg" xmlns:xlink="http://www.w3.org/1999/xlink" x="0px" y="0px"
	 viewBox="0 0 500 500" style="enable-background:new 0 0 500 500;" xml:space="preserve">
<style type="text/css">
	.st0{fill:url(#SVGID_1_);}
	.st1{fill:#FFFFFF;}
</style>
<linearGradient id="SVGID_1_" gradientUnits="userSpaceOnUse" x1="250" y1="500" x2="250" y2="-9.094947e-13">
	<stop  offset="0" style="stop-color:#0071BC"/>
	<stop  offset="1" style="stop-color:#00FFFF"/>
</linearGradient>
<circle class="st0" cx="250" cy="250" r="250"/>
<g>
	<path class="st1" d="M168.5,182.2v38.6h102.8v89.7H168.5V417H74.1V291.1h177.6v-50.7h-83.2H74.1V92h209.8v90.3L168.5,182.2
		L168.5,182.2z M264.3,162.6v-51.2H93.6v108.9h54.9v-57.7C148.5,162.6,264.3,162.6,264.3,162.6z M148.5,310.6H93.6v87h54.9V310.6z"
		/>
	<path class="st1" d="M283.6,267.9v-47.1l2.8-2.8c10.7-10.2,31.1-30,48.5-48c16.2-16.9,20.7-24.8,20.8-26.6c0-3.5-1.7-5.2-5.2-5.2
		c-1.6,0-6.3,0-6.3,7.6l-0.5,11.8l-65.1-15.4l1.3-8.8c6.3-37.8,34.5-60.4,75.3-60.4c20.3,0,37.6,6.1,50.2,17.6
		c12.7,11.6,19.4,27.6,19.4,46.3c0,22.3-10.9,38.4-36.6,65.1h37.7v19.5H310.4c-1.5,1.4-2.9,2.8-4.3,4.2c-1.2,1.1-2.3,2.2-3.4,3.3
		v19.5h123.1v19.4H283.6z M361.3,202.2c30.7-31,44.3-45.8,44.3-65.1c0-13.4-4.7-24.6-13.5-32.5c-9-8-21.9-12.3-37.2-12.3
		c-13.1,0-43.9,3.6-53.9,35.6l26.4,6.3c4-9.5,12.5-15,23.2-15c14.1,0,24.3,10.2,24.3,24.3c0,10.3-8.9,21.6-26.3,39.9
		c-5.3,5.7-11.2,11.5-16.9,17.1c-0.6,0.6-1.1,1.1-1.7,1.7H361.3z"/>
</g>
</svg>
