<svg xmlns="http://www.w3.org/2000/svg" width="25.344" height="27.12" viewBox="0 0 25.344 27.12">
  <g id="Gruppe_51" data-name="Gruppe 51" transform="translate(-283.146 -224.066)">
    <g id="Gruppe_311" data-name="Gruppe 311" transform="translate(283.146 225.076)">
      <path id="Pfad_470" data-name="Pfad 470" d="M293.521,250.04h-8.08a2.233,2.233,0,0,1-2.293-2.163l0-20.29a2.233,2.233,0,0,1,2.293-2.163h8.08a.744.744,0,0,1,.744.744l0,23.128a.744.744,0,0,1-.744.744Z" transform="translate(-283.146 -225.423)" fill="#fff"/>
    </g>
    <path id="Pfad_471" data-name="Pfad 471" d="M312.911,235.725a.744.744,0,0,1-.744-.744v-7.406a.675.675,0,0,0-.674-.675h-7.407a.744.744,0,0,1,0-1.488h7.407a2.164,2.164,0,0,1,2.162,2.162v7.407A.744.744,0,0,1,312.911,235.725Z" transform="translate(-5.168 -0.344)" fill="#fff"/>
    <path id="Pfad_472" data-name="Pfad 472" d="M311.5,254.952H304.09a.744.744,0,0,1,0-1.488H311.5a.676.676,0,0,0,.675-.675v-7.407a.744.744,0,1,1,1.488,0v7.406A2.165,2.165,0,0,1,311.5,254.952Z" transform="translate(-5.17 -5.265)" fill="#fff"/>
    <path id="Pfad_473" data-name="Pfad 473" d="M300.517,251.186a.744.744,0,0,1-.744-.744V224.81a.744.744,0,0,1,1.488,0v25.631A.744.744,0,0,1,300.517,251.186Z" transform="translate(-4.255 0)" fill="#fff"/>
  </g>
</svg>
