<svg xmlns="http://www.w3.org/2000/svg" width="25.27" height="25.324" viewBox="0 0 25.27 25.324">
  <g id="Gruppe_310" data-name="Gruppe 310" transform="translate(-231.884 -131.891)">
    <path id="Pfad_467" data-name="Pfad 467" d="M351.676,144.525q0-5.765,0-11.531c0-.777.322-1.1,1.092-1.1h5.076a.927.927,0,0,1,1.051,1.059q0,11.6,0,23.2a.93.93,0,0,1-1.05,1.06h-5.133a.924.924,0,0,1-1.036-1.046Q351.675,150.347,351.676,144.525Z" transform="translate(-110.767)" fill="#fff"/>
    <path id="Pfad_468" data-name="Pfad 468" d="M471.462,236.976q0-3.985,0-7.97c0-.753.33-1.081,1.085-1.081h5.1a.919.919,0,0,1,1.03,1.024q0,8.026,0,16.053a.916.916,0,0,1-1.015,1.011q-2.595,0-5.189,0a.914.914,0,0,1-1.015-1.01Q471.46,240.989,471.462,236.976Z" transform="translate(-221.528 -88.798)" fill="#fff"/>
    <path id="Pfad_469" data-name="Pfad 469" d="M231.884,329.381q0-2.2,0-4.409a.91.91,0,0,1,1.007-1.017q2.608,0,5.217,0a.91.91,0,0,1,.994,1q0,4.423,0,8.846a.912.912,0,0,1-.994,1q-2.623,0-5.245,0a.907.907,0,0,1-.98-.988Q231.882,331.6,231.884,329.381Z" transform="translate(0 -177.592)" fill="#fff"/>
  </g>
</svg>
