<?xml version="1.0" encoding="UTF-8"?>
<svg id="a" data-name="Ebene 1" xmlns="http://www.w3.org/2000/svg" viewBox="0 0 234 272.96">
  <defs>
    <style>
      .b {
        fill: #000;
        stroke-width: 0px;
      }
    </style>
  </defs>
  <path class="b" d="M61,1.5c-1.1,1.3-1.2,10.8-.7,47.1.4,25.1.9,46,1.3,46.5.9,1.5,106.7,1.2,108.2-.3.9-.9,1.2-12.7,1.2-46.9,0-38.1-.2-45.8-1.4-46.8-.9-.7-4-1.1-7.8-.9l-6.3.3.4,39.8c.3,42.8.4,42.7-4.9,42.7h-2.7l-.6-20.3c-.4-11.1-.7-29.8-.7-41.5V0h-17l-.2,19.2-.3,19.3-12,.3c-18.3.4-16.5,2.5-16.5-19.8V0h-18l-.2,41.2-.3,41.3h-7l-.3-41.3-.2-41.2h-6.4c-4.5,0-6.7.4-7.6,1.5ZM137.8,69.7l-.3,12.8-16,.3c-8.8.2-17.9,0-20.2-.3l-4.3-.6v-24.9h41.1l-.3,12.7Z"/>
  <path class="b" d="M108,65.7c0,1-.3,3.5-.6,5.5l-.7,3.8h8.3v-11h-3.5c-2.7,0-3.5.4-3.5,1.7Z"/>
  <path class="b" d="M124,69.4q0,5.6,3.1,5.6h3l-.3-5.3c-.3-4.8-.5-5.2-3-5.5-2.8-.3-2.8-.2-2.8,5.2Z"/>
  <path class="b" d="M110.4,1.3c-.2.7-.3,7.6-.2,15.2l.3,14,5.3.3,5.2.3V0h-5c-3.2,0-5.2.5-5.6,1.3Z"/>
  <path class="b" d="M11.7,45.8c-7.5,7.5-7.7,7.8-6.1,10l1.6,2.3,3.3-2.6c6.3-4.7,7.5-3.2,7.5,9.7v7.8h7v-9.9c0-5.6.4-10.3,1-10.6.5-.3,2.5.5,4.3,1.9,3.9,3,6.2,3.3,7.2.9.4-1.3-1.4-3.8-7.3-9.5-4.4-4.3-8.6-7.8-9.3-7.8-.8,0-4.9,3.5-9.2,7.8Z"/>
  <path class="b" d="M204.7,45.3c-7.4,6.9-7.8,7.4-6.8,10,1.3,3.5,2.5,3.4,6.8-.4,2-1.7,3.9-2.7,4.4-2.2.4.4.9,5.1,1.1,10.3l.3,9.5h7l.3-9.8c.3-11,.8-11.4,6.9-7.2,3.9,2.6,4.8,2.6,5.6-.4.3-1.4-1.6-3.8-7.8-9.5-4.6-4.2-8.7-7.6-9.2-7.6-.4.1-4.3,3.3-8.6,7.3Z"/>
  <path class="b" d="M12.5,111.2c-.3.7-.4,14.6-.3,30.8l.3,29.5,46.4.3c36.5.2,46.6,0,47.3-1,.9-1.5,1.1-56.8.2-59.2-.5-1.2-2.1-1.6-7-1.6h-6.4v24.9c0,13.7-.3,25.6-.6,26.5-.6,1.6-5.9,2.3-6.7.8-.3-.4-.8-12.3-1.2-26.5l-.8-25.7h-49.7v24.6c0,15-.4,25.3-1,26.5-1.3,2.3-4.3,2.5-6.5.2-1.5-1.5-1.7-4.2-1.4-26.2l.4-24.6-6.3-.3c-4.4-.2-6.4.1-6.7,1ZM77.8,149.7l-.3,12.8-16.9-.2c-9.4-.1-17.6-.5-18.3-.7-1-.4-1.3-3.5-1.3-11.9,0-6.3.3-11.7.7-12,.3-.4,8.7-.7,18.5-.7h17.9l-.3,12.7Z"/>
  <path class="b" d="M49,150c0,4.9.1,5,3,5s3-.1,3-5-.1-5-3-5-3,.1-3,5Z"/>
  <path class="b" d="M64,150c0,4.9.1,5,3,5s3-.1,3-5-.1-5-3-5-3,.1-3,5Z"/>
  <path class="b" d="M128.8,110.7c-.2.5-.2,14.4,0,31l.3,30.3h44.3c39.6,0,44.5-.2,45-1.6.3-.9.6-14.1.6-29.4s-.3-28.5-.6-29.4c-.5-1.4-4.5-1.6-34.5-1.6h-33.9v52.1l-3.7-.3-3.8-.3-.3-25.8-.2-25.7h-6.5c-3.5,0-6.5.3-6.7.7ZM194.8,147.8l.3,13.2-17.8-.2-17.8-.3-.3-11.9c-.1-6.6,0-12.6.2-13.3.4-1.1,4.2-1.3,17.8-1.1l17.3.3.3,13.3Z"/>
  <path class="b" d="M171.2,150.2c.3,2.1.9,2.3,7.6,2.6,7.1.3,7.2.3,7.2-2.3s-.1-2.5-7.6-2.5-7.5.1-7.2,2.2Z"/>
  <path class="b" d="M.2,214.2l.3,29.3,25.5.3c14,.2,27,0,28.8-.3l3.2-.6-.2-28.7-.3-28.7-28.8-.3-28.7-.2.2,29.2ZM45,223.5v10.5H9v-21h36v10.5Z"/>
  <path class="b" d="M17,224c0,3.8.2,4,3,4s3-.2,3-4-.2-4-3-4-3,.2-3,4Z"/>
  <path class="b" d="M31,224c0,3.9.1,4,3.5,4s3.5-.1,3.5-4-.1-4-3.5-4-3.5.1-3.5,4Z"/>
  <path class="b" d="M80.6,187.2c-.3,1.3-.6,14.1-.6,28.4,0,19.7.3,26.4,1.3,27.2,1.5,1.2,70.6,1.6,72.5.4.9-.7,1.2-7.2,1-29.3l-.3-28.4-36.6-.3-36.7-.2-.6,2.2ZM133,222.5v11.5h-40v-23h40v11.5Z"/>
  <path class="b" d="M101,222.5v4.5h8v-9h-8v4.5Z"/>
  <path class="b" d="M117,222.5q0,4.5,3.5,4.5t3.5-4.5-3.5-4.5-3.5,4.5Z"/>
  <path class="b" d="M177.2,214.2l.3,29.3,10,.2c5.5,0,18.2-.1,28.3-.4l18.2-.5-.2-28.7-.3-28.6-28.3-.3-28.2-.2.2,29.2ZM192,219v8h7v-5.4c0-4.9.2-5.4,2.4-6,4.5-1.1,5.6.1,5.6,6,0,5.3,0,5.4,3,5.4h2.9l.3-7.8.3-7.7h8l.3,11.2.3,11.3h-38.1v-10.8c0-6,.3-11.2.7-11.5.3-.4,2.1-.7,4-.7h3.3v8Z"/>
  <path class="b" d="M15,267.1c-.9,1.6-.8,2.5.6,4,2,2.3,7.6,2.5,9.4.4.9-1.1.7-1.9-1.4-4-3.1-3.1-7.1-3.3-8.6-.4Z"/>
  <path class="b" d="M34.4,266.4c-.3.8-.4,2.5-.2,3.8l.3,2.3h153v-7l-76.3-.3c-65.5-.2-76.3,0-76.8,1.2Z"/>
  <path class="b" d="M199,267.7c-2.8,3.6-2.1,4.7,3.3,5.1,5.7.4,8.7-1.1,8.7-4.2,0-4.5-8.6-5.2-12-.9Z"/>
</svg>