<svg xmlns="http://www.w3.org/2000/svg" xmlns:xlink="http://www.w3.org/1999/xlink" width="29.952" height="29.898" viewBox="0 0 29.952 29.898">
  <defs>
    <clipPath id="clip-path">
      <rect id="Rechteck_437" data-name="Rechteck 437" width="20.63" height="21.716" fill="#707070"/>
    </clipPath>
  </defs>
  <g id="Gruppe_747" data-name="Gruppe 747" transform="translate(15.882) rotate(47)">
    <g id="Gruppe_747-2" data-name="Gruppe 747" clip-path="url(#clip-path)">
      <path id="Pfad_680" data-name="Pfad 680" d="M8.659,12.5.019,15.2c-.006-.1-.013-.184-.014-.265,0-.551.007-1.1-.005-1.653a.385.385,0,0,1,.21-.384Q4.32,10.335,8.425,7.77a.468.468,0,0,0,.261-.459c-.011-1.865-.009-3.731,0-5.6A1.639,1.639,0,0,1,9.839.072a1.618,1.618,0,0,1,2.1,1.6c.009,1.815.014,3.629-.007,5.444a.759.759,0,0,0,.424.755c2.7,1.664,5.377,3.351,8.066,5.025a.384.384,0,0,1,.212.383c-.012.627,0,1.254,0,1.922l-8.688-2.713v.282c0,1.815,0,3.629,0,5.444a.435.435,0,0,0,.2.4c.6.44,1.192.9,1.795,1.336a.4.4,0,0,1,.185.379c-.01.449,0,.9,0,1.384-.292-.08-.564-.153-.835-.23-.911-.261-1.82-.529-2.733-.78a.914.914,0,0,0-.464,0c-1.173.326-2.342.666-3.562,1.015a7.1,7.1,0,0,0-.008-.949,1.009,1.009,0,0,1,.543-1.1,17.967,17.967,0,0,0,1.468-1.092.421.421,0,0,0,.153-.285c.009-1.874.007-3.748.006-5.622a1.639,1.639,0,0,0-.02-.172" transform="translate(0 0)" fill="#707070"/>
    </g>
  </g>
</svg>
