<svg id="Gruppe_742" data-name="Gruppe 742" xmlns="http://www.w3.org/2000/svg" xmlns:xlink="http://www.w3.org/1999/xlink" width="20.855" height="20.579" viewBox="0 0 20.855 20.579">
  <defs>
    <clipPath id="clip-path">
      <rect id="Rechteck_434" data-name="Rechteck 434" width="20.855" height="20.579" fill="#707070"/>
    </clipPath>
  </defs>
  <g id="Gruppe_742-2" data-name="Gruppe 742" clip-path="url(#clip-path)">
    <path id="Pfad_667" data-name="Pfad 667" d="M0,101.639q4.775,1.791,9.552,3.576a.292.292,0,0,1,.227.332q-.009,5.618,0,11.236v.25L0,113.368V101.639m5.213,11.772c0-.446.005-.865-.006-1.284,0-.054-.079-.132-.138-.155-.351-.141-.708-.269-1.062-.4l-1.4-.525c0,.445-.005.864.006,1.283,0,.054.079.132.138.156.389.155.783.3,1.176.445l1.286.483" transform="translate(0 -96.455)" fill="#707070"/>
    <path id="Pfad_668" data-name="Pfad 668" d="M226.874,101.867v.225q0,5.64,0,11.279c0,.144-.023.227-.177.284q-4.722,1.761-9.44,3.534c-.043.016-.088.03-.16.055v-.232q0-5.64,0-11.279a.256.256,0,0,1,.2-.291c.954-.349,1.9-.709,2.857-1.064.062-.023.126-.042.206-.069v3.253l1.329-.5c.362-.135.72-.28,1.086-.4a.251.251,0,0,0,.2-.293c-.008-.957,0-1.914,0-2.871,0-.106,0-.183.133-.231,1.226-.453,2.45-.915,3.674-1.374.025-.009.051-.014.1-.028" transform="translate(-206.022 -96.671)" fill="#707070"/>
    <path id="Pfad_669" data-name="Pfad 669" d="M21.619,3.888c-1.142.428-2.247.819-3.33,1.262a1.258,1.258,0,0,1-1.121-.04c-1.045-.5-2.111-.955-3.166-1.432a.385.385,0,0,0-.344,0c-.746.323-1.5.638-2.243.956-.055.024-.109.052-.191.091l3.892,1.607L14,6.744c-.881.331-1.762.665-2.645.99a.417.417,0,0,1-.267.006Q6.027,5.849.967,3.948C.929,3.934.894,3.915.832,3.886a1.418,1.418,0,0,1,.147-.078q5.051-1.9,10.1-3.786a.386.386,0,0,1,.249,0q5.073,1.9,10.142,3.8c.036.013.069.033.146.071" transform="translate(-0.79 0.001)" fill="#707070"/>
  </g>
</svg>
