<?xml version="1.0" encoding="utf-8"?>
<!-- Generator: Adobe Illustrator 28.0.0, SVG Export Plug-In . SVG Version: 6.00 Build 0)  -->
<svg version="1.1" id="Ebene_1" xmlns="http://www.w3.org/2000/svg" xmlns:xlink="http://www.w3.org/1999/xlink" x="0px" y="0px"
	 viewBox="0 0 423 423" xml:space="preserve">
<g>
	<path d="M84.39,138.39c2.46-15.1,9.82-26.49,22.46-34.34c12.61-7.84,26.33-7.61,40.84-4.74c0-2.07-0.03-3.51,0-4.96
		c0.22-10.74-0.42-21.58,0.88-32.19c2.3-18.83,19.26-34.01,38.25-34.59c17.86-0.54,35.75-0.26,53.63-0.13
		c7.02,0.05,12.08,5.77,11.47,12.96c-0.64,7.59-1.72,15.14-2.74,22.7c-2.08,15.39,8.14,28.08,22.74,28.1
		c13.41,0.02,24.03-11.15,23.01-24.6c-0.63-8.34-1.75-16.65-2.76-24.96c-1-8.18,4.11-14.21,12.41-14.24
		c16.63-0.06,33.26-0.14,49.88,0.02c22.64,0.21,40.79,17.27,41.62,39.85c0.64,17.48,0.34,35.01,0.19,52.51
		c-0.06,7.66-5.55,12.54-13.27,11.92c-7.71-0.63-15.39-1.7-23.07-2.73c-10.01-1.34-18.12,1.89-23.63,10.32
		c-5.16,7.9-5.3,16.38-0.37,24.45c5.27,8.63,13.37,12.03,23.35,10.92c7.82-0.87,15.63-1.86,23.44-2.8
		c7.02-0.85,13.35,3.81,13.43,10.86c0.2,19,0.77,38.06-0.39,56.99c-1.27,20.67-20.08,36.29-42.03,36.58
		c-10.5,0.14-21,0.03-31.51,0.03c-1.36,0-2.71,0-4.54,0c0.41,4.1,0.92,7.89,1.15,11.69c1.32,21.24-7.34,37.02-26.14,47.04
		c-2.05,1.09-2.53,2.32-2.46,4.38c0.23,7.15-0.11,14.2-2.72,21.03c-6.06,15.85-21.01,26.78-37.98,27.02
		c-17.12,0.25-34.26,0.13-51.38,0.06c-7.57-0.03-12.77-5.54-12.13-13.09c0.65-7.59,1.74-15.14,2.75-22.7
		c2.06-15.37-8.21-28.01-22.84-28c-13.38,0-24.01,11.28-22.93,24.67c0.67,8.34,1.77,16.65,2.78,24.96
		c0.97,7.99-4.1,14.11-12.13,14.15c-17,0.08-34.01,0.21-51.01-0.04c-21.92-0.33-39.98-17.59-40.77-39.53
		c-0.63-17.61-0.34-35.26-0.2-52.89c0.06-7.49,5.5-12.41,12.97-11.84c7.72,0.6,15.4,1.63,23.07,2.7c9.99,1.4,18.14-1.66,23.75-10.05
		c5.34-7.99,5.52-16.57,0.49-24.76c-5.29-8.62-13.4-11.98-23.38-10.83c-7.82,0.9-15.63,1.88-23.44,2.81
		c-6.99,0.83-13.28-3.91-13.35-10.96c-0.2-18.88-0.6-37.79,0.35-56.62c0.92-18.2,17.33-34.19,35.46-36.34
		C79.78,138.88,82,138.66,84.39,138.39z M226.47,51.39c-1.52,0-2.74,0-3.97,0c-10.38,0-20.75-0.01-31.13,0
		c-12.3,0.01-19.66,7.29-19.68,19.51c-0.03,13.63,0.04,27.26-0.03,40.89c-0.04,8.04-5.51,13.08-13.48,12.5
		c-3.98-0.29-7.95-0.87-11.93-1.26c-5.71-0.56-11.48-1.82-17.14-1.44c-13.49,0.91-22.68,12.59-21.13,25.89
		c1.49,12.74,13.55,21.69,26.71,19.91c7.43-1,14.86-1.99,22.32-2.71c9.41-0.91,14.64,4.01,14.65,13.5c0.02,18.01,0,36.01,0.01,54.02
		c0.01,12.75,7.26,20.07,19.94,20.08c15.38,0.02,30.75-0.01,46.13,0.01c10.79,0.01,15.39,5.52,13.91,16.24
		c-1.08,7.79-2.3,15.61-2.64,23.45c-0.57,13.5,10.13,24.25,23.25,24.02c13.54-0.24,23.77-11.59,22.61-25.37
		c-0.65-7.72-1.67-15.4-2.56-23.1c-1.15-9.97,3.43-15.21,13.42-15.23c15.63-0.03,31.25,0.02,46.88-0.02
		c12.26-0.02,19.61-7.32,19.69-19.58c0.07-10.5,0.02-21.01,0.01-31.51c0-1.19-0.13-2.39-0.22-3.78c-4.43,0.45-8.39,1-12.37,1.23
		c-19.3,1.13-34.63-6.21-44.49-22.84c-9.92-16.74-9.53-34.11,1.41-50.24c10.8-15.93,26.39-22.68,45.67-20.45
		c3.18,0.37,6.37,0.69,9.63,1.04c0-13.7,0.45-27.06-0.18-40.37c-0.34-7.3-7.38-13.8-14.93-14.11c-12.95-0.52-25.94-0.14-39.22-0.14
		c0.45,4.41,1.06,8.6,1.27,12.8c0.94,19.47-6.7,34.79-23.55,44.53c-16.59,9.58-33.7,8.99-49.57-1.8
		c-16.08-10.94-22.69-26.68-20.39-46.07C225.75,57.91,226.08,54.83,226.47,51.39z" fill="#313131"/>
</g>
</svg>