<?xml version="1.0" encoding="utf-8"?>
<!-- Generator: Adobe Illustrator 28.4.1, SVG Export Plug-In . SVG Version: 6.00 Build 0)  -->
<svg version="1.1" id="Ebene_1" xmlns="http://www.w3.org/2000/svg" xmlns:xlink="http://www.w3.org/1999/xlink" x="0px" y="0px"
	 viewBox="0 0 504 504" style="enable-background:new 0 0 504 504;" xml:space="preserve">
<style type="text/css">
	.st0{display:none;fill:#247EA4;}
	.st1{fill:#ffffff;}
</style>
<path class="st0" d="M479.97,504H24.03C10.76,504,0,493.24,0,479.97V24.03C0,10.76,10.76,0,24.03,0h455.94
	C493.24,0,504,10.76,504,24.03v455.94C504,493.24,493.24,504,479.97,504z"/>
<g>
	<path class="st1" d="M60.47,246.81c0.3-0.66,0.65-1.3,0.9-1.98c2.57-6.86,8-10.87,15.39-10.87c44.61-0.05,89.22-0.07,133.83,0.01
		c9.3,0.02,16.07,6.81,16.07,16.1c0.06,59.06,0.04,118.13,0.02,177.19c0,8.76-5.29,13.46-12.83,16.34c-46.64,0-93.28,0-139.92,0
		c-6.97-2.01-11.48-6.47-13.47-13.47C60.47,369.02,60.47,307.91,60.47,246.81z M143.55,299.3c15.82,0,31.63-0.06,47.45,0.06
		c2.73,0.02,3.7-0.64,3.61-3.51c-0.21-6.59-0.14-13.2-0.02-19.8c0.04-2.28-0.72-2.99-2.99-2.98c-32.01,0.06-64.02,0.06-96.02,0
		c-2.27,0-3.03,0.63-2.99,2.95c0.13,6.6,0.18,13.2-0.02,19.8c-0.08,2.78,0.7,3.58,3.53,3.56
		C111.92,299.23,127.73,299.3,143.55,299.3z M143.95,325.49c-15.94,0-31.88,0.07-47.82-0.06c-2.79-0.02-3.64,0.73-3.55,3.54
		c0.21,6.59,0.15,13.2,0.02,19.8c-0.05,2.3,0.69,2.96,2.97,2.96c32.01-0.06,64.02-0.07,96.02,0.01c2.65,0.01,3.05-1.09,3.01-3.33
		c-0.11-6.47-0.18-12.96,0.03-19.43c0.09-2.84-0.83-3.57-3.59-3.55C175.33,325.55,159.64,325.49,143.95,325.49z M143.54,404.07
		c15.82,0,31.63-0.06,47.45,0.06c2.72,0.02,3.71-0.63,3.62-3.51c-0.21-6.59-0.14-13.2-0.02-19.8c0.04-2.27-0.7-3-2.99-2.99
		c-32.01,0.06-64.02,0.06-96.02,0c-2.25,0-3.04,0.61-3,2.94c0.14,6.6,0.18,13.2-0.02,19.8c-0.08,2.77,0.68,3.6,3.52,3.57
		C111.91,404,127.73,404.07,143.54,404.07z"/>
	<path class="st1" d="M60.47,430.13c1.98,7,6.5,11.46,13.47,13.47c-3.99,0-7.98-0.07-11.97,0.04c-1.3,0.04-1.58-0.24-1.54-1.54
		C60.54,438.11,60.47,434.12,60.47,430.13z"/>
	<path class="st1" d="M277.32,165.34c0-28.8,0.28-57.61-0.14-86.4c-0.18-12.03,8.69-18.65,18.55-18.58c43.14,0.3,86.28,0.13,129.42,0.13
		c11.94,0,18.42,6.52,18.42,18.52c0,57.6,0,115.21,0,172.81c0,12.07-6.32,18.37-18.49,18.37c-43.14,0.01-86.28-0.2-129.42,0.14
		c-11.24,0.09-18.65-7.97-18.49-18.59C277.61,222.94,277.32,194.14,277.32,165.34z M360.52,100c-15.82,0-31.65,0.06-47.47-0.06
		c-2.68-0.02-3.74,0.55-3.64,3.47c0.22,6.6,0.14,13.21,0.03,19.81c-0.04,2.24,0.62,3.02,2.95,3.02c32.02-0.06,64.05-0.07,96.07,0.02
		c2.66,0.01,3.04-1.05,3-3.3c-0.11-6.35-0.2-12.71,0.03-19.06c0.11-3.05-0.67-4.01-3.86-3.97C391.92,100.09,376.22,100,360.52,100z
		 M360.13,178.59c15.95,0,31.9-0.07,47.85,0.07c2.86,0.03,3.58-0.83,3.5-3.58c-0.2-6.6-0.16-13.21-0.01-19.81
		c0.05-2.34-0.75-2.92-2.99-2.92c-32.02,0.06-64.05,0.06-96.07,0c-2.3,0-3.01,0.7-2.97,2.98c0.13,6.6,0.19,13.21-0.02,19.81
		c-0.09,2.89,0.89,3.53,3.62,3.51C328.73,178.52,344.43,178.59,360.13,178.59z M360.5,204.77c-15.82,0-31.65,0.06-47.47-0.06
		c-2.7-0.02-3.72,0.58-3.62,3.49c0.22,6.6,0.15,13.21,0.03,19.81c-0.04,2.26,0.66,3.01,2.96,3c32.02-0.06,64.05-0.06,96.07,0
		c2.25,0,3.04-0.6,2.99-2.93c-0.14-6.6-0.18-13.21,0.01-19.81c0.08-2.75-0.64-3.6-3.5-3.57
		C392.15,204.84,376.33,204.77,360.5,204.77z"/>
	<path class="st1" d="M368.78,351.87c0,2.29,0,3.47,0,4.66c0,20.44,0.01,40.88-0.01,61.32c-0.01,9.51-5.03,14.54-14.54,14.55
		c-30.66,0.01-61.32-0.05-91.98,0.08c-3.38,0.01-4.53-0.81-4.36-4.31c0.29-6.09,0.25-12.22,0.01-18.31
		c-0.12-3.07,0.97-3.71,3.82-3.7c25.43,0.1,50.85-0.04,76.28,0.16c3.87,0.03,4.73-1.06,4.68-4.77c-0.21-15.58-0.09-31.16-0.1-46.74
		c0-0.59-0.06-1.18-0.14-2.54c-4.44,5.15-8.51,9.75-12.43,14.49c-1.6,1.94-2.72,2.2-4.73,0.36c-4.95-4.54-10.11-8.85-15.26-13.17
		c-1.54-1.29-1.78-2.15-0.31-3.83c10.21-11.74,20.29-23.58,30.42-35.39c1.78-2.08,3.52-4.2,5.4-6.19
		c6.21-6.61,14.13-6.83,20.14-0.13c9.14,10.19,17.97,20.66,26.93,31.01c2.85,3.29,5.64,6.64,8.59,9.84c1.8,1.96,2.4,3.22-0.27,5.27
		c-4.93,3.78-9.55,7.98-14.09,12.24c-2.44,2.29-3.91,1.99-5.9-0.56C377.29,361.56,373.31,357.18,368.78,351.87z"/>
	<path class="st1" d="M158.59,152.17c4.14-4.77,8.35-9.5,12.39-14.36c1.16-1.39,1.9-2.05,3.53-0.63c5.54,4.82,11.16,9.55,16.77,14.29
		c1.35,1.14,0.8,2.08-0.12,3.15c-9.44,10.93-18.87,21.87-28.29,32.82c-2.52,2.92-5.08,5.81-7.53,8.8c-5.23,6.36-14.44,7.01-20,0.85
		c-9.17-10.17-17.99-20.66-26.93-31.03c-3.25-3.77-6.37-7.66-9.71-11.35c-1.3-1.44-1.35-2.28,0.15-3.55
		c5.53-4.65,11.01-9.35,16.42-14.14c1.88-1.66,2.64-0.08,3.55,0.96c4.07,4.66,8.09,9.37,12.61,14.63c0.08-1.86,0.18-3.02,0.18-4.19
		c0.01-20.2,0-40.4,0.01-60.6c0.01-10.2,5.19-15.34,15.46-15.34c30.43,0,60.85,0.05,91.28-0.08c3.31-0.01,4.31,0.85,4.15,4.16
		c-0.27,5.85-0.29,11.73,0,17.57c0.17,3.52-0.74,4.65-4.46,4.62c-25.31-0.17-50.63-0.03-75.94-0.16c-3.34-0.02-4.44,0.74-4.39,4.28
		c0.2,16.31,0.09,32.63,0.09,48.94C158.06,151.92,158.32,152.05,158.59,152.17z"/>
</g>
</svg>
