<?xml version="1.0" encoding="UTF-8"?>
<svg id="Ebene_1" data-name="Ebene 1" xmlns="http://www.w3.org/2000/svg" version="1.1" viewBox="0 0 327.3 327.3">
  <defs>
    <style>
      .cls-1 {
        fill: #ffffff;
        stroke-width: 0px;
      }
    </style>
  </defs>
  <path class="cls-1" d="M80.7,242.8c0,9,0,17.5,0,25.9,0,1.6,0,3.2,0,4.9,0,3.4-1.3,6.1-4.5,7.6-3.1,1.5-6.1,1-8.7-1.2-9.4-7.5-18.7-15-28.1-22.4-9.6-7.7-19.3-15.4-28.9-23.1-6.4-5.1-6.5-10.1,0-15.3,18.8-15.1,37.6-30.1,56.4-45.2,2.9-2.3,5.9-3.3,9.3-1.7,3.5,1.6,4.6,4.6,4.6,8.3,0,8.6,0,17.2,0,25.8,0,1.3,0,2.7,0,4.4,1.9,0,3.3,0,4.8,0,61.9,0,123.8,0,185.7,0,8.4,0,14.8,4.6,16.7,11.8,2.4,9.2-3.3,18.2-12.7,19.8-2,.3-4,.4-6,.4-61,0-122,0-183,0h-5.4Z"/>
  <path class="cls-1" d="M240.5,83c0-8.2,0-15.9,0-23.6,0-2.4,0-4.7,0-7.1,0-3.4,1.2-6.1,4.4-7.6,3.3-1.6,6.3-1,9,1.3,8.8,7,17.5,14,26.3,21,10.1,8.1,20.3,16.2,30.4,24.3,6.6,5.3,6.6,10.2,0,15.5-18.7,15-37.4,29.9-56.1,44.9-3,2.4-6.1,3.5-9.7,1.8-3.7-1.7-4.5-5-4.5-8.7,0-9.7,0-19.4,0-29.7h-4.6c-61.9,0-123.7,0-185.6,0-8.4,0-14.6-4.1-16.8-11.1-2.9-9.1,2.8-18.7,12.2-20.5,2.1-.4,4.2-.4,6.3-.4,61.1,0,122.2,0,183.3,0h5.1Z"/>
</svg>