<svg xmlns="http://www.w3.org/2000/svg" width="19.782" height="21.315" viewBox="0 0 19.782 21.315">
  <g id="Gruppe_9" data-name="Gruppe 9" transform="translate(-119.733 -229.552)">
    <path id="Pfad_30" data-name="Pfad 30" d="M319.17,279.787c-.564-.109-1.127-.221-1.691-.327-.763-.143-1.526-.282-2.289-.423-.253-.047-.375-.187-.351-.4s.159-.3.418-.309a8.845,8.845,0,0,0,1.406-.082,2.079,2.079,0,0,0,1.626-1.966c.005-.1,0-.208,0-.312q0-7.585,0-15.169c0-.062,0-.125,0-.187,0-.34.17-.48.506-.418q.889.162,1.778.329c.654.122,1.308.242,1.961.366a1.434,1.434,0,0,1,1.2,1.738q-.964,5.221-1.936,10.441c-.336,1.812-.677,3.623-1,5.436a1.515,1.515,0,0,1-1.215,1.287Zm1.791-16.437c.245.009.39-.1.423-.276a.333.333,0,0,0-.261-.408c-.228-.057-.46-.094-.691-.136-.435-.08-.869-.165-1.306-.232a.34.34,0,0,0-.407.293.358.358,0,0,0,.288.4c.08.022.162.033.244.048Zm-.324,1.752a.366.366,0,0,0,.426-.277.328.328,0,0,0-.242-.4q-.648-.141-1.3-.244a.349.349,0,0,0-.12.686C319.822,264.957,320.252,265.03,320.637,265.1Z" transform="translate(-184.254 -28.92)"/>
    <path id="Pfad_31" data-name="Pfad 31" d="M133.329,239.121q0,4.027,0,8.054a1.433,1.433,0,0,1-1.063,1.461,1.916,1.916,0,0,1-.473.056q-5.266,0-10.533,0a1.434,1.434,0,0,1-1.524-1.508q0-8.064,0-16.128a1.428,1.428,0,0,1,1.524-1.5h10.533a1.44,1.44,0,0,1,1.537,1.536Q133.33,235.105,133.329,239.121Zm-3.578-7.571c-.319,0-.637,0-.956,0a.357.357,0,0,0-.4.358.352.352,0,0,0,.384.349q.966.005,1.933,0a.349.349,0,0,0,.384-.347.353.353,0,0,0-.393-.36C130.389,231.548,130.07,231.551,129.751,231.551Zm.379,2.49h0c.2,0,.4.007.6,0a.35.35,0,0,0,.366-.368.34.34,0,0,0-.371-.337c-.4-.006-.79-.005-1.185,0a.343.343,0,0,0-.386.343.354.354,0,0,0,.391.365C129.742,234.046,129.937,234.041,130.131,234.041Z" transform="translate(0 0)"/>
  </g>
</svg>
