<svg xmlns="http://www.w3.org/2000/svg" width="23.847" height="26.158" viewBox="0 0 23.847 26.158">
  <g id="Gruppe_15" data-name="Gruppe 15" transform="translate(-144.649 -253.468)">
    <path id="Pfad_36" data-name="Pfad 36" d="M164.055,263.771c-3.863-2.1-7.434-1.846-10.592,1.33a8.14,8.14,0,0,0-.745,10.092h-.269q-2.451,0-4.9,0a2.776,2.776,0,0,1-2.893-2.879q-.009-7.982,0-15.964a2.781,2.781,0,0,1,2.9-2.879q4.26,0,8.52,0h.3c.005.115.014.216.014.318,0,1.313,0,2.627,0,3.94a2.785,2.785,0,0,0,2.952,2.937c1.478,0,2.957.006,4.435-.005.248,0,.311.076.307.314-.013.856,0,1.712-.006,2.568C164.072,263.625,164.06,263.708,164.055,263.771Z"/>
    <path id="Pfad_37" data-name="Pfad 37" d="M265.537,402.522,268.027,405c.379.377.76.754,1.135,1.135a.95.95,0,0,1,.059,1.4.938.938,0,0,1-1.376-.074q-1.706-1.7-3.4-3.406a1.932,1.932,0,0,1-.184-.251,6.273,6.273,0,1,1,1.279-1.279Z" transform="translate(-101.004 -128.172)"/>
    <path id="Pfad_38" data-name="Pfad 38" d="M319.078,260.241l5.219,4.774c-.129.012-.207.025-.286.025q-1.954,0-3.908,0a.922.922,0,0,1-1.023-1C319.075,262.8,319.078,261.569,319.078,260.241Z" transform="translate(-160.828 -6.245)"/>
  </g>
</svg>
