<svg xmlns="http://www.w3.org/2000/svg" width="21.057" height="21.54" viewBox="0 0 21.057 21.54">
  <g id="Gruppe_17" data-name="Gruppe 17" transform="translate(-63.222 -153.319)">
    <path id="Pfad_39" data-name="Pfad 39" d="M64.524,154.9c0,.847,0,1.662,0,2.478a.66.66,0,0,1-.488.682.639.639,0,0,1-.806-.6c-.013-1.083-.012-2.167,0-3.25a.62.62,0,0,1,.615-.61q1.614-.015,3.228,0a.647.647,0,0,1-.013,1.294c-.758.008-1.517,0-2.275,0Z" transform="translate(0 -0.26)"/>
    <path id="Pfad_40" data-name="Pfad 40" d="M345.425,154.622c-.854,0-1.676,0-2.5,0a.646.646,0,0,1-.674-.573.634.634,0,0,1,.609-.721q1.624-.018,3.249,0a.623.623,0,0,1,.611.658q.009,1.581,0,3.162a.648.648,0,1,1-1.3-.009c-.007-.751,0-1.5,0-2.253C345.425,154.806,345.425,154.727,345.425,154.622Z" transform="translate(-264.862)"/>
    <path id="Pfad_41" data-name="Pfad 41" d="M64.8,435.864c.821,0,1.614,0,2.407,0a1.158,1.158,0,0,1,.32.038.643.643,0,0,1-.156,1.255q-1.624.012-3.249,0a.62.62,0,0,1-.617-.628q-.012-1.6,0-3.205a.648.648,0,0,1,1.3.018c.007.751,0,1.5,0,2.252C64.8,435.676,64.8,435.754,64.8,435.864Z" transform="translate(-0.259 -265.189)"/>
    <g id="Gruppe_16" data-name="Gruppe 16" transform="translate(64.439 155.003)">
      <path id="Pfad_42" data-name="Pfad 42" d="M106.6,204.179c-.486-.494-.979-.982-1.471-1.472-1.072-1.067-2.145-2.133-3.228-3.21a8.229,8.229,0,0,0-1.772-11.462,8.146,8.146,0,1,0,.114,13.12,2.507,2.507,0,0,0,.238.325q2.2,2.211,4.412,4.415a1.216,1.216,0,0,0,1.783.1A1.231,1.231,0,0,0,106.6,204.179Zm-15.186-7.311a2.166,2.166,0,1,1,2.177-2.173A2.161,2.161,0,0,1,91.411,196.868Zm6.234-.587a2.006,2.006,0,0,1-2.679.15,2.229,2.229,0,0,1-.854-1.911A2.02,2.02,0,0,1,95.24,192.8a2.094,2.094,0,0,1,2.182.064.431.431,0,0,1,.24.486.386.386,0,0,1-.375.333.836.836,0,0,1-.38-.122,1.3,1.3,0,0,0-1.9.837,1.289,1.289,0,0,0,1.555,1.553,1.331,1.331,0,0,0,.452-.277.457.457,0,0,1,.655-.035A.434.434,0,0,1,97.644,196.281Zm3.541-.157a.434.434,0,1,1-.665.552c-.345-.387-.687-.778-1.074-1.217,0,.267,0,.478,0,.689,0,.1.005.2,0,.3a.432.432,0,0,1-.442.415.421.421,0,0,1-.419-.434c-.007-.375,0-.751,0-1.127q0-1.127,0-2.253c0-.357.158-.515.515-.518.3,0,.592-.007.888,0a1.373,1.373,0,0,1,1.317,1.111,1.327,1.327,0,0,1-.821,1.446l-.14.064C100.635,195.5,100.915,195.805,101.186,196.124Z" transform="translate(-87.195 -186.479)"/>
      <path id="Pfad_43" data-name="Pfad 43" d="M329.328,322.858a5.412,5.412,0,0,0-.543,0v.92a4.525,4.525,0,0,0,.563,0,.464.464,0,0,0,.426-.463A.48.48,0,0,0,329.328,322.858Z" transform="translate(-316.52 -315.926)"/>
      <path id="Pfad_44" data-name="Pfad 44" d="M146.177,322.861a1.3,1.3,0,1,0,1.31,1.308A1.312,1.312,0,0,0,146.177,322.861Z" transform="translate(-141.962 -315.937)"/>
    </g>
  </g>
</svg>
