<svg id="Tolerance" xmlns="http://www.w3.org/2000/svg" xmlns:xlink="http://www.w3.org/1999/xlink" width="22.504" height="21.172" viewBox="0 0 22.504 21.172">
  <defs>
    <clipPath id="clip-path">
      <rect id="Rechteck_301" data-name="Rechteck 301" width="22.504" height="21.172" fill="#636363"/>
    </clipPath>
  </defs>
  <g id="Tolerance-2" data-name="Tolerance">
    <g id="Gruppe_475" data-name="Gruppe 475" clip-path="url(#clip-path)">
      <path id="Pfad_591" data-name="Pfad 591" d="M22.5,10.359c-.05.159-.1.319-.149.476a3.947,3.947,0,0,1-7.334.158,4.15,4.15,0,0,1-.235-1.021,1.6,1.6,0,0,1,.09-.685c.846-2.423,1.7-4.842,2.56-7.262.023-.066.041-.135.071-.235-.462.141-.892.271-1.322.4-.859.266-1.716.537-2.578.8a.349.349,0,0,0-.285.3A1.991,1.991,0,0,1,12.183,4.7a.3.3,0,0,0-.2.329q.008,3.725,0,7.45v7.275h.282c1.545,0,3.091,0,4.636,0a.7.7,0,0,1,.671.986.687.687,0,0,1-.662.425c-.315,0-.63,0-.945,0H5.724a.725.725,0,0,1-.8-.642.7.7,0,0,1,.719-.764c1.033,0,2.065,0,3.1,0h1.817c0-.1.012-.174.012-.252q0-7.241,0-14.483a.3.3,0,0,0-.2-.311,3.344,3.344,0,0,1-.569-.4c-.081-.067-.136-.1-.245-.063q-2.35.885-4.7,1.762a.969.969,0,0,0-.1.051c.071.212.141.424.215.635.878,2.52,1.748,5.043,2.642,7.558a2.388,2.388,0,0,1,.014,1.464,3.93,3.93,0,0,1-4.264,2.8A3.87,3.87,0,0,1,.033,15.469.187.187,0,0,0,0,15.414v-.923c.03-.065.066-.127.089-.195q1.523-4.369,3.042-8.74a.983.983,0,0,1,.63-.646C5.489,4.272,7.212,3.623,8.94,2.986A.281.281,0,0,0,9.162,2.7a2.123,2.123,0,0,1,1.5-1.913,2.09,2.09,0,0,1,2.29.754.222.222,0,0,0,.292.088Q15.778.837,18.315.06A.747.747,0,0,1,19.372.6q1.286,3.639,2.572,7.278c.18.508.373,1.011.56,1.516ZM3.852,7.785,1.665,14.071H6.046L3.852,7.785M16.479,8.977h4.359l-2.18-6.163-2.18,6.163" transform="translate(0 0)" fill="#636363"/>
    </g>
  </g>
</svg>