<svg xmlns="http://www.w3.org/2000/svg" width="22.75" height="22.769" viewBox="0 0 22.75 22.769">
  <path id="Pfad_46" data-name="Pfad 46" d="M92.59,190.393c-.558-.567-1.123-1.126-1.687-1.687-1.229-1.223-2.459-2.446-3.7-3.681a9.436,9.436,0,0,0-2.032-13.143,9.341,9.341,0,1,0,.131,15.044,2.869,2.869,0,0,0,.273.373q2.525,2.536,5.059,5.063a1.394,1.394,0,0,0,2.045.11A1.411,1.411,0,0,0,92.59,190.393Zm-6.979-11.022a.806.806,0,0,1-.806.806H80.661v4.145a.806.806,0,0,1-.806.806h-.2a.806.806,0,0,1-.806-.806v-4.145H74.7a.806.806,0,0,1-.806-.806v-.2a.806.806,0,0,1,.806-.806h4.145v-4.145a.806.806,0,0,1,.806-.806h.2a.806.806,0,0,1,.806.806v4.145h4.145a.806.806,0,0,1,.806.806Z" transform="translate(-70.343 -170.097)"/>
</svg>
