<svg id="Gruppe_746" data-name="Gruppe 746" xmlns="http://www.w3.org/2000/svg" xmlns:xlink="http://www.w3.org/1999/xlink" width="19.26" height="19.26" viewBox="0 0 19.26 19.26">
  <defs>
    <clipPath id="clip-path">
      <rect id="Rechteck_436" data-name="Rechteck 436" width="19.26" height="19.26" fill="#707070"/>
    </clipPath>
  </defs>
  <g id="Gruppe_745" data-name="Gruppe 745" clip-path="url(#clip-path)">
    <path id="Pfad_677" data-name="Pfad 677" d="M0,.419A.715.715,0,0,1,.739,0q8.9.01,17.807,0c.517,0,.713.2.713.715q0,1.015,0,2.03a.576.576,0,0,1-.639.639h-.527v.232c0,.476,0,.953,0,1.429a.563.563,0,0,1-.588.595q-1.1.006-2.2,0a.565.565,0,0,1-.6-.605c0-.483,0-.965,0-1.448,0-.061,0-.123,0-.193H11.323v.176c0,.483,0,.965,0,1.448a.57.57,0,0,1-.618.622q-1.072,0-2.144,0a.572.572,0,0,1-.623-.635c0-.532,0-1.064,0-1.608H4.552c0,.163,0,.324,0,.485,0,.395,0,.79,0,1.184A.554.554,0,0,1,4,5.643q-1.138.011-2.275,0a.556.556,0,0,1-.556-.587c0-.489,0-.978,0-1.466v-.2C.727,3.365.231,3.521,0,2.976Z" transform="translate(0 0)" fill="#707070"/>
    <path id="Pfad_678" data-name="Pfad 678" d="M0,135.9a.715.715,0,0,1,.739-.419q8.9.01,17.807,0c.517,0,.713.2.713.715q0,1.015,0,2.03a.576.576,0,0,1-.639.639h-.527v.232c0,.476,0,.953,0,1.429a.563.563,0,0,1-.588.594q-1.1.005-2.2,0a.565.565,0,0,1-.6-.605c0-.482,0-.965,0-1.448,0-.061,0-.122,0-.193H11.323v.176c0,.483,0,.965,0,1.448a.57.57,0,0,1-.618.622q-1.072,0-2.144,0a.572.572,0,0,1-.623-.635c0-.532,0-1.064,0-1.608H4.552c0,.163,0,.324,0,.485,0,.395,0,.79,0,1.184a.554.554,0,0,1-.552.572q-1.138.011-2.275,0a.556.556,0,0,1-.556-.587c0-.489,0-.978,0-1.466v-.2c-.439-.029-.935.127-1.166-.418Z" transform="translate(0 -128.679)" fill="#707070"/>
    <path id="Pfad_679" data-name="Pfad 679" d="M0,271.389a.726.726,0,0,1,.757-.419q8.9.011,17.8.005c.5,0,.7.2.7.706q0,1.015,0,2.029a.578.578,0,0,1-.648.649h-.507c0,.058-.011.112-.011.165,0,.445-.015.89,0,1.334a.706.706,0,0,1-.419.757H15.122a.705.705,0,0,1-.419-.757c.02-.444.005-.889,0-1.334,0-.053-.007-.107-.01-.155H11.323c0,.5-.015,1,0,1.489a.709.709,0,0,1-.419.757H8.351a.705.705,0,0,1-.419-.757c.02-.444.005-.889,0-1.334,0-.053-.007-.107-.01-.155H4.552c0,.5-.015,1,0,1.489a.709.709,0,0,1-.419.757H1.58a.69.69,0,0,1-.417-.753c.018-.248,0-.5,0-.748v-.75c-.444-.027-.935.125-1.166-.418Z" transform="translate(0 -257.356)" fill="#707070"/>
  </g>
</svg>
