<?xml version="1.0" encoding="utf-8"?>
<!-- Generator: Adobe Illustrator 25.0.1, SVG Export Plug-In . SVG Version: 6.00 Build 0)  -->
<svg version="1.1" xmlns="http://www.w3.org/2000/svg" xmlns:xlink="http://www.w3.org/1999/xlink" x="0px" y="0px"
	 viewBox="0 0 512 512" style="enable-background:new 0 0 512 512;" xml:space="preserve">
<style type="text/css">
	.st0{fill:none;stroke:#565656;stroke-width:15;stroke-linecap:round;stroke-linejoin:round;stroke-miterlimit:10;}
	.st1{fill:none;stroke:#565656;stroke-width:15;stroke-miterlimit:10;}
	.st2{fill:none;stroke:#565656;stroke-width:15;stroke-linecap:round;stroke-miterlimit:10;}
	.st3{fill:none;stroke:#565656;stroke-width:15;stroke-linecap:round;}
	.st4{fill:#565656;}
	.st5{fill:none;stroke:#565656;stroke-width:15;stroke-linecap:round;stroke-linejoin:round;}
	.st6{fill:none;stroke:#565656;stroke-width:15;stroke-linecap:round;stroke-linejoin:round;stroke-dasharray:24.8533,49.7066;}
	
		.st7{fill:none;stroke:#565656;stroke-width:15;stroke-linecap:round;stroke-linejoin:round;stroke-dasharray:24.8533,49.7066,24.8533,49.7066;}
	.st8{fill:#BABABA;}
	.st9{fill:none;stroke:#2388AE;stroke-width:15;stroke-linecap:round;}
	.st10{fill:none;stroke:#565656;stroke-width:15;stroke-linecap:round;stroke-miterlimit:10;stroke-dasharray:32.1931,42.9241;}
	
		.st11{fill:none;stroke:#565656;stroke-width:15;stroke-linecap:round;stroke-miterlimit:10;stroke-dasharray:32.1931,42.9241,32.1931,42.9241;}
	.st12{fill:none;stroke:#565656;stroke-width:15;stroke-linejoin:round;stroke-miterlimit:10;}
	.st13{fill:#FFFFFF;}
	.st14{fill:url(#SVGID_1_);}
	.st15{fill:url(#SVGID_2_);}
	.st16{fill:url(#SVGID_3_);}
	.st17{fill:url(#SVGID_4_);}
	.st18{fill:url(#SVGID_5_);}
	.st19{fill:url(#SVGID_6_);}
	.st20{fill:url(#SVGID_7_);}
	.st21{fill:url(#SVGID_8_);}
	.st22{fill:url(#SVGID_9_);}
	.st23{fill:url(#SVGID_10_);}
	.st24{fill:url(#SVGID_11_);}
	.st25{fill:url(#SVGID_12_);}
	.st26{fill:url(#SVGID_13_);}
	.st27{fill:url(#SVGID_14_);}
	.st28{fill:url(#SVGID_15_);}
	.st29{fill:url(#SVGID_16_);}
	.st30{fill:url(#SVGID_17_);}
	.st31{fill:url(#SVGID_18_);}
	.st32{fill:url(#SVGID_19_);}
	.st33{fill:url(#SVGID_20_);}
	.st34{fill:url(#SVGID_21_);}
	.st35{fill:url(#SVGID_22_);}
	.st36{fill:url(#SVGID_23_);}
	.st37{fill:url(#SVGID_24_);}
	.st38{fill:url(#SVGID_25_);}
	.st39{fill:url(#SVGID_26_);}
	.st40{fill:url(#SVGID_27_);}
	.st41{fill:url(#SVGID_28_);}
	.st42{fill:url(#SVGID_29_);}
	.st43{fill:url(#SVGID_30_);}
	.st44{fill:url(#SVGID_31_);}
	.st45{fill:url(#SVGID_32_);}
	.st46{fill:url(#SVGID_33_);}
	.st47{fill:url(#SVGID_34_);}
	.st48{fill:url(#SVGID_35_);}
	.st49{fill:url(#SVGID_36_);}
	.st50{fill:url(#SVGID_37_);}
	.st51{fill:url(#SVGID_38_);}
	.st52{enable-background:new    ;}
	.st53{fill:#717171;}
	.st54{fill:#555555;}
	.st55{fill:#7B7B7B;}
	.st56{fill:#9F9F9F;}
	.st57{fill:#6E6E6E;}
	.st58{fill:#8D8D8D;}
	.st59{fill:#606060;}
	.st60{fill:#A5A5A5;}
	.st61{fill:#5C5C5C;}
	.st62{fill:none;stroke:#5C5C5C;stroke-width:15;stroke-miterlimit:10;}
	.st63{fill:none;stroke:#5C5C5C;stroke-width:15;stroke-linecap:round;stroke-linejoin:round;stroke-miterlimit:10;}
</style>
<g id="Layer_1">
	<g>
		<path class="st61" d="M191,8.9c7.7,2.1,13.7,6.8,18.8,12.8c2.4,2.9,4.5,3.2,8.1,1.7c29-11.7,56.2-8.1,81.5,10.1
			c1.3,0.9,2.6,1.9,3.6,3.1c2.6,2.9,2.8,6.2,0.5,9.2c-2.5,3.3-6,3.8-9.4,1.7c-3.1-1.9-6-4.4-9.1-6.3c-28.1-17.6-64.8-11.6-86.8,14.1
			c-21.1,24.7-21.1,62.2,0,87c1.1,1.3,2.4,2.6,3.6,3.9c3.4,4,3.5,8.1,0.2,11.1c-3.1,2.7-7.3,2.3-10.7-1.2
			c-9.2-9.5-15.9-20.6-19.7-33.3c-5.8-19.4-4.7-38.4,3.4-57c1.1-2.6,1.2-4.3-1.1-6.2c-2.1-1.7-3.9-3.8-5.8-5.8
			c-14.3-15.1-8.6-37.7,11.2-44c0.7-0.2,1.4-0.6,2.1-1C184.6,8.9,187.8,8.9,191,8.9z M183,48.2c5.7-5.6,11.1-10.9,16.5-16.2
			c-3.9-4-7.9-10.1-15.9-8.2c-4.6,1-7.7,4.1-8.7,8.7C173.1,40.5,179.2,44.4,183,48.2z"/>
		<path class="st61" d="M245,503.6c-3.7-2.2-5.1-5.3-5-9.6c0.3-8-0.2-16.1,0.2-24.1c0.1-2.8,1.2-6,2.8-8.3
			c8.2-11.5,16.8-22.8,24.9-34.3c1.8-2.6,3.1-6.1,3.1-9.2c0.3-20.8,0.2-41.5,0.1-62.3c0-12.1-7.1-19-19.2-19.1
			c-3.7,0-7.4,0.1-11.1-0.1c-8.2-0.3-14.1-6.3-14.3-14.5c-0.2-6.3-0.1-12.6,0-18.8c0.1-4.8,2.7-7.6,6.8-7.7c4.3-0.2,7.3,2.7,7.5,7.6
			c0.2,6.1,0,12.2,0,19c4,0,7.6,0,11.2,0c20.1,0.2,33.5,13.6,33.5,33.7c0.1,20.8-0.1,41.5,0.1,62.3c0,6.6-1.8,12.2-5.7,17.5
			c-7.5,9.9-14.6,20-22.1,29.8c-2.3,3.1-3.6,6.1-3.4,10.1c0.3,5.9-0.1,11.9,0.1,17.9c0.2,4.4-1.1,7.8-4.8,10.3
			C248.2,503.6,246.6,503.6,245,503.6z"/>
		<path class="st61" d="M66.6,503.6c-3.7-2.7-4.6-6.5-4.5-10.9c0.2-10,0.3-19.9-0.1-29.9c-0.1-2.9-1.3-6.2-3-8.6
			c-5.9-8.2-13.5-15.5-14.4-26.2c-0.6-7.2-0.3-14.5-0.4-21.7c0-3.7-0.1-7.4,0-11.1c0.2-4.7,2.8-7.5,7-7.6c4.1-0.1,7.2,2.6,7.4,7.3
			c0.3,5.9,0.6,11.9,0,17.8c-1.3,12.2,2.1,22.5,10.9,31c6,5.8,7.8,12.7,7.3,20.9c-0.6,9.3-0.3,18.6-0.1,28c0.1,4.4-0.8,8.2-4.3,11
			C70.5,503.6,68.5,503.6,66.6,503.6z"/>
		<path class="st61" d="M93.8,280.1c12.5-14,31.1-16.3,46.8-5.6c11-12.6,24.9-11.4,39.9-8.1c0.1-1.5,0.3-3.2,0.3-4.8
			c0-19.3,0-38.6,0-58c0-13.5,5.7-23.8,18.1-29.3c19.5-8.7,41.2,5,41.8,26.9c0.6,23.2,0.2,46.4,0.1,69.5c0,5-3,8-7.1,8.1
			c-4.4,0.1-7.2-3-7.2-8.3c-0.1-22.4,0-44.8-0.1-67.1c0-10.2-6.5-17.1-15.7-17.1c-7.6,0-13.9,5.3-15.1,12.9
			c-0.4,2.2-0.4,4.5-0.4,6.7c0,30.9,0,61.8,0,92.7c0,1.8,0,3.6-0.2,5.3c-0.5,3.9-2.7,6.2-6.6,6.3c-4.1,0.2-6.9-2-7.3-6.1
			c-0.4-3.8-0.2-7.7-0.3-11.6c-0.2-9.5-4.5-13.8-14-14c-1.4,0-2.9-0.1-4.3,0c-8.1,0.5-12.6,5.1-12.9,13.2c-0.1,3.5,0.1,7.1,0,10.6
			c-0.1,4.7-2.7,7.6-6.8,7.7c-4.3,0.2-7.3-2.7-7.6-7.6c-0.2-2.7,0-5.5-0.1-8.2c-0.3-6.5-4.1-10.9-10.6-11.7
			c-3.3-0.4-6.8-0.4-10.1,0.1c-6.1,0.8-10,5.3-10.3,11.5c-0.1,2.9,0.1,5.8-0.1,8.7c-0.3,4.5-3.3,7.3-7.4,7.2
			c-3.9-0.1-6.8-2.8-6.9-7.1c-0.1-5.6-1.7-10.6-7.1-12.5c-6.3-2.3-13-2.6-19,1.1c-4.1,2.5-5,6.8-5,11.4c0.1,18.8,0,37.7,0,56.5
			c0,1.4,0.1,2.9-0.1,4.3c-0.5,4.1-3.6,7-7.3,7c-3.9,0-7-3.1-7-7.6c-0.1-21.4-0.2-42.8,0.1-64.2c0.2-11.1,9.3-21.2,20.2-23.6
			C74.6,273.5,84.5,274.9,93.8,280.1z"/>
		<path class="st61" d="M310.1,208.7c-10.7,10.7-21.5,21.5-32.3,32.3c-4,4-8.6,6.7-14.5,6.6c-4.5-0.1-7.4-2.4-7.8-6.2
			c-0.5-4.2,2-7,6.4-8.2c2.3-0.7,4.9-1.7,6.5-3.4c37.6-37.5,75.1-75.1,112.5-112.7c4.9-4.9,4.1-8.3-2.3-10.6
			c-9.7-3.4-19.5-6.4-29.1-10c-3-1.1-4.6-0.4-6.7,1.7c-11.8,12-23.8,23.9-35.8,35.9c-1,1-2,2.1-3.1,3c-3.3,2.6-7.4,2.4-9.9-0.6
			c-2.7-3.1-2.7-6.6,0-9.6c3.3-3.7,7-7.1,10.5-10.7c9.5-9.6,19.1-19.1,29.2-29.2c-4.8-4.8-9.4-9.4-14-14c-1.5-1.5-3-2.9-4.4-4.5
			c-3.3-3.7-3.4-7.7-0.2-10.7c2.9-2.7,7.1-2.7,10.4,0.5c6.5,6.3,12.7,12.8,19.2,19c2.1,2,4.8,3.7,7.6,4.7c10.4,3.8,21,7.1,31.4,10.8
			c16.4,5.7,20.1,21.9,7.8,34.3c-10.5,10.6-21.1,21.1-32,32c6.8,8.6,9.7,18.2,7.8,28.9c-1.3,7.7-5.2,14.1-10.9,19.4
			C343.5,219.3,328.6,219.8,310.1,208.7z M349.4,170.8c-9.3,9.4-18.4,18.6-27.5,27.7c6.9,5.8,17.2,5.3,24.5-1.5
			C354.4,189.4,355.6,179,349.4,170.8z"/>
		<path class="st61" d="M116.9,76.3c2.3,1.9,5.4,3.3,5.9,5.3c0.7,2.5,0.1,6.3-1.6,8.2c-5.1,6-9.4,12.3-11.1,20
			c-3.2,14.3-0.1,27.1,9.7,38.1c0.4,0.5,0.9,0.9,1.3,1.4c3.4,3.9,3.4,8.2,0.2,11.1c-3.3,3-7.2,2.5-11-1.5
			c-8.9-9.2-14.2-20.2-15.5-32.9c-1.7-17.4,3.4-32.7,15.6-45.4C112,79.1,114.2,78.1,116.9,76.3z"/>
		<path class="st61" d="M463.2,119.3c-0.1,15.6-5.3,28.6-15.8,39.6c-3.9,4.1-8,4.5-11.3,1.3c-3.1-3-2.8-7,0.7-11.1
			c16.1-18.7,16.1-40.1-0.1-58.7c-3.5-4-3.6-8.1-0.5-11.1c3.2-3,7.3-2.6,11,1.2C457.7,91.5,463,104.5,463.2,119.3z"/>
		<path class="st61" d="M434.2,119.5c0,8.4-3,15.1-8.8,20.5c-3.5,3.2-7.8,3.3-10.7,0.3c-2.8-2.9-2.6-6.9,0.4-10.4
			c6.5-7.4,6.5-12.6-0.1-20.3c-3-3.5-3-7.5-0.2-10.4c2.9-2.9,6.9-2.9,10.4,0.2C431.2,104.9,434.3,111.7,434.2,119.5z"/>
		<path class="st61" d="M123.4,120.4c0-8.6,3.1-15.5,9.1-20.9c3.4-3.1,7.5-3.1,10.3-0.2c2.8,2.8,2.8,7-0.1,10.4
			c-6.7,7.9-6.7,12.4,0.2,20.6c2.7,3.2,2.7,7.3,0.1,10c-2.7,2.9-7.1,3-10.4,0.1C126.6,134.9,123.5,128.1,123.4,120.4z"/>
		<path class="st61" d="M284.9,153.2c0,4.5-6.8,11.4-11.4,11.4c-3.8,0-7.1-3.1-7.2-6.9c-0.2-4.6,7.1-11.8,11.7-11.7
			C281.9,146.2,284.9,149.3,284.9,153.2z"/>
	</g>
</g>
<g id="Einstellungen">
</g>
</svg>
