<svg id="Layer_1" data-name="Layer 1" xmlns="http://www.w3.org/2000/svg" viewBox="0 0 512 512"><path d="M455.36,72.82H189.19a55,55,0,0,0-54.92,54.92V455.12A55,55,0,0,0,189.19,510H455.36a55,55,0,0,0,54.91-54.92V431.69a10,10,0,0,0-20,0v23.43A35,35,0,0,1,455.36,490H189.19a35,35,0,0,1-34.92-34.92V127.74a35,35,0,0,1,34.92-34.92H455.36a35,35,0,0,1,34.91,34.92v234.5a10,10,0,0,0,20,0V127.74A55,55,0,0,0,455.36,72.82Z"/><path d="M115.22,419.22H56.68A35,35,0,0,1,21.76,384.3V56.91A35,35,0,0,1,56.68,22H322.85a35,35,0,0,1,34.91,34.91,10,10,0,0,0,20,0A55,55,0,0,0,322.85,2H56.68A55,55,0,0,0,1.76,56.91V384.3a55,55,0,0,0,54.92,54.92h58.54a10,10,0,1,0,0-20Z"/><path d="M433.16,163.37H215.08a10,10,0,0,0,0,20H433.16a10,10,0,0,0,0-20Z"/><path d="M433.16,243.48H215.08a10,10,0,1,0,0,20H433.16a10,10,0,0,0,0-20Z"/><path d="M433.16,323.59H215.08a10,10,0,1,0,0,20H433.16a10,10,0,0,0,0-20Z"/><path d="M433.16,403.69H215.08a10,10,0,1,0,0,20H433.16a10,10,0,0,0,0-20Z"/></svg>