<?xml version="1.0" encoding="utf-8"?>
<!-- Generator: Adobe Illustrator 25.0.1, SVG Export Plug-In . SVG Version: 6.00 Build 0)  -->
<svg version="1.1" id="Layer_1" xmlns="http://www.w3.org/2000/svg" xmlns:xlink="http://www.w3.org/1999/xlink" x="0px" y="0px"
	 viewBox="0 0 512 512" style="enable-background:new 0 0 512 512;" xml:space="preserve">
<style type="text/css">
	.st0{fill:#FFFFFF;}
	.st1{fill:none;stroke:#000000;stroke-width:20;stroke-miterlimit:10;}
	.st2{fill:none;stroke:#000000;stroke-width:20;stroke-linecap:round;stroke-miterlimit:10;}
	.st3{fill:#565656;stroke:#000000;stroke-width:20;stroke-linecap:round;stroke-miterlimit:10;}
	.st4{fill:none;stroke:#000000;stroke-width:20;stroke-linecap:round;stroke-linejoin:round;stroke-miterlimit:10;}
</style>
<g>
	<path class="st1" d="M103.1,122.1c1.2-13.8,11.3-24.7,25.1-25.9c21.5-1.9,106.8-7.1,127.9-8.9c18-1.5,33.1,3.7,45.9,16.5
		c58.9,59.1,117.8,118,176.8,176.9c10.5,10.5,18,22.5,19.9,37.5c0.1,0.6,0.7,10.8,0.7,15.4c-0.8,3.1-1.4,6.2-2.3,9.2
		c-2.9,10.7-8.6,19.7-16.4,27.5c-34.4,34.4-68.8,68.9-103.3,103.2c-25.5,25.3-62.6,25.3-88.1-0.1C229.6,413.8,170,354,110.2,294.4
		c-12.3-12.3-17.3-27-15.9-44.3C95.8,233.4,102.3,131,103.1,122.1z"/>
</g>
<path class="st2" d="M184.3,174.3c-26.7,22.7-71.3,25.6-110.6,4.2C25.3,152.3,3.2,99.4,24.4,60.3S102,11,150.3,37.2
	c6.8,3.7,13,7.9,18.7,12.5"/>
</svg>
