<?xml version="1.0" encoding="utf-8"?>
<!-- Generator: Adobe Illustrator 25.0.1, SVG Export Plug-In . SVG Version: 6.00 Build 0)  -->
<svg version="1.1" xmlns="http://www.w3.org/2000/svg" xmlns:xlink="http://www.w3.org/1999/xlink" x="0px" y="0px"
	 viewBox="0 0 512 512" style="enable-background:new 0 0 512 512;" xml:space="preserve">
<style type="text/css">
	.st0{fill:none;stroke:#565656;stroke-width:15;stroke-linecap:round;stroke-linejoin:round;stroke-miterlimit:10;}
	.st1{fill:none;stroke:#565656;stroke-width:15;stroke-miterlimit:10;}
	.st2{fill:none;stroke:#565656;stroke-width:15;stroke-linecap:round;stroke-miterlimit:10;}
	.st3{fill:none;stroke:#565656;stroke-width:15;stroke-linecap:round;}
	.st4{fill:#565656;}
	.st5{fill:none;stroke:#565656;stroke-width:15;stroke-linecap:round;stroke-linejoin:round;}
	.st6{fill:none;stroke:#565656;stroke-width:15;stroke-linecap:round;stroke-linejoin:round;stroke-dasharray:24.8533,49.7066;}
	
		.st7{fill:none;stroke:#565656;stroke-width:15;stroke-linecap:round;stroke-linejoin:round;stroke-dasharray:24.8533,49.7066,24.8533,49.7066;}
	.st8{fill:#BABABA;}
	.st9{fill:none;stroke:#2388AE;stroke-width:15;stroke-linecap:round;}
	.st10{fill:none;stroke:#565656;stroke-width:15;stroke-linecap:round;stroke-miterlimit:10;stroke-dasharray:32.1931,42.9241;}
	
		.st11{fill:none;stroke:#565656;stroke-width:15;stroke-linecap:round;stroke-miterlimit:10;stroke-dasharray:32.1931,42.9241,32.1931,42.9241;}
	.st12{fill:none;stroke:#565656;stroke-width:15;stroke-linejoin:round;stroke-miterlimit:10;}
	.st13{fill:none;stroke:#000000;stroke-width:15;stroke-linecap:round;stroke-miterlimit:10;}
	.st14{fill:#FFFFFF;}
	.st15{fill:url(#SVGID_1_);}
	.st16{fill:url(#SVGID_2_);}
	.st17{fill:url(#SVGID_3_);}
	.st18{fill:url(#SVGID_4_);}
	.st19{fill:url(#SVGID_5_);}
	.st20{fill:url(#SVGID_6_);}
	.st21{fill:url(#SVGID_7_);}
	.st22{fill:url(#SVGID_8_);}
	.st23{fill:url(#SVGID_9_);}
	.st24{fill:url(#SVGID_10_);}
	.st25{fill:url(#SVGID_11_);}
	.st26{fill:url(#SVGID_12_);}
	.st27{fill:url(#SVGID_13_);}
	.st28{fill:url(#SVGID_14_);}
	.st29{fill:url(#SVGID_15_);}
	.st30{fill:url(#SVGID_16_);}
	.st31{fill:url(#SVGID_17_);}
	.st32{fill:url(#SVGID_18_);}
	.st33{fill:url(#SVGID_19_);}
	.st34{fill:url(#SVGID_20_);}
	.st35{fill:url(#SVGID_21_);}
	.st36{fill:url(#SVGID_22_);}
	.st37{fill:url(#SVGID_23_);}
	.st38{fill:url(#SVGID_24_);}
	.st39{fill:url(#SVGID_25_);}
	.st40{fill:url(#SVGID_26_);}
	.st41{fill:url(#SVGID_27_);}
	.st42{fill:url(#SVGID_28_);}
	.st43{fill:url(#SVGID_29_);}
	.st44{fill:url(#SVGID_30_);}
	.st45{fill:url(#SVGID_31_);}
	.st46{fill:url(#SVGID_32_);}
	.st47{fill:url(#SVGID_33_);}
	.st48{fill:url(#SVGID_34_);}
	.st49{fill:url(#SVGID_35_);}
	.st50{fill:url(#SVGID_36_);}
	.st51{fill:url(#SVGID_37_);}
	.st52{fill:url(#SVGID_38_);}
	.st53{enable-background:new    ;}
	.st54{fill:#717171;}
	.st55{fill:#555555;}
	.st56{fill:#7B7B7B;}
	.st57{fill:#9F9F9F;}
	.st58{fill:#6E6E6E;}
	.st59{fill:#8D8D8D;}
	.st60{fill:#606060;}
	.st61{fill:#A5A5A5;}
	.st62{fill:#5C5C5C;}
	.st63{fill:none;stroke:#000000;stroke-width:15;stroke-miterlimit:10;}
	.st64{fill:none;stroke:#000000;stroke-width:15;stroke-linecap:round;stroke-linejoin:round;stroke-miterlimit:10;}
	.st65{fill:none;stroke:#5C5C5C;stroke-width:15;stroke-miterlimit:10;}
	.st66{fill:none;stroke:#5C5C5C;stroke-width:15;stroke-linecap:round;stroke-linejoin:round;stroke-miterlimit:10;}
</style>
<g id="Layer_1">
</g>
<g id="Einstellungen">
	<g>
		<g>
			<path d="M200.9,241c-5.5,0-11-0.2-16.4,0.1c-1.5,0.1-3.6,1.6-4.3,3c-1.7,3.3-2.7,7-4.1,10.5c-2.2,5.6-6.1,7.8-10.6,6.1
				c-4.5-1.7-6-5.9-3.8-11.6c9.2-24.3,18.5-48.6,27.7-72.9c0.9-2.2,1.7-4.5,2.6-6.7c1.6-4.3,4.4-6.9,9.2-6.9c5,0,7.8,2.7,9.5,7.1
				c7.2,19,14.4,38.1,21.5,57.1c2.8,7.5,5.7,15,8.5,22.6c2,5.4,0.5,9.5-3.8,11.2c-4.5,1.8-8.4-0.5-10.7-6
				c-1.8-4.4-2.4-10.6-5.7-12.8c-3.5-2.3-9.5-0.8-14.5-1C204.4,241,202.7,241,200.9,241z M201.2,188.6c-5,13.1-9.4,24.7-13.9,36.6
				c9.7,0,18.4,0,27.7,0C210.5,213.1,206.2,201.6,201.2,188.6z"/>
			<path d="M273.2,224.9c0,9.4,0,18,0,26.5c0,6.3-3.1,10-7.9,9.9c-4.7-0.1-7.4-3.6-7.4-9.7c0-26.6,0-53.1,0-79.7
				c0-6.6,2.6-9.2,9.4-9.3c7.2-0.1,14.4-0.2,21.6,0c17.9,0.4,31.7,14,31.6,31.2c0,17.1-13.8,30.6-31.7,31.1
				C283.8,225,278.8,224.9,273.2,224.9z M273.5,209.6c4.9,0,9.3,0,13.8,0c1.2,0,2.4,0,3.6-0.2c7.6-0.9,13.9-7.7,14.1-15.2
				c0.2-7.4-5.8-15-13.4-15.7c-5.9-0.6-11.8-0.1-18.1-0.1C273.5,188.6,273.5,198.8,273.5,209.6z"/>
			<path d="M335.9,210.3c0-13.2,0-26.4,0-39.6c0-6,3-9.5,7.7-9.4c4.5,0.1,7.6,3.6,7.6,9.2c0.1,26.7,0.1,53.4,0,80.1
				c0,6-3,9.4-7.9,9.3c-4.9-0.1-7.4-3.3-7.4-9.6C335.9,237,335.9,223.7,335.9,210.3z"/>
		</g>
	</g>
	<path d="M372.3,363.7c0-15.1-0.1-30.1,0.1-45.2c0-2.4,1.3-5.2,2.9-6.9c6.3-6.9,6.5-16.6,0-23.1c-6.3-6.2-16.4-6.1-22.6,0.2
		c-6.4,6.5-6.1,16.1,0.3,23c1.4,1.5,2.8,3.9,2.8,5.9c0.2,19.5,0.2,39,0.1,58.5C355.9,377.6,372.3,363.7,372.3,363.7z"/>
	<path d="M312.9,399.9c0.2-9.3,0.2-18.6,0-27.9c0-1.7-1.3-3.6-2.6-4.9c-6.6-7-6.8-16.5-0.3-23c6.4-6.4,16.7-6.3,23,0.3
		c6.2,6.5,5.8,16.2-0.9,23c-1.3,1.3-2.6,3.2-2.6,4.9c-0.3,7.6-0.1,15.3-0.1,24.7L312.9,399.9"/>
	<path d="M287.8,405.4c0-14.7,0-23.3,0-37c0-8.5-2.2-18,0.9-25.4c3-7.3,11.3-12.5,17.2-18.6c0.6-0.7,1.3-1.3,1.9-1.9
		c4.1-3.6,5.7-8.2,5.7-13.6c-0.1-9.5,0.1-18.9-0.1-28.4c-0.1-3.6,0.6-6.3,3.5-9.1c6.2-6,5.9-15.4,0-21.7c-5.8-6.2-15.2-6.8-21.8-1.6
		c-6.5,5.2-8.7,15.6-2.9,21.4c5.1,5.1,4.9,10.4,4.9,16.3c0,6.6,0.3,13.1-0.1,19.7c-0.2,2.6-1.3,5.6-3.1,7.6
		c-5.2,5.8-10.8,11.3-16.5,16.7c-4.3,4-6.1,8.7-6,14.6c0.1,20.6,0.1,41.2,0,61.7L287.8,405.4z"/>
	<path d="M230.7,405.4c0-19.5,0.1-39-0.1-58.5c0-2.2-1.3-4.7-2.9-6.4c-6.4-6.8-6.6-16.7-0.2-23.1c6.3-6.2,16.3-6.2,22.6,0
		c6.4,6.4,6.3,16.2-0.3,23c-1.2,1.2-2.7,2.9-2.7,4.3c-0.2,22.2-0.1,40.4-0.1,63.1L230.7,405.4z"/>
	<path d="M192.1,397.6c-0.6-8.8,3-17.2-5.6-23.8c-5.3-4.1-9.5-9.5-14.4-14.1c-4-3.8-5.7-8.2-5.6-13.7c0.1-9.8,0.2-19.7-0.1-29.5
		c-0.1-2.4-1.2-5.2-2.9-6.9c-6.3-6.9-6.5-16.7,0-23.1c6.2-6.1,16.5-6.1,22.6,0.1c6.3,6.4,5.9,16.3-0.4,23.1
		c-1.5,1.6-2.7,4.2-2.8,6.5c-0.3,9.1-0.3,18.2,0,27.3c0.1,2.2,1.2,4.9,2.8,6.5c5.4,5.9,11.1,11.6,16.9,17c4.2,3.9,6,8.5,5.8,14.1
		c-0.1,6.2,0.2,12.4-0.1,18.6L192.1,397.6"/>
	<path class="st64" d="M96.2,446.1l6.3,6.3c11.6,11.6,30.3,11.6,41.9,0l10.6-10.6c13.1,7.2,26.8,13.1,41.1,17.3v14.7
		c0,16.3,13.3,29.6,29.6,29.6h60.5c16.3,0,29.6-13.3,29.6-29.6V459c14.3-4.3,28.1-10.1,41.1-17.3l10.6,10.6
		c11.6,11.6,30.3,11.6,41.9,0l42.8-42.8c11.6-11.6,11.6-30.3,0-41.9L440.7,356c6.7-12.8,12-26.2,15.9-40.1h17.1
		c16.3,0,29.6-13.3,29.6-29.6v-60.5c0-16.3-13.3-29.6-29.6-29.6l0,0h-19.1c-4.2-13.1-9.6-25.7-16.3-37.8l14-14
		c11.6-11.6,11.6-30.3,0-41.9l-42.8-42.8c-11.6-11.6-30.3-11.6-41.9,0l-15,15c-11.8-6.2-24.1-11.2-36.8-15V38.3
		c0-16.3-13.3-29.6-29.6-29.6h-60.5c-16.3,0-29.6,13.3-29.6,29.6v21.4c-17.3,5.2-28.9,10.9-36.8,15l-15-15
		c-11.6-11.6-30.3-11.6-41.9,0l-42.8,42.8c-11.6,11.6-11.6,30.3,0,41.9l14,14c-6.7,12-12.1,24.7-16.3,37.8H38.3
		c-16.3,0-29.6,13.3-29.6,29.6v60.5c0,16.3,13.3,29.6,29.6,29.6h17.1c3.9,13.9,9.3,27.3,16,40.1l-11.6,11.6
		c-11.6,11.6-11.6,30.3,0,41.9l5.9,5.9"/>
	<path class="st64" d="M227.7,101L227.7,101c-74.2,13.6-128.1,78.2-128.1,153.8c0,86.2,70.1,156.3,156.3,156.3
		s156.3-70.1,156.3-156.3c0-75.6-53.9-140.3-128.2-153.8"/>
</g>
</svg>
