<?xml version="1.0" encoding="utf-8"?>
<!-- Generator: Adobe Illustrator 28.2.0, SVG Export Plug-In . SVG Version: 6.00 Build 0)  -->
<svg version="1.1" id="Ebene_1" xmlns="http://www.w3.org/2000/svg" xmlns:xlink="http://www.w3.org/1999/xlink" x="0px" y="0px"
	 viewBox="0 0 383.36 383.31" style="enable-background:new 0 0 383.36 383.31;" xml:space="preserve">
<style type="text/css">
	.st0{fill:#2388AE;}
</style>
<g>
	<path class="st0" d="M0,217.12c0-16.97,0-33.94,0-50.9c2.59-5.64,6.99-8.14,13.2-8.58c8.7-0.61,17.34-1.96,26.03-2.76
		c3.13-0.29,4.56-1.42,5.55-4.6c2.4-7.71,5.26-15.3,8.34-22.76c2.02-4.9,4.76-9.51,7.21-14.32c-6.69-8.39-13.32-16.65-19.89-24.96
		C35.52,82,35.8,76.56,41.34,70.98c9.76-9.82,19.56-19.61,29.38-29.38c5.8-5.78,11.13-6.15,17.53-1.12
		c7.45,5.86,14.88,11.76,22.2,17.78c2.09,1.72,3.64,2.01,6.15,0.53c10.45-6.18,21.57-10.93,33.35-13.88
		c3.62-0.91,4.67-2.65,4.98-6.06c0.85-9.44,1.98-18.85,3.06-28.26c0.73-6.36,5.12-10.48,11.51-10.52c14.85-0.09,29.7-0.1,44.55,0.01
		c6.03,0.04,10.47,4.04,11.22,9.98c1.13,8.9,2.11,17.83,3.03,26.76c0.67,6.47,0.7,6.15,6.75,8.44c11.83,4.49,23.52,9.39,35.98,14.41
		c6.96-5.56,14.85-11.87,22.75-18.16c7.97-6.35,12.68-6.1,19.8,1.01c9.09,9.09,18.18,18.17,27.27,27.26
		c7.1,7.11,7.35,11.85,1.01,19.81c-6.29,7.9-12.6,15.78-18.92,23.7c0.53,1.03,0.93,1.93,1.43,2.78
		c6.39,11.07,11.24,22.78,14.54,35.11c0.63,2.34,1.62,3.25,3.93,3.49c9.67,1.01,19.33,2.18,29,3.24c7.58,0.84,11.48,4.97,11.5,12.5
		c0.04,14.1,0.03,28.2,0,42.3c-0.02,7.64-3.79,11.85-11.3,12.71c-9.79,1.12-19.57,2.26-29.37,3.28c-2.19,0.23-3.12,1.11-3.7,3.28
		c-3.36,12.58-8.35,24.5-14.86,35.79c-0.42,0.73-0.75,1.5-1.16,2.3c6.88,8.63,13.69,17.07,20.39,25.6
		c4.17,5.3,4.19,10.97-0.31,15.57c-10.46,10.71-21.06,21.29-31.76,31.76c-4.42,4.32-10,4.41-14.99,0.79
		c-1.31-0.95-2.55-2.01-3.82-3.02c-7.5-5.98-14.99-11.95-22.5-17.94c-11.88,6.97-24.15,12.47-37.25,15.85
		c-3,0.77-3.92,2.23-4.2,5.03c-0.87,8.81-2.19,17.58-2.82,26.4c-0.44,6.2-2.94,10.6-8.57,13.2c-16.97,0-33.94,0-50.91,0
		c-5.59-2.63-8.14-6.98-8.58-13.2c-0.64-8.95-1.95-17.84-2.89-26.77c-0.26-2.46-1.01-3.83-3.77-4.55
		c-12.35-3.24-24.07-8.12-35.07-14.61c-1.94-1.15-3.19-0.94-4.88,0.45c-7.82,6.39-15.71,12.71-23.69,18.9
		c-5.24,4.07-10.89,3.81-15.55-0.78c-10.49-10.33-20.86-20.78-31.25-31.21c-2.71-2.72-4.22-6.05-3.28-9.84
		c0.58-2.33,1.77-4.67,3.24-6.58c6.55-8.47,13.29-16.79,20-25.2c-7.08-11.94-12.53-24.35-15.98-37.56
		c-0.72-2.76-2.08-3.51-4.54-3.77c-8.93-0.94-17.82-2.29-26.77-2.91C6.98,225.25,2.62,222.73,0,217.12z M144.44,148.32
		c-2.3-5.45-6.47-8.53-12.44-8.55c-5.97-0.02-10.18,2.98-12.51,8.44c-11.12,26.11-22.24,52.22-33.27,78.36
		c-2.6,6.16-0.03,12.63,5.68,15.09c5.69,2.45,12.15-0.2,14.91-6.2c1.51-3.28,2.91-6.61,4.19-9.98c0.72-1.88,1.73-2.67,3.84-2.65
		c11.35,0.1,22.69-0.02,34.04,0.15c1.21,0.02,2.92,1.21,3.49,2.32c1.82,3.53,3.07,7.35,4.81,10.92c2.31,4.74,7.59,7.2,12.47,6.09
		c5.05-1.14,8.61-5.57,8.69-11.81c-0.18-0.71-0.38-2.48-1.04-4.05 M207.7,207.11c5.86,0,11.3,0.68,16.5-0.12
		c18.24-2.83,30-17.9,28.91-36.31c-0.98-16.68-15.44-30.23-33.21-30.91c-6.85-0.26-13.71-0.07-20.57-0.08
		c-10.12,0-14.08,3.9-14.09,13.96c-0.02,25.06-0.01,50.12,0.01,75.18c0,1.61,0.05,3.26,0.36,4.83c1.07,5.38,5.91,9.12,11.33,8.9
		c5.42-0.22,10.01-4.33,10.55-9.79c0.31-3.09,0.18-6.22,0.19-9.34C207.71,218.24,207.7,213.04,207.7,207.11z M284.69,191.35
		c0-12.85,0.02-25.7-0.03-38.55c-0.01-1.85-0.09-3.79-0.64-5.52c-1.67-5.28-6.84-8.27-12.34-7.4c-5.73,0.91-9.43,5.5-9.44,12.1
		c-0.05,25.95-0.04,51.9-0.01,77.85c0.01,7.58,4.61,12.72,11.24,12.74c6.7,0.02,11.18-5,11.2-12.67
		C284.72,217.05,284.69,204.2,284.69,191.35z"/>
	<path class="st0" d="M141.92,200.28c-7.01,0-13.22,0-20.15,0c3.36-7.92,6.56-15.48,10.12-23.86
		C135.39,184.75,138.54,192.23,141.92,200.28z"/>
	<path class="st0" d="M208.03,185.03c0-7.67,0-14.96,0-22.39c4.84,0,9.72-0.6,14.38,0.16c5.32,0.87,8.7,6.39,8.31,11.76
		c-0.36,5-4.65,9.57-9.82,10.31c-1.59,0.23-3.23,0.14-4.85,0.16C213.46,185.04,210.87,185.03,208.03,185.03z"/>
</g>
</svg>
