<?xml version="1.0" encoding="utf-8"?>
<!-- Generator: Adobe Illustrator 25.0.1, SVG Export Plug-In . SVG Version: 6.00 Build 0)  -->
<svg version="1.1" id="Layer_1" xmlns="http://www.w3.org/2000/svg" xmlns:xlink="http://www.w3.org/1999/xlink" x="0px" y="0px"
	 viewBox="0 0 283 383.4" style="enable-background:new 0 0 283 383.4;" xml:space="preserve">
<g>
	<path d="M8.2,383.4c-8.9-4.3-10.5-10.2-5-18.7c5-7.7,10-15.5,15.2-23.2c4.3-6.4,6.3-13.4,6.3-21.1c-0.1-39.1-0.1-78.1,0-117.2
		c0.1-44.4,28.1-81.5,70.8-93.2c8.1-2.2,16.7-3.2,25.1-3.4c17-0.4,34-0.6,50.9,0.5c41.6,2.8,77.3,34.7,85.3,75.6
		c1.4,7.2,2.1,14.6,2.1,21.9c0.2,38.9,0.2,77.9,0,116.8c0,8.2,2.1,15.4,6.7,22.1c4.9,6.9,9.4,14.1,14.1,21.1c5.6,8.3,4,14.3-5,18.7
		C185.9,383.4,97.1,383.4,8.2,383.4z M152.1,170.1c0-3.6,0-7.1,0-10.6c-0.1-7.1-4.5-11.9-10.8-11.8c-6.1,0.1-10.3,4.8-10.4,11.7
		c0,3.6,0,7.1,0,10.8c-1.2,0.2-2,0.3-2.7,0.4c-17,1.5-29,10.2-36.2,25.6c-3.9,8.3-3.6,17.2-3.6,26.1c0.2,25.4,18.6,43.8,44,43.9
		c7.2,0,14.5-0.2,21.7,0.2c9.4,0.5,17.1,7.1,18.8,16.4c0.9,5,0.7,10.2,0.7,15.3c-0.1,12.1-9.2,21.2-21.3,21.5c-7,0.1-14,0.2-21,0.1
		c-12.4-0.2-21.2-8.9-21.5-21.2c-0.1-3.7,0.1-7.5-0.1-11.2c-0.5-6.4-5-10.5-11.1-10.2c-5.7,0.2-10,4.6-10.2,10.8
		c-0.1,4.2-0.2,8.5,0.1,12.7c1.2,20.3,15.4,36.2,35.4,39.8c2.2,0.4,4.4,0.5,6.8,0.8c0.1,1.4,0.2,2.6,0.2,3.8c0,2.6-0.1,5.2,0.1,7.9
		c0.3,5.6,4.8,9.7,10.3,9.8c5.8,0.1,10.4-4,10.7-9.8c0.2-3.9,0-7.9,0-11.8c1.4-0.2,2.2-0.3,2.9-0.3c18.6-1.1,34.9-14.2,38.6-32.5
		c1.6-7.8,1.5-16.1,1.1-24.2c-0.9-19.3-16.5-36.2-35.8-38.4c-9.4-1.1-18.9-0.5-28.4-0.8c-11.2-0.3-20.1-9-20.6-20.2
		c-0.2-4.1-0.2-8.2,0-12.3c0.4-11.6,9.4-20.4,20.9-20.6c7.2-0.1,14.5-0.1,21.7,0c11.7,0.2,20.8,9.2,21.1,20.9
		c0.1,3.6,0,7.2,0.1,10.9c0.2,6.2,4.8,10.8,10.6,10.8c5.7,0,10.3-4.4,10.5-10.5c0.2-4.6,0.2-9.2-0.1-13.8
		c-1.1-18.8-15.1-34.8-33.6-38.6C158.3,170.8,155.3,170.6,152.1,170.1z"/>
	<path d="M141.8,0c15.2,0,30.4,0.1,45.7,0c4.7,0,8.6,1.2,11,5.5c2.5,4.3,1.3,8.3-1.1,12.3C184.7,39,172,60.1,159.4,81.3
		c-1.6,2.8-3.6,4.1-6.9,4c-7.2-0.2-14.5-0.1-21.7,0c-2.9,0-4.9-1-6.4-3.6C111.4,60.2,98.4,38.6,85.5,17C80.5,8.5,85.4,0.1,95.4,0
		C110.9,0,126.4,0,141.8,0z"/>
</g>
</svg>
