<?xml version="1.0" encoding="UTF-8"?>
<svg id="Ebene_1" data-name="Ebene 1" xmlns="http://www.w3.org/2000/svg" version="1.1" viewBox="0 0 256.54 294.01">
  <defs>
    <style>
      .cls-1 {
        fill: #707070;
        stroke-width: 0px;
      }
    </style>
  </defs>
  <path class="cls-1" d="M226.49,270.01c-3.47-.02-6.94,0-10.89,0v-4.97c0-42.85,0-85.7,0-128.55-3.23.15-6.25-1.25-8.51-4.05-9.65-11.98-25.75-11.78-35.08.43-3.15,4.11-7.62,5.4-12.44,3.56-8.3-3.16-15.91-7.52-22.82-13.13-4.44-3.61-5.54-7.78-3.35-13.06,4.74-11.43-.48-24.2-11.82-28.66-2.01-.79-4.21-1.17-6.35-1.55-4.66-.83-7.92-4.16-8.67-8.86-1.47-9.22-1.28-18.4.4-27.57.94-5.12,4.29-8.33,9.55-9.01,11.5-1.49,19.57-10.89,19.07-22.48-.1-2.32-.73-4.67-1.46-6.9-.6-1.84-.82-3.58-.65-5.2-24.07,0-48.14.01-72.22.06-3.33,0-6.75.36-9.97,1.18-16.72,4.25-27.29,18.47-27.29,36.58-.02,75.85,0,151.7,0,227.55v4.64c-4.29,0-8.13-.07-11.97.02-5.27.12-9.48,3.12-11.22,7.85-2.99,8.15,2.94,16.1,12.16,16.11,33.42.04,66.85.01,100.27.01,37.79,0,75.58.01,113.37-.01,7.59,0,12.98-5.09,12.96-12.04-.02-6.94-5.43-11.9-13.05-11.95ZM77.3,48.06c4.36-.18,8.73-.18,13.09,0,6.46.27,11.46,5.66,11.42,12.03-.04,6.23-4.93,11.45-11.21,11.87-2.23.15-4.49.02-6.73.02-2.24,0-4.5.12-6.73-.02-6.27-.41-11.18-5.65-11.23-11.86-.05-6.41,4.91-11.77,11.39-12.04ZM77.33,102.06c4.36-.18,8.73-.18,13.09,0,6.45.27,11.45,5.69,11.39,12.06-.06,6.23-4.95,11.43-11.25,11.84-2.24.14-4.49.02-6.73.02-2.12,0-4.24.1-6.36,0-6.5-.31-11.54-5.54-11.57-11.91-.03-6.41,4.93-11.74,11.43-12.01ZM84.01,179.97s0,0,0,.01c-2.24,0-4.49.11-6.73-.02-6.45-.37-11.44-5.72-11.37-12.1.07-6.26,4.93-11.51,11.25-11.8,4.48-.21,8.98-.22,13.46,0,6.27.31,11.16,5.65,11.19,11.87.03,6.23-4.8,11.54-11.07,12-2.23.17-4.49.03-6.73.03ZM143.71,272.04h-47.88v-12.02c0-9-.03-18,0-26.99.05-9.83,7.22-16.97,17.04-17.02,4.86-.02,9.73-.08,14.59.01,8.45.16,15.97,6.88,16.16,15.18.31,13.48.08,26.97.08,40.85ZM162.28,179.95c-4.36.19-8.73.18-13.09,0-6.46-.27-11.47-5.65-11.43-12.02.04-6.41,5.04-11.59,11.56-11.89,2.11-.1,4.24-.02,6.36-.02,2.12,0,4.24-.08,6.36.01,6.5.29,11.56,5.48,11.62,11.85.06,6.39-4.91,11.78-11.38,12.06Z"/>
  <path class="cls-1" d="M169.29-2.09c2.68.06,4.71,1.2,6.37,3.19,3.31,3.98,7.57,6.1,12.74,6.15,5.07.05,9.31-1.9,12.69-5.68,3.47-3.88,6.05-4.51,10.84-2.63,6.08,2.37,11.61,5.66,16.68,9.77,3.42,2.77,4.28,5.71,2.86,9.9-3.26,9.56,2.28,19.58,12.08,21.87.69.16,1.4.22,2.08.42,3.08.89,5.07,2.91,5.69,6.06,1.48,7.45,1.43,14.91,0,22.37-.66,3.43-3.26,5.89-6.76,6.45-11.13,1.77-17.25,12.23-13.33,22.77,1.37,3.67.51,6.95-2.5,9.43-4.99,4.12-10.49,7.4-16.48,9.86-3.51,1.44-7.03.51-9.42-2.46-7.42-9.21-19.8-9.06-26.99.33-2.42,3.16-5.86,4.15-9.57,2.74-6.38-2.43-12.24-5.79-17.55-10.1-3.41-2.77-4.26-5.99-2.58-10.05,3.65-8.79-.37-18.62-9.09-22.04-1.55-.61-3.23-.9-4.88-1.19-3.58-.63-6.09-3.2-6.67-6.82-1.13-7.09-.98-14.15.31-21.21.72-3.94,3.3-6.41,7.34-6.93,8.84-1.14,15.05-8.38,14.67-17.29-.08-1.78-.56-3.59-1.12-5.31-1.26-3.83-.37-7.11,2.81-9.59,5.1-3.99,10.69-7.11,16.74-9.39.58-.22,1.18-.38,1.78-.51.43-.09.88-.08,1.26-.1ZM209.85,58.43c.03-11.64-9.52-21.27-21.11-21.29-11.83-.03-21.44,9.48-21.45,21.22-.01,11.84,9.47,21.4,21.24,21.43,11.75.03,21.29-9.53,21.32-21.35Z"/>
</svg>