<svg xmlns="http://www.w3.org/2000/svg" width="21.095" height="27.745" viewBox="0 0 21.095 27.745">
  <g id="Gruppe_265" data-name="Gruppe 265" transform="translate(-253.645 -108)">
    <path id="Pfad_440" data-name="Pfad 440" d="M274.739,116.489q0,7.775,0,15.55c0,.28,0,.56,0,.84a2.992,2.992,0,0,1-2.127,2.743c-.154.044-.309.082-.464.123h-15.9c-.014-.011-.027-.027-.043-.031a2.985,2.985,0,0,1-2.553-3.24V116.9c0-1.959,0-3.918,0-5.876a2.811,2.811,0,0,1,1.27-2.465,7.474,7.474,0,0,1,1.325-.561h9.748a.754.754,0,0,1,.532.219C267.852,109.541,274.739,116.392,274.739,116.489ZM264,120.463h.216q2.837,0,5.674,0a.823.823,0,0,0,.815-.468.81.81,0,0,0-.8-1.158q-4.458,0-8.916,0h-2.864a.813.813,0,1,0,.011,1.624Q261.07,120.468,264,120.463Zm0,4.335h.243q2.823,0,5.647,0a.824.824,0,0,0,.827-.492.812.812,0,0,0-.812-1.134q-4.472,0-8.943,0h-2.837a.8.8,0,0,0-.768.455.808.808,0,0,0,.78,1.17Q261.07,124.8,264,124.8Zm-3.947,2.71c-.64,0-1.28,0-1.92,0a.813.813,0,1,0,0,1.624q1.906.005,3.813,0a.815.815,0,1,0,0-1.624C261.317,127.506,260.686,127.508,260.055,127.508Z" transform="translate(0)" fill="#707070"/>
  </g>
</svg>
