<?xml version="1.0" encoding="UTF-8"?>
<svg id="Ebene_1" data-name="Ebene 1" xmlns="http://www.w3.org/2000/svg" version="1.1" viewBox="0 0 383.42 383.26">
  <defs>
    <style>
      .cls-1 {
        fill: #707070;
        stroke-width: 0px;
      }
    </style>
  </defs>
  <g>
    <path class="cls-1" d="M286.39,292.47c-4.06,3.97-7.58,7.97-11.66,11.28-4.6,3.73-9.36,7.53-14.63,10.09-19.83,9.63-39.84,18.89-59.88,28.06-17.96,8.22-37.9.85-45.56-16.69-3.88-8.89-4.13-18.04-.09-26.86,9.99-21.86,20.16-43.64,30.56-65.3,1.84-3.83,4.83-7.28,7.86-10.34,30.34-30.51,60.79-60.92,91.28-91.29,1.83-1.83,2.55-3.63,2.55-6.2-.08-29.93-.04-59.86-.06-89.8C286.73,14.34,272.38.01,251.24,0,179.39,0,107.54,0,35.69,0,17.3,0,4.97,9.8.57,27.83c-.12.47-.37.91-.57,1.37v324.87c.57,2.03,1.01,4.1,1.72,6.07,4.27,11.77,12.5,19.21,24.65,22.3.95.24,1.89.55,2.83.82h228.35c5.21-2.24,10.9-3.76,15.52-6.88,8.77-5.92,13.37-14.85,13.55-25.42.32-18.95.11-37.91.11-56.87,0-.34-.14-.67-.34-1.62ZM96.43,53.18c5.91-9.04,13.48-15.95,22.72-20.75,9.34-4.79,18.63-7.3,27.86-7.51,5.43,0,10.55.5,15.38,1.5,4.82,1,9.31,2.45,13.48,4.35,4.16,1.85,7.96,4.1,11.38,6.76,3.43,2.66,6.48,5.77,9.17,9.33,2.69,3.56,4.75,7.22,6.21,10.99,1.45,3.77,2.36,7.81,2.73,12.13.11.53.16,1.66.16,3.4,0,5.27-.98,10.67-2.92,16.21-2.06,5.48-4.88,10.33-8.46,14.54-3.58,4.38-7.83,7.77-12.73,10.2-4.95,2.64-10.25,4.03-15.89,4.19-7.17-.47-11.02-3.61-11.54-9.41h-.63c-4.95,5.96-11.36,9.09-19.21,9.41-4.69-.32-8.8-1.61-12.33-3.87-3.58-2.48-6.35-5.61-8.3-9.41-1.85-3.58-2.85-7.77-3-12.57.53-7.48,2.24-14.18,5.14-20.08,3.16-6.48,7.38-11.62,12.65-15.41,5.27-4,11.51-6.01,18.73-6.01,8.64,0,14.97,4.06,18.97,12.17l2.29-6.64c.58-2,1.21-3.35,1.9-4.03.95-.58,2.08-.87,3.4-.87,1.58,0,3,.34,4.27,1.03,1.16.69,1.74,1.77,1.74,3.24,0,.32-.05.63-.16.95v1.11l-11.46,39.37c-.05.26-.11.49-.16.67-.05.19-.13.44-.24.75,0,.58-.05,1.03-.16,1.34-.11.32-.16.74-.16,1.26-.05.21-.11.43-.16.67-.05.24-.11.46-.16.67,0,2.79,1.63,4.35,4.9,4.66,3.32-.74,6.38-2.24,9.17-4.51,2.79-2.16,5.06-4.77,6.8-7.83,1.74-2.95,3.04-6.25,3.91-9.89.87-3.64,1.3-7.2,1.3-10.68,0-3.75-.53-7.35-1.58-10.8-1.06-3.46-2.58-6.66-4.58-9.62-4.01-5.85-9.56-10.39-16.68-13.61-6.9-3.22-14.73-4.83-23.48-4.83-8.54.32-16.31,2.43-23.32,6.33-3.58,1.95-6.81,4.34-9.68,7.16-2.87,2.82-5.42,6.11-7.63,9.85-2.16,3.75-3.78,7.75-4.86,12.03-1.08,4.27-1.62,8.78-1.62,13.53,0,9.18,2.37,17.38,7.11,24.61,2.27,3.43,4.97,6.56,8.1,9.38,3.13,2.82,6.49,5.16,10.08,7,7.48,3.74,14.97,5.69,22.45,5.85,6.53,0,11.88-.53,16.05-1.58,4.79-1.37,8.35-2.79,10.67-4.27,2.85-1.69,6.3-4.16,10.36-7.43,3.58-2.9,6.46-4.35,8.62-4.35,1.11,0,2.03.37,2.77,1.11.84.84,1.26,1.77,1.26,2.77,0,1.48-.87,3.37-2.61,5.69-1.48,1.74-4.64,4.27-9.49,7.59-4.64,2.95-10.2,5.59-16.68,7.9-6.59,2.27-13.69,3.4-21.29,3.4-10.34-.16-20.1-2.85-29.28-8.06-4.7-2.58-8.86-5.61-12.5-9.09-3.64-3.48-6.78-7.35-9.42-11.62-5.33-8.8-8.07-18.42-8.23-28.85,0-11.96,2.95-22.46,8.86-31.5ZM34.74,178.1c2.19-4.65,6.09-6.62,11.19-6.61,25.18.03,50.36.02,75.54.02,18.2,0,36.4-.05,54.6.02,8.86.04,14.38,8.37,10.66,15.99-2.27,4.64-6.22,6.47-11.29,6.46-21.69-.04-43.38-.02-65.07-.02-21.57,0-43.13.04-64.7-.02-8.92-.02-14.55-8.2-10.94-15.84ZM139.97,253.84c-15.7-.01-31.41,0-47.11,0-15.45,0-30.91.01-46.36,0-7.61,0-12.73-4.46-12.82-11.09-.09-6.79,5.09-11.35,12.92-11.36,31.03,0,62.06-.02,93.09,0,8.99,0,14.74,7.92,11.31,15.61-2.08,4.67-5.93,6.84-11.04,6.84Z"/>
    <path class="cls-1" d="M150.25,63.34c-6.85,0-12.17,1.82-15.97,5.45-3.95,3.79-6.67,8.17-8.14,13.12-.47,2-.95,5.14-1.42,9.41.32,8.17,4.74,13.15,13.28,14.94,4.43-.42,8.3-2.21,11.62-5.38,3.37-3.06,5.95-7.01,7.75-11.86,1.74-4.48,2.61-9.06,2.61-13.75,0-7.48-3.24-11.46-9.72-11.94Z"/>
  </g>
  <path class="cls-1" d="M341.45,205.14c-10.16,10.48-20.35,21.27-30.85,31.76-17.3,17.28-34.77,34.38-52.24,51.49-1.75,1.71-3.78,3.32-5.97,4.36-20.27,9.57-40.56,19.11-60.99,28.34-2.82,1.27-6.68,1.69-9.65.93-6.65-1.71-9.28-9.01-6.14-15.81,7.14-15.49,14.84-30.75,21.48-46.46,5.3-12.54,12.88-22.94,22.64-32.39,23.47-22.74,46.35-46.09,69.45-69.22.97-.97,1.72-2.14,2.34-2.92,17.05,17.04,33.67,33.66,49.93,49.92Z"/>
  <path class="cls-1" d="M309.29,138.84c5.97-6.15,12-13.17,18.87-19.24,8.36-7.38,20.81-6.83,29.02.83,7.01,6.54,13.83,13.32,20.35,20.35,7.89,8.51,7.82,21.41-.01,29.93-5.9,6.42-12.13,12.52-17.96,18.5-17.09-17.13-33.77-33.84-50.27-50.38Z"/>
</svg>