<svg xmlns="http://www.w3.org/2000/svg" width="23.72" height="23.994" viewBox="0 0 23.72 23.994">
  <g id="Gruppe_266" data-name="Gruppe 266" transform="translate(-239.932 -436)">
    <path id="Pfad_441" data-name="Pfad 441" d="M247.586,453.106c1.136.889,2.244,1.757,3.353,2.623a1.207,1.207,0,0,0,1.688,0q1.579-1.229,3.153-2.465c.072-.057.146-.111.244-.184l6.043,6.3a3.4,3.4,0,0,1-1.66.6c-.166.015-.333.014-.5.014q-8.126,0-16.251,0a3.693,3.693,0,0,1-2.11-.589Z" fill="#707070"/>
    <path id="Pfad_442" data-name="Pfad 442" d="M239.932,447.118l5.775,4.518-5.614,5.852c-.057-.288-.113-.514-.143-.744a4.04,4.04,0,0,1-.017-.528q0-4.356,0-8.713Z" fill="#707070"/>
    <path id="Pfad_443" data-name="Pfad 443" d="M263.474,457.419l-5.576-5.812,5.691-4.453C263.721,447.747,263.626,456.907,263.474,457.419Z" fill="#707070"/>
    <path id="Pfad_444" data-name="Pfad 444" d="M262.33,444.73q-4.815-4.166-9.629-8.329a1.191,1.191,0,0,0-1.784,0l-9.249,7.961c-.215.185-.427.373-.653.571.072.064.117.108.166.147q5.21,4.076,10.415,8.155c.164.13.258.091.4-.019q4.3-3.369,8.6-6.732c.648-.507,1.3-1.016,1.97-1.545C262.466,444.853,262.4,444.79,262.33,444.73Zm-6.815,2.98c-.028,0-.056,0-.084,0q-3.615,0-7.23,0a.81.81,0,0,1-.688-.309.782.782,0,0,1,.132-1.089,3.094,3.094,0,0,0,.714-.909,3.054,3.054,0,0,0,.333-1.413c0-.43-.005-.86,0-1.29a3.12,3.12,0,0,1,2.578-2.993c.082-.014.105-.044.1-.121s.005-.168,0-.251a.507.507,0,0,1,.341-.577h.21c.024.013.047.026.071.037a.428.428,0,0,1,.267.393c.005.14,0,.28,0,.42,0,.059.016.084.079.1a3.107,3.107,0,0,1,2.538,2.468,3.83,3.83,0,0,1,.061.677c.013.471-.009.944.02,1.414a2.874,2.874,0,0,0,.992,2.013.849.849,0,0,1,.325.565A.778.778,0,0,1,255.515,447.71Z" fill="#707070"/>
  </g>
</svg>
