<svg xmlns="http://www.w3.org/2000/svg" width="18.06" height="24.076" viewBox="0 0 18.06 24.076">
  <g id="Gruppe_322" data-name="Gruppe 322" transform="translate(-225.696 -481.109)">
    <path id="Pfad_462" data-name="Pfad 462" d="M232.7,490.138v-.548q0-3.431,0-6.86a1.441,1.441,0,0,1,1.62-1.619q1.41,0,2.819,0a1.428,1.428,0,0,1,1.577,1.568q.005,3.454,0,6.907v.552c.837,0,1.631.012,2.425,0a1.439,1.439,0,0,1,1.481.859,1.4,1.4,0,0,1-.436,1.69q-2.671,2.677-5.349,5.349a1.424,1.424,0,0,1-2.253,0c-1.784-1.782-3.562-3.57-5.351-5.347A1.427,1.427,0,0,1,228.8,491a1.444,1.444,0,0,1,1.522-.866C231.1,490.154,231.875,490.138,232.7,490.138Z" transform="translate(470.442 979.698) rotate(180)" fill="#ffffff"/>
    <path id="Pfad_463" data-name="Pfad 463" d="M234.73,514.84q-3.687,0-7.374,0a1.46,1.46,0,0,1-1.657-1.676c0-.47-.009-.94,0-1.409a1.4,1.4,0,0,1,1.433-1.424q7.585-.01,15.17,0a1.4,1.4,0,0,1,1.444,1.461c.009.517.007,1.034,0,1.551a1.413,1.413,0,0,1-1.505,1.5C239.74,514.843,237.236,514.839,234.73,514.84Z" transform="translate(0 -9.655)" fill="#ffffff"/>
  </g>
</svg>
