<?xml version="1.0" encoding="utf-8"?>
<!-- Generator: Adobe Illustrator 25.0.1, SVG Export Plug-In . SVG Version: 6.00 Build 0)  -->
<svg version="1.1" xmlns="http://www.w3.org/2000/svg" xmlns:xlink="http://www.w3.org/1999/xlink" x="0px" y="0px"
	 viewBox="0 0 512 512" style="enable-background:new 0 0 512 512;" xml:space="preserve">
<style type="text/css">
	.st0{fill:none;stroke:#565656;stroke-width:15;stroke-linecap:round;stroke-linejoin:round;stroke-miterlimit:10;}
	.st1{fill:none;stroke:#565656;stroke-width:15;stroke-miterlimit:10;}
	.st2{fill:none;stroke:#565656;stroke-width:15;stroke-linecap:round;stroke-miterlimit:10;}
	.st3{fill:none;stroke:#565656;stroke-width:15;stroke-linecap:round;}
	.st4{fill:#565656;}
	.st5{fill:none;stroke:#565656;stroke-width:15;stroke-linecap:round;stroke-linejoin:round;}
	.st6{fill:none;stroke:#565656;stroke-width:15;stroke-linecap:round;stroke-linejoin:round;stroke-dasharray:24.8533,49.7066;}
	
		.st7{fill:none;stroke:#565656;stroke-width:15;stroke-linecap:round;stroke-linejoin:round;stroke-dasharray:24.8533,49.7066,24.8533,49.7066;}
	.st8{fill:#BABABA;}
	.st9{fill:none;stroke:#2388AE;stroke-width:15;stroke-linecap:round;}
	.st10{fill:none;stroke:#565656;stroke-width:15;stroke-linecap:round;stroke-miterlimit:10;stroke-dasharray:32.1931,42.9241;}
	
		.st11{fill:none;stroke:#565656;stroke-width:15;stroke-linecap:round;stroke-miterlimit:10;stroke-dasharray:32.1931,42.9241,32.1931,42.9241;}
	.st12{fill:none;stroke:#565656;stroke-width:15;stroke-linejoin:round;stroke-miterlimit:10;}
	.st13{fill:none;stroke:#000000;stroke-width:15;stroke-linecap:round;stroke-miterlimit:10;}
	.st14{fill:none;stroke:#000000;stroke-width:15;stroke-linecap:round;stroke-linejoin:round;stroke-miterlimit:10;}
	.st15{fill:#FFFFFF;}
	.st16{fill:url(#SVGID_1_);}
	.st17{fill:url(#SVGID_2_);}
	.st18{fill:url(#SVGID_3_);}
	.st19{fill:url(#SVGID_4_);}
	.st20{fill:url(#SVGID_5_);}
	.st21{fill:url(#SVGID_6_);}
	.st22{fill:url(#SVGID_7_);}
	.st23{fill:url(#SVGID_8_);}
	.st24{fill:url(#SVGID_9_);}
	.st25{fill:url(#SVGID_10_);}
	.st26{fill:url(#SVGID_11_);}
	.st27{fill:url(#SVGID_12_);}
	.st28{fill:url(#SVGID_13_);}
	.st29{fill:url(#SVGID_14_);}
	.st30{fill:url(#SVGID_15_);}
	.st31{fill:url(#SVGID_16_);}
	.st32{fill:url(#SVGID_17_);}
	.st33{fill:url(#SVGID_18_);}
	.st34{fill:url(#SVGID_19_);}
	.st35{fill:url(#SVGID_20_);}
	.st36{fill:url(#SVGID_21_);}
	.st37{fill:url(#SVGID_22_);}
	.st38{fill:url(#SVGID_23_);}
	.st39{fill:url(#SVGID_24_);}
	.st40{fill:url(#SVGID_25_);}
	.st41{fill:url(#SVGID_26_);}
	.st42{fill:url(#SVGID_27_);}
	.st43{fill:url(#SVGID_28_);}
	.st44{fill:url(#SVGID_29_);}
	.st45{fill:url(#SVGID_30_);}
	.st46{fill:url(#SVGID_31_);}
	.st47{fill:url(#SVGID_32_);}
	.st48{fill:url(#SVGID_33_);}
	.st49{fill:url(#SVGID_34_);}
	.st50{fill:url(#SVGID_35_);}
	.st51{fill:url(#SVGID_36_);}
	.st52{fill:url(#SVGID_37_);}
	.st53{fill:url(#SVGID_38_);}
	.st54{enable-background:new    ;}
	.st55{fill:#717171;}
	.st56{fill:#555555;}
	.st57{fill:#7B7B7B;}
	.st58{fill:#9F9F9F;}
	.st59{fill:#6E6E6E;}
	.st60{fill:#8D8D8D;}
	.st61{fill:#606060;}
	.st62{fill:#A5A5A5;}
	.st63{fill:#5C5C5C;}
	.st64{fill:none;stroke:#000000;stroke-width:15;stroke-miterlimit:10;}
	.st65{fill:none;stroke:#5C5C5C;stroke-width:15;stroke-miterlimit:10;}
	.st66{fill:none;stroke:#5C5C5C;stroke-width:15;stroke-linecap:round;stroke-linejoin:round;stroke-miterlimit:10;}
	.st67{fill:none;stroke:#000000;stroke-width:15;stroke-linecap:round;stroke-linejoin:round;}
	.st68{fill:none;stroke:#000000;stroke-width:15;stroke-linecap:round;stroke-linejoin:round;stroke-dasharray:24.8533,49.7066;}
	
		.st69{fill:none;stroke:#000000;stroke-width:15;stroke-linecap:round;stroke-linejoin:round;stroke-dasharray:24.8533,49.7066,24.8533,49.7066;}
</style>
<g id="Layer_1">
</g>
<g id="Einstellungen">
	<path class="st14" d="M342,474c-5.4,3.1-10.6,6.1-15.9,9.1c-12,6.8-19.3-0.1-19.5-15.9c-0.3-24.8-0.3-47.4,0-71.1
		c0.2-16.7,8.1-23,21.3-15c22.5,13.6,40.8,22.5,66,38c11.8,7.3,12.7,17.4,1.3,24c-5.1,3-10.2,5.9-15.5,9c4.3,7.6,8.5,14.7,12.6,21.9
		c4.8,8.5,3.2,14.9-5.1,19.8c-2.7,1.6-8,4.6-12.9,7.4c-6,3.4-13.5,1.6-17.3-4.1C351.4,489,344.3,478.1,342,474z"/>
	<path class="st14" d="M82.6,107.8V33.2c0-13.6,11-24.7,24.7-24.7H415c13.6,0,24.7,11,24.7,24.7v408.3c0,13.6-11,24.7-24.7,24.7"/>
	<path class="st14" d="M283.7,466.2H107.3c-13.6,0-24.7-11-24.7-24.7V150.2"/>
	<line class="st14" x1="82.6" y1="85.7" x2="439.7" y2="85.7"/>
	<circle class="st14" cx="130.9" cy="46.6" r="16.1"/>
	<circle class="st14" cx="190.9" cy="46.6" r="16.1"/>
	<circle class="st14" cx="250.9" cy="46.6" r="16.1"/>
	<line class="st14" x1="190.9" y1="128.1" x2="332.2" y2="128.1"/>
	<rect x="153.6" y="190.6" class="st14" width="217.7" height="40.1"/>
	<rect x="152" y="274.2" class="st14" width="217.7" height="40.1"/>
	<rect x="194.7" y="363.7" class="st14" width="71" height="40.1"/>
</g>
</svg>
