<svg xmlns="http://www.w3.org/2000/svg" width="20.563" height="25.24" viewBox="0 0 20.563 25.24">
  <path id="Pfad_431" data-name="Pfad 431" d="M298.346,179.162c.339,0,.637,0,.935,0a1.033,1.033,0,1,1,.008,2.059q-4.866,0-9.732,0-4.3,0-8.608,0a1.031,1.031,0,0,1-1.044-1.383,1.018,1.018,0,0,1,.963-.674c.33-.007.66,0,1.028,0v-.4q0-9.767,0-19.534a3.1,3.1,0,0,1,2.343-3.14,3.542,3.542,0,0,1,.856-.1q5.027-.01,10.053,0a3.1,3.1,0,0,1,3.2,3.216q.005,9.767,0,19.534Zm-6.171.174c0-1.192.02-2.35-.007-3.507a1.4,1.4,0,0,0-1.387-1.3c-.417-.008-.835,0-1.253,0a1.423,1.423,0,0,0-1.462,1.461c0,.772,0,1.545,0,2.317,0,.34,0,.679,0,1.032Zm-5.138-17.174c.193,0,.386.011.578,0a1.027,1.027,0,0,0-.018-2.051c-.374-.015-.75-.016-1.124,0a1.021,1.021,0,0,0-.978,1.033,1.033,1.033,0,0,0,.964,1.018C286.651,162.173,286.844,162.163,287.037,162.163Zm6.181,0h0c.193,0,.386.012.578,0a1.027,1.027,0,0,0-.01-2.049c-.384-.019-.771-.018-1.156,0a1.019,1.019,0,0,0-.966,1.013,1.032,1.032,0,0,0,.976,1.038C292.832,162.173,293.025,162.163,293.218,162.163Zm-6.184,4.635c.193,0,.386.01.578,0a1.027,1.027,0,0,0-.012-2.051c-.374-.016-.75-.015-1.123,0a1.021,1.021,0,0,0-.981,1.031,1.033,1.033,0,0,0,.993,1.022C286.67,166.807,286.852,166.8,287.034,166.8Zm6.192-2.057c-.193,0-.386-.008-.578,0a1.027,1.027,0,0,0,.005,2.053c.374.014.75.017,1.123,0a1.027,1.027,0,0,0-.005-2.051C293.591,164.734,293.408,164.742,293.226,164.742Zm-6.177,6.693h0c.193,0,.386.012.578,0a1.027,1.027,0,0,0-.011-2.049c-.384-.019-.771-.018-1.155,0a1.019,1.019,0,0,0-.966,1.013,1.033,1.033,0,0,0,.976,1.038C286.664,171.444,286.857,171.435,287.05,171.435Zm6.153-2.057c-.182,0-.364-.007-.546,0a1.027,1.027,0,0,0-.011,2.053c.374.016.75.016,1.123,0a1.027,1.027,0,0,0-.021-2.053C293.567,169.37,293.384,169.377,293.2,169.377Z" transform="translate(-279.838 -155.983)" fill="#ffffff"/>
</svg>
