<?xml version="1.0" encoding="utf-8"?>
<!-- Generator: Adobe Illustrator 25.0.1, SVG Export Plug-In . SVG Version: 6.00 Build 0)  -->
<svg version="1.1" xmlns="http://www.w3.org/2000/svg" xmlns:xlink="http://www.w3.org/1999/xlink" x="0px" y="0px"
	 viewBox="0 0 512 512" style="enable-background:new 0 0 512 512;" xml:space="preserve">
<style type="text/css">
	.st0{fill:none;stroke:#565656;stroke-width:15;stroke-linecap:round;stroke-linejoin:round;stroke-miterlimit:10;}
	.st1{fill:none;stroke:#565656;stroke-width:15;stroke-miterlimit:10;}
	.st2{fill:none;stroke:#565656;stroke-width:15;stroke-linecap:round;stroke-miterlimit:10;}
	.st3{fill:none;stroke:#565656;stroke-width:15;stroke-linecap:round;}
	.st4{fill:#565656;}
	.st5{fill:none;stroke:#565656;stroke-width:15;stroke-linecap:round;stroke-linejoin:round;}
	.st6{fill:none;stroke:#565656;stroke-width:15;stroke-linecap:round;stroke-linejoin:round;stroke-dasharray:24.8533,49.7066;}
	
		.st7{fill:none;stroke:#565656;stroke-width:15;stroke-linecap:round;stroke-linejoin:round;stroke-dasharray:24.8533,49.7066,24.8533,49.7066;}
	.st8{fill:#BABABA;}
	.st9{fill:none;stroke:#2388AE;stroke-width:15;stroke-linecap:round;}
	.st10{fill:none;stroke:#565656;stroke-width:15;stroke-linecap:round;stroke-miterlimit:10;stroke-dasharray:32.1931,42.9241;}
	
		.st11{fill:none;stroke:#565656;stroke-width:15;stroke-linecap:round;stroke-miterlimit:10;stroke-dasharray:32.1931,42.9241,32.1931,42.9241;}
	.st12{fill:none;stroke:#565656;stroke-width:15;stroke-linejoin:round;stroke-miterlimit:10;}
	.st13{fill:#FFFFFF;}
	.st14{fill:url(#SVGID_1_);}
	.st15{fill:url(#SVGID_2_);}
	.st16{fill:url(#SVGID_3_);}
	.st17{fill:url(#SVGID_4_);}
	.st18{fill:url(#SVGID_5_);}
	.st19{fill:url(#SVGID_6_);}
	.st20{fill:url(#SVGID_7_);}
	.st21{fill:url(#SVGID_8_);}
	.st22{fill:url(#SVGID_9_);}
	.st23{fill:url(#SVGID_10_);}
	.st24{fill:url(#SVGID_11_);}
	.st25{fill:url(#SVGID_12_);}
	.st26{fill:url(#SVGID_13_);}
	.st27{fill:url(#SVGID_14_);}
	.st28{fill:url(#SVGID_15_);}
	.st29{fill:url(#SVGID_16_);}
	.st30{fill:url(#SVGID_17_);}
	.st31{fill:url(#SVGID_18_);}
	.st32{fill:url(#SVGID_19_);}
	.st33{fill:url(#SVGID_20_);}
	.st34{fill:url(#SVGID_21_);}
	.st35{fill:url(#SVGID_22_);}
	.st36{fill:url(#SVGID_23_);}
	.st37{fill:url(#SVGID_24_);}
	.st38{fill:url(#SVGID_25_);}
	.st39{fill:url(#SVGID_26_);}
	.st40{fill:url(#SVGID_27_);}
	.st41{fill:url(#SVGID_28_);}
	.st42{fill:url(#SVGID_29_);}
	.st43{fill:url(#SVGID_30_);}
	.st44{fill:url(#SVGID_31_);}
	.st45{fill:url(#SVGID_32_);}
	.st46{fill:url(#SVGID_33_);}
	.st47{fill:url(#SVGID_34_);}
	.st48{fill:url(#SVGID_35_);}
	.st49{fill:url(#SVGID_36_);}
	.st50{fill:url(#SVGID_37_);}
	.st51{fill:url(#SVGID_38_);}
	.st52{enable-background:new    ;}
	.st53{fill:#717171;}
	.st54{fill:#555555;}
	.st55{fill:#7B7B7B;}
	.st56{fill:#9F9F9F;}
	.st57{fill:#6E6E6E;}
	.st58{fill:#8D8D8D;}
	.st59{fill:#606060;}
	.st60{fill:#A5A5A5;}
	.st61{fill:#5C5C5C;}
	.st62{fill:none;stroke:#5C5C5C;stroke-width:15;stroke-miterlimit:10;}
	.st63{fill:none;stroke:#5C5C5C;stroke-width:15;stroke-linecap:round;stroke-linejoin:round;stroke-miterlimit:10;}
</style>
<g id="Layer_1">
	<g>
		<path class="st61" d="M10.4,489.5c10.6-26.5,21.1-53,31.7-79.5c1.4-3.6,2.8-7.3,4.6-10.7c3.9-7.7,10.3-12,18.9-12.2
			c8.7-0.2,17.3-0.1,26-0.1c4.7,0,7.6,2.9,7.6,7c0,4.1-2.9,7.2-7.5,7.3c-8.1,0.2-16.1,0.2-24.2,0c-4.5-0.1-7.1,1.8-8.8,6
			c-10.6,26-21.3,52-32,78c-3.3,8.1-0.5,12.3,8.4,12.3c67.1,0,134.3,0,201.4,0c68.6,0,137.2,0,205.9,0c1.3,0,2.7,0,4,0
			c7-0.2,10.1-4.6,7.5-11.1c-4.8-11.9-9.7-23.8-14.6-35.7c-5.9-14.4-11.9-28.7-17.6-43.2c-1.8-4.6-4.7-6.5-9.5-6.4
			c-7.6,0.2-15.2,0.1-22.9,0c-5.4-0.1-8.4-2.7-8.5-7.2c-0.1-4.6,2.9-7.1,8.3-7.2c8.2,0,16.4-0.1,24.7,0c9.4,0.2,16.5,4.5,20.1,13.2
			c11.5,27.4,22.8,55,33.9,82.6c4.6,11.5-1.5,23.8-13.1,28c-1,0.3-1.9,0.8-2.8,1.2c-141.1,0-282.3,0-423.4,0
			c-10.2-3.2-16.2-10.1-17.9-20.7C10.4,490.7,10.4,490.1,10.4,489.5z"/>
		<path class="st61" d="M132.7,467.8c14.4,0,28.1,0,42.6,0c0-1.8,0-3.5,0-5.2c0-25.2,0.4-50.3-0.1-75.5
			c-0.4-16.1,12.6-24.5,24.5-24.4c27.1,0.4,54.1,0.3,81.2,0c12.9-0.1,24.5,9.4,24.2,24.2c-0.5,25.2-0.1,50.3-0.1,75.5
			c0,1.6,0,3.3,0,5.2c14.3,0,28.2,0,42.7,0c0-1.9,0-3.6,0-5.4c0-51.7,0-103.4,0-155c0-1.6-0.1-3.3,0.1-4.9c0.4-3.8,2.7-6,6.4-6.3
			c4-0.3,6.6,1.7,7.5,5.6c0.3,1.4,0.3,3,0.3,4.5c0,55.3,0,110.6,0,165.8c0,8.3-2.1,10.4-10.3,10.4c-74.3,0-148.6,0-222.9,0
			c-8,0-10.2-2.2-10.2-10.1c0-103.1,0-206.1,0-309.2c0-14.9,9.1-24.2,24-24.3c36.6-0.1,73.3,0,109.9,0c5.8,0,9,2.5,9.2,6.9
			c0.2,4.5-3.4,7.5-9.2,7.5c-35.9,0-71.8,0-107.6,0c-9.9,0-11.9,2-11.9,11.7c0,99,0,198,0,297.1
			C132.7,463.8,132.7,465.5,132.7,467.8z M232.6,467.8c0-30.4,0-60.4,0-90.6c-11,0-21.8,0-32.5,0c-7.9,0-10.5,2.6-10.5,10.5
			c0,25.1,0,50.3,0,75.4c0,1.6,0,3.1,0,4.8C204.3,467.8,218.3,467.8,232.6,467.8z M290,467.8c0.2-0.7,0.4-1,0.4-1.2
			c0-27.2,0.1-54.4,0-81.7c0-4.6-3.1-7.4-8.1-7.7c-3.4-0.2-6.9-0.1-10.3-0.1c-8.2,0-16.3,0-24.5,0c0,30.5,0,60.5,0,90.6
			C261.8,467.8,275.8,467.8,290,467.8z"/>
		<path class="st61" d="M287.2,324.3c-7.2,0-14.4,0-21.5,0c-6.4,0-8.8-2.3-8.8-8.5c-0.1-13.6-0.1-27.3,0-40.9c0-6,2.5-8.4,8.5-8.4
			c14.6-0.1,29.3-0.1,43.9,0c6.2,0,8.7,2.5,8.7,8.8c0.1,13.5,0.1,27,0,40.4c0,6.1-2.6,8.6-8.8,8.6
			C301.8,324.4,294.5,324.3,287.2,324.3z M303.5,281c-10.9,0-21.4,0-32.1,0c0,9.7,0,19.2,0,28.6c10.9,0,21.4,0,32.1,0
			C303.5,300.1,303.5,290.8,303.5,281z"/>
		<path class="st61" d="M192.9,266.5c7.5,0,14.9-0.1,22.4,0c5.4,0.1,7.9,2.5,8,8c0.1,13.9,0.1,27.9,0,41.8c0,5.5-2.5,8-7.9,8
			c-15.1,0.1-30.2,0.1-45.3,0c-5.1,0-7.8-2.6-7.8-7.8c-0.1-14.1-0.1-28.2,0-42.2c0-5.2,2.7-7.7,7.8-7.8
			C177.6,266.4,185.2,266.5,192.9,266.5z M176.7,281c0,9.9,0,19.2,0,28.7c10.8,0,21.3,0,31.8,0c0-9.7,0-19.2,0-28.7
			C197.8,281,187.4,281,176.7,281z"/>
		<path class="st61" d="M192.6,179.4c7.5,0,14.9-0.1,22.4,0c5.7,0.1,8.2,2.5,8.2,8.2c0.1,13.8,0.1,27.6,0,41.3
			c0,5.8-2.4,8.3-8.1,8.3c-14.9,0.1-29.9,0.1-44.8,0c-5.6,0-8.1-2.7-8.1-8.4c-0.1-13.6-0.1-27.3,0-40.9c0-6,2.6-8.5,8.5-8.6
			C177.9,179.4,185.3,179.4,192.6,179.4z M208.7,194.2c-10.8,0-21.5,0-32,0c0,9.7,0,19.1,0,28.6c10.8,0,21.3,0,32,0
			C208.7,213,208.7,203.7,208.7,194.2z"/>
	</g>
	<g>
		<path class="st62" d="M389.4,8.9c4.2,0,8.5,0,12.7,0c1.5,0.2,2.9,0.4,4.4,0.5c21.1,2.5,40,10.3,56.5,23.8
			c21.1,17.3,34.6,39.2,39.5,66.2c0.7,3.8,1.1,7.6,1.6,11.5c0,4.2,0,8.5,0,12.7c-0.2,1.5-0.4,2.9-0.5,4.4
			c-2.4,20.8-10.1,39.5-23.3,55.8c-17.3,21.5-39.5,35.2-66.8,40.2c-3.8,0.7-7.6,1.1-11.5,1.6c-4.1,0-8.2,0-12.3,0
			c-0.5-0.1-1.1-0.3-1.6-0.3c-17.1-1.3-33.4-5.8-48.4-14.3c-0.8-0.4-2-0.5-2.9-0.2c-8.8,2.8-17.5,5.8-26.2,8.7
			c-5.9,2-11.8,4.1-17.7,6.1c-1.8,0-4.9-6.8-4.7-7.4c4.6-13.8,9.2-27.6,13.9-41.4c0.5-1.6,0.4-2.9-0.4-4.3
			c-6.2-10.8-10.1-22.4-12.3-34.6c-0.8-4.8-1.3-9.7-2-14.6c0-4.1,0-8.2,0-12.3c0.2-1.5,0.4-2.9,0.5-4.4c2.2-19.4,9.1-37,20.8-52.6
			c17.5-23.2,40.3-38,69-43.3C381.6,9.8,385.5,9.4,389.4,8.9z"/>
		<path class="st63" d="M412.7,155.3c1.5,0,2.7,0,3.9,0c2.8,0.1,4.5,1.7,4.6,4.5c0.1,5.4,0.1,10.9,0,16.3c0,2.9-1.7,4.6-4.7,4.6
			c-13.8,0-27.5,0-41.3,0c-3.2,0-4.8-1.7-4.8-4.9c0-5.1,0-10.3,0-15.4c0-3.3,1.6-4.9,4.9-5c1.1,0,2.2,0,3.4,0c0-11.3,0-22.4,0-33.9
			c-1.2,0-2.5,0-3.7,0c-2.9-0.1-4.6-1.7-4.6-4.7c-0.1-5.4-0.1-10.7,0-16.1c0-2.9,1.7-4.6,4.6-4.6c11,0,22-0.1,33,0
			c3.1,0,4.6,1.8,4.6,5.3c0,17.1,0,34.1,0,51.2C412.7,153.4,412.7,154.2,412.7,155.3z"/>
		<path class="st62" d="M406.7,65.7c0.1-7.4-6.1-13.7-13.5-13.7c-7.3,0-13.4,6-13.6,13.3c-0.2,7.4,5.9,13.7,13.4,13.8
			C400.4,79.2,406.6,73.1,406.7,65.7z"/>
	</g>
</g>
<g id="Einstellungen">
</g>
</svg>
