<svg id="Gruppe_262" data-name="Gruppe 262" xmlns="http://www.w3.org/2000/svg" width="20.485" height="20.285" viewBox="0 0 20.485 20.285">
  <path id="Pfad_418" data-name="Pfad 418" d="M332.807,264.63h-4.67a12.6,12.6,0,0,1,0-6.509h4.675Z" transform="translate(-323.051 -251.229)" fill="#2388ae"/>
  <path id="Pfad_419" data-name="Pfad 419" d="M405.848,258.038h4.67a12.6,12.6,0,0,1,0,6.509h-4.674Z" transform="translate(-395.118 -251.153)" fill="#2388ae"/>
  <path id="Pfad_420" data-name="Pfad 420" d="M481.99,264.617h-3.584a13.776,13.776,0,0,0,0-6.508h3.582A10.208,10.208,0,0,1,481.99,264.617Z" transform="translate(-462.037 -251.218)" fill="#2388ae"/>
  <path id="Pfad_421" data-name="Pfad 421" d="M268.333,264.55a10.187,10.187,0,0,1,0-6.507h3.579a13.761,13.761,0,0,0,0,6.507Z" transform="translate(-267.801 -251.158)" fill="#2388ae"/>
  <path id="Pfad_422" data-name="Pfad 422" d="M410.206,176.192h-4.341v-5.869C407.131,170.764,409.863,174.436,410.206,176.192Z" transform="translate(-395.134 -170.256)" fill="#2388ae"/>
  <path id="Pfad_423" data-name="Pfad 423" d="M341.431,169.456v5.922h-4.382A12.474,12.474,0,0,1,341.431,169.456Z" transform="translate(-331.667 -169.456)" fill="#2388ae"/>
  <path id="Pfad_424" data-name="Pfad 424" d="M341.387,360.065a12.47,12.47,0,0,1-4.378-5.925h4.378Z" transform="translate(-331.63 -339.785)" fill="#2388ae"/>
  <path id="Pfad_425" data-name="Pfad 425" d="M405.781,360.087v-5.929h4.381A12.487,12.487,0,0,1,405.781,360.087Z" transform="translate(-395.056 -339.802)" fill="#2388ae"/>
  <path id="Pfad_426" data-name="Pfad 426" d="M427.443,170.708a10.4,10.4,0,0,1,7.185,5.832c-.127.007-.2.014-.273.014-1,0-2,0-3,0a.254.254,0,0,1-.294-.2,13.346,13.346,0,0,0-3.519-5.481.741.741,0,0,1-.079-.085C427.455,170.782,427.456,170.76,427.443,170.708Z" transform="translate(-415.035 -170.611)" fill="#2388ae"/>
  <path id="Pfad_427" data-name="Pfad 427" d="M427.754,359.746c.6-.7,1.2-1.361,1.739-2.068a12.329,12.329,0,0,0,1.84-3.519c.047-.136.069-.262.279-.26,1.047.013,2.095.006,3.142.007a1.451,1.451,0,0,1,.155.022A10.374,10.374,0,0,1,427.754,359.746Z" transform="translate(-415.322 -339.563)" fill="#2388ae"/>
  <path id="Pfad_428" data-name="Pfad 428" d="M287.094,171.254c-.424.468-.87.925-1.277,1.414a12.842,12.842,0,0,0-2.309,4.14c-.061.181-.134.259-.342.256-.988-.013-1.976-.006-2.964-.006-.074,0-.148-.007-.226-.011C280.585,174.681,284.558,171.458,287.094,171.254Z" transform="translate(-279.031 -171.114)" fill="#2388ae"/>
  <path id="Pfad_429" data-name="Pfad 429" d="M279.219,353.973c1.164,0,2.25,0,3.335.006a.269.269,0,0,1,.2.138,13.61,13.61,0,0,0,3.613,5.593c.018.017.023.048.052.114A10.421,10.421,0,0,1,279.219,353.973Z" transform="translate(-278.331 -339.631)" fill="#2388ae"/>
</svg>
