<?xml version="1.0" encoding="utf-8"?>
<!-- Generator: Adobe Illustrator 25.0.1, SVG Export Plug-In . SVG Version: 6.00 Build 0)  -->
<svg version="1.1" xmlns="http://www.w3.org/2000/svg" xmlns:xlink="http://www.w3.org/1999/xlink" x="0px" y="0px"
	 viewBox="0 0 512 512" style="enable-background:new 0 0 512 512;" xml:space="preserve">
<style type="text/css">
	.st0{fill:none;stroke:#565656;stroke-width:15;stroke-linecap:round;stroke-linejoin:round;stroke-miterlimit:10;}
	.st1{fill:none;stroke:#565656;stroke-width:15;stroke-miterlimit:10;}
	.st2{fill:none;stroke:#565656;stroke-width:15;stroke-linecap:round;stroke-miterlimit:10;}
	.st3{fill:none;stroke:#565656;stroke-width:15;stroke-linecap:round;}
	.st4{fill:#565656;}
	.st5{fill:none;stroke:#565656;stroke-width:15;stroke-linecap:round;stroke-linejoin:round;}
	.st6{fill:none;stroke:#565656;stroke-width:15;stroke-linecap:round;stroke-linejoin:round;stroke-dasharray:24.8533,49.7066;}
	
		.st7{fill:none;stroke:#565656;stroke-width:15;stroke-linecap:round;stroke-linejoin:round;stroke-dasharray:24.8533,49.7066,24.8533,49.7066;}
	.st8{fill:#BABABA;}
	.st9{fill:none;stroke:#2388AE;stroke-width:15;stroke-linecap:round;}
	.st10{fill:none;stroke:#565656;stroke-width:15;stroke-linecap:round;stroke-miterlimit:10;stroke-dasharray:32.1931,42.9241;}
	
		.st11{fill:none;stroke:#565656;stroke-width:15;stroke-linecap:round;stroke-miterlimit:10;stroke-dasharray:32.1931,42.9241,32.1931,42.9241;}
	.st12{fill:none;stroke:#565656;stroke-width:15;stroke-linejoin:round;stroke-miterlimit:10;}
	.st13{fill:#FFFFFF;}
	.st14{fill:url(#SVGID_1_);}
	.st15{fill:url(#SVGID_2_);}
	.st16{fill:url(#SVGID_3_);}
	.st17{fill:url(#SVGID_4_);}
	.st18{fill:url(#SVGID_5_);}
	.st19{fill:url(#SVGID_6_);}
	.st20{fill:url(#SVGID_7_);}
	.st21{fill:url(#SVGID_8_);}
	.st22{fill:url(#SVGID_9_);}
	.st23{fill:url(#SVGID_10_);}
	.st24{fill:url(#SVGID_11_);}
	.st25{fill:url(#SVGID_12_);}
	.st26{fill:url(#SVGID_13_);}
	.st27{fill:url(#SVGID_14_);}
	.st28{fill:url(#SVGID_15_);}
	.st29{fill:url(#SVGID_16_);}
	.st30{fill:url(#SVGID_17_);}
	.st31{fill:url(#SVGID_18_);}
	.st32{fill:url(#SVGID_19_);}
	.st33{fill:url(#SVGID_20_);}
	.st34{fill:url(#SVGID_21_);}
	.st35{fill:url(#SVGID_22_);}
	.st36{fill:url(#SVGID_23_);}
	.st37{fill:url(#SVGID_24_);}
	.st38{fill:url(#SVGID_25_);}
	.st39{fill:url(#SVGID_26_);}
	.st40{fill:url(#SVGID_27_);}
	.st41{fill:url(#SVGID_28_);}
	.st42{fill:url(#SVGID_29_);}
	.st43{fill:url(#SVGID_30_);}
	.st44{fill:url(#SVGID_31_);}
	.st45{fill:url(#SVGID_32_);}
	.st46{fill:url(#SVGID_33_);}
	.st47{fill:url(#SVGID_34_);}
	.st48{fill:url(#SVGID_35_);}
	.st49{fill:url(#SVGID_36_);}
	.st50{fill:url(#SVGID_37_);}
	.st51{fill:url(#SVGID_38_);}
	.st52{enable-background:new    ;}
	.st53{fill:#717171;}
	.st54{fill:#555555;}
	.st55{fill:#7B7B7B;}
	.st56{fill:#9F9F9F;}
	.st57{fill:#6E6E6E;}
	.st58{fill:#8D8D8D;}
	.st59{fill:#606060;}
	.st60{fill:#A5A5A5;}
	.st61{fill:#5C5C5C;}
	.st62{fill:none;stroke:#5C5C5C;stroke-width:15;stroke-miterlimit:10;}
	.st63{fill:none;stroke:#5C5C5C;stroke-width:15;stroke-linecap:round;stroke-linejoin:round;stroke-miterlimit:10;}
</style>
<g id="Layer_1">
	<g>
		<path class="st61" d="M54.5,93.2C29.6,124,15.9,159.6,14.2,199.9c25.8,0,51,0,76.5,0c0.5-30,4.7-59.3,12.7-87.2
			C86.8,106.1,70.9,99.7,54.5,93.2z M371.5,200c-1.9-40.6-15.5-76.2-40.4-106.8c-16.5,6.6-32.5,12.9-48.8,19.4
			c8.1,28.2,12.2,57.5,12.7,87.4C320.6,200,345.8,200,371.5,200z M371.5,213.1 M14.1,213c1.9,40.5,15.5,76,40.4,106.7
			c16.4-6.5,32.5-12.9,48.9-19.4C95.2,272,91.2,242.8,90.6,213C65,213,39.8,213,14.1,213z M269.8,116c-23.7,2.8-46.9,5.6-70.3,8.4
			c0,24.7,0,50.1,0,75.5c27.7,0,55,0,82.6,0C281.7,171,277.5,142.9,269.8,116z M116.1,115.2c-7.9,27.6-12.2,55.8-12.4,84.7
			c27.7,0,55.1,0,82.5,0c0-25.7,0-51.1,0-76.3c-11.8-0.9-23.4-1.4-34.9-2.8C139.6,119.4,128.1,117.2,116.1,115.2z M188.2,397.6h-6.4
			c-1.1-0.2-2.1-0.5-3.2-0.7c-6.8-0.9-13.6-1.4-20.3-2.6C79.8,379.9,18.1,317.6,4.6,239.2c-1.2-7.2-2-14.5-3-21.8l0-22.4
			c0.2-1.5,0.5-2.9,0.7-4.4c1.2-15.8,4.3-31.3,9.5-46.3C27.2,100,55,65.7,95.3,41.7c36-21.4,75.1-30,116.8-25.9
			c38,3.8,72.2,17.7,101.6,42.1c44,36.4,67.6,83.5,70.5,140.5l0,0.3c0.1,7.9-6.2,14.3-14.1,14.3l-74.4,0.1H282h-71.4
			c-6.2,0-11.3,5-11.3,11.3v65.4l0,96.8C199.2,392.7,194.3,397.6,188.2,397.6z M186.2,289.8c0-25.8,0-51.2,0-76.6
			c-27.7,0-55.1,0-82.6,0c0.4,29,4.5,57.2,12.6,84.9C139.4,292.9,162.4,290.1,186.2,289.8z M199.4,28.2c0,27.7,0,54.9,0,82
			c14.2,0.8,54.3-4,65.9-8c-1.7-4.3-3.2-8.6-5.1-12.7c-7.6-17.2-16.8-33.4-30.9-46.2C220.9,35.7,211.3,30,199.4,28.2z M186.2,28.2
			c-9.8,1.4-18.2,5.7-25.7,11.6c-16.7,13.2-26.8,31.1-35.3,50.1c-1.8,4-3.3,8.2-5,12.6c22,5,43.8,7.4,66,7.9
			C186.2,82.9,186.2,55.7,186.2,28.2z M186.1,384.6c0-27.4,0-54.6,0-82.1c-22.3,0.2-44.1,2.9-66,7.8c1.9,4.7,3.5,9.3,5.5,13.7
			c7.6,17,16.8,33.1,30.9,45.7C165,377.3,174.5,382.9,186.1,384.6z M147.2,33.9C114.9,42.3,87.2,58.5,64,82.4
			c7.2,5.2,36,16.2,43.7,16.7C115.7,74.3,128.9,52.6,147.2,33.9z M322.4,83.4c-20.6-22.9-63.7-48-84.4-49.4
			c18.8,18.6,32,40.4,40.4,66.4C293.2,94.6,307.5,89.1,322.4,83.4z M146.2,379.1c-7.5-10-15.9-19.8-22.5-30.6
			c-6.7-10.9-11.5-22.9-17.4-34.8c-14.3,3.8-28.6,9.2-42.6,16.5C87.3,354.5,114.8,370.6,146.2,379.1z"/>
	</g>
	<path class="st0" d="M257.4,454.2l3.2,3.2c5.9,5.9,15.4,5.9,21.3,0l5.4-5.4c6.6,3.7,13.6,6.6,20.9,8.8v7.5c0,8.3,6.7,15,15,15h30.7
		c8.3,0,15-6.7,15-15v-7.5c7.3-2.2,14.2-5.1,20.9-8.8l5.4,5.4c5.9,5.9,15.4,5.9,21.3,0l21.7-21.7c5.9-5.9,5.9-15.4,0-21.3l-5.9-5.9
		c3.4-6.5,6.1-13.3,8.1-20.4h8.7c8.3,0,15-6.7,15-15v-30.7c0-8.3-6.7-15-15-15l0,0h-9.7c-2.1-6.6-4.9-13.1-8.3-19.2l7.1-7.1
		c5.9-5.9,5.9-15.4,0-21.3l-21.7-21.7c-5.9-5.9-15.4-5.9-21.3,0l-7.6,7.6c-6-3.1-12.2-5.7-18.7-7.6v-10.9c0-8.3-6.7-15-15-15h-30.7
		c-8.3,0-15,6.7-15,15v10.9c-8.8,2.6-14.7,5.5-18.7,7.6l-7.6-7.6c-5.9-5.9-15.4-5.9-21.3,0l-21.7,21.7c-5.9,5.9-5.9,15.4,0,21.3
		l7.1,7.1c-3.4,6.1-6.2,12.5-8.3,19.2H228c-8.3,0-15,6.7-15,15v30.7c0,8.3,6.7,15,15,15h8.7c2,7.1,4.7,13.9,8.1,20.4l-5.9,5.9
		c-5.9,5.9-5.9,15.4,0,21.3l3,3"/>
	<path class="st0" d="M327.7,298.2L327.7,298.2c-28.5,5.2-49.2,30.1-49.2,59.1c0,33.1,26.9,60.1,60.1,60.1s60.1-26.9,60.1-60.1
		c0-29.1-20.7-53.9-49.3-59.1"/>
</g>
<g id="Einstellungen">
</g>
</svg>
