<svg xmlns="http://www.w3.org/2000/svg" width="16.347" height="19.62" viewBox="0 0 16.347 19.62">
  <g id="Gruppe_302" data-name="Gruppe 302" transform="translate(-84.942 -640.89)">
    <path id="Pfad_448" data-name="Pfad 448" d="M93.3,640.89a.927.927,0,0,1,.645,1.044c-.014.209-.069.473.032.615.089.124.369.111.564.162a5.707,5.707,0,0,1,4.263,4.9c.057.486.033.982.043,1.473.016.708-.019,1.421.053,2.123a5.189,5.189,0,0,0,1.744,3.374,1.69,1.69,0,0,1,.627.976,1.421,1.421,0,0,1-1.262,1.672,2.312,2.312,0,0,1-.268.014H86.5a1.453,1.453,0,0,1-1.449-.894,1.405,1.405,0,0,1,.4-1.632,5.654,5.654,0,0,0,1.5-2.05,5.311,5.311,0,0,0,.432-2.027c.009-.76,0-1.519,0-2.28a5.709,5.709,0,0,1,4.824-5.754.669.669,0,0,0,.081-.029c0-.219.013-.446,0-.672a.9.9,0,0,1,.654-1.014Z" fill="#707070"/>
    <path id="Pfad_449" data-name="Pfad 449" d="M97.119,674.848a7.651,7.651,0,0,1-1.15-.391,2.961,2.961,0,0,1-1.534-2.055h6a2.552,2.552,0,0,1-.4,1,3.019,3.019,0,0,1-2.176,1.413.489.489,0,0,0-.088.032Z" transform="translate(-4.319 -14.338)" fill="#707070"/>
  </g>
</svg>
