<svg xmlns="http://www.w3.org/2000/svg" width="17.249" height="22.984" viewBox="0 0 17.249 22.984">
  <path id="Pfad_447" data-name="Pfad 447" d="M262.325,118.719H248.5a.135.135,0,0,0-.039-.021,1.976,1.976,0,0,1-1.674-2.08c.018-3.845.007-7.69.007-11.535,0-.6.13-.73.72-.73h11.726c0-.675,0-1.324,0-1.973a3.586,3.586,0,0,0-.83-2.318,3.819,3.819,0,0,0-6.677,1.386,6.737,6.737,0,0,0-.142,1.352c-.025.383-.171.584-.524.593q-.92.021-1.84,0a.479.479,0,0,1-.512-.528,6.6,6.6,0,0,1,1.865-5.048,6.469,6.469,0,0,1,6.379-1.891,6.654,6.654,0,0,1,5.149,6.358c.01.606.006,1.212.008,1.818,0,.079,0,.159,0,.25.467,0,.9,0,1.334,0,.4,0,.584.183.584.573q0,5.913,0,11.826a1.8,1.8,0,0,1-.788,1.579A5,5,0,0,1,262.325,118.719Zm-6.933-3.828c.284,0,.569,0,.853,0,.447-.006.64-.232.589-.669q-.142-1.225-.27-2.451a.279.279,0,0,1,.078-.206,1.913,1.913,0,0,0-1.667-3.325,1.917,1.917,0,0,0-.807,3.316.329.329,0,0,1,.086.244c-.083.818-.177,1.634-.268,2.451a.511.511,0,0,0,.554.639C254.823,114.9,255.108,114.891,255.392,114.891Z" transform="translate(-246.784 -95.735)" fill="#707070"/>
</svg>
