<svg xmlns="http://www.w3.org/2000/svg" width="27.375" height="20.571" viewBox="0 0 27.375 20.571">
  <g id="Gruppe_264" data-name="Gruppe 264" transform="translate(-208 -156.002)">
    <path id="Pfad_433" data-name="Pfad 433" d="M208,270.869a7.6,7.6,0,0,1,.423-1.224,3.235,3.235,0,0,1,2.814-1.8,25.314,25.314,0,0,1,2.907.03,3.116,3.116,0,0,1,2.159,1.167,8.119,8.119,0,0,0-3.759,6.791c-.293,0-.576,0-.859,0-.534,0-1.071.023-1.6-.025a2.238,2.238,0,0,1-2.037-1.822.849.849,0,0,0-.047-.122Z" transform="translate(0 -103.833)" fill="#707070"/>
    <path id="Pfad_434" data-name="Pfad 434" d="M310.632,310.222c-1.113,0-2.227,0-3.34,0a3.436,3.436,0,0,1-3.5-3.509,9.418,9.418,0,0,1,.214-2.63,5.707,5.707,0,0,1,5.376-4.139c1.041-.009,2.088-.035,3.123.057a5.639,5.639,0,0,1,4.919,4.929,8.287,8.287,0,0,1-.052,2.664,3.4,3.4,0,0,1-3.267,2.625c-1.158.011-2.316,0-3.474,0Z" transform="translate(-88.95 -133.652)" fill="#707070"/>
    <path id="Pfad_435" data-name="Pfad 435" d="M335.83,160.571a4.556,4.556,0,1,1,4.54,4.577A4.557,4.557,0,0,1,335.83,160.571Z" transform="translate(-118.701 -0.001)" fill="#707070"/>
    <path id="Pfad_436" data-name="Pfad 436" d="M474.989,269.034a3.281,3.281,0,0,1,2.415-1.2,25.669,25.669,0,0,1,2.855.027,3.384,3.384,0,0,1,3.029,3.294c.014.767.006,1.534,0,2.3a2.247,2.247,0,0,1-2.123,2.344c-.8.057-1.6.011-2.422.011A8.118,8.118,0,0,0,474.989,269.034Z" transform="translate(-247.921 -103.823)" fill="#707070"/>
    <path id="Pfad_437" data-name="Pfad 437" d="M230.763,159.449A3.42,3.42,0,1,1,227.372,156,3.42,3.42,0,0,1,230.763,159.449Z" transform="translate(-14.786 -0.001)" fill="#707070"/>
    <path id="Pfad_438" data-name="Pfad 438" d="M479.548,159.424a3.42,3.42,0,1,1,3.4,3.434A3.417,3.417,0,0,1,479.548,159.424Z" transform="translate(-252.155)" fill="#707070"/>
  </g>
</svg>
