<?xml version="1.0" encoding="utf-8"?>
<!-- Generator: Adobe Illustrator 25.0.1, SVG Export Plug-In . SVG Version: 6.00 Build 0)  -->
<svg version="1.1" xmlns="http://www.w3.org/2000/svg" xmlns:xlink="http://www.w3.org/1999/xlink" x="0px" y="0px"
	 viewBox="0 0 512 512" style="enable-background:new 0 0 512 512;" xml:space="preserve">
<style type="text/css">
	.st0{fill:none;stroke:#565656;stroke-width:15;stroke-linecap:round;stroke-linejoin:round;stroke-miterlimit:10;}
	.st1{fill:none;stroke:#565656;stroke-width:15;stroke-miterlimit:10;}
	.st2{fill:none;stroke:#565656;stroke-width:15;stroke-linecap:round;stroke-miterlimit:10;}
	.st3{fill:none;stroke:#565656;stroke-width:15;stroke-linecap:round;}
	.st4{fill:#565656;}
	.st5{fill:none;stroke:#565656;stroke-width:15;stroke-linecap:round;stroke-linejoin:round;}
	.st6{fill:none;stroke:#565656;stroke-width:15;stroke-linecap:round;stroke-linejoin:round;stroke-dasharray:24.8533,49.7066;}
	
		.st7{fill:none;stroke:#565656;stroke-width:15;stroke-linecap:round;stroke-linejoin:round;stroke-dasharray:24.8533,49.7066,24.8533,49.7066;}
	.st8{fill:#BABABA;}
	.st9{fill:none;stroke:#2388AE;stroke-width:15;stroke-linecap:round;}
	.st10{fill:none;stroke:#565656;stroke-width:15;stroke-linecap:round;stroke-miterlimit:10;stroke-dasharray:32.1931,42.9241;}
	
		.st11{fill:none;stroke:#565656;stroke-width:15;stroke-linecap:round;stroke-miterlimit:10;stroke-dasharray:32.1931,42.9241,32.1931,42.9241;}
	.st12{fill:none;stroke:#565656;stroke-width:15;stroke-linejoin:round;stroke-miterlimit:10;}
	.st13{fill:none;stroke:#000000;stroke-width:15;stroke-linecap:round;stroke-miterlimit:10;}
	.st14{fill:none;stroke:#000000;stroke-width:15;stroke-linecap:round;stroke-linejoin:round;stroke-miterlimit:10;}
	.st15{fill:none;stroke:#2388AE;stroke-width:15;stroke-linecap:round;stroke-linejoin:round;stroke-miterlimit:10;}
	.st16{fill:none;stroke:#2388AE;stroke-width:15;stroke-linecap:round;stroke-miterlimit:10;}
	.st17{fill:#FFFFFF;}
	.st18{fill:url(#SVGID_1_);}
	.st19{fill:url(#SVGID_2_);}
	.st20{fill:url(#SVGID_3_);}
	.st21{fill:url(#SVGID_4_);}
	.st22{fill:url(#SVGID_5_);}
	.st23{fill:url(#SVGID_6_);}
	.st24{fill:url(#SVGID_7_);}
	.st25{fill:url(#SVGID_8_);}
	.st26{fill:url(#SVGID_9_);}
	.st27{fill:url(#SVGID_10_);}
	.st28{fill:url(#SVGID_11_);}
	.st29{fill:url(#SVGID_12_);}
	.st30{fill:url(#SVGID_13_);}
	.st31{fill:url(#SVGID_14_);}
	.st32{fill:url(#SVGID_15_);}
	.st33{fill:url(#SVGID_16_);}
	.st34{fill:url(#SVGID_17_);}
	.st35{fill:url(#SVGID_18_);}
	.st36{fill:url(#SVGID_19_);}
	.st37{fill:url(#SVGID_20_);}
	.st38{fill:url(#SVGID_21_);}
	.st39{fill:url(#SVGID_22_);}
	.st40{fill:url(#SVGID_23_);}
	.st41{fill:url(#SVGID_24_);}
	.st42{fill:url(#SVGID_25_);}
	.st43{fill:url(#SVGID_26_);}
	.st44{fill:url(#SVGID_27_);}
	.st45{fill:url(#SVGID_28_);}
	.st46{fill:url(#SVGID_29_);}
	.st47{fill:url(#SVGID_30_);}
	.st48{fill:url(#SVGID_31_);}
	.st49{fill:url(#SVGID_32_);}
	.st50{fill:url(#SVGID_33_);}
	.st51{fill:url(#SVGID_34_);}
	.st52{fill:url(#SVGID_35_);}
	.st53{fill:url(#SVGID_36_);}
	.st54{fill:url(#SVGID_37_);}
	.st55{fill:url(#SVGID_38_);}
	.st56{enable-background:new    ;}
	.st57{fill:#717171;}
	.st58{fill:#555555;}
	.st59{fill:#7B7B7B;}
	.st60{fill:#9F9F9F;}
	.st61{fill:#6E6E6E;}
	.st62{fill:#8D8D8D;}
	.st63{fill:#606060;}
	.st64{fill:#A5A5A5;}
	.st65{fill:#5C5C5C;}
	.st66{fill:none;stroke:#000000;stroke-width:15;stroke-miterlimit:10;}
	.st67{fill:none;stroke:#5C5C5C;stroke-width:15;stroke-miterlimit:10;}
	.st68{fill:none;stroke:#5C5C5C;stroke-width:15;stroke-linecap:round;stroke-linejoin:round;stroke-miterlimit:10;}
	.st69{fill:none;stroke:#000000;stroke-width:15;stroke-linecap:round;stroke-linejoin:round;}
	.st70{fill:none;stroke:#000000;stroke-width:15;stroke-linecap:round;stroke-linejoin:round;stroke-dasharray:24.8533,49.7066;}
	
		.st71{fill:none;stroke:#000000;stroke-width:15;stroke-linecap:round;stroke-linejoin:round;stroke-dasharray:24.8533,49.7066,24.8533,49.7066;}
</style>
<g id="Layer_1">
	<g>
		<path class="st15" d="M394.1,51.3c-27.6-18.6-57.5-31.3-89.9-37.9C172.4-13.3,43.1,70.6,14.6,202.2
			c-15.4,71.2-2.2,137.4,39.4,197.4c3.9,5.6,4.9,10.6,2.9,17.1c-4.5,15.4-8.4,31.1-12.6,46.4c-0.4,1.4-0.6,2.9-1.1,5.3
			c9.9-2.7,19.2-5,28.4-7.6c8-2.1,15.9-4.1,23.6-6.6c6.3-2,11.3-0.7,16.5,3.1c22.7,16.5,47.6,28.5,74.4,36.1
			C326,532.7,468.3,447.3,497,304.8c13.3-66.3,0.8-128-35.7-184.9c-0.7-1.1-1.5-2.4-2.2-3.5"/>
	</g>
	<path class="st16" d="M149.2,188.4c-0.3-24.1,9.2-47,26.9-64.8c17.8-18,42.2-28.4,67.1-28.4c0.4,0,0.8,0,1.4,0
		c54.7,0.8,93.7,46.3,92.9,108.3c-0.8,28.3-18.3,57.6-47,78.6c-32,23.5-36.4,48-36.9,64.3"/>
	<path class="st4" d="M253.9,425.9c-2.8,0-5.4-1.1-7.4-3.2c-2-2-3.1-4.6-3.1-7.3c0-5.5,5-10.5,10.5-10.5c5.7,0.1,10.5,4.9,10.5,10.6
		C264.3,421.3,259.7,425.9,253.9,425.9L253.9,425.9z"/>
</g>
<g id="Einstellungen">
</g>
</svg>
