<?xml version="1.0" encoding="utf-8"?>
<!-- Generator: Adobe Illustrator 25.0.1, SVG Export Plug-In . SVG Version: 6.00 Build 0)  -->
<svg version="1.1" xmlns="http://www.w3.org/2000/svg" xmlns:xlink="http://www.w3.org/1999/xlink" x="0px" y="0px"
	 viewBox="0 0 512 512" style="enable-background:new 0 0 512 512;" xml:space="preserve">
<style type="text/css">
	.st0{fill:none;stroke:#565656;stroke-width:15;stroke-linecap:round;stroke-linejoin:round;stroke-miterlimit:10;}
	.st1{fill:none;stroke:#565656;stroke-width:15;stroke-miterlimit:10;}
	.st2{fill:none;stroke:#565656;stroke-width:15;stroke-linecap:round;stroke-miterlimit:10;}
	.st3{fill:none;stroke:#565656;stroke-width:15;stroke-linecap:round;}
	.st4{fill:#565656;}
	.st5{fill:none;stroke:#565656;stroke-width:15;stroke-linecap:round;stroke-linejoin:round;}
	.st6{fill:none;stroke:#565656;stroke-width:15;stroke-linecap:round;stroke-linejoin:round;stroke-dasharray:24.8533,49.7066;}
	
		.st7{fill:none;stroke:#565656;stroke-width:15;stroke-linecap:round;stroke-linejoin:round;stroke-dasharray:24.8533,49.7066,24.8533,49.7066;}
	.st8{fill:#BABABA;}
	.st9{fill:none;stroke:#2388AE;stroke-width:15;stroke-linecap:round;}
	.st10{fill:none;stroke:#565656;stroke-width:15;stroke-linecap:round;stroke-miterlimit:10;stroke-dasharray:32.1931,42.9241;}
	
		.st11{fill:none;stroke:#565656;stroke-width:15;stroke-linecap:round;stroke-miterlimit:10;stroke-dasharray:32.1931,42.9241,32.1931,42.9241;}
	.st12{fill:none;stroke:#565656;stroke-width:15;stroke-linejoin:round;stroke-miterlimit:10;}
	.st13{fill:none;stroke:#000000;stroke-width:15;stroke-linecap:round;stroke-miterlimit:10;}
	.st14{fill:#FFFFFF;}
	.st15{fill:url(#SVGID_1_);}
	.st16{fill:url(#SVGID_2_);}
	.st17{fill:url(#SVGID_3_);}
	.st18{fill:url(#SVGID_4_);}
	.st19{fill:url(#SVGID_5_);}
	.st20{fill:url(#SVGID_6_);}
	.st21{fill:url(#SVGID_7_);}
	.st22{fill:url(#SVGID_8_);}
	.st23{fill:url(#SVGID_9_);}
	.st24{fill:url(#SVGID_10_);}
	.st25{fill:url(#SVGID_11_);}
	.st26{fill:url(#SVGID_12_);}
	.st27{fill:url(#SVGID_13_);}
	.st28{fill:url(#SVGID_14_);}
	.st29{fill:url(#SVGID_15_);}
	.st30{fill:url(#SVGID_16_);}
	.st31{fill:url(#SVGID_17_);}
	.st32{fill:url(#SVGID_18_);}
	.st33{fill:url(#SVGID_19_);}
	.st34{fill:url(#SVGID_20_);}
	.st35{fill:url(#SVGID_21_);}
	.st36{fill:url(#SVGID_22_);}
	.st37{fill:url(#SVGID_23_);}
	.st38{fill:url(#SVGID_24_);}
	.st39{fill:url(#SVGID_25_);}
	.st40{fill:url(#SVGID_26_);}
	.st41{fill:url(#SVGID_27_);}
	.st42{fill:url(#SVGID_28_);}
	.st43{fill:url(#SVGID_29_);}
	.st44{fill:url(#SVGID_30_);}
	.st45{fill:url(#SVGID_31_);}
	.st46{fill:url(#SVGID_32_);}
	.st47{fill:url(#SVGID_33_);}
	.st48{fill:url(#SVGID_34_);}
	.st49{fill:url(#SVGID_35_);}
	.st50{fill:url(#SVGID_36_);}
	.st51{fill:url(#SVGID_37_);}
	.st52{fill:url(#SVGID_38_);}
	.st53{enable-background:new    ;}
	.st54{fill:#717171;}
	.st55{fill:#555555;}
	.st56{fill:#7B7B7B;}
	.st57{fill:#9F9F9F;}
	.st58{fill:#6E6E6E;}
	.st59{fill:#8D8D8D;}
	.st60{fill:#606060;}
	.st61{fill:#A5A5A5;}
	.st62{fill:#5C5C5C;}
	.st63{fill:none;stroke:#000000;stroke-width:15;stroke-miterlimit:10;}
	.st64{fill:none;stroke:#000000;stroke-width:15;stroke-linecap:round;stroke-linejoin:round;stroke-miterlimit:10;}
	.st65{fill:none;stroke:#5C5C5C;stroke-width:15;stroke-miterlimit:10;}
	.st66{fill:none;stroke:#5C5C5C;stroke-width:15;stroke-linecap:round;stroke-linejoin:round;stroke-miterlimit:10;}
</style>
<g id="Layer_1">
	<g>
		<path d="M2,252.3c2.9-1.8,5.6-3.8,8.6-5.2c3.4-1.6,7.1-2.5,10.7-3.8c11.5-4.1,16.5-11.1,16.6-23.4c0.1-19.6-0.1-39.2,0-58.8
			c0.5-55.8,37.3-102.3,91.5-113.8c43.1-9.2,80,3.7,110.2,35.7c3.1,3.3,5.7,4.4,10.1,3.2c5.5-1.5,11.2-2.1,17.4-3.2
			c-9.8-14.4-21.6-26.2-35.7-35.6c-36-24-74.9-29.9-116.6-18.3c-0.3,0.1-0.6,0.2-0.9,0.3c-5.4,1.5-9.5-0.4-10.8-4.8
			c-1.1-4.1,1.4-7.9,6.5-9.4c15.7-4.8,31.8-7.2,48.3-6.5c53.3,2.4,94.7,26,124.3,70.3c1.8,2.8,3.8,3.4,6.8,3.5
			c80.3,2.2,148.2,58.3,164.6,137.1c9.8,47.2,0.9,91.3-25.7,131.6c-0.8,1.2-1.6,2.5-4,5.4c1.6,0.8,3.6,1.3,4.9,2.6
			c22,21.8,43.8,43.9,65.8,65.6c6,6,11.5,12.1,13.9,20.5c0,3.3,0,6.6,0,9.9c-0.4,1.2-0.9,2.5-1.3,3.7c-6.7,19.9-31,26.2-46.1,11.7
			c-14.5-13.9-28.5-28.3-42.7-42.6c-3.6-3.6-3.8-7.8-0.9-10.9c3.1-3.3,7.5-3.2,11.3,0.6c13.9,13.8,27.8,27.7,41.6,41.6
			c4,4,8.7,5.4,14,3.8c4.8-1.4,7.8-4.9,8.9-9.8c1.2-5.6-1.2-9.8-5.1-13.7c-20.7-20.6-41.3-41.2-61.9-61.9c-3.4-3.4-6.7-6.8-9.5-9.8
			c-6.3,6.2-12.4,12.2-18.9,18.6c1.9,2,4.4,4.5,6.9,7.1c3.7,3.8,4,8.3,0.9,11.4c-3.1,3.1-7.6,2.8-11.3-1c-2.9-2.9-5.5-6.1-7.3-8.2
			c-14.1,7.1-26.6,14.6-40,19.8c-42.2,16.5-84.6,15.9-126.7-1c-4.2-1.7-6.6,0.6-9.9,1.3c-9.1,2.1-18.3,4.2-27.6,5.5
			c-28.1,3.7-55.9,2-83.4-4.9c-2.1-0.5-5.1-1.5-5.9-3.1c-1.2-2.5-1.7-6.1-0.7-8.6c1.4-3.6,5-4.1,8.9-3.1c17.6,4.7,35.6,7.1,53.8,6.5
			c12.6-0.4,25.2-2.3,37.8-3.6c1-0.1,2.1-0.7,3.2-1c-7.5-5.5-14.7-11-22-16.2c-1.2-0.8-3.1-0.9-4.6-0.8c-26.8,2-52.9-1.1-78.3-10.1
			c-1.8-0.6-3.8-1.5-5.1-2.8c-2.5-2.5-2.8-5.7-0.9-8.6c2.1-3.3,5.1-4.2,9-3.2c11.6,3.1,23.1,6.5,34.9,8.6c9.1,1.7,18.5,1.6,28.9,2.4
			c-5.9-7.8-10.9-14.4-16.1-20.9c-0.8-1-2.6-1.4-3.9-1.5c-17-1.7-33.2-6.4-48.8-13.4c-2.3-1-5.4-1.3-7.9-0.7
			c-8.2,1.8-16.2,4.2-24.4,6.1c-5.4,1.3-9.4-1.4-9.8-6.1c-0.3-4,1.4-6.8,5.3-7.8c9.8-2.7,19.6-5.7,29.6-7.5c4-0.7,8.8,0.6,12.8,2.3
			c11.7,5.1,23.5,9.2,36.3,11.2c-3.1-7.6-6-14.9-9.2-22.1c-0.5-1.2-2.4-1.9-3.8-2.6c-10.5-5.3-21.3-10.2-31.5-16.1
			c-5.5-3.2-10.6-4.6-16.8-3.1c-14.6,3.5-29.2,6.7-43.8,10.1c-1,0.2-1.9,0.4-2.9,0.5c-4.7,0.8-8.3-1.1-9.4-5.1c-1.1-4.2,1.2-8,6-9.2
			c9.6-2.4,19.2-4.5,28.9-6.7c6.4-1.5,12.9-2.8,19.3-4.3c9.5-2.2,18.1-0.4,26.3,5.1c6.8,4.5,14,8.4,22.1,13.3
			c-1.1-7.9-2.2-14.3-2.9-20.7c-1.8-16.5-1.3-32.9,1.6-49.2c0.3-1.8-0.3-3.8-0.8-5.6c-1-3.5-2.7-6.8-3.5-10.3
			c-2-9.1,1.8-12.7,11.3-10.8c8.8-24.2,22.1-45.7,40.9-64.5c-5.9-2.2-11.1-2.1-16.4-0.8c-12.8,3.2-21.7,14.5-22.1,27.7
			c-0.1,4,0.2,7.9-0.2,11.9c-0.4,4.1-2.9,6.6-7.2,6.7c-4,0.1-7-2.2-7.3-6c-1-13.3-0.2-26.3,8.2-37.7c12.4-16.7,34.2-22.7,53.4-14.7
			c1.6,0.6,4.2,1.2,5.2,0.4c15.3-12,32-21.4,50.8-28.2c-1.2-1.4-1.9-2.5-2.9-3.5C195,60.8,160.2,51.7,121.6,64.9
			c-38.8,13.3-61.7,41.7-67.8,82.4c-2,13.7-1,28-1.2,42c-0.1,10.7,0.1,21.4-0.1,32.1c-0.2,17.1-9.4,29.9-25.4,35.6
			c-4,1.4-8.2,2.6-12.1,4.2c-5.2,2.2-9.5,1.6-13.1-3C2,256.3,2,254.3,2,252.3z M442.5,254.9C442.5,168,372,97.3,285.1,97.1
			c-86.7-0.2-157.4,70.3-157.8,157.3c-0.3,86.9,70.5,158,157.5,158C371.7,412.5,442.4,341.8,442.5,254.9z"/>
		<path d="M2,148.4c2-10,3.3-20.2,6.1-29.9c10.8-37.3,33-66.3,65.8-87c2.1-1.3,5.1-2.9,7.2-2.3c2.4,0.6,5,3.1,6,5.4
			c1.5,3.4-0.7,6.1-3.6,8.3c-8.4,6.3-17.3,12.2-24.9,19.4c-27,26-40.7,58.2-41.8,95.7c-0.4,12.7-0.1,25.4,0,38.1
			c0,4.2-0.3,8-4.8,9.8c-4.6,1.9-7.4-1-10-4C2,184.1,2,166.3,2,148.4z"/>
		<path d="M73.2,173.9c1-8.6,2.1-22.3,4.2-35.9c0.7-4.9,3.4-9.6,5.6-14.1c2-4.1,6.3-5.4,10-3.6c3.7,1.8,5.2,6,3.1,10.1
			c-6,11.8-7.7,24.3-7.3,37.4c0.3,10.4,0.1,20.7,0.1,31.1c-0.1,13.8,3.8,26.3,11.7,37.6c0.4,0.5,0.8,1.1,1.1,1.6
			c2.4,4,1.7,8.1-1.7,10.5c-3.4,2.3-7.7,1.6-10.4-2.1c-7.4-9.9-12.7-21-14.1-33.3C74,201.9,74,190.5,73.2,173.9z"/>
		<path d="M154.1,79.2c9.1,2,18.3,3.7,27.3,6.1c5.2,1.4,7.2,5.4,5.7,9.8c-1.4,4.2-5.4,5.8-10.5,4.1c-21.8-7.3-42.1-4.5-61,8.7
			c-4.5,3.1-8.7,2.7-11.3-0.9c-2.7-3.7-1.5-8,3.1-11.3C121.2,85.5,136.8,80.7,154.1,79.2z"/>
		<path d="M266.8,131.8c1,6.4,2,12,2.7,17.7c0.5,4.1,0.7,8.2,0.7,12.3c0,4.7-2.8,7.7-7,7.9c-4.3,0.1-7.2-2.9-7.7-7.9
			c-0.9-8-1.9-16-2.9-24c-0.1-0.6-0.3-1.2-0.8-2.7c-6,2.3-11.8,4.3-17.4,6.8c-0.9,0.4-1.3,3-1.2,4.5c1.9,23.2,3.3,46.5-0.7,69.5
			c-5.6,31.7-32.7,57.1-64.5,62.3c-1.4,0.2-2.8,0.6-4.8,1.1c1.6,5.5,3.1,10.7,4.4,15.9c0.9,3.4,2.6,4.3,6,3.6
			c13.5-2.9,26.5-7.5,37.4-15.9c10.3-7.9,20.7-9.5,32.9-5.8c11.8,3.5,23.9,6.1,35.9,9.1c1.1,0.3,2.2,0.6,3.3,0.9
			c4.1,1.4,6.3,5,5.4,8.7c-1,4.1-4.7,6.5-9.1,5.4c-13-3.1-26-6.1-38.8-9.8c-8.1-2.4-14.6-1.5-21.6,3.8c-11.3,8.5-24.3,13.8-38.1,17
			c-1.6,0.4-3.1,0.8-5.7,1.5c4.1,6,7.7,11.7,11.7,17c0.7,0.9,3.3,1,4.8,0.5c7.3-2.6,14.6-5.1,21.6-8.3c5.2-2.3,10.3-3,15.8-1.7
			c5.4,1.3,11,2.2,16.4,3.5c5.3,1.2,7.7,4.6,6.7,9.1c-0.9,4.1-4.9,6.8-9.6,5.3c-12.8-4.1-25-4.3-36.8,3.1c-1.6,1-3.7,1.4-5.5,2.1
			c-0.1,0-0.2,0.2-0.9,1.2c5.9,4.5,11.6,9.4,17.9,13.5c75.5,49.4,177.4,3.2,190.2-86.2c0.5-3.5,1.3-6.9,5.1-8.4
			c5.5-2.1,11,2.1,9.7,8.3c-2.6,12-4.8,24.4-9.5,35.6c-23.5,56.9-80.3,89.2-137.7,85.2c-62.4-4.4-114.4-50.1-126.6-111.6
			C133,203,187.9,127,267.5,117c74.4-9.4,143,42.3,154.6,116.3c0.2,1.5,0.4,2.9,0.5,4.4c0.4,5-1.6,8.1-5.7,8.9
			c-4.4,0.8-7.7-1.6-8.7-6.5c-1.2-5.6-1.8-11.4-3.4-16.9c-14.4-49-46.8-78.8-96.5-90.2c-0.8-0.2-1.6-0.2-2.4-0.3c-0.5,0-1,0-1.9,0
			c0.6,6.4,1.6,12.7,1.8,19c0.4,15.3,0.4,30.7,0.4,46c0,5.5-2.9,8.8-7.2,8.9c-4.5,0.1-7.4-3.3-7.5-9c-0.2-16.1-0.3-32.3-0.7-48.4
			c-0.1-5.1-1.2-10.1-2.1-15.1c-0.2-1.2-1.9-3-2.8-3C279.6,130.9,273.4,131.4,266.8,131.8z M218.3,149.7
			c-6.1,4.9-11.7,8.9-16.7,13.6c-1.8,1.6-3.1,4.7-3.1,7.1c-0.4,10.7,0.1,21.4-0.5,32.1c-1,17.9-13,33-29.9,38.6
			c-2.1,0.7-4.4,1.3-6.8,2c0,7,0,13.9,0,20.8c28.7-2.5,54.3-26.2,57.1-54.6c1.7-17.8,0.7-35.8,0.9-53.8
			C219.3,153.9,218.8,152.5,218.3,149.7z M164.2,226.5c17.5-7,21.3-21.8,18.7-42C173.9,197.5,167.9,211,164.2,226.5z"/>
		<path d="M255.4,209.7c0-4.6-0.1-9.2,0-13.8c0.2-5.1,3.1-8.1,7.5-8c4.4,0,7.2,3,7.2,8.2c0.1,8.1,0,16.2,0,24.2
			c0.1,11.8,5.4,19.1,16.5,23c4.7,1.6,9.4,3.1,14,4.8c4.5,1.7,6.3,5.3,5,9.3c-1.2,4-5,6-9.5,4.6c-6.7-2.1-13.6-4.1-20-7.2
			c-13.3-6.4-20-17.6-20.8-32.3C255.2,218.3,255.4,214,255.4,209.7z"/>
	</g>
</g>
<g id="Einstellungen">
</g>
</svg>
