<?xml version="1.0" standalone="no"?>
<!DOCTYPE svg PUBLIC "-//W3C//DTD SVG 20010904//EN"
 "http://www.w3.org/TR/2001/REC-SVG-20010904/DTD/svg10.dtd">
<svg version="1.0" xmlns="http://www.w3.org/2000/svg"
 width="128.000000pt" height="128.000000pt" viewBox="0 0 128.000000 128.000000"
 preserveAspectRatio="xMidYMid meet">

<g transform="translate(0.000000,128.000000) scale(0.100000,-0.100000)"
fill="#000000" stroke="none">
<path d="M725 1267 c-92 -31 -160 -82 -202 -154 -19 -33 -30 -42 -42 -37 -32
14 -120 16 -156 4 -81 -27 -136 -103 -150 -206 -6 -46 -9 -52 -40 -63 -18 -6
-51 -31 -73 -55 -65 -71 -79 -155 -38 -241 42 -91 108 -128 229 -129 57 -1 71
2 83 18 17 25 18 37 1 60 -11 15 -32 20 -91 24 -68 4 -80 8 -106 34 -75 75
-32 189 78 207 47 8 62 36 62 119 0 70 16 104 61 128 42 21 90 17 129 -11 59
-44 93 -33 114 38 60 200 328 238 432 61 21 -35 29 -66 34 -127 7 -80 8 -80
54 -121 72 -64 93 -137 61 -214 -22 -52 -52 -81 -112 -108 -43 -19 -53 -27
-53 -48 0 -28 24 -56 48 -56 36 0 120 49 158 93 99 112 96 271 -7 382 -36 39
-42 53 -49 109 -21 169 -149 291 -317 302 -42 2 -84 -1 -108 -9z"/>
<path d="M585 853 c-61 -15 -116 -48 -137 -82 -20 -32 -23 -49 -23 -146 0
-125 10 -156 65 -193 l35 -23 5 -144 5 -144 60 -61 c33 -33 68 -60 78 -60 10
0 45 25 78 57 l59 56 0 146 0 146 40 23 c63 36 72 64 68 207 -3 122 -4 124
-33 155 -50 53 -207 85 -300 63z m200 -114 l30 -14 3 -102 3 -101 -46 -18
c-25 -9 -50 -25 -55 -35 -6 -10 -10 -84 -10 -165 0 -123 -3 -150 -17 -166 -15
-17 -17 -17 -35 -2 -16 15 -18 35 -19 158 -1 179 -3 187 -59 207 l-45 17 -3
99 c-3 108 -1 111 53 131 39 15 162 9 200 -9z"/>
<path d="M634 685 c-15 -23 -15 -27 0 -50 19 -29 47 -32 70 -9 31 30 9 84 -34
84 -11 0 -27 -11 -36 -25z"/>
</g>
</svg>
