<svg xmlns="http://www.w3.org/2000/svg" width="22.304" height="17.589" viewBox="0 0 22.304 17.589">
  <path id="Pfad_471" data-name="Pfad 471" d="M190.87,271.456h-1.819v-1.862a1.3,1.3,0,0,0-1.294-1.294H181.05v-2.025h2.865a.949.949,0,0,0,.949-.949v-4.208a.949.949,0,0,0-.949-.949H177.42a.949.949,0,0,0-.949.949v4.208a.949.949,0,0,0,.949.949h2.865V268.3h-6.769a1.234,1.234,0,0,0-1.232,1.232v1.924h-1.82a.949.949,0,0,0-.949.949v4.4a.949.949,0,0,0,.949.949h4.4a.949.949,0,0,0,.949-.949v-4.4a.949.949,0,0,0-.949-.949h-1.82v-1.924a.467.467,0,0,1,.467-.466h6.769v2.39h-1.82a.949.949,0,0,0-.949.949v4.4a.949.949,0,0,0,.949.949h4.4a.949.949,0,0,0,.949-.949v-4.4a.949.949,0,0,0-.949-.949H181.05v-2.39h6.707a.529.529,0,0,1,.528.528v1.862h-1.819a.949.949,0,0,0-.949.949v4.4a.949.949,0,0,0,.949.949h4.4a.949.949,0,0,0,.949-.949v-4.4A.949.949,0,0,0,190.87,271.456Z" transform="translate(-169.515 -260.169)" fill="#707070"/>
</svg>
