<svg xmlns="http://www.w3.org/2000/svg" width="25.906" height="22.408" viewBox="0 0 25.906 22.408">
  <g id="Gruppe_320" data-name="Gruppe 320" transform="translate(-93 -313.384)">
    <path id="Pfad_472" data-name="Pfad 472" d="M94.58,320.277a9.886,9.886,0,0,0,1.527.773,18.253,18.253,0,0,0,4.9,1.1,28.272,28.272,0,0,0,9.786-.569,8.815,8.815,0,0,0,3.569-1.624,2.526,2.526,0,0,0,1.048-2.652,3.171,3.171,0,0,0-1.559-1.92,12.1,12.1,0,0,0-4.441-1.556,29.67,29.67,0,0,0-8.218-.286,18.091,18.091,0,0,0-5.219,1.178c-1.344.561-2.594,1.25-2.968,2.839v.6A3.244,3.244,0,0,0,94.58,320.277Z" transform="translate(0 0)" fill="#707070"/>
    <path id="Pfad_473" data-name="Pfad 473" d="M95.322,410.58a16.8,16.8,0,0,0,5.6,1.436,29.345,29.345,0,0,0,8.878-.331,6.985,6.985,0,0,0,1.594-.388c-1.686-.524-2.179-1.792-2.334-3.324a.017.017,0,0,1,0,0,3.09,3.09,0,0,1,.062-.6q-.316.048-.635.089a31.908,31.908,0,0,1-10.215-.289A13.966,13.966,0,0,1,93,405.12v2.913a6.854,6.854,0,0,0,.373.925A4.238,4.238,0,0,0,95.322,410.58Z" transform="translate(0 -83.153)" fill="#707070"/>
    <path id="Pfad_474" data-name="Pfad 474" d="M107.52,481.638q0-.047,0-.093a6.364,6.364,0,0,1,.145-1.776,3.855,3.855,0,0,1,.125-.365,31.707,31.707,0,0,1-9.513-.371A13.964,13.964,0,0,1,93,476.98v2.913a6.852,6.852,0,0,0,.373.925,4.239,4.239,0,0,0,1.949,1.622,16.8,16.8,0,0,0,5.6,1.436,27.771,27.771,0,0,0,7.705-.129A2.176,2.176,0,0,1,107.52,481.638Z" transform="translate(0 -148.29)" fill="#707070"/>
    <path id="Pfad_475" data-name="Pfad 475" d="M269.291,480.2a3.81,3.81,0,0,0-3.322-3.329c-.7-.062-1.406-.045-2.109-.039a3.865,3.865,0,0,0-3.631,2.8,6.366,6.366,0,0,0-.145,1.776q0,.047,0,.093a2.32,2.32,0,0,0,2.364,2.277H264.7v0c.782,0,1.564.007,2.346,0A2.3,2.3,0,0,0,269.256,482,5.6,5.6,0,0,0,269.291,480.2Z" transform="translate(-150.441 -148.147)" fill="#707070"/>
    <path id="Pfad_476" data-name="Pfad 476" d="M281.954,403.754a3.077,3.077,0,0,0-5.253,2.162v0a3.077,3.077,0,0,0,3.04,3.088h.027a3.077,3.077,0,0,0,2.186-5.253Z" transform="translate(-165.514 -81.098)" fill="#707070"/>
  </g>
</svg>
