<svg xmlns="http://www.w3.org/2000/svg" width="24.076" height="24.076" viewBox="0 0 24.076 24.076">
  <g id="Gruppe_319" data-name="Gruppe 319" transform="translate(-106 -578.89)">
    <path id="Pfad_464" data-name="Pfad 464" d="M106,606.017a3.033,3.033,0,0,1,.967-1.458c1.36-1.343,2.706-2.7,4.056-4.051a2.676,2.676,0,0,0,.169-.212,10.393,10.393,0,0,0,3.74,3.732,2.038,2.038,0,0,0-.238.174c-1.375,1.372-2.754,2.74-4.118,4.122a2.731,2.731,0,0,1-1.425.889h-.564A4.432,4.432,0,0,1,106,606.628Z" transform="translate(0 -6.248)" fill="#707070"/>
    <path id="Pfad_465" data-name="Pfad 465" d="M122.118,598.287a8.7,8.7,0,1,1,8.713-8.688A8.7,8.7,0,0,1,122.118,598.287Zm-6.53-8.7a2.349,2.349,0,1,0,2.342-2.348A2.344,2.344,0,0,0,115.587,589.585Zm12.023.5.152-.069a1.44,1.44,0,0,0,.891-1.568,1.488,1.488,0,0,0-1.428-1.205c-.321-.011-.642-.006-.964,0-.387,0-.558.174-.559.562q0,1.223,0,2.445c0,.407,0,.814,0,1.222a.457.457,0,0,0,.455.471.469.469,0,0,0,.479-.45c.009-.108,0-.219,0-.329,0-.229,0-.457,0-.748.421.477.792.9,1.166,1.32a.471.471,0,1,0,.722-.6C128.236,590.784,127.931,590.447,127.61,590.083Zm-6.755-.694a2.417,2.417,0,0,0,.925,2.074,2.176,2.176,0,0,0,2.907-.163.47.47,0,0,0,.028-.691.5.5,0,0,0-.71.038,1.445,1.445,0,0,1-.491.3,1.4,1.4,0,0,1-1.687-1.685,1.414,1.414,0,0,1,2.06-.908.916.916,0,0,0,.413.132.418.418,0,0,0,.406-.362.467.467,0,0,0-.261-.528,2.272,2.272,0,0,0-2.367-.069A2.191,2.191,0,0,0,120.855,589.389Z" transform="translate(-2.168 -0.583)" fill="#707070"/>
    <path id="Pfad_466" data-name="Pfad 466" d="M136.582,580.3c-.919,0-1.8,0-2.689,0a.716.716,0,0,1-.74-.53.694.694,0,0,1,.647-.874c1.175-.013,2.351-.011,3.526,0a.673.673,0,0,1,.661.668q.014,1.751,0,3.5a.7.7,0,0,1-1.4-.016c-.008-.822,0-1.645,0-2.468Z" transform="translate(-7.92)" fill="#707070"/>
    <path id="Pfad_467" data-name="Pfad 467" d="M136.583,604.042c0-.926,0-1.818,0-2.711a.7.7,0,0,1,.623-.731.688.688,0,0,1,.781.662q.017,1.762,0,3.525a.676.676,0,0,1-.714.662q-1.715.007-3.431,0a.7.7,0,1,1,.011-1.4c.814-.007,1.629,0,2.444,0Z" transform="translate(-7.921 -6.336)" fill="#707070"/>
    <path id="Pfad_468" data-name="Pfad 468" d="M112.846,580.3c0,.891,0,1.751,0,2.612a1.269,1.269,0,0,1-.042.347.7.7,0,0,1-1.362-.171q-.012-1.762,0-3.525a.673.673,0,0,1,.682-.669q1.739-.011,3.478,0a.7.7,0,0,1-.021,1.4c-.814.006-1.629,0-2.444,0Z" transform="translate(-1.586 0)" fill="#707070"/>
    <path id="Pfad_469" data-name="Pfad 469" d="M117.805,592.6a1.408,1.408,0,0,1,1.395-1.414,1.41,1.41,0,1,1,.007,2.819A1.4,1.4,0,0,1,117.805,592.6Z" transform="translate(-3.446 -3.588)" fill="#707070"/>
    <path id="Pfad_470" data-name="Pfad 470" d="M132.109,592.185v-1a5.806,5.806,0,0,1,.589,0,.521.521,0,0,1,.484.487.5.5,0,0,1-.462.5A4.85,4.85,0,0,1,132.109,592.185Z" transform="translate(-7.621 -3.588)" fill="#707070"/>
  </g>
</svg>
