<?xml version="1.0" encoding="utf-8"?>
<!-- Svg Vector Icons : http://www.onlinewebfonts.com/icon -->
<!DOCTYPE svg PUBLIC "-//W3C//DTD SVG 1.1//EN" "http://www.w3.org/Graphics/SVG/1.1/DTD/svg11.dtd">
<svg version="1.1" xmlns="http://www.w3.org/2000/svg" xmlns:xlink="http://www.w3.org/1999/xlink" x="0px" y="0px" viewBox="0 0 256 256" enable-background="new 0 0 256 256" xml:space="preserve">
<metadata> Svg Vector Icons : http://www.onlinewebfonts.com/icon </metadata>
<g><g><path fill="#000000" d="M70.6,83.8h-4.8l-2.2,13.6c-1.5,0.5-3,1.1-4.4,1.8l-11.2-8l-12.7,12.7l7.9,11.3c-0.7,1.4-1.3,3-1.9,4.5l-10,1.7l1.4,8.5l15.4-2.6l0.7-2.7c0.7-2.6,1.7-5.1,3.1-7.4l1.5-2.4l-6.9-9.9l2.5-2.5l9.8,7l2.4-1.5c2.3-1.4,4.7-2.4,7.4-3l2.8-0.7l2-11.9h3.5l2.1,11.9l2.7,0.7c2.6,0.6,5.1,1.7,7.3,3.1l2.4,1.5l9.8-7.1l2.5,2.5l-7,10l1.4,2.4c1.4,2.3,2.4,4.7,3,7.3l0.7,2.8l15.6,2.6l1.4-8.5l-10.1-1.7c-0.5-1.5-1.1-3-1.8-4.4l8-11.4l-12.8-12.8l-11.3,8.1c-1.4-0.7-2.9-1.3-4.4-1.9L84,83.8h-4.6v-14h43.4V20.6H27.2v49.2h43.4L70.6,83.8L70.6,83.8z M35.8,61.1V29.2h78.2v31.9H79.3v-0.4h-8.6v0.4H35.8z"/><path fill="#000000" d="M202.6,186.2v-62h-67.1L74.9,159l-60.7-34.2l-4.2,7.5l60.6,34.2v19.7H27.2v49.2h95.5v-49.2H79.3v-19.7l58.4-33.6h56.2v53.3h-43.4v49.2H246v-49.2H202.6z M114.1,226.8H35.8v-31.9h78.2V226.8L114.1,226.8z M237.4,226.8h-78.2v-31.9h78.2V226.8z"/><path fill="#000000" d="M75,112.5c-10.3,0-18.7,8.4-18.7,18.7s8.4,18.7,18.7,18.7c10.3,0,18.7-8.4,18.7-18.7S85.3,112.5,75,112.5z M75,141.1c-5.5,0-10-4.5-10-10c0-5.5,4.5-10,10-10s10,4.5,10,10C85,136.7,80.5,141.1,75,141.1z"/></g></g>
</svg>