<?xml version="1.0" encoding="utf-8"?>
<!-- Generator: Adobe Illustrator 28.4.1, SVG Export Plug-In . SVG Version: 6.00 Build 0)  -->
<svg version="1.1" id="Ebene_1" xmlns="http://www.w3.org/2000/svg" xmlns:xlink="http://www.w3.org/1999/xlink" x="0px" y="0px"
	 viewBox="0 0 336.3 383.57" style="enable-background:new 0 0 336.3 383.57;" xml:space="preserve">
	 
<style type="text/css">
.st0 {
    fill: #707070;
}
</style>
<g>
	<path class="st0" d="M142,52.47c4.17-7.24,8.36-14.47,12.56-21.69c1.9-3.26,4.28-5.98,7.02-8.1c-1.21-0.24-2.12-0.87-2.98-2.27
		c-16.74-27.22-52.05-27.22-68.78,0c-1.18,1.92-2.45,2.41-4.49,2.39c-7.23-0.09-14.47-0.05-21.71-0.03
		c-8.16,0.03-12.72,4.58-12.74,12.76c-0.03,11.97-0.02,23.95-0.01,35.92c0.01,8.97,4.36,13.36,13.26,13.36
		c19.96,0.01,39.92,0,59.88,0c7.48,0,14.96,0,22.44,0C137.34,75.92,135.6,63.59,142,52.47z"/>
	<g>
		<path class="st0" d="M248.27,202.24h-24.62l-1.96-0.57c-10.91-3.2-17.95-11.45-19.85-23.22c-1.06,1.51-2.87,2.18-5.66,2.19
			c-11.71,0.04-23.42,0.01-35.13,0.01s-23.42,0.02-35.13-0.01c-5.31-0.01-7.23-1.9-7.33-7.14c-0.05-2.86-0.07-5.73,0.01-8.59
			c0.13-4.87,2-6.75,6.88-6.77c9.4-0.03,18.81-0.02,28.21-0.02c-4.44-7.63-8.22-14.16-11.78-20.39c-6.31-11.02-4.39-23.78,4.9-32.5
			c1.25-1.18,2.52-2.34,3.79-3.5c-28.57,0-57.14,0-85.72,0.03c-7.04,0.01-13.65-1.22-19.37-5.59c-6.81-5.19-10.89-11.99-11.27-20.61
			c-0.3-6.72-0.15-13.47-0.19-20.2c-0.01-1.34,0-2.68,0-4.12c-6.95,0-13.45-0.42-19.88,0.12C7.6,51.9,1.92,57.68,0.68,64.19
			c-0.46,2.43-0.54,4.96-0.54,7.44C0.12,168.3,0.21,264.98,0,361.65c-0.02,10.55,3.1,18.16,13.38,21.92c73.88,0,147.76,0,221.64,0
			c2.07-1.08,4.29-1.93,6.17-3.27c5.48-3.91,7.12-9.55,7.11-16.03C248.26,310.26,248.27,256.25,248.27,202.24z M99.75,311.14
			c-8.04,8.17-16.09,16.33-24.33,24.28c-4.37,4.22-10.74,4.15-15.23-0.02c-4.47-4.15-8.74-8.52-12.96-12.93
			c-2.64-2.76-2.51-5.76,0.16-8.6c2.22-2.35,4.53-4.63,6.87-6.87c3.27-3.13,6.11-3.11,9.4,0.07c1.33,1.29,2.54,2.71,4.06,4.36
			c4.95-4.97,9.59-9.63,14.24-14.28c5.1-5.1,7.16-5.07,12.36,0.12c1.85,1.85,3.78,3.63,5.52,5.57
			C102.36,305.68,102.41,308.44,99.75,311.14z M99.66,237.97c-7.95,8.08-15.92,16.14-24.06,24.03c-4.54,4.4-10.93,4.34-15.51,0.04
			c-4.36-4.09-8.55-8.36-12.71-12.65c-2.81-2.9-2.72-5.92,0.1-8.88c2.23-2.35,4.53-4.63,6.87-6.87c3.16-3.02,5.96-3.03,9.13-0.01
			c1.42,1.35,2.66,2.89,4.27,4.66c5.34-5.41,10.2-10.38,15.13-15.29c3.9-3.89,6.52-3.85,10.49,0.05c2.13,2.1,4.3,4.16,6.32,6.36
			C102.39,232.36,102.46,235.12,99.66,237.97z M99.55,164.81c-7.86,7.99-15.75,15.96-23.8,23.76c-4.81,4.66-11.23,4.48-16.06-0.17
			c-4.13-3.97-8.17-8.04-12.16-12.15c-2.99-3.08-2.94-6.02,0.05-9.15c2.15-2.25,4.36-4.45,6.6-6.61c3.36-3.24,6.05-3.27,9.38-0.03
			c1.33,1.29,2.41,2.85,3.94,4.68c5.66-5.69,10.55-10.65,15.48-15.56c3.77-3.74,6.37-3.72,10.22,0.02c2.14,2.08,4.29,4.17,6.32,6.36
			C102.43,159.12,102.51,161.8,99.55,164.81z M118.64,238.23c0.13-4.95,1.92-6.74,6.84-6.76c11.83-0.04,23.67-0.01,35.5-0.01
			c11.59,0,23.17-0.02,34.76,0.01c5.58,0.01,7.26,1.74,7.32,7.4c0.03,2.62,0.04,5.23,0,7.85c-0.08,5.32-1.94,7.22-7.2,7.24
			c-7.22,0.04-14.45,0.01-21.68,0.01c-15.95,0-31.89,0.01-47.84-0.01c-5.81-0.01-7.65-1.8-7.72-7.51
			C118.6,243.71,118.57,240.96,118.64,238.23z M203.07,318.26c-0.01,7.58-1.41,9.02-8.87,9.02c-11.11,0.01-22.21,0-33.32,0
			c-11.48,0-22.96,0.02-34.44-0.01c-5.96-0.01-7.76-1.85-7.81-7.86c-0.02-2.87-0.09-5.74,0.04-8.61c0.18-4.07,2.03-6.04,6.05-6.05
			c24.09-0.06,48.17-0.06,72.26,0c4.01,0.01,5.89,2.02,6.07,6.02C203.14,313.27,203.07,315.76,203.07,318.26z"/>
	</g>
</g>
<g>
	<path class="st0" d="M225.69,2.34c10.16,0,20.32,0,30.48,0c6.06,1.72,8.99,5.94,9.92,12c0.59,3.81,1.67,7.54,2.48,11.31
		c0.23,1.07,0.72,1.66,1.75,2.23c4.8,2.64,9.54,5.41,14.22,8.26c0.98,0.6,1.72,0.78,2.82,0.42c4.53-1.49,9.07-2.92,13.63-4.31
		c5.69-1.74,10.98,0.31,13.98,5.45c4.27,7.29,8.5,14.61,12.7,21.95c3.12,5.45,2.26,10.99-2.33,15.27
		c-3.45,3.22-6.91,6.41-10.41,9.57c-0.8,0.72-0.96,1.43-0.94,2.5c0.1,5.48,0.1,10.97,0,16.46c-0.02,1.08,0.15,1.78,0.95,2.5
		c3.5,3.15,6.97,6.35,10.41,9.57c4.6,4.29,5.45,9.83,2.33,15.27c-4.17,7.28-8.38,14.54-12.6,21.79c-3.11,5.33-8.34,7.36-14.25,5.54
		c-4.5-1.38-8.99-2.77-13.46-4.24c-1.09-0.36-1.83-0.18-2.82,0.42c-4.68,2.85-9.42,5.62-14.22,8.26c-1.03,0.57-1.52,1.16-1.75,2.23
		c-0.98,4.54-2.01,9.07-3,13.61c-0.81,3.68-2.71,6.56-6.1,8.33c-1.05,0.55-2.2,0.92-3.3,1.38c-10.16,0-20.32,0-30.48,0
		c-6.03-1.77-8.95-6-9.88-12.05c-0.59-3.81-1.67-7.54-2.48-11.32c-0.23-1.08-0.77-1.65-1.78-2.21c-4.8-2.65-9.53-5.42-14.23-8.25
		c-0.91-0.55-1.61-0.77-2.65-0.43c-4.53,1.49-9.08,2.91-13.64,4.31c-5.81,1.78-11.09-0.26-14.13-5.47
		c-4.26-7.3-8.49-14.62-12.7-21.96c-3.08-5.37-2.24-10.87,2.3-15.12c3.48-3.27,7.05-6.44,10.5-9.75c0.54-0.52,0.86-1.52,0.87-2.31
		c0.07-5.55,0.08-11.09,0-16.64c-0.01-0.78-0.34-1.78-0.88-2.3c-3.4-3.26-6.92-6.4-10.37-9.62c-4.7-4.39-5.53-9.88-2.34-15.42
		c4.16-7.22,8.34-14.43,12.53-21.64c3.16-5.43,8.33-7.42,14.39-5.55c4.5,1.39,9,2.78,13.47,4.24c1.04,0.34,1.74,0.12,2.65-0.43
		c4.69-2.83,9.43-5.6,14.23-8.25c1.02-0.56,1.54-1.14,1.78-2.22c1.07-4.89,2.13-9.79,3.31-14.66c0.84-3.49,3.03-5.99,6.25-7.56
		C223.79,3.04,224.75,2.71,225.69,2.34z M239.82,56.51c-21.54,0.92-38.44,18.81-37.54,39.74c0.92,21.59,18.69,38.47,39.64,37.65
		c21.69-0.85,38.58-18.71,37.74-39.93C278.8,72.57,260.78,55.61,239.82,56.51z"/>
</g>
<g>
	<path class="st0" d="M-431.6,396.26c-73.88,0-147.76,0-221.64,0c-10.28-3.77-13.4-11.38-13.38-21.92c0.21-96.67,0.12-193.35,0.14-290.02
		c0-2.48,0.08-5.01,0.54-7.44c1.24-6.51,6.92-12.29,13.48-12.83c6.42-0.53,12.93-0.12,19.88-0.12c0,1.45-0.01,2.78,0,4.12
		c0.04,6.73-0.11,13.48,0.19,20.2c0.39,8.63,4.47,15.42,11.27,20.61c5.73,4.37,12.34,5.6,19.37,5.59
		c39.55-0.05,79.1-0.02,118.65-0.03c1.87,0,3.75-0.04,5.6-0.27c11.44-1.4,19.44-7.51,23.39-18.27c1.38-3.75,1.64-8.03,1.82-12.09
		c0.29-6.57,0.08-13.17,0.08-19.87c6.91,0,13.44-0.51,19.82,0.22c3.18,0.36,6.47,2.56,9.04,4.73c4.19,3.53,5.02,8.65,5.02,13.95
		c-0.03,39.29-0.02,78.59-0.01,117.88c0,58.75-0.02,117.51,0.03,176.26c0.01,6.48-1.64,12.12-7.11,16.03
		C-427.31,394.33-429.53,395.18-431.6,396.26z M-505.64,170.82c-11.84,0-23.67-0.03-35.51,0.01c-4.88,0.02-6.75,1.89-6.88,6.77
		c-0.08,2.86-0.06,5.73-0.01,8.59c0.1,5.24,2.03,7.13,7.33,7.14c11.71,0.02,23.42,0.01,35.13,0.01c11.71,0,23.42,0.03,35.13-0.01
		c4.81-0.02,6.74-1.99,6.83-6.82c0.05-2.86,0.04-5.73,0-8.59c-0.07-5.28-1.89-7.07-7.28-7.09
		C-482.47,170.8-494.05,170.82-505.64,170.82z M-505.64,244.15c-11.83,0-23.67-0.02-35.5,0.01c-4.92,0.02-6.72,1.81-6.84,6.76
		c-0.07,2.74-0.05,5.48-0.01,8.22c0.07,5.71,1.91,7.5,7.72,7.51c15.95,0.01,31.89,0.01,47.84,0.01c7.23,0,14.45,0.03,21.68-0.01
		c5.26-0.03,7.12-1.93,7.2-7.24c0.04-2.62,0.03-5.23,0-7.85c-0.06-5.66-1.75-7.38-7.32-7.4
		C-482.47,244.13-494.05,244.15-505.64,244.15z M-505.74,339.98c11.11,0,22.21,0,33.32,0c7.45,0,8.86-1.44,8.87-9.02
		c0-2.5,0.07-4.99-0.03-7.49c-0.17-4-2.06-6.01-6.07-6.02c-24.09-0.06-48.17-0.06-72.26,0c-4.01,0.01-5.86,1.98-6.05,6.05
		c-0.13,2.86-0.06,5.74-0.04,8.61c0.05,6.01,1.84,7.85,7.81,7.86C-528.7,339.99-517.22,339.97-505.74,339.98z M-598.91,324.13
		c-1.53-1.65-2.73-3.07-4.06-4.36c-3.29-3.18-6.13-3.2-9.4-0.07c-2.34,2.24-4.65,4.52-6.87,6.87c-2.68,2.84-2.81,5.84-0.16,8.6
		c4.22,4.41,8.49,8.78,12.96,12.93c4.49,4.17,10.86,4.24,15.23,0.02c8.24-7.96,16.29-16.11,24.33-24.28
		c2.66-2.7,2.61-5.47,0.08-8.29c-1.74-1.95-3.67-3.73-5.52-5.57c-5.2-5.19-7.26-5.22-12.36-0.12
		C-589.32,314.5-593.95,319.16-598.91,324.13z M-598.88,250.97c-1.61-1.77-2.85-3.3-4.27-4.66c-3.17-3.02-5.97-3.01-9.13,0.01
		c-2.34,2.24-4.64,4.52-6.87,6.87c-2.82,2.96-2.9,5.98-0.1,8.88c4.15,4.3,8.35,8.57,12.71,12.65c4.59,4.3,10.97,4.35,15.51-0.04
		c8.14-7.88,16.11-15.95,24.06-24.03c2.8-2.85,2.73-5.61,0.02-8.57c-2.02-2.2-4.19-4.27-6.32-6.36c-3.97-3.91-6.59-3.94-10.49-0.05
		C-588.68,240.59-593.54,245.57-598.88,250.97z M-599.12,177.83c-1.52-1.83-2.6-3.39-3.94-4.68c-3.34-3.24-6.02-3.2-9.38,0.03
		c-2.24,2.16-4.45,4.36-6.6,6.61c-2.99,3.13-3.04,6.07-0.05,9.15c3.99,4.11,8.03,8.17,12.16,12.15c4.84,4.66,11.25,4.83,16.06,0.17
		c8.05-7.8,15.94-15.77,23.8-23.76c2.96-3.01,2.87-5.69-0.03-8.84c-2.03-2.19-4.18-4.28-6.32-6.36c-3.85-3.75-6.46-3.77-10.22-0.02
		C-588.58,167.18-593.46,172.14-599.12,177.83z"/>
	<path class="st0" d="M-542.6,97.52c-19.96,0-39.92,0.01-59.88,0c-8.9,0-13.25-4.39-13.26-13.36c-0.01-11.97-0.03-23.95,0.01-35.92
		c0.02-8.18,4.58-12.73,12.74-12.76c7.24-0.03,14.47-0.06,21.71,0.03c2.04,0.02,3.31-0.46,4.49-2.39
		c16.73-27.23,52.04-27.23,68.78,0c1.18,1.92,2.45,2.41,4.49,2.39c7.36-0.09,14.72-0.07,22.08-0.02
		c7.68,0.05,12.32,4.67,12.35,12.38c0.05,12.22,0.03,24.45,0.01,36.67c-0.02,8.46-4.49,12.98-12.88,12.98
		C-502.18,97.53-522.39,97.52-542.6,97.52z"/>
</g>
</svg>
