<?xml version="1.0" encoding="utf-8"?>
<!-- Generator: Adobe Illustrator 25.0.1, SVG Export Plug-In . SVG Version: 6.00 Build 0)  -->
<svg version="1.1" xmlns="http://www.w3.org/2000/svg" xmlns:xlink="http://www.w3.org/1999/xlink" x="0px" y="0px"
	 viewBox="0 0 512 512" style="enable-background:new 0 0 512 512;" xml:space="preserve">
<style type="text/css">
	.st0{fill:none;stroke:#565656;stroke-width:15;stroke-linecap:round;stroke-linejoin:round;stroke-miterlimit:10;}
	.st1{fill:none;stroke:#565656;stroke-width:15;stroke-miterlimit:10;}
	.st2{fill:none;stroke:#565656;stroke-width:15;stroke-linecap:round;stroke-miterlimit:10;}
	.st3{fill:none;stroke:#565656;stroke-width:15;stroke-linecap:round;}
	.st4{fill:#565656;}
	.st5{fill:none;stroke:#565656;stroke-width:15;stroke-linecap:round;stroke-linejoin:round;}
	.st6{fill:none;stroke:#565656;stroke-width:15;stroke-linecap:round;stroke-linejoin:round;stroke-dasharray:24.8533,49.7066;}
	
		.st7{fill:none;stroke:#565656;stroke-width:15;stroke-linecap:round;stroke-linejoin:round;stroke-dasharray:24.8533,49.7066,24.8533,49.7066;}
	.st8{fill:#BABABA;}
	.st9{fill:none;stroke:#2388AE;stroke-width:15;stroke-linecap:round;}
	.st10{fill:none;stroke:#565656;stroke-width:15;stroke-linecap:round;stroke-miterlimit:10;stroke-dasharray:32.1931,42.9241;}
	
		.st11{fill:none;stroke:#565656;stroke-width:15;stroke-linecap:round;stroke-miterlimit:10;stroke-dasharray:32.1931,42.9241,32.1931,42.9241;}
	.st12{fill:none;stroke:#565656;stroke-width:15;stroke-linejoin:round;stroke-miterlimit:10;}
	.st13{fill:none;stroke:#000000;stroke-width:15;stroke-linecap:round;stroke-miterlimit:10;}
	.st14{fill:#FFFFFF;}
	.st15{fill:url(#SVGID_1_);}
	.st16{fill:url(#SVGID_2_);}
	.st17{fill:url(#SVGID_3_);}
	.st18{fill:url(#SVGID_4_);}
	.st19{fill:url(#SVGID_5_);}
	.st20{fill:url(#SVGID_6_);}
	.st21{fill:url(#SVGID_7_);}
	.st22{fill:url(#SVGID_8_);}
	.st23{fill:url(#SVGID_9_);}
	.st24{fill:url(#SVGID_10_);}
	.st25{fill:url(#SVGID_11_);}
	.st26{fill:url(#SVGID_12_);}
	.st27{fill:url(#SVGID_13_);}
	.st28{fill:url(#SVGID_14_);}
	.st29{fill:url(#SVGID_15_);}
	.st30{fill:url(#SVGID_16_);}
	.st31{fill:url(#SVGID_17_);}
	.st32{fill:url(#SVGID_18_);}
	.st33{fill:url(#SVGID_19_);}
	.st34{fill:url(#SVGID_20_);}
	.st35{fill:url(#SVGID_21_);}
	.st36{fill:url(#SVGID_22_);}
	.st37{fill:url(#SVGID_23_);}
	.st38{fill:url(#SVGID_24_);}
	.st39{fill:url(#SVGID_25_);}
	.st40{fill:url(#SVGID_26_);}
	.st41{fill:url(#SVGID_27_);}
	.st42{fill:url(#SVGID_28_);}
	.st43{fill:url(#SVGID_29_);}
	.st44{fill:url(#SVGID_30_);}
	.st45{fill:url(#SVGID_31_);}
	.st46{fill:url(#SVGID_32_);}
	.st47{fill:url(#SVGID_33_);}
	.st48{fill:url(#SVGID_34_);}
	.st49{fill:url(#SVGID_35_);}
	.st50{fill:url(#SVGID_36_);}
	.st51{fill:url(#SVGID_37_);}
	.st52{fill:url(#SVGID_38_);}
	.st53{enable-background:new    ;}
	.st54{fill:#717171;}
	.st55{fill:#555555;}
	.st56{fill:#7B7B7B;}
	.st57{fill:#9F9F9F;}
	.st58{fill:#6E6E6E;}
	.st59{fill:#8D8D8D;}
	.st60{fill:#606060;}
	.st61{fill:#A5A5A5;}
	.st62{fill:#5C5C5C;}
	.st63{fill:none;stroke:#000000;stroke-width:15;stroke-miterlimit:10;}
	.st64{fill:none;stroke:#000000;stroke-width:15;stroke-linecap:round;stroke-linejoin:round;stroke-miterlimit:10;}
	.st65{fill:none;stroke:#5C5C5C;stroke-width:15;stroke-miterlimit:10;}
	.st66{fill:none;stroke:#5C5C5C;stroke-width:15;stroke-linecap:round;stroke-linejoin:round;stroke-miterlimit:10;}
</style>
<g id="Layer_1">
	<g>
		<path d="M339.5,451.5c-2.4,0-4.8-0.1-7.2-0.2c-40.6-2.7-76.8-31.1-90.2-70.6c-1.6-4.8-4.3-6.8-9.1-6.8l-0.4,0
			c-4.5,0.1-9.3,0.1-15.4,0.1c-3.3,0-6.5,0-9.9,0c-3.4,0-6.9,0-10.5,0h-3v10c0,3.1,0,6.2,0,9.3c0,6.9,0,14.1,0,21.2
			c-0.1,6.6-2.4,8.9-9,9c-3.2,0-6.4,0-9.6,0c-2.4,0-13.9,0-13.9,0c-9.7,0-10.8-1-11.7-11l-0.3-2.7h-18.5l-0.3,2.6
			c0,0.4-0.1,0.8-0.1,1.1c-0.1,0.9-0.2,1.8-0.3,2.7c-0.3,3.2-1.7,7-6.9,7.1c-5.1,0.1-10.2,0.1-15.1,0.1c-5,0-9.9,0-14.7-0.1
			c-4.6-0.1-6.9-2.9-7-8.4c-0.1-7.5-0.1-15-0.1-22.4c0-3.2,0-6.4,0-9.6v-8.1l-2.5-0.4c-1.9-0.3-3.9-0.4-5.8-0.4
			c-4.7,0-6.8-0.3-7.9-2.6c-1.4-2.7-1.8-6.2-2.3-9.9c-0.3-1.8-0.5-3.8-0.9-5.7l-0.4-1.9l-1.9-0.4c-0.7-0.2-1.5-0.3-2.3-0.5
			c-1.9-0.4-4.1-0.8-6.2-1.4c-28.7-8.1-45.7-26.5-52.1-56.2c-0.2-1.1-0.5-2.2-0.7-3.3L3,291v-17.3c0.4-1.8,0.8-3.7,1.2-5.5
			c0.8-4.1,1.7-8.3,3-12.3c4.9-15.5,14.4-27.7,28-36.2c3.2-2,5.2-4.4,4.2-9.4c-5.6-27.8-0.1-56.1,15.5-79.5
			c15.6-23.4,39.4-39.4,67.2-44.9c6.7-1.3,13.4-2,20-2c16.3,0,32.5,4.2,48.2,12.3l2.4,1.3l1.5-2.3c24.4-37.3,58-60.1,99.9-67.7
			c8.5-1.5,17-2.3,25.4-2.3c21.3,0,42.8,5,63.8,15c27.1,12.9,51.3,37,66.4,66c12.1,23.3,23.9,60.8,11.6,106.6l-0.7,2.5l2.4,1
			c0.6,0.2,1.1,0.5,1.7,0.7c1.2,0.5,2.4,1,3.5,1.6c22.3,11.1,35.8,29.3,40.1,54.1c0.2,1,0.5,1.9,0.7,2.7c0.1,0.2,0.1,0.4,0.2,0.6
			V291c-0.2,1-0.4,2.1-0.6,3.1c-0.5,2.4-1,4.7-1.6,7c-8.6,28.8-26.8,45.7-55.5,51.6c-1.1,0.2-2.3,0.5-3.4,0.7l-3.3,0.7l-0.4,1.9
			c-0.5,2.3-1,4.6-1.5,6.9c-1,5-2,9.6-3.4,14.2C425.9,421.6,385.8,451.5,339.5,451.5z M241.3,360c9,0,9.7,0.5,11.8,9.3
			c4.8,19.1,16.2,36.5,32.1,49.1c15.8,12.4,35.1,19.3,54.3,19.3c3.3,0,6.6-0.2,9.8-0.6c24.4-3,46-15,60.9-33.7
			c14.8-18.8,21.6-42.6,18.9-67.1c-2.2-20.3-11.7-39.7-26.8-54.6c-15-14.8-34.2-23.8-54-25.4c-2.4-0.2-4.9-0.3-7.3-0.3
			c-21,0-40.7,6.9-57,20.1c-15.4,12.4-26.4,29.7-31,48.5c-1.9,7.9-3.1,8.9-11.2,8.9l-159.4,0V360l6.5,0c0.6,0,1.2,0,1.8,0
			c7.6,0.1,9.5,2,9.5,9.7c0,4.5,0,9,0,13.5l0,5.9l0,19.9h15.2l0.3-2.7c1-10,2.2-11,12.4-11h23.5c10.6,0,11.4,0.7,12.8,11l0.4,2.6h15
			l0-14.2c0-8.6,0-17.1,0-25.6c0-7.2,2-9.2,9-9.2c7.6,0,15.3,0,22.9,0L241.3,360z M75.3,227.2c-5.5,0-12.8,0-20.2,0.1
			c-3.5,0.1-7.1,1-9.9,2.5c-16.2,9-25.3,23.7-27.9,45.1c-3.8,31.2,16.9,59.3,47.1,64l3.3,0.5l0.2-3.3c0-0.5,0.1-1,0.1-1.5
			c0.1-1,0.1-1.9,0.1-2.9c0.1-11.2,1.3-12.3,12.7-12.3l58.1,0c28,0,61,0,93.9,0.1c3.7,0,7.4-0.8,9.3-6.3
			c14.1-42.6,53.5-71.1,98.2-71.1c0.5,0,0.9,0,1.4,0c45.2,0.6,84.4,30.3,97.6,73.9c1.4,4.5,2.3,9.1,3.3,13.9
			c0.5,2.2,0.9,4.5,1.5,6.7l0.5,2.3h2.4c0.1,0,0.2,0,0.3,0c0.2,0,0.4,0,0.6,0c0.4,0,0.7,0,1-0.1c18.9-3.4,34.6-16.1,41.9-34
			c7.4-18.2,5.1-38.7-6.4-54.8c-10.9-15.3-24.9-23-41.7-23c-0.7,0-1.5,0-2.2,0c-4.4,0.2-9.1,0.3-14.7,0.3c-4.3,0-8.7,0-13-0.1
			c-3.2,0-6.4-0.1-9.6-0.1c-2.9,0-5.4-0.9-6.9-2.4c-1.2-1.2-1.8-2.8-1.7-4.8c0.1-4.2,3.3-6.8,8.6-6.8l4.9,0c4.7,0,9.4,0,14.1,0
			c6.5,0,11.9,0,16.9,0.1l0.4,0c4.6,0,7.1-1.9,8.4-6.5c5.7-19.4,6-39.8,1.1-62.3c-12.7-58-61.8-101.1-119.4-104.9
			c-3.6-0.2-7.3-0.4-10.8-0.4c-49.4,0-88.2,23-115.5,68.3c-3.4,5.7-5.5,6.5-7.3,6.5c-1.8,0-4.1-0.9-7.3-2.7
			c-16.1-9.4-32.3-14.1-48.1-14.1c-17.3,0-34.1,5.7-50.1,16.9c-31,21.7-43.7,52.7-37.7,92c0.7,4.9,3.2,7.1,8.1,7.1l0.4,0
			c7.2-0.1,12.7-0.2,17.9-0.2c6.3,0,12,0.1,17.4,0.3c2.2,0.1,5.1,1.2,7,2.8c2.5,2.1,1.4,5.3,0.8,6.6c-1.4,3-3.6,4.4-7.2,4.4l-2.6,0
			c-3.2,0-6.4,0-9.6,0C81.7,227.2,78.5,227.2,75.3,227.2z"/>
		<path d="M339.9,397c-27.2-0.3-49.4-22.8-49.6-50.2c-0.1-13.4,5.2-26,14.8-35.7c9.5-9.5,21.9-14.7,35-14.7
			c13.2,0,25.6,5.2,35.1,14.7c9.6,9.6,14.8,22.3,14.8,35.7c-0.1,27.2-22.8,50.2-49.6,50.2L339.9,397z M340,310.5
			c-9.4,0-18.4,3.8-25.1,10.7c-6.9,7-10.6,16.2-10.5,25.8c0.2,19.7,16.2,35.9,35.6,36l0.2,0c9.4,0,18.4-3.8,25.2-10.7
			c6.8-6.9,10.5-16,10.5-25.6c0-20-16.1-36.3-35.8-36.3H340z"/>
	</g>
</g>
<g id="Einstellungen">
</g>
</svg>
