<svg xmlns="http://www.w3.org/2000/svg" width="23.959" height="20" viewBox="0 0 23.959 20">
  <g id="Gruppe_267" data-name="Gruppe 267" transform="translate(-208 -139.997)">
    <path id="Pfad_445" data-name="Pfad 445" d="M208,315.581v-7.454c.262-.414.486-.461.9-.183a2.114,2.114,0,0,0,1.218.338q3.777-.008,7.554,0h.291c0,.1.011.178.011.254,0,.4-.005.8,0,1.2a.505.505,0,0,0,.554.554q1.45.005,2.9,0a.5.5,0,0,0,.542-.518c.011-.2,0-.406,0-.609,0-.285,0-.571,0-.876h.313c2.51,0,5.021,0,7.531,0a2.111,2.111,0,0,0,1.3-.385.506.506,0,0,1,.569-.066.531.531,0,0,1,.271.529c0,2.3,0,4.593-.007,6.889a2.258,2.258,0,0,1-.121.71,1.971,1.971,0,0,1-2,1.321H210.118q-.105,0-.21,0a1.984,1.984,0,0,1-1.819-1.409C208.06,315.771,208.03,315.676,208,315.581Z" transform="translate(0 -157.283)" fill="#707070"/>
    <path id="Pfad_446" data-name="Pfad 446" d="M208,148.312V144.7c.009-.012.024-.023.027-.036A2,2,0,0,1,210.188,143h4.8c0-.343-.006-.661,0-.978a1.969,1.969,0,0,1,1.925-2.013c2.05-.019,4.1-.016,6.151,0a1.9,1.9,0,0,1,1.827,1.474,6.392,6.392,0,0,1,.084,1.069c.009.144,0,.289,0,.449h.318c1.528,0,3.056,0,4.584,0a1.989,1.989,0,0,1,2.081,2.1q0,1.394,0,2.789A2,2,0,0,1,229.84,150h-7.861c0-.167,0-.3,0-.432a.506.506,0,0,0-.566-.563q-1.438-.005-2.877,0a.5.5,0,0,0-.555.55c-.005.144,0,.289,0,.423a.566.566,0,0,1-.082.02c-2.666,0-5.333.008-8-.005a1.958,1.958,0,0,1-1.805-1.4C208.063,148.5,208.031,148.406,208,148.312Zm9-6.306v.979h5.96v-.979Z" fill="#707070"/>
  </g>
</svg>
