<svg xmlns="http://www.w3.org/2000/svg" width="13.715" height="20.57" viewBox="0 0 13.715 20.57">
  <g id="Gruppe_264" data-name="Gruppe 264" transform="translate(-214.841 -156.002)">
    <path id="Pfad_434" data-name="Pfad 434" d="M310.632,310.222c-1.113,0-2.227,0-3.34,0a3.436,3.436,0,0,1-3.5-3.509,9.418,9.418,0,0,1,.214-2.63,5.707,5.707,0,0,1,5.376-4.139c1.041-.009,2.088-.035,3.123.057a5.639,5.639,0,0,1,4.919,4.929,8.287,8.287,0,0,1-.052,2.664,3.4,3.4,0,0,1-3.267,2.625c-1.158.011-2.316,0-3.474,0Z" transform="translate(-88.95 -133.652)" fill="#707070"/>
    <path id="Pfad_435" data-name="Pfad 435" d="M335.83,160.571a4.556,4.556,0,1,1,4.54,4.577A4.557,4.557,0,0,1,335.83,160.571Z" transform="translate(-118.701 -0.001)" fill="#707070"/>
  </g>
</svg>
