<svg xmlns="http://www.w3.org/2000/svg" width="21.129" height="23.75" viewBox="0 0 21.129 23.75">
  <g id="Gruppe_321" data-name="Gruppe 321" transform="translate(-169.489 -277.309)">
    <path id="Pfad_477" data-name="Pfad 477" d="M190.616,320.868c0,2.335,0,4.671,0,7.006a3.479,3.479,0,0,1-3.8,3.5c-.113-.009-.226-.014-.339-.014q-6.419,0-12.838,0a7.334,7.334,0,0,1-1.439-.066,3.418,3.418,0,0,1-2.71-3.346q0-6.837.024-13.674a5.146,5.146,0,0,1,.359-2.052,3.085,3.085,0,0,1,2.581-1.847c.276-.043.347.137.364.377a7.95,7.95,0,0,0,.143,1.464,3.684,3.684,0,0,0,3.636,2.688c2.3-.022,4.609-.028,6.913,0a3.718,3.718,0,0,0,3.792-3.779c-.016-.818.042-.864.826-.655a3.139,3.139,0,0,1,2.42,3.022c.03.4.045.8.046,1.2q.007,3.087,0,6.174Zm-7.26-2.35q-1.263,0-2.527,0a.993.993,0,1,0-.009,1.975q2.527,0,5.054,0a.992.992,0,1,0,.009-1.975C185.041,318.516,184.2,318.518,183.357,318.518Zm-.008,7.24c.842,0,1.685.012,2.526-.008a1.409,1.409,0,0,0,.665-.18.914.914,0,0,0,.38-1.078,1,1,0,0,0-1.036-.708q-2.527-.005-5.053,0a.991.991,0,0,0-1.1.986.981.981,0,0,0,1.091.987C181.664,325.761,182.506,325.758,183.348,325.758Zm-8.312-6.768c-.084-.07-.139-.114-.191-.161a.987.987,0,1,0-1.378,1.413c.258.265.521.526.785.785a.985.985,0,0,0,1.521-.008q.812-.8,1.613-1.614a1,1,0,0,0,.055-1.457.984.984,0,0,0-1.453.065C175.668,318.331,175.358,318.659,175.036,318.99Zm0,5.267c-.068-.057-.116-.1-.161-.136a1,1,0,0,0-1.457-.021.99.99,0,0,0,.074,1.432c.259.265.519.528.786.785a.98.98,0,0,0,1.476-.007q.834-.824,1.657-1.659a.987.987,0,1,0-1.4-1.387C175.679,323.589,175.359,323.923,175.031,324.257Z" transform="translate(0 -30.331)" fill="#707070"/>
    <path id="Pfad_478" data-name="Pfad 478" d="M238.776,277.31c1.172,0,2.344,0,3.516,0a1.748,1.748,0,0,1,1.765,1.875,15.026,15.026,0,0,0,0,1.572,1.767,1.767,0,0,1-1.768,1.852q-1.927-.019-3.855-.022c-1.059,0-2.118.009-3.176.022a1.766,1.766,0,0,1-1.767-1.882,13.2,13.2,0,0,0,0-1.541,1.751,1.751,0,0,1,1.765-1.876C236.431,277.312,237.6,277.31,238.776,277.31Z" transform="translate(-58.724)" fill="#707070"/>
  </g>
</svg>
