<?xml version="1.0" encoding="utf-8"?>
<!-- Generator: Adobe Illustrator 25.0.1, SVG Export Plug-In . SVG Version: 6.00 Build 0)  -->
<svg version="1.1" id="Layer_1" xmlns="http://www.w3.org/2000/svg" xmlns:xlink="http://www.w3.org/1999/xlink" x="0px" y="0px"
	 viewBox="0 0 372 424" style="enable-background:new 0 0 372 424;" xml:space="preserve">
<style type="text/css">
	.st0{fill:#FFFFFF;}
</style>
<g>
	<path d="M304.4,401c-77.8,0-155.7,0-233.5,0c-0.2-0.1-0.4-0.3-0.6-0.4c-19.6-5.1-28.6-16.6-28.6-36.8c0-77.7,0-155.4,0-233.1
		c0-26.5,0-53,0-79.4c0-11.6,4.6-21.3,14.2-27.8c4.4-3,9.9-4.3,14.9-6.4c50.2,0,100.3,0,150.5,0c0,25.5,0,51,0,76.5
		c0,21.9,14.2,36,36.1,36c23.9,0,47.9,0,71.8,0c1.3,0,2.7,0,4.3,0c0,1.7,0,3.1,0,4.4c0,30,0,60,0,90c0,47.4,0,94.7,0,142.1
		c0,15.5-8.6,28.1-22.4,33C309,399.8,306.7,400.3,304.4,401z M187.6,197.7c22.1,0,44.1,0,66.2,0c5.1,0,9-1.8,11.3-6.5
		c3.7-7.6-1.8-16-10.7-16c-22.7-0.1-45.4,0-68.1,0c-21.7,0-43.4,0-65.1,0c-4.9,0-8.7,1.9-11,6.3c-3.9,7.7,1.7,16.1,10.8,16.2
		C143.3,197.8,165.4,197.7,187.6,197.7z M188,220.3c-22.2,0-44.4,0-66.6,0c-5.3,0-9.3,2-11.5,6.8c-3.4,7.5,2.2,15.7,10.8,15.7
		c22.4,0.1,44.9,0,67.3,0c21.9,0,43.9,0,65.8,0c5.1,0,9-2,11.2-6.6c3.6-7.7-2-15.8-10.9-15.9C232.2,220.2,210.1,220.3,188,220.3z
		 M187.7,265.3c-22.1,0-44.1,0-66.2,0c-5.3,0-9.3,2-11.5,6.8c-3.4,7.5,2.2,15.7,10.8,15.7c21.9,0.1,43.9,0,65.8,0
		c22.4,0,44.9,0,67.3,0c5.1,0,9-2,11.2-6.6c3.6-7.7-2-15.9-10.9-15.9C232,265.2,209.9,265.3,187.7,265.3z M165.2,332.7
		c14.7,0,29.4,0,44.1,0c5.4,0,9.4-2.7,11.2-7.2c3-7.7-2.6-15.3-11.4-15.3c-29,0-58.1,0-87.1,0c-7.8,0-13,4.6-12.9,11.4
		c0.1,6.7,5.2,11.1,12.8,11.1C136.3,332.8,150.7,332.7,165.2,332.7z"/>
	<path class="st0" d="M165.2,332.7c-14.5,0-28.9,0-43.4,0c-7.6,0-12.7-4.5-12.8-11.1c-0.1-6.8,5.1-11.4,12.9-11.4
		c29,0,58.1,0,87.1,0c8.9,0,14.5,7.6,11.4,15.3c-1.8,4.5-5.8,7.2-11.2,7.2C194.6,332.8,179.9,332.7,165.2,332.7z"/>
	<path d="M243.8,24.4c27.6,27.6,54.8,54.9,82.2,82.4c-0.9,0.1-1.9,0.2-3,0.2c-22.2,0-44.4,0-66.5,0c-8.2,0-12.7-4.5-12.7-12.7
		C243.8,71.1,243.8,47.9,243.8,24.4z"/>
</g>
</svg>
