<?xml version="1.0" encoding="UTF-8"?>
<svg xmlns="http://www.w3.org/2000/svg" version="1.1" viewBox="0 0 214.6 214.6">
  <defs>
    <style>
      .cls-1 {
        fill: #777;
      }
    </style>
  </defs>
  <!-- Generator: Adobe Illustrator 28.7.3, SVG Export Plug-In . SVG Version: 1.2.0 Build 164)  -->
  <g>
    <g id="Ebene_1">
      <path class="cls-1" d="M47.65,113.85c-1.8-1.2-4.5-1.8-7.9-1.8h-15.9v14.5h15.9c3.5,0,6.1-.6,7.9-1.8,1.8-1.2,2.8-3,2.8-5.4s-.9-4.4-2.8-5.5Z"/>
      <path class="cls-1" d="M44.85,100.45c1.8-1.1,2.6-2.9,2.6-5.2s-.9-4.1-2.6-5.2c-1.8-1.1-4.3-1.7-7.6-1.7h-13.5v13.8h13.5c3.3,0,5.8-.6,7.6-1.7h0Z"/>
      <path class="cls-1" d="M115.75,93.95c-1.7-1.7-3.6-3-5.8-3.9-2.2-.9-4.6-1.4-7.2-1.4s-5,.5-7.3,1.4c-2.2.9-4.2,2.2-5.8,3.9-1.6,1.7-2.9,3.7-3.8,5.9-.9,2.3-1.4,4.8-1.4,7.6s.5,5.3,1.4,7.6c.9,2.3,2.2,4.2,3.8,5.9,1.6,1.7,3.6,3,5.8,3.9,2.2.9,4.7,1.4,7.3,1.4s5-.5,7.2-1.4,4.1-2.2,5.8-3.9,3-3.7,3.9-5.9,1.4-4.8,1.4-7.6-.5-5.3-1.4-7.6-2.2-4.2-3.9-5.9Z"/>
      <path class="cls-1" d="M181.05,91.45c-2.9-1.5-6.3-2.2-10.2-2.2h-12.3v36.5h12.3c3.9,0,7.3-.7,10.2-2.2s5.1-3.6,6.7-6.4c1.6-2.8,2.4-6,2.4-9.7s-.8-7-2.4-9.7c-1.6-2.7-3.8-4.8-6.7-6.3Z"/>
      <path class="cls-1" d="M188.55.25H25.65C11.45.25-.15,11.85-.15,26.05v162.9c0,14.3,11.6,25.8,25.8,25.8h162.9c14.3,0,25.8-11.6,25.8-25.8V26.05c0-14.3-11.6-25.8-25.8-25.8ZM58.15,132.55c-4,2.8-9.8,4.2-17.5,4.2H10.35v-58.6h28.6c7.4,0,12.9,1.4,16.6,4.2,3.7,2.8,5.6,6.5,5.6,11s-.8,5.7-2.3,8c-1.3,2-3.2,3.6-5.4,4.8.5.2,1.1.4,1.6.6,2.8,1.2,5,3,6.7,5.4,1.6,2.3,2.4,5.2,2.4,8.6,0,5-2,8.9-5.9,11.8h-.1ZM132.35,119.55c-1.6,3.7-3.8,6.9-6.7,9.7-2.9,2.7-6.3,4.8-10.2,6.3-3.9,1.5-8.1,2.2-12.7,2.2s-8.9-.8-12.8-2.3-7.3-3.6-10.2-6.4c-2.9-2.7-5.1-5.9-6.7-9.6s-2.4-7.7-2.4-12,.8-8.4,2.4-12.1,3.8-6.8,6.7-9.6c2.9-2.7,6.3-4.9,10.2-6.4,3.9-1.5,8.1-2.3,12.8-2.3s8.9.7,12.8,2.2,7.3,3.6,10.2,6.3c2.9,2.7,5.1,5.9,6.7,9.6,1.6,3.7,2.4,7.7,2.4,12.1s-.8,8.4-2.4,12.1l-.1.2ZM199.75,122.95c-2.7,4.4-6.5,7.8-11.4,10.2s-10.5,3.6-16.8,3.6h-26.6v-58.6h26.6c6.4,0,12,1.2,16.8,3.6s8.6,5.8,11.4,10.2c2.7,4.4,4.1,9.5,4.1,15.4s-1.4,11.1-4.1,15.4v.2Z"/>
    </g>
  </g>
</svg>