<?xml version="1.0" encoding="UTF-8"?>
<svg xmlns="http://www.w3.org/2000/svg" version="1.1" viewBox="0 0 214.6 214.6">
  <defs>
    <style>
      .cls-1 {
        fill: #777;
      }
    </style>
  </defs>
  <!-- Generator: Adobe Illustrator 28.7.3, SVG Export Plug-In . SVG Version: 1.2.0 Build 164)  -->
  <g>
    <g id="Ebene_1">
      <path class="cls-1" d="M140.35,78.95c-4.3-2.2-9.4-3.4-15.2-3.4h-18.9v53.6h18.9c5.9,0,11-1.1,15.2-3.4,4.3-2.2,7.6-5.4,10.1-9.4,2.4-4,3.6-8.7,3.6-14.1s-1.2-10.2-3.6-14.2c-2.4-3.9-5.8-7-10.1-9.3v.2Z"/>
      <path class="cls-1" d="M188.7,0H25.8C11.6,0,0,11.6,0,25.8v162.9c0,14.3,11.6,25.8,25.8,25.8h162.9c14.3,0,25.8-11.6,25.8-25.8V25.8c0-14.3-11.6-25.8-25.8-25.8ZM75.1,140.3H16.4V62.1h57.1v12.3H30.9v20.2h37.8v12H30.9v21.4h44.1v12.3h.1ZM162.8,121.8c-3.6,5.9-8.6,10.4-15,13.7-6.4,3.2-13.8,4.9-22.2,4.9h-34.3V62.1h34.3c8.3,0,15.7,1.6,22.2,4.9,6.4,3.2,11.5,7.8,15,13.7,3.6,5.9,5.4,12.7,5.4,20.6s-1.8,14.7-5.4,20.6v-.1ZM198.1,140.3h-14.5V62.1h14.5v78.2h0Z"/>
    </g>
  </g>
</svg>