<?xml version="1.0" encoding="UTF-8"?>
<svg xmlns="http://www.w3.org/2000/svg" version="1.1" viewBox="0 0 214.6 214.6">
  <defs>
    <style>
      .cls-1 {
        fill: #777;
      }
    </style>
  </defs>
  <!-- Generator: Adobe Illustrator 28.7.3, SVG Export Plug-In . SVG Version: 1.2.0 Build 164)  -->
  <g>
    <g id="Ebene_1">
      <path class="cls-1" d="M188.7,0H25.8C11.6,0,0,11.6,0,25.9v162.9c0,14.3,11.6,25.8,25.8,25.8h162.9c14.3,0,25.8-11.6,25.8-25.8V25.9C214.5,11.6,202.9.1,188.7.1v-.1ZM95.2,74.7v28.5h-24.9v76.4h-38.2v-76.4h-15.9v-28.5h15.9v-2.6c0-13.3,3.9-23.8,11.9-31.6,7.9-7.8,19.1-11.8,33.6-11.8s9.1.5,13.8,1.4c4.6.9,8.5,2.3,11.6,4.2l-9.4,26.9c-1.6-.9-3.4-1.7-5.3-2.3s-4.1-.9-6.3-.9c-3.8,0-6.8,1.2-9.1,3.5-2.3,2.3-3.5,6-3.5,11v2.2h26.1-.3ZM179.8,178.8l-20.9-28.2-21.1,28.2h-21.3l31.9-41.7-30.7-40.1h21.5l20,26.6,20.1-26.6h20.7l-30.6,40,32.2,41.9h-21.8v-.1Z"/>
    </g>
  </g>
</svg>