<?xml version="1.0" encoding="UTF-8"?>
<svg xmlns="http://www.w3.org/2000/svg" version="1.1" viewBox="0 0 214.6 214.6">
  <defs>
    <style>
      .cls-1 {
        fill: #777;
      }
    </style>
  </defs>
  <!-- Generator: Adobe Illustrator 28.7.3, SVG Export Plug-In . SVG Version: 1.2.0 Build 164)  -->
  <g>
    <g id="Ebene_1">
      <g>
        <polygon class="cls-1" points="146.47 188.41 152.64 188.41 149.55 181 146.47 188.41"/>
        <path class="cls-1" d="M173.23,180.22h-3.64v6.75h3.64c1.37,0,2.41-.3,3.11-.89.7-.59,1.06-1.43,1.06-2.5s-.35-1.9-1.06-2.49c-.7-.58-1.74-.88-3.11-.88Z"/>
        <path class="cls-1" d="M122.85,186.97h3.64c1.37,0,2.41-.3,3.11-.89.7-.59,1.06-1.43,1.06-2.5s-.35-1.9-1.06-2.49c-.7-.58-1.74-.88-3.11-.88h-3.64v6.75Z"/>
        <polygon class="cls-1" points="36.96 188.41 43.12 188.41 40.04 181 36.96 188.41"/>
        <polygon class="cls-1" points="191.88 188.41 198.05 188.41 194.97 181 191.88 188.41"/>
      </g>
      <g>
        <path class="cls-1" d="M188.55,0H25.65C11.45,0-.15,11.6-.15,25.8v162.9c0,14.3,11.6,25.8,25.8,25.8h162.9c14.3,0,25.8-11.6,25.8-25.8V25.8C214.35,11.5,202.75,0,188.55,0ZM26.97,180.16h-10.17v5.14h8.97v3.61h-8.97v7.08h-4.53v-19.44h14.69v3.61ZM46.27,195.99l-1.73-4.17h-9.01l-1.73,4.17h-4.61l8.64-19.44h4.44l8.72,19.44h-4.72ZM69.33,180.22h-6.22v15.78h-4.5v-15.78h-6.22v-3.67h16.94v3.67ZM89.3,180.22h-6.22v15.78h-4.5v-15.78h-6.22v-3.67h16.94v3.67ZM111.32,187.41c0,2.87-.78,5.07-2.33,6.61-1.56,1.54-3.7,2.3-6.44,2.3s-4.92-.77-6.47-2.3-2.33-3.74-2.33-6.61v-10.86h4.53v10.75c0,1.83.38,3.16,1.14,3.99.76.82,1.81,1.24,3.17,1.24s2.43-.41,3.19-1.24c.76-.82,1.14-2.15,1.14-3.99v-10.75h4.42v10.86ZM130.71,195.99l-3.78-5.45c-.07,0-.13,0-.19,0h-3.89v5.44h-4.53v-19.44h8.42c1.74,0,3.24.28,4.5.85,1.26.57,2.23,1.38,2.92,2.43.68,1.06,1.03,2.31,1.03,3.75s-.34,2.72-1.03,3.76c-.69,1.05-1.66,1.84-2.92,2.39,0,0-.02,0-.03.01l4.33,6.25h-4.83ZM155.79,195.99l-1.73-4.17h-9.01l-1.73,4.17h-4.61l8.64-19.44h4.44l8.72,19.44h-4.72ZM161.27,69.41c-.32.59-.93.95-1.59.95-.05,0-.11,0-.16,0l-7.14-.64-.83,22.34c-.02.57-.31,1.09-.77,1.41l-44.65,31.18,1.35,9.09c.09.58-.12,1.17-.54,1.57l-21.39,20.37c-.34.33-.79.5-1.24.5-.3,0-.59-.07-.86-.22-.69-.38-1.05-1.16-.91-1.93l13.71-70.87L53.08,26.87c-.43-.56-.49-1.32-.16-1.94.33-.62.99-1,1.7-.96l5.59.32-3.67-5.98c-.39-.63-.35-1.43.09-2.02.44-.59,1.19-.86,1.91-.67l50.17,13.24s.09.03.13.05c.05.02.09.03.14.05.06.03.11.06.17.09.04.03.09.05.13.08.05.04.1.08.15.12.04.03.07.06.11.09.05.05.1.11.14.17.02.03.05.06.07.09,0,0,0,0,0,0l20.95,31.7,19.84-5.45c.13-.04.26-.05.39-.06.04,0,.08,0,.12,0,.09,0,.18,0,.27.02.05,0,.09.02.13.03.08.02.17.05.25.08.04.02.08.03.12.05.09.04.17.1.25.15.02.02.05.03.07.04,0,0,.02.01.02.02.01.01.03.03.04.04.08.07.16.15.22.23,0,0,0,0,0,0l8.66,10.95c.45.57.51,1.34.17,1.98ZM180.9,187.34c-.69,1.05-1.66,1.86-2.92,2.43-1.26.57-2.76.86-4.5.86h-3.89v5.36h-4.53v-19.44h8.42c1.74,0,3.24.28,4.5.85,1.26.57,2.23,1.38,2.92,2.43.68,1.06,1.03,2.31,1.03,3.75s-.34,2.72-1.03,3.76ZM201.2,195.99l-1.73-4.17h-9.01l-1.73,4.17h-4.61l8.64-19.44h4.44l8.72,19.44h-4.72Z"/>
        <polygon class="cls-1" points="152.52 66.09 155.67 66.38 152.65 62.56 152.52 66.09"/>
        <polygon class="cls-1" points="144.66 88.96 109.18 35.29 100.31 81.12 144.66 88.96"/>
        <polygon class="cls-1" points="106.15 31.92 61.97 20.26 97.27 77.83 106.15 31.92"/>
        <polygon class="cls-1" points="148.11 87.64 149.13 59.99 132.8 64.48 148.11 87.64"/>
        <path class="cls-1" d="M102.37,123.85l-4.48-30.19-10.74,55.5,16.63-15.83-1.35-9.08c-.03-.13-.06-.27-.06-.4Z"/>
        <polygon class="cls-1" points="58.34 27.79 78.41 53.97 62.5 28.03 58.34 27.79"/>
        <polygon class="cls-1" points="105.54 120.65 145.47 92.77 100.21 84.77 105.54 120.65"/>
      </g>
    </g>
  </g>
</svg>