<?xml version="1.0" encoding="UTF-8"?>
<svg xmlns="http://www.w3.org/2000/svg" version="1.1" viewBox="0 0 214.6 214.6">
  <defs>
    <style>
      .cls-1 {
        fill: #777;
      }
    </style>
  </defs>
  <!-- Generator: Adobe Illustrator 28.7.3, SVG Export Plug-In . SVG Version: 1.2.0 Build 164)  -->
  <g>
    <g id="Ebene_1">
      <g>
        <path class="cls-1" d="M90.74,179.42h-4.54v8.43h4.54c1.71,0,3-.37,3.88-1.11s1.32-1.78,1.32-3.12-.44-2.38-1.32-3.1c-.88-.73-2.17-1.09-3.88-1.09Z"/>
        <path class="cls-1" d="M162.01,181.37c-.69-.71-1.5-1.25-2.41-1.63-.91-.38-1.91-.57-3-.57s-2.09.19-3.02.57c-.92.38-1.73.92-2.41,1.63-.68.71-1.21,1.53-1.6,2.46-.38.94-.57,1.98-.57,3.14s.19,2.2.57,3.14c.38.94.91,1.76,1.6,2.46.68.71,1.49,1.25,2.41,1.63.92.38,1.93.57,3.02.57s2.09-.19,3-.57c.91-.38,1.72-.92,2.41-1.63.69-.71,1.23-1.53,1.61-2.46.38-.94.57-1.98.57-3.14s-.19-2.2-.57-3.14-.92-1.76-1.61-2.46Z"/>
        <path class="cls-1" d="M122.72,179.42h-4.54v8.43h4.54c1.71,0,3-.37,3.88-1.11s1.32-1.78,1.32-3.12-.44-2.38-1.32-3.1c-.88-.73-2.17-1.09-3.88-1.09Z"/>
        <path class="cls-1" d="M28.55,179.42h-4.54v8.43h4.54c1.71,0,3-.37,3.88-1.11s1.32-1.78,1.32-3.12-.44-2.38-1.32-3.1c-.88-.73-2.17-1.09-3.88-1.09Z"/>
      </g>
      <g>
        <path class="cls-1" d="M47.45,99.88c-.33-2.42-.64-4.84-.98-7.25-.1-.72-.3-1.79-1.29-1.14-2.65,1.75-5.2,3.64-6.78,6.55-.61,1.12-.35,2.01.7,2.43,2.34.93,4.74,1.69,7.12,2.52,1.79-.22,2.01-.52,1.46-2.12-.11-.32-.18-.66-.23-.99Z"/>
        <path class="cls-1" d="M57.04,69.68c3.91,3.66,7.69,7.47,11.72,10.98,4.07,3.54,8.38,6.81,12.61,10.17.38.3,1.08.62,1.41.47,1.11-.52,2.15-1.2,3.13-1.92.27-.2.4-.78.35-1.16-.28-2.12-.74-4.23-.93-6.36-.25-2.94-.27-5.89-.46-8.84-.11-1.77-.3-3.53-.55-5.28-.07-.47-.43-1.03-.82-1.3-4.49-3.14-4.73-9.14-.13-12.54.47-.35.87-1.13.89-1.72.16-4.67.23-9.33.32-14,.33-1.74-.1-2.01-1.71-1.2-6.51,3.26-12.02,7.8-16.73,13.3-4.18,4.88-7.4,10.35-9.71,16.37-.48,1.24-.36,2.13.61,3.03Z"/>
        <path class="cls-1" d="M55.73,50.8c-2.1-.43-4.21-.84-6.32-1.25,0,.04-.02.09-.03.13-.44.02-.89,0-1.32.08-2.58.46-3.47,1.81-2.37,4.13,1.13,2.38,2.53,4.64,3.95,6.86.83,1.3,1.16,1.2,1.88-.11,1.54-2.84,3.08-5.68,4.64-8.51.35-.64.42-1.13-.44-1.31Z"/>
        <path class="cls-1" d="M92.12,54.08c3.27,2.3,4.43,8.09,1.1,10.97-2.11,1.83-2.07,3.92-1.83,6.24.34,3.35.7,6.7,1.03,10.05.18,1.81.3,3.62.46,5.43.08.94.47,1.46,1.55,1.58.99.1,1.98.5,2.91.91,3.13,1.38,5.69,3.42,7.37,6.49.25.45.97.92,1.45.9,1-.04,2-.37,2.99-.64,2.93-.78,5.85-1.57,8.77-2.4,4-1.14,8-2.29,11.96-3.54.51-.16,1.02-.85,1.2-1.4,1.66-5.03,7.03-6.88,11.13-4.33,1.29.8,2.18.78,3.35.23.35-.17.71-.31,1.07-.47,5.08-2.34,10.16-4.69,15.24-7.02,1.03-.47,1.33-1.23,1.07-2.27-.23-.9-.46-1.79-.7-2.69-1.98-7.5-5.35-14.27-10.25-20.32-3.36-4.15-7.12-7.83-11.48-10.9-9.51-6.69-20.13-9.93-31.74-10.42-1.79.26-3.57.69-5.36.73-3.32.07-6.51.65-9.7,1.52-1.21.33-1.75.92-1.85,2.1-.15,1.65-.42,3.3-.52,4.95-.24,3.97-.48,7.94-.54,11.91-.01.81.62,1.92,1.29,2.39Z"/>
        <path class="cls-1" d="M95.18,25.09c3.1-.35,6.2-.66,9.29-1.1.25-.04.69-1.07.54-1.29-1.4-2.05-2.76-4.17-4.44-5.99-1.45-1.58-2.8-1.39-3.79.47-1.12,2.1-1.93,4.38-2.76,6.63-.33.89.06,1.56,1.16,1.28Z"/>
        <path class="cls-1" d="M157.53,124.7c-1.11,1.37-2.26,2.7-3.4,4.05-.57.67-.46,1.3.4,1.39,2.57.29,5.15.53,7.73.61,1.05.03,2.23-.56,2.16-1.78-.17-3.11-1.94-5.51-3.82-8.23-1.21,1.57-2.12,2.79-3.07,3.96Z"/>
        <path class="cls-1" d="M164.14,87.75c0-.79.02-1.58,0-2.36-.04-1.1-.63-1.37-1.58-.93-.67.31-1.31.68-1.98.97-4.35,1.91-8.71,3.78-13.04,5.73-.7.32-1.61.89-1.79,1.52-1.37,5.06-7.38,7.06-11.64,4.32-.58-.38-1.58-.44-2.28-.24-4.71,1.31-9.37,2.75-14.07,4.09-3.15.9-6.3,1.87-9.51,2.46-1.63.3-1.78,1.27-2.04,2.41-.28,1.23-.27,2.31,1.11,2.98,1.05.51,2.01,1.21,3.04,1.76,5.69,3.09,11.31,6.32,17.11,9.2,5.22,2.59,10.68,4.69,15.95,7.19,1.87.89,3.02.17,4.07-1.08,2.46-2.93,5.01-5.8,7.2-8.93,6.1-8.71,8.82-18.57,9.45-29.09Z"/>
        <path class="cls-1" d="M174.7,63.04c-2.44-.82-4.94-1.49-7.44-2.08-1.14-.27-1.41.26-1.01,1.44.96,2.87,1.88,5.75,2.79,8.64.29.92.85,1.11,1.52.5,1.83-1.68,3.62-3.4,5.37-5.16.31-.31.35-.88.65-1.71-.6-.54-1.14-1.38-1.88-1.62Z"/>
        <path class="cls-1" d="M188.7,0H25.8C11.6,0,0,11.6,0,25.8v162.9C0,203,11.6,214.5,25.8,214.5h162.9c14.3,0,25.8-11.6,25.8-25.8V25.8C214.5,11.5,202.9,0,188.7,0ZM38.12,188.31c-.86,1.31-2.07,2.32-3.64,3.03-1.57.72-3.45,1.08-5.62,1.08h-4.86v6.69h-5.65v-24.28h10.51c2.17,0,4.05.35,5.62,1.06,1.57.71,2.79,1.72,3.64,3.04.86,1.32,1.28,2.88,1.28,4.68s-.43,3.39-1.28,4.7ZM69.13,199.12h-18.8v-24.28h18.35v4.51h-12.76v5.24h11.27v4.4h-11.27v5.62h13.21v4.51ZM100.31,188.31c-.86,1.31-2.07,2.32-3.64,3.03-1.57.72-3.45,1.08-5.62,1.08h-4.86v6.69h-5.65v-24.28h10.51c2.17,0,4.05.35,5.62,1.06,1.57.71,2.79,1.72,3.64,3.04.86,1.32,1.28,2.88,1.28,4.68s-.43,3.39-1.28,4.7ZM132.29,188.31c-.86,1.31-2.07,2.32-3.64,3.03-1.57.72-3.45,1.08-5.62,1.08h-4.86v6.69h-5.65v-24.28h10.51c2.17,0,4.05.35,5.62,1.06,1.57.71,2.79,1.72,3.64,3.04.86,1.32,1.28,2.88,1.28,4.68s-.43,3.39-1.28,4.7ZM168.9,191.99c-.66,1.54-1.59,2.87-2.79,4.01s-2.61,2.01-4.21,2.62c-1.61.61-3.36.92-5.25.92s-3.69-.31-5.31-.94c-1.62-.62-3.03-1.5-4.23-2.64s-2.13-2.46-2.79-3.99c-.66-1.53-.99-3.19-.99-5s.33-3.5.99-5.01c.66-1.51,1.59-2.84,2.79-3.97s2.61-2.01,4.21-2.64c1.61-.62,3.37-.94,5.29-.94s3.68.31,5.29.92c1.61.61,3.01,1.49,4.21,2.62s2.13,2.46,2.79,3.99c.66,1.53.99,3.2.99,5.03s-.33,3.47-.99,5.01ZM172.33,78.8c-1.41.9-1.68,1.78-1.48,3.5.33,2.75.12,5.58-.1,8.36-.22,2.78-.55,5.59-1.17,8.3-.77,3.32-1.89,6.56-2.87,9.83-.11.37-.2.79-.43,1.09-2.28,2.97-1.18,5.44.77,8.14,1.55,2.15,2.89,4.64,3.6,7.19,1.28,4.64.93,8.55-3.3,10.99-2.23,1.29-4.71,1.57-7.24,1.55-.03.13-.06.26-.08.39-3.68-.77-7.36-1.52-11.03-2.32-1.18-.26-2.23-.43-3.34.41-4.61,3.49-9.7,6.14-15.04,8.31-.36.15-.76.2-1.12.33-.82.28-1.36.69-1.63,1.67-.88,3.2-1.82,6.41-2.97,9.52-1.04,2.81-2.77,5.28-5.44,6.77-3.37,1.88-7.33,1.07-10.54-1.96-2.74-2.6-4.79-5.72-6.49-9.07-.47-.91-.81-1.91-1.41-2.73-.39-.53-1.08-1.07-1.7-1.16-10.73-1.7-20.39-5.8-29.02-12.43-7.99-6.13-14.21-13.66-18.35-22.83-.97-2.14-2.46-2.83-4.52-2.97-3.8-.25-7.44-1.1-10.88-2.75-4.43-2.13-6.37-5.84-4.98-10.52.53-1.8,1.69-3.62,3.04-4.94,2.43-2.38,5.21-4.41,7.88-6.54.8-.64,1.72-1.13,2.61-1.66,1.38-.83,1.07-2.36,1.34-3.56.67-2.94,1.11-5.95,1.47-8.95.08-.64-.44-1.47-.9-2.03-2.78-3.38-5.39-6.88-7.17-10.9-1.39-3.13-2-6.39-.67-9.7,1.15-2.86,3.53-4.2,6.42-4.78,1.15-.23,2.32-.58,3.47-.53,2.04.09,4.09.37,6.11.72,1.83.32,3.6.93,5.43,1.2.59.09,1.4-.35,1.89-.79,2.38-2.12,4.57-4.48,7.05-6.47,4.57-3.67,9.54-6.71,15.05-8.8,1.05-.4,1.65-1.07,1.82-2.1.71-4.4,1.94-8.64,4.22-12.47,2.22-3.72,5.04-5.94,9.67-5.27,2.58.37,4.67,2,6.16,4.01,2.21,2.98,4.17,6.15,6.04,9.36.74,1.28,1.41,1.86,2.98,2.03,3.14.34,6.27,1,9.33,1.81,5.76,1.52,11.18,3.86,16.28,6.97,6.27,3.83,11.73,8.58,16.32,14.31,1.2,1.49,2.29,3.07,3.32,4.68.9,1.41,2.03,1.97,3.76,1.99,5.05.06,9.93,1.01,14.46,3.42,4.22,2.26,5.73,7.81,3.32,11.95-2.41,4.12-5.99,6.96-9.9,9.45ZM198.81,199.12h-17.76v-24.28h5.65v19.7h12.1v4.58Z"/>
        <path class="cls-1" d="M125.32,126.51c-7.02-3.7-13.89-7.7-20.8-11.59-1.51-.85-2.96-1.87-4.46,0-.05.07-.18.08-.27.12-1.74.97-1.94,1.53-1.42,3.48.71,2.68,1.27,5.42,2.1,8.07,1.45,4.67,3.02,9.3,4.62,13.91.15.43.89.92,1.38.94,5.06.27,10.06-.11,15.01-1.33,5.32-1.31,10.31-3.38,15.07-6.07.64-.36,1.19-.89,1.95-1.46-.48-.32-.59-.42-.72-.48-4.16-1.85-8.43-3.47-12.45-5.59Z"/>
        <path class="cls-1" d="M119.04,147.55c-2.88.27-5.75.56-8.63.82-1.41.12-1.84.7-1.01,1.9,1.41,2.04,3.01,3.95,4.59,5.87.31.38.89.54,1.53.9.54-.42,1.28-.71,1.53-1.24,1.09-2.28,2.02-4.63,3.04-6.95.53-1.2-.06-1.4-1.06-1.3Z"/>
        <path class="cls-1" d="M96.99,138.56c-1.76-6.36-3.49-12.72-5.3-19.06-.3-1.05-.48-2.25-2.09-2.45-4.52-.57-7.98-2.9-10.19-6.89-.68-1.22-1.42-1.51-2.73-1.26-1.87.35-3.78.57-5.68.7-3.62.26-7.25.42-10.87.6-1.14.06-1.62.46-.91,1.56,2.05,3.16,3.92,6.46,6.2,9.44,3.51,4.59,7.82,8.45,12.79,11.39,3.6,2.14,7.45,3.9,11.28,5.62,1.99.9,4.18,1.37,6.3,1.98.71.2,1.45.21,1.33-1.06-.02-.08-.04-.33-.11-.57Z"/>
        <path class="cls-1" d="M92.02,95.2c-4.18-.05-7.49,2.82-7.66,7.4-.18,5.03,4.06,8.07,7.51,7.96,4.21-.12,7.54-2.88,7.87-7.73-.29-4.4-3.08-7.58-7.72-7.64Z"/>
        <path class="cls-1" d="M61.73,103.31c0,.06.01.13.02.19,2.48-.25,4.97-.51,7.45-.74,2.34-.22,4.68-.39,7.01-.66.38-.04.9-.44,1.03-.8.4-1.04.69-2.14.89-3.24.07-.38-.14-.94-.42-1.22-.66-.65-1.46-1.16-2.17-1.76-5.31-4.44-10.62-8.86-15.89-13.34-1.61-1.36-3.08-2.88-4.65-4.29-.27-.24-.74-.49-1.01-.41-.25.08-.45.59-.51.94-.22,1.26-.46,2.52-.52,3.79-.34,6.9.15,13.72,2.33,20.33.17.52,1,1.1,1.57,1.15,1.61.16,3.25.05,4.87.05Z"/>
      </g>
    </g>
  </g>
</svg>