<?xml version="1.0" encoding="utf-8"?>
<!-- Generator: Adobe Illustrator 25.0.1, SVG Export Plug-In . SVG Version: 6.00 Build 0)  -->
<svg version="1.1" id="Layer_1" xmlns="http://www.w3.org/2000/svg" xmlns:xlink="http://www.w3.org/1999/xlink" x="0px" y="0px"
	 viewBox="0 0 800 600" style="enable-background:new 0 0 800 600;" xml:space="preserve">
<style type="text/css">
	.st0{fill:#2388AE;}
</style>
<path class="st0" d="M514.6,322.8c0.1-8.3-2.6-15.7-7-22.6c-7.5-11.6-17.8-19.5-31-23.3c-3-0.9-4.3-2.6-4.8-5.6
	c-2.9-16.1-10.9-29.3-23.5-39.6c-9.9-8.1-21.4-12.7-34.2-13.9c-13.7-1.3-26.6,1.4-38.6,8.2c-10.4,5.9-18.5,14.3-24.5,24.7
	c-2,3.5-2.1,3.5-6,2.9c-4.5-0.8-9-0.6-13.5,0.6c-16.4,4.3-27.8,21.2-24.1,38.3c0.5,2.2-0.1,3.8-2,5.2c-3.7,2.7-7,5.7-9.8,9.3
	c-4.8,6.3-8.6,12.9-9,21.1c-0.1,1.7-0.2,3.4-0.3,5.1c-0.3,8.6-0.1,17.2,4.4,25.1c9.2,16.2,23,25.3,41.6,25.4
	c43,0.3,86,0.1,129.1,0.1c2,0,4-0.1,6-0.3c15.9-2,28.6-9.4,38.1-22.3c4.6-6.3,8.2-13.2,8.8-21.2c0.1-1.7,0.1-3.4,0.5-5
	c0-3.6,0-7.1,0-10.7C514.4,323.8,514.6,323.3,514.6,322.8z M435.8,313.5c-1.1,2.9-3.6,3.9-6.4,4.1c-3.9,0.2-7.7,0.2-11.6,0.1
	c-2.2,0-3,0.6-3,2.9c0.1,8.2,0.1,16.3,0,24.5c0,5.6-2.7,8.4-8.3,8.4c-4,0.1-8,0.1-12,0c-5.5-0.1-8.2-2.8-8.2-8.3c0-4.1,0-8.2,0-12.3
	s0-8.2,0-12.3c0-2.9-0.1-2.9-3-3c-3.6,0-7.3-0.1-10.9-0.1c-1.5,0-2.9-0.4-4.3-1.1c-3.9-2.2-4.2-7.4-0.6-11.1
	c6.1-6.1,12.3-12.1,18.4-18.2c2.9-2.9,5.8-5.8,8.8-8.6c4.2-3.9,7.6-4,11.7-0.1c9.3,8.9,18.4,18,27.5,27
	C436,307.8,436.9,310.5,435.8,313.5z"/>
</svg>
