<?xml version="1.0" encoding="UTF-8"?>
<svg id="Ebene_1" data-name="Ebene 1" xmlns="http://www.w3.org/2000/svg" version="1.1" viewBox="0 0 335.38 326.49">
  <defs>
    <style>
      .cls-1 {
        fill: #000;
        stroke-width: 0px;
      }
    </style>
  </defs>
  <path class="cls-1" d="M247.52,144.82c.04-.73.14-1.69.14-2.65,0-34.75.01-69.51-.01-104.26,0-2.06-.05-4.16-.41-6.18-3.14-17.59-17.62-29.61-35.74-29.62-58.16-.02-116.33-.01-174.49,0C15.3,2.12.05,17.4.01,39.16c-.02,15.91,0,31.81,0,47.72,0,66.67-.02,133.35.01,200.02.01,21.84,14.76,36.64,36.42,36.65,53.37.02,106.74,0,160.11,0,1.01,0,2.01-.1,3.07-.16-38.49-25.38-56.48-60.38-45.07-105.49,11.83-46.8,45.32-69.61,92.96-73.07ZM125.89,204.31c-4.84,1.79-6.82,3.77-6.66,9.12.25,8.16-4.34,13.15-10.85,13.2-6.57.06-11.2-4.9-10.9-13.03.2-5.32-1.77-7.28-6.54-9.22-18.68-7.62-29.1-21.77-30.74-42.01-.66-8.14,3.31-13.34,10-13.86,6.28-.49,10.73,3.87,11.88,11.63,2.46,16.55,12.32,25.9,26.96,25.58,13.48-.3,24.22-10.48,25.54-24.22,1.2-12.52-7.66-24.69-20.33-27.39-5.59-1.19-11.45-1.17-16.99-2.5-20.25-4.83-35.27-22.44-36.66-42.46-1.53-22.08,10.15-41.39,30.37-49.11,4.89-1.87,6.66-4.08,6.49-9.34-.27-8.36,4.09-12.91,10.98-12.81,6.82.1,10.92,4.62,10.81,13.13-.06,4.86,1.39,7,6.14,8.85,18.85,7.37,29.15,21.59,31.07,41.76.72,7.57-3.03,12.9-9.35,13.81-6.58.94-11.96-3.33-12.42-11.48-1.14-20.21-23.48-32.53-41.02-20.89-9.25,6.14-13.52,17.61-10.79,28.46,2.74,10.88,12.26,18.56,24.05,19.4,25.41,1.82,42.14,14.39,47.95,36.25,1.05,3.97,1.41,8.12,1.76,10.26.07,21.71-12.14,39.97-30.78,46.88Z"/>
  <path class="cls-1" d="M168.1,251.34c0-6.08,0-12.16,0-18.23.1-.17.24-.32.29-.5,1.28-4.37,4.23-6.83,8.69-7.45,3.52-.49,7.04-.94,10.57-1.3,1.15-.12,1.67-.56,2.06-1.64.8-2.22,1.73-4.4,2.71-6.55.37-.81.37-1.34-.2-2.06-2.29-2.85-4.52-5.74-6.74-8.65-3.4-4.45-3.08-9.59.84-13.55,3.26-3.29,6.54-6.57,9.83-9.83,4.06-4.02,9.12-4.38,13.65-.94,2.91,2.21,5.8,4.45,8.65,6.73.72.57,1.25.57,2.06.2,2.2-1,4.43-1.92,6.69-2.76.95-.35,1.35-.85,1.46-1.87.38-3.53.83-7.05,1.29-10.57.73-5.63,4.7-9.11,10.4-9.12,4.74-.01,9.48-.03,14.21,0,4.89.04,8.87,3.3,9.68,8.1.64,3.85,1.06,7.75,1.52,11.63.11.91.4,1.43,1.35,1.77,2.32.84,4.59,1.8,6.83,2.83.83.38,1.36.33,2.06-.22,2.82-2.25,5.67-4.45,8.52-6.65,4.49-3.47,9.61-3.19,13.67.79,3.31,3.25,6.58,6.53,9.83,9.83,4.05,4.12,4.34,9.17.8,13.78-2.16,2.82-4.33,5.63-6.55,8.4-.59.74-.66,1.31-.25,2.19,1,2.14,1.92,4.32,2.71,6.55.39,1.11.99,1.47,2.1,1.59,3.78.42,7.57.85,11.32,1.47,4.83.81,8.11,4.74,8.16,9.62.05,4.94.05,9.89,0,14.83-.05,4.88-3.33,8.83-8.14,9.64-3.75.63-7.54,1.07-11.32,1.48-1.21.13-1.76.6-2.16,1.72-.77,2.18-1.68,4.31-2.65,6.4-.4.87-.38,1.44.22,2.19,2.22,2.77,4.39,5.58,6.55,8.4,3.58,4.66,3.26,9.7-.88,13.9-3.22,3.26-6.46,6.5-9.73,9.72-4.05,3.99-9.15,4.28-13.67.82-2.86-2.2-5.71-4.4-8.53-6.64-.68-.54-1.22-.65-2.06-.26-2.24,1.03-4.52,1.97-6.83,2.84-.83.31-1.26.69-1.35,1.6-.29,2.76-.63,5.52-1,8.27-.35,2.59-.5,5.22-2.13,7.48-1.63,2.25-3.9,3.42-6.48,4.16h-17.93c-.18-.09-.36-.2-.56-.25-4.41-1.16-6.98-4.02-7.66-8.48-.55-3.61-.97-7.24-1.36-10.88-.11-1.06-.5-1.61-1.53-1.98-2.22-.8-4.41-1.72-6.55-2.7-.86-.39-1.44-.4-2.2.21-2.81,2.26-5.66,4.46-8.53,6.64-4.55,3.46-9.63,3.14-13.67-.84-3.3-3.26-6.58-6.54-9.84-9.83-4-4.05-4.3-9.12-.83-13.66,2.22-2.9,4.51-5.76,6.69-8.69.31-.42.41-1.24.22-1.73-.91-2.4-1.89-4.78-2.97-7.11-.24-.52-.93-1.09-1.49-1.18-3.51-.52-7.04-.93-10.57-1.35-2.77-.33-5.28-1.28-6.94-3.56-1.03-1.42-1.61-3.16-2.4-4.76ZM246.25,275.34c17.81.82,33.07-13.53,33.94-31.91.85-17.88-13.57-33.22-31.99-34.02-17.86-.77-33.13,13.59-33.94,31.91-.79,17.93,13.54,33.17,31.99,34.02Z"/>
</svg>