<?xml version="1.0" encoding="UTF-8"?>
<svg id="Ebene_1" data-name="Ebene 1" xmlns="http://www.w3.org/2000/svg" version="1.1" viewBox="0 0 335.38 326.49">
  <defs>
    <style>
      .cls-1 {
        fill: #000;
        stroke-width: 0px;
      }
    </style>
  </defs>
  <path class="cls-1" d="M7.77,10.64c2.44-5.24,6.54-6.96,12.27-6.95,98.58.11,197.15.08,295.73.08,8.58,0,11.84,3.27,11.85,11.88,0,11.24.01,22.48,0,33.72-.01,6.88-3.73,10.58-10.61,10.61-2.79.01-5.58,0-8.75,0,0,1.43,0,2.64,0,3.85,0,7.91.04,15.82-.02,23.73-.04,5.89-3.92,9.84-9.76,9.87-12.18.06-24.36.05-36.54,0-6.02-.02-9.87-3.96-9.9-10.05-.04-8.01-.01-16.03-.01-24.04,0-1.02,0-2.04,0-3.2h-56.22c0,.95,0,1.94,0,2.93,0,8.01.02,16.03,0,24.04-.02,6.48-3.82,10.31-10.26,10.33-11.87.03-23.73.03-35.6,0-6.61-.01-10.34-3.83-10.35-10.55-.02-8.83,0-17.66,0-26.71h-56.22c0,2.71,0,5.38,0,8.05,0,6.56.06,13.11-.03,19.67-.07,5.38-3.89,9.44-9.17,9.49-12.59.12-25.19.11-37.79,0-5.41-.05-9.19-4.16-9.23-9.75-.06-8.12-.02-16.23-.02-24.35,0-1.01,0-2.02,0-3.25-7.3-.49-15.52,2.11-19.37-6.95V10.64Z"/>
  <path class="cls-1" d="M7.77,123.69c2.44-5.24,6.54-6.96,12.27-6.95,98.58.11,197.15.08,295.73.08,8.58,0,11.84,3.27,11.84,11.88,0,11.24.01,22.48,0,33.72-.01,6.88-3.73,10.58-10.61,10.61-2.79.01-5.58,0-8.75,0,0,1.43,0,2.64,0,3.85,0,7.91.04,15.82-.02,23.73-.04,5.89-3.92,9.84-9.76,9.87-12.18.06-24.36.05-36.54,0-6.02-.02-9.87-3.96-9.9-10.05-.04-8.01-.01-16.03-.01-24.04,0-1.01,0-2.03,0-3.2h-56.22c0,.95,0,1.94,0,2.93,0,8.01.02,16.03,0,24.04-.02,6.48-3.82,10.31-10.26,10.33-11.87.03-23.73.03-35.6,0-6.61-.01-10.34-3.83-10.35-10.55-.02-8.83,0-17.66,0-26.71h-56.22c0,2.71,0,5.38,0,8.05,0,6.56.07,13.11-.03,19.67-.07,5.38-3.9,9.44-9.17,9.49-12.59.12-25.19.11-37.79,0-5.41-.05-9.19-4.16-9.23-9.75-.06-8.12-.02-16.23-.02-24.35,0-1.01,0-2.02,0-3.25-7.3-.49-15.52,2.11-19.37-6.95v-42.47Z"/>
  <path class="cls-1" d="M7.77,236.73c2.49-5.4,6.77-6.96,12.58-6.95,98.53.12,197.07.08,295.6.08,8.35,0,11.67,3.34,11.67,11.73,0,11.23.01,22.47,0,33.7,0,7.09-3.68,10.75-10.75,10.77-2.7,0-5.4,0-8.41,0-.07.97-.18,1.86-.19,2.74-.01,7.39-.26,14.78.07,22.15.26,5.81-1.56,10.08-6.95,12.58h-42.48c-5.4-2.49-7.21-6.76-6.95-12.58.33-7.37.09-14.77.07-22.15,0-.89-.12-1.77-.17-2.58h-56.04c0,8.35-.24,16.55.08,24.73.23,5.81-1.56,10.08-6.95,12.58h-42.48c-5.4-2.49-7.21-6.76-6.95-12.58.33-7.37.09-14.77.07-22.15,0-.89-.12-1.77-.17-2.58h-56.04c0,8.35-.24,16.55.08,24.73.23,5.81-1.56,10.08-6.95,12.58h-42.48c-5.37-2.48-7.35-6.71-6.93-12.51.3-4.12.06-8.28.06-12.43v-12.46c-7.37-.45-15.53,2.07-19.37-6.94v-42.47Z"/>
</svg>