<svg id="Layer_1" data-name="Layer 1" xmlns="http://www.w3.org/2000/svg" viewBox="0 0 512 512"><path d="M201.32,470H56.68A17.7,17.7,0,0,1,39,452.32V307.68a10,10,0,0,0-20,0V452.32A37.72,37.72,0,0,0,56.68,490H201.32a10,10,0,0,0,0-20Z"/><path d="M480.66,297.68a10,10,0,0,0-10,10V452.32A17.7,17.7,0,0,1,453,470H308.33a10,10,0,1,0,0,20H453a37.72,37.72,0,0,0,37.68-37.68V307.68A10,10,0,0,0,480.66,297.68Z"/><path d="M29,212.32a10,10,0,0,0,10-10V57.68A17.7,17.7,0,0,1,56.68,40H201.32a10,10,0,0,0,0-20H56.68A37.72,37.72,0,0,0,19,57.68V202.32A10,10,0,0,0,29,212.32Z"/><path d="M453,20H308.33a10,10,0,0,0,0,20H453a17.7,17.7,0,0,1,17.68,17.68V202.32a10,10,0,0,0,20,0V57.68A37.72,37.72,0,0,0,453,20Z"/><path d="M77.6,249.18a10,10,0,0,0,10,10H424.4a10,10,0,0,0,0-20H87.6A10,10,0,0,0,77.6,249.18Z"/></svg>