<?xml version="1.0" encoding="utf-8"?>
<!-- Generator: Adobe Illustrator 25.0.1, SVG Export Plug-In . SVG Version: 6.00 Build 0)  -->
<svg version="1.1" id="Layer_1" xmlns="http://www.w3.org/2000/svg" xmlns:xlink="http://www.w3.org/1999/xlink" x="0px" y="0px"
	 viewBox="0 0 800 600" style="enable-background:new 0 0 800 600;" xml:space="preserve">
<g>
	<path d="M257.4,473.8c0-13.4,0-26.8,0-40.4c95.1,0,189.9,0,285.3,0c0,13.5,0,26.9,0,40.4C447.6,473.8,352.5,473.8,257.4,473.8z"/>
	<path d="M399.8,391.1C353.2,344.4,306,297.2,258.8,250c26.4,0,53,0,80.2,0c0-40.9,0-81.4,0-122.2c40.9,0,81.3,0,122,0
		c0,40.5,0,81,0,121.9c27.1,0,53.8,0,80.2,0C494,296.9,446.8,344.1,399.8,391.1z"/>
</g>
</svg>
