<?xml version="1.0" encoding="utf-8"?>
<!-- Generator: Adobe Illustrator 25.0.1, SVG Export Plug-In . SVG Version: 6.00 Build 0)  -->
<svg version="1.1" id="Layer_1" xmlns="http://www.w3.org/2000/svg" xmlns:xlink="http://www.w3.org/1999/xlink" x="0px" y="0px"
	 viewBox="0 0 379 340" style="enable-background:new 0 0 379 340;" xml:space="preserve">
<g>
	<path d="M141.7,330c-36.4,0-72.9,0-109.3,0c-12.5,0-18.6-6.1-18.6-18.7c0.1-12.4-0.2-24.8,0.6-37.1c2.3-35.1,31.9-66.5,66.8-71.2
		c4.2-0.6,8.4-0.9,12.7-0.9c31.8-0.1,63.6-0.2,95.4,0c38.8,0.2,70.4,26,78.4,63.9c1.2,5.7,1.5,11.6,1.7,17.5
		c0.3,9.2,0.1,18.5,0.1,27.8c0,12.6-6.1,18.7-18.5,18.7C214.6,330,178.1,330,141.7,330z"/>
	<path d="M141.8,10c44.7,0.4,79.9,36,79.7,80.7c-0.2,43.9-36.7,79.7-80.8,79.3c-43.9-0.5-79.3-36.7-79-80.8
		C62.1,45.4,98.3,9.6,141.8,10z"/>
	<path d="M204.5,162.4c21.3-19.5,32.7-43.7,32.7-72.5c0-28.8-11.4-52.8-32.6-72.2C226.5,5.4,268.4,5.1,296.5,36
		c26.7,29.4,27.8,74.4,2.6,104.8C272.6,172.9,230.4,175.8,204.5,162.4z"/>
	<path d="M281.9,329.7c6.3-16.7,3-33.9,3.2-50.9c0.1-7.7-1.5-15.7-3.6-23.2c-5.7-20.9-17.7-37.8-35-50.8c-0.9-0.7-1.8-1.3-3.3-2.5
		c1.7-0.1,2.7-0.3,3.7-0.3c12.7,0,25.4-0.1,38.2,0c40.8,0.4,73.8,28.5,79.2,69c1.9,14.6,1.1,29.7,0.7,44.5
		c-0.2,8.4-7,14.2-15.4,14.3c-22.1,0.1-44.2,0.1-66.2,0C282.9,329.9,282.4,329.8,281.9,329.7z"/>
</g>
</svg>
