<?xml version="1.0" encoding="utf-8"?>
<!-- Generator: Adobe Illustrator 25.0.1, SVG Export Plug-In . SVG Version: 6.00 Build 0)  -->
<svg version="1.1" id="Layer_1" xmlns="http://www.w3.org/2000/svg" xmlns:xlink="http://www.w3.org/1999/xlink" x="0px" y="0px"
	 viewBox="0 0 418 395" style="enable-background:new 0 0 418 395;" xml:space="preserve">
<g>
	<path d="M26,269.2c0-72,0-144,0-216c0.2-0.7,0.5-1.4,0.7-2.1C31.4,26.4,51,9.9,75.9,9.9c94.5,0,189.1,0,283.6,0
		c28.2,0,49.7,21.7,49.7,49.9c0,67.5,0,135,0,202.4c0,28.3-21.4,49.8-49.7,49.9c-12.6,0-25.2,0-37.8,0c-13.7,0-26.6,3-38.9,9.2
		c-41.2,20.8-82.4,41.4-123.7,61.9c-15.4,7.7-31.3-2.2-31.3-19.4c-0.1-12.4,0-24.7,0-37.1c0-10.1-4.4-14.5-14.7-14.5
		c-13,0-25.9,0.1-38.9,0c-20.2-0.2-38.1-12.9-45.1-31.8C27.8,276.7,27,273,26,269.2z M217.5,230.6c39.6,0,79.3,0,118.9,0
		c1.6,0,3.3,0,4.8-0.2c4-0.6,6.6-3.8,6.7-7.8c0.1-5.5-3.6-8.5-10.7-8.5c-79.8,0-159.6,0-239.4,0c-1.5,0-3,0-4.5,0.4
		c-3.9,0.8-6.3,4.2-6.2,8.2c0.1,3.8,2.7,7,6.4,7.6c1.7,0.3,3.5,0.3,5.2,0.3C138.4,230.6,177.9,230.6,217.5,230.6z M217.5,108.1
		c39.6,0,79.3,0,118.9,0c1.4,0,2.7,0.1,4.1-0.1c4-0.4,7-3.3,7.4-7.2c0.4-4.2-1.8-7.7-5.9-8.8c-1.7-0.4-3.4-0.4-5.2-0.4
		c-79.5,0-159.1,0-238.6,0c-1.2,0-2.5-0.1-3.7,0.1c-4.6,0.6-7.6,4.3-7.3,8.9c0.3,4.8,3.8,7.5,9.8,7.5
		C137.2,108.1,177.3,108.1,217.5,108.1z M217.8,152.9c-39.6,0-79.3,0-118.9,0c-1.4,0-2.7,0-4.1,0.1c-4,0.3-7.1,3.3-7.5,7.1
		c-0.4,4.2,1.8,7.8,5.8,8.8c1.8,0.5,3.7,0.5,5.5,0.5c79.3,0,158.6,0,237.9,0c1.4,0,2.8,0.1,4.1-0.1c4.7-0.6,7.6-4.2,7.3-8.8
		c-0.3-4.8-3.8-7.5-9.7-7.5C298.1,152.9,258,152.9,217.8,152.9z"/>
</g>
</svg>
