<?xml version="1.0" encoding="utf-8"?>
<!-- Generator: Adobe Illustrator 25.0.1, SVG Export Plug-In . SVG Version: 6.00 Build 0)  -->
<svg version="1.1" id="Layer_1" xmlns="http://www.w3.org/2000/svg" xmlns:xlink="http://www.w3.org/1999/xlink" x="0px" y="0px"
	 viewBox="0 0 16.2 16.2" style="enable-background:new 0 0 16.2 16.2;" xml:space="preserve">
<style type="text/css">
	.st0{fill:#FFFFFF;}
</style>
<path id="Pfad_375" class="st0" d="M8.1,14.1c-4.1,0-7.6-3.1-8-7.2c-0.1-1,0-2,0.2-3c0.1-0.3,0.2-0.5,0.5-0.6s0.5,0.1,0.6,0.4
	c1.2,2,3.3,3.4,5.6,3.7c3,0.6,6.1-0.6,7.9-3.1c0.2-0.2,0.3-0.6,0.7-0.5c0.4,0.1,0.4,0.4,0.5,0.8c0.7,4.4-2.2,8.6-6.6,9.3
	c-0.1,0-0.2,0-0.3,0C8.8,14.1,8.5,14.1,8.1,14.1z"/>
</svg>
