<?xml version="1.0" encoding="utf-8"?>
<!-- Generator: Adobe Illustrator 25.0.1, SVG Export Plug-In . SVG Version: 6.00 Build 0)  -->
<svg version="1.1" id="Layer_1" xmlns="http://www.w3.org/2000/svg" xmlns:xlink="http://www.w3.org/1999/xlink" x="0px" y="0px"
	 viewBox="0 0 643.8 518.7" style="enable-background:new 0 0 643.8 518.7;" xml:space="preserve">
<style type="text/css">
	.st0{fill:#FFFFFF;}
	.st1{stroke:#FFFFFF;stroke-miterlimit:10;}
	.st2{fill:none;stroke:#000000;stroke-width:11;stroke-linecap:round;stroke-miterlimit:10;}
	.st3{fill:none;stroke:#000000;stroke-width:20;stroke-linecap:round;stroke-linejoin:round;stroke-miterlimit:10;}
	.st4{fill:none;stroke:#000000;stroke-width:20;stroke-miterlimit:10;}
	.st5{fill:none;stroke:#000000;stroke-width:20;stroke-linecap:round;stroke-miterlimit:10;}
	.st6{stroke:#000000;stroke-width:20;stroke-linecap:round;stroke-miterlimit:10;}
	.st7{fill:none;stroke:#FFFFFF;stroke-width:10;stroke-miterlimit:10;}
	.st8{fill:none;stroke:#FFFFFF;stroke-width:10;stroke-linecap:round;stroke-miterlimit:10;}
	.st9{fill:none;stroke:#FFFFFF;stroke-width:10;stroke-linecap:round;stroke-linejoin:round;stroke-miterlimit:10;}
	.st10{fill:none;stroke:#FFFFFF;stroke-width:9;stroke-linecap:round;stroke-miterlimit:10;}
</style>
<g>
	<path d="M612.8,436c-2,9.7-4.9,19-11.4,26.9c-9.6,11.6-21.8,17.9-36.7,19c-2.4,0.2-4.9,0.2-7.3,0.2c-154.7,0-309.4,0-464.2,0.1
		c-18.1,0-33.3-5.8-44.6-20.4c-7.3-9.4-10.5-20.2-10.5-31.9C38,318,38,206.2,38.1,94.3c0-30.2,22-52.2,52.1-52.3
		c61.6-0.3,123.1-0.1,184.7-0.2c4.5,0,7.3,2,10,5.1c13.4,16.1,27,32,40.3,48.2c2.7,3.2,5.4,4.4,9.5,4.4
		c74.3-0.1,148.5-0.1,222.8-0.1c18.5,0,34.6,5.7,45.1,21.4c4.8,7.2,6.9,16.3,10.3,24.5C612.8,242.2,612.8,339.1,612.8,436z"/>
</g>
</svg>
