<?xml version="1.0" encoding="utf-8"?>
<!-- Generator: Adobe Illustrator 25.0.1, SVG Export Plug-In . SVG Version: 6.00 Build 0)  -->
<svg version="1.1" id="Layer_1" xmlns="http://www.w3.org/2000/svg" xmlns:xlink="http://www.w3.org/1999/xlink" x="0px" y="0px"
	 viewBox="0 0 341 318" style="enable-background:new 0 0 341 318;" xml:space="preserve">
<g>
	<path d="M27.8,109.7c0-8.5,0-16.7,0-25c0-17.8,0-35.5,0-53.3c0-11,6.5-17.5,17.4-17.5c84.2,0,168.4,0,252.6,0
		c10.9,0,17.4,6.6,17.4,17.5c0,25,0,50,0,75c0,1,0,2,0,3.2C219.5,109.7,123.9,109.7,27.8,109.7z"/>
	<path d="M27.8,206c96,0,191.5,0,287.5,0c0,1.2,0,2.4,0,3.6c0,24.9,0,49.8,0,74.6c0,11.2-6.5,17.7-17.6,17.7
		c-84.1,0-168.2,0-252.2,0c-11.1,0-17.6-6.5-17.6-17.7c0-24.8,0-49.5,0-74.3C27.8,208.8,27.8,207.6,27.8,206z"/>
	<path d="M12.1,158L12.1,158c0-8.7,7-15.7,15.7-15.7h287.4c8.7,0,15.7,7,15.7,15.7v0c0,8.7-7,15.7-15.7,15.7H27.8
		C19.2,173.7,12.1,166.6,12.1,158z"/>
</g>
</svg>
