<?xml version="1.0" encoding="utf-8"?>
<!-- Generator: Adobe Illustrator 25.0.1, SVG Export Plug-In . SVG Version: 6.00 Build 0)  -->
<svg version="1.1" id="Layer_1" xmlns="http://www.w3.org/2000/svg" xmlns:xlink="http://www.w3.org/1999/xlink" x="0px" y="0px"
	 viewBox="0 0 208 207" style="enable-background:new 0 0 208 207;" xml:space="preserve">
<g>
	<path d="M104,150.5c-26.3,0-47.5-21.4-47.5-47.7c0-26.2,21.3-47.4,47.5-47.4c26.3,0,47.7,21.5,47.5,47.7
		C151.3,129.3,130.1,150.5,104,150.5z"/>
	<path d="M148.7,61.6c-1.5-1.2-3.7-2.2-4.4-3.8c-0.7-1.7-0.8-4.6,0.3-5.8c5.6-6.5,11.6-12.7,17.7-18.7c2.2-2.2,5.2-1.8,7.4,0.4
		c2.4,2.3,3,5.3,0.8,7.7c-5.6,6.3-11.5,12.4-17.5,18.4C152.2,60.6,150.6,60.8,148.7,61.6z"/>
	<path d="M172.2,168.5c-1.2,1.5-2.2,3.9-3.9,4.6c-1.7,0.7-4.9,0.6-6.1-0.6c-6.1-5.8-11.9-12-17.5-18.3c-2.2-2.5-1.6-5.5,0.8-7.7
		c2.4-2.2,5.5-2.5,7.8-0.2c5.9,5.9,11.6,12,17.2,18.1C171.2,165.3,171.4,166.7,172.2,168.5z"/>
	<path d="M181.8,97c3.7,0,7.5-0.1,11.2,0c3.8,0.1,6.4,2.5,6.5,5.8c0.1,3.5-2.6,6.1-6.6,6.1c-7.5,0.1-14.9,0.1-22.4,0
		c-4,0-6.7-2.6-6.7-6c0-3.5,2.7-5.9,6.8-5.9C174.4,96.9,178.1,97,181.8,97z"/>
	<path d="M109.9,25.3c0,3.7,0.1,7.5,0,11.2c-0.1,3.9-2.5,6.4-5.8,6.4c-3.3,0-6-2.5-6-6.3c-0.1-7.7-0.2-15.5,0-23.2
		c0.1-3.8,2.8-6.3,6.1-6.2c3.4,0.1,5.7,2.6,5.8,6.5C109.9,17.5,109.9,21.4,109.9,25.3z"/>
	<path d="M26.3,97c3.7,0,7.5-0.1,11.2,0c3.9,0.1,6.3,2.4,6.4,5.8c0.1,3.6-2.4,6.1-6.5,6.1c-7.5,0.1-14.9,0.1-22.4,0
		c-4.1,0-6.6-2.4-6.6-6c0-3.6,2.5-5.9,6.7-5.9C18.9,96.9,22.6,97,26.3,97z"/>
	<path d="M109.9,181.1c0,3.7,0.1,7.5,0,11.2c-0.1,3.9-2.5,6.4-5.8,6.4c-3.3,0-6-2.5-6.1-6.3c-0.2-7.7-0.2-15.5,0-23.2
		c0.1-3.8,2.8-6.3,6.1-6.2c3.4,0.1,5.7,2.6,5.8,6.4C109.9,173.3,109.9,177.2,109.9,181.1z"/>
	<path d="M65,55.6c-1.3,1.6-2.4,3.9-4.1,4.6c-1.7,0.7-4.9,0.5-6.1-0.7c-6-5.7-11.7-11.8-17.3-18c-2.2-2.4-1.8-5.4,0.4-7.8
		c2.1-2.3,5.7-2.6,8.1-0.3c5.8,5.8,11.4,11.8,17,17.9C63.9,52.2,64.2,53.7,65,55.6z"/>
	<path d="M41.8,174.5c-1.5-1.1-3.8-2-4.5-3.6c-0.8-1.7-0.9-4.9,0.2-6.2c5.5-6.4,11.4-12.5,17.4-18.5c2.3-2.3,5.3-2,7.7,0.3
		c2.4,2.3,2.8,5.3,0.7,7.7c-5.6,6.3-11.6,12.3-17.5,18.4C45,173.5,43.6,173.7,41.8,174.5z"/>
</g>
</svg>
