<?xml version="1.0" encoding="utf-8"?>
<!-- Generator: Adobe Illustrator 25.0.1, SVG Export Plug-In . SVG Version: 6.00 Build 0)  -->
<svg version="1.1" id="Layer_1" xmlns="http://www.w3.org/2000/svg" xmlns:xlink="http://www.w3.org/1999/xlink" x="0px" y="0px"
	 viewBox="0 0 800 600" style="enable-background:new 0 0 800 600;" xml:space="preserve">
<g>
	<path d="M399.3,456c-47,0-94.1,0-141.1,0c-23,0-38.3-15.2-38.3-38.2c0-78.5,0-157.1,0-235.6c0-23.1,15.2-38.3,38.2-38.3
		c26.1,0,52.2,0,78.2,0c14.8,0,25.9,6.2,33.4,18.9c6.7,11.3,13.6,22.4,20.2,33.8c3,5.2,7.2,7.4,13.2,7.4
		c45.9-0.1,91.8-0.1,137.8-0.1c23.2,0,38.4,15.2,38.4,38.5c0,58.8,0,117.5,0,176.3c0,17.6-10.3,31.6-26.6,35.9
		c-3.7,1-7.6,1.3-11.5,1.3C493.9,456,446.6,456,399.3,456z"/>
	<path d="M540.9,179.9c-1.5,0-2.8,0-4,0c-41.8,0-83.5,0-125.3,0.1c-2.7,0-4.2-0.7-5.6-3.1c-3.8-6.8-8-13.5-12.3-20.6
		c1.3-0.1,2.2-0.3,3.1-0.3c36.8,0,73.5-0.1,110.3,0C522.6,155.9,536.3,165.7,540.9,179.9z"/>
</g>
</svg>
