<?xml version="1.0" encoding="utf-8"?>
<!-- Generator: Adobe Illustrator 25.0.1, SVG Export Plug-In . SVG Version: 6.00 Build 0)  -->
<svg version="1.1" id="Layer_1" xmlns="http://www.w3.org/2000/svg" xmlns:xlink="http://www.w3.org/1999/xlink" x="0px" y="0px"
	 viewBox="0 0 374 363" style="enable-background:new 0 0 374 363;" xml:space="preserve">
<g>
	<path d="M21.2,159c1.8-23.4,3.6-46.8,5.4-70.3c1.1-14.4,2.2-28.9,3.5-43.3c1.2-13.2,12-24,25.2-25.2c11.7-1.1,23.4-2,35-2.9
		c25.4-2,50.7-3.7,76.1-5.9c16.1-1.4,30.1,2.1,41.7,13.8c47.3,47.5,94.7,94.9,142.1,142.4c18.9,19,18.8,47-0.2,66
		c-35.7,35.8-71.4,71.6-107.2,107.4c-1.8,1.8-3.6,3.5-5.6,5c-18.3,13.7-43.2,11.7-59.7-4.8c-31.7-31.7-63.3-63.4-95-95.2
		c-15.8-15.8-31.6-31.7-47.4-47.5c-9.6-9.6-14.5-21-14.2-33.6C21,162.2,21.1,160.6,21.2,159z M119.3,137.3
		c15.4-0.1,27.7-12.5,27.7-27.9c0-15.6-12.5-28-28.1-27.9c-15.4,0.1-27.7,12.5-27.7,27.9C91.3,125,103.7,137.4,119.3,137.3z"/>
</g>
</svg>
