<?xml version="1.0" encoding="utf-8"?>
<!-- Generator: Adobe Illustrator 25.0.1, SVG Export Plug-In . SVG Version: 6.00 Build 0)  -->
<svg version="1.1" id="Layer_1" xmlns="http://www.w3.org/2000/svg" xmlns:xlink="http://www.w3.org/1999/xlink" x="0px" y="0px"
	 viewBox="0 0 512 512" style="enable-background:new 0 0 512 512;" xml:space="preserve">
<style type="text/css">
	.st0{fill:#FFFFFF;}
	.st1{fill:none;stroke:#000000;stroke-width:20;stroke-miterlimit:10;}
	.st2{fill:none;stroke:#000000;stroke-width:20;stroke-linecap:round;stroke-miterlimit:10;}
	.st3{fill:#565656;stroke:#000000;stroke-width:20;stroke-linecap:round;stroke-miterlimit:10;}
	.st4{fill:none;stroke:#000000;stroke-width:20;stroke-linecap:round;stroke-linejoin:round;stroke-miterlimit:10;}
</style>
<g>
	<ellipse class="st0" cx="-3139.5" cy="393.1" rx="387.5" ry="377.6"/>
	<path d="M-2856.5,117.2C-2932,41.6-3032.5,0-3139.3,0s-207.3,41.6-282.8,117.2c-75.6,75.5-117.2,176-117.2,282.8
		s41.6,207.3,117.2,282.8c75.6,75.5,176,117.2,282.8,117.2s207.3-41.6,282.8-117.2s117.2-176,117.2-282.8
		S-2780.9,192.7-2856.5,117.2z M-2947.3,89.4l-192,629l-192.5-628.7c57.3-35.6,123.4-54.7,192.5-54.7
		C-3070.4,35-3004.4,54-2947.3,89.4z"/>
	<polygon points="-3030.8,209.6 -3139.2,157.8 -3247.8,209.6 -3247.8,90.5 -3139.2,142.3 -3030.8,90.5 	"/>
	<circle cx="-3139.3" cy="294.1" r="21.9"/>
	<circle cx="-3139.3" cy="393.1" r="21.9"/>
	<circle cx="-3139.3" cy="492.1" r="21.9"/>
</g>
<path class="st1" d="M-2467.7,500h-154.6c-15.3,0-27.7-12.4-27.7-27.7V317.7c0-15.3,12.4-27.7,27.7-27.7h154.6
	c15.3,0,27.7,12.4,27.7,27.7v154.6C-2440,487.6-2452.4,500-2467.7,500z"/>
<path class="st1" d="M-2186,500h-154.6c-15.3,0-27.7-12.4-27.7-27.7V317.7c0-15.3,12.4-27.7,27.7-27.7h154.6
	c15.3,0,27.7,12.4,27.7,27.7v154.6C-2158.3,487.6-2170.7,500-2186,500z"/>
<path class="st1" d="M-2467.7,220h-154.6c-15.3,0-27.7-12.4-27.7-27.7V37.7c0-15.3,12.4-27.7,27.7-27.7h154.6
	c15.3,0,27.7,12.4,27.7,27.7v154.6C-2440,207.6-2452.4,220-2467.7,220z"/>
<path class="st1" d="M-2186,220h-154.6c-15.3,0-27.7-12.4-27.7-27.7V37.7c0-15.3,12.4-27.7,27.7-27.7h154.6
	c15.3,0,27.7,12.4,27.7,27.7v154.6C-2158.3,207.6-2170.7,220-2186,220z"/>
<path class="st2" d="M-1926.7,480h-144.6c-15.3,0-27.7-12.4-27.7-27.7V307.7"/>
<path class="st2" d="M-1647.3,307.7v144.6c0,15.3-12.4,27.7-27.7,27.7h-144.6"/>
<path class="st2" d="M-2099,202.3V57.7c0-15.3,12.4-27.7,27.7-27.7h144.6"/>
<path class="st2" d="M-1819.7,30h144.6c15.3,0,27.7,12.4,27.7,27.7v144.6"/>
<line class="st2" x1="-2040.4" y1="249.2" x2="-1703.6" y2="249.2"/>
<path class="st2" d="M-1095.7,431.7v23.4c0,24.8-20.1,44.9-44.9,44.9h-266.2c-24.8,0-44.9-20.1-44.9-44.9V127.7
	c0-24.8,20.1-44.9,44.9-44.9h266.2c24.8,0,44.9,20.1,44.9,44.9v234.5"/>
<path class="st2" d="M-1480.8,429.2h-58.5c-24.8,0-44.9-20.1-44.9-44.9V56.9c0-24.8,20.1-44.9,44.9-44.9h266.2
	c24.8,0,44.9,20.1,44.9,44.9"/>
<path class="st3" d="M-1380.9,173.4h218.1"/>
<path class="st3" d="M-1380.9,253.5h218.1"/>
<path class="st3" d="M-1380.9,333.6h218.1"/>
<path class="st3" d="M-1380.9,413.7h218.1"/>
<g>
	<path class="st1" d="M-960.9,122.1c1.2-13.8,11.3-24.7,25.1-25.9c21.5-1.9,106.8-7.1,127.9-8.9c18-1.5,33.1,3.7,45.9,16.5
		c58.9,59.1,117.8,118,176.8,176.9c10.5,10.5,18,22.5,19.9,37.5c0.1,0.6,0.7,10.8,0.7,15.4c-0.8,3.1-1.4,6.2-2.3,9.2
		c-2.9,10.7-8.6,19.7-16.4,27.5c-34.4,34.4-68.8,68.9-103.3,103.2c-25.5,25.3-62.6,25.3-88.1-0.1C-834.4,413.8-894,354-953.8,294.4
		c-12.3-12.3-17.3-27-15.9-44.3C-968.2,233.4-961.7,131-960.9,122.1z"/>
</g>
<path class="st2" d="M-879.7,174.3c-26.7,22.7-71.3,25.6-110.6,4.2c-48.4-26.3-70.4-79.2-49.3-118.2c21.2-39,77.5-49.4,125.9-23.1
	c6.8,3.7,13,7.9,18.7,12.5"/>
<line class="st2" x1="-316" y1="132.1" x2="-131.7" y2="132.1"/>
<line class="st2" x1="-316" y1="189.2" x2="-131.7" y2="189.2"/>
<line class="st2" x1="-316" y1="246.2" x2="-204.5" y2="246.2"/>
<path class="st4" d="M-76.7,306.4h-55l-87.2,89.1v-89.1H-361c-23.7,0-43-19.2-43-43v-147c0-23.7,19.2-43,43-43h284.2
	c23.7,0,43,19.2,43,43v147C-33.8,287.2-53,306.4-76.7,306.4z"/>
<path class="st4" d="M-403.9,270.2h-83.6c-14.8,0-26.9,12-26.9,26.9v92c0,14.8,12,26.9,26.9,26.9h34.4l54.5,55.7V416h88.9
	c14.8,0,26.9-12,26.9-26.9v-74.6"/>
<circle class="st1" cx="255.8" cy="175.1" r="62.2"/>
<path class="st2" d="M134.1,359c0-67.2,54.5-121.6,121.6-121.6S377.4,291.8,377.4,359"/>
<circle class="st1" cx="409.9" cy="222.1" r="47"/>
<path class="st2" d="M362.9,282c13.8-8.2,29.8-12.9,47-12.9c50.8,0,91.9,41.2,91.9,91.9"/>
<circle class="st1" cx="101.7" cy="223.2" r="47"/>
<path class="st2" d="M9.7,362.1c0-50.8,41.2-91.9,91.9-91.9c19,0,36.7,5.8,51.4,15.7"/>
</svg>
