<svg id="Layer_1" data-name="Layer 1" xmlns="http://www.w3.org/2000/svg" viewBox="0 0 512 512"><path d="M192.32,280H37.68A37.72,37.72,0,0,0,0,317.68V472.32A37.72,37.72,0,0,0,37.68,510H192.32A37.72,37.72,0,0,0,230,472.32V317.68A37.72,37.72,0,0,0,192.32,280ZM210,472.32A17.7,17.7,0,0,1,192.32,490H37.68A17.7,17.7,0,0,1,20,472.32V317.68A17.7,17.7,0,0,1,37.68,300H192.32A17.7,17.7,0,0,1,210,317.68Z"/><path d="M474,280H319.33a37.72,37.72,0,0,0-37.67,37.68V472.32A37.72,37.72,0,0,0,319.33,510H474a37.72,37.72,0,0,0,37.68-37.68V317.68A37.72,37.72,0,0,0,474,280Zm17.68,192.32A17.7,17.7,0,0,1,474,490H319.33a17.7,17.7,0,0,1-17.67-17.68V317.68A17.7,17.7,0,0,1,319.33,300H474a17.7,17.7,0,0,1,17.68,17.68Z"/><path d="M192.32,0H37.68A37.72,37.72,0,0,0,0,37.68V192.32A37.72,37.72,0,0,0,37.68,230H192.32A37.72,37.72,0,0,0,230,192.32V37.68A37.72,37.72,0,0,0,192.32,0ZM210,192.32A17.7,17.7,0,0,1,192.32,210H37.68A17.7,17.7,0,0,1,20,192.32V37.68A17.7,17.7,0,0,1,37.68,20H192.32A17.7,17.7,0,0,1,210,37.68Z"/><path d="M474,0H319.33a37.72,37.72,0,0,0-37.67,37.68V192.32A37.72,37.72,0,0,0,319.33,230H474a37.72,37.72,0,0,0,37.68-37.68V37.68A37.72,37.72,0,0,0,474,0Zm17.68,192.32A17.7,17.7,0,0,1,474,210H319.33a17.7,17.7,0,0,1-17.67-17.68V37.68A17.7,17.7,0,0,1,319.33,20H474a17.7,17.7,0,0,1,17.68,17.68Z"/></svg>