<?xml version="1.0" encoding="utf-8"?>
<!-- Generator: Adobe Illustrator 25.0.1, SVG Export Plug-In . SVG Version: 6.00 Build 0)  -->
<svg version="1.1" id="Layer_1" xmlns="http://www.w3.org/2000/svg" xmlns:xlink="http://www.w3.org/1999/xlink" x="0px" y="0px"
	 viewBox="0 0 512 512" style="enable-background:new 0 0 512 512;" xml:space="preserve">
<style type="text/css">
	.st0{fill:#FFFFFF;}
	.st1{fill:none;stroke:#000000;stroke-width:20;stroke-miterlimit:10;}
	.st2{fill:none;stroke:#000000;stroke-width:20;stroke-linecap:round;stroke-miterlimit:10;}
	.st3{fill:#565656;stroke:#000000;stroke-width:20;stroke-linecap:round;stroke-miterlimit:10;}
	.st4{fill:none;stroke:#000000;stroke-width:20;stroke-linecap:round;stroke-linejoin:round;stroke-miterlimit:10;}
</style>
<path class="st1" d="M192.3,500H37.7C22.4,500,10,487.6,10,472.3V317.7c0-15.3,12.4-27.7,27.7-27.7h154.6
	c15.3,0,27.7,12.4,27.7,27.7v154.6C220,487.6,207.6,500,192.3,500z"/>
<path class="st1" d="M474,500H319.3c-15.3,0-27.7-12.4-27.7-27.7V317.7c0-15.3,12.4-27.7,27.7-27.7H474c15.3,0,27.7,12.4,27.7,27.7
	v154.6C501.7,487.6,489.3,500,474,500z"/>
<path class="st1" d="M192.3,220H37.7C22.4,220,10,207.6,10,192.3V37.7C10,22.4,22.4,10,37.7,10h154.6c15.3,0,27.7,12.4,27.7,27.7
	v154.6C220,207.6,207.6,220,192.3,220z"/>
<path class="st1" d="M474,220H319.3c-15.3,0-27.7-12.4-27.7-27.7V37.7c0-15.3,12.4-27.7,27.7-27.7H474c15.3,0,27.7,12.4,27.7,27.7
	v154.6C501.7,207.6,489.3,220,474,220z"/>
</svg>
