<?xml version="1.0" encoding="utf-8"?>
<!-- Generator: Adobe Illustrator 25.0.1, SVG Export Plug-In . SVG Version: 6.00 Build 0)  -->
<svg version="1.1" id="Layer_1" xmlns="http://www.w3.org/2000/svg" xmlns:xlink="http://www.w3.org/1999/xlink" x="0px" y="0px"
	 viewBox="0 0 512 512" style="enable-background:new 0 0 512 512;" xml:space="preserve">
<style type="text/css">
	.st0{fill:#FFFFFF;}
	.st1{fill:none;stroke:#000000;stroke-width:20;stroke-miterlimit:10;}
	.st2{fill:none;stroke:#000000;stroke-width:20;stroke-linecap:round;stroke-miterlimit:10;}
	.st3{fill:#565656;stroke:#000000;stroke-width:20;stroke-linecap:round;stroke-miterlimit:10;}
	.st4{fill:none;stroke:#000000;stroke-width:20;stroke-linecap:round;stroke-linejoin:round;stroke-miterlimit:10;}
</style>
<path class="st2" d="M500.3,431.7v23.4c0,24.8-20.1,44.9-44.9,44.9H189.2c-24.8,0-44.9-20.1-44.9-44.9V127.7
	c0-24.8,20.1-44.9,44.9-44.9h266.2c24.8,0,44.9,20.1,44.9,44.9v234.5"/>
<path class="st2" d="M115.2,429.2H56.7c-24.8,0-44.9-20.1-44.9-44.9V56.9C11.8,32.1,31.9,12,56.7,12h266.2
	c24.8,0,44.9,20.1,44.9,44.9"/>
<path class="st3" d="M215.1,173.4h218.1"/>
<path class="st3" d="M215.1,253.5h218.1"/>
<path class="st3" d="M215.1,333.6h218.1"/>
<path class="st3" d="M215.1,413.7h218.1"/>
</svg>
