<?xml version="1.0" encoding="utf-8"?>
<!-- Generator: Adobe Illustrator 25.0.1, SVG Export Plug-In . SVG Version: 6.00 Build 0)  -->
<svg version="1.1" id="Layer_1" xmlns="http://www.w3.org/2000/svg" xmlns:xlink="http://www.w3.org/1999/xlink" x="0px" y="0px"
	 viewBox="0 0 520 559.1" style="enable-background:new 0 0 520 559.1;" xml:space="preserve">
<style type="text/css">
	.st0{fill:#FFFFFF;}
	.st1{fill:none;stroke:#000000;stroke-width:20;stroke-linecap:round;stroke-linejoin:round;stroke-miterlimit:10;}
	.st2{fill:none;stroke:#000000;stroke-width:20;stroke-miterlimit:10;}
	.st3{fill:none;stroke:#000000;stroke-width:20;stroke-linecap:round;stroke-miterlimit:10;}
	.st4{stroke:#000000;stroke-width:20;stroke-linecap:round;stroke-miterlimit:10;}
</style>
<g>
	<path d="M270.7,524.4C270.7,524.4,270.7,524.4,270.7,524.4c-3.5,0-6.6-1.6-8.7-4.3c-23.6-30.9-141.9-186-156.2-203.8
		c-5.9-7.4-6.5-15.8-1.5-22.4c5.1-6.8,12.7-6.9,15.7-6.9c0.1,0,0.1,0,0.2,0c19.5,0,39,0,58.5,0l17,0c0-18.5,0-136.8,0-198.1
		c0-29,25.7-29.3,34.1-29.4c25.2-0.2,51.3-0.3,79.9-0.1c11.2,0.1,19,2.2,24.6,6.7c6.2,5,9.3,12.6,9.3,23.2l0,14.6
		c0,4.1-3.4,7.5-7.5,7.5s-7.5-3.4-7.5-7.5l0-14.6c0-10.2-2.7-14.8-19-14.9c-28.5-0.2-54.5-0.1-79.7,0.1
		c-16.4,0.1-19.2,4.7-19.2,14.4c0,66.6,0,200.5,0,200.5c0,6.9-5.6,12.6-12.6,12.6l-19.5,0c-19.5,0-39,0-58.5,0c0,0,0,0,0,0
		c-3.2,0-3.6,0.5-3.9,0.9c-0.4,0.5-1,1.3,1.2,4c13.8,17.3,123.6,161.2,153.2,199.9c21.1-27.6,44.4-58.8,67.1-89
		c28.6-38.2,58.2-77.6,83.8-110.8c0,0,0.1-0.1,0.1-0.1c2.1-2.6,1.7-3.2,1.3-3.8c-0.3-0.5-0.6-1-3.9-1c0,0,0,0,0,0
		c-25.8,0-77.9,0-77.9,0c-6.9,0-12.6-5.6-12.6-12.6V147c0-4.1,3.4-7.5,7.5-7.5c4.1,0,7.5,3.4,7.5,7.5v140c10.6,0,53,0,75.5,0
		c0,0,0.1,0,0.1,0c3,0,11.6,0.1,16.6,8.2c2.9,4.7,4.8,12.1-2.3,21c-25.6,33.1-55.1,72.5-83.7,110.6c-23.8,31.8-48.5,64.6-70.4,93.3
		C277.3,522.8,274.1,524.4,270.7,524.4z"/>
</g>
</svg>
