<svg id="Layer_1" data-name="Layer 1" xmlns="http://www.w3.org/2000/svg" viewBox="0 0 512 512"><defs><style>.cls-1{fill:#565656;}</style></defs><path class="cls-1" d="M217.29,479.91a17.84,17.84,0,0,1-17.81-17.81V290a4.91,4.91,0,0,0-1.1-3.09L8.24,55.7A34,34,0,0,1,3.47,20.06,33.11,33.11,0,0,1,32.34.24c.57,0,1.16,0,1.74,0H478.14c.59,0,1.17,0,1.74,0a33.11,33.11,0,0,1,28.87,19.82A34,34,0,0,1,504,55.7L313.45,287.33a3.2,3.2,0,0,0-.71,2V405.48a18.53,18.53,0,0,1-7.63,14.95l-77.39,56.08A17.78,17.78,0,0,1,217.29,479.91ZM34.08,15.2l-1,0A18,18,0,0,0,17.17,26.16a19.11,19.11,0,0,0,2.65,20L210,277.33A19.91,19.91,0,0,1,214.48,290V462.1a2.8,2.8,0,0,0,4.44,2.27l77.38-56.08a3.48,3.48,0,0,0,1.44-2.81V289.34a18.18,18.18,0,0,1,4.13-11.54L492.4,46.17a19.11,19.11,0,0,0,2.65-20A18,18,0,0,0,479.2,15.22l-1.06,0Z"/><path class="cls-1" d="M296.69,109.33H60.14a7.5,7.5,0,0,1,0-15H296.69a7.5,7.5,0,0,1,0,15Z"/><path class="cls-1" d="M366.62,109.33H339.26a7.5,7.5,0,0,1,0-15h27.36a7.5,7.5,0,0,1,0,15Z"/></svg>