<svg id="Layer_1" data-name="Layer 1" xmlns="http://www.w3.org/2000/svg" viewBox="0 0 512 512"><path d="M446.36,265.87a57,57,0,1,0-73,0,101.39,101.39,0,0,0-15.63,7.57,10.28,10.28,0,0,0-1.24.89,132.11,132.11,0,0,0-59.14-40.26,72.2,72.2,0,1,0-83.23,0,132.14,132.14,0,0,0-59.64,40.87,101.26,101.26,0,0,0-16.36-8,57,57,0,1,0-73,0A102.08,102.08,0,0,0-.27,362.07a10,10,0,0,0,20,0,81.93,81.93,0,0,1,123.16-70.79A130.86,130.86,0,0,0,124.12,359a10,10,0,0,0,20,0,111.65,111.65,0,1,1,223.29,0,10,10,0,0,0,20,0,130.91,130.91,0,0,0-19.23-68.45A81.93,81.93,0,0,1,491.8,361a10,10,0,0,0,20,0A102.06,102.06,0,0,0,446.36,265.87ZM64.65,223.15a37,37,0,1,1,37,37A37,37,0,0,1,64.65,223.15Zm138.92-48a52.2,52.2,0,1,1,52.2,52.19A52.26,52.26,0,0,1,203.57,175.12Zm169.32,47a37,37,0,1,1,37,37A37,37,0,0,1,372.89,222.11Z"/></svg>