<?xml version="1.0" encoding="utf-8"?>
<!-- Generator: Adobe Illustrator 25.0.1, SVG Export Plug-In . SVG Version: 6.00 Build 0)  -->
<svg version="1.1" id="Layer_1" xmlns="http://www.w3.org/2000/svg" xmlns:xlink="http://www.w3.org/1999/xlink" x="0px" y="0px"
	 viewBox="0 0 335.4 350.5" style="enable-background:new 0 0 335.4 350.5;" xml:space="preserve">
<style type="text/css">
	.st0{fill:#FFFFFF;}
	.st1{fill:none;stroke:#000000;stroke-width:20;stroke-linecap:round;stroke-linejoin:round;stroke-miterlimit:10;}
	.st2{fill:none;stroke:#000000;stroke-width:20;stroke-miterlimit:10;}
	.st3{fill:none;stroke:#000000;stroke-width:20;stroke-linecap:round;stroke-miterlimit:10;}
	.st4{stroke:#000000;stroke-width:20;stroke-linecap:round;stroke-miterlimit:10;}
</style>
<g>
	<path d="M168.7,336.2C106.4,333.6,59,308.1,25.7,257c-1.7-2.7-2.9-5.4-0.9-8.3c2.2-3.2,5.3-2.7,8.4-1.9
		c85.3,21.2,169.5-29.7,190.1-115.2c9.6-39.9,3.6-77.8-16.4-113.6c-1.8-3.2-4.6-6.4-1.7-10.3c3.1-4,7-2.1,10.6-0.9
		C281.1,28.7,321.4,73.3,333,141.3c15.5,90.6-45.8,175.8-136.4,191.9C186.8,334.9,176.8,335.3,168.7,336.2z M44.1,261.9
		c29.6,42.4,94.3,75.2,164.1,56.5c70.4-18.8,118.9-85.3,115-158.3c-1.9-36.4-15-68.5-39.1-95.9c-16.7-19-37-33-61.1-42.3
		c26.3,61.8,22.8,120.7-17.4,174.4C165.5,250,110,269.8,44.1,261.9z"/>
	<path d="M76.9,124.8c0,4.2-0.2,8.5,0.1,12.7c0.1,1.5,1,3.4,2.1,4.2c6.4,4.9,13.1,9.6,19.7,14.3c2.3,1.7,4.3,3.6,3.8,6.8
		c-0.5,3.4-3,4.6-5.9,5.5c-7.5,2.2-15,4.6-22.6,6.7c-2.4,0.7-3.7,1.8-4.4,4.3c-2.2,7.5-4.8,15-7.2,22.5c-0.9,2.9-2.1,5.4-5.5,5.8
		c-3.4,0.4-5.2-1.6-6.9-4.1c-4.4-6.5-9-12.9-13.3-19.5c-1.3-2-2.8-2.8-5.2-2.7c-8.1,0.2-16.2,0.1-24.3,0.1c-2.8,0-5.2-0.6-6.5-3.4
		c-1.4-2.8-0.3-5,1.4-7.3c5-6.5,10.1-13,14.9-19.7c0.9-1.2,1.3-3.5,0.8-5c-2.3-7.8-4.9-15.5-7.5-23.1c-0.9-2.8-1.3-5.4,1-7.7
		c2.3-2.2,4.9-2,7.6-1c7.6,2.7,15.3,5.3,22.9,8.1c2.1,0.8,3.6,0.5,5.4-0.9c6.4-4.9,13.1-9.6,19.6-14.5c2.3-1.7,4.6-2.6,7.3-1.3
		c2.9,1.4,3.4,4,3.3,6.9c-0.1,4,0,8,0,12C77.2,124.8,77,124.8,76.9,124.8z M24.9,129.2c1.4,4.3,2.5,7.8,3.6,11.2
		c3.8,12.1,4.7,9.1-3.3,19.7c-2.2,2.9-4.4,5.8-6.9,9.2c4.4,0,7.9,0,11.4,0c13.2,0.1,10.5-1.1,18,9.5c2.1,3,4.1,6,6.6,9.4
		c2-6.2,3.9-11.5,5.4-16.9c1-3.7,3.2-5.6,6.8-6.6c5.4-1.5,10.8-3.2,16.9-5c-4.1-3-7.4-5.9-11.2-8c-6-3.3-8.3-7.9-7.3-14.8
		c0.6-4.2,0.1-8.6,0.1-13.5c-4.9,3.6-9.6,6.8-14.1,10.3c-2.8,2.2-5.6,2.7-9,1.4C36.5,133.2,31.1,131.4,24.9,129.2z"/>
	<path d="M85.8,73.2c1-5.6,2-11.8,3.2-17.9c0.5-2.6,0-4.4-2-6.3c-4.3-3.8-8.2-8-12.4-12c-2-1.9-3.3-4.1-2.3-7c1-2.8,3.1-3.9,6-4.3
		c5.8-0.7,11.6-1.8,17.4-2.5c2.6-0.3,3.8-1.5,4.9-3.8c2.3-5.1,5-10.1,7.4-15.1c1.3-2.7,3.2-4.6,6.3-4.5c2.9,0.1,4.7,1.8,5.9,4.4
		c2.5,5.2,5.1,10.3,7.5,15.5c0.9,2,2,3.1,4.3,3.3c6.1,0.7,12.1,1.5,18.1,2.8c2.1,0.5,4.8,2.3,5.4,4.1c0.6,1.8-0.5,4.9-1.9,6.6
		c-4,4.6-8.7,8.6-12.9,13c-1,1.1-1.7,3.2-1.5,4.8c0.7,5.9,1.9,11.8,3,17.7c0.5,2.8,0.1,5.3-2.3,7c-2.3,1.7-4.6,1.4-7,0.1
		c-5.4-2.9-10.8-5.6-16.2-8.6c-1.8-1-3.3-1-5.1,0c-5.4,3-11,5.9-16.5,8.7C90,81.9,85.4,78.9,85.8,73.2z M128.2,63.3
		c-0.7-4.2-1-7.7-1.8-11.2c-0.8-3.3,0.2-5.8,2.7-8c2.6-2.4,5-4.9,8.1-7.9c-4.1-0.6-7.1-1.2-10.2-1.4c-4.2-0.3-6.9-2.3-8.5-6.2
		c-1.2-2.9-2.8-5.7-4.5-9.1c-1.9,3.9-3.6,7-5.1,10.3c-1.3,2.9-3.3,4.5-6.5,4.8c-3.6,0.4-7.2,1.1-11.1,1.7c2.9,3,5.2,5.6,7.7,7.9
		c2.6,2.4,3.3,5.1,2.6,8.4c-0.7,3.4-1.2,6.8-1.9,10.8c3.2-1.7,6.1-2.8,8.6-4.5c3.9-2.6,7.6-2.4,11.4,0.1
		C122.3,60.5,125,61.7,128.2,63.3z"/>
	<path d="M193,154.9c0,4.4-3.5,7.3-7.4,6.4c-4.7-1.1-9.4-2.3-14.1-3.8c-2.9-0.9-4.8-0.3-7,1.7c-3.3,3.1-6.8,5.9-10.2,8.8
		c-2,1.7-4.6,3-6.8,1.3c-1.7-1.4-3.3-3.8-3.6-5.9c-0.7-4.9-0.5-10-1-14.9c-0.1-1.3-1.1-3-2.2-3.8c-4.1-2.8-8.6-5-12.6-8
		c-1.7-1.3-3.5-4.1-3.3-6c0.2-1.9,2.4-4.3,4.4-5.3c4.3-2.2,9.1-3.5,13.5-5.5c1.4-0.6,2.9-2.3,3.3-3.8c1.5-4.8,2.2-9.8,3.8-14.4
		c0.7-1.9,2.7-4.3,4.5-4.7c1.8-0.4,4.7,0.8,6.1,2.2c3.4,3.4,6.4,7.3,9.2,11.3c1.5,2.1,3.2,2.7,5.7,2.4c4.4-0.5,8.9-1.2,13.4-1.1
		c2.3,0.1,5.1,1.1,6.7,2.7c2,2,1.1,4.9-0.4,7.2c-2.7,4.1-5.4,8.1-7.8,12.3c-0.7,1.3-0.9,3.3-0.4,4.7c1.6,4.5,3.5,8.8,5.3,13.2
		C192.5,153,192.8,154.2,193,154.9z M154.6,151.4c4-2.8,6.8-6.1,10.1-6.8c3.6-0.8,7.7,0.8,12.3,1.4c-5.6-7.5-4.7-14.5,2.1-21.3
		c-5,0-9.1,1-12.3-0.3c-3.3-1.3-5.6-4.8-8.8-7.8c0.3,9.2-4.9,14-13.8,15.9C152.9,135.9,156.8,141.5,154.6,151.4z"/>
</g>
</svg>
