<?xml version="1.0" encoding="utf-8"?>
<!-- Generator: Adobe Illustrator 25.0.1, SVG Export Plug-In . SVG Version: 6.00 Build 0)  -->
<svg version="1.1" id="Layer_1" xmlns="http://www.w3.org/2000/svg" xmlns:xlink="http://www.w3.org/1999/xlink" x="0px" y="0px"
	 viewBox="0 0 426.1 422.2" style="enable-background:new 0 0 426.1 422.2;" xml:space="preserve">
<style type="text/css">
	.st0{fill:#FFFFFF;}
	.st1{fill:none;stroke:#000000;stroke-width:20;stroke-linecap:round;stroke-linejoin:round;stroke-miterlimit:10;}
	.st2{fill:none;stroke:#000000;stroke-width:20;stroke-miterlimit:10;}
	.st3{fill:none;stroke:#000000;stroke-width:20;stroke-linecap:round;stroke-miterlimit:10;}
	.st4{stroke:#000000;stroke-width:20;stroke-linecap:round;stroke-miterlimit:10;}
</style>
<g>
	<path d="M306.6,60.5c2.1,0.1,4.2,0.2,6.2,0.4c13.6,1.7,23.3,8.9,28.1,21.6c4.7,12.5,2.4,24.3-6.5,34.2
		c-14.1,15.8-28.6,31.3-42.9,46.9c-6.2,6.8-12.4,13.6-18.8,20.6c3.2,2.9,6.2,5.7,9.2,8.5c8.4,8,9.1,20.1,1.6,28.2
		c-7.5,8.2-19.4,8.5-28.2,0.8c-4-3.5-7.9-7.2-12-11c-9.2,10-18.2,19.8-27.2,29.6c-31.2,34-62.4,68-93.5,102
		c-5.4,5.9-11.6,7.9-19.2,5.2c-3-1.1-5.2-0.4-7.3,2c-6.1,6.9-12.4,13.7-18.7,20.4c-6.4,6.8-15.3,7.3-21.9,1.2
		c-6.6-6.1-6.8-15-0.5-21.9c6.2-6.8,12.4-13.7,18.7-20.4c2.2-2.3,2.6-4.7,1.3-7.5c-3.5-7.4-1.8-13.7,3.6-19.5
		c39.2-42.7,78.4-85.4,117.6-128.2c1-1.1,2-2.2,3.1-3.5c-3.9-3.6-7.7-7.1-11.4-10.5c-8.9-8.3-9.8-20.4-2.1-28.7
		c7.7-8.3,19.7-8.4,28.7-0.3c2.9,2.6,5.7,5.2,8.7,8c9.2-10,18.2-19.8,27.2-29.6c11-11.9,21.7-24.1,33-35.7c4-4.1,9.1-7.1,13.7-10.7
		C300.3,62.1,303.5,61.3,306.6,60.5z M235.6,203.7c-9.7-8.9-19.1-17.5-28.4-26.2c-0.6,0.5-0.9,0.8-1.3,1.2
		c-40.1,43.7-80.2,87.4-120.4,131.1c-2.2,2.4-2.4,4.8-1.1,7.5c3.3,6.9,2.1,13-3,18.6c-6.2,6.7-12.3,13.4-18.5,20.1
		c-2.7,3-2.8,5.5-0.2,7.7c2.4,2.1,4.8,1.8,7.4-1.1c6.4-7,12.8-14,19.2-20.9c4.4-4.8,9.9-6.4,16-4.3c4.5,1.6,7.3,0.5,10.5-2.9
		c39-42.7,78.2-85.3,117.3-127.9C233.8,205.8,234.6,204.9,235.6,203.7z M265,177.3c20.9-22.9,41.6-45.3,62.2-67.9
		c1.8-2,3.2-4.5,4.1-7c3.9-10.2-0.1-21.7-9.2-27.6c-9.5-6-21.7-4.5-29.6,4.1c-15.8,17-31.4,34.2-47,51.2
		c-4.8,5.2-9.5,10.4-14.5,15.8C242.4,156.4,253.6,166.7,265,177.3z M197.9,135.6c-3.4,0.9-5.6,3.1-6.5,6.5c-1,3.7,0.2,6.9,2.9,9.5
		c22.6,20.9,45.3,41.7,68,62.6c4.3,3.9,9.8,3.8,13.4,0c3.7-3.9,3.5-9.6-0.8-13.6c-22.6-20.9-45.3-41.7-67.9-62.6
		C204.4,135.6,201.4,134.6,197.9,135.6z"/>
</g>
</svg>
