<?xml version="1.0" encoding="utf-8"?>
<!-- Generator: Adobe Illustrator 25.0.1, SVG Export Plug-In . SVG Version: 6.00 Build 0)  -->
<svg version="1.1" id="Layer_1" xmlns="http://www.w3.org/2000/svg" xmlns:xlink="http://www.w3.org/1999/xlink" x="0px" y="0px"
	 viewBox="0 0 338.8 331.1" style="enable-background:new 0 0 338.8 331.1;" xml:space="preserve">
<style type="text/css">
	.st0{}
	.st1{stroke-width:20;stroke-linecap:round;stroke-linejoin:round;stroke-miterlimit:10;}
	.st2{stroke-width:20;stroke-miterlimit:10;}
	.st3{stroke-width:20;stroke-linecap:round;stroke-miterlimit:10;}
	.st4{stroke-width:20;stroke-linecap:round;stroke-miterlimit:10;}
</style>
<g>
	<path d="M172.9,12.5c2.9,1.2,4.6,3.3,4.5,6.7c-0.1,10.5,0,20.9,0,31.4c0,4.6-3.2,7.3-7.1,6.2c-2.8-0.7-4.2-2.6-4.2-5.4
		c-0.1-11.1-0.2-22.2,0.1-33.3c0.1-1.9,2.4-3.7,3.7-5.6C170.8,12.5,171.9,12.5,172.9,12.5z"/>
	<path d="M257,171.8c0.1,46.9-38.1,85.3-85.2,85.4c-46.9,0.1-85.3-38.2-85.4-85.2c-0.1-46.9,38.2-85.3,85.2-85.4
		C218.6,86.5,256.9,124.7,257,171.8z M171.6,245.7c40.4,0.2,73.3-32.6,73.7-73.5c0.4-40.5-32.8-73.8-73.6-73.9
		c-40.7-0.1-73.5,32.5-73.7,73.4C97.8,212.3,130.8,245.5,171.6,245.7z"/>
	<path d="M233.4,73.2c-5.1,0-7.8-3.6-6.7-7.3c0.3-1,0.8-1.9,1.3-2.8c4.9-8.4,9.7-16.9,14.6-25.3c0.3-0.5,0.6-1.1,1-1.6
		c2-2.6,5.1-3.4,7.7-1.9c2.6,1.5,3.6,4.6,2.1,7.6c-1.5,3.1-3.3,6-5,8.9c-3.6,6.2-7,12.5-10.8,18.5C236.4,71.2,234.3,72.4,233.4,73.2
		z"/>
	<path d="M166,308.7c0-5.3,0-10.6,0-15.8c0-4.1,2.2-6.6,5.8-6.6c3.4,0,5.6,2.3,5.7,6.4c0.1,10.8,0.1,21.5,0,32.3
		c0,3.7-2.4,6.1-5.6,6.2c-3.3,0.1-5.7-2.4-5.8-6.3C165.9,319.4,166,314.1,166,308.7C166,308.7,166,308.7,166,308.7z"/>
	<path d="M95.7,33c1.6,1.3,3.7,2.3,4.7,4c5.4,8.9,10.6,18,15.7,27.1c1.9,3.4,1,6.8-1.8,8.4c-2.9,1.6-6.2,0.6-8.2-2.7
		c-5.2-8.9-10.4-17.9-15.5-26.9C88,38.3,90.5,33.6,95.7,33z"/>
	<path d="M73,110.6c0.1,4.8-3.4,7.5-7.2,6.4c-1.2-0.3-2.3-1-3.3-1.6c-8.1-4.6-16.1-9.3-24.2-14c-0.9-0.5-1.8-1.1-2.6-1.7
		c-2.3-1.9-2.9-4.8-1.5-7.2c1.5-2.6,4.3-3.6,7.2-2.3c2.1,0.9,4,2.1,6,3.2c7.2,4.1,14.3,8.3,21.5,12.4C71.1,107.2,73,108.7,73,110.6z
		"/>
	<path d="M275.5,118c-1.6-1.4-3.6-2.5-4.7-4.2c-1.2-2.1-0.6-4.4,1.3-6.2c0.4-0.4,0.9-0.8,1.5-1.1c9-5.2,18.1-10.5,27.2-15.7
		c3.5-2,6.7-1.2,8.4,1.8c1.7,2.9,0.7,6.2-2.6,8.2c-9,5.3-18.1,10.5-27.2,15.7c-1,0.5-2.1,0.7-3.2,1.1
		C276,117.6,275.8,117.8,275.5,118z"/>
	<path d="M93.9,310.1c-2.5,0-5.2-3.5-4.2-7.2c0.2-0.9,0.7-1.7,1.1-2.5c5-8.6,9.9-17.2,14.9-25.8c2.2-3.8,5.4-5,8.5-3.3
		c3.2,1.8,3.7,5.2,1.5,9.2c-4.9,8.5-9.8,17-14.7,25.5C99.6,308.2,98.1,310.1,93.9,310.1z"/>
	<path d="M232.4,269.9c1.5,1.2,3.6,2.1,4.5,3.7c5.5,9.1,10.8,18.4,16.1,27.7c1.8,3.2,0.9,6.5-2,8.1c-2.8,1.6-6.1,0.8-8-2.4
		c-5.4-9.2-10.8-18.4-16-27.7C224.8,275,227.5,270.5,232.4,269.9z"/>
	<path d="M73,233.3c-0.7,0.8-1.6,2.9-3.3,3.9c-9,5.5-18.2,10.7-27.4,15.9c-3.2,1.8-6.5,0.9-8.2-1.8c-1.7-2.7-0.9-6.1,2.3-8
		c9.2-5.4,18.4-10.8,27.7-16C68.4,225,73,227.6,73,233.3z"/>
	<path d="M309.9,247c0,5.2-3.5,7.9-7.2,6.8c-1.2-0.3-2.3-1-3.3-1.6c-8.3-4.8-16.7-9.6-25-14.4c-3.8-2.2-4.9-5.5-3.2-8.5
		c1.7-3,5.1-3.7,8.9-1.5c8.7,5,17.5,9.9,26,15.1C307.9,244,309.1,246.2,309.9,247z"/>
	<path d="M35.5,166.1c5.1,0,10.1,0,15.2,0c4.1,0,6.6,2.3,6.6,5.8c0,3.4-2.3,5.6-6.4,5.6c-10.4,0.1-20.9,0.1-31.3,0
		c-3.9,0-6.3-2.4-6.3-5.8c0.1-3.4,2.5-5.6,6.4-5.7C25,166.1,30.3,166.1,35.5,166.1z"/>
	<path d="M307.8,177.6c-5.1,0-10.1,0-15.2,0c-4.1,0-6.6-2.2-6.6-5.8c0-3.4,2.3-5.6,6.4-5.7c10.4-0.1,20.9-0.1,31.3,0
		c3.9,0,6.4,2.4,6.3,5.7c-0.1,3.4-2.5,5.6-6.4,5.7C318.4,177.6,313.1,177.6,307.8,177.6z"/>
	<path d="M120.2,168.9c1.1-25.9,22.1-47.1,49.4-48.5c5.1-0.3,8,1.6,8.2,5.4c0.2,3.8-2.5,6-7.6,6.2c-16.9,0.8-31,11.1-36.3,27
		c-1.2,3.6-1.3,7.5-2.2,11.2c-0.5,2-0.8,4.6-2.2,5.8c-1.3,1.1-4.1,1.5-5.9,1C120.5,176,120,173,120.2,168.9z"/>
</g>
</svg>
