<svg id="Layer_1" data-name="Layer 1" xmlns="http://www.w3.org/2000/svg" viewBox="0 0 512 512"><path d="M400.3,122.1H216a10,10,0,0,0,0,20H400.3a10,10,0,0,0,0-20Z"/><path d="M400.3,179.16H216a10,10,0,0,0,0,20H400.3a10,10,0,0,0,0-20Z"/><path d="M327.53,236.21H216a10,10,0,0,0,0,20H327.53a10,10,0,1,0,0-20Z"/><path d="M455.27,63.48H171a53,53,0,0,0-53,53v143.8H44.5A36.92,36.92,0,0,0,7.62,297.13v91.95A36.92,36.92,0,0,0,44.5,426H74.68l51.58,52.74a10,10,0,0,0,17.15-7V426h78.91a36.92,36.92,0,0,0,36.89-36.88V316.4h43.94v79.1a10,10,0,0,0,17.15,7l84.21-86.09h50.76a53,53,0,0,0,53-53v-147A53,53,0,0,0,455.27,63.48ZM239.21,389.08A16.9,16.9,0,0,1,222.32,406H133.41a10,10,0,0,0-10,10v31.23L86,409a10,10,0,0,0-7.14-3H44.5a16.9,16.9,0,0,1-16.88-16.88V297.13A16.9,16.9,0,0,1,44.5,280.25h76.32A53,53,0,0,0,171,316.4h68.18Zm249-125.66a33,33,0,0,1-33,33h-55a10,10,0,0,0-7.14,3l-70,71.57V306.4a10,10,0,0,0-10-10H171a33,33,0,0,1-33-33v-147a33,33,0,0,1,33-33H455.27a33,33,0,0,1,33,33Z"/></svg>