<svg id="Layer_1" data-name="Layer 1" xmlns="http://www.w3.org/2000/svg" viewBox="0 0 512 512"><path d="M486,273.69c-65.5-65.36-123.34-123.21-176.81-176.87-14.61-14.66-32.73-21.2-53.81-19.42-10.1.84-34.81,2.48-61,4.21-27.4,1.81-55.74,3.68-66.95,4.65-18.54,1.59-32.63,16-34.25,35h0c-.33,3.87-1.69,24.3-3.25,48q-.2,2.85-.39,5.76a109.92,109.92,0,0,1-11.06-5.22C35,146.14,14.69,99.21,33.19,65.11S102.1,22.45,145.56,46a112.63,112.63,0,0,1,17.22,11.48A10,10,0,1,0,175.37,42,133.89,133.89,0,0,0,155.1,28.45C102-.39,39.38,11.78,15.61,55.57s.15,102.89,53.3,131.73a134.24,134.24,0,0,0,19.21,8.55c-1.59,23.85-3.12,46.39-3.71,53.32-1.75,20.49,4.56,38.07,18.76,52.26q33.51,33.48,67,67c36.75,36.76,74.76,74.78,112.19,112.11,14.21,14.17,32.35,22,51.09,22h.1c18.71,0,36.83-7.76,51-21.87,22.68-22.53,45.64-45.52,67.85-67.74q17.74-17.78,35.5-35.52a71.65,71.65,0,0,0,18.94-31.94c.62-2.25,1.15-4.48,1.66-6.63.22-.95.44-1.89.67-2.83l.29-1.17v-1.21c0-4.66-.59-15.34-.76-16.66C506.66,301.08,499.21,286.93,486,273.69Zm3.11,60.53c-.49,2.08-.95,4-1.48,6a51.24,51.24,0,0,1-13.78,23.07Q456,381,438.28,398.78C416.08,421,393.14,444,370.49,466.47c-10.43,10.36-23.55,16.06-36.94,16.06h-.07c-13.42,0-26.56-5.76-37-16.17C259.06,429,221.06,391,184.31,354.27q-33.5-33.5-67-67c-10.1-10.1-14.22-21.67-13-36.41.58-6.76,2-27,3.48-49.76a119,119,0,0,0,21.36,2c23.22,0,45.06-7.13,61.58-21.2a10,10,0,1,0-13-15.22c-17.14,14.6-42.82,19.42-68.63,14.22.23-3.48.46-7,.69-10.38,1.56-23.56,2.91-43.91,3.23-47.59h0c.79-9.25,7.23-16,16-16.74,11-1,39.25-2.81,66.55-4.62,26.26-1.73,51.06-3.37,61.34-4.24,15.35-1.29,27.42,3,38,13.62,53.49,53.67,111.33,111.53,176.85,176.91,10.1,10.08,15.52,20.09,17.05,31.5.11,1.42.53,8.9.61,13.13Z"/></svg>