<?xml version="1.0" encoding="utf-8"?>
<!-- Generator: Adobe Illustrator 28.0.0, SVG Export Plug-In . SVG Version: 6.00 Build 0)  -->
<svg version="1.1" id="Ebene_1" xmlns="http://www.w3.org/2000/svg" xmlns:xlink="http://www.w3.org/1999/xlink" x="0px" y="0px"
	 viewBox="0 0 300 300" style="enable-background:new 0 0 300 300;" xml:space="preserve">
<path d="M300,83.2c-100.2,0-199.9,0-300,0c0-1.5,0-2.8,0-4.1c0-20.2,0-40.4,0-60.5C0,5.8,5.2,0,16.8,0c88.9,0,177.7,0,266.6,0
	C294.7,0,300,5.8,300,18.4c0,20.3,0,40.6,0,60.9C300,80.5,300,81.6,300,83.2z" />
<path d="M163.56,110.8V300H290c5.52,0,10-4.48,10-10V110.8H163.56z M287.83,211.51c-1.5,1.79-3.68,2.68-6.54,2.68h-37.84v38.16
	c0,2.57-0.86,4.61-2.57,6.11c-1.86,1.65-4,2.47-6.43,2.47c-2.43,0-4.54-0.8-6.32-2.41c-1.79-1.61-2.68-3.81-2.68-6.59v-37.74h-38.59
	c-2.43,0-4.4-0.89-5.9-2.68c-1.57-1.43-2.47-3.54-2.68-6.33c0.21-2.5,1.09-4.63,2.63-6.38c1.54-1.75,3.52-2.63,5.95-2.63h38.59
	v-37.73c0-2.64,0.89-4.79,2.68-6.43c1.43-1.43,3.54-2.14,6.32-2.14c2.57,0,4.72,0.72,6.43,2.14c1.72,1.57,2.57,3.72,2.57,6.43v37.73
	h38.27c2.71,0,4.82,0.88,6.32,2.63c1.5,1.75,2.25,3.88,2.25,6.38C290.29,207.54,289.47,209.65,287.83,211.51z"/>
<path d="M0,110.8L0,290c0,5.52,4.48,10,10,10h126.44V110.8L0,110.8z"/>
</svg>
