<?xml version="1.0" encoding="utf-8"?>
<!-- Generator: Adobe Illustrator 25.0.1, SVG Export Plug-In . SVG Version: 6.00 Build 0)  -->
<svg version="1.1" id="Layer_1" xmlns="http://www.w3.org/2000/svg" xmlns:xlink="http://www.w3.org/1999/xlink" x="0px" y="0px"
	 viewBox="0 0 422.2 339.1" style="enable-background:new 0 0 422.2 339.1;" xml:space="preserve">
<style type="text/css">
	.st0{fill:none;stroke:#000000;stroke-width:11;stroke-linecap:round;}
	.st1{fill:none;stroke:#000000;stroke-width:11;stroke-linecap:round;stroke-linejoin:round;stroke-miterlimit:10;}
	.st2{fill:none;stroke:#000000;stroke-width:11;stroke-linecap:round;stroke-miterlimit:10;}
	.st3{fill:none;stroke:#565656;stroke-width:11;stroke-linecap:round;}
	.st4{fill:none;stroke:#565656;stroke-width:11;stroke-linecap:round;stroke-linejoin:round;stroke-miterlimit:10;}
	.st5{fill:none;stroke:#565656;stroke-width:11;stroke-linecap:round;stroke-miterlimit:10;}
	.st6{fill:none;stroke:#565656;stroke-width:11;stroke-linecap:round;stroke-linejoin:round;}
	.st7{fill:none;stroke:#000000;stroke-width:11;stroke-linecap:round;stroke-linejoin:round;}
	.st8{fill:#565656;stroke:#FFFFFF;stroke-miterlimit:10;}
	.st9{fill:none;stroke:#565656;stroke-width:11;stroke-miterlimit:10;}
</style>
<g>
	<g>
		<line class="st3" x1="294.4" y1="71.6" x2="386.5" y2="71.6"/>
		<line class="st3" x1="340.4" y1="25.5" x2="340.4" y2="117.6"/>
	</g>
	<circle class="st4" cx="340.4" cy="71.6" r="63.5"/>
</g>
<g>
	<path class="st5" d="M316.8,161.3c-2.9,5.5-2.9,11.2,0.1,16.9c2.8,5.4,5.5,10.9,8.1,16.3c0.8,1.7,1.7,3.5,2.5,5.2
		c7,14.3,2.8,27.4-11.2,34.8c-2,1.1-3.8,2-5.8,3.1c-5.1,2.8-10.3,5.6-15.6,8.2c-5.5,2.8-8.8,7.3-9.9,13.7
		c-1.1,7.4-2.6,16.2-4.3,24.8c-2.6,13-11.7,20.8-24.3,20.8c-1.7,0-3.5-0.2-5.3-0.4c-5.7-0.9-11.6-1.7-16.9-2.4l-0.6-0.1
		c-2.4-0.3-5-0.7-7.4-1.1c-0.9-0.2-1.7-0.2-2.5-0.2c-4.2,0-8.1,1.6-11.3,4.8c-6.2,6.1-12.5,12.1-18.6,18c-5.4,4.8-11.5,7.5-17.8,7.5
		s-12.4-2.7-17.8-7.7l-1.9-1.8c-5.3-5-10.7-10.3-16-15.6c-3.6-3.6-7.8-5.5-12.5-5.5c-1.1,0-2.3,0.1-3.5,0.3
		c-8.4,1.4-16.7,2.6-24.5,3.5c-1.4,0.2-2.8,0.2-4.2,0.2c-13.4,0-22.4-8.1-24.8-22.4c-0.7-3.8-1.3-7.7-2-11.5
		c-0.7-3.7-1.4-8.1-2.1-12.2c-1-5.9-4.1-10.2-9.4-12.9c-6.5-3.3-13-6.8-19.3-10.2l-2.7-1.5c-13.6-7.2-17.8-20.4-11.1-34.4
		c0.7-1.4,2.2-4.6,2.2-4.6c2.7-5.5,5.4-11.2,8.3-16.8c3.1-5.9,3.1-11.6,0.1-17.4c-3.6-6.8-6.9-13.8-10.2-20.7l-0.6-1.3
		c-6.5-13.6-2.3-26.5,10.9-33.7l0.7-0.3c6.9-3.7,14.1-7.7,21.3-11.2c5.7-2.8,9-7.4,9.9-13.9c1.4-9.1,2.8-17.1,4.3-24.3
		C74.1,41.9,83,34.4,95.7,34.4c1.8,0,3.6,0.2,5.5,0.5c5.5,0.9,11.1,1.6,16.5,2.4c2.7,0.4,5.4,0.7,8,1.1c0.9,0.2,1.8,0.2,2.6,0.2
		c4.3,0,8.1-1.6,11.3-4.7c2-2,4-3.9,5.9-5.6c3.1-3,6.4-6,9.4-9.2c6.3-6.5,11.9-9.9,18.2-11h0.1h5.7h0.1c6.4,1.1,12,4.6,18.2,11
		c2.7,2.8,5.5,5.4,8.1,7.9c2.2,2.1,4.5,4.2,6.6,6.4c3.4,3.4,7.5,5.2,12.1,5.2c1.1,0,2.2-0.1,3.3-0.2c9.6-1.5,17.4-2.7,24.6-3.6
		c1.5-0.2,2.9-0.2,4.3-0.2"/>
</g>
<path class="st8" d="M175.9,264.6c-3.3-0.1-5.4-2.5-5.5-6.4c-0.1-1.1,0-2.4,0.1-3.7c0.2-3.5,0.4-7.1-1.6-9.9
	c-1.9-2.6-5.2-3.3-8.5-3.9c-1.3-0.2-2.7-0.5-3.8-0.9c-18.4-6.5-29.8-21.1-29.7-38.3c0-2.2,0.7-6.1,4.9-6.5c0.2,0,0.5,0,0.7,0
	c3,0,5,2.1,5.6,5.7c3.1,18.6,11.5,27.2,30.1,30.5c3.2,0.6,6.4,0.9,9.4,0.9c8.1,0,15.8-2,22.8-6.1c8-4.6,13.5-14.4,13.4-23.8
	c-0.1-8.7-4.6-16-12.7-20.4c-6.3-3.4-13-6.3-19.4-9.1l-0.1-0.1c-3.6-1.6-7.3-3.2-10.9-4.8c-1.7-0.8-3.3-1.5-5-2.3
	c-5.9-2.7-11.9-5.4-17.3-8.8c-10.2-6.3-16-16.1-16.2-27.4c-0.3-12,5.6-24,15-30.4c4.1-2.8,8.9-5,13.9-7.3c2.5-1.1,5-2.3,7.6-3.6
	l1.7-0.8v-1.9c0-0.8,0-1.6,0-2.5l0-0.2c0-2.5,0-5.4,0-8.3c0.1-4.2,2.2-6.7,5.6-6.7c3.5,0,5.5,2.5,5.6,6.8c0.1,2.6,0,5.2,0,7.7
	c0,1.2,0,2.3,0,3.5v2.3l2.2,0.6c1.6,0.4,3.2,0.8,4.7,1.2c3.2,0.8,6.3,1.6,9.2,2.7c15.2,5.6,24.8,18.4,24.9,33.4
	c0,3.1-0.8,6.9-5.2,7.1c-0.2,0-0.3,0-0.4,0c-3.3,0-5.4-2.3-5.6-6.2c-0.6-12-6.9-20.1-18.8-24c-5.1-1.7-10.1-2.6-15-2.6
	c-6.7,0-13.2,1.6-19.3,4.9c-9.2,4.9-14.1,12.5-14.6,22.8c-0.5,9.2,4.1,16.3,13.5,21.2c5.5,2.8,11.3,5.3,16.8,7.7
	c3.6,1.5,7.3,3.1,10.8,4.7c1.7,0.8,3.4,1.5,5,2.3c6.3,2.9,12.9,5.8,18.8,9.4c10.6,6.5,16.5,16.8,16.6,29c0.1,13-6.7,25.7-17.2,32.5
	c-3.2,2.1-7,3.9-11.5,5.6c-2.6,1-5.4,1.7-8.3,2.4c-1.4,0.4-2.9,0.7-4.4,1.1l-2.2,0.6v2.3c0,1.1,0,2.2,0,3.4c0,2.7,0,5.4,0,8.1
	c-0.1,4.2-2.2,6.6-5.6,6.6L175.9,264.6z"/>
</svg>
