<svg xmlns="http://www.w3.org/2000/svg" width="357.803" height="108.97" viewBox="0 0 357.803 108.97">
  <g id="Gruppe_337" data-name="Gruppe 337" transform="translate(1031 -20.89)">
    <path id="Pfad_503" data-name="Pfad 503" d="M-973.107,20.89c1.07.128,2.139.254,3.208.385a53.14,53.14,0,0,1,29.017,12.869,52.467,52.467,0,0,1,17.648,29.827c3.456,17.216-.305,32.8-11.518,46.371a52.633,52.633,0,0,1-30.39,18.332c-2.43.518-4.93.712-7.4,1.059-.192.027-.38.084-.569.128h-6.675c-.194-.04-.387-.093-.583-.119-2.247-.295-4.52-.456-6.737-.9a53.56,53.56,0,0,1-30.277-17.421,53.153,53.153,0,0,1-13.236-29.432c-.131-1.069-.257-2.139-.385-3.209V71.97a4.9,4.9,0,0,0,.123-.5c.348-2.488.542-5.009,1.063-7.461a53.34,53.34,0,0,1,17.681-29.873,53.147,53.147,0,0,1,29.008-12.859c1.069-.131,2.138-.257,3.207-.385Zm-3.495,97.491.177,0,26.03-85.271c-16.273-10.286-37.471-9.522-52.3.062Z"/>
    <path id="Pfad_504" data-name="Pfad 504" d="M1206.258,287.651h-11.443v-3.137a1.3,1.3,0,0,0-.306.147c-2.389,2.51-5.428,3.421-8.775,3.571a16.529,16.529,0,0,1-12.134-4.054,16.865,16.865,0,0,1-5.7-12.439,19.282,19.282,0,0,1,1.477-9.11,15.946,15.946,0,0,1,13.44-9.705,14.8,14.8,0,0,1,7.743.945,36.6,36.6,0,0,1,3.645,2.089V240.8h12.053Zm-26.123-17.16-.164.034a29.127,29.127,0,0,0,.755,3.564,6.97,6.97,0,0,0,13.055.136,10.3,10.3,0,0,0,.223-6.812,6.5,6.5,0,0,0-5.578-4.921,6.739,6.739,0,0,0-7.293,3.475A8.652,8.652,0,0,0,1180.135,270.492Z" transform="translate(-1899.353 -189.959)"/>
    <path id="Pfad_505" data-name="Pfad 505" d="M-54.6,304.07c.834-1.9,1.622-3.7,2.417-5.5q8.429-19.084,16.85-38.172a.824.824,0,0,1,.883-.613c3.722.026,7.444.019,11.167.007a.731.731,0,0,1,.82.487q9.558,21.632,19.147,43.25c.063.141.107.29.183.5-.239.015-.43.038-.621.038-3.927,0-7.853-.009-11.78.015a.787.787,0,0,1-.869-.611c-.974-2.489-1.991-4.961-2.972-7.447a.716.716,0,0,0-.782-.548q-8.818.025-17.635,0a.715.715,0,0,0-.774.558q-1.486,3.762-3.02,7.5c-.089.217-.37.506-.563.508C-46.256,304.077-50.363,304.07-54.6,304.07ZM-23.329,286.2l-5.642-14.059L-34.612,286.2Z" transform="translate(-843.4 -206.357)"/>
    <path id="Pfad_506" data-name="Pfad 506" d="M880.594,349.568a6.679,6.679,0,0,0,4.155,4.677,11.324,11.324,0,0,0,11.105-1.4c.329-.237.644-.493,1.015-.779l6.336,6.591a15.647,15.647,0,0,1-5.166,3.769,21.123,21.123,0,0,1-8.25,1.788,24.345,24.345,0,0,1-11.338-2.038,17.088,17.088,0,0,1-9.978-17.009c.5-8.148,6.383-14.749,15.252-16.1a20.946,20.946,0,0,1,12.554,1.666,15.6,15.6,0,0,1,9.137,12.661,46.478,46.478,0,0,1,.133,5.356,6.187,6.187,0,0,1-.1.819Zm-.139-6.393h13.894c-.547-3.588-3.435-5.879-7.26-5.807A6.619,6.619,0,0,0,880.455,343.175Z" transform="translate(-1640.708 -265.943)"/>
    <path id="Pfad_507" data-name="Pfad 507" d="M491.49,237.766l-2.959,8.422a25.663,25.663,0,0,0-2.872-.8c-2.8-.443-4.506.953-4.717,3.775-.031.421,0,.846,0,1.348h8.084v9.018h-7.773V283.5H469.212V259.576h-4.984v-9.036h4.9c.041-.91.048-1.763.124-2.61a12.291,12.291,0,0,1,5.272-9.547,13.387,13.387,0,0,1,6.094-2.162,20.442,20.442,0,0,1,8.942.736C490.2,237.164,490.8,237.475,491.49,237.766Z" transform="translate(-1291.559 -185.838)"/>
    <path id="Pfad_508" data-name="Pfad 508" d="M345.577,240.717H357.57v46.828H345.577Z" transform="translate(-1189.069 -189.884)"/>
    <path id="Pfad_509" data-name="Pfad 509" d="M705.556,328.861V339.7a29.941,29.941,0,0,0-4.686.04c-3.883.626-6.056,3.115-6.155,7.051-.109,4.378-.039,8.761-.045,13.142,0,1.242,0,2.485,0,3.763H682.648V329.5h11.42v3.971C697.23,329.906,701.194,328.942,705.556,328.861Z" transform="translate(-1480.227 -266.021)"/>
    <path id="Pfad_510" data-name="Pfad 510" d="M1491.5,492.179c-.167-4.127,3.224-6.954,7.1-6.957a7.028,7.028,0,1,1-7.1,6.957Z" transform="translate(-2178.892 -401.084)" fill="#2388ae"/>
    <path id="Pfad_511" data-name="Pfad 511" d="M-797.09,148.806-823.18,63.6c14.826-9.583,36.024-10.348,52.3-.062l-26.03,85.271Zm-14.651-68.962c.261-.113.444-.187.622-.271,4.562-2.172,9.12-4.351,13.691-6.5a1.213,1.213,0,0,1,.915.014c4.589,2.167,9.166,4.36,13.747,6.545a4.287,4.287,0,0,0,.482.164V63.674c-.2.082-.322.128-.443.186q-6.87,3.28-13.746,6.547a1.23,1.23,0,0,1-.922.052c-3.467-1.624-6.917-3.285-10.373-4.933-1.3-.619-2.6-1.231-3.973-1.881Zm14.733,14.517a2.947,2.947,0,0,0,3-3.012,3,3,0,0,0-2.989-2.983,2.994,2.994,0,0,0-3,3.035A2.948,2.948,0,0,0-797.008,94.361Zm-.012,13.485a2.946,2.946,0,0,0,3.016-3,2.994,2.994,0,0,0-2.977-2.994A3,3,0,0,0-800,104.875,2.946,2.946,0,0,0-797.02,107.846Zm.039,13.484A2.946,2.946,0,0,0-794,118.36a3,3,0,0,0-3.016-3.023A2.994,2.994,0,0,0-800,118.4,2.943,2.943,0,0,0-796.982,121.331Z" transform="translate(-179.512 -30.426)" fill="#fff"/>
    <path id="Pfad_512" data-name="Pfad 512" d="M103.436,364.568H92.153l5.642-14.059Z" transform="translate(-970.165 -284.721)" fill="#fff"/>
    <path id="Pfad_513" data-name="Pfad 513" d="M-739.2,127.608v-16.2c1.373.65,2.675,1.261,3.973,1.881,3.456,1.649,6.906,3.309,10.373,4.933a1.23,1.23,0,0,0,.922-.052q6.883-3.253,13.746-6.547c.121-.058.247-.1.443-.186v16.12a4.284,4.284,0,0,1-.482-.164c-4.581-2.185-9.158-4.378-13.747-6.545a1.213,1.213,0,0,0-.915-.014c-4.571,2.151-9.13,4.33-13.691,6.5C-738.759,127.421-738.942,127.494-739.2,127.608Z" transform="translate(-252.05 -78.189)"/>
    <path id="Pfad_514" data-name="Pfad 514" d="M-650,298.893a2.948,2.948,0,0,1-2.989-2.96,2.994,2.994,0,0,1,3-3.035,3,3,0,0,1,2.989,2.983A2.947,2.947,0,0,1-650,298.893Z" transform="translate(-326.525 -234.958)"/>
    <path id="Pfad_515" data-name="Pfad 515" d="M-650.006,397.893a2.946,2.946,0,0,1-2.977-2.971,3,3,0,0,1,3.016-3.023,2.994,2.994,0,0,1,2.977,2.994A2.946,2.946,0,0,1-650.006,397.893Z" transform="translate(-326.526 -320.473)"/>
    <path id="Pfad_516" data-name="Pfad 516" d="M-649.969,496.895a2.943,2.943,0,0,1-3.016-2.932,2.994,2.994,0,0,1,2.977-3.062,3,3,0,0,1,3.016,3.023A2.946,2.946,0,0,1-649.969,496.895Z" transform="translate(-326.525 -405.99)"/>
  </g>
</svg>
