<?xml version="1.0" encoding="utf-8"?>
<!-- Generator: Adobe Illustrator 25.0.1, SVG Export Plug-In . SVG Version: 6.00 Build 0)  -->
<svg version="1.1" id="Layer_1" xmlns="http://www.w3.org/2000/svg" xmlns:xlink="http://www.w3.org/1999/xlink" x="0px" y="0px"
	 viewBox="0 0 359.9 172" style="enable-background:new 0 0 359.9 172;" xml:space="preserve">
<style type="text/css">
	.st0{fill:none;stroke:#000000;stroke-width:3;stroke-miterlimit:10;}
	.st1{font-family:'SegoeUI-Bold';}
	.st2{font-size:80.0652px;}
</style>
<g>
	<path d="M52.2,59.7c4.3,0,8.7,0,13,0c4,0,7,1.7,9.1,5.2c8.8,14.8,17.7,29.5,26.5,44.3c0.4,0.7,0.9,0.8,1.6,0.8c8.7,0,17.5,0,26.2,0
		c2.8,0,4.5,1.1,5.2,3.4c1.1,3.6-1.1,6.7-4.9,6.7c-9,0-18.1,0.1-27.1,0c-3.7,0-6.5-1.7-8.5-4.9c-9.1-14.9-18.2-29.8-27.3-44.7
		c-0.4-0.7-0.9-0.7-1.5-0.7c-8.6,0-17.2,0-25.7,0c-2.8,0-4.5-1.1-5.2-3.4c-1.1-3.6,1.1-6.7,4.9-6.7C43.1,59.6,47.7,59.7,52.2,59.7z"
		/>
	<path d="M114,59.7c5,0,9.9,0,14.9,0c3.6,0,5.5,2.2,5.2,5.7c-0.2,2.2-1.7,3.8-3.8,4.2c-0.5,0.1-1.1,0.1-1.6,0.1
		c-9.8,0-19.5,0-29.3,0c-2.7,0-4.4-1-5.2-3.1c-1.3-3.7,0.9-7,4.8-7C104,59.6,109,59.7,114,59.7z"/>
</g>
<path class="st0" d="M337.7,162.1H18.6c-5.9,0-10.6-4.7-10.6-10.6V28c0-5.9,4.7-10.6,10.6-10.6h319.1c5.9,0,10.6,4.7,10.6,10.6
	v123.4C348.3,157.3,343.5,162.1,337.7,162.1z"/>
<text transform="matrix(1 0 0 1 188.1414 114.3861)" class="st1 st2">Alt</text>
</svg>
