<?xml version="1.0" encoding="utf-8"?>

<!-- Generator: Adobe Illustrator 25.0.1, SVG Export Plug-In . SVG Version: 6.00 Build 0)  -->
<svg version="1.1" id="Layer_1" xmlns="http://www.w3.org/2000/svg" xmlns:xlink="http://www.w3.org/1999/xlink" x="0px" y="0px"
	 viewBox="0 0 415 416" style="enable-background:new 0 0 415 416;" xml:space="preserve">
	 <style type="text/css">
	.bg-secondary{fill:#2388AE;}
</style>
<g class="bg-secondary">
	<path d="M377.3,186.7c-10.8,10.8-21.4,21.3-32.3,32.2c-3.5-2.2-7.2-4.7-11.1-6.8c-1.2-0.7-3.3-0.7-4.6-0.2
		c-5.1,1.9-10.2,4-15.2,6.3c-1.2,0.6-2.6,1.9-3,3.1c-1.1,3.5-1.7,7.3-2.8,10.8c-0.3,1-1.8,2.4-2.8,2.4c-13.6,0.2-27.2,0.2-40.8,0
		c-1,0-2.5-1.4-2.8-2.4c-1.3-4.2-1-9.4-3.5-12.4c-2.5-2.9-8-3-11.6-5.3c-6-4-11.1-3.4-16.2,1.2c-1.6,1.4-3.6,2.2-5,3.1
		c-10.8-10.8-21.4-21.4-32.3-32.3c2-3.3,4.5-7,6.6-11c0.6-1.2,0.8-3,0.3-4.3c-2-5.2-4.1-10.4-6.5-15.5c-0.6-1.2-1.9-2.5-3.2-2.9
		c-4.7-1.4-9.4-2.3-14.7-3.6c-2.2,4.5-4.5,9-6.9,13.8c7.2,2.3,12.2,6.6,13.8,13.9c1.6,7.3-1,13.2-6.6,18.3
		c6.4,6.3,12.5,12.5,18.7,18.6c13.2,13.1,22.5,28.6,27,46.7c16,63.8-25.7,120.5-84.4,129C81.2,397.5,27.8,355.8,22.4,299
		c-3.3-33.9,6.9-62.9,31.3-86.9c5.7-5.6,11.3-11.2,17.1-17c-5.5-5.2-8.4-11.2-6.6-18.6c1.8-7.2,6.6-11.4,13.8-13.6
		c-5.8-11.6-11.4-22.9-17.1-34.2c-3.2-6.4-4.1-13-2.4-20c3-12.1,16.2-20.6,27.5-17c3.9,1.2,7.5,4.3,10.5,7.2
		c5.4,5.2,7.1,5.5,12.1-0.1c5.3-6.1,11.7-9.9,19.7-7c3.7,1.3,7,4.1,9.9,6.9c5.6,5.5,7.1,5.7,12.4,0.1c10.1-10.9,23.9-10.4,33.6,1.1
		c0.8,1,2.5,2.1,3.4,1.8c2.3-0.6,5.2,0,6.4-3.4c1.9-5.4,4.4-10.6,6.4-15.9c0.4-1.2,0.4-2.9-0.2-4c-2.2-3.9-4.6-7.7-6.8-11.1
		c10.8-10.8,21.4-21.4,32.4-32.3c3.3,2,7.2,4.5,11.2,6.8c1.1,0.6,2.8,0.6,4,0.2c5.2-2,10.4-4.1,15.5-6.5c1.2-0.6,2.5-1.9,2.9-3.2
		c1.1-3.5,1.7-7.3,2.8-10.8c0.3-1,1.9-2.3,2.9-2.3c13.5-0.2,26.9-0.1,40.4-0.1c2,0,2.8,0.6,3.2,2.6c0.6,3.5,1.4,7.1,2.6,10.5
		c0.5,1.4,1.8,2.8,3.2,3.4c5,2.3,10,4.4,15.1,6.3c1.3,0.5,3.1,0.4,4.3-0.2c3.9-2.1,7.7-4.6,11.2-6.8c10.8,10.8,21.4,21.5,32.3,32.3
		c-2.2,3.5-4.6,7.2-6.8,11.2c-0.6,1.2-0.7,3-0.2,4.3c2,5.2,4.1,10.4,6.4,15.5c0.5,1.1,1.8,2.3,2.9,2.7c3.6,1.1,7.2,2,10.9,2.6
		c2,0.4,2.6,1.2,2.6,3.2c-0.1,13.5,0,26.9-0.1,40.4c0,1-1.3,2.6-2.3,2.9c-4.3,1.3-9.7,1-12.7,3.7c-3,2.6-3,8.3-5.4,12
		c-3.7,5.7-3.1,10.4,1.1,15.3C375.2,182.6,376.2,184.8,377.3,186.7z M123.5,198.6c-12.1,0-24.2-0.1-36.3,0.1c-1.7,0-3.9,0.9-5.1,2.1
		c-7,6.7-13.8,13.7-20.7,20.6c-21.4,21.3-30.1,47-27,76.9c5.3,50.4,52.5,87.1,102.3,78.9c35.5-5.8,60.4-26.1,71.7-60.2
		c11.4-34.2,4.8-65.8-19.9-92.7c-7.6-8.3-15.7-16-23.8-23.8c-1.1-1.1-3-1.7-4.5-1.7C147.9,198.6,135.7,198.6,123.5,198.6z
		 M380.9,113.5c-3.9-0.9-7.4-1.5-10.9-2.6c-1.3-0.4-2.8-1.8-3.1-3c-2.3-9-5.7-17.5-10.7-25.4c-1.1-1.8-1-3.1,0.1-4.7
		c2.1-3.1,3.9-6.3,5.4-8.7c-6.5-6.6-12.6-12.7-18.9-19c-2.8,1.7-5.9,3.5-8.9,5.5c-1.7,1.2-2.9,0.8-4.7,0c-8.3-3.6-16.7-6.9-25-10.6
		c-1.3-0.6-2.8-1.9-3.2-3.3c-1.2-3.5-1.8-7.2-2.7-10.7c-9,0-17.7,0-26.5,0c-0.9,3.7-1.5,7.3-2.6,10.7c-0.4,1.3-1.9,2.9-3.2,3.3
		c-8.9,2.3-17.2,5.8-25.1,10.4c-1.2,0.7-3.3,0.6-4.6,0c-3.3-1.7-6.4-3.8-9-5.4c-6.5,6.5-12.6,12.6-18.9,18.9
		c1.4,2.3,2.9,5.1,4.7,7.5c1.9,2.5,1.8,4.5,0.2,7.3c-2.8,4.8-5,10-7.2,15.1c-1.6,3.7-1.7,8.7-4.3,11.1c-2.7,2.4-7.7,2.4-11.6,3.4
		c-0.2,0.1-0.4,0.3-0.9,0.6c1,8.8-4.2,15.9-7.8,23.9c6.5,1.5,12.6,2.9,18.7,4.6c1.3,0.3,2.9,1.7,3.2,2.9c2.3,9.1,5.9,17.7,10.7,25.8
		c0.6,1,0.4,3.1-0.2,4.2c-1.7,3.3-3.8,6.4-5.5,9c6.4,6.5,12.6,12.6,18.9,18.9c2.7-1.7,5.9-3.5,8.8-5.5c1.8-1.3,3.2-0.8,5,0
		c8.2,3.6,16.4,7.1,24.7,10.3c2,0.8,3.1,1.6,3.5,3.7c0.7,3.5,1.6,7,2.5,10.5c8.9,0,17.6,0,26.4,0c0.9-3.6,1.5-7.2,2.6-10.6
		c0.5-1.3,1.8-3,3.1-3.4c9-2.3,17.4-5.9,25.5-10.6c1.1-0.6,3.1-0.5,4.2,0c3.3,1.7,6.4,3.8,8.9,5.4c6.5-6.5,12.7-12.7,19-19
		c-1.5-2.5-3.2-5.5-5.1-8.2c-1.4-2-1.2-3.5-0.2-5.7c3.6-8,7-16.2,10.1-24.4c0.8-2.2,1.7-3.2,4-3.6c3.5-0.7,6.9-1.6,10.3-2.4
		C380.9,131,380.9,122.4,380.9,113.5z M111.2,125.2c0.4,1.4,0.8,2.5,1.2,3.7c3,10.3,5.9,20.6,8.9,30.9c0.3,1.1,1.4,2,2.1,2.9
		c0.8-1,2-1.9,2.4-3.1c1.9-6.1,3.5-12.2,5.3-18.3c1.5-5.3,3.1-10.7,4.7-16.2c3.9,1.2,7.5,2.2,11.4,3.3c-3.2,11.5-6.4,22.7-9.7,34.3
		c5.8,0,11.1,0.1,16.5-0.1c0.9,0,2.2-1,2.7-1.9c6.6-13,13.3-25.9,19.4-39.2c1.3-2.9,1.2-6.9,0.6-10.1c-0.8-4.5-4.3-7.1-8.7-8.4
		c-4.2-1.2-6.6,1.2-8.9,4c-0.5,0.6-1,1.1-1.5,1.6c-7.9,8.2-18.4,8.1-26.4,0c-7.8-8-7.8-8-15.6,0.1c-5.4,5.5-11.8,7.9-19,4.8
		c-3.8-1.7-7.1-5-10.1-8c-2.8-2.8-5.6-3.3-9.1-2c-6.8,2.6-10.1,10.6-6.7,17.8c6.3,13.3,13.1,26.3,19.7,39.5c0.4,0.8,1.6,1.8,2.4,1.8
		c5.4,0.2,10.9,0.1,16.7,0.1c-3.3-11.7-6.5-22.9-9.7-34.3C103.9,127.3,107.4,126.3,111.2,125.2z M123.9,174.7c-2.2,0-4.5,0-6.7,0
		c-11.6,0-23.2,0-34.8,0c-3.1,0-5.8,1.2-6.2,4.2c-0.3,2,0.5,4.7,1.9,6.2c1,1.2,3.6,1.5,5.5,1.5c18.5,0.1,36.9,0.1,55.4,0.1
		c8.6,0,17.2,0,25.8,0c4.2,0,6.9-2.7,6.7-6.3c-0.2-3.5-2.8-5.6-7.1-5.6C150.9,174.7,137.4,174.7,123.9,174.7z"/>
	<path d="M129.5,234.8c0,3.4,0.1,6.6,0,9.8c-0.1,2.1,0.6,3,2.6,3.7c9.5,3.8,15.6,12.6,15.1,22c-3.7,0-7.4,0-11.4,0
		c-0.4-1.5-0.8-3.2-1.5-4.7c-1.8-3.9-4.9-6.5-9.1-6.9c-4.4-0.4-8.9-0.1-13.7-0.1c0,4.6-0.3,8.9,0.1,13.2c0.4,5.8,5.3,10.6,11.2,10.5
		c12.6-0.2,25.4,10,24.6,26.6c-0.3,7-0.1,13.9-0.1,21.3c-6,0-11.8,0-17.8,0c0,4.1,0,7.8,0,11.8c-4,0-7.8,0-12.1,0
		c0-2.8-0.2-5.6,0.1-8.4c0.2-2.8-0.6-4.3-3.4-5.5c-9.2-3.9-13.9-11.3-14.6-21.5c4,0,7.8,0,11.6,0c2.8,9.4,5.9,11.7,15.7,11.7
		c2.7,0,5.5,0,8.5,0c0-4.9,0.4-9.6-0.1-14.2c-0.7-5.5-5.6-9.3-11.2-9.7c-15.4-1-24.3-10.5-24.4-26c0-7.2,0-14.4,0-21.9
		c6,0,11.7,0,17.8,0c0-4.1,0-7.8,0-11.8C121.5,234.8,125.2,234.8,129.5,234.8z"/>
	<path d="M123.7,366c0-4,0-7.7,0-11.5c29.7-1.8,50.4-16.3,62.1-44.1c3.6,1.3,7.1,2.5,10.7,3.8C188,343,156.5,367.1,123.7,366z"/>
	<path d="M60.8,266.3c-4.1-1.3-7.6-2.4-11.3-3.6c6.9-24.8,27.6-38.5,44.6-57.4c1.3,2,2.3,3.8,3.6,5.2c1.2,1.4,2.8,2.4,4.3,3.7
		C87.3,231.4,67.5,243.4,60.8,266.3z"/>
	<path d="M45.6,288.1c0.2-4.1,0.5-8,0.7-12.4c4.1,0.5,7.9,1,11.8,1.6c-0.2,3.7-0.3,7.1-0.5,10.9C53.8,288.1,50,288.1,45.6,288.1z"/>
	<path d="M200.5,301.4c-4.2-0.7-7.8-1.3-11.8-1.9c0.3-3.6,0.6-7,0.9-10.7c3.7,0,7.5,0,11.9,0C201.2,292.7,200.9,296.7,200.5,301.4z"
		/>
	<path d="M357.1,126.8c0,39.6-32.3,71.8-71.9,71.8c-39.6,0-71.8-32.3-71.8-71.9c0-39.6,32.3-71.8,71.9-71.8
		C324.8,54.9,357.1,87.2,357.1,126.8z M285.2,66.9c-32.9,0-59.8,26.8-59.8,59.7c0,33.1,26.9,60,59.9,60c32.9,0,59.8-26.9,59.8-59.8
		C345.2,93.8,318.2,66.9,285.2,66.9z"/>
	<path d="M245.8,142.5c2.3-2.2,4.9-4.8,7.6-7.4c6.3,6.4,12.7,12.9,19.1,19.4c17-17.1,33.4-33.5,50-50.1c3.3,3.3,5.9,6,8.4,8.4
		c-19.3,19.3-38.5,38.5-57.4,57.4C264.4,161.2,255.1,151.9,245.8,142.5z"/>
</g>
</svg>
