<?xml version="1.0" encoding="UTF-8"?>
<svg xmlns="http://www.w3.org/2000/svg" version="1.1" viewBox="0 0 402.35 404.58">
  <defs>
    <style>
      .cls-1 {
        fill: #858585;
      }
    </style>
  </defs>
  <!-- Generator: Adobe Illustrator 28.7.3, SVG Export Plug-In . SVG Version: 1.2.0 Build 164)  -->
  <g>
    <g id="Ebene_1">
      <g>
        <path class="cls-1" d="M238.76,300.52c-5.43-4.15-12.01-6.4-18.95-6.41h-.05c-17.28,0-31.36,14.1-31.38,31.44-.03,17.35,14.04,31.48,31.36,31.51,17.33,0,31.4-14.1,31.43-31.44.01-6.93-2.21-13.52-6.32-18.96-2.09-2.1-4.13-4.15-6.1-6.13ZM240.95,320.72c-1.47,1.47-2.94,2.94-4.41,4.42l-16.24,16.27c-2.29,2.29-4.54,2.77-6.03,2.77s-3.83-.5-6.14-2.89c-3.2-3.32-6.4-6.65-9.59-9.98-3.22-3.36-3.24-8.25-.06-11.39,1.49-1.46,3.43-2.27,5.47-2.27,2.22,0,4.36.94,6.02,2.66,1.47,1.52,2.93,3.04,4.41,4.58l9-9.04c2.16-2.17,4.33-4.35,6.51-6.5,1.56-1.55,3.47-2.37,5.53-2.37.94,0,1.9.18,2.84.53,2.92,1.09,4.79,3.51,5.13,6.64.19,1.71-.09,4.24-2.44,6.58Z"/>
        <path class="cls-1" d="M49.89,197.75c.11,10.97,9.4,20.07,20.26,19.86,10.91-.21,19.65-9.1,19.66-20.02.02-11.09-8.96-20.06-20-19.98-11.04.07-20.03,9.17-19.92,20.14Z"/>
        <path class="cls-1" d="M49.88,325.54c-.04,10.89,8.76,19.82,19.67,19.97,11.17.15,20.1-8.52,20.26-19.69.16-10.87-8.59-19.98-19.42-20.21-11.19-.24-20.47,8.78-20.51,19.93Z"/>
        <path class="cls-1" d="M268.65,291.14c-7.11-7.15-14.21-14.3-21.34-21.44-1.99-1.99-4.61-3.14-7.19-3.14-1.52,0-2.96.38-4.28,1.13-1,.57-1.99,1.35-3.01,2.21l79.07,79.5c4.56-4.81,4.46-10.29-.3-15.08-11.62-11.68-42.95-43.19-42.95-43.19Z"/>
        <path class="cls-1" d="M89.81,69.51c-.03-11.13-8.94-19.94-20.09-19.87-11.08.07-20.01,9.14-19.84,20.16.16,11,9.32,19.9,20.32,19.75,10.84-.15,19.64-9.15,19.61-20.04Z"/>
        <path class="cls-1" d="M368.42.98H33.09C14.81.98,0,15.8,0,34.07v335.33C0,387.67,14.81,402.49,33.09,402.49h335.33c18.28,0,33.09-14.81,33.09-33.09V34.07c0-18.28-14.81-33.09-33.09-33.09ZM153.76,48.18c.51-5.64,5.08-10.24,10.88-10.45,6.6-.24,13.22-.11,19.83-.11,27.07,0,54.13,0,81.2,0,32.8,0,65.61-.02,98.41.01,7.68,0,12.85,4.6,13.06,11.43.2,6.17-3.74,11.12-9.84,12.23-1.58.29-3.22.31-4.84.31-64.73.01-129.46.02-194.2,0-1.86,0-3.76-.09-5.56-.5-5.88-1.36-9.5-6.7-8.93-12.92ZM167.01,77.57c16.96-.02,33.91,0,50.87,0s33.42-.01,50.12,0c7.95,0,13.3,4.87,13.3,12,0,7.13-5.35,11.98-13.32,11.99-33.67.01-67.33.01-101,0-7.95,0-13.3-4.87-13.29-12.02,0-7.18,5.29-11.97,13.31-11.98ZM81.74,152.17c-.02,2.2.64,3.21,2.77,4.02,18.04,6.85,29.17,22.61,29.29,41.21.12,18.6-11.06,34.57-29.32,41.54-2.25.86-2.61,2.06-2.6,4.13.07,12.12.14,24.25-.04,36.37-.04,2.84.83,4.02,3.46,5.09,16.88,6.85,26.75,19.42,28.19,37.64,1.44,18.24-6.29,32.37-21.97,41.62-22.01,12.97-50.49,3.66-61.42-19.69-10.79-23.07.43-50.73,24.3-59.51,2.85-1.05,3.68-2.41,3.63-5.37-.18-11.99-.14-23.99-.02-35.99.02-2.33-.56-3.49-2.85-4.33-17.79-6.58-29.21-22.8-29.24-41.26-.03-18.45,11.28-34.59,29.13-41.35,2.07-.78,2.85-1.77,2.83-4.03-.11-12.37-.11-24.74,0-37.12.02-2.36-.69-3.48-2.95-4.34-31.57-12.09-39.04-51.61-14.09-74.18,7.75-7.01,18.28-10.99,29.06-10.99,21.47,0,39.66,15.41,43.34,36.69,3.55,20.52-8.31,41.07-28.09,48.37-2.48.92-3.47,1.99-3.43,4.74.16,12.25.12,24.49.02,36.74ZM161.17,228.62c-5.41-1.95-8.27-7.46-7.33-13.27.88-5.39,5.5-9.51,11.27-9.63,8.1-.16,16.21-.07,24.31-.07,9.35,0,18.7,0,28.05,0,17.08,0,34.16-.05,51.24.02,7.61.03,12.74,5.15,12.57,12.29-.13,5.47-3.83,10.07-9.23,11.23-1.69.36-3.46.45-5.19.45-32.91.02-65.83.04-98.74-.02-2.33,0-4.8-.21-6.96-.99ZM370.22,261.95c-6.1,10.41-16.99,17.06-29.13,17.81-7.56.47-13.95,3.47-19.56,9.17-4.26,4.34-6.52,9.88-7.13,17.44-.17,2.15-.25,4.12-.24,6.02,2.13,2.21,4.34,4.42,6.48,6.56,1.25,1.26,2.51,2.51,3.75,3.78,10.73,10.86,10.67,27.85-.13,38.68-2.04,2.05-4.09,4.09-6.16,6.12-1.85,1.81-4.04,2.77-6.34,2.77s-4.5-.96-6.34-2.77c-.25-.25-18.45-18.54-38.5-38.69-1.67,24.56-22.15,44.06-47.12,44.11h-.08c-26.02,0-47.21-21.24-47.23-47.34-.02-25.08,19.54-45.68,44.2-47.29-1.28-1.29-2.05-2.07-2.18-2.2-1.75-1.82-2.68-4.1-2.63-6.42.05-2.27,1.05-4.43,2.81-6.1.87-.82,1.72-1.67,2.57-2.51,2.58-2.56,5.26-5.22,8.42-7.37,4.22-2.88,9.21-4.4,14.44-4.4,7.05,0,13.96,2.83,18.95,7.75,2.09,2.06,4.16,4.14,6.23,6.23,1.5,1.51,3,3.03,4.51,4.53.23,0,.46,0,.69,0,6.05,0,10.98-.43,15.41-2.52,10.4-4.92,15.82-12.7,16.57-23.79,1.31-19.3,17.28-34.43,36.36-34.43,5.62,0,11.07,1.31,16.21,3.88,1.73.87,3.29,1.89,4.79,2.88.64.42,1.27.84,1.92,1.24l.4.25,5.01,5.04.25.4c.4.66.82,1.31,1.25,1.96,1,1.55,2.04,3.15,2.9,4.94,5.3,11.02,4.8,23.83-1.33,34.29ZM377.1,178.68c-.42,5.78-5.09,10.36-11.02,10.77-1.37.09-2.74.07-4.11.07-32.18,0-64.36,0-96.54,0-32.8,0-65.6.01-98.41-.01-7.78,0-12.99-4.44-13.3-11.19-.3-6.37,3.66-11.41,9.94-12.51,1.58-.28,3.23-.28,4.84-.28,64.61-.01,129.21-.01,193.82,0,1.86,0,3.76.06,5.57.44,5.94,1.26,9.67,6.5,9.21,12.71Z"/>
        <path class="cls-1" d="M339.45,224.36c-2.18,0-4.51.38-6.91,1.13-7.09,2.22-12.23,9.02-12.78,16.91l-.05.84c-.06,1-.13,2.03-.27,3.1-2.04,15.38-14.23,32.53-33.85,37.28l12.92,12.99c2.66-10.56,8.54-19.16,17.53-25.61,7.1-5.09,14.99-7.86,24.12-8.47,7.84-.52,13.33-4.48,16.32-11.76,3-7.3,1.88-13.98-3.31-19.84-3.86-4.35-8.47-6.56-13.7-6.56Z"/>
      </g>
    </g>
  </g>
</svg>