<svg xmlns="http://www.w3.org/2000/svg" width="18.722" height="18.891" viewBox="0 0 18.722 18.891">
  <g id="Gruppe_330" data-name="Gruppe 330" transform="translate(-340.481 -532.217)">
    <path id="Pfad_497" data-name="Pfad 497" d="M349.807,551.106h3.072v0c1.065,0,2.13.01,3.2,0a3.13,3.13,0,0,0,3.006-2.415,7.6,7.6,0,0,0,.047-2.45A5.186,5.186,0,0,0,354.6,541.7c-.952-.085-1.915-.061-2.873-.052s-2.677.436-2.649.778a.72.72,0,0,0,.217.361,1.12,1.12,0,0,1,.1.094q1.606,1.605,3.213,3.211a.917.917,0,0,1,.271.4v.184a.92.92,0,0,1-.271.4q-1.621,1.617-3.239,3.237S348.69,551.106,349.807,551.106Z" fill="#fff"/>
    <path id="Pfad_498" data-name="Pfad 498" d="M352.83,540.6h.037a4.191,4.191,0,1,0-4.092-5.026,4.143,4.143,0,0,0-.084.816v0A4.19,4.19,0,0,0,352.83,540.6Z" fill="#fff"/>
    <path id="Pfad_499" data-name="Pfad 499" d="M349.628,546.115q-1.609-1.6-3.213-3.211c-.033-.032-.066-.065-.1-.094a.47.47,0,0,0-.58-.042,2.591,2.591,0,0,0-.49.491.472.472,0,0,0,.1.639l1.889,1.883.081.086h-6.267a.536.536,0,0,0-.566.565v.34a.524.524,0,0,0,.568.566h6.227l.011.027a.935.935,0,0,0-.079.062l-1.832,1.835c-.03.031-.06.062-.087.095a.475.475,0,0,0-.041.6,2.614,2.614,0,0,0,.486.483.491.491,0,0,0,.655-.11q1.618-1.618,3.239-3.237a.912.912,0,0,0,.27-.4v-.184A.919.919,0,0,0,349.628,546.115Z" fill="#fff"/>
  </g>
</svg>
