<svg xmlns="http://www.w3.org/2000/svg" width="67.604" height="40.909" viewBox="0 0 67.604 40.909">
  <g id="Gruppe_351" data-name="Gruppe 351" transform="translate(-130.305 -318.072)">
    <path id="Pfad_550" data-name="Pfad 550" d="M164.091,358.981a35.625,35.625,0,0,1-17.431-4.888,60.321,60.321,0,0,1-14.84-11.858,5.252,5.252,0,0,1-.182-7.182,56.073,56.073,0,0,1,19.547-14.284c9.933-4.162,19.628-3.391,29.092,1.515a59.5,59.5,0,0,1,16.137,12.6,5.154,5.154,0,0,1,.184,7.059c-6.78,7.332-14.532,13.233-24.35,15.946A29.982,29.982,0,0,1,164.091,358.981Zm12.031-20.463a12.023,12.023,0,1,0-12.032,12.04A12.09,12.09,0,0,0,176.122,338.518Z" fill="#fff"/>
    <path id="Pfad_551" data-name="Pfad 551" d="M277.129,391.272a7.211,7.211,0,1,1-7.166-7.239A7.146,7.146,0,0,1,277.129,391.272Z" transform="translate(-105.832 -52.723)" fill="#fff"/>
  </g>
</svg>
