<svg id="SvgjsSvg1001" width="288" height="288" xmlns="http://www.w3.org/2000/svg" version="1.1" xmlns:xlink="http://www.w3.org/1999/xlink" xmlns:svgjs="http://svgjs.com/svgjs"><defs id="SvgjsDefs1002"></defs><g id="SvgjsG1008" transform="matrix(1,0,0,1,0,0)"><svg xmlns="http://www.w3.org/2000/svg" enable-background="new 0 0 330.1 340.2" viewBox="0 0 330.1 340.2" width="288" height="288"><path d="M155.7,16.2c6,0,12,0,18,0c0.8,0.2,1.5,0.4,2.3,0.5c21.4,1.5,41.8,7,60.6,17.5c50.5,28.3,78,71.5,81.5,129.3		c1.7,27.7-4.3,54.2-17.8,78.5c-28.2,50.4-71.4,77.8-129.1,81.3c-27.7,1.7-54.2-4.4-78.5-17.8c-43.3-23.8-69.8-60.2-79.2-108.9
		c-1.1-5.9-1.6-11.8-2.4-17.7c0-6,0-12,0-18c0.2-0.9,0.4-1.7,0.5-2.6c1.5-21.4,7.2-41.7,17.5-60.5C53,54.4,89.3,27.9,137.9,18.6
		C143.8,17.5,149.7,17,155.7,16.2z M164.7,304.6c74,0,134.4-60.5,134.5-134.7c0-74-60.2-134.4-134.3-134.5
		C90.7,35.2,30.2,95.7,30.2,169.8C30.2,244,90.7,304.6,164.7,304.6z" fill="#2388AE" class="color000 svgShape"></path><path d="M139.1,170.8c8.1,7.7,16.1,15.1,23.8,22.8c11.8,11.8,23.5,23.7,35.2,35.7c1.6,1.7,3.1,3.8,3.7,6c1.2,4.2-0.9,8.4-4.6,10.4
		c-3.6,2-7.9,1.5-11.1-1.4c-0.7-0.7-1.4-1.4-2.1-2.1c-20.9-21.1-41.7-42.3-62.6-63.4c-6.2-6.3-6.1-11.2,0-17.5
		c21-21.3,42-42.6,63-63.9c2.6-2.6,5.3-4.6,9.1-4.2c7.3,0.8,11.1,9.1,6.9,15.2c-0.7,1.1-1.7,2-2.6,2.9
		c-18.5,18.7-36.9,37.5-55.4,56.2C141.6,168.2,140.8,169,139.1,170.8z" fill="#2388AE" class="color000 svgShape"></path></svg></g></svg>