<?xml version="1.0" encoding="utf-8"?>
<!-- Generator: Adobe Illustrator 25.0.1, SVG Export Plug-In . SVG Version: 6.00 Build 0)  -->
<svg version="1.1" id="Layer_1" xmlns="http://www.w3.org/2000/svg" xmlns:xlink="http://www.w3.org/1999/xlink" x="0px" y="0px"
	 viewBox="0 0 300 300" style="enable-background:new 0 0 300 300;" xml:space="preserve">
<style type="text/css">
	.st0{fill:#555555;}
</style>
<path class="st0" d="M297.7,124.2c-8.4-44.9-32.3-79.2-71.2-103.1c-20-12.3-42-19-65.5-20.6c-0.8-0.1-1.5-0.3-2.3-0.5c-5.9,0-11.7,0-17.6,0
	c-5.7,0.8-11.4,1.3-17.1,2.3C89.5,8.5,60.6,24.9,37.4,51.1c-21.2,24-33.5,52-36.6,83.8C-3,174.2,7,209.9,31.1,241.2
	c22.3,29,51.5,47.8,87.4,55.3c44.8,9.3,85.9,0.2,122.4-27.5c29.3-22.2,47.8-51.7,55.7-87.8c1.4-6.4,1.9-12.9,2.9-19.4
	c0.2-1,0.4-2.1,0.5-3.1c0-5.9,0-11.7,0-17.6C299.2,135.5,298.7,129.8,297.7,124.2z M192.4,243.9c-1.3,0.8-2.8,1.3-4.2,1.9
	c-1.5,0-3,0-4.5,0c-3.5-1-6-3.3-8.5-5.8c-26.8-26.9-53.7-53.7-80.6-80.6c-6.1-6.1-6.1-12.8,0.1-19c27.4-27.3,54.7-54.7,82.1-82
	c5.5-5.5,13-5.7,17.9-0.4c4,4.3,4.4,10.7,0.8,15.4c-0.6,0.8-1.4,1.6-2.1,2.3c-24.2,24.2-48.3,48.3-72.5,72.5
	c-0.5,0.5-1.2,0.9-1.9,1.4c0.9,0.9,1.4,1.5,1.9,2c24.4,24.4,48.9,48.9,73.3,73.3C199.9,230.8,199.1,239.7,192.4,243.9z"/>
</svg>
