<?xml version="1.0" encoding="utf-8"?>
<!-- Generator: Adobe Illustrator 25.0.1, SVG Export Plug-In . SVG Version: 6.00 Build 0)  -->
<svg version="1.1" id="Layer_1" xmlns="http://www.w3.org/2000/svg" xmlns:xlink="http://www.w3.org/1999/xlink" x="0px" y="0px"
	 viewBox="0 0 400 400" style="enable-background:new 0 0 400 400;" xml:space="preserve">
<g>
	<path d="M211.2,8.4c7.4,1,14.9,1.6,22.2,3c60.7,11.7,106,44.7,135.7,98.7c16.7,30.4,24,63.3,22.2,97.9
		c-2.7,54.2-24.5,99.6-65,135.7c-30.5,27.2-66.5,43-107.1,46.8c-56.9,5.3-107-11.4-149.2-50C37.6,311,18.2,274.1,10.9,230.8
		c-1.1-6.5-1.7-13-2.5-19.6c0-7.5,0-15,0-22.5c0.2-1.1,0.6-2.1,0.6-3.2c1.9-26.7,8.9-52.1,21.9-75.5c29.8-54,75.1-87,135.7-98.7
		c7.3-1.4,14.8-2,22.2-3C196.3,8.4,203.7,8.4,211.2,8.4z M200.2,21.2c-98.4-0.3-178.7,79.7-179.1,178.4
		c-0.4,98.5,79.8,179,178.6,179.3c98.5,0.3,178.7-79.7,179.1-178.4C379.3,102.1,299,21.5,200.2,21.2z"/>
	<path d="M231.7,315.6c-1.9,0-3.7-0.7-5-2.1l-94-94.2c-4.8-4.8-7.4-11.1-7.4-17.8c0-6.7,2.6-13.1,7.4-17.8l94-94.2
		c1.3-1.3,3.1-2.1,5-2.1c1.9,0,3.7,0.7,5,2.1c2.8,2.8,2.8,7.2,0,10l-94,94.2c-4.3,4.3-4.3,11.3,0,15.7l94,94.2c2.8,2.8,2.8,7.2,0,10
		C235.3,314.8,233.6,315.6,231.7,315.6L231.7,315.6z"/>
</g>
</svg>
