<?xml version="1.0" encoding="utf-8"?>
<!-- Generator: Adobe Illustrator 25.0.1, SVG Export Plug-In . SVG Version: 6.00 Build 0)  -->
<svg version="1.1" id="Layer_1" xmlns="http://www.w3.org/2000/svg" xmlns:xlink="http://www.w3.org/1999/xlink" x="0px" y="0px"
	 viewBox="0 0 300 300" style="enable-background:new 0 0 300 300;" xml:space="preserve">
<style type="text/css">
	.st0{fill:#FFFFFF;}
</style>
<path fill="#707070" d="M257.2,124.3l-31.2,31.2l31.2,31.2c5.2,5.2,5.2,13.5,0,18.7c-5.2,5.2-13.5,5.2-18.7,0l-31.2-31.2L176,205.5
	c-5.2,5.2-13.5,5.2-18.7,0c-5.2-5.2-5.2-13.5,0-18.7l31.2-31.2l-31.2-31.2c-5.2-5.2-5.2-13.5,0-18.7c5.2-5.2,13.5-5.2,18.7,0
	l31.2,31.2l31.2-31.2c5.2-5.2,13.5-5.2,18.7,0C262.4,110.7,262.4,119.1,257.2,124.3z"/>
<path fill="#707070" d="M280,0H99.6c0,0,0,0-0.1,0C70.8,0,33.3,0,19.3,0C6.8,0,1,5.3,1,16.6c0,88.9,0,177.7,0,266.6C1,294.8,6.7,300,19.5,300
	c20.2,0,90.4,0,110.5,0c1.3,0,2.5,0,4.1,0c0-0.1,0-0.2,0-0.3H280c11,0,20-9,20-20V20C300,9,291,0,280,0z M134.1,279.7
	c0-86.6,0-173,0-259.7H280l0,259.7L134.1,279.7z"/>
</svg>
