<?xml version="1.0" encoding="utf-8"?>
<!-- Generator: Adobe Illustrator 25.0.1, SVG Export Plug-In . SVG Version: 6.00 Build 0)  -->
<svg version="1.1" id="Layer_1" xmlns="http://www.w3.org/2000/svg" xmlns:xlink="http://www.w3.org/1999/xlink" x="0px" y="0px"
	 viewBox="0 0 800 600" style="enable-background:new 0 0 800 600;" xml:space="preserve">
<g>
	<path fill="#707070" d="M208.6,504.6c-1.2-0.6-2.3-1.2-3.5-1.7c-9.3-4.6-12.2-16.5-5.9-24.8c1.2-1.6,2.6-3,4-4.4
		c56.6-56.6,113.3-113.3,169.9-169.9c1.1-1.1,2.6-1.8,4.1-2.9c-1.9-2-3-3.2-4.1-4.3c-56.9-56.9-113.8-113.8-170.8-170.7
		c-5-5-8-10.6-5.9-17.9c3.2-11.6,16.7-16,26.2-8.5c1.5,1.1,2.8,2.5,4.1,3.8c56.5,56.5,113.1,113.1,169.6,169.6
		c1.1,1.1,2.2,2.4,3.6,3.9c1.4-1.3,2.5-2.3,3.6-3.4c57-57,114-114,171-171.1c5.4-5.4,11.5-8.1,19.1-5.6c5.7,1.9,8.7,6.6,11,11.8
		c0,2.4,0,4.8,0,7.2c-3,4.1-5.5,8.8-9,12.3c-56,56.3-112.2,112.4-168.4,168.5c-1.1,1.1-2.6,1.8-4.8,3.3c2.4,1.9,3.8,2.8,4.9,3.9
		c56.2,56.1,112.3,112.2,168.4,168.5c3.6,3.6,6,8.2,9,12.4c0,2.4,0,4.8,0,7.2c-2.3,6.2-6.6,10.4-12.8,12.8c-2.4,0-4.8,0-7.2,0
		c-4.1-3-8.8-5.5-12.4-9c-56.3-56-112.4-112.2-168.5-168.4c-1.1-1.1-1.8-2.6-3.3-4.9c-1.9,2.4-2.8,3.8-3.9,4.9
		c-56.1,56.2-112.2,112.3-168.5,168.4c-3.6,3.6-8.2,6-12.3,9C213.4,504.6,211,504.6,208.6,504.6z"/>
</g>
</svg>
