<?xml version="1.0" encoding="utf-8"?>
<!-- Generator: Adobe Illustrator 25.0.1, SVG Export Plug-In . SVG Version: 6.00 Build 0)  -->
<svg version="1.1" id="Layer_1" xmlns="http://www.w3.org/2000/svg" xmlns:xlink="http://www.w3.org/1999/xlink" x="0px" y="0px"
	 viewBox="0 0 250 250" style="enable-background:new 0 0 250 250;" xml:space="preserve">
<style type="text/css">
	.st0{fill:#707070;}
</style>
<path class="st0" d="M222.5,248.2H27.8c-13.9,0-25.3-11.3-25.3-25.3V28.1c0-13.9,11.3-25.3,25.3-25.3h194.8c13.9,0,25.3,11.3,25.3,25.3v194.8
	C247.8,236.8,236.5,248.2,222.5,248.2z M27.8,16.8c-6.2,0-11.3,5.1-11.3,11.3v194.8c0,6.2,5.1,11.3,11.3,11.3h194.8
	c6.2,0,11.3-5.1,11.3-11.3V28.1c0-6.2-5.1-11.3-11.3-11.3H27.8z"/>
<g>
	<path class="st0" d="M224.7,64.6c-1.7,2.5-3.1,5.2-5,7.4c-38.6,45.1-77.2,90.2-115.9,135.3c-4.8,5.6-10.9,5.8-16.1,0.6
		c-19.4-19.4-38.9-38.9-58.3-58.3c-4.1-4.1-4.6-9.7-1.2-13.8c3.8-4.7,10.4-5,14.9-0.6c5.2,5.1,10.3,10.2,15.4,15.3
		c11.6,11.6,23.2,23.2,34.8,34.9c0.5,0.5,0.9,1.1,1.5,1.8c0.7-0.8,1.2-1.3,1.6-1.9c36.3-42.3,72.6-84.6,108.8-127
		c0.8-0.9,1.6-1.9,2.4-2.8c5.1-5.2,13.8-3.4,16.4,3.5c0.2,0.5,0.4,1.1,0.6,1.6C224.7,62,224.7,63.3,224.7,64.6z"/>
</g>
</svg>
