<svg xmlns="http://www.w3.org/2000/svg" width="24.44" height="21.328" viewBox="0 0 24.44 21.328">
  <g id="Gruppe_4" data-name="Gruppe 4" transform="translate(-253 -381.524)">
    <path id="Pfad_20" data-name="Pfad 20" d="M253,437.75c.048-.071.1-.14.144-.214q.872-1.5,1.738-3.01a.3.3,0,0,1,.3-.172q1.789.009,3.579,0a.3.3,0,0,1,.3.169c.6,1.04,1.2,2.074,1.791,3.116a.351.351,0,0,1,0,.294c-.6,1.049-1.2,2.09-1.8,3.137a.28.28,0,0,1-.282.158c-1.193,0-2.386-.007-3.579,0a.314.314,0,0,1-.313-.191q-.857-1.5-1.727-2.989a2.334,2.334,0,0,0-.149-.2Z" transform="translate(0 -38.377)"/>
    <path id="Pfad_21" data-name="Pfad 21" d="M324.768,438.521a8.285,8.285,0,0,1-.511,1.34,3.262,3.262,0,0,1-3.828,1.409,3.3,3.3,0,1,1,4.294-3.669,1.279,1.279,0,0,0,.046.158Z" transform="translate(-47.328 -38.719)"/>
    <path id="Pfad_22" data-name="Pfad 22" d="M287.352,387.831v-6.307h6.315v6.307Z" transform="translate(-24.954)"/>
    <path id="Pfad_23" data-name="Pfad 23" d="M282.742,412.216h-7.22v2.7h-1.106v-2.7h-7.749v2.7h-1.083v-3.8h8.827v-2.472H275.5V411.1h8.3v3.816h-1.065Z" transform="translate(-9.141 -19.704)"/>
    <path id="Pfad_24" data-name="Pfad 24" d="M284.891,440.784l4.2-6.365,4.2,6.365Z" transform="translate(-23.166 -38.424)"/>
  </g>
</svg>
