<?xml version="1.0" encoding="utf-8"?>
<!-- Generator: Adobe Illustrator 25.0.1, SVG Export Plug-In . SVG Version: 6.00 Build 0)  -->
<svg version="1.1" id="Layer_1" xmlns="http://www.w3.org/2000/svg" xmlns:xlink="http://www.w3.org/1999/xlink" x="0px" y="0px"
	 viewBox="0 0 436 427" style="enable-background:new 0 0 436 427;" xml:space="preserve">
	 <style type="text/css">
	.bg-primary{fill:#2388AE;}
</style>
<g class="bg-primary">
	<path  d="M66.1,419.6c-4.4-1.3-9-2.1-13.2-4c-20.3-8.8-31.3-24.4-32.9-46.4c-0.5-7.1,2.7-10.3,9.9-10.3c16,0,31.9,0,47.9,0
		c1.3,0,2.6,0,4.6,0c-5.4-5.2-10.5-9.6-15.1-14.4c-31.4-32.7-47-71.9-47.4-117.1c-0.2-22.1,0-44.2,0-66.3c0-7.4,2.9-10.4,10.4-10.4
		c18.9,0,37.8,0,56.7,0c1.6,0,3.2,0.2,4.7,0.6c3.4,0.9,5.8,4.4,5.6,7.8c-0.2,3.5-2.9,6.7-6.3,7.3c-1.6,0.3-3.2,0.3-4.8,0.3
		c-15.2,0-30.3,0-45.5,0c-1.4,0-2.9,0-4.5,0c-0.1,1.5-0.2,2.7-0.2,3.8c0,19-0.4,38.1,0.1,57.1c1.3,55.9,25.4,99.2,72.4,129.6
		c1.7,1.1,3.9,1.7,5.9,1.7c48.8,0.1,97.7,0.1,146.5,0c2.1,0,4.5-0.6,6.3-1.8c41-26.1,64.6-63.3,71.2-111.3c0.9-6.3,1-12.7,1.1-19.1
		c0.1-18.5,0-37,0-55.5c0-1.3,0-2.6,0-4.4c-2,0-3.7,0-5.4,0c-51.8,0-103.5,0-155.3,0c-1.7,0-3.5,0-5.2-0.2c-3.7-0.5-6.5-3.8-6.6-7.4
		c-0.1-3.5,2.3-6.9,5.7-7.7c1.8-0.4,3.7-0.6,5.5-0.6c55.2,0,110.4,0,165.6,0c8.9,0,11.5,2.5,11.5,11.3c0,4.4,0,8.7,0,13.6
		c1.9,0,3.4,0,5,0c19.2,0,38.3,0.1,57.5,0c5,0,8.9,1.2,11,6c0,22.4,0,44.7,0,67.1c-0.3,1.1-0.7,2.2-0.9,3.4
		c-5,33.4-31.5,60.1-64.8,64.4c-10,1.3-20.1,0.9-30.2,1c-2.6,0-4.1,0.8-5.5,2.9c-8.9,13.6-19.6,25.5-32,35.8c-0.8,0.6-1.7,1-2.6,1.5
		c0.3,0.4,0.6,0.7,0.9,1.1c1.4,0,2.9,0,4.3,0c22.2,0,44.4,0,66.6,0c7.2,0,10.4,3.2,9.9,10.4c-1.7,22-12.7,37.6-33,46.4
		c-4.2,1.8-8.8,2.7-13.2,3.9C240.7,419.6,153.4,419.6,66.1,419.6z M37,375c3.5,16.9,18.3,28.6,36.4,28.6
		c82.5,0.1,164.9,0.1,247.4-0.1c5.9,0,12.2-1.7,17.6-4.2c10.1-4.7,16.3-13.1,18.9-24.3C250.3,375,143.8,375,37,375z M355.4,191.8
		c0,5.3,0,10.4,0,15.4c0.5,0.1,0.8,0.3,1,0.3c10.1,0,20.2,0,30.3,0.1c7.1,0.1,9.9,3,9.9,10c0,8.1,0.2,16.2-0.1,24.3
		c-0.6,15.5-7.5,27.7-20.4,36.4c-8.3,5.6-17.7,7.6-27.7,7.3c-1.4,0-3.5,0.5-4,1.4c-2.2,4.6-4,9.4-6.1,14.4c5.4,0,10.3,0.2,15.2,0
		c32.6-1.2,58.2-26.9,58.9-59.5c0.4-16.1,0.1-32.2,0.1-48.3c0-0.6-0.2-1.3-0.4-1.9C393.3,191.8,374.4,191.8,355.4,191.8z
		 M356.2,223.8c-1.7,15.3-3.5,30.4-5.2,45.8c8.6,0.3,16.1-2.9,22.2-9.5c9.9-10.6,7.3-23.6,7.5-36.3
		C372,223.8,363.8,223.8,356.2,223.8z"/>
	<path d="M237,37.4c-0.6,1.4-1.3,3.4-2.4,5.2c-5.7,9.3-5.3,17.5,1.5,26.2c4.9,6.2,9.4,12.6,11.3,20.4c3.6,14.5,0.3,27.4-8.9,38.9
		c-2.1,2.6-4.7,5-7.5,6.6c-3,1.7-6,0.1-8.1-2.5c-2.1-2.6-2.5-5.6-0.8-8.5c1-1.8,2.4-3.5,3.7-5.2c9.6-12.2,9.6-25.1-0.2-37.1
		c-5.6-6.9-9.8-14.2-10.7-23.2c-0.9-9.6,1.8-18.1,7.5-25.8c2.3-3.1,5.6-4.1,9.2-2.9C235,30.5,236.5,33.2,237,37.4z"/>
	<path d="M192.4,20.1c-0.5,1-1.1,2.9-2.1,4.5c-5.6,9.2-5.3,17.7,1.4,26.2c4.6,5.8,8.8,11.6,10.9,18.8c4.1,14.6,1.2,27.8-7.9,39.8
		c-1.4,1.8-2.7,3.6-4.3,5.2c-2.9,3-7.4,3.3-10.5,0.9c-3.2-2.5-4.1-6.7-1.9-10.4c1-1.7,2.3-3.2,3.5-4.8c9.6-12.2,9.4-24.9-0.2-37.2
		c-2.8-3.6-5.6-7.5-7.5-11.7c-5.8-13-4.1-25.4,4.1-36.9c2.4-3.5,6-4.6,9.4-3.3C190.8,12.8,192.5,15.3,192.4,20.1z"/>
	<path d="M140.2,28.3c6.2,0.9,9.7,6.5,7.2,11.8c-0.4,0.8-0.9,1.6-1.4,2.4c-5.8,9.5-5.4,17.8,1.6,26.5c6.6,8.1,11.5,16.9,12.4,27.5
		c1.1,14.6-4.8,26.4-14.5,36.6c-2.5,2.7-7.1,2.6-9.9,0.5c-3.1-2.4-4.1-6.4-2.2-10c1.1-2,2.6-3.7,3.9-5.5c9.2-12,9.3-24.7-0.1-36.5
		c-5.8-7.2-10.3-14.8-11-24.3c-0.6-9.4,2-17.9,7.8-25.3C135.5,30.3,138.2,29.5,140.2,28.3z"/>
	<path d="M316.5,234.9c-2.2,32-14.2,59.6-36.2,83c-3.8,4.1-8.4,4.7-12,1.6c-3.5-3-3.5-7.8,0-12.1c1.2-1.4,2.5-2.8,3.7-4.2
		c13.9-15.7,22.8-33.9,26.7-54.4c1.2-6.4,1.5-12.9,2-19.4c0.5-5.8,3.5-9.5,8.2-9.4c4.9,0.1,7.9,4,7.8,10.1
		C316.7,231.7,316.6,233.3,316.5,234.9z"/>
	<path d="M247.5,325.6c4.2,0,7.8,3.7,7.8,7.9c0,4.4-3.6,8-8.1,8c-4.4,0-7.8-3.4-7.8-7.8C239.4,329.3,243.2,325.5,247.5,325.6z"/>
	<path d="M142,158.7c0,4.3-3.5,7.9-7.8,7.9c-4.3,0-8-3.6-8-7.8c0-4.2,3.6-7.9,7.9-7.9C138.4,150.9,142,154.4,142,158.7z"/>
</g>
</svg>
