<svg xmlns="http://www.w3.org/2000/svg" width="116.693" height="117.072" viewBox="0 0 116.693 117.072">
  <g id="Gruppe_367" data-name="Gruppe 367" transform="translate(-0.969 0)">
    <path id="Pfad_575" data-name="Pfad 575" d="M52.93,0V117.07H51.347c-7.875,0-35.262.006-43.137,0-5-.005-7.239-2.043-7.24-6.551Q.968,58.5.971,6.49C.971,2.081,3.245.014,8.134.007,16.06-.005,43.5,0,51.424,0Z" transform="translate(0 0)" fill="#707070"/>
    <path id="Pfad_576" data-name="Pfad 576" d="M211.569.005C203.694,0,176.306,0,168.431,0h-1.582V117.069h1.506c7.926,0,35.364.009,43.29,0,4.889-.007,7.164-2.075,7.164-6.483q0-52.013,0-104.025C218.808,2.048,216.564.011,211.569.005ZM209.89,62.467H196.76V75.6a3.93,3.93,0,1,1-7.861,0V62.467h-13.13a3.931,3.931,0,0,1,0-7.861H188.9V41.476a3.93,3.93,0,1,1,7.861,0v13.13h13.13a3.931,3.931,0,0,1,0,7.861Z" transform="translate(-101.147 0)" fill="#707070"/>
  </g>
</svg>
