<?xml version="1.0" encoding="utf-8"?>
<!-- Generator: Adobe Illustrator 25.0.1, SVG Export Plug-In . SVG Version: 6.00 Build 0)  -->
<svg version="1.1" id="Layer_1" xmlns="http://www.w3.org/2000/svg" xmlns:xlink="http://www.w3.org/1999/xlink" x="0px" y="0px"
	 viewBox="0 0 300 300" style="enable-background:new 0 0 300 300;" xml:space="preserve">
<style type="text/css">
	.st0{fill:#FFFFFF;}
</style>
<path class="st0" d="M300,83.2c-100.2,0-199.9,0-300,0c0-1.5,0-2.8,0-4.1c0-20.2,0-40.4,0-60.5C0,5.8,5.2,0,16.8,0c88.9,0,177.7,0,266.6,0
	C294.7,0,300,5.8,300,18.4c0,20.3,0,40.6,0,60.9C300,80.5,300,81.6,300,83.2z"/>
<path class="st0" d="M105.2,110.8c29.9,0,59.6,0,89.5,0c0,60.9,0,127.8,0,188.9c-29.7,0-59.5,0-89.5,0C105.2,238.8,105.2,171.9,105.2,110.8z"/>
<path class="st0" d="M74.7,300c-5,0-9.6,0-14.3,0c-15,0-30,0-45,0c-9.5,0-15.3-6.2-15.3-16.6C0,228.8,0,168.2,0,113.7c0-0.9,0.2-1.8,0.3-2.9
	c24.8,0,49.5,0,74.4,0C74.7,171.8,74.7,238.7,74.7,300z"/>
<path class="st0" d="M225.3,300c0-61.2,0-128.1,0-189.2c24.9,0,49.5,0,74.7,0c0,1.5,0,2.9,0,4.3c0,53.4,0,112.7,0,166.1c0,13-5.2,18.7-17,18.8
	c-17.9,0-35.9,0-53.8,0C228,300,226.7,300,225.3,300z"/>
</svg>
