<?xml version="1.0" encoding="utf-8"?>
<!-- Generator: Adobe Illustrator 25.0.1, SVG Export Plug-In . SVG Version: 6.00 Build 0)  -->
<svg version="1.1" xmlns="http://www.w3.org/2000/svg" xmlns:xlink="http://www.w3.org/1999/xlink" x="0px" y="0px"
	 viewBox="0 0 512 512" style="enable-background:new 0 0 512 512;" xml:space="preserve">
<style type="text/css">
	.st0{fill:none;stroke:#565656;stroke-width:15;stroke-linecap:round;stroke-linejoin:round;stroke-miterlimit:10;}
	.st1{fill:none;stroke:#565656;stroke-width:15;stroke-miterlimit:10;}
	.st2{fill:none;stroke:#565656;stroke-width:15;stroke-linecap:round;stroke-miterlimit:10;}
	.st3{fill:none;stroke:#565656;stroke-width:15;stroke-linecap:round;}
	.st4{fill:#565656;}
	.st5{fill:none;stroke:#565656;stroke-width:15;stroke-linecap:round;stroke-linejoin:round;}
	.st6{fill:none;stroke:#565656;stroke-width:15;stroke-linecap:round;stroke-linejoin:round;stroke-dasharray:24.8533,49.7066;}
	
		.st7{fill:none;stroke:#565656;stroke-width:15;stroke-linecap:round;stroke-linejoin:round;stroke-dasharray:24.8533,49.7066,24.8533,49.7066;}
	.st8{fill:#BABABA;}
	.st9{fill:none;stroke:#2388AE;stroke-width:15;stroke-linecap:round;}
	.st10{fill:none;stroke:#565656;stroke-width:15;stroke-linecap:round;stroke-miterlimit:10;stroke-dasharray:32.1931,42.9241;}
	
		.st11{fill:none;stroke:#565656;stroke-width:15;stroke-linecap:round;stroke-miterlimit:10;stroke-dasharray:32.1931,42.9241,32.1931,42.9241;}
	.st12{fill:none;stroke:#565656;stroke-width:15;stroke-linejoin:round;stroke-miterlimit:10;}
	.st13{fill:none;stroke:#2388AE;stroke-width:15;stroke-linecap:round;stroke-linejoin:round;stroke-miterlimit:10;}
	.st14{fill:none;stroke:#2388AE;stroke-width:15;stroke-miterlimit:10;}
	.st15{fill:none;stroke:#2388AE;stroke-width:15;stroke-linecap:round;stroke-miterlimit:10;}
</style>
<g id="Layer_1">
	<g>
		<path class="st4" d="M255.9,374.9c-14.6,0-30.1-5.3-42.5-14.5c-15-11.2-24.7-27.4-28.1-47l-0.2-1.1l-1.1,0.3
			c-9,2.4-15.8,10.8-16.9,21c-0.4,4.2-2,9.1-6.9,9.1c-0.3,0-0.5,0-0.8,0c-2-0.2-3.5-1-4.6-2.3c-1.5-1.8-2-4.7-1.5-8.3
			c2.3-16.9,11.6-28.2,27.8-33.5l0.6-0.2c0.6-0.2,1.1-0.4,1.7-0.6c0.3-0.1,0.5-0.3,0.7-0.5c0.1-0.1,0.1-0.1,0.2-0.2l0.4-0.3V279
			h-5.8c-3.2,0-6.4,0-9.7,0c-3.2,0-6.4,0-9.6,0c-5.8,0-10.6,0-15-0.1c-4.5,0-7.7-3-7.7-7c0-3.7,2.9-6.6,7.1-6.9
			c0.5,0,0.9-0.1,1.4-0.1c0.3,0,1.4,0,1.7,0l37.5,0v-18.5l-0.7-0.2c-8.3-2.3-14.8-5.9-19.7-11c-6.7-7-10.5-15.5-11.1-25.4
			c-0.3-4.9,2.2-8.3,6.4-8.6c0.2,0,0.4,0,0.7,0c3.8,0,6.5,3,6.8,7.6c0.8,10.2,5.7,17.6,14.6,21.9c0.7,0.3,1.4,0.5,2,0.7
			c0.2,0.1,0.4,0.1,0.6,0.1c0.1,0,0.2,0,0.3,0c0.1,0,0.3,0,0.6,0h0.8l0.2-0.7c2.2-7.8,6.1-14.3,11.5-19.3c5.5-5,12.2-8.4,19.9-9.9
			l1-0.2l-0.2-1c-2.8-14.9-0.7-21.4,12.6-39l0.5-0.7l-0.7-0.6c-1-1-2.1-1.9-3.2-2.9c-2.5-2.2-5.1-4.6-7.3-7.1
			c-1.5-1.8-3.1-4.7-2.9-6.9c0.2-1.8,2.3-4.2,4.3-5.4c0.8-0.5,1.6-0.7,2.4-0.7c1.5,0,3.2,0.8,4.7,2.3c4.1,3.9,8.4,8.1,13,12.9
			c1.4,1.4,2.8,2,4.8,2c0.4,0,0.8,0,1.2-0.1c1.7-0.1,3.5-0.2,5.8-0.2c1.4,0,2.8,0,4.2,0c1.4,0,2.8,0,4.2,0c0.8,0,1.6,0,2.4,0
			c1,0,3.6-0.2,5.1-1.6c2.6-2.4,5.1-4.9,7.5-7.3c1.8-1.8,3.7-3.7,5.6-5.5c1.2-1.1,3-2.5,4.9-2.5c0.8,0,1.5,0.2,2.2,0.6
			c2.1,1.3,4.4,3.7,4.7,5.6c0.3,2-1.3,5-2.9,6.9c-2.2,2.6-4.6,4.9-7.2,7.3c-1.1,1-2.2,2.1-3.3,3.1l-0.7,0.7l0.7,0.7
			c11.7,11.6,15.8,24.1,12.7,38.3l-0.2,1l1,0.2c16.1,3.6,26.6,13.4,31.3,29.1l0.2,0.8l0.8-0.1c7.2-0.7,14.8-8.1,17.1-16.5
			c0.4-1.7,0.6-3.5,0.8-5.2c0-0.4,0.1-0.8,0.1-1.3c0.5-4.3,3.3-7.2,6.9-7.2c0.2,0,0.4,0,0.7,0c4,0.4,6.5,3.7,6.4,8.3
			c-0.7,16.5-11.8,30.9-27.6,35.7c-0.8,0.2-1.5,0.5-2.3,0.8l-1.8,0.6V265h5.8c3.2,0,6.4,0,9.6,0c3.2,0,6.4,0,9.6,0
			c5.9,0,10.7,0,15,0.1c4.4,0,7.5,2.7,7.7,6.6c0.2,3.7-2.6,6.8-6.6,7.2c-0.7,0.1-1.3,0.1-1.9,0.1l-1.5,0l-37.5,0v17.6l0.5,0.3
			c1.6,0.8,3.3,1.6,4.9,2.4c3.5,1.7,6.9,3.2,9.9,5.3c9.8,6.8,15.3,16.7,16.2,29.6c0.3,4.9-2.1,8.3-6.3,8.7c-0.2,0-0.5,0-0.7,0
			c-3.8,0-6.5-3-6.8-7.5c-0.7-9.4-5-16.5-12.7-21c-0.7-0.4-1.5-0.8-2.6-1.3c-0.4-0.2-0.9-0.3-1.2-0.3c-0.1,0-0.3-0.1-0.4-0.1l-1-0.2
			l-0.2,1.1c-6.6,40.1-40.3,61.3-70.2,61.6C256.4,374.9,255.9,374.9,255.9,374.9z M233.1,215c-3.4,0-6.3,0-8.9,0.1
			c-14.4,0.4-24.9,10.9-25,25.2l-0.1,8.9c-0.2,18.6-0.4,37.8,0.2,56.6c0.7,21.4,11.3,38.2,30.8,48.6c3.6,1.9,7.5,3.2,11.7,4.5
			c1.9,0.6,3.9,1.3,5.9,2l1.3,0.5v-19.7c0-16.8,0-33.6,0-50.5l0-0.6c0-1.3,0-2.4,0.2-3.6c0.6-3.5,3.4-6,6.7-6c3.4,0,6.2,2.5,6.8,5.9
			c0.2,1.2,0.2,2.5,0.2,3.7l0,0.5c0,17.1,0,34.3,0,51.4V360l1.1-0.1c0.3,0,0.7,0,0.9,0c0.6,0,1,0,1.5-0.1
			c25.5-4.6,45.3-27.1,46.1-52.3c0.7-21.6,0.4-43.6,0.2-64.9l0-3.4c-0.1-11.6-7.9-21.2-18.4-23c-6.9-1.1-14.1-1.3-21-1.4
			c-3.1-0.1-6.2-0.1-9.4-0.2l-1,0v1c0,1,0,2,0,2.8c0,1.7,0,3.1,0,4.5c-0.1,4.8-2.9,8-6.9,8l-0.1,0c-3.9-0.1-6.7-3.2-6.9-7.9
			c0-1.5,0-3,0-4.6c0-0.8,0-1.6,0-2.4v-1h-1c-2.6,0-5.1,0-7.6,0C237.9,215,235.5,215,233.1,215z M255.9,167.2
			c-12.6,0-23.5,9.9-24.7,22.5c-0.3,3.5,0.4,6.3,2.2,8.3c1.7,2,4.5,3,7.9,3.1c1.8,0,3.7,0,5.5,0c1.5,0,2.9,0,4.4,0
			c1.5,0,2.9,0,4.4,0c1.5,0,3.1,0,4.6,0c1.6,0,3.1,0,4.7,0c1.9,0,3.9,0,5.8,0c3.4-0.1,6.1-1.1,7.9-3.1c1.8-2,2.5-4.8,2.2-8.3
			c-1.3-12.7-11.8-22.4-24.6-22.5L255.9,167.2z"/>
		<path class="st4" d="M255.9,262.9c-3.6-0.1-6.9-3.5-6.8-7.1c0.1-3.6,3.3-6.8,6.9-6.8l0.2,0c1.7,0,3.5,0.8,4.8,2.2
			c1.3,1.4,2,3.1,2,4.9c-0.1,3.6-3.3,6.8-6.9,6.8L255.9,262.9z"/>
	</g>
	<circle class="st1" cx="256" cy="256" r="218"/>
	<line class="st2" x1="256" y1="8" x2="256" y2="74.2"/>
	<line class="st2" x1="256" y1="437" x2="256" y2="503.2"/>
	<g>
		<line class="st2" x1="8.2" y1="256" x2="74.3" y2="256"/>
		<line class="st2" x1="437.2" y1="256" x2="503.3" y2="256"/>
	</g>
</g>
<g id="Einstellungen">
</g>
</svg>
