<svg id="Gruppe_7" data-name="Gruppe 7" xmlns="http://www.w3.org/2000/svg" width="14.621" height="14.683" viewBox="0 0 14.621 14.683">
  <path id="Pfad_25" data-name="Pfad 25" d="M206.657,244.248h-6.912c.03-.024.059-.049.089-.072a4.674,4.674,0,0,0,1.743-2.538c.075-.269.116-.547.175-.831h.167q1.678,0,3.355,0a.469.469,0,0,0,.376-.14.4.4,0,0,0,.078-.465.43.43,0,0,0-.427-.257h-3.57a4.913,4.913,0,0,0-.493-1.721h1.8c.75,0,1.5,0,2.251,0a.437.437,0,0,0,.439-.261.43.43,0,0,0-.431-.6c-1.482,0-2.964,0-4.445,0a.381.381,0,0,1-.314-.146,4.6,4.6,0,0,0-3.084-1.551c-.282-.025-.569,0-.866,0v-.161q0-2.287,0-4.574a1.292,1.292,0,0,1,1.364-1.368h6.093v.179q0,1.52,0,3.039a.445.445,0,0,0,.508.51h3.221v4.713q0,2.459,0,4.918a1.288,1.288,0,0,1-.859,1.248C206.831,244.2,206.743,244.223,206.657,244.248Zm-4.476-9.464h-.2q-1.469,0-2.937,0a.429.429,0,0,0-.1.848.881.881,0,0,0,.185.011h6.19a.422.422,0,0,0,.419-.268.429.429,0,0,0-.428-.592Q203.743,234.783,202.181,234.785Z" transform="translate(-193.155 -229.566)" fill="#7a7a7a"/>
  <g id="Gruppe_6" data-name="Gruppe 6" transform="translate(0 6.934)">
    <path id="Pfad_26" data-name="Pfad 26" d="M195.47,497.673h.705l.18-.92h-.7Z" transform="translate(-192.078 -493.453)" fill="#7a7a7a"/>
    <path id="Pfad_27" data-name="Pfad 27" d="M114.611,413.828a3.883,3.883,0,0,0-4.367-3.19,3.841,3.841,0,0,0-3.29,4.245,3.723,3.723,0,0,0,2.54,3.226,7.2,7.2,0,0,0,.984.234h.631l.224-.037A3.872,3.872,0,0,0,114.611,413.828Zm-2.529.987a.45.45,0,0,1,.319.1.337.337,0,0,1,.107.256.324.324,0,0,1-.106.251.464.464,0,0,1-.321.1H111.6l-.149.727q-.035.174-.062.269a.359.359,0,0,1-.1.166.307.307,0,0,1-.218.071.344.344,0,0,1-.25-.089.306.306,0,0,1-.092-.231,1.489,1.489,0,0,1,.044-.323l.117-.591h-.7l-.149.727a1.646,1.646,0,0,1-.119.387.269.269,0,0,1-.264.118.349.349,0,0,1-.253-.089.306.306,0,0,1-.092-.231.863.863,0,0,1,.017-.163q.017-.09.03-.16l.117-.591q-.436-.009-.436-.348a.333.333,0,0,1,.109-.258.461.461,0,0,1,.321-.1h.149l.18-.92h-.329a.453.453,0,0,1-.318-.1.328.328,0,0,1-.112-.251.323.323,0,0,1,.109-.255.471.471,0,0,1,.321-.1h.471l.149-.724a1.553,1.553,0,0,1,.077-.288.354.354,0,0,1,.117-.158.324.324,0,0,1,.194-.054.347.347,0,0,1,.256.089.308.308,0,0,1,.089.228q0,.032-.054.319l-.117.588h.692l.152-.724q.032-.164.06-.266a.364.364,0,0,1,.1-.171.306.306,0,0,1,.217-.07.356.356,0,0,1,.254.085.3.3,0,0,1,.09.231,1.048,1.048,0,0,1-.008.13q-.008.063-.021.122l-.016.074-.117.594q.452.009.452.351a.321.321,0,0,1-.107.253.47.47,0,0,1-.319.095h-.161l-.19.92Z" transform="translate(-106.93 -410.594)" fill="#7a7a7a"/>
  </g>
  <path id="Pfad_28" data-name="Pfad 28" d="M414.007,236.993l2.571,2.571h-2.571Z" transform="translate(-402.245 -236.709)" fill="#7a7a7a"/>
</svg>
