<svg xmlns="http://www.w3.org/2000/svg" width="330.038" height="108.971" viewBox="0 0 330.038 108.971">
  <g id="Gruppe_337" data-name="Gruppe 337" transform="translate(-4.661 -3.179)">
    <path id="Pfad_503" data-name="Pfad 503" d="M62.558,3.179c1.07.128,2.139.254,3.208.385A53.141,53.141,0,0,1,94.783,16.433,52.469,52.469,0,0,1,112.431,46.26c3.456,17.216-.305,32.8-11.518,46.371a52.636,52.636,0,0,1-30.39,18.332c-2.43.518-4.93.712-7.4,1.059-.192.027-.38.084-.569.128H55.879c-.194-.04-.387-.093-.583-.119-2.247-.295-4.52-.456-6.737-.9A53.565,53.565,0,0,1,18.282,93.71,53.15,53.15,0,0,1,5.046,64.278c-.131-1.069-.257-2.139-.385-3.209v-6.81a4.86,4.86,0,0,0,.123-.5c.348-2.488.542-5.009,1.063-7.461A53.334,53.334,0,0,1,23.528,16.425,53.143,53.143,0,0,1,52.536,3.566c1.069-.131,2.138-.257,3.207-.385ZM59.063,100.67h.177L85.27,15.4C69,5.113,47.8,5.877,32.97,15.461Z" fill="#030504"/>
    <path id="Pfad_511" data-name="Pfad 511" d="M59.063,100.669,32.973,15.463C47.8,5.88,69,5.115,85.273,15.4l-26.03,85.271ZM44.412,31.707c.261-.113.444-.187.622-.271,4.562-2.172,9.12-4.351,13.691-6.5a1.213,1.213,0,0,1,.915.014c4.589,2.167,9.166,4.36,13.747,6.545a4.272,4.272,0,0,0,.482.164V15.537c-.2.082-.322.128-.443.186Q66.556,19,59.68,22.27a1.233,1.233,0,0,1-.922.052c-3.467-1.624-6.917-3.285-10.373-4.933-1.3-.619-2.6-1.231-3.973-1.881ZM59.145,46.224a2.948,2.948,0,0,0,3-2.893c0-.04,0-.08,0-.119a3,3,0,0,0-5.99,0c0,.016,0,.032,0,.048a2.947,2.947,0,0,0,2.935,2.96Zm-.012,13.485a2.946,2.946,0,0,0,3.015-2.875c0-.042,0-.083,0-.125a3,3,0,0,0-6-.013v.042a2.945,2.945,0,0,0,2.92,2.971Zm.039,13.484a2.947,2.947,0,0,0,2.981-2.911v-.059A3,3,0,0,0,59.176,67.2h-.039a2.993,2.993,0,0,0-2.985,3v.06a2.943,2.943,0,0,0,2.954,2.932h.065Z" fill="#fff"/>
    <path id="Pfad_513" data-name="Pfad 513" d="M44.415,31.708v-16.2c1.373.65,2.675,1.261,3.973,1.881,3.456,1.649,6.906,3.309,10.373,4.933a1.233,1.233,0,0,0,.922-.052q6.882-3.254,13.746-6.547c.121-.058.247-.1.443-.186v16.12a4.272,4.272,0,0,1-.482-.164c-4.581-2.185-9.158-4.378-13.747-6.545a1.213,1.213,0,0,0-.915-.014c-4.571,2.151-9.13,4.33-13.691,6.5C44.856,31.521,44.673,31.594,44.415,31.708Z" fill="#030504"/>
    <path id="Pfad_514" data-name="Pfad 514" d="M59.14,46.224a2.949,2.949,0,0,1-2.989-2.907v-.053A2.993,2.993,0,0,1,59.1,40.229h.048a3,3,0,0,1,2.989,2.983,2.947,2.947,0,0,1-2.881,3.011Z" fill="#030504"/>
    <path id="Pfad_515" data-name="Pfad 515" d="M59.133,59.709a2.946,2.946,0,0,1-2.977-2.915v-.056a3,3,0,0,1,2.977-3.023h.039a2.994,2.994,0,0,1,2.977,2.994,2.946,2.946,0,0,1-2.891,3Z" fill="#030504"/>
    <path id="Pfad_516" data-name="Pfad 516" d="M59.171,73.194a2.943,2.943,0,0,1-3.015-2.869v-.063A3,3,0,0,1,59.08,67.2h.052a3,3,0,0,1,3.016,2.984v.039a2.946,2.946,0,0,1-2.921,2.971Z" fill="#030504"/>
    <g id="DocBits_Scan" data-name="DocBits Scan" style="mix-blend-mode: normal;isolation: isolate">
      <g id="Gruppe_338" data-name="Gruppe 338" style="mix-blend-mode: normal;isolation: isolate">
        <path id="Pfad_518" data-name="Pfad 518" d="M134.85,53.591v-35h15.9A22.19,22.19,0,0,1,160.8,20.766a16.544,16.544,0,0,1,6.8,6.1,17.068,17.068,0,0,1,2.451,9.225,17.065,17.065,0,0,1-2.451,9.225,16.544,16.544,0,0,1-6.8,6.1,22.19,22.19,0,0,1-10.051,2.175Zm8.15-6.6h7.35a13.115,13.115,0,0,0,6.076-1.325,9.572,9.572,0,0,0,4-3.8,11.38,11.38,0,0,0,1.424-5.775,11.35,11.35,0,0,0-1.424-5.8,9.626,9.626,0,0,0-4-3.775,13.127,13.127,0,0,0-6.076-1.325H143Z" fill="#030504"/>
        <path id="Pfad_519" data-name="Pfad 519" d="M188.35,53.991a15.652,15.652,0,0,1-7.575-1.8,13.983,13.983,0,0,1-5.225-19.225,13.323,13.323,0,0,1,5.225-4.9,15.834,15.834,0,0,1,7.575-1.775A16.1,16.1,0,0,1,196,28.066a13.3,13.3,0,0,1,5.25,4.9,13.542,13.542,0,0,1,1.9,7.175A13.186,13.186,0,0,1,196,52.191,15.912,15.912,0,0,1,188.35,53.991Zm0-6.4a6.955,6.955,0,0,0,3.525-.875,6.417,6.417,0,0,0,2.45-2.575,8.25,8.25,0,0,0,.925-4,8.072,8.072,0,0,0-.925-4,6.5,6.5,0,0,0-2.45-2.525,6.861,6.861,0,0,0-3.475-.875,6.994,6.994,0,0,0-3.5.875,6.432,6.432,0,0,0-2.475,2.525,8.05,8.05,0,0,0-.925,4,8.227,8.227,0,0,0,.925,4,6.349,6.349,0,0,0,2.475,2.575A6.884,6.884,0,0,0,188.35,47.591Z" fill="#030504"/>
        <path id="Pfad_520" data-name="Pfad 520" d="M221.35,53.991a16.34,16.34,0,0,1-7.725-1.775A13.265,13.265,0,0,1,206.4,40.141a13.267,13.267,0,0,1,1.925-7.15,13.678,13.678,0,0,1,5.3-4.9,16.163,16.163,0,0,1,7.725-1.8,14.976,14.976,0,0,1,7.425,1.775,10.311,10.311,0,0,1,4.575,5.025l-6,3.3a7.234,7.234,0,0,0-2.65-2.775,6.8,6.8,0,0,0-3.4-.875,7.278,7.278,0,0,0-3.55.875,6.5,6.5,0,0,0-2.55,2.525,7.886,7.886,0,0,0-.95,4,8.024,8.024,0,0,0,.95,4.025,6.454,6.454,0,0,0,2.55,2.55,7.267,7.267,0,0,0,3.55.875,6.793,6.793,0,0,0,3.4-.875,7.165,7.165,0,0,0,2.65-2.825l6,3.3a10.474,10.474,0,0,1-4.575,5A14.805,14.805,0,0,1,221.35,53.991Z" fill="#030504"/>
        <path id="Pfad_521" data-name="Pfad 521" d="M238.449,53.591v-35h17.1q6.6,0,9.925,2.5a7.863,7.863,0,0,1,3.325,6.6,8.4,8.4,0,0,1-1.35,4.775,8.8,8.8,0,0,1-3.725,3.125,12.653,12.653,0,0,1-5.375,1.1l.95-2.1a14.473,14.473,0,0,1,5.825,1.1,9.147,9.147,0,0,1,3.975,3.2,8.843,8.843,0,0,1,1.45,5.15A8.137,8.137,0,0,1,267,51.066q-3.551,2.524-10.45,2.525Zm8.05-6.1H256a8.881,8.881,0,0,0,4.75-1.05,3.579,3.579,0,0,0,1.65-3.25,3.628,3.628,0,0,0-1.65-3.3,8.881,8.881,0,0,0-4.75-1.05H245.9v-5.9h8.65a8.3,8.3,0,0,0,4.525-1.025,3.47,3.47,0,0,0,1.575-3.125,3.413,3.413,0,0,0-1.575-3.1,8.481,8.481,0,0,0-4.525-1H246.5Z" fill="#030504"/>
        <path id="Pfad_522" data-name="Pfad 522" d="M280.049,22.941a5.014,5.014,0,0,1-3.55-1.25,4.234,4.234,0,0,1,0-6.2,5.018,5.018,0,0,1,3.55-1.25,5.238,5.238,0,0,1,3.525,1.175,3.8,3.8,0,0,1,1.375,3.025,4.246,4.246,0,0,1-1.35,3.225A4.96,4.96,0,0,1,280.049,22.941Zm-3.9,30.65v-26.9h7.8v26.9Z" fill="#030504"/>
        <path id="Pfad_523" data-name="Pfad 523" d="M288,33.291v-6h18.65v6Zm14.2,20.7q-4.75,0-7.4-2.425t-2.651-7.225v-23.6H300v23.45a3.767,3.767,0,0,0,.875,2.65,3.068,3.068,0,0,0,2.375.95,5.092,5.092,0,0,0,3.2-1l2.05,5.5a7.991,7.991,0,0,1-2.824,1.275A14.107,14.107,0,0,1,302.2,53.991Z" fill="#030504"/>
        <path id="Pfad_524" data-name="Pfad 524" d="M322,53.991a25.948,25.948,0,0,1-6.6-.825,17.132,17.132,0,0,1-5.05-2.075l2.55-5.55a19.564,19.564,0,0,0,4.425,1.825,17.945,17.945,0,0,0,4.976.725,8.155,8.155,0,0,0,3.824-.65,2,2,0,0,0,1.125-1.8,1.531,1.531,0,0,0-.875-1.425,7.658,7.658,0,0,0-2.3-.725q-1.425-.25-3.175-.5a31.282,31.282,0,0,1-3.474-.7,13.494,13.494,0,0,1-3.2-1.275,6.28,6.28,0,0,1-2.35-2.275,7.178,7.178,0,0,1-.875-3.75,7.282,7.282,0,0,1,1.5-4.525,9.708,9.708,0,0,1,4.25-3.075,17.926,17.926,0,0,1,6.65-1.1,25.961,25.961,0,0,1,5.625.625,17.387,17.387,0,0,1,4.776,1.725l-2.651,5.55a13.877,13.877,0,0,0-3.875-1.55,17,17,0,0,0-3.775-.45,8.123,8.123,0,0,0-3.9.7,2.064,2.064,0,0,0-1.2,1.8,1.667,1.667,0,0,0,.9,1.525,7.055,7.055,0,0,0,2.349.775q1.451.25,3.2.5a30.258,30.258,0,0,1,3.451.7,13.616,13.616,0,0,1,3.174,1.275,6.287,6.287,0,0,1,2.35,2.275,7.183,7.183,0,0,1,.875,3.75,6.929,6.929,0,0,1-1.5,4.375,9.845,9.845,0,0,1-4.325,3.025A19,19,0,0,1,322,53.991Z" fill="#030504"/>
      </g>
      <g id="Gruppe_339" data-name="Gruppe 339" style="mix-blend-mode: normal;isolation: isolate">
        <path id="Pfad_525" data-name="Pfad 525" d="M186.344,100.191a28.814,28.814,0,0,1-8.075-1.125,18.808,18.808,0,0,1-6.225-2.925l2.75-6.1a19.107,19.107,0,0,0,5.3,2.625,19.775,19.775,0,0,0,6.25,1.025,12.34,12.34,0,0,0,3.875-.5,4.8,4.8,0,0,0,2.175-1.325,2.886,2.886,0,0,0,.7-1.925,2.639,2.639,0,0,0-1.1-2.225,9.031,9.031,0,0,0-2.925-1.35q-1.825-.525-3.975-1t-4.325-1.15a17.418,17.418,0,0,1-4-1.8,8.46,8.46,0,0,1-2.9-2.95,8.89,8.89,0,0,1-1.075-4.575,9.865,9.865,0,0,1,1.6-5.475,10.938,10.938,0,0,1,4.875-3.95,20.08,20.08,0,0,1,8.225-1.475,27.02,27.02,0,0,1,6.525.8,19.31,19.31,0,0,1,5.625,2.3l-2.55,6.1a20.39,20.39,0,0,0-4.85-2.025,18.413,18.413,0,0,0-4.8-.675,11.574,11.574,0,0,0-3.85.525,4.466,4.466,0,0,0-2.125,1.425,3.255,3.255,0,0,0-.675,2,2.7,2.7,0,0,0,1.1,2.25,8.074,8.074,0,0,0,2.9,1.325q1.8.476,4,.95a44.5,44.5,0,0,1,4.35,1.175,19.453,19.453,0,0,1,3.95,1.775,8.144,8.144,0,0,1,4.05,7.425,9.563,9.563,0,0,1-1.625,5.4,11.335,11.335,0,0,1-4.925,3.95A19.946,19.946,0,0,1,186.344,100.191Z" fill="#0b779f"/>
        <path id="Pfad_526" data-name="Pfad 526" d="M219.143,99.991a16.34,16.34,0,0,1-7.725-1.775,13.87,13.87,0,0,1-5.3-19.225,13.679,13.679,0,0,1,5.3-4.9,16.162,16.162,0,0,1,7.725-1.8,14.973,14.973,0,0,1,7.425,1.775,10.3,10.3,0,0,1,4.575,5.025l-6,3.3a7.234,7.234,0,0,0-2.65-2.775,6.8,6.8,0,0,0-3.4-.875,7.281,7.281,0,0,0-3.55.875,6.506,6.506,0,0,0-2.55,2.525,7.9,7.9,0,0,0-.95,4,8.035,8.035,0,0,0,.95,4.025,6.46,6.46,0,0,0,2.55,2.55,7.27,7.27,0,0,0,3.55.875,6.791,6.791,0,0,0,3.4-.875,7.165,7.165,0,0,0,2.65-2.825l6,3.3a10.465,10.465,0,0,1-4.575,5A14.8,14.8,0,0,1,219.143,99.991Z" fill="#0b779f"/>
        <path id="Pfad_527" data-name="Pfad 527" d="M243.992,99.991a12.316,12.316,0,0,1-5.35-1.075,8.372,8.372,0,0,1-3.474-2.925,7.34,7.34,0,0,1-1.225-4.15,7.079,7.079,0,0,1,4.9-7,18.683,18.683,0,0,1,6.7-1h7.1v4.5h-6.3q-2.751,0-3.775.9a2.869,2.869,0,0,0-1.025,2.25,2.8,2.8,0,0,0,1.175,2.375,5.2,5.2,0,0,0,3.174.875,7.081,7.081,0,0,0,3.576-.9,4.922,4.922,0,0,0,2.225-2.75l1.2,3.65a7.08,7.08,0,0,1-3.1,3.875A10.986,10.986,0,0,1,243.992,99.991Zm8.2-.4v-5.25l-.5-1.15v-9.4a5.03,5.03,0,0,0-1.525-3.9,6.733,6.733,0,0,0-4.676-1.4,13.577,13.577,0,0,0-4.225.675,11.852,11.852,0,0,0-3.574,1.825l-2.75-5.45a15.854,15.854,0,0,1,5.3-2.425,24.4,24.4,0,0,1,6.3-.825q6.148,0,9.55,2.9t3.4,9.05v15.35Z" fill="#0b779f"/>
        <path id="Pfad_528" data-name="Pfad 528" d="M282.892,72.291a12.528,12.528,0,0,1,5.725,1.275,9.249,9.249,0,0,1,3.975,3.9,13.826,13.826,0,0,1,1.45,6.725v15.4h-7.8v-14.2a6.913,6.913,0,0,0-1.425-4.8,5.2,5.2,0,0,0-4.025-1.55,6.861,6.861,0,0,0-3.325.8,5.591,5.591,0,0,0-2.3,2.35,8.74,8.74,0,0,0-.825,4.1v13.3h-7.8v-26.9h7.45v7.45l-1.4-2.25a9.962,9.962,0,0,1,4.15-4.15A12.8,12.8,0,0,1,282.892,72.291Z" fill="#0b779f"/>
      </g>
    </g>
  </g>
</svg>
