<svg xmlns="http://www.w3.org/2000/svg" width="21.909" height="21.964" viewBox="0 0 21.909 21.964">
  <path id="Quality" d="M280.124,171.051c-.263-.635-.526-1.259-.776-1.889a.442.442,0,0,1,0-.3c.25-.63.512-1.254.769-1.881a1.922,1.922,0,0,0-.831-2.528q-.989-.6-1.981-1.185a.42.42,0,0,1-.212-.295c-.138-.6-.285-1.193-.428-1.789a1.912,1.912,0,0,0-2.128-1.562c-.739.054-1.478.11-2.214.174a.514.514,0,0,1-.44-.148c-.284-.271-.592-.516-.877-.785a2.762,2.762,0,0,0-1.4-.818h-.513a2.739,2.739,0,0,0-1.381.805c-.3.284-.624.543-.925.827a.454.454,0,0,1-.384.123c-.767-.063-1.534-.122-2.3-.18a1.912,1.912,0,0,0-2.02,1.377c-.216.7-.43,1.4-.66,2.1a.6.6,0,0,1-.236.3c-.575.357-1.157.7-1.742,1.042a1.96,1.96,0,0,0-1.006,1.362c0,.018-.023.033-.034.05v.6c.319.805.641,1.61.952,2.415a.446.446,0,0,1,0,.3c-.231.589-.479,1.17-.715,1.757-.09.222-.16.452-.24.678v.557a.336.336,0,0,1,.035.076,1.9,1.9,0,0,0,.938,1.315c.671.4,1.348.8,2.013,1.208a.527.527,0,0,1,.21.288c.157.6.3,1.208.44,1.811a1.9,1.9,0,0,0,2.07,1.558c.775-.042,1.548-.119,2.323-.168a.472.472,0,0,1,.3.1c.33.272.654.553.966.844a2.81,2.81,0,0,0,1.4.816h.513a2.806,2.806,0,0,0,1.4-.817c.313-.293.637-.573.966-.845a.441.441,0,0,1,.281-.1c.719.046,1.438.086,2.153.165a1.977,1.977,0,0,0,2.278-1.62v0c.108-.581.276-1.151.41-1.727a.417.417,0,0,1,.211-.295c.664-.39,1.322-.788,1.982-1.186A1.924,1.924,0,0,0,280.124,171.051Zm-3.754-5.2a1.108,1.108,0,0,1-.183.451,2.348,2.348,0,0,1-.294.334l-6.331,6.345a1.176,1.176,0,0,1-1.945,0q-2.1-2.1-4.2-4.213a1.117,1.117,0,0,1,.449-1.938,1.131,1.131,0,0,1,1.14.371q1.627,1.634,3.258,3.265c.089.1.171.211.285.35.159-.152.259-.243.35-.337q2.732-2.737,5.462-5.476a1.2,1.2,0,0,1,1.092-.425A1.108,1.108,0,0,1,276.37,165.847Z" transform="translate(-258.403 -158.044)" fill="#707070"/>
</svg>
