<svg xmlns="http://www.w3.org/2000/svg" width="75.038" height="48.813" viewBox="0 0 75.038 48.813">
  <g id="Gruppe_411" data-name="Gruppe 411" transform="translate(0.001 -83.318)">
    <path id="Pfad_639" data-name="Pfad 639" d="M35.963,103.556H.011v-.887q0-7.912,0-15.824c0-2.377,1.149-3.525,3.515-3.525q14.56,0,29.12,0c2.139,0,3.356,1.151,3.363,3.268.02,5.458.007,10.917,0,16.375C36.015,103.142,35.984,103.322,35.963,103.556Z" transform="translate(-0.009)" fill="#707070"/>
    <path id="Pfad_640" data-name="Pfad 640" d="M283.956,103.555H248.034c-.017-.273-.044-.5-.044-.732q0-8.07,0-16.139a3.012,3.012,0,0,1,2.413-3.292,4.5,4.5,0,0,1,.937-.069q14.639-.005,29.277,0a3.044,3.044,0,0,1,3.372,3.35q.013,8.069,0,16.139C283.993,103.041,283.971,103.272,283.956,103.555Z" transform="translate(-208.959 -0.001)" fill="#707070"/>
    <path id="Pfad_641" data-name="Pfad 641" d="M118.954,281.149v-11.99l3.017-1.847,3,1.853v11.983h.989q7.356,0,14.711.01a2.868,2.868,0,0,1,2.827,1.871,2.981,2.981,0,0,1-2.792,4.124c-2.543.028-5.087.008-7.63.008q-14.868,0-29.736-.007a3,3,0,1,1-.051-6c4.877-.012,9.755,0,14.632,0Z" transform="translate(-84.441 -155.037)" fill="#707070"/>
    <path id="Pfad_642" data-name="Pfad 642" d="M0,231.52H36.047a14.518,14.518,0,0,1-.187,2.361,2.952,2.952,0,0,1-2.977,2.126q-14.872.017-29.744,0a3.01,3.01,0,0,1-3.134-3.126C-.006,232.44,0,232,0,231.52Z" transform="translate(0 -124.878)" fill="#707070"/>
    <path id="Pfad_643" data-name="Pfad 643" d="M283.954,231.543a13.993,13.993,0,0,1-.017,2.065,2.977,2.977,0,0,1-3.065,2.417q-14.87.019-29.74,0a2.976,2.976,0,0,1-3.1-2.976c-.029-.489,0-.981,0-1.506Z" transform="translate(-208.981 -124.897)" fill="#707070"/>
  </g>
</svg>
