<?xml version="1.0" encoding="UTF-8"?>
<svg id="Ebene_1" data-name="Ebene 1" xmlns="http://www.w3.org/2000/svg" version="1.1" viewBox="0 0 698.6 699.1">
  <defs>
    <style>
      .cls-1 {
        fill: #ff9d00;
        stroke-width: 0px;
      }
    </style>
  </defs>
  <path class="cls-1" d="M348.1,376.5c-19.5,0-39,0-58.5,0h0c-19.5,0-39,0-58.5,0s-13.4,4.7-13.5,11.6c0,6.9,5.4,11.8,13.3,11.8,39.1,0,78.2,0,117.4,0,7.9,0,13.4-4.9,13.3-11.8,0-6.9-5.5-11.6-13.5-11.6h0Z"/>
  <path class="cls-1" d="M313,435.2c-27.3,0-54.5,0-81.7,0-8.3,0-13.7,4.7-13.7,11.8,0,7,5.5,11.6,13.9,11.6,13.4,0,26.7,0,40.1,0h0c13.6,0,27.3.1,40.9,0,2.6,0,5.5-.8,7.8-2.1,4.5-2.6,6.3-8,4.9-12.7-1.6-5.3-6.1-8.6-12.1-8.6h0Z"/>
  <path class="cls-1" d="M347.6-.2C155.4-.2-.4,155.6-.4,347.8s155.8,348,348,348,348-155.8,348-348S539.8-.2,347.6-.2ZM157.6,480.2c0-84.8,0-169.6,0-254.4,0-21.9,15.5-37,38-37,42,0,84,0,126,0h4.1c0,19.6,0,38.7,0,57.7,0,18.5,12.4,32.7,31,35.7,2.4.4,5,.4,7.5.4,19,0,38,0,57.5,0v4c0,64.5,0,129.1,0,193.6,0,22-15.5,37.1-37.9,37.1-62.7,0-125.5,0-188.2,0-22.4,0-37.9-15.2-37.9-37.1h0ZM349.6,187.9c3.3,1.6,6.4,2.4,8.4,4.4,20.2,19.5,40.2,39.1,60.2,58.8,1.9,1.9,2.7,4.9,4.4,8.1h-4.5c-18.4,0-36.7,0-55.1,0-8.7,0-13.3-4.5-13.3-12.8,0-19,0-38.1,0-58.5h0ZM533.8,574.7c-1-.4-1.9-1.1-2.7-1.7-6-4.4-12.1-8.9-18.1-13.4l-1.8-1.3c-30.3,37-69.3,57.5-117.7,59-48.5,1.5-88.7-16.7-121-51.8h0c75.7,33.2,153.3-.4,185.7-46.3-.6-.5-1.2-.9-1.9-1.4-6.1-4.5-12.2-9-18.3-13.5-2.5-1.8-3.5-4.3-2.7-7.2.7-2.7,2.9-4.2,6.3-4.5,25.5-2,50.9-3.9,76.4-5.9,6-.5,8.4,1.3,9.6,7.1,3.3,16.6,6.6,33.2,9.9,49.9,1.6,7.9,3.2,15.9,4.7,23.8,1,5.2-3.8,9.1-8.6,7.2h0ZM536.6,410.9c0,22-15.5,37.1-37.9,37.1h-58.9l1-203.4c-1.8-3.4-2.6-6.5-4.6-8.5-20.9-20.8-42-41.4-63.2-61.9-2.1-2-5.4-2.8-8.8-4.6,0,0-46.4.3-91.4.6v-13.8c0-21.9,15.5-37,38-37,42,0,84,0,126,0h4.1c0,19.6,0,38.7,0,57.7,0,18.5,12.4,32.7,31,35.7,2.4.4,5,.4,7.5.4,19,0,38,0,57.5,0v4c0,64.5,0,129.1,0,193.6h0ZM537.6,189.8h-4.5c-18.4,0-36.7,0-55.1,0-8.7,0-13.3-4.5-13.3-12.8,0-19,0-38.1,0-58.5,3.3,1.6,6.4,2.4,8.4,4.4,20.2,19.5,40.2,39.1,60.2,58.8,1.9,1.9,2.7,4.9,4.4,8.1h0Z"/>
  <path class="cls-1" d="M230.9,341.3c13.5,0,27,0,40.5,0h0c13.5,0,27,0,40.5,0,8.2,0,13.7-4.8,13.7-11.8,0-6.9-5.5-11.6-13.5-11.6-27,0-54,0-81,0-8,0-13.4,4.7-13.5,11.7,0,6.9,5.4,11.8,13.3,11.8h0Z"/>
</svg>