<svg id="Gruppe_15" data-name="Gruppe 15" xmlns="http://www.w3.org/2000/svg" width="30.689" height="30.653" viewBox="0 0 30.689 30.653">
  <path id="Pfad_380" data-name="Pfad 380" d="M6.356,81.1c.177-.66.365-1.318.53-1.98.448-1.778.883-3.559,1.335-5.337a1.157,1.157,0,0,1,.289-.505q8.293-8.309,16.6-16.606c.056-.056.116-.107.149-.138L31.818,63.1c-.029.031-.1.111-.171.184q-8.252,8.252-16.524,16.5a1.384,1.384,0,0,1-.6.349c-2.385.619-4.776,1.2-7.162,1.8a1.4,1.4,0,0,0-.165.064H6.833l-.479-.479Z" transform="translate(-6.354 -51.34)" fill="#e3e3e3"/>
  <path id="Pfad_381" data-name="Pfad 381" d="M207.432,17.946l-6.5-6.5c.807-.825,1.586-1.716,2.461-2.5a3.3,3.3,0,0,1,4.245.014,27.768,27.768,0,0,1,2.286,2.286,3.214,3.214,0,0,1-.01,4.252C209.134,16.366,208.257,17.141,207.432,17.946Z" transform="translate(-180.037 -8.184)" fill="#e3e3e3"/>
</svg>
