<?xml version="1.0" encoding="utf-8"?>
<!-- Generator: Adobe Illustrator 25.0.1, SVG Export Plug-In . SVG Version: 6.00 Build 0)  -->
<svg version="1.1" xmlns="http://www.w3.org/2000/svg" xmlns:xlink="http://www.w3.org/1999/xlink" x="0px" y="0px"
	 viewBox="0 0 512 512" style="enable-background:new 0 0 512 512;" xml:space="preserve">
<style type="text/css">
	.st0{fill:none;stroke:#565656;stroke-width:15;stroke-linecap:round;stroke-linejoin:round;stroke-miterlimit:10;}
	.st1{fill:none;stroke:#565656;stroke-width:15;stroke-miterlimit:10;}
	.st2{fill:none;stroke:#565656;stroke-width:15;stroke-linecap:round;stroke-miterlimit:10;}
	.st3{fill:none;stroke:#565656;stroke-width:15;stroke-linecap:round;}
	.st4{fill:#565656;}
	.st5{fill:none;stroke:#565656;stroke-width:15;stroke-linecap:round;stroke-linejoin:round;}
	.st6{fill:none;stroke:#565656;stroke-width:15;stroke-linecap:round;stroke-linejoin:round;stroke-dasharray:24.8533,49.7066;}
	
		.st7{fill:none;stroke:#565656;stroke-width:15;stroke-linecap:round;stroke-linejoin:round;stroke-dasharray:24.8533,49.7066,24.8533,49.7066;}
	.st8{fill:#BABABA;}
	.st9{fill:none;stroke:#2388AE;stroke-width:15;stroke-linecap:round;}
	.st10{fill:none;stroke:#565656;stroke-width:15;stroke-linecap:round;stroke-miterlimit:10;stroke-dasharray:32.1931,42.9241;}
	
		.st11{fill:none;stroke:#565656;stroke-width:15;stroke-linecap:round;stroke-miterlimit:10;stroke-dasharray:32.1931,42.9241,32.1931,42.9241;}
	.st12{fill:none;stroke:#565656;stroke-width:15;stroke-linejoin:round;stroke-miterlimit:10;}
	.st13{fill:none;stroke:#2388AE;stroke-width:15;stroke-linecap:round;stroke-linejoin:round;stroke-miterlimit:10;}
	.st14{fill:none;stroke:#2388AE;stroke-width:15;stroke-miterlimit:10;}
	.st15{fill:none;stroke:#2388AE;stroke-width:15;stroke-linecap:round;stroke-miterlimit:10;}
</style>
<g id="Layer_1">
	<g>
		<path class="st0" d="M503.7,262.5c-6.1,9.7-12.2,19.4-18.8,28.8c-31.4,44-69.9,80.1-119.8,102.1c-92.6,40.9-180.1,30.5-261.9-28.5
			C65.1,337.6,36,302.1,12,262.3c-1.6-2.7-1.7-7.9-0.1-10.6c30.6-50.7,69.5-93.4,121.7-122.7c38-21.4,78.8-32.8,135.2-32.8
			c64,1.6,128.6,30.8,182,85.2c10.7,10.9,20.2,22.9,29.7,34.9"/>
		<path class="st1" d="M258.4,156c54.5-0.1,100.4,45.8,100.4,100.5c0,56.2-45,101.2-101.3,101.2c-55.2,0-100.2-45-100.4-100.4
			C156.9,201.3,202.1,156.1,258.4,156z"/>
		<path class="st2" d="M194,261.6c0.4-8.5,0.8-17.3,3.4-25.3c8.9-27.5,36.2-45.3,65-43.6"/>
	</g>
</g>
<g id="Einstellungen">
</g>
</svg>
