<?xml version="1.0" encoding="utf-8"?>
<!-- Generator: Adobe Illustrator 25.0.1, SVG Export Plug-In . SVG Version: 6.00 Build 0)  -->
<svg version="1.1" id="Layer_1" xmlns="http://www.w3.org/2000/svg" xmlns:xlink="http://www.w3.org/1999/xlink" x="0px" y="0px"
	 viewBox="0 0 291.3 362.1" style="enable-background:new 0 0 291.3 362.1;" xml:space="preserve">
<style type="text/css">
	.st0{fill:#F6E2D7;}
	.st1{fill:#EFCAB9;}
	.st2{fill:#1F404D;}
	.st3{fill:#B90713;}
	.st4{fill:#F96806;}
	.st5{fill:#E6E6E6;}
	.st6{fill:#CCCCCC;}
	.st7{fill:#EFBAB4;}
	.st8{opacity:0.5;}
	.st9{fill:#E2B8A3;}
	.st10{fill:#F9CCC5;}
	.st11{fill:#F78174;}
	.st12{fill:#446382;}
	.st13{fill:#FBB03B;}
	.st14{fill:#F7931E;}
	.st15{fill:#3B5B75;}
	.st16{fill:#96312C;}
	.st17{fill:#721C19;}
	.st18{fill:#EA978F;}
	.st19{fill:#FFFFFF;}
	.st20{fill:#00FFFF;}
	.st21{fill:#F4BE89;}
	.st22{fill:#EF869D;}
	.st23{fill:#E87E13;}
	.st24{fill:#448481;}
	.st25{fill:#2F6D68;}
	.st26{fill:#FB6B53;}
	.st27{fill:#ED5E4A;}
	.st28{fill:#A5CFCE;}
	.st29{fill:#72C1BD;}
	.st30{fill:#00A99D;}
	.st31{fill:#F2C5AF;}
	.st32{fill:#F29D94;}
	.st33{fill:#D7E2FF;}
	.st34{fill:#FFECDB;}
	.st35{fill:#FF942A;}
	.st36{fill:#F2D0AD;}
	.st37{fill:#F07837;}
	.st38{fill:#381706;}
	.st39{clip-path:url(#SVGID_1_);fill:#381706;}
	.st40{clip-path:url(#SVGID_1_);fill:#FFFFFF;}
	.st41{clip-path:url(#SVGID_2_);fill:#381706;}
	.st42{clip-path:url(#SVGID_2_);fill:#FFFFFF;}
	.st43{fill:#B8F3FF;}
	.st44{fill:#F04A4A;}
	.st45{fill:#E8C5B3;}
	.st46{fill:#DE6B1F;}
	.st47{fill:#EFD3C5;}
	.st48{fill:#D5E9F2;}
	.st49{fill:#A8D7E9;}
	.st50{fill:#002B43;}
	.st51{fill:#000F16;}
	.st52{fill:#3AEDB1;}
	.st53{fill:#5FBBE8;}
	.st54{fill:#5FAEDE;}
	.st55{fill:#B1ECED;}
	.st56{fill:#D7F5F6;}
	.st57{fill:#294F81;}
	.st58{fill:#33487A;}
	.st59{fill:#393760;}
	.st60{fill:#46AED2;}
	.st61{fill:#2F4572;}
	.st62{fill:#296ABD;}
	.st63{fill:#C9EAFF;}
</style>
<g>
	<g>
		<path class="st53" d="M291.3,247.9c-0.5,19.9-5.1,32-18.3,25.7c-2.3-1.1-4.8-2.7-7.6-4.9c-9.3-7.5-50.1-86.2-21.3-86.9
			c7.4-0.2,14.2,2.6,20.2,7.2C281.4,202.2,291.7,230.6,291.3,247.9z"/>
		<path class="st54" d="M291.3,247.9c-0.5,19.9-5.1,32-18.3,25.7c4.3-10.5,8-34.7-8.7-84.6C281.4,202.2,291.7,230.6,291.3,247.9z"/>
		<path class="st55" d="M252.5,219.4c5.3,12.3,13.2,33.8,11,34.9c-2.1,1-12.7-14.6-18.4-32.5c-3.2-10-5.2-21.8-3.5-22.3
			C243.5,198.7,250.8,215.6,252.5,219.4z"/>
	</g>
	<g>
		<path class="st53" d="M76.6,267.4c-2.8,2.2-5.3,3.8-7.6,4.9c-7.5,3.6-12.2,1.2-15-5.1c-2.1-4.8-3.1-12-3.3-20.6
			c-0.4-17.3,9.9-45.7,27-58.9c6-4.6,12.7-7.4,20.2-7.2c4.5,0.1,7.3,2.1,8.8,5.5C114.8,204,84.5,261.1,76.6,267.4z"/>
		<path class="st56" d="M66.9,210.3c-0.8,1.3-9.8,15-6.7,18c3.2,3,18.6-5,26.6-18c4.6-7.3,8.1-18.3,5.1-20.4
			C88.3,187.3,74.9,198.2,66.9,210.3z"/>
		<path class="st54" d="M76.6,267.4c-2.8,2.2-5.3,3.8-7.6,4.9c-7.5,3.6-12.2,1.2-15-5.1c11.4-4.7,30.2-22.4,52.6-81.3
			C114.8,204,84.5,261.1,76.6,267.4z"/>
	</g>
	<g>
		<path class="st53" d="M249.9,209.4c0,43.2-30.3,93.9-78.5,93.9c-29.8,0-54.4-18.3-68.7-42.7c-8.8-15-13.8-32.3-13.8-49.1
			c0-44.3,48.3-42.1,78.9-42.1c33.6,0,73.4-2.6,80.9,28.7C249.5,201.4,249.9,205.2,249.9,209.4z"/>
		<path class="st54" d="M249.9,209.4c0,43.2-30.3,93.9-78.5,93.9c-29.8,0-54.4-18.3-68.7-42.7c29.9,14.1,115.1,43.2,146-62.6
			C249.5,201.4,249.9,205.2,249.9,209.4z"/>
		<path class="st55" d="M105.6,194.4c-6.3,10.2-1.8,24.7,8.9,30.4c11.4,6,26.8,0.6,31-11.3c4-11.4-3.7-24.1-14.8-27.7
			C121.8,182.9,110.8,185.9,105.6,194.4z"/>
	</g>
	<g>
		<path class="st53" d="M84.9,85.6c-2.9-2.8-5.1-6.1-6.6-9.6c-3.5-8.1-3.6-17.4,0.3-25.4c4-8.2,11.5-14,20.3-16.1
			c2.5-0.6,5.1-0.9,7.7-0.9C112.6,67.8,84.9,85.6,84.9,85.6z"/>
		<path class="st54" d="M84.9,85.6c-2.9-2.8-5.1-6.1-6.6-9.6c3.5-6.1,7-12.6,10.4-19.5c3.8-7.6,7.2-15,10.2-22
			c2.5-0.6,5.1-0.9,7.7-0.9C99.3,50.9,92.1,68.3,84.9,85.6z"/>
		<path class="st53" d="M254.2,119.6c-3,42.8-101,57.3-147,31.5c-12.8-7.1-21.5-17.4-23.1-31c-7.2-62.6,34-120,81.6-120.1
			c17.3-0.1,37.5,6.5,54.4,21.1C241.6,39.7,257.5,71.6,254.2,119.6z"/>
		<path class="st54" d="M254.2,119.6c-3,42.8-101,57.3-147,31.5c28.1,4.6,111.6,14.5,126.5-25.7c12.8-34.6-3.3-80.7-13.6-104.3
			C241.6,39.7,257.5,71.6,254.2,119.6z"/>
		<path class="st55" d="M111,42.3c2.5,3.3,18.1-3.7,28.6-11.5c10-7.4,20.2-19.1,18-22.4c-2-2.9-13.5,1.3-20.7,5.2
			C120.5,22.3,108.2,38.6,111,42.3z"/>
		<path class="st55" d="M88.4,109c0.4,11.4,7.4,22.3,10.3,21.5c3-0.8,1.7-14.4,0.3-21.9c-0.4-2.2-2.8-15.3-5.9-15.3
			C90.7,93.3,88.2,101.6,88.4,109z"/>
		<g>
			<path class="st57" d="M228.7,102.4c0,8.6-9.4,13.9-21.5,17.1c-12.8,3.4-28.6,4.3-39.6,4.3c-15.8-0.1-46.2-2.7-57.2-12.7
				c-2.6-2.3-4.1-5.1-4.1-8.3c0-9.3,3.8-17.7,10.1-23.9c6.2-6.1,14.9-9.9,24.5-9.9l53.2-0.2c11.1,0,21,5,27.4,12.9
				C225.9,87.4,228.6,94.6,228.7,102.4z"/>
			<path class="st58" d="M228.7,102.4c0,8.6-9.4,13.9-21.5,17.1c-12.8,3.4-28.6,4.3-39.6,4.3c-15.8-0.1-46.2-2.7-57.2-12.7
				c31.2-1,84.3-6.3,111-29.3C225.9,87.4,228.6,94.6,228.7,102.4z"/>
			<g>
				<g>
					<path class="st59" d="M217.8,95.2c0,8.5-6.9,15.5-15.4,15.5c-6.6,0-12.3-4.1-14.5-9.9c-0.7-1.7-1-3.6-1-5.5
						c0-8.5,6.9-15.5,15.4-15.5c6.3,0,11.7,3.7,14.1,9.1C217.3,90.8,217.8,92.9,217.8,95.2z"/>
					<path class="st60" d="M202.6,80c6.3,0,11.4,3.5,13.8,8.8c0.9,1.9,1.4,4.1,1.4,6.3c0,8.5-6.9,15.5-15.4,15.5c0,0,0,0,0,0
						c-6.6,0-12.2-4.1-14.4-9.9c-0.7-1.7-1-3.6-1-5.5c0-8.5,6.7-15,15.2-15L202.6,80z M202.3,77.1L202.3,77.1L202.3,77.1L202.3,77.1
						c-4.9,0-9.4,1.9-12.9,5.3c-3.4,3.4-5.3,8-5.3,12.8c0,2.2,0.4,4.4,1.2,6.5c2.7,6.9,9.5,11.6,16.9,11.6l0.1,0
						c4.8,0,9.4-1.9,12.8-5.3c3.4-3.4,5.3-8,5.3-12.8c0-2.6-0.6-5.1-1.6-7.4C215.9,81.3,209.4,77.1,202.3,77.1L202.3,77.1z"/>
				</g>
				<path class="st61" d="M216.4,88.8c-5.7,14-20.1,13.6-28.5,12c-0.7-1.7-1-3.6-1.1-5.5c-0.1-8.5,6.8-15.5,15.4-15.6
					C208.5,79.7,213.9,83.4,216.4,88.8z"/>
				
					<ellipse transform="matrix(0.9829 -0.184 0.184 0.9829 -13.2233 37.6837)" class="st55" cx="196.5" cy="90.1" rx="5.1" ry="5.1"/>
				<path class="st55" d="M214.4,98.2c0.8,0.6-0.3,6-4.1,8c-3.4,1.8-7.9,0.5-8-0.5c-0.1-0.7,2.3-0.9,6.2-3.3
					C212.6,99.9,213.9,97.8,214.4,98.2z"/>
			</g>
			<g>
				<g>
					<path class="st59" d="M149.1,95.4c0,8.5-6.9,15.5-15.4,15.5c-6.6,0-12.3-4.1-14.5-9.9c-0.7-1.7-1-3.6-1-5.5
						c0-8.5,6.9-15.5,15.4-15.5c6.3,0,11.7,3.7,14.1,9.1C148.6,91,149.1,93.1,149.1,95.4z"/>
					<path class="st60" d="M134.1,80.1c6.3,0,11.2,3.6,13.7,8.9c0.9,1.9,1.4,4.1,1.4,6.3c0,8.5-6.9,15.5-15.4,15.5c0,0,0,0,0,0
						c-6.6,0-12.2-4.1-14.4-9.9c-0.7-1.7-1-3.6-1-5.5c0-8.5,6.8-15.3,15.3-15.4H134.1z M133.7,77.3L133.7,77.3L133.7,77.3
						L133.7,77.3c-4.9,0-9.4,1.9-12.9,5.3c-3.4,3.4-5.3,8-5.3,12.8c0,2.2,0.4,4.4,1.2,6.5c2.7,6.9,9.5,11.6,16.9,11.6l0.1,0
						c10,0,18.1-8.2,18.1-18.2c0-2.6-0.6-5.1-1.6-7.4C147.2,81.5,140.8,77.3,133.7,77.3L133.7,77.3z"/>
				</g>
				<path class="st61" d="M147.7,89c-5.7,14-20.1,13.6-28.5,12c-0.7-1.7-1-3.6-1.1-5.5C118.1,87,125,80,133.6,80
					C139.9,79.9,145.3,83.7,147.7,89z"/>
				
					<ellipse transform="matrix(0.9607 -0.2776 0.2776 0.9607 -20.623 39.3131)" class="st55" cx="128.5" cy="92.5" rx="5.1" ry="5.1"/>
				<path class="st55" d="M145.8,98.4c0.8,0.6-0.3,6-4.1,8c-3.4,1.8-7.9,0.5-8-0.5c-0.1-0.7,2.3-0.9,6.2-3.3
					C143.9,100.1,145.2,98,145.8,98.4z"/>
			</g>
			<path class="st62" d="M172,72.4c0.2,1-6.8,3.5-14,4.2c-11.7,1.1-22.4-2.6-22.2-3.8c0.1-0.6,7.5-0.7,22.2-0.9
				C169.8,71.7,171.9,71.8,172,72.4z"/>
			<path class="st57" d="M111.9,95.5c0,0,25-1.6,35.8-15.6c0,0-12.1-5.1-21.8-3.1S111.9,95.5,111.9,95.5z"/>
			<path class="st57" d="M223.6,95.2c0,0-8.2-0.5-17.2-3.5c-6.8-2.2-14-5.9-18.7-11.9c0,0,12.1-5.2,21.8-3.2
				c3.9,0.8,6.9,3.9,9.1,7.4C221.9,89.2,223.6,95.2,223.6,95.2z"/>
			<path class="st58" d="M223.6,95.2c0,0-8.2-0.5-17.2-3.5c7.3-3,12-7.6,12.2-7.7C221.9,89.2,223.6,95.2,223.6,95.2z"/>
		</g>
		<g>
			<path class="st53" d="M79.9,50c-0.1-0.1-5.2-7.1-15.5-11.6c-13.8-6-29.8-5-47.7,3l-1.9-4.2c23.9-10.8,41.3-7.5,51.7-2.9
				c11.3,5,16.9,12.7,17.2,13L79.9,50l1.9-1.4L79.9,50z"/>
			
				<ellipse transform="matrix(0.9826 -0.1855 0.1855 0.9826 -7.5707 2.7252)" class="st57" cx="10.8" cy="41.8" rx="10.8" ry="10.8"/>
			<path class="st62" d="M8,34.9c3.2,0.2,5.7,2.9,5.5,6c-0.2,3.2-2.9,5.7-6,5.5c-3.2-0.2-5.7-2.9-5.5-6C2.1,37.2,4.8,34.8,8,34.9z"
				/>
		</g>
		<g>
			<path class="st57" d="M167.7,137.4c5.2,0,9.3,1,12.3,2.3c5.3,2.3,7,5.6,5.3,5.7c-2.6,0.1-8.9-1.6-16.1-1.6
				c-8.2,0-13.7,1.2-17.9,1.3c-0.2,0-0.4,0-0.6,0C146.4,145.1,151.6,137.5,167.7,137.4z"/>
		</g>
		<path class="st59" d="M187.6,79.8c2.8,2.1,5.5,3.8,8.3,5.4c2.8,1.6,5.7,2.9,8.7,4.2l2.3,0.8c0.4,0.1,0.7,0.3,1.1,0.4
			c0.4,0.1,0.8,0.2,1.2,0.4c0.8,0.3,1.5,0.5,2.3,0.8c0.8,0.2,1.6,0.4,2.3,0.7l1.2,0.4c0.4,0.1,0.8,0.2,1.2,0.3
			c0.8,0.2,1.6,0.4,2.4,0.7c1.6,0.4,3.3,0.8,4.9,1.3c-0.8,0.2-1.7,0.3-2.5,0.4c-0.9,0.1-1.7,0.2-2.6,0.3c-0.9,0-1.7,0-2.6,0
			c-0.4,0-0.9,0-1.3,0c-0.4,0-0.9-0.1-1.3-0.1c-0.9-0.1-1.7-0.2-2.6-0.3c-0.9-0.1-1.7-0.4-2.6-0.6c-1.7-0.4-3.3-1-5-1.6
			c-3.2-1.3-6.3-3.1-9-5.4c-0.3-0.3-0.7-0.6-1-0.8c-0.3-0.3-0.6-0.6-0.9-0.9c-0.6-0.6-1.2-1.3-1.8-1.9
			C189.3,82.8,188.3,81.4,187.6,79.8z"/>
		<path class="st59" d="M147.8,79.8c-0.7,1.6-1.7,3.1-2.8,4.4c-0.6,0.7-1.1,1.3-1.8,1.9c-0.3,0.3-0.6,0.6-0.9,0.9
			c-0.3,0.3-0.7,0.6-1,0.8c-2.7,2.2-5.8,4-9,5.4c-1.6,0.6-3.3,1.2-5,1.6c-0.9,0.2-1.7,0.4-2.6,0.6c-0.9,0.1-1.7,0.2-2.6,0.3
			c-0.4,0.1-0.9,0.1-1.3,0.1c-0.4,0-0.9,0-1.3,0c-0.9,0-1.7,0-2.6,0c-0.9,0-1.7-0.2-2.6-0.3c-0.9-0.1-1.7-0.3-2.5-0.4
			c1.7-0.6,3.3-0.9,4.9-1.3c0.8-0.2,1.6-0.5,2.4-0.7c0.4-0.1,0.8-0.2,1.2-0.3l1.2-0.4c0.8-0.2,1.6-0.5,2.3-0.7
			c0.8-0.2,1.5-0.5,2.3-0.8c0.4-0.1,0.8-0.2,1.2-0.4c0.4-0.1,0.8-0.3,1.1-0.4l2.3-0.8c3-1.2,5.9-2.6,8.7-4.2
			C142.3,83.6,145,81.9,147.8,79.8z"/>
	</g>
	<ellipse class="st63" cx="168.9" cy="340.4" rx="83.6" ry="21.7"/>
</g>
</svg>
