<?xml version="1.0" encoding="utf-8"?>
<!-- Generator: Adobe Illustrator 25.0.1, SVG Export Plug-In . SVG Version: 6.00 Build 0)  -->
<svg version="1.1" id="Layer_1" xmlns="http://www.w3.org/2000/svg" xmlns:xlink="http://www.w3.org/1999/xlink" x="0px" y="0px"
	 viewBox="0 0 354.9 354.9" style="enable-background:new 0 0 354.9 354.9;" xml:space="preserve">

<style type="text/css">
	.white{fill:#ffffff;stroke:#ffffff}
</style>
<path class="white" d="M312.9,26c-1,0-2,0-3,0c-13.2,0-26.4,0-39.6,0c-5.3,0-9-2.7-11-7.5c-1.8-4.6-1.1-8.9,2.3-12.6c2.6-2.9,6-3.9,9.9-3.9
	c17.4,0.1,34.9,0,52.3,0c6.2,0,12.5-0.1,18.7,0c7.4,0.1,12.4,4.9,12.4,12.2c0.1,24.1,0.1,48.1,0,72.2c0,6.3-4.4,11.3-10.2,12
	c-6.2,0.8-11.7-2.7-13.3-8.5c-0.4-1.6-0.5-3.4-0.5-5c0-13.6,0-27.2,0-41.5c-1.2,1.1-2,1.8-2.7,2.5c-32.2,32.1-64.3,64.3-96.4,96.5
	c-3.6,3.6-7.6,5.6-12.7,4.2c-8.5-2.2-11.9-12.2-6.4-19.1c0.8-1,1.7-1.8,2.5-2.7c31.9-31.9,63.8-63.8,95.6-95.7
	c0.8-0.8,1.7-1.5,2.5-2.2C313.1,26.5,313,26.2,312.9,26z"/>
<path class="white" d="M245.9,52.2C206.9,33.5,141.1,28.9,93.8,63.9C46.2,99.2,28.5,148.1,38,206.6c0.4,2.7,1.1,5.4,1.8,9
	c-6.4-4.9-11.9-9.3-17.6-13.5c-5.3-3.9-12.5-2.9-16.5,2c-4,5-3.6,12.5,1.5,16.5c14.9,11.7,30,23.3,45.1,34.7
	c4.8,3.6,11.9,2.8,15.6-1.9c11.8-15,23.4-30.1,35-45.4c3.7-4.9,2.4-11.9-2.4-15.8c-5.5-4.4-12.9-3.4-17.5,2.5
	c-5.7,7.2-11.2,14.6-17.3,22.4c-0.6-1.7-0.9-2.5-1.2-3.3c-14.8-46.8,2.5-100.7,42-130.1c38.1-28.4,94.2-32.8,127.3-11.1
	C247.3,81.7,256.8,57.4,245.9,52.2z"/>
<path class="white" d="M292.3,141.2c-6.1,7.9-11.6,15.2-17.3,22.4c-5.6,7.1-15.4,6.8-20-0.4c-2.7-4.2-2.7-9.4,0.4-13.3
	c11.4-14.9,22.8-29.7,34.3-44.5c3.9-5,11-6.2,16.1-2.4c15,11.4,29.9,22.9,44.8,34.5c5.1,4,5.8,11.4,1.9,16.5
	c-4,5.2-11.3,6.2-16.7,2.2c-5.7-4.2-11.2-8.6-17.5-13.4c0.4,2,0.6,3.2,0.8,4.3c9.7,46.5-0.1,88.6-30.5,125.1
	c-42.9,51.5-117.3,65.6-176.6,34c-6.9-3.7-13.4-8.1-19.9-12.6c-6-4.2-7.2-11.6-3.1-17.1c4.1-5.6,11.5-6.4,17.6-1.9
	c46.2,34.1,106.3,32.4,150.1-4.1c35.9-29.9,51-81.2,37-125.8C293.3,143.8,292.9,142.9,292.3,141.2z"/>
</svg>
