<?xml version="1.0" encoding="UTF-8"?>
<svg id="Ebene_1" data-name="Ebene 1" xmlns="http://www.w3.org/2000/svg" version="1.1" viewBox="0 0 452.65 426.53">
  <defs>
    <style>
      .cls-1 {
        fill: #707070;
        stroke-width: 0px;
      }
    </style>
  </defs>
  <path class="cls-1" d="M438.19,134.86c-40.19-39.95-80.25-80.04-120.22-120.22C308.11,4.73,296.62-.06,282.63,0c-42.17.2-84.33.06-126.5.1-3.32,0-6.71.03-9.95.66-21.27,4.12-34.86,21.3-34.88,44.22-.06,61.35-.02,122.69-.01,184.04,0,1.63.14,3.25.22,5.09h31.55v-6.71c0-60.35,0-120.69,0-181.04,0-11,3.43-14.49,14.24-14.5,39.67-.01,79.33,0,119,0,1.77,0,3.54.16,5.72.26v5.81c0,29.01-.01,58.01,0,87.02.02,27.55,17.78,45.41,45.26,45.45,29,.04,58,0,87,.01,1.95,0,3.91,0,6.33,0,.1,2.26.22,3.58.22,4.9,0,68.68.02,137.36,0,206.04,0,9.65-3.89,13.37-13.87,13.37-83.33.01-166.67.01-250,0-10.21,0-13.87-3.67-13.88-13.86-.03-18.34,0-36.67,0-55.01v-5.21h-31.78c0,1.91,0,3.39,0,4.87,0,18.67-.06,37.34.01,56.01.11,27.15,18.02,44.98,45.26,44.99,83.67.03,167.34.04,251,0,27.18-.01,45.02-17.9,45.05-45.19.06-70.52-.02-141.03.05-211.55.01-13.73-4.66-25.16-14.47-34.91ZM390.63,138.61c-21,.02-41.99.03-62.99,0-10.27-.01-13.75-3.55-13.75-13.87,0-21,0-42,0-63v-4.4c27.09,27.06,54.07,54.03,81.11,81.05-1.2.07-2.78.23-4.37.23Z"/>
  <path class="cls-1" d="M365.97,212.84c-2.76-6.99-8.35-10.13-15.68-10.16-15.48-.07-30.97-.03-46.45-.03-29.63,0-59.27.03-88.9-.02-6.58-.01-12.19,1.8-15.82,7.64-6.64,10.68.83,24,13.74,24.11,22.97.18,45.95.05,68.92.06,22.64,0,45.28-.05,67.93.04,5.09.02,9.59-1.16,13.09-4.97,4.47-4.87,5.59-10.57,3.18-16.67Z"/>
  <path class="cls-1" d="M282.46,320.21c-23.14,0-46.28-.07-69.42.03-9.84.05-16.45,6.92-16.2,16.37.25,9.34,7.39,15.36,18.41,15.37,44.45.02,88.9.02,133.35-.02,2.31,0,4.69-.18,6.92-.72,6.42-1.56,11.15-7.49,11.51-14.08.52-9.63-6.2-16.86-16.15-16.91-22.81-.11-45.62-.04-68.42-.04Z"/>
  <path class="cls-1" d="M56.52,295.76c-.71-.71-1.41-1.49-2.44-2.59.32.02.63.04.96.05,45.96.08,121.91.09,167.87-.09,3.13-.01,6.61-1.23,9.31-2.9,5.96-3.68,8.28-11.03,6.27-17.53-2.11-6.8-8.22-11.26-15.93-11.28-22.81-.06-45.62-.02-68.43-.02-22.98,0-75.96-.06-98.93.03-.13,0-.25.02-.38.02h-.45c-.19-.39-.38-.77-.57-1.16.98-.69,2.09-1.26,2.93-2.1,20.72-20.61,12.51-10.49,33.19-31.13,1.2-1.2,2.39-2.43,3.42-3.77,4.26-5.57,4.09-13.46-.32-18.92-6.45-7.97-16.77-8.15-24.6-.33-30.31,30.27-31.68,29.81-61.97,60.1-8.58,8.58-8.58,17.59,0,26.17,30.08,30.08,27.15,25.31,57.24,55.37,1.13,1.13,2.3,2.24,3.59,3.18,9.17,6.78,22.46,1.67,24.73-9.49,1.29-6.33-1.26-11.24-5.64-15.6-20.98-20.92-8.9-7.04-29.84-28Z"/>
</svg>