<?xml version="1.0" encoding="UTF-8"?>
<svg id="Ebene_1" data-name="Ebene 1" xmlns="http://www.w3.org/2000/svg" version="1.1" viewBox="0 0 214.6 214.6">
  <defs>
    <style>
      .cls-1 {
        fill: #777;
        stroke-width: 0px;
      }
    </style>
  </defs>
  <path class="cls-1" d="M188.7,1.1H25.8C11.6,1.1,0,12.7,0,27v162.9c0,14.3,11.6,25.8,25.8,25.8h162.9c14.3,0,25.8-11.6,25.8-25.8V27c0-14.3-11.6-25.8-25.8-25.8ZM95.2,75.8v28.5h-24.9v76.4h-38.2v-76.4h-15.9v-28.5h15.9v-2.6c0-13.3,3.9-23.8,11.9-31.6,7.9-7.8,19.1-11.8,33.6-11.8s9.1.5,13.8,1.4c4.6.9,8.5,2.3,11.6,4.2l-9.4,26.9c-1.6-.9-3.4-1.7-5.3-2.3-1.9-.6-4.1-.9-6.3-.9-3.8,0-6.8,1.2-9.1,3.5-2.3,2.3-3.5,6-3.5,11v2.2h26.1ZM179.8,179.9l-20.9-28.2-21.1,28.2h-21.3l31.9-41.7-30.7-40.1h21.5l20,26.6,20.1-26.6h20.7l-30.6,40,32.2,41.9h-21.8Z"/>
</svg>