<?xml version="1.0" encoding="utf-8"?>
<!-- Generator: Adobe Illustrator 25.0.0, SVG Export Plug-In . SVG Version: 6.00 Build 0)  -->
<svg version="1.1" id="Ebene_1" xmlns="http://www.w3.org/2000/svg" xmlns:xlink="http://www.w3.org/1999/xlink" x="0px" y="0px"
	 viewBox="0 0 299.1 399.2" style="enable-background:new 0 0 299.1 399.2;" xml:space="preserve">
	 
<style type="text/css">
	.bg-secondary{fill:#f9f7fa;}
</style>

<g class="bg-secondary">
	<path d="M270.6,8.2c1.2,0.5,2.5,1,3.7,1.4c8.4,3.1,14,10.7,14.3,19.6c0,1,0,2,0,3c0,102.4,0,204.9,0.1,307.3c0,7.6-2.1,14-8,18.9
		c-1.7,1.4-3.7,2.5-5.8,3.3c-2.8,1.1-5.2,0-6.6-2.7c-1.5-2.9-0.9-5.8,1.9-7.1c6-2.9,7.2-7.7,7.2-13.9c-0.1-85.6-0.1-171.2-0.1-256.8
		c0-1.5,0-3,0-4.7c-85.4,0-170.5,0-256.3,0c0,4.5,0,9,0,13.6c0,1.5,0.2,3.5-0.7,4.3c-1.5,1.5-3.8,3.4-5.6,3.2
		c-1.8-0.2-3.5-2.6-4.8-4.3c-0.6-0.8-0.2-2.4-0.2-3.7c0-18.2,0.4-36.4-0.1-54.6C9.4,21.7,14.2,11.8,28.8,8.2
		C109.4,8.2,190,8.2,270.6,8.2z M21.3,64.8c85.6,0,170.8,0,256.2,0c0-10.8,0-21.4,0-32c0-9.7-3.6-13.3-13.3-13.3
		c-70.9,0-141.7,0-212.6,0c-6.5,0-13,0-19.5,0.1c-5.7,0.1-10.6,3.7-10.7,8.9C21.1,40.4,21.3,52.5,21.3,64.8z"/>
	<path d="M10,229.2c0-37.1,0-74.1,0-111.2c0-1.2-0.1-2.5,0.1-3.7c0.3-2.8,2-4.6,4.8-5c3-0.4,5.2,1,6,3.9c0.4,1.5,0.4,3.2,0.4,4.8
		c0,73.7,0,147.5,0,221.2c0,4.2,0.3,8.4,4.2,10.6c2.7,1.5,6.1,2.2,9.2,2.2c45.8,0.1,91.6,0.1,137.4,0.1c1.5,0,3-0.1,4.5,0.1
		c3.3,0.4,5.4,2.7,5.2,5.8c-0.2,3.2-2.1,4.9-5.3,5.3c-0.9,0.1-1.7,0.1-2.6,0.1c-46.8,0-93.6,0-140.4,0c-11.9,0-20.5-6.4-22.8-17.1
		c-0.5-2.3-0.5-4.7-0.5-7.1C9.9,302.5,10,265.9,10,229.2z"/>
	<path d="M149.2,248.6c-24.8,0-49.6,0-74.5,0c-10.3,0-14.8-4.5-14.9-14.8c0-4-0.1-8,0-12c0.2-7.6,5.1-12.5,12.7-12.8
		c0.7,0,1.5,0,2.2,0c49.6,0,99.3,0,148.9,0c1.5,0,3,0,4.5,0.3c5.8,1,9.9,5.3,10.3,11.2c0.3,5.3,0.3,10.7,0.1,16.1
		c-0.3,7-5.3,11.8-12.3,11.9c-6.9,0.1-13.7,0-20.6,0.1C186.9,248.6,168.1,248.6,149.2,248.6z M148.9,237.4c24.9,0,49.9,0,74.8,0.1
		c2.9,0,4.1-0.7,3.9-3.8c-0.2-2.6,0-5.2,0-7.8c0-5.6,0-5.6-5.4-5.6c-48.5,0-97,0-145.5,0c-0.9,0-1.7,0.1-2.6,0
		c-2.1-0.1-3,0.8-2.9,2.8c0.1,3.4,0.2,6.7,0,10.1c-0.2,3.2,0.8,4.3,4.2,4.2C99.8,237.3,124.3,237.4,148.9,237.4z"/>
	<path d="M149.2,185.1c-24.7,0-49.4,0-74.1,0c-10.8,0-15.2-4.4-15.2-15.2c0-3.9-0.1-7.7,0-11.6c0.3-7.7,5.1-12.5,12.8-12.7
		c8.2-0.2,16.5,0,24.7,0c42.3,0,84.6,0,126.9,0c5.1,0,9.4,1.2,12.4,5.5c3.1,4.5,3.1,23.8,0.1,28.4c-2.7,4.1-6.7,5.7-11.5,5.7
		c-14.7-0.1-29.4,0-44.2,0C170.4,185.1,159.8,185.1,149.2,185.1z M149,173.9c24.6,0,49.2,0,73.7,0c4.8,0,4.8,0,4.8-5
		c0-2.2,0-4.5,0-6.7c0-5.3,0-5.3-5.2-5.3c-47.4,0-94.8,0-142.2,0c-1.6,0-3.3,0.2-4.9,0c-3.4-0.4-4.4,1.1-4.1,4.3
		c0.2,2.7,0.3,5.5,0,8.2c-0.3,3.5,0.8,4.7,4.5,4.7C100,173.8,124.5,173.9,149,173.9z"/>
	<path d="M251.7,350.4c3.4,5.9,6.6,11.4,9.8,16.9c4.3,7.5,2.9,12.4-4.6,16.8c-3,1.8-6,3.5-9.1,5.2c-7.1,4-12,2.6-16.2-4.5
		c-3.1-5.4-6.3-10.8-9.4-16.1c-0.1-0.2-0.3-0.3-0.8-0.7c-4.2,2.4-8.5,4.9-12.8,7.3c-8,4.5-15.3,0.3-15.3-8.9
		c-0.1-21.6-0.1-43.2,0-64.7c0-9.2,7.3-13.5,15.3-9c18.7,10.7,37.4,21.5,56,32.3c8.1,4.7,8.1,13.2,0,18
		C260.4,345.3,256.2,347.7,251.7,350.4z M257.7,333.8c-18-10.4-35.3-20.4-53-30.6c0,20.8,0,40.7,0,61.2c3.8-2.2,7.2-4.2,10.7-6.1
		c7.2-4.1,12.4-2.7,16.6,4.5c3.3,5.6,6.5,11.2,9.8,17c3.6-2.1,6.9-4,10.4-6.1c-3.5-6-6.8-11.8-10.1-17.7c-3.7-6.5-2.2-11.7,4.1-15.5
		C249.8,338.4,253.4,336.3,257.7,333.8z"/>
	<path d="M149,315.9c-4.4,0-8.7,0.1-13.1,0c-10.6-0.2-18.7-8.6-18.8-19.3c-0.1-11,7.8-19.6,18.6-19.8c9.1-0.2,18.2-0.2,27.3,0
		c10.8,0.2,18.7,8.7,18.6,19.8c-0.1,10.7-8.2,19.1-18.8,19.3C158.2,316,153.6,315.9,149,315.9z M149.5,288c-4.4,0-8.7-0.1-13.1,0
		c-5,0.1-8.1,3.4-8.1,8.3c0,4.9,3.2,8.3,8.1,8.3c8.6,0.1,17.2,0.1,25.8,0c4.9-0.1,8.1-3.5,8.1-8.3c0-4.9-3.1-8.1-8.1-8.3
		C158,287.9,153.7,288,149.5,288z"/>
	<path d="M149.3,98c16.8,0,33.7,0,50.5,0c1.1,0,2.3-0.1,3.4,0.1c3,0.4,4.8,2.2,4.9,5.2c0.2,3-1.5,5-4.3,5.7
		c-1.2,0.3-2.5,0.2-3.7,0.2c-33.8,0-67.6,0-101.4,0c-1,0-2,0.1-3-0.1c-3.2-0.4-5.4-2.9-5.1-5.8c0.3-3.1,2.1-5,5.3-5.3c1-0.1,2,0,3,0
		C115.6,98,132.5,98,149.3,98z"/>
	<path d="M51.3,25.2c9.5,0.1,17.1,7.9,17,17.2c-0.1,9.4-7.9,17-17.4,16.9c-9.5-0.1-17-7.8-17-17.3C34.1,32.6,41.8,25.1,51.3,25.2z
		 M57.1,42.3c0-3.2-2.7-5.9-6-5.9c-3.2,0-5.7,2.4-5.8,5.6c-0.1,3.3,2.5,6,5.8,6.1C54.3,48.2,57.1,45.5,57.1,42.3z"/>
	<path d="M95.9,59.4c-9.5-0.1-17.1-7.8-17-17.3c0.1-9.5,7.8-17,17.3-16.9c9.5,0.1,17.2,7.8,17.1,17.2
		C113.2,51.8,105.4,59.5,95.9,59.4z M102,42.3c0-3.2-2.7-5.9-6-5.9c-3.2,0-5.7,2.4-5.8,5.6c-0.1,3.3,2.5,6,5.8,6.1
		C99.2,48.2,102,45.5,102,42.3z"/>
	<path d="M140.8,25.2c9.5-0.1,17.3,7.5,17.4,16.9c0.1,9.4-7.6,17.2-17,17.3c-9.5,0.1-17.2-7.5-17.3-16.9
		C123.8,32.9,131.3,25.3,140.8,25.2z M141.1,36.4c-3.4,0-6,2.5-6,5.8c0,3.1,2.5,5.7,5.6,5.8c3.3,0.1,6.1-2.5,6.2-5.7
		C147.1,39.2,144.4,36.5,141.1,36.4z"/>
</g>
</svg>
