<svg xmlns="http://www.w3.org/2000/svg" width="17.698" height="23.277" viewBox="0 0 17.698 23.277">
  <g id="Gruppe_305" data-name="Gruppe 305" transform="translate(-253.645 -108)">
    <path id="Pfad_440" data-name="Pfad 440" d="M271.342,115.122q0,6.523,0,13.046c0,.235,0,.47,0,.7a2.51,2.51,0,0,1-1.785,2.3c-.129.037-.26.069-.389.1h-13.34c-.012-.009-.023-.023-.036-.026a2.5,2.5,0,0,1-2.142-2.718V115.469c0-1.643,0-3.287,0-4.93a2.359,2.359,0,0,1,1.065-2.068,6.271,6.271,0,0,1,1.112-.471H264a.633.633,0,0,1,.446.184C265.564,109.293,271.342,115.041,271.342,115.122Zm-9.008,3.334h.181q2.38,0,4.76,0a.69.69,0,0,0,.684-.393.679.679,0,0,0-.67-.971q-3.74,0-7.481,0h-2.4a.682.682,0,1,0,.009,1.363Q259.874,118.46,262.334,118.457Zm0,3.637h.2q2.369,0,4.738,0a.691.691,0,0,0,.694-.413.681.681,0,0,0-.681-.951q-3.752,0-7.5,0h-2.38a.67.67,0,0,0-.645.381.678.678,0,0,0,.654.981Q259.875,122.1,262.334,122.094Zm-3.311,2.273c-.537,0-1.074,0-1.611,0a.682.682,0,1,0,0,1.362q1.6,0,3.2,0a.683.683,0,1,0,0-1.362C260.082,124.365,259.552,124.367,259.023,124.367Z" transform="translate(0)" fill="#707070"/>
  </g>
</svg>
