<svg xmlns="http://www.w3.org/2000/svg" width="32.039" height="31.572" viewBox="0 0 32.039 31.572">
  <path id="Pfad_416" data-name="Pfad 416" d="M45.509,31H41.064V27.017a3.511,3.511,0,0,0-3.511-3.511H20.492a3.511,3.511,0,0,0-3.511,3.511V44.078a3.511,3.511,0,0,0,3.511,3.511h4.445v3.978a3.511,3.511,0,0,0,3.511,3.511H45.509a3.511,3.511,0,0,0,3.511-3.511V34.507A3.511,3.511,0,0,0,45.509,31Zm.81,20.572a.81.81,0,0,1-.81.81H28.448a.81.81,0,0,1-.809-.81V47.589h9.914a3.511,3.511,0,0,0,3.511-3.511V33.7h4.445a.81.81,0,0,1,.81.81Z" transform="translate(-16.981 -23.506)" fill="#fff"/>
</svg>
