<?xml version="1.0" encoding="utf-8"?>
<!-- Generator: Adobe Illustrator 25.0.1, SVG Export Plug-In . SVG Version: 6.00 Build 0)  -->
<svg version="1.1" id="Layer_1" xmlns="http://www.w3.org/2000/svg" xmlns:xlink="http://www.w3.org/1999/xlink" x="0px" y="0px"
	 viewBox="0 0 512 512" style="enable-background:new 0 0 512 512;" xml:space="preserve">
	  <style type="text/css">
	.bg-secondary{fill:#2388AE;}
</style>
<g class="bg-secondary">
	<path d="M272.5,512c-10.7,0-21.4,0-32.1,0c-6.3-0.8-12.5-1.4-18.8-2.3c-51.4-7.3-96.7-28-135.4-62.5C42.1,407.7,14.5,358.9,4,300.6
		c-1.7-9.5-2.7-19.1-4-28.6c0-10.7,0-21.3,0-32c0.3-1.6,0.7-3.2,0.9-4.9c1.6-10.7,2.4-21.5,4.7-32.1C20.4,136,56.3,82.7,113.1,44.1
		C169.1,6.1,231.2-7,298,3.5c49,7.7,92.1,28.6,129,61.7c44,39.5,71.6,88.4,81.9,146.7c1.7,9.3,2.6,18.7,3.9,28.1c0,10.7,0,21.3,0,32
		c-0.7,6.1-1.4,12.2-2.3,18.3c-7.3,51.5-28,96.9-62.7,135.7c-39.5,44-88.4,71.5-146.8,82C291.6,509.7,282,510.7,272.5,512z
		 M24,255.9C24,383.6,128.1,487.7,256,488c128.1,0.3,232.7-103.9,232.8-231.8c0.1-127.7-104.1-231.9-232-232.1
		C128.7,23.9,24.1,128,24,255.9z"/>
	<path d="M254.1,268c-10.4,24.4-26.1,36.3-47.4,35.8c-16.5-0.3-37.4-9.4-45.9-35.8c-13.5,0-27.2,0-40.9,0c-6.9,0-11.7-3.7-12.8-9.5
		c-1.5-8,3.8-14.3,12.4-14.4c11.9-0.1,23.7,0,35.6,0c1.8,0,3.7,0,5.7,0c8-22.7,23.6-36.2,48.1-35.6c23.1,0.6,37.8,13.8,45.3,35.6
		c2,0,4,0,6,0c43.4,0,86.8,0,130.2,0c1.7,0,3.4-0.1,5,0.1c6.3,0.6,10.7,5.5,10.8,11.7c0.1,6.4-4.4,11.5-10.9,12.1
		c-1.7,0.2-3.3,0.1-5,0.1c-43.4,0-86.8,0-130.2,0C258,268,256,268,254.1,268z M231.3,256.1c0-13-10.8-23.9-23.8-23.9
		c-13,0-23.9,10.8-24,23.8c-0.1,13,10.8,23.9,23.8,23.9C220.3,279.9,231.2,269.1,231.3,256.1z"/>
	<path d="M221,345.8c3.2-10.6,8.7-19.3,17.3-25.9c25.6-19.6,62.7-9,73.9,21.3c1.3,3.6,2.9,4.8,6.7,4.7c23.7-0.2,47.4-0.1,71.1-0.1
		c2,0,4,0,6,0.2c5.3,0.7,9.4,5,9.9,10.4c0.6,5.6-2.6,10.9-7.8,12.5c-2.3,0.7-4.9,0.8-7.4,0.9c-24,0.1-48.1,0.1-72.1,0
		c-3.2,0-4.9,0.6-6.1,4c-7,19.5-24.9,31.9-45.2,31.7c-20.2-0.2-37.8-12.4-44.7-31.8c-1.3-3.5-3.1-3.9-6.2-3.9
		c-31.4,0.1-62.8,0.1-94.1,0c-2.3,0-4.7-0.1-6.9-0.7c-5.6-1.5-8.9-6.7-8.4-12.6c0.5-5.6,4.7-9.9,10.3-10.5c2-0.2,4-0.2,6-0.2
		c30.5,0,61.1,0,91.6,0C216.8,345.8,218.8,345.8,221,345.8z M267.7,334c-13.2-0.1-23.9,10.5-24.1,23.6c-0.1,13,10.6,23.8,23.7,23.9
		c13.2,0.1,23.9-10.5,24-23.6C291.5,344.9,280.8,334,267.7,334z"/>
	<path d="M189.6,142.3c22.9,0,45.7-0.1,68.6,0.1c3.4,0,5.1-0.7,6.4-4.3c6.8-19.1,24.8-31.5,44.9-31.4c20.2,0,37.9,12.3,44.9,31.6
		c1.2,3.3,2.7,4.2,6,4.2c11-0.2,22-0.2,33.1,0c6.2,0.1,10.7,3.5,12.1,8.6c1.4,5.1-0.3,10.6-4.8,13.1c-2.5,1.4-5.6,2-8.5,2.1
		c-10.7,0.2-21.4,0.2-32,0c-3.2-0.1-4.6,0.9-5.7,4c-7.1,19.6-24.7,31.9-45.1,31.9c-20.1,0-38-12.4-44.8-31.6
		c-1.3-3.6-3.1-4.3-6.5-4.2c-44.7,0.1-89.5,0.1-134.2,0.1c-2,0-4,0-6-0.1c-6.2-0.5-10.6-4.9-11.1-10.9c-0.5-6.3,3.4-11.4,9.7-12.6
		c1.9-0.4,4-0.4,6-0.4C144.9,142.3,167.2,142.3,189.6,142.3z M309.6,178.1c13.1,0,23.9-10.8,23.8-23.8c0-13.1-10.8-23.7-23.9-23.7
		c-13.2,0-23.9,10.7-23.8,23.8C285.7,167.4,296.4,178.1,309.6,178.1z"/>
</g>
</svg>
