<?xml version="1.0" encoding="utf-8"?>
<!-- Generator: Adobe Illustrator 25.0.1, SVG Export Plug-In . SVG Version: 6.00 Build 0)  -->
<svg version="1.1" id="Layer_1" xmlns="http://www.w3.org/2000/svg" xmlns:xlink="http://www.w3.org/1999/xlink" x="0px" y="0px"
	 viewBox="0 0 300 300" style="enable-background:new 0 0 300 300;" xml:space="preserve">
<g>
	<path d="M180.7,248.6c-4.3,5.6-7.4,9.1-14.6,14.3c-7.7,5.5-16.2,9.8-23.1,16.3c-5.6,5.3-11.4,7.2-17.6,4c-5-2.6-6.9-7.1-6.9-12.6
		c0-29.4,0-58.8,0-88.2c0-1.6-0.6-3.2-1.6-4.5C80.8,132.3,44.5,86.8,8.4,41.2C6.6,39,4.8,36.6,3.9,34c-2.7-8.3,3.2-15.9,12.4-16.5
		c0.6,0,178,0,266.1,0c5.4,0,10,1.5,12.9,6.5c0.7,1.2,1.2,2.5,1.8,3.8v4.6c-1,1.6-19.8,25.9-43,55.5c-0.7,0.9-2.9,1.5-4.1,1.4
		l-3.3-0.2c-3.4-1.7-5.7-4.5-3.4-7.4c21-26.4,38.2-48,40.7-51.2H16.2c0.9,1.1,1.5,2,2.1,2.8c8.8,11,17.6,21.9,26.3,33
		c1.2,1.5,3,2.4,5,2.4c40-0.1,122.9,0.1,124.2,0.4c3,0.7,5,3.3,4.9,6.2c-0.1,2.9-2.3,5.5-5.2,6c-1.4,0.2-115.2,0.3-116.9,0.3
		c1.1,1.4,57.2,72.3,71,89.2c2.7,3.3,3.6,6.5,3.6,10.6c-0.1,29.1-0.1,89.3-0.1,90.7c1.3-0.8,23.1-16,33.2-22.8
		c2.3-1.6,5.7-5.3,7.7-7.6c1.4-1.6,3.8-2.1,5.6-1C180.4,242.1,182.8,245.9,180.7,248.6z"/>
	<path d="M206,81.5c-2-0.1-3.9-0.1-5.8-0.3c-3-0.4-5.2-2.9-5.3-5.9c-0.1-2.9,1.8-5.9,4.8-6.2c4.2-0.4,8.6-0.4,12.8,0
		c2.8,0.3,4.8,3.3,4.7,6c-0.1,2.9-2.2,5.5-5.2,6C210,81.4,207.9,81.4,206,81.5z"/>
</g>
<g>
	<path d="M222.2,244.9c-40.4,0-73.3-33.1-73.3-73.8c0-19.5,7.6-38,21.5-51.9s32.3-21.6,51.9-21.6c40.5,0,73.5,33,73.6,73.5
		c0.1,40.6-32.9,73.8-73.6,73.8H222.2z M222.2,110c-33.6,0-60.9,27.4-61,61.1c0,16.3,6.3,31.7,17.8,43.3
		c11.5,11.6,26.7,18.1,42.9,18.1c34,0,61.6-27.4,61.6-61.1c0-33.8-27.4-61.3-61.1-61.4H222.2z"/>
	<path d="M253.4,208.6c-1.7,0-3.3-0.7-4.8-2.3c-6.8-6.8-13.6-13.7-20.4-20.5l-5.2-5.2c-0.2-0.2-0.4-0.4-0.6-0.6
		c-0.2,0.2-0.4,0.4-0.6,0.6l-8.4,8.4c-5.8,5.8-11.6,11.7-17.5,17.5c-1.3,1.3-3,2.1-4.7,2.1c-2.8,0-5-1.8-5.8-4.5
		c-0.7-2.4,0-4.5,2-6.5c5-4.9,9.9-9.9,14.9-14.8c2.9-2.9,5.7-5.8,8.6-8.6c0.8-0.8,1.6-1.5,2.4-2.3l0.5-0.4c-0.2-0.2-0.4-0.5-0.7-0.7
		l-5.8-5.9c-6.6-6.6-13.2-13.2-19.8-19.8c-2-2-2.6-4-2.1-6.3c0.7-2.8,3.1-4.7,6-4.7c1.6,0,3.2,0.6,4.4,1.8c2.2,2.2,4.5,4.4,6.6,6.6
		c0.9,0.9,1.8,1.9,2.8,2.8l16.8,16.9c0.2,0.2,0.3,0.3,0.5,0.5c0.2-0.2,0.4-0.4,0.6-0.6l8.2-8.3c5.9-5.9,11.7-11.8,17.6-17.7
		c1.3-1.3,3-2,4.7-2c2.8,0,5.2,1.9,5.9,4.7c0.6,2.3-0.1,4.4-2,6.2c-5.1,5.1-10.1,10.1-15.2,15.2l-11.2,11.2c0.2,0.2,0.4,0.4,0.6,0.6
		l8.2,8.2c5.9,5.9,11.8,11.8,17.7,17.7c1.7,1.7,2.4,4.1,1.8,6.3c-0.5,2.1-2.2,3.7-4.3,4.3C254.5,208.5,253.9,208.6,253.4,208.6z"/>
</g>
</svg>
