<?xml version="1.0" encoding="utf-8"?>
<!-- Generator: Adobe Illustrator 25.0.1, SVG Export Plug-In . SVG Version: 6.00 Build 0)  -->
<svg version="1.1" id="Layer_1" xmlns="http://www.w3.org/2000/svg" xmlns:xlink="http://www.w3.org/1999/xlink" x="0px" y="0px"
	 viewBox="0 0 300 300" style="enable-background:new 0 0 300 300;" xml:space="preserve">

<style type="text/css">
	.st0{fill:#ffffff;}
</style>
<g>
	<path class="st0" d="M297.1,32.3c-2,3.2-77,99.3-112.7,144c-1.7,2.2-2.4,4.3-2.4,7c0.1,18.6-0.1,37.1,0.1,55.7c0.1,9.1-3.3,15.9-10.9,21
		c-10.6,7-21,14.4-31.4,21.7c-4.6,3.3-9.5,4.1-14.5,1.4c-5-2.6-6.9-7.1-6.9-12.6c0-29.4,0-58.7,0-88.1c0-1.6-0.6-3.4-1.6-4.6
		C80.8,132.3,44.5,86.8,8.4,41.2C6.6,39,4.8,36.6,3.9,34c-2.7-8.3,3.2-15.9,12.4-16.5c0.6,0,178,0,266.1,0c5.4,0,10,1.5,12.9,6.5
		c0.7,1.2,1.2,2.5,1.8,3.8C297.1,29.3,297.1,30.8,297.1,32.3z M16.2,30.5c0.9,1.1,1.5,2,2.1,2.8c8.8,11,17.6,21.9,26.3,33
		c1.4,1.8,2.8,2.4,5,2.4c40-0.1,122.8,0.1,124.2,0.4c3,0.7,5,3.3,4.9,6.2c-0.1,2.9-2.3,5.5-5.2,6c-1.4,0.2-115.2,0.3-116.9,0.3
		c1.1,1.4,57.2,72.3,71,89.2c2.7,3.3,3.6,6.5,3.6,10.6c-0.1,29.1-0.1,89.3-0.1,90.7c1.3-0.8,23.1-16,33.2-22.8
		c3.5-2.3,4.9-5.2,4.8-9.3c-0.1-20.1,0-40.2-0.1-60.3c0-3,0.8-5.5,2.7-7.9c32.2-40.4,106.7-134.3,112.2-141.1
		C194.6,30.5,105.6,30.5,16.2,30.5z"/>
	<path class="st0" d="M206,81.5c-2-0.1-3.9-0.1-5.8-0.3c-3-0.4-5.2-2.9-5.3-5.9c-0.1-2.9,1.8-5.9,4.8-6.2c4.2-0.4,8.6-0.4,12.8,0
		c2.8,0.3,4.8,3.3,4.7,6c-0.1,2.9-2.2,5.5-5.2,6C210,81.4,207.9,81.4,206,81.5z"/>
</g>
</svg>
