<?xml version="1.0" encoding="utf-8"?>
<!-- Generator: Adobe Illustrator 25.0.1, SVG Export Plug-In . SVG Version: 6.00 Build 0)  -->
<svg version="1.1" id="Layer_1" xmlns="http://www.w3.org/2000/svg" xmlns:xlink="http://www.w3.org/1999/xlink" x="0px" y="0px"
	 viewBox="0 0 364.3 381" style="enable-background:new 0 0 364.3 381;" xml:space="preserve">
<g>
	<path d="M306.3,363.1c12,0,23.4,0.2,34.8-0.2c1.6,0,3.4-2.4,4.5-4.1c0.7-1.1,0.3-2.9,0.3-4.4c0-82.1,0-164.2,0.1-246.4
		c0-3.9-1.1-6.8-3.9-9.6c-24.8-24.7-49.5-49.4-74.1-74.2c-2.4-2.4-4.8-3.5-8.2-3.4c-9,0.2-17.9,0.1-27.3,0.1c0,1.6,0,3,0,4.3
		c0,15.1,0,30.2,0,45.4c0,5.7-1.6,7.4-7.3,7.4c-52.4,0-104.8,0-157.2,0c-6,0-7.6-1.6-7.6-7.5c0-15,0-30,0-45c0-1.3,0-2.7,0-4.5
		c-5.9,0-11.5,0-17,0c-5.4,0-10.7,0-16.1,0c-5.5,0-7.1,1.6-7.1,7.2c0,29.1,0,58.2,0,87.4c0,2.2,0.1,4.5-0.1,6.7
		c-0.2,3.2-2.3,5.5-5.1,5.3c-3.2-0.2-5-2.1-5-5.4c-0.1-4.4,0-8.7,0-13.1c0-26.7,0.3-53.5-0.1-80.2c-0.2-11.7,7.5-18.4,18.5-18.4
		c77.2,0.3,154.4,0.2,231.7,0.1c6.2,0,11,1.9,15.3,6.3c24.9,25.1,49.9,50.1,74.9,75c4.3,4.2,6.2,9,6.2,15c-0.1,83,0,166-0.1,249
		c0,12-5.9,17.9-18,17.9c-89.7,0-179.4,0-269.1,0.1c-14.2,0-28.4,0-42.7-0.1c-10.3,0-16.6-6.2-16.7-16.5
		c-0.1-31.2-0.1-62.5,0.1-93.7c0-2,1.3-4.5,2.8-5.9c0.9-0.8,4-0.6,5,0.3c1.3,1.2,2.2,3.6,2.3,5.5c0.2,8.4,0.1,16.7,0.1,25.1
		c0,22.4,0,44.7,0,67.1c0,6.4,1.4,7.8,7.6,7.8c10.5,0,20.9,0,32,0c0-1.8,0-3.4,0-4.9c0-56,0-112,0-168c0-7.7,1.1-8.8,8.9-8.8
		c76.5,0,152.9,0,229.4,0c7,0,8.3,1.3,8.3,8.3c0,56,0,112,0,168C306.3,359.4,306.3,361,306.3,363.1z M295.7,362.9
		c0-57.2,0-113.9,0-170.7c-75.3,0-150.3,0-225.4,0c0,57,0,113.8,0,170.7C145.5,362.9,220.4,362.9,295.7,362.9z M70.8,67.2
		c50.6,0,100.7,0,150.9,0c0-15.5,0-30.8,0-45.9c-50.5,0-100.7,0-150.9,0C70.8,36.7,70.8,51.8,70.8,67.2z"/>
	<path d="M20,166.3c0,2.6,0.1,5.2,0,7.8c-0.1,3.1-2,4.9-5,4.9c-3,0-5-1.7-5.1-4.8c-0.2-5.3-0.2-10.7,0-16c0.1-3.1,2.1-4.8,5.1-4.7
		c3.1,0.1,4.8,1.9,4.9,5C20.1,161.1,20,163.7,20,166.3z"/>
	<path d="M20,218.1c0,2.5,0.1,5,0,7.5c-0.2,3.1-2,4.9-5,4.9c-3.1,0-5-1.8-5-4.8c-0.1-5.2-0.2-10.5,0-15.7c0.1-3.1,2.1-4.8,5.2-4.7
		c2.9,0.1,4.7,1.7,4.8,4.7C20.1,212.7,20,215.4,20,218.1C20,218.1,20,218.1,20,218.1z"/>
	<path d="M182.7,330c-25.7,0-51.4,0-77.1,0c-1.2,0-2.5,0.1-3.7-0.2c-2.6-0.6-4.5-2.5-4-5c0.4-1.8,2.2-3.6,3.8-4.9
		c0.9-0.7,2.6-0.4,4-0.4c51.5,0,103,0,154.5,0c0.6,0,1.2,0,1.9,0c3.7,0.2,6.1,2.2,6.1,5.3c0,3-2.4,5.1-6.1,5.1
		c-11.8,0-23.7,0-35.5,0C211.9,330,197.3,330,182.7,330z"/>
	<path d="M182.9,225c25.7,0,51.4,0,77.1,0c1.2,0,2.5-0.1,3.7,0.1c2.8,0.6,4.4,2.4,4.4,5.3c-0.1,2.7-1.7,4.4-4.3,4.9
		c-1.2,0.2-2.5,0.1-3.7,0.1c-51.4,0-102.8,0-154.2,0c-5.6,0-8.3-1.8-8.1-5.4c0.1-3.4,2.7-5,8.1-5C131.6,225,157.3,225,182.9,225z"/>
	<path d="M182.9,272.3c25.6,0,51.1,0,76.7,0c1.1,0,2.3-0.1,3.4,0c3.1,0.3,5.4,2.6,5.1,5.4c-0.3,3-2.1,4.7-5.1,5c-1,0.1-2,0-3,0
		c-51.4,0-102.8,0-154.2,0c-5.6,0-8.3-1.8-8.1-5.4c0.1-3.4,2.7-5,8.1-5C131.6,272.3,157.3,272.3,182.9,272.3z"/>
	<path d="M203.2,43.9c0,2,0.1,4,0,6c-0.2,2.9-2,4.6-4.8,4.8c-2.9,0.2-5-1.4-5.3-4.2c-0.4-4.2-0.4-8.5,0-12.6
		c0.2-2.8,2.3-4.4,5.2-4.2c2.9,0.1,4.6,1.8,4.8,4.7C203.3,40.1,203.2,42,203.2,43.9z"/>
</g>
</svg>
