<?xml version="1.0" encoding="utf-8"?>
<!-- Generator: Adobe Illustrator 25.0.1, SVG Export Plug-In . SVG Version: 6.00 Build 0)  -->
<svg version="1.1" xmlns="http://www.w3.org/2000/svg" xmlns:xlink="http://www.w3.org/1999/xlink" x="0px" y="0px"
	 viewBox="0 0 512 512" style="enable-background:new 0 0 512 512;" xml:space="preserve">
<style type="text/css">
	.st0{fill:none;stroke:#565656;stroke-width:15;stroke-linecap:round;stroke-linejoin:round;stroke-miterlimit:10;}
	.st1{fill:none;stroke:#565656;stroke-width:15;stroke-miterlimit:10;}
	.st2{fill:none;stroke:#565656;stroke-width:15;stroke-linecap:round;stroke-miterlimit:10;}
	.st3{fill:none;stroke:#565656;stroke-width:15;stroke-linecap:round;}
	.st4{fill:#565656;}
	.st5{fill:none;stroke:#565656;stroke-width:15;stroke-linecap:round;stroke-linejoin:round;}
	.st6{fill:none;stroke:#565656;stroke-width:15;stroke-linecap:round;stroke-linejoin:round;stroke-dasharray:24.8533,49.7066;}
	
		.st7{fill:none;stroke:#565656;stroke-width:15;stroke-linecap:round;stroke-linejoin:round;stroke-dasharray:24.8533,49.7066,24.8533,49.7066;}
	.st8{fill:#BABABA;}
	.st9{fill:none;stroke:#2388AE;stroke-width:15;stroke-linecap:round;}
	.st10{fill:none;stroke:#565656;stroke-width:15;stroke-linecap:round;stroke-miterlimit:10;stroke-dasharray:32.1931,42.9241;}
	
		.st11{fill:none;stroke:#565656;stroke-width:15;stroke-linecap:round;stroke-miterlimit:10;stroke-dasharray:32.1931,42.9241,32.1931,42.9241;}
	.st12{fill:none;stroke:#565656;stroke-width:15;stroke-linejoin:round;stroke-miterlimit:10;}
	.st13{fill:url(#SVGID_1_);}
	.st14{fill:url(#SVGID_2_);}
	.st15{fill:url(#SVGID_3_);}
	.st16{fill:url(#SVGID_4_);}
	.st17{fill:url(#SVGID_5_);}
	.st18{fill:url(#SVGID_6_);}
	.st19{fill:url(#SVGID_7_);}
	.st20{fill:url(#SVGID_8_);}
	.st21{fill:url(#SVGID_9_);}
	.st22{fill:url(#SVGID_10_);}
	.st23{fill:url(#SVGID_11_);}
	.st24{fill:url(#SVGID_12_);}
	.st25{fill:url(#SVGID_13_);}
	.st26{fill:url(#SVGID_14_);}
	.st27{fill:url(#SVGID_15_);}
	.st28{fill:url(#SVGID_16_);}
	.st29{fill:url(#SVGID_17_);}
	.st30{fill:url(#SVGID_18_);}
	.st31{fill:url(#SVGID_19_);}
	.st32{fill:url(#SVGID_20_);}
	.st33{fill:url(#SVGID_21_);}
	.st34{fill:url(#SVGID_22_);}
	.st35{fill:url(#SVGID_23_);}
	.st36{fill:url(#SVGID_24_);}
	.st37{fill:url(#SVGID_25_);}
	.st38{fill:url(#SVGID_26_);}
	.st39{fill:url(#SVGID_27_);}
	.st40{fill:url(#SVGID_28_);}
	.st41{fill:url(#SVGID_29_);}
	.st42{fill:url(#SVGID_30_);}
	.st43{fill:url(#SVGID_31_);}
	.st44{fill:url(#SVGID_32_);}
	.st45{fill:url(#SVGID_33_);}
	.st46{fill:url(#SVGID_34_);}
	.st47{fill:url(#SVGID_35_);}
	.st48{fill:url(#SVGID_36_);}
	.st49{fill:url(#SVGID_37_);}
	.st50{fill:url(#SVGID_38_);}
	.st51{fill:#ED1C56;}
	.st52{fill:none;stroke:#ED1C56;stroke-width:13;stroke-miterlimit:10;}
	.st53{fill:none;stroke:#02BA81;stroke-width:15;stroke-linecap:round;stroke-linejoin:round;stroke-miterlimit:10;}
</style>
<g id="Layer_1">
	<g>
		<path class="st51" d="M76.8,473c-8.9,0-16.3,0-23.1-0.1c-18.7-0.1-31.8-7.6-39.9-22.7c-7.7-14.3-7-28.7,1.9-44.2
			c28-48.3,56.4-97.6,83.8-145.1l21.8-37.8c1-1.7,1.9-3.4,2.9-5.4c0.5-1,1.1-2,1.7-3.2l14.4-24.9c4.1-6.2,7.7-12.6,11.6-19.4
			c1.4-2.5,2.9-5.1,4.4-7.7l17.7-30.5l0.1-0.3c0.8-2,2.1-4.1,3.4-6.2c0.6-1,1.3-2,1.9-3c1.5-2.5,4.4-6.7,7.7-6.7c1,0,2,0.3,3.1,1
			c1.7,1,5.3,3.2,0.4,11.7c-13.7,23.7-27.3,47.3-41,71c-8.4,14.6-16.9,29.2-25.3,43.8c-9.1,15.8-18.3,31.7-27.4,47.5
			c-22.9,39.7-46.6,80.7-69.9,121c-7.6,13.2-7.6,24.9,0.1,35.9c7.9,11.3,19.7,12.6,27.9,12.6h0.1c13.5,0,26.9,0,40.4,0l51.3,0h305.4
			c0.7,0,1.3,0,2,0c0.7,0,1.4,0,2,0c1,0,2,0,3-0.1c12.2-0.5,22.1-6.2,27.3-15.6c5.2-9.3,4.7-20.6-1.2-31.1
			c-10.1-17.9-20.6-35.9-30.7-53.4c-4.6-8-9.3-16-13.9-24l-156-270.1c-0.3-0.5-0.6-1-0.9-1.5c-1-1.8-2-3.6-3.2-5.3
			c-5.9-8.5-15-13.3-24.9-13.3c-10,0-19.1,5-24.9,13.6c-2.5,3.8-4.8,7.8-6.9,11.6c-1.4,2.5-2.8,5.1-4.3,7.5c-1.8,3-4.1,4.6-6.5,4.6
			c-1.1,0-2.1-0.3-3.2-1c-4.4-2.7-2.7-7.4-1.3-10c3.8-6.9,7-12.4,10.1-17.5c8.4-13.6,22.3-21.7,37.2-21.7c15,0,28.5,7.9,36.8,21.6
			c15,24.8,29.6,50.5,43.6,75.4l2.1,3.8l47.1,81.2l4.8,8.4c3.2,5.5,6.1,10.7,9.1,15.8c8.1,14,16.1,27.9,24.2,41.9
			c23.4,40.6,47.7,82.7,71.7,123.9c7.3,12.6,9.3,23.8,6.3,35.4c-5.4,21-21.8,32.6-46.3,32.6c-53,0-106.1,0-159.1,0l-185,0
			c-5.7,0-11.5,0-17.2,0C88.3,472.9,82.6,473,76.8,473z"/>
		<path class="st52" d="M255.9,320.8c-14.6,0-26.9-9.5-30.6-23.5c-0.9-3.5-1.1-7.6-1.1-11.5c-0.1-14.3-0.1-28.9-0.1-42.9
			c0-5.1,0-10.2,0-15.3c0-6.2,0-12.3,0-18.5c0-13.5,0-27.5,0.1-41.2c0.1-19.5,13-33.3,31.2-33.6c0.2,0,0.4,0,0.6,0
			c18.5,0,32,13.8,32.2,32.7c0.4,37.1,0.4,76.7,0,121c-0.1,17.5-11.4,30.6-28.1,32.6C258.7,320.7,257.3,320.8,255.9,320.8z"/>
		<path class="st52" d="M255.8,419.2c-9.2,0-17.9-3.6-24.4-10.1c-6.5-6.5-10-15.1-10-24.3c0-19,15.5-34.5,34.4-34.5
			c19,0,34.5,15.5,34.4,34.6C290.2,403.9,274.8,419.2,255.8,419.2L255.8,419.2z"/>
	</g>
</g>
<g id="Einstellungen">
</g>
</svg>
