<svg xmlns="http://www.w3.org/2000/svg" width="18.563" height="17.654" viewBox="0 0 18.563 17.654">
  <path id="Pfad_487" data-name="Pfad 487" d="M419.807,51.608h3.79a1.35,1.35,0,0,0,1.35-1.35v-3.79a1.35,1.35,0,0,0-1.35-1.35h-3.79a1.35,1.35,0,0,0-1.35,1.35v1.339h-5.584V46.469a1.35,1.35,0,0,0-1.35-1.35h-3.79a1.35,1.35,0,0,0-1.35,1.35v3.79a1.35,1.35,0,0,0,1.35,1.35h3.79a1.35,1.35,0,0,0,1.35-1.35V48.92h2.236v9.626a1.689,1.689,0,0,0,1.684,1.684h1.664v1.193a1.35,1.35,0,0,0,1.35,1.35h3.79a1.35,1.35,0,0,0,1.35-1.35v-3.79a1.35,1.35,0,0,0-1.35-1.35h-3.79a1.35,1.35,0,0,0-1.35,1.35v1.485h-1.4a.832.832,0,0,1-.832-.832V48.92h2.236v1.339A1.35,1.35,0,0,0,419.807,51.608Z" transform="translate(-406.383 -45.119)" fill="#7a7a7a"/>
</svg>
