<?xml version="1.0" encoding="utf-8"?>
<!-- Generator: Adobe Illustrator 25.0.1, SVG Export Plug-In . SVG Version: 6.00 Build 0)  -->
<svg version="1.1" id="Layer_1" xmlns="http://www.w3.org/2000/svg" xmlns:xlink="http://www.w3.org/1999/xlink" x="0px" y="0px"
	 viewBox="0 0 430.6 428" style="enable-background:new 0 0 430.6 428;" xml:space="preserve">
<g>
	<path d="M127.2,140.1v43.8h116.7v101.9H127.2v120.9H20V263.7h201.7v-57.6h-94.5H20V37.7h238.2v102.5H127.2z M236,117.9V59.8H42.2
		v123.6h62.3v-65.5H236z M104.5,285.9H42.2v98.8h62.3V285.9z"/>
	<path d="M275,189.1v28.6h139.8v12.9H262.4v-47.1l1.8-1.8c14.5-13.9,36.6-35.4,55.1-54.5c6.8-7.1,24.9-26.5,24.9-33.3
		c0-6.5-4-10.5-10.5-10.5c-9.9,0-11.7,8.3-11.7,13.2l-0.3,7.7L257.2,89l0.9-5.9c6.8-40.6,36.9-64.7,81-64.7
		c44.6,0,74.5,27.4,74.5,68c0,26.5-14.8,45-47.7,78.5h49V178H286.4C282.4,182,278.4,185.7,275,189.1z M299.7,165.1H348
		c36.6-36.9,53-54.5,53-78.5c0-33.6-24.3-55.4-62.2-55.4c-16.9,0-56.3,4.9-66.8,48.3l38.5,9.2c3.1-11.1,11.7-17.9,23.4-17.9
		c13.5,0,23.1,9.5,23.1,23.1c0,10.2-9.9,22.5-28.6,42.2C319.4,145.7,309.2,155.5,299.7,165.1z"/>
</g>
</svg>
