<?xml version="1.0" encoding="utf-8"?>
<!-- Generator: Adobe Illustrator 25.0.1, SVG Export Plug-In . SVG Version: 6.00 Build 0)  -->
<svg version="1.1" xmlns="http://www.w3.org/2000/svg" xmlns:xlink="http://www.w3.org/1999/xlink" x="0px" y="0px"
	 viewBox="0 0 512 512" style="enable-background:new 0 0 512 512;" xml:space="preserve">
<style type="text/css">
	.st0{fill:none;stroke:#565656;stroke-width:15;stroke-linecap:round;stroke-linejoin:round;stroke-miterlimit:10;}
	.st1{fill:none;stroke:#565656;stroke-width:15;stroke-miterlimit:10;}
	.st2{fill:none;stroke:#565656;stroke-width:15;stroke-linecap:round;stroke-miterlimit:10;}
	.st3{fill:none;stroke:#565656;stroke-width:15;stroke-linecap:round;}
	.st4{fill:#565656;}
	.st5{fill:none;stroke:#565656;stroke-width:15;stroke-linecap:round;stroke-linejoin:round;}
	.st6{fill:none;stroke:#565656;stroke-width:15;stroke-linecap:round;stroke-linejoin:round;stroke-dasharray:24.8533,49.7066;}
	
		.st7{fill:none;stroke:#565656;stroke-width:15;stroke-linecap:round;stroke-linejoin:round;stroke-dasharray:24.8533,49.7066,24.8533,49.7066;}
	.st8{fill:#BABABA;}
	.st9{fill:none;stroke:#2388AE;stroke-width:15;stroke-linecap:round;}
	.st10{fill:none;stroke:#565656;stroke-width:15;stroke-linecap:round;stroke-miterlimit:10;stroke-dasharray:32.1931,42.9241;}
	
		.st11{fill:none;stroke:#565656;stroke-width:15;stroke-linecap:round;stroke-miterlimit:10;stroke-dasharray:32.1931,42.9241,32.1931,42.9241;}
	.st12{fill:none;stroke:#565656;stroke-width:15;stroke-linejoin:round;stroke-miterlimit:10;}
	.st13{fill:none;stroke:#2388AE;stroke-width:15;stroke-linecap:round;stroke-linejoin:round;stroke-miterlimit:10;}
	.st14{fill:none;stroke:#2388AE;stroke-width:15;stroke-miterlimit:10;}
	.st15{fill:none;stroke:#2388AE;stroke-width:15;stroke-linecap:round;stroke-miterlimit:10;}
</style>
<g id="Layer_1">
	<g>
		<path class="st4" d="M115.9,317.9c-10.1,0-19.3-1.6-27.2-4.9c-7.9-3.2-14.5-7.8-19.7-13.6c-5.3-5.8-9.3-13-12-21.2
			c-2.7-8.4-4.1-17.6-4.1-27.4c0-10,1.4-19.3,4.3-27.6c2.8-8.2,6.9-15.2,12.3-21c5.3-5.7,11.8-10.1,19.4-13.1
			c7.7-3.1,16.6-4.6,26.5-4.6c13.4,0,25,2.7,34.5,8.1c9.4,5.3,16.6,13,21.5,22.8c4.9,10,7.4,22,7.4,35.6c0,10.1-1.4,19.4-4.1,27.6
			c-2.7,8.1-6.7,15.2-12,21.1c-5.3,5.9-11.9,10.4-19.6,13.5C135.2,316.3,126.1,317.9,115.9,317.9z M115.3,198.5
			c-6.1,0-11.8,1.2-17,3.5c-5.2,2.3-9.8,5.7-13.5,10.2c-3.7,4.4-6.7,10-8.8,16.6c-2.1,6.6-3.1,14-3.1,22.1c0,8.1,1,15.6,3.1,22.3
			c2.1,6.8,5.2,12.5,9.1,17c3.9,4.6,8.6,8,13.7,10.3c5.1,2.3,10.8,3.4,16.9,3.4c7.8,0,15-2,21.6-5.9c6.6-3.9,11.9-10,15.7-18.1
			c3.8-7.9,5.7-17.7,5.7-29c0-10.5-1.7-19.8-5.2-27.6c-3.5-8-8.7-14.2-15.4-18.4C131.5,200.6,123.8,198.5,115.3,198.5z"/>
		<path class="st4" d="M267,317.9c-6.9,0-13.2-0.7-18.8-1.9c-5.5-1.3-10.5-3.3-14.9-5.9c-4.4-2.7-8.6-6.2-12.3-10.6
			c-3.4-4-6.3-8.5-8.7-13.5c-2.4-5-4.2-10.4-5.4-16.1c-1.2-5.7-1.8-11.9-1.8-18.4c0-10.5,1.5-20,4.6-28.2c3-8.1,7.3-15.2,12.9-20.9
			c5.5-5.8,12.1-10.2,19.6-13.2c7.5-3,15.6-4.6,24.2-4.6c10.4,0,19.7,2.1,27.7,6.2c8,4.1,14.2,9.2,18.4,15.1
			c4.1,5.8,6.2,11.2,6.2,16.1c0,2.2-0.7,4-2.3,5.7c-1.5,1.6-3.1,2.4-5.2,2.4c-1.7,0-4-0.2-5.2-1.4c-1-0.9-2.7-3-5.1-7.6
			c-3.9-7.3-8.6-12.9-14-16.6c-5.5-3.8-12.4-5.7-20.3-5.7c-12.6,0-22.8,4.9-30.3,14.5c-7.3,9.3-11,22.5-11,39.3
			c0,11.1,1.6,20.6,4.8,28.1c3.3,7.8,8.1,13.7,14.2,17.6c6.1,3.9,13.3,5.8,21.4,5.8c8.8,0,16.4-2.2,22.5-6.7
			c6.1-4.4,10.8-10.9,13.9-19.3l0-0.1c1-3.2,2.3-5.7,3.8-7.6c0.3-0.5,1.4-1.8,5.2-1.8c2.3,0,4.1,0.7,5.7,2.3
			c1.6,1.6,2.3,3.4,2.3,5.7c0,3.8-1,8-2.9,12.6c-1.9,4.6-5.1,9.2-9.3,13.7c-4.2,4.5-9.7,8.1-16.3,11
			C283.8,316.5,275.9,317.9,267,317.9z"/>
		<path class="st4" d="M448.1,317.9c-2.3,0-4.1-0.5-5.6-1.5c-1.7-1.2-3.2-2.7-4.4-4.5c-1.5-2.2-3.5-5.4-6.1-9.7l-11.1-18.5
			c-4.1-7-7.8-12.3-11.1-16.1c-3.5-4-7.3-6.8-11.1-8.3c-3.7-1.5-8.3-2.2-13.7-2.2h-13.7V305c0,4.7-0.9,8.1-2.8,10
			c-1.8,1.9-4,2.8-7.1,2.8c-3.3,0-5.5-0.9-7.2-2.9c-1.8-2.1-2.7-5.5-2.7-10V199.8c0-4.8,1-8.3,2.8-10.1c1.9-1.9,5.3-2.8,10.1-2.8h45
			c6,0,11.2,0.3,15.5,0.8c4,0.5,7.6,1.4,10.8,2.9l0.1,0c3.8,1.6,7.2,3.9,10.1,6.9c2.9,2.9,5.1,6.4,6.6,10.3c1.5,4,2.3,8.2,2.3,12.7
			c0,9.2-2.5,16.3-7.5,21.7c-5.2,5.5-13.3,9.4-24.1,11.8l-1.7,0.5c0,0,9.9,12.6,13.6,17.6c4.5,6,7.2,10.4,10.5,15.9
			c3.4,5.6,7.1,10.5,9,14.9c2.5,5.9,2.6,7.7,2.6,8c0,1-0.4,2.1-1.1,3.2c-0.8,1.2-1.8,2.1-3.2,2.8
			C451.8,317.5,450.1,317.9,448.1,317.9z M371.4,245.2h28.8c7,0,12.9-0.6,17.8-1.8c5.3-1.3,9.5-3.7,12.4-7.1c3-3.5,4.6-8.2,4.6-14
			c0-4.6-1.2-8.7-3.6-12.2c-2.4-3.5-5.7-6.2-9.8-8c-3.8-1.6-10.4-2.4-20.7-2.4h-29.6V245.2z"/>
	</g>
	<path class="st0" d="M504.1,332.6v139.6c0,18.3-14.8,33.1-33,33.1H330.4"/>
	<path class="st0" d="M330.4,7.6H471c18.3,0,33,14.8,33,33.1V173"/>
	<path class="st0" d="M7.9,173V41.7c0-18.7,15.3-34.1,34-34.1h131.8"/>
	<path class="st0" d="M173.7,505.4H40c-17.7,0-32.1-14.4-32.1-32.1V332.6"/>
</g>
<g id="Einstellungen">
</g>
</svg>
