<?xml version="1.0" encoding="utf-8"?>
<!-- Generator: Adobe Illustrator 25.0.1, SVG Export Plug-In . SVG Version: 6.00 Build 0)  -->
<svg version="1.1" id="Layer_1" xmlns="http://www.w3.org/2000/svg" xmlns:xlink="http://www.w3.org/1999/xlink" x="0px" y="0px"
	 viewBox="0 0 300 300" style="enable-background:new 0 0 300 300;" xml:space="preserve">
<style type="text/css">
	.st0{fill:#555;}
</style>
<path class="st0" d="M2.3,175.8c8.4,44.9,32.3,79.2,71.2,103.1c20,12.3,42,19,65.5,20.6c0.8,0.1,1.5,0.3,2.3,0.5c5.9,0,11.7,0,17.6,0
	c5.7-0.8,11.4-1.3,17.1-2.3c34.6-6.2,63.5-22.5,86.8-48.8c21.2-24,33.5-52,36.6-83.8c3.8-39.2-6.3-74.9-30.3-106.2
	c-22.3-29-51.5-47.8-87.4-55.3C136.7-5.8,95.6,3.4,59.1,31C29.7,53.2,11.2,82.7,3.4,118.8c-1.4,6.4-1.9,12.9-2.9,19.4
	c-0.2,1-0.4,2.1-0.5,3.1c0,5.9,0,11.7,0,17.6C0.8,164.5,1.3,170.2,2.3,175.8z M107.6,56.1c1.3-0.8,2.8-1.3,4.2-1.9c1.5,0,3,0,4.5,0
	c3.5,1,6,3.3,8.5,5.8c26.8,26.9,53.7,53.7,80.6,80.6c6.1,6.1,6.1,12.8-0.1,19c-27.4,27.3-54.7,54.7-82.1,82
	c-5.5,5.5-13,5.7-17.9,0.4c-4-4.3-4.4-10.7-0.8-15.4c0.6-0.8,1.4-1.6,2.1-2.3c24.2-24.2,48.3-48.3,72.5-72.5
	c0.5-0.5,1.2-0.9,1.9-1.4c-0.9-0.9-1.4-1.5-1.9-2c-24.4-24.4-48.9-48.9-73.3-73.3C100.1,69.2,100.9,60.3,107.6,56.1z"/>
</svg>
