<?xml version="1.0" encoding="utf-8"?>
<!-- Generator: Adobe Illustrator 25.0.1, SVG Export Plug-In . SVG Version: 6.00 Build 0)  -->
<svg version="1.1" id="Layer_1" xmlns="http://www.w3.org/2000/svg" xmlns:xlink="http://www.w3.org/1999/xlink" x="0px" y="0px"
	 viewBox="0 0 400 400" style="enable-background:new 0 0 400 400;" xml:space="preserve">
<g>
	<path d="M197.1,389.3c-3.9,0-8.1-0.1-12.3-0.4c-15.9-0.9-29.5-3.5-41.4-8.2c-26.5-10.3-45.5-29-57.9-57.2
		c-7.3-16.6-12-35.1-14.9-58.2c-3.8-30.9-4.8-61.9-2.9-92.2c1.6-25.1,5-57.9,18.3-89C100,51.4,121.3,30,151.3,18.5
		c11-4.2,22.8-6.8,36.2-7.8c1-0.1,2-0.3,3-0.5c0.3-0.1,0.7-0.1,1.1-0.2h22.9c2.1,0.3,4.2,0.5,6.3,0.8c4.5,0.5,9.2,1.1,13.8,1.9
		c20.2,3.7,37.4,11.5,51.1,23.4C299,47.7,309.6,63.5,316.9,83c6,15.8,9.9,33.8,12.4,56.7c3.1,29.1,3.9,58,2.2,86
		c-1.6,26.9-5,58.6-17.9,89c-14.3,33.9-36.5,55.7-67.8,66.9C231.4,386.7,215.4,389.3,197.1,389.3z M200.4,20.9
		c-15.5,0-30.2,2.5-43.7,7.3C128.8,38.3,108.9,58.1,96,88.7c-12.5,29.4-15.8,60.8-17.3,84.9c-1.9,30.2-0.9,61,3,91.5
		c2.7,21.8,7.2,39.2,14.1,54.6c13.1,29.3,34.6,47.7,64,54.7c11.5,2.7,23.5,4.1,35.5,4.1c9.8,0,19.8-0.9,29.9-2.7
		c26.4-4.7,47.7-17.8,63.5-38.9c9.8-13.1,17-28.6,22.2-47.4c8.8-31.9,10.3-63.7,10.5-90.9c0,0,0-14.8-0.5-21.2
		c-1-14.5-2.1-29.5-3.6-44.2c-1.9-18.9-6.4-36.6-13.3-52.6c-11.8-27.2-30.7-45-56.3-53c-9.4-2.9-20.1-4.8-33.8-6
		C209.4,21.1,204.8,20.9,200.4,20.9z"/>
	<path d="M197.5,332.2c-11.6,0-22.5-3.7-30.8-10.5c-10-8.2-14.6-19.8-17.6-29c-5.1-16-6.9-32.6-8.1-48.1c-0.3-4.2-0.6-8.4-0.7-12.6
		c-0.1-3.6,2.1-6.2,5.3-6.3l0.2,0c3.1,0,5.2,2.4,5.4,6c1.1,19.7,2.4,37.5,7.6,55.1c1.4,4.8,3.5,9.9,6,15.2
		c5.4,11.1,14.9,17.3,28.2,18.4c2,0.2,4,0.3,5.9,0.3c19,0,31.8-9.3,39.1-28.4c4.9-12.9,7.8-27.3,9.2-45.5c2.2-29.2,2.1-59.6,0-90.4
		c-1.4-19.8-3.6-36.3-9.9-52.2c-1.8-4.5-4.3-9.1-7.1-13.2c-4.4-6.3-10.3-10.1-16.9-11.1c-4.2-0.6-9.8-1.3-15.5-1.3
		c-1.7,0-3.4,0.1-5,0.2c-11.7,1-20.9,7.3-27.3,18.6c-5.6,9.9-9.2,21.5-11.2,36.6c-0.9,6.8-1.5,13.7-2.1,20.4c-0.3,3-0.5,6-0.8,9.1
		c-0.3,3.5-2.3,5.6-5.4,5.6l-0.3,0c-1.5-0.1-2.9-0.7-3.9-1.7c-1-1.1-1.4-2.5-1.3-4.1c1.2-18.8,2.6-40.1,10.2-60
		c5.7-14.8,13.5-24.5,24.6-30.5c6.5-3.5,15.7-5.5,25.2-5.5c15.5,0,29,5.5,36.9,15c5.8,7,10,15.5,13.5,27.6c5.7,19.4,7.2,39.1,8,57.5
		c0.4,8,0.3,16.2,0.2,24.1c0,3.6-0.1,7.3-0.1,10.9c0.6,21.8,0.5,45.1-3.7,68.2c-2,11.1-5,24.1-11.9,36.1
		C234.6,322.3,216.6,332.2,197.5,332.2z"/>
	<path d="M145,202.9c-3,0-5.4-2.3-5.4-5.3c0-1.4,0.6-2.8,1.6-3.9c1-1.1,2.4-1.7,3.8-1.7c2.9,0,5.4,2.5,5.5,5.4
		c0,1.5-0.5,2.8-1.5,3.9C147.9,202.4,146.5,202.9,145,202.9L145,202.9z"/>
</g>
</svg>
