<?xml version="1.0" encoding="utf-8"?>
<!-- Generator: Adobe Illustrator 25.0.1, SVG Export Plug-In . SVG Version: 6.00 Build 0)  -->
<svg version="1.1" id="Layer_1" xmlns="http://www.w3.org/2000/svg" xmlns:xlink="http://www.w3.org/1999/xlink" x="0px" y="0px"
	 viewBox="0 0 457.9 396.7" style="enable-background:new 0 0 457.9 396.7;" xml:space="preserve">
<style type="text/css">
	.st0{fill:#FFFFFF;}
	.st1{font-family:'ArialRoundedMTBold';}
	.st2{font-size:53.3618px;}
	.st3{fill:#231F20;}
</style>
<g>
	<path class="st0" d="M130.8,196.3c-0.1,3.7,1.7,6,4.8,6.4c3.3,0.4,5.7-1.6,6.3-5.5c2.7-17.9,12.1-29.9,29.9-34.9
		c3.5-1,5.1-3.8,4.4-6.8c-0.8-3.2-3.6-4.8-7.3-4.1C149.3,155.2,131.3,176.3,130.8,196.3z M192.8,265.4c-3.2-0.1-5.7,2.1-5.7,5.6
		c0,4,0.1,8,0.7,11.9c2.6,15.3,10.4,27.1,24.6,34.1c3.3,1.6,6.6,0.6,8-2.2c1.3-2.7,0.3-5.8-2.7-7.6c-0.3-0.2-0.7-0.4-1-0.5
		c-9-4.8-14.7-12.2-17.1-22.1c-1-4.2-1.2-8.6-1.5-13C198,267.8,196.1,265.4,192.8,265.4z M222.7,72.3c-0.2-2.9-1.8-5.1-4.9-5.4
		c-3.1-0.4-5.3,1.2-6.1,4.3c-0.5,1.8-0.7,3.7-1.2,5.5c-3,9.9-10.2,15.6-19.2,19.7c-3.8,1.7-5.1,4.6-3.7,7.7c1.4,3.2,4.4,4.1,8.2,2.5
		c7.6-3.2,14.1-7.9,19.2-14.5C219.5,86.4,222.1,79.8,222.7,72.3z M221,197c0-1.2,0.1-2.1,0-2.9c-0.3-3.5-2.7-5.8-5.7-5.7
		c-3,0.1-5.1,2.3-5.4,5.6c-0.1,1.4-0.1,2.7-0.3,4.1c-0.7,6.4-3.6,11.3-9.2,14.5c-3.7,2.1-4.7,5-3.1,8c1.6,3,5,3.7,8.8,1.6
		C216.1,216.8,220.4,207.8,221,197z M339,206.7c3.1-0.1,5.5-2.8,5.3-6c-0.2-3.1-2.6-5.3-5.7-5.2c-3,0.1-5.4,2.5-5.4,5.5
		C333.2,204.1,336,206.8,339,206.7z M376.9,206.7c2.9,0.1,5.5-2.3,5.6-5.3c0.2-3.3-2.2-5.8-5.4-5.8c-3-0.1-5.5,2.2-5.7,5.2
		C371.3,203.8,373.9,206.6,376.9,206.7z M310.5,40.6c-3.1,0.1-5.5,2.7-5.4,5.9c0.1,3.1,2.5,5.3,5.6,5.2c3.1-0.1,5.4-2.4,5.5-5.5
		C316.2,43.2,313.6,40.5,310.5,40.6z M310.5,350.3c-3.1,0-5.5,2.7-5.4,5.9c0.1,3.1,2.5,5.3,5.6,5.3c3.1,0,5.4-2.4,5.5-5.4
		C316.2,353,313.6,350.3,310.5,350.3z"/>
	<path class="st3" d="M144.4,321.9c2.1-3.9,3.9-7.7,6.1-11.3c1-1.7,2.4-3.2,3.8-4.6c2.6-2.6,5.6-2.8,8-0.6c2.4,2.2,2.6,5.6,0,8.3
		c-4.1,4.5-6.7,9.6-7.5,15.6c-2.2,15.9,4.3,28,16.6,37.4c20.6,15.8,52.7,13.6,70.3-4.8c4.3-4.5,7.7-9.8,11.2-14.9
		c0.7-1.1,0.4-2.9,0.4-4.4c0-78.7,0-157.5,0-236.2c0-1.5-0.1-3,0.1-4.5c0.3-3.4,2.4-5.5,5.4-5.6c3.1-0.1,5.6,2.1,5.7,5.7
		c0.2,6.6,0.1,13.2,0.1,19.9c0,1.3,0,2.7,0,4.3c9.3,0.6,18.1,0.9,26.7-2.1c9.3-3.3,12.7-11.6,13.3-19.9c0.1-1-1.5-2.5-2.7-3.3
		c-6.4-4.2-9.4-11.7-7.4-18.9c2-7,8.2-12,15.3-12.2c7.8-0.3,14.3,4.1,16.8,11.2c2.7,7.7-0.4,16.2-7.8,20.2c-2,1.1-2.8,2.2-3,4.5
		c-1.8,18.5-13.5,30.1-32.1,31.5c-6.2,0.5-12.4,0.1-18.9,0.1c0,11.8,0,22.8,0,34c0.2,0.1,0.6,0.4,0.9,0.4c19.5,0,38.9,0.3,58.1-3.7
		c4.8-1,9.6-2.7,14.1-4.9c9.3-4.5,13.9-12.5,15-22.6c0.1-1-1.3-2.6-2.4-3.4c-5.8-3.9-8.9-9.2-8.2-16.1c0.7-7.1,4.7-12,11.4-14.4
		c8.1-2.9,17,1.1,20.6,9c3.6,8,0.6,17.2-7.1,21.7c-1.2,0.7-2.6,2.1-2.8,3.3c-2.5,21.5-15.7,32.8-35.5,37.8
		c-15.1,3.8-30.6,4.2-46.1,4.5c-6,0.1-11.9,0-18.1,0c0,11.9,0,23.4,0,35.3c5,0,9.8-0.1,14.6,0c16.5,0.2,33,0.4,49,4.5
		c5.4,1.4,10.7,3.4,15.6,6c11.5,6.1,17.9,16,19.7,28.8c0.5,3.2,1.4,5.4,4.6,7.2c6.5,3.8,9,11.9,6.7,19c-2.3,7.2-8.9,11.8-16.5,11.7
		c-7.3-0.2-13.8-5.3-15.7-12.3c-2-7.3,0.9-15,7.4-18.8c2.5-1.4,3-2.7,2.5-5.5c-2-11.3-8.2-19.3-18.9-22.5
		c-9.2-2.8-18.9-4.7-28.5-5.6c-13.4-1.2-26.8-1.2-40.5-1.7c0,12.2,0,23.7,0,35.6c4.8,0,9.4-0.2,13.9,0.1c4.1,0.2,8.2,0.7,12.2,1.7
		c14.4,3.5,23.3,14.4,24.8,30.2c0.2,2.2,0.9,3.5,2.9,4.6c7,3.8,10.2,11.5,8.3,19.1c-1.8,7.1-8.5,12.3-16,12.5
		c-7.5,0.2-14.4-5-16.5-12.3c-2.1-7.3,0.9-15.1,7.7-19c2.3-1.3,2.7-2.8,2.3-5.1c-1.9-11.7-8-18.2-19.7-19.7
		c-6.5-0.8-13.1-0.7-20-1.1c-0.1,1.9-0.3,3.1-0.3,4.3c0,21.2-0.1,42.5,0.1,63.7c0,1.7,1.2,3.5,2,5.2c0.5,1.1,1.5,2,2.1,3.1
		c9.7,18.4,31,27.1,50.7,25c15.5-1.6,28.5-8,37.5-21.1c5.2-7.6,7.5-16,6.3-25.2c-0.7-5,1.2-6.9,6-8.1c6-1.4,12-3.2,17.8-5.3
		c4.1-1.4,7.3-0.9,8.7,2.3c1.4,3.3,0.1,6.3-4,8c-5.4,2.2-10.9,4.1-16.6,6.2c-0.4,3.1-0.5,6.8-1.3,10.3
		c-5.8,24.2-22.3,37.1-45.5,42.9c-2.4,0.6-4.8,1-7.2,1.5c-4.7,0-9.5,0-14.2,0c-0.6-0.2-1.1-0.5-1.7-0.6
		c-19.5-2.9-35.1-11.9-45.5-29.2c-0.2-0.3-0.5-0.4-1-0.7c-7.8,13.4-19.1,22.3-33.6,27c-4.6,1.5-9.3,2.3-14,3.5c-4.7,0-9.5,0-14.2,0
		c-5.4-1.4-11-2.3-16.2-4.2c-22.9-8.2-35.5-25.2-37.8-50.8 M359,116.9c-3.1,0-5.8,2.6-5.7,5.7c0.1,2.9,2.6,5.4,5.6,5.5
		c3.1,0,5.7-2.6,5.6-5.7C364.4,119.3,362,116.9,359,116.9z M359.1,273c-3.1-0.1-5.8,2.6-5.8,5.6c0,2.9,2.5,5.5,5.5,5.5
		c3,0.1,5.5-2.2,5.7-5.2C364.7,275.7,362.2,273,359.1,273z M316.2,86.2c-0.1-3.2-2.7-5.5-5.9-5.4c-3,0.2-5.3,2.6-5.2,5.7
		c0.1,3,2.5,5.5,5.5,5.5C313.6,92,316.3,89.3,316.2,86.2z M316.2,315.9c0.1-3-2.2-5.5-5.3-5.6c-3.3-0.2-5.8,2.1-5.8,5.4
		c-0.1,3,2.2,5.6,5.2,5.7C313.3,321.6,316.1,319,316.2,315.9z"/>
	<path class="st3" d="M313.5,4.4c7.5,2.5,15.5,4.2,22.4,7.8c12.6,6.7,21.2,17.3,24.1,31.7c0.5,2.7,2.1,2.5,4,2.6c16.1,0.9,29.5,7.1,38.7,20.7
		c6.3,9.3,8,19.5,5.2,30.4c-0.3,1.2-0.6,2.4-0.9,3.6c32.8,6.9,46.6,40,28.4,64.8c12.5,13.9,18.3,29.9,13.4,48.5
		c-4.9,18.4-17.7,29.9-33.8,36.7c2.5,7.5,5.6,14.6,7.2,22.1c2.4,11.6-0.4,22.6-6.5,32.7c-2.1,3.5-5.3,4.5-8.2,2.7
		c-2.9-1.8-3.4-4.8-1.4-8.5c8.9-16.3,7.1-32.4-5.1-46.4c-4.4-5.1-3.1-9,3.4-11c16.6-4.9,29.1-14.3,33.7-31.8
		c3.7-14.3-1.1-26.5-10.1-36.4c-5.9,1.9-11.1,3.9-16.4,5.2c-3.8,0.9-6.4-1.2-6.9-4.5c-0.5-3.3,1.4-5.7,5.2-6.5
		c12-2.3,19.3-9.8,21.9-21.3c2.7-12.1-2.4-21.5-12-28.6c-6-4.5-12.8-6.4-20.2-7.1c-7.1-0.7-8.8-4.1-5.3-10.3
		c6.3-11.3,4.5-24-4.9-33.3c-7.2-7.1-16.1-10.2-26-10.7c-2.1-0.1-2.8,0.6-3.5,2.7c-1.9,5.4-4.1,10.7-6.8,15.6
		c-2,3.6-5.5,4.1-8.3,2.1c-2.7-2-3-5.2-0.8-8.6c9-13.4,7.3-29.3-4.5-40.9c-22.2-21.7-58.4-14.4-71.2,8c-2.7,4.7-3.7,8.8-3.6,13.7
		c0,8.1,0.1,16.2,0,24.4c0,4.1-2.3,6.6-5.5,6.7c-3.4,0-5.6-2.6-5.7-6.9c-0.1-9.9-0.1-19.7,0-29.6c0-2.4-0.1-4.4-2.3-5.9
		c-0.8-0.5-1.2-1.6-1.8-2.4c-15.6-25.3-53.2-28.3-72.7-5.8c-5.1,5.9-8.2,12.7-8.4,20.7c-0.1,5.1-2.7,7.1-7.8,6.5
		c-1.5-0.2-3-0.3-4.5-0.4c-3.3-0.1-5.4-1.8-5.8-5.1c-0.4-3.1,1.7-5.4,5.2-6.1c0.5-0.1,1-0.1,1.7-0.2c0.7-2.6,1.2-5.3,2.2-7.8
		c7.5-19.4,22.4-29.5,42.2-33.4c1-0.2,1.9-0.5,2.8-0.7c4.2,0,8.5,0,12.7,0c1.1,0.3,2.1,0.6,3.2,0.8c13.7,2.4,25.4,8.5,34.4,19.4
		c1.5,1.8,2.8,3.7,4.1,5.5c0.4-0.1,0.6,0,0.6-0.1c0.4-0.6,0.9-1.2,1.3-1.8c5.4-8.1,12.5-14.4,21.4-18.1c6-2.5,12.5-3.8,18.8-5.7
		C305,4.4,309.3,4.4,313.5,4.4z"/>
	<path class="st0" d="M211,388.4c4.7-1.1,9.5-2,14-3.5c14.5-4.7,25.9-13.6,33.6-27c0.4,0.3,0.8,0.4,1,0.7
		c10.4,17.2,26,26.3,45.5,29.2c0.6,0.1,1.1,0.4,1.7,0.6C274.9,388.4,242.9,388.4,211,388.4z"/>
	<path class="st0" d="M300.8,4.4c-6.3,1.9-12.8,3.2-18.8,5.7c-8.9,3.7-16,10-21.4,18.1c-0.4,0.6-0.9,1.2-1.3,1.8
		c-0.1,0.1-0.2,0-0.6,0.1c-1.3-1.8-2.6-3.7-4.1-5.5c-8.9-10.9-20.6-17-34.4-19.4C219.1,5,218,4.7,217,4.4
		C244.9,4.4,272.9,4.4,300.8,4.4z"/>
	<path class="st3" d="M192.8,285.4c3.3,0.1,5.2,2.4,5.5,6.3c0.3,4.3,0.5,8.8,1.5,13c2.3,9.9,8,17.3,17.1,22.1c0.3,0.2,0.7,0.3,1,0.5
		c3,1.8,4.1,4.9,2.7,7.6c-1.4,2.9-4.7,3.9-8,2.2c-14.2-7-21.9-18.8-24.6-34.1c-0.7-3.9-0.8-8-0.7-11.9
		C187.1,287.5,189.6,285.3,192.8,285.4z"/>
	<path class="st3" d="M222.7,52.3c-0.6,7.5-3.2,14.1-7.7,19.8c-5.1,6.5-11.6,11.3-19.2,14.5c-3.8,1.6-6.8,0.6-8.2-2.5c-1.4-3.1,0-6,3.7-7.7
		c9-4.1,16.2-9.8,19.2-19.7c0.5-1.8,0.7-3.7,1.2-5.5c0.8-3.1,2.9-4.7,6.1-4.3C220.9,47.2,222.4,49.4,222.7,52.3z"/>
	<path class="st3" d="M339,206.7c-3,0.1-5.8-2.6-5.8-5.6c0-3,2.4-5.4,5.4-5.5c3.1-0.1,5.5,2.1,5.7,5.2C344.5,203.9,342.1,206.6,339,206.7z"/>
	<path class="st3" d="M376.9,206.7c-3-0.1-5.6-2.9-5.5-5.9c0.2-3,2.7-5.3,5.7-5.2c3.2,0.1,5.5,2.6,5.4,5.8C382.4,204.4,379.8,206.8,376.9,206.7z
		"/>
	<path class="st3" d="M310.5,40.6c3.1-0.1,5.7,2.6,5.7,5.7c0,3-2.4,5.4-5.5,5.5c-3.1,0.1-5.5-2.2-5.6-5.2C305,43.3,307.4,40.6,310.5,40.6z"/>
	<path class="st3" d="M310.5,350.3c3.1,0,5.7,2.6,5.7,5.7c-0.1,3-2.4,5.4-5.5,5.4c-3.1,0-5.4-2.2-5.6-5.3C305,353,307.4,350.4,310.5,350.3z"/>
</g>
<g>
	<path class="st3" d="M33.6,370.3c-4.5,0-8.9-1.2-12.6-3.5c-11.9-7-16-22.4-9.1-34.4l10.3-16.7c1.1-1.9,3.1-3,5.3-3c1.2,0,2.3,0.3,3.3,0.9
		c2.9,1.8,3.9,5.7,2,8.6l-10.2,16.5c-3.4,6-1.4,13.8,4.7,17.3c1.9,1.2,4,1.7,6.3,1.7c4.7,0,9.1-2.5,11.2-6.5l0.1-0.1l26.6-43.4
		l-22-12.7l-6.2,10.1c-1.1,1.9-3.1,3-5.3,3c-1.2,0-2.3-0.3-3.3-0.9c-1.4-0.9-2.4-2.2-2.8-3.9s-0.1-3.3,0.8-4.7l7.1-11.6
		c2.5-4.3,5.6-8.2,9.3-11.5l12.4-11.7C22,231.4,11.4,174.1,37.1,129.5c14.1-24.4,36.8-41.9,64-49.2c9-2.4,18.2-3.6,27.4-3.6
		c18.3,0,36.5,4.9,52.5,14.2c50.3,29.1,67.6,93.8,38.6,144.1c-7.2,12.5-16.7,23.3-28.2,31.8c-1.1,0.8-2.4,1.2-3.7,1.2
		c-2,0-3.8-0.9-5-2.5c-2.1-2.8-1.5-6.7,1.3-8.7c10.1-7.6,18.5-17,24.9-28.1c25.6-44.4,10.4-101.4-34-127.1
		c-14.1-8.2-30.2-12.5-46.3-12.5c-8.1,0-16.2,1.1-24.2,3.2c-24,6.4-44,21.8-56.4,43.4c-25.6,44.4-10.4,101.4,34,127.1
		c14.1,8.1,30.2,12.5,46.4,12.5c13.6,0,27.3-3.1,39.7-8.9c0.8-0.4,1.7-0.6,2.7-0.6c2.4,0,4.6,1.4,5.6,3.6c0.7,1.5,0.8,3.2,0.2,4.8
		c-0.6,1.6-1.7,2.8-3.2,3.5c-14,6.6-29.5,10.1-45,10.1c-12.2,0-24.2-2.1-35.6-6.2l-4,16.9c-1,4.9-2.8,9.5-5.3,13.9
		c0,0.1-27.8,45.4-27.8,45.4C51.5,365.3,42.8,370.3,33.6,370.3C33.6,370.3,33.6,370.3,33.6,370.3z M76.4,296.2
		c1-4.2,3-12.6,4.6-19.2l-9.4-5.4c-2.9,2.7-10.7,10.1-14.3,13.6L76.4,296.2z"/>
</g>
<text transform="matrix(1 0 0 1 41.6304 203.7957)" class="st1 st2 st3">FUZZY</text>
</svg>
