<svg id="Gruppe_3" data-name="Gruppe 3" xmlns="http://www.w3.org/2000/svg" width="15.139" height="15.037" viewBox="0 0 15.139 15.037">
  <path id="Pfad_4" data-name="Pfad 4" d="M106,310.689c.049-.3.087-.6.148-.9a7.387,7.387,0,0,1,1.3-2.918c.02-.027.043-.052.043-.052l2.065.8a15.24,15.24,0,0,0-.432,3.275H106Z" transform="translate(-106 -303.824)" fill="#7a7a7a"/>
  <path id="Pfad_5" data-name="Pfad 5" d="M106,432.492h3.119a15.191,15.191,0,0,0,.434,3.274l-2.069.8a6.982,6.982,0,0,1-.734-1.2,7.434,7.434,0,0,1-.724-2.572.629.629,0,0,0-.025-.1Z" transform="translate(-106 -424.533)" fill="#7a7a7a"/>
  <path id="Pfad_6" data-name="Pfad 6" d="M399.728,310.888a15.2,15.2,0,0,0-.434-3.265l2.072-.8a7.5,7.5,0,0,1,1.481,4.068Z" transform="translate(-387.708 -303.825)" fill="#7a7a7a"/>
  <path id="Pfad_7" data-name="Pfad 7" d="M402.893,432.644a7.528,7.528,0,0,1-1.482,4.073l-2.07-.805a15.328,15.328,0,0,0,.431-3.267Z" transform="translate(-387.755 -424.679)" fill="#7a7a7a"/>
  <path id="Pfad_8" data-name="Pfad 8" d="M210.767,332.774v2.75h-3.1a12.5,12.5,0,0,1,.4-3.054Z" transform="translate(-203.646 -328.462)" fill="#7a7a7a"/>
  <path id="Pfad_9" data-name="Pfad 9" d="M207.514,432.616h3.1v2.756l-2.7.3A13.787,13.787,0,0,1,207.514,432.616Z" transform="translate(-203.504 -424.652)" fill="#7a7a7a"/>
  <path id="Pfad_10" data-name="Pfad 10" d="M312.155,335.553h-3.108V332.8l2.7-.3A13.794,13.794,0,0,1,312.155,335.553Z" transform="translate(-301.026 -328.488)" fill="#7a7a7a"/>
  <path id="Pfad_11" data-name="Pfad 11" d="M309.078,432.7h3.106a13.782,13.782,0,0,1-.4,3.055l-2.7-.3Z" transform="translate(-301.056 -424.73)" fill="#7a7a7a"/>
  <path id="Pfad_12" data-name="Pfad 12" d="M309.06,234.434v-3.382c.076.025.149.045.217.074a2.8,2.8,0,0,1,1.023.8,7.038,7.038,0,0,1,1.2,2.232A13.859,13.859,0,0,1,309.06,234.434Z" transform="translate(-301.039 -231.05)" fill="#7a7a7a"/>
  <path id="Pfad_13" data-name="Pfad 13" d="M309.064,529.292v-3.381a14.02,14.02,0,0,1,2.452.27c-.147.344-.274.673-.425.989a4.864,4.864,0,0,1-1.236,1.69A2.1,2.1,0,0,1,309.064,529.292Z" transform="translate(-301.043 -514.261)" fill="#7a7a7a"/>
  <path id="Pfad_14" data-name="Pfad 14" d="M226.741,231v3.381a13.828,13.828,0,0,1-2.45-.268c.111-.272.206-.528.318-.777a5.227,5.227,0,0,1,1.281-1.855A2.167,2.167,0,0,1,226.741,231Z" transform="translate(-219.618 -230.996)" fill="#7a7a7a"/>
  <path id="Pfad_15" data-name="Pfad 15" d="M224.5,526.186a13.933,13.933,0,0,1,2.438-.267v3.387c-.115-.046-.225-.081-.327-.132a3.082,3.082,0,0,1-1.037-.9A7.287,7.287,0,0,1,224.5,526.186Z" transform="translate(-219.816 -514.269)" fill="#7a7a7a"/>
  <path id="Pfad_16" data-name="Pfad 16" d="M358.818,239.566a7.424,7.424,0,0,1,3.077,1.952l-1.725.647A8.649,8.649,0,0,0,358.818,239.566Z" transform="translate(-348.831 -239.227)" fill="#7a7a7a"/>
  <path id="Pfad_17" data-name="Pfad 17" d="M358.9,540.462a8.586,8.586,0,0,0,1.337-2.568,9.2,9.2,0,0,1,1.713.642A7.39,7.39,0,0,1,358.9,540.462Z" transform="translate(-348.914 -525.771)" fill="#7a7a7a"/>
  <path id="Pfad_18" data-name="Pfad 18" d="M160.291,242.162l-1.726-.646a7.422,7.422,0,0,1,3.077-1.952A8.591,8.591,0,0,0,160.291,242.162Z" transform="translate(-156.489 -239.226)" fill="#7a7a7a"/>
  <path id="Pfad_19" data-name="Pfad 19" d="M158.528,537.859l1.727-.645a8.566,8.566,0,0,0,1.352,2.6A7.435,7.435,0,0,1,158.528,537.859Z" transform="translate(-156.453 -525.118)" fill="#7a7a7a"/>
</svg>
