<?xml version="1.0" encoding="utf-8"?>
<!-- Generator: Adobe Illustrator 28.0.0, SVG Export Plug-In . SVG Version: 6.00 Build 0)  -->
<svg version="1.1" id="Layer_1" xmlns="http://www.w3.org/2000/svg" xmlns:xlink="http://www.w3.org/1999/xlink" x="0px" y="0px"
	 viewBox="0 0 300 300" style="enable-background:new 0 0 300 300;" xml:space="preserve">
<style type="text/css">
.st0{fill:#707070;}
.st1{fill:none;}
.green {fill: #4caf50;}
</style>
<path fill="#707070" d="M300,83.2c-100.2,0-199.9,0-300,0c0-1.5,0-2.8,0-4.1c0-20.2,0-40.4,0-60.5C0,5.8,5.2,0,16.8,0c88.9,0,177.7,0,266.6,0
	C294.7,0,300,5.8,300,18.4c0,20.3,0,40.6,0,60.9C300,80.5,300,81.6,300,83.2z"/>
<path fill="#707070" d="M74.7,300c-5,0-9.6,0-14.3,0c-15,0-30,0-45,0c-9.5,0-15.3-6.2-15.3-16.6C0,228.8,0,168.2,0,113.7c0-0.9,0.2-1.8,0.3-2.9
	c24.8,0,49.5,0,74.4,0C74.7,171.8,74.7,238.7,74.7,300z"/>
<g>
	<path class="st1 green" d="M258.59,242.48c-1.19-1.31-2.38-2.73-3.68-4.03c-7.55-7.59-15.11-15.16-22.71-22.7c-0.95-0.94-1.2-1.75-0.9-3.11
		c5.51-24.71-14.24-47.82-39.5-46.24c-2.1,0.13-4.16,0.68-6.26,0.91c-0.69,0.07-1.67-0.01-2.1-0.44
		c-6.72-6.63-13.38-13.32-20.48-20.43c4.48-1.24,8.55-2.66,12.75-3.47c33.04-6.43,61.25,3.52,85.56,25.85
		c10.91,10.03,19.62,21.92,27.36,34.52c0.3,0.49,0.39,1.44,0.11,1.89c-8.22,13.48-17.68,25.98-29.32,36.73
		C259.28,242.1,259.1,242.17,258.59,242.48z"/>
	<path class="st1 green" d="M130.19,167c5.76,5.77,11.44,11.47,17.13,17.17c3.03,3.04,6.11,6.03,9.07,9.14c0.52,0.55,0.88,1.65,0.73,2.37
		c-4.65,21.73,8.52,41.83,30.32,46.14c5.12,1.01,10.23,0.77,15.33-0.32c0.7-0.15,1.78,0.02,2.25,0.48
		c6.64,6.52,13.21,13.13,19.79,19.71c0.13,0.13,0.2,0.32,0.48,0.78c-2.53,0.76-4.92,1.59-7.38,2.21
		c-27.39,6.95-52.84,2.26-76.49-12.89c-13-8.32-23.06-19.66-32.07-31.98c-3.35-4.58-6.37-9.39-9.46-14.15
		c-0.36-0.55-0.47-1.7-0.14-2.19c8.49-12.71,17.9-24.69,29.01-35.26C129.19,167.81,129.65,167.45,130.19,167z"/>
	<path class="st1 green" d="M265.65,275.93c-0.03,0.03-0.06,0.06-0.09,0.09c-2.21,2.2-5.77,2.19-7.97-0.01L122.74,141.14c-2.2-2.2-2.2-5.78,0-7.98
		l0.08-0.08c2.2-2.2,5.78-2.2,7.98,0l134.85,134.87C267.86,270.15,267.86,273.72,265.65,275.93z"/>
	<path class="st1 green" d="M219.37,202.09c-7.53-7.52-15.29-15.27-22.82-22.79C205.65,179.16,218.53,188,219.37,202.09z"/>
	<path class="st1 green" d="M169.06,206.63c7.58,7.58,15.33,15.34,22.91,22.92C180.46,229.35,168.89,217.77,169.06,206.63z"/>
</g>
</svg>
