<?xml version="1.0" encoding="utf-8"?>
<!-- Generator: Adobe Illustrator 25.0.1, SVG Export Plug-In . SVG Version: 6.00 Build 0)  -->
<svg version="1.1" id="Layer_1" xmlns="http://www.w3.org/2000/svg" xmlns:xlink="http://www.w3.org/1999/xlink" x="0px" y="0px"
	 viewBox="0 0 430.6 428" style="enable-background:new 0 0 430.6 428;" xml:space="preserve">
<style type="text/css">
	.main{fill:#FFFFFF;}
</style>
<g class="main">
	<path d="M13.9,311.5V125.6H52v185.9H13.9z"/>
	<path d="M221.1,218c0,16.3-2.6,30.3-7.7,42.1c-5.1,11.8-11.8,21.5-20.2,29.1c-8.4,7.6-17.8,13.2-28.3,16.8
		c-10.5,3.6-21.2,5.4-31.9,5.4H74.4V125.6h56.8c11.1,0,22,1.5,32.8,4.6c10.8,3.1,20.4,8.1,28.8,15.2s15.2,16.6,20.4,28.5
		C218.5,185.8,221.1,200.5,221.1,218z M181.6,218c0-10.5-1.4-19.2-4.3-26.1c-2.9-6.9-6.7-12.4-11.5-16.5c-4.8-4.1-10.3-7-16.4-8.8
		c-6.1-1.7-12.5-2.6-19-2.6h-18.9v108.7h18c6.8,0,13.3-0.9,19.6-2.8c6.3-1.8,11.8-4.9,16.6-9.1c4.8-4.2,8.7-9.8,11.5-16.8
		C180.1,237,181.6,228.4,181.6,218z"/>
	<path d="M378.6,311.5l0.9-131.6h-0.7L338,311.5h-26.6L271.7,180H271l0.9,131.6h-35.7V125.6h54l35.8,119.2h0.9L361,125.6h54.9v185.9
		H378.6z"/>
</g>
</svg>
