<?xml version="1.0" encoding="utf-8"?>
<!-- Generator: Adobe Illustrator 25.0.1, SVG Export Plug-In . SVG Version: 6.00 Build 0)  -->
<svg version="1.1" id="Layer_1" xmlns="http://www.w3.org/2000/svg" xmlns:xlink="http://www.w3.org/1999/xlink" x="0px" y="0px"
	 viewBox="0 0 500 500" style="enable-background:new 0 0 500 500;" xml:space="preserve">
<style type="text/css">
	.st0{fill:#D71E25;}
	.st1{fill:#FFFFFF;}
</style>
<circle class="st0" cx="250" cy="250" r="250"/>
<g>
	<path class="st1" d="M49,342.9V157h38.1v185.9H49z"/>
	<path class="st1" d="M256.2,249.4c0,16.3-2.6,30.3-7.7,42.1c-5.1,11.8-11.8,21.5-20.2,29.1s-17.8,13.2-28.3,16.8
		c-10.5,3.6-21.2,5.4-31.9,5.4h-58.6V157h56.8c11.1,0,22,1.5,32.8,4.6c10.8,3.1,20.4,8.1,28.8,15.2s15.2,16.6,20.4,28.5
		C253.6,217.2,256.2,231.9,256.2,249.4z M216.7,249.4c0-10.5-1.4-19.2-4.3-26.1c-2.9-6.9-6.7-12.4-11.5-16.5s-10.3-7-16.4-8.8
		c-6.1-1.7-12.5-2.6-19-2.6h-18.9v108.7h18c6.8,0,13.3-0.9,19.6-2.8c6.3-1.8,11.8-4.9,16.6-9.1s8.7-9.8,11.5-16.8
		C215.2,268.4,216.7,259.8,216.7,249.4z"/>
	<path class="st1" d="M413.7,342.9l0.9-131.6h-0.7l-40.8,131.6h-26.6l-39.7-131.5h-0.7L307,343h-35.7V157h54l35.8,119.2h0.9
		L396.1,157H451v185.9H413.7z"/>
</g>
</svg>
