<svg xmlns="http://www.w3.org/2000/svg" width="17.283" height="19.324" viewBox="0 0 17.283 19.324">
  <g id="Gruppe_328" data-name="Gruppe 328" transform="translate(-539.258 -68.835)">
    <path id="Pfad_38" data-name="Pfad 38" d="M605.511,71.4l4.642,4.246c-.115.011-.184.022-.254.022h-3.476a.82.82,0,0,1-.91-.889C605.508,73.678,605.511,72.583,605.511,71.4Z" transform="translate(-54.159 -2.098)" fill="#7a7a7a"/>
    <path id="Pfad_486" data-name="Pfad 486" d="M556.541,75.511c0-.212-.053-.279-.273-.279-1.315.01-4.14.011-4.237.005a2.477,2.477,0,0,1-2.333-2.613c0-1.168-.008-3.685-.012-3.787,0,0-7.976,0-8.042,0a2.473,2.473,0,0,0-2.382,2.561c-.005,4.733,0,14.332,0,14.4a2.469,2.469,0,0,0,2.573,2.361l12.3,0a2.4,2.4,0,0,0,2.4-2.407C556.536,82.706,556.529,76.272,556.541,75.511Zm-2.475,4.51a.635.635,0,0,1-1.233.223.835.835,0,0,1-.04-.261c0-.413,0-.826,0-1.239v-.153c-.054.051-.089.082-.122.115q-1.922,1.926-3.843,3.853a.632.632,0,0,1-.684.2.851.851,0,0,1-.307-.2c-.441-.431-.874-.87-1.308-1.307a.915.915,0,0,0-.151-.142.951.951,0,0,1-.108.167q-1.7,1.707-3.4,3.411a.649.649,0,0,1-.66.21.636.636,0,0,1-.33-1.02c.031-.038.065-.073.1-.107q1.964-1.969,3.927-3.938a.637.637,0,0,1,.695-.206.861.861,0,0,1,.306.2c.431.422.855.851,1.28,1.279.043.044.08.093.111.13l3.548-3.555c-.02,0-.056-.007-.092-.007H550.5A.641.641,0,1,1,550.5,76.4h2.884a.64.64,0,0,1,.687.691Q554.068,78.556,554.066,80.021Z" fill="#7a7a7a"/>
  </g>
</svg>
