<svg id="Layer_1" data-name="Layer 1" xmlns="http://www.w3.org/2000/svg" viewBox="0 0 487.19 507.92"><defs><style>.cls-1,.cls-2{stroke:#000;}.cls-1,.cls-2,.cls-4{stroke-linecap:round;}.cls-1,.cls-2,.cls-3,.cls-4{stroke-miterlimit:10;stroke-width:15px;}.cls-2,.cls-3,.cls-4{fill:none;}.cls-3,.cls-4{stroke:#fff;}</style></defs><path class="cls-1" d="M253.58,499.32h152c24.38,0,44.15-20.39,44.15-45.54v-395c0-25.15-19.77-45.54-44.15-45.54H250.85"/><line class="cls-2" x1="372.93" y1="122.49" x2="109.81" y2="122.49"/><line class="cls-2" x1="372.93" y1="219.14" x2="109.81" y2="219.14"/><line class="cls-2" x1="372.93" y1="315.79" x2="109.81" y2="315.79"/><line class="cls-2" x1="372.93" y1="412.44" x2="109.81" y2="412.44"/><path class="cls-2" d="M37.49,425.51v28.27c0,25.15,20.8,45.54,46.47,45.54H250.85l-1-486.08H84c-25.67,0-46.47,20.39-46.47,45.54V341.71"/><line class="cls-3" x1="372.93" y1="122.49" x2="242.6" y2="122.49"/><line class="cls-3" x1="372.93" y1="219.14" x2="242.81" y2="219.14"/><line class="cls-3" x1="372.93" y1="315.79" x2="242.81" y2="315.79"/><line class="cls-3" x1="372.93" y1="412.44" x2="242.81" y2="412.44"/><line class="cls-4" x1="372.93" y1="122.49" x2="259.6" y2="122.49"/><line class="cls-4" x1="372.93" y1="219.14" x2="259.81" y2="219.14"/><line class="cls-4" x1="372.93" y1="315.79" x2="259.81" y2="315.79"/><line class="cls-4" x1="372.93" y1="412.44" x2="259.81" y2="412.44"/></svg>