<?xml version="1.0" encoding="UTF-8"?>
<svg id="Ebene_1" data-name="Ebene 1" xmlns="http://www.w3.org/2000/svg" version="1.1" viewBox="0 0 595.28 841.89">
  <defs>
    <style>
      .cls-1 {
        fill: #2388ae;
        stroke-width: 0px;
      }
    </style>
  </defs>
  <path class="cls-1" d="M359.6,498.63c-21.28-.02-42.55,0-63.83,0s-42.55-.01-63.83,0c-8.76,0-14.67,5.24-14.73,12.98-.06,7.73,5.9,13.2,14.52,13.21,42.69.02,85.38.02,128.07,0,8.63,0,14.59-5.46,14.53-13.19-.05-7.7-6.01-12.98-14.73-12.99Z"/>
  <path class="cls-1" d="M321.32,553.2c-29.73-.04-59.46-.02-89.19-.01-9.02,0-14.98,5.3-14.92,13.19.06,7.83,6.05,12.99,15.14,13,14.59.01,29.19,0,43.78,0,14.87,0,29.73.12,44.6-.1,2.85-.04,6-.87,8.47-2.29,4.97-2.87,6.92-8.89,5.33-14.23-1.78-5.95-6.61-9.54-13.19-9.55Z"/>
  <path class="cls-1" d="M260.31,439.29c-12.91.29-21.59-7.95-23.76-22.54-1.02-6.84-4.94-10.68-10.47-10.25-5.9.46-9.4,5.04-8.82,12.21,1.44,17.84,10.62,30.3,27.09,37.02,4.2,1.71,5.93,3.44,5.76,8.13-.26,7.17,3.82,11.53,9.61,11.48,5.73-.05,9.78-4.44,9.56-11.64-.14-4.71,1.6-6.45,5.87-8.03,16.43-6.09,27.19-22.18,27.12-41.31-.31-1.89-.62-5.55-1.55-9.04-5.12-19.26-19.86-30.34-42.25-31.94-10.39-.75-18.78-7.51-21.2-17.1-2.41-9.56,1.36-19.66,9.51-25.08,15.45-10.26,35.14.6,36.14,18.41.41,7.18,5.14,10.95,10.94,10.12,5.57-.8,8.87-5.5,8.24-12.17-1.69-17.77-10.77-30.3-27.38-36.79-4.18-1.63-5.46-3.52-5.41-7.8.09-7.5-3.51-11.48-9.52-11.57-6.07-.08-9.91,3.93-9.67,11.29.15,4.64-1.41,6.58-5.72,8.23-17.82,6.81-28.11,23.82-26.76,43.27,1.22,17.64,14.46,33.15,32.3,37.41,4.89,1.17,10.05,1.15,14.97,2.2,11.17,2.38,18.98,13.1,17.92,24.13-1.17,12.11-10.63,21.08-22.51,21.35Z"/>
  <path class="cls-1" d="M296.28,177.59c-150.5,0-272.5,122-272.5,272.5s122,272.5,272.5,272.5,272.5-122,272.5-272.5-122-272.5-272.5-272.5ZM439.82,376.48c0,72.02.01,144.04,0,216.05,0,24.52-16.87,41.4-41.37,41.4-68.46.02-136.92.02-205.37,0-24.46,0-41.35-16.93-41.35-41.42-.01-94.66-.01-189.32,0-283.98,0-24.45,16.93-41.34,41.42-41.34,45.82-.02,91.64,0,137.46,0h4.45c0,21.9-.05,43.17.01,64.44.06,20.63,13.53,36.48,33.87,39.87,2.67.44,5.43.45,8.15.46,20.72.04,41.43.02,62.74.02v4.51ZM435.91,345.77c-20.04,0-40.08.02-60.12,0-9.44-.01-14.53-5-14.54-14.28-.03-21.26,0-42.52,0-65.25,3.55,1.84,6.96,2.72,9.12,4.86,22.03,21.74,43.91,43.63,65.64,65.66,2.1,2.13,2.98,5.47,4.83,9.03-2.51,0-3.72,0-4.93,0Z"/>
</svg>