<svg  
  id="Gruppe_841" data-name="Gruppe 841" 
  xmlns="http://www.w3.org/2000/svg" xmlns:xlink="http://www.w3.org/1999/xlink" 
  width="20" height="23" viewBox="0 0 24 31.491"
>
  <defs>
    <clipPath id="clip-path">
      <rect id="Rechteck_493" data-name="Rechteck 493" width="23.972" height="31.435" fill="#616161"/>
    </clipPath>
    <clipPath id="clip-path-2">
      <rect id="Rechteck_494" data-name="Rechteck 494" width="24" height="31.491" fill="#616161"/>
    </clipPath>
  </defs>
  <g id="Gruppe_838" data-name="Gruppe 838" transform="translate(0.025 0.041)">
    <g id="Gruppe_837" data-name="Gruppe 837" transform="translate(0 0)" clip-path="url(#clip-path)">
      <path id="Pfad_710" data-name="Pfad 710" d="M126.644,3.134c.246.2.509.371.737.586q2.888,2.713,5.753,5.441c.276.263.505.574.756.863l-.05.081h-6.773c-.443,0-.511-.069-.511-.518V3.18l.084-.048" transform="translate(-110.332 -2.736)" fill="#616161"/>
    </g>
  </g>
  <g id="Gruppe_840" data-name="Gruppe 840">
    <g id="Gruppe_839" data-name="Gruppe 839" clip-path="url(#clip-path-2)">
      <path id="Pfad_711" data-name="Pfad 711" d="M24,27.285V9.228H16.71A2.16,2.16,0,0,1,14.4,6.922V.005H3.6A3.389,3.389,0,0,0,.011,3.583C.01,11.7.023,19.814,0,27.929a3.437,3.437,0,0,0,2.884,3.515c.027,0,.052.029.078.044H21.045l0,0c.175-.047.353-.09.527-.14a3.4,3.4,0,0,0,2.419-3.113C24,27.92,24,27.6,24,27.285M8.485,9.15C8.14,9.076,7.778,9.077,7.436,9a2.97,2.97,0,0,1-.388-5.654.508.508,0,0,0,.4-.577c-.017-.516.253-.8.678-.791s.674.285.667.81a.488.488,0,0,0,.379.547,2.873,2.873,0,0,1,1.919,2.578.707.707,0,0,1-.577.853.667.667,0,0,1-.767-.709,1.626,1.626,0,1,0-3.2.467,1.613,1.613,0,0,0,1.485,1.2,2.993,2.993,0,0,1,2.961,2.238,5.808,5.808,0,0,1,.109.634,3,3,0,0,1-1.9,2.895c-.3.111-.421.233-.411.563.015.5-.268.812-.67.815s-.692-.3-.673-.8c.012-.328-.109-.45-.4-.57a2.875,2.875,0,0,1-1.9-2.594c-.041-.5.2-.824.618-.856.388-.03.663.239.734.718A1.623,1.623,0,1,0,8.485,9.15m1.962,14a.926.926,0,0,1-1.013.831H5.129a.924.924,0,1,1,0-1.843H9.434a.926.926,0,0,1,1.013,1.013m8.981-4.641a.937.937,0,0,1-.941.559h-6.7l0,0q-3.334.007-6.668,0a.917.917,0,0,1-.886-1.327.908.908,0,0,1,.873-.517H18.5a.921.921,0,0,1,.923,1.286" transform="translate(0 0.001)" fill="#616161"/>
    </g>
  </g>
</svg>
