<?xml version="1.0" encoding="utf-8"?>
<!-- Generator: Adobe Illustrator 25.0.1, SVG Export Plug-In . SVG Version: 6.00 Build 0)  -->
<svg version="1.1" id="Layer_1" xmlns="http://www.w3.org/2000/svg" xmlns:xlink="http://www.w3.org/1999/xlink" x="0px" y="0px"
	 viewBox="0 0 439 287" style="enable-background:new 0 0 439 287;" xml:space="preserve">
<style type="text/css">
	.st0{fill:none;stroke:#000000;stroke-width:3;stroke-miterlimit:10;}
</style>
<g>
	<path class="st0" d="M8,162.7c2.9-5.9,7.7-7.7,14.1-7.7c33.3,0.2,66.7,0.1,100,0.1c9.8,0,13.5,3.7,13.5,13.6c0,33.5,0,66.9,0,100.4
		c0,9.8-3.7,13.5-13.6,13.5c-33.5,0-66.9-0.1-100.4,0.1c-6.4,0-10.9-2.1-13.6-7.8C8,237.4,8,200,8,162.7z"/>
	<path class="st0" d="M220.5,155.1c17,0,34,0,51,0c8.9,0,12.8,3.9,12.8,12.9c0,33.9,0,67.8,0,101.7c0,8.9-3.9,12.8-13,12.8
		c-33.9,0-67.8,0-101.7,0c-9.2,0-13-3.9-13-13.2c0-33.7,0-67.5,0-101.2c0-9.2,3.9-13,13.2-13C186.8,155.1,203.7,155.1,220.5,155.1z"
		/>
	<path d="M220.2,133.7c-16.9,0-33.7,0-50.6,0c-8.9,0-12.8-4-12.8-12.9c0-33.9,0-67.8,0-101.7c0-8.9,3.9-12.8,13-12.8
		c33.9,0,67.8,0,101.7,0c9.2,0,13,3.9,13,13.2c0,33.7,0,67.5,0,101.2c0,9.2-3.9,13-13.2,13C254.2,133.7,237.2,133.7,220.2,133.7z
		 M220.1,74.4c0.9,0.5,1,0.6,1.1,0.7c4.1,4.1,8.2,8.2,12.4,12.3c5.1,4.9,11.4,5.2,15.8,0.6c4.2-4.3,4-10.7-0.7-15.6
		c-6.5-6.6-13.1-13.2-19.7-19.7c-5.5-5.4-11.3-5.5-16.8-0.1c-6.5,6.4-13,12.9-19.4,19.4c-5,5-5.3,11.4-1,15.8
		c4.5,4.6,10.8,4.3,16.1-0.9C212.1,82.9,216,78.7,220.1,74.4z"/>
	<path class="st0" d="M369.4,155.1c16.9,0,33.7,0,50.6,0c9.4,0,13.1,3.7,13.1,13c0,33.9,0,67.8,0,101.6c0,8.8-3.8,12.8-12.5,12.8
		c-34.2,0-68.3,0-102.5,0c-8.7,0-12.6-3.9-12.6-12.8c0-34,0-68,0-102.1c0-8.7,4-12.6,12.8-12.6C335.4,155.1,352.4,155.1,369.4,155.1
		z"/>
</g>
<path d="M76.3,219.2c0.4-0.7,0.5-0.9,0.6-1c4-4,8-8,12-12.1c4.9-5,5.3-11.5,1-15.9c-4.5-4.6-10.8-4.3-16.1,0.9
	c-6.4,6.3-12.7,12.7-19.1,19.1c-5.6,5.7-5.6,11.4-0.1,17c6.4,6.5,12.9,12.9,19.4,19.4c5.2,5.1,11.7,5.5,16.1,0.9
	c4.3-4.4,3.9-10.8-1.1-15.9C84.9,227.5,80.6,223.4,76.3,219.2z"/>
<path d="M221.5,214.1c-1.1-0.2-1.3-0.2-1.3-0.3c-4.1-4.1-8.2-8.2-12.4-12.2c-5.2-5-11.3-5.3-15.8-0.9c-4.4,4.4-4.1,10.9,0.8,15.8
	c6.4,6.5,12.9,12.9,19.3,19.3c5.7,5.6,11.3,5.6,17,0c6.4-6.3,12.7-12.7,19.1-19c5.1-5.2,5.5-11.7,1-16.1c-4.6-4.5-10.8-4.1-16.1,1.2
	C229,206.1,225.1,210.3,221.5,214.1z"/>
<path d="M365.3,218.8c-4.9,4.8-9.3,8.9-13.5,13.3c-4.6,4.7-4.7,11.3-0.3,15.5c4.3,4.2,10.5,4.1,15.2-0.5
	c6.8-6.7,13.6-13.4,20.2-20.2c5-5.1,5-11,0-16.1c-6.6-6.7-13.2-13.4-19.9-19.9c-4.9-4.8-11.1-5-15.5-0.8c-4.4,4.3-4.2,10.9,0.6,15.8
	C356.3,210.1,360.6,214.2,365.3,218.8z"/>
</svg>
