<?xml version="1.0" encoding="utf-8"?>
<!-- Generator: Adobe Illustrator 25.0.1, SVG Export Plug-In . SVG Version: 6.00 Build 0)  -->
<svg version="1.1" id="Layer_1" xmlns="http://www.w3.org/2000/svg" xmlns:xlink="http://www.w3.org/1999/xlink" x="0px" y="0px"
	 viewBox="0 0 300 300" style="enable-background:new 0 0 300 300;" xml:space="preserve">
<style type="text/css">
	.st0{fill:#ffffff;}
</style>
<path class="st0" d="M286.1,299.4c-90.7,0-181.4,0-272.2,0c-10.7-3.4-14-11.1-14-21.8c0.2-49.6,0.2-99.2,0-148.7c-0.1-12.2,8-19.7,19.4-19.5
	c31.8,0.3,63.7,0.1,95.5,0.1c1.2,0,2.3,0,3.5,0c0.3-6.4-0.9-12.6,3.6-17.8c4.6-5.3,10.8-5.1,16.8-5.1c0.2-0.5,0.3-0.7,0.3-0.8
	c0-6,0.1-12.1,0.1-18.1c0-8.6-4-12.5-12.6-12.5c-10.9,0-21.8,0.1-32.7,0c-16.7-0.2-31.2-12.8-32.1-28.6c-0.7-12-0.2-14-0.2-26
	c0-0.2,0.2-0.3,0.3-0.5C68.9,0,75.8,0,83,0c0,10.5,0,10.7,0,21c0,8.3,4.1,12.5,12.4,12.5c10.7,0,21.4,0,32,0
	c19.2,0.1,32.9,13.7,33.3,32.9c0.1,5.6,0,11.3,0,16.9c0,1.1,0.1,2.1,0.2,3.3c1.8,0,3.2,0,4.6,0c10,0.1,15.9,6,15.9,16
	c0,2.2,0,4.4,0,6.8c1.6,0,2.8,0,4,0c31.6,0,63.3,0,94.9,0c2.1,0,4.3,0,6.3,0.4c8.2,1.9,13.3,8.7,13.3,17.8c0,18.5,0,37.1,0,55.6
	c0,32.4,0,64.9,0,97.3c0,6.4-1.9,11.9-7.4,15.7C290.6,297.6,288.3,298.4,286.1,299.4z M150.2,242.4c-19,0-38.1,0-57.1,0
	c-5.3,0-6.5,1.2-6.5,6.6c0,4.3,0,8.7,0,13c0,4.4,1.5,5.9,5.7,5.9c38.5,0,76.9,0,115.4,0c4,0,5.5-1.5,5.6-5.5c0.1-4.4,0-8.9,0-13.3
	c0-5.7-1-6.8-6.6-6.8C187.9,242.4,169,242.4,150.2,242.4z M74.1,191.3C74.1,191.3,74.1,191.3,74.1,191.3c-2.7,0-5.4-0.1-8.2,0
	c-3.3,0.2-4.7,1.7-4.8,5c-0.1,5.1-0.1,10.3,0,15.4c0,3.5,1.5,5,4.9,5.1c5.3,0.1,10.7,0.1,16,0c3.3-0.1,4.7-1.6,4.8-5
	c0.1-5.1,0.1-10.3,0-15.4c-0.1-3.6-1.6-5.1-5.3-5.2C79.1,191.3,76.6,191.3,74.1,191.3z M174.9,216.9
	C174.9,216.9,174.9,216.9,174.9,216.9c2.5,0,5,0,7.6,0c0.2,0,0.4,0,0.6,0c3.3-0.2,4.9-1.7,4.9-4.9c0.1-5.2,0.1-10.5,0-15.7
	c-0.1-3.2-1.6-4.9-4.9-5c-5.3-0.1-10.7-0.1-16,0c-3.3,0.1-4.9,1.7-4.9,4.9c-0.1,5.2-0.1,10.5,0,15.7c0.1,3.3,1.6,4.8,4.9,4.9
	C169.7,217,172.3,216.9,174.9,216.9z M238.4,204.3c0-2.6,0-5.2,0-7.9c-0.1-3.5-1.5-5-4.9-5.1c-5.3-0.1-10.7-0.1-16,0
	c-3.1,0.1-4.7,1.6-4.7,4.7c-0.1,5.4-0.1,10.9,0,16.3c0,2.7,1.6,4.4,4.3,4.5c5.6,0.1,11.3,0.1,16.9,0c2.8-0.1,4.4-1.7,4.4-4.7
	C238.4,209.6,238.4,207,238.4,204.3z M200.2,166.4c2.8,0,5.6,0,8.5,0c2.7-0.1,4.5-1.5,4.5-4.3c0.1-5.6,0.1-11.3,0-16.9
	c-0.1-2.7-1.7-4.3-4.5-4.3c-5.5,0-11.1-0.1-16.6,0c-2.9,0-4.5,1.6-4.5,4.5c-0.1,5.4-0.1,10.9,0,16.3c0.1,3,1.7,4.5,4.8,4.6
	C195,166.4,197.6,166.4,200.2,166.4z M99.6,140.9c-2.7,0-5.4,0-8.1,0c-2.9,0-4.6,1.6-4.7,4.4c-0.2,5.5-0.2,11.1,0,16.6
	c0.1,2.8,1.7,4.5,4.6,4.5c5.5,0,11.1,0.1,16.6,0c2.9-0.1,4.5-1.7,4.5-4.5c0.1-5.4,0.1-10.9,0-16.3c-0.1-3-1.7-4.5-4.8-4.6
	C105,140.8,102.3,140.9,99.6,140.9z M137.5,204.1c0-2.6,0.1-5.2,0-7.9c-0.1-3.2-1.4-4.8-4.5-4.9c-5.5-0.2-11.1-0.1-16.6,0
	c-2.8,0.1-4.5,1.7-4.5,4.6c0,5.4,0,10.9,0,16.3c0,2.8,1.5,4.4,4.2,4.5c5.7,0.1,11.5,0.1,17.2,0c2.7-0.1,4.2-1.8,4.2-4.6
	C137.5,209.5,137.5,206.8,137.5,204.1z M61.8,153.4c0-2.6,0.1-5.2,0-7.9c-0.1-3-1.5-4.5-4.5-4.6c-5.5-0.1-11.1-0.1-16.6,0
	c-2.8,0-4.5,1.4-4.5,4.2c-0.1,5.6-0.1,11.3,0,16.9c0,2.8,1.7,4.3,4.4,4.3c5.5,0.1,11.1,0.1,16.6,0c3.1-0.1,4.5-1.7,4.6-4.8
	C61.9,158.8,61.8,156.1,61.8,153.4z M162.9,153.7C162.9,153.7,162.9,153.7,162.9,153.7c0-2.6,0.1-5.2,0-7.9
	c-0.1-3.4-1.5-4.8-4.8-4.9c-5.4-0.1-10.9-0.1-16.3,0c-3,0-4.5,1.5-4.5,4.5c-0.1,5.4-0.1,10.9,0,16.3c0,3,1.6,4.6,4.4,4.6
	c5.5,0.1,11.1,0.1,16.6,0c3,0,4.4-1.5,4.5-4.5C163,159.1,162.9,156.4,162.9,153.7z M251,140.9C251,140.9,251,140.9,251,140.9
	c-2.6,0-5.2-0.1-7.9,0c-3.4,0.1-4.9,1.5-4.9,4.7c-0.1,5.3-0.1,10.7,0,16c0.1,3.1,1.6,4.6,4.7,4.7c5.4,0.1,10.9,0.1,16.3,0
	c3,0,4.5-1.5,4.6-4.4c0.1-5.5,0.1-11.1,0-16.6c0-2.8-1.6-4.3-4.4-4.4C256.7,140.9,253.9,140.9,251,140.9z M61.8,255.2
	c0-2.7,0.1-5.4,0-8.2c-0.1-3.2-1.5-4.6-4.7-4.7c-5.4-0.1-10.9-0.1-16.3,0c-3.1,0.1-4.6,1.4-4.6,4.4c-0.1,5.5-0.1,11.1,0,16.6
	c0,2.8,1.7,4.4,4.4,4.4c5.6,0.1,11.3,0.1,16.9,0c2.9-0.1,4.3-1.8,4.4-4.7C61.9,260.5,61.8,257.9,61.8,255.2z M263.9,255.2
	c0-2.5,0-5,0-7.6c0-0.2,0-0.4,0-0.6c-0.2-3.2-1.4-4.6-4.7-4.7c-5.4-0.1-10.9-0.1-16.3,0c-3.2,0.1-4.6,1.5-4.6,4.7
	c-0.1,5.3-0.1,10.7,0,16c0,3.1,1.6,4.7,4.7,4.7c5.4,0.1,10.9,0.1,16.3,0c3.1-0.1,4.5-1.6,4.6-4.8C264,260.5,263.9,257.9,263.9,255.2
	z"/>
</svg>
