<svg id="Kurzbefehl" xmlns="http://www.w3.org/2000/svg" width="26.595" height="18.608" viewBox="0 0 26.595 18.608">
  <path id="Pfad_34" data-name="Pfad 34" d="M121.363,281.1v14.024a.243.243,0,0,0-.039.065,2.666,2.666,0,0,1-2.774,2.226q-10.478,0-20.957,0a3.36,3.36,0,0,1-.569-.031,2.669,2.669,0,0,1-2.253-2.675q-.007-3.48,0-6.96c0-2.069,0-4.138,0-6.207a2.7,2.7,0,0,1,2.747-2.735q10.556,0,21.113,0c.078,0,.156,0,.234.005a2.623,2.623,0,0,1,1.816.887A3.1,3.1,0,0,1,121.363,281.1Zm-18.6,11.018v2.627h10.6v-2.627Zm6.634-5.3a.462.462,0,0,0-.1-.035c-.8,0-1.593,0-2.389-.007-.168,0-.175.091-.174.216,0,.744.005,1.489,0,2.233,0,.171.054.224.223.222.736-.007,1.471-.01,2.207,0,.2,0,.246-.072.242-.257-.011-.51,0-1.021,0-1.532Zm-8,2.614V286.8H98.782v2.634Zm15.95,0V286.8h-2.618v2.634Zm-7.969-3.99V282.82h-2.625v2.626Zm-6.616,1.35v2.634h2.627V286.8Zm10.594,2.636v-2.625h-2.623v2.625ZM101.4,285.446v-2.631H98.777v2.631Zm1.362-2.633v2.629h2.625v-2.629Zm10.6,0H110.74v2.621h2.626Zm3.991-.006h-2.622v2.626h2.622Z" transform="translate(-94.768 -278.81)" fill="#7a7a7a"/>
</svg>
