<?xml version="1.0" encoding="utf-8"?>
<!-- Generator: Adobe Illustrator 25.0.1, SVG Export Plug-In . SVG Version: 6.00 Build 0)  -->
<svg version="1.1" id="Layer_1" xmlns="http://www.w3.org/2000/svg" xmlns:xlink="http://www.w3.org/1999/xlink" x="0px" y="0px"
	 viewBox="0 0 800 600" style="enable-background:new 0 0 800 600;" xml:space="preserve">
<g>
	<path d="M286,504.6c-6.2-2.3-12.9-3.7-18.4-7c-14.6-8.6-22.9-21.9-23.1-39c-0.4-39.1-0.2-78.2-0.2-117.4c0-18.4-0.3-36.7,0.2-55.1
		c0.6-24.4,21.2-44.4,45.6-45.1c6.4-0.2,12.8,0,19.6,0c0.1-1.6,0.2-3,0.2-4.4c0-16.2,0-32.5,0-48.7c0.1-44.4,27.7-79.5,70.8-90
		c35.4-8.6,75.8,8.1,95.3,39.3c9.6,15.4,14.4,32.1,14.4,50.3c0,16.2,0,32.5,0,48.7c0,1.4,0,2.9,0,4.8c6.2,0,12-0.1,17.8,0
		c24.2,0.4,43.2,16.5,47.3,40.4c0.6,3.3,0.6,6.6,0.6,9.9c0,54.3-0.3,108.6,0.2,162.9c0.3,28.9-20.8,47.5-40.9,49.8
		c-0.4,0-0.7,0.4-1,0.6C438.3,504.6,362.1,504.6,286,504.6z M400.4,257c-35.4,0-70.8,0-106.2,0c-20.5,0-33.8,13.2-33.9,33.6
		c0,54.7,0,109.4,0,164.1c0,20.6,13.4,33.9,34.1,33.9c70.5,0,141.1,0,211.6,0c20.7,0,34-13.3,34.1-33.9c0-54.7,0-109.4,0-164.1
		c0-3.3-0.2-6.7-1.1-9.9c-4-14.8-16-23.7-32-23.7C471.5,257,435.9,257,400.4,257z M348.5,240.8c0-1.8,0-3.3,0-4.9
		c0.1-17.8-0.5-35.7,0.4-53.5c1.5-27.2,24.1-48,51.2-48c26.9-0.1,49.8,20.8,51.3,48c1,17.9,0.4,35.9,0.5,53.9c0,1.5,0.2,3,0.2,4.6
		c7.6,0,14.8,0,22.1,0c0.1-0.8,0.2-1.5,0.2-2.1c0-18.4,0.4-36.7-0.2-55.1c-1.2-38.7-31.4-69.3-70-71.7c-42-2.6-77.6,31-78.2,74
		c-0.3,17.3-0.1,34.6,0,51.9c0,1,0.2,2,0.3,3C333.8,240.8,340.9,240.8,348.5,240.8z M364.9,240.7c23.6,0,47,0,70.6,0
		c0.1-0.9,0.2-1.6,0.2-2.2c0-17.2,0.3-34.3-0.1-51.5c-0.5-20.9-14.1-35-34.2-36.4c-17.9-1.2-35.6,13.6-36.3,31.4
		c-0.8,18.9-0.4,37.8-0.6,56.6C364.6,239.4,364.8,240,364.9,240.7z"/>
	<path d="M408.2,410.4c0,6.6,0,13.3,0,19.9c0,5.8-3.2,9.5-8,9.5c-4.8,0-8-3.7-8-9.5c0-13-0.1-26.1,0-39.1c0-2.5-0.5-3.9-3.2-4.9
		c-13.9-5.2-21.7-19.5-19.1-34.3c2.4-14,15.4-24.8,30-24.9c14.5-0.1,27.4,10.2,30.4,24.5c3.1,14.5-5,29.5-19,34.7
		c-2.7,1-3.3,2.3-3.2,4.9C408.3,397.6,408.2,404,408.2,410.4z M400.2,343.2c-8.2,0-14.7,6.5-14.6,14.7c0,8.1,6.7,14.8,14.7,14.7
		c8.1,0,14.7-6.7,14.6-14.8C414.8,349.7,408.3,343.2,400.2,343.2z"/>
	<path d="M513.3,362.1c0-11.7-0.1-23.4,0.1-35.1c0.1-5.1,3.5-8.3,7.8-8.4c4.1,0,7.4,3.1,8,7.8c0.2,1.3,0.1,2.7,0.1,4
		c0,17.2,0,34.3,0,51.5c0,4.3,0,8.5,0,12.8c0,1.6-0.2,3.2-0.5,4.7c-0.9,3.5-4.1,5.8-7.6,5.8c-3.7-0.1-7.2-2.7-7.5-6.4
		c-0.4-5.6-0.3-11.1-0.4-16.7C513.2,375.4,513.2,368.7,513.3,362.1C513.2,362.1,513.3,362.1,513.3,362.1z"/>
	<path d="M513.4,300.1c0-4.6,3.2-7.9,7.6-7.9c4.3,0,7.7,3.5,7.7,7.9c0,4.4-3.4,8-7.7,8C516.7,308.1,513.4,304.7,513.4,300.1z"/>
</g>
</svg>
