<?xml version="1.0" encoding="UTF-8"?>
<svg id="Ebene_1" data-name="Ebene 1" xmlns="http://www.w3.org/2000/svg" version="1.1" viewBox="0 0 554.6 555.6">
  <defs>
    <style>
      .cls-1 {
        fill: #707070;
        stroke-width: 0px;
      }
    </style>
  </defs>
  <path class="cls-1" d="M33,466.5c2.6-12.6,10.5-21.8,19.4-30.6,97.7-97.5,195.3-195.1,292.9-292.8,11.8-11.8,25.5-17.6,42-13,31.5,8.6,40.6,45.7,17.1,69.6-20.1,20.5-40.5,40.6-60.8,60.9-77.2,77.2-154.5,154.3-231.6,231.6-10.1,10.1-20.2,19.5-35.2,21.3h-5.2c-7.8-1.5-15.4-3.4-22-8.3-9.2-6.9-13.9-16.4-16.7-27.1v-11.5ZM332.8,241.6c4-4.2,7.9-8.3,11.9-12.4,14.8-14.9,29.7-29.8,44.6-44.6,5.7-5.7,8.5-12.3,6.4-20.3-3.9-14.9-21.8-19.3-33.2-8.1-18.8,18.5-37.4,37.3-56,56-.6.6-.9,1.3-1.2,1.9,9.1,9.1,17.9,17.9,27.5,27.5Z"/>
  <path class="cls-1" d="M421.1,86.7c-.1-4.9,2.5-8.2,6.6-10.3,6.7-3.4,13.5-6.4,20-10.1,2.5-1.4,4.9-3.8,6.3-6.3,3.6-6.3,6.7-12.9,9.9-19.5,2.2-4.6,5.7-7,10.7-7,4.8,0,8.1,2.7,10.2,7,3.2,6.6,6.3,13.2,9.9,19.5,1.4,2.5,3.8,4.8,6.3,6.3,6.3,3.6,13,6.6,19.5,9.8,4.4,2.2,7.3,5.4,7.2,10.5,0,4.9-3,7.9-7.2,10-7.9,4-17.3,6.5-23.3,12.4-6,5.9-8.5,15.3-12.5,23.2-2.2,4.3-5.2,7.4-10.4,7.4-5.2,0-8.2-3-10.4-7.4-3.2-6.5-6.3-13.2-9.9-19.5-1.4-2.5-3.8-4.9-6.3-6.3-6.5-3.7-13.3-6.8-20-10.1-4-2-6.6-5-6.7-9.8Z"/>
  <path class="cls-1" d="M259.6,35.8c7,.4,10.4,2.5,12.6,6.9,3.3,6.7,6.5,13.5,10.1,20,1.3,2.4,3.6,4.6,6,5.9,6.3,3.6,13,6.7,19.5,9.8,4.4,2.1,7.4,5.3,7.5,10.4,0,5.1-3,8.3-7.4,10.4-6.5,3.2-13.2,6.2-19.5,9.8-2.5,1.4-4.8,3.9-6.2,6.4-3.6,6.3-6.7,13-9.9,19.5-2.2,4.3-5.3,7.3-10.5,7.2-4.9,0-7.9-3-10-7.1-4-7.9-6.5-17.3-12.5-23.2-5.9-6-15.3-8.5-23.2-12.5-4.4-2.2-7.4-5.3-7.5-10.4,0-5.1,3-8.3,7.4-10.4,6.9-3.4,13.7-6.7,20.4-10.3,2-1.1,3.8-2.9,4.9-4.9,3.7-6.9,6.7-14.2,10.8-20.8,2-3.2,5.8-5.2,7.5-6.7Z"/>
  <path class="cls-1" d="M495.4,251.8c-2.1,3.6-3.5,6.2-5.1,8.5-.5.8-1.6,1.4-2.6,1.7-10.8,3.5-17.1,11.1-21.6,21.4-3.8,8.7-15.2,8.8-18.8,0-4.5-10.6-11.6-17.2-22-21.8-8.3-3.7-8.4-14.9,0-18.6,10.4-4.6,17.5-11.2,22-21.8,3.4-8,15.4-8.1,18.8,0,4.5,10.6,11.3,17.6,21.9,21.9,3.1,1.2,4.9,5.6,7.4,8.7Z"/>
</svg>