<svg xmlns="http://www.w3.org/2000/svg" viewBox="0 0 75.069 105.047">
  <g id="Magier" transform="translate(-1354.851 -859.276)">
    <path id="Pfad_554" data-name="Pfad 554" d="M1371.874,964.323a2.325,2.325,0,0,1-1.024-2.729q1.821-10.55,3.588-21.107c.066-.389.1-.784.124-.949-2.074.265-4.078.625-6.1.747-1.686.1-2.249-.584-2.264-2.294-.011-1.3-.023-2.6.006-3.9.013-.629-.173-.912-.935-.657.107.469.21.95.327,1.428.306,1.248-.074,2.112-1.066,2.406s-1.742-.224-2.157-1.48c-.053-.161-.116-.319-.174-.477-1.8.044-2.13-.2-2.647-1.952-.231-.786-.466-1.571-.7-2.357-.5-1.7-.236-2.267,1.432-2.972q-1.121-4.232-2.248-8.486c-.57-2.143-1.177-4.278-1.707-6.431a2.466,2.466,0,0,1,.012-1.665,2.342,2.342,0,0,1,1.511-.964c.83-.11,1.374.509,1.595,1.311.464,1.677.9,3.361,1.35,5.043q1.568,5.887,3.133,11.775c.405,1.521.426,1.529,2.193,1.211.038-.315.063-.649.12-.977.184-1.06.78-1.642,1.823-1.518,4.266.508,6.941-1.953,9.223-4.995a6.686,6.686,0,0,0,.69-2.734c.342-1.881.6-3.779.97-5.654.146-.733-.093-.971-.749-1.114a15.954,15.954,0,0,1-6.014-2.739c-.33-.241-.761-.455-.924-.789a2.5,2.5,0,0,1-.38-1.658,2.358,2.358,0,0,1,1.372-1.143,16.57,16.57,0,0,1,2.707-.453c-.711-1.277-1.276-2.439-1.993-3.5-.229-.337-.847-.452-1.31-.583-3.214-.906-6.483-1.646-9.631-2.738a16.978,16.978,0,0,1-4.771-2.721c-3.216-2.519-3.188-5.931-.084-8.6a17.062,17.062,0,0,1,6.99-3.528c4.193-1.066,8.45-1.884,12.694-2.741a2.582,2.582,0,0,0,2-1.274q5.745-9.758,11.6-19.445a15.652,15.652,0,0,1,1.311-1.648h1.231a15.536,15.536,0,0,1,1.312,1.648q5.889,9.792,11.716,19.621a1.856,1.856,0,0,0,1.588,1.044c.748.059,1.495.159,2.237.278a1.7,1.7,0,0,1,1.621,1.873,1.652,1.652,0,0,1-1.992,1.453c-3.2-.292-6.389-.815-9.591-.887-5.564-.124-11.14-.126-16.7.1a69.112,69.112,0,0,0-16.155,2.583,23.627,23.627,0,0,0-7.12,3.051,6.936,6.936,0,0,0-.81.624c-1.132,1.057-1.2,2.072.012,3.023a18.5,18.5,0,0,0,3.567,2.17,38.342,38.342,0,0,0,9.188,2.694,25.836,25.836,0,0,1,.746-2.59,5.268,5.268,0,0,1,3.152-3.035,1.564,1.564,0,0,0,.789-.871c.366-1.062.634-2.159.929-3.245a1.917,1.917,0,0,1,1.9-1.565c4.813-.208,9.626-.535,14.44-.565,3.685-.023,7.373.328,11.058.526,1.639.088,1.971.362,2.484,1.921a6.149,6.149,0,0,1,.284.875,4.3,4.3,0,0,0,2.592,3.679c1.806.83,2.342,2.817,2.534,4.912,1.112-.245,2.17-.451,3.213-.713a29.342,29.342,0,0,0,8.388-3.191c2.8-1.725,2.814-3.236.025-4.962a31.019,31.019,0,0,0-8.98-3.353c-.4-.1-.8-.17-1.19-.3a1.663,1.663,0,0,1-1.23-1.969,1.554,1.554,0,0,1,1.931-1.253,31.616,31.616,0,0,1,4.947,1.284c2.253.858,4.418,1.95,6.615,2.954a3.8,3.8,0,0,1,.678.457c3.585,2.709,3.651,6.348.154,9.158a22.26,22.26,0,0,1-8.107,3.8c-2.066.585-4.174,1.028-6.278,1.465a1.872,1.872,0,0,0-1.5,1.152c-.437.949-1.033,1.826-1.659,2.9.857.146,1.669.33,2.491.412a1.736,1.736,0,0,1,1.657,1.145,1.681,1.681,0,0,1-.664,1.988,16.034,16.034,0,0,1-6.36,3.183c-.623.153-.885.4-.8,1.031.363,2.7.407,5.5,1.2,8.072.441,1.436,2.01,2.618,3.263,3.69a7.291,7.291,0,0,0,5.9,1.8c1.31-.176,1.931.416,2.07,1.8.054.54.075,1,.863.7V916.57c-1.814-.21-2.491-.69-2.51-1.747-.02-1.085.677-1.6,2.812-1.814a6.106,6.106,0,0,0-.993-.913,5.493,5.493,0,1,1,4.978-.07,12.509,12.509,0,0,0-1.154.836c2.367.609,2.918,1.033,2.852,2.027-.068,1.013-.741,1.479-2.505,1.686v12.148c1.6.648,1.724.83,1.725,2.663a6.363,6.363,0,0,1-.048,1.835,2.422,2.422,0,0,1-1.028,1.471c-.695.276-.734.642-.733,1.223q.014,11.591.006,23.183c0,.923-.041,1.848.011,2.769a2.469,2.469,0,0,1-1.091,2.456H1420.7a2.271,2.271,0,0,1-1.257-2.345c.027-9.119.016-18.238.016-27.357v-1.192c-.666-.189-.916-.026-.906.591.023,1.434.033,2.869-.006,4.3-.036,1.34-.627,1.91-1.958,1.982a5.992,5.992,0,0,1-1.227.008c-1.7-.268-3.4-.572-5.16-.875.037.283.076.681.142,1.075q1.785,10.543,3.583,21.085a2.309,2.309,0,0,1-1.023,2.725Zm32.022-41.71c-.543.837-.9,1.454-1.324,2.025a1.709,1.709,0,0,1-2.257.567,1.664,1.664,0,0,1-.553-2.329c.285-.543.65-1.043.956-1.576a13.75,13.75,0,0,0,1.98-7.913c-4.891-.161-7.767-3.336-10.159-6.881-1.507,1.6-2.845,3.2-4.369,4.6a9.029,9.029,0,0,1-5.733,2.265c.372,3.44,1.452,6.314,4.5,8.174a9.2,9.2,0,0,1,4.531,6.52c.1.619.1,1.255.174,2.179,1.832-1.452,3.493-2.744,5.126-4.072,1.025-.833,2.035-.9,2.709-.1a1.738,1.738,0,0,1-.47,2.589c-1.335,1.118-2.686,2.221-4.092,3.246a1.808,1.808,0,0,0-.877,1.667c.043,4.547.022,9.094.02,13.641a6.98,6.98,0,0,1-.036,1.023,1.6,1.6,0,0,1-1.6,1.445,1.626,1.626,0,0,1-1.669-1.486,8.313,8.313,0,0,1-.03-1.024q0-5.743,0-11.487V934.5l-1.386.661a1.74,1.74,0,0,1-2.326-.293,1.777,1.777,0,0,1,.1-2.34,5.952,5.952,0,0,0,.953-2c.528-2.632-.677-4.506-2.725-6.049-1.3-.977-2.45-2.142-3.666-3.224-.135-.119-.266-.242-.48-.438-2.275,13.438-4.527,26.742-6.785,40.078h16.313V959.7c0-2.052-.011-4.1,0-6.154.01-1.294.628-2,1.684-1.992s1.627.714,1.65,2.029c.008.444,0,.889,0,1.333v5.952h16.311C1408.218,948.141,1406.082,935.526,1403.9,922.613ZM1375.859,897.3c-.96,1.418.042,4.754,1.965,6.447,1.058-1.292,2.071-2.623,3.181-3.866a6.344,6.344,0,0,1,7.583-1.9c.693.251,1.353.594,2.04.9.28-1.459.728-2.028,1.661-2.054,1.363-.038,1.717.94,1.871,2.116.432-.232.756-.412,1.084-.583a6.638,6.638,0,0,1,8.468,1.441c.647.7,1.219,1.471,1.825,2.21.486.593.971,1.188,1.466,1.793,2.043-2.245,2.862-5.094,1.925-6.5-.374,1.181-.989,1.686-1.919,1.573-.893-.108-1.332-.718-1.514-1.9-.3-1.919-.663-3.827-.972-5.744-.1-.6-.411-.734-.973-.779a140.559,140.559,0,0,0-22.317,0c-.56.045-.878.18-.974.778-.309,1.917-.676,3.824-.972,5.743-.182,1.18-.62,1.79-1.513,1.9C1376.841,898.988,1376.224,898.48,1375.859,897.3Zm16.532-33.053-9.9,16.569h19.8Zm-2.066,38.786a12.549,12.549,0,0,0-1-.841,11.237,11.237,0,0,0-1.484-.9,3.313,3.313,0,0,0-4.338.823c-2.062,2.354-3.662,5.143-6.635,6.715C1382.85,911.177,1386.453,910.133,1390.325,903.031Zm4.084-.051c3.991,7.21,7.645,8.21,13.286,5.906a39.989,39.989,0,0,1-3-2.654c-1.14-1.216-2.12-2.581-3.191-3.863a3.5,3.5,0,0,0-4.985-.859C1395.8,901.944,1395.13,902.473,1394.409,902.98Zm-24.753,34.1a27.84,27.84,0,0,0,3.122-.86,4.064,4.064,0,0,0,2.792-2.63c.379-1.554.568-3.155.827-4.738a3.389,3.389,0,0,0-.039-.678,11.932,11.932,0,0,1-6.7,2.621Zm45.485-6.308a12.227,12.227,0,0,1-6.9-2.681c.326,1.923.579,3.606.913,5.274a2.95,2.95,0,0,0,.663,1.327,7.238,7.238,0,0,0,5.319,2.234Zm8.092-23.656a2.1,2.1,0,1,0-2.017,2.166A2.126,2.126,0,0,0,1423.233,907.113Z" fill="#7a7a7a"/>
    <path id="Pfad_555" data-name="Pfad 555" d="M1386.306,892.08a5.469,5.469,0,0,1,3.809,1.505,1.638,1.638,0,0,1,.335,2.288,1.551,1.551,0,0,1-2.336.333,2.773,2.773,0,0,0-3.723,0,1.545,1.545,0,0,1-2.273-.26,1.628,1.628,0,0,1,.274-2.369A5.505,5.505,0,0,1,1386.306,892.08Z" fill="#7a7a7a"/>
    <path id="Pfad_556" data-name="Pfad 556" d="M1403.052,894.688a1.651,1.651,0,0,1-2.478,1.624,3,3,0,0,0-4.077,0,1.435,1.435,0,0,1-2.093-.363,1.541,1.541,0,0,1,.046-2.144c1.886-2.27,6.291-2.28,8.148-.006A3.9,3.9,0,0,1,1403.052,894.688Z" fill="#7a7a7a"/>
  </g>
</svg>
