<?xml version="1.0" encoding="utf-8"?>
<!-- Generator: Adobe Illustrator 25.0.1, SVG Export Plug-In . SVG Version: 6.00 Build 0)  -->
<svg version="1.1" xmlns="http://www.w3.org/2000/svg" xmlns:xlink="http://www.w3.org/1999/xlink" x="0px" y="0px"
	 viewBox="0 0 910.6 1060.5" style="enable-background:new 0 0 910.6 1060.5;" xml:space="preserve">
<style type="text/css">
	.st0{display:none;}
	.st1{fill:#F0EFEF;stroke:#787878;stroke-width:1.5;stroke-miterlimit:10;}
	.st2{fill:none;stroke:#787878;stroke-miterlimit:10;}
	.st3{fill:#787878;}
	.st4{fill:none;stroke:#787878;stroke-width:2;stroke-miterlimit:10;}
	.st5{font-family:'Kanit-ExtraLight';}
	.st6{font-size:22.8284px;}
	.st7{font-family:'NexaScript-Thin';}
	.st8{font-family:'Kanit-Light';}
	.st9{font-size:17px;}
</style>
<g id="Layer_3" class="st0">
	
		<image style="display:inline;overflow:visible;" width="686" height="809" xlink:href="25CABB53EEEE2EDD.jpg"  transform="matrix(1.3274 0 0 1.3274 0 -13.3348)">
	</image>
</g>
<g id="Layer_2">
	<path class="st1" d="M437.1,341.2c1,0,1.8,0.7,1.8,1.7c0.6,7.9,3.9,41.9,17.6,80.9c12.7,36.4,18.9,85.4,19.8,103.6
		c0.7,13.1-9.5,94.5-9.5,94.5s-1.3,12.5,0.9,19.9c2.3,7.6,5.7,15,2.5,25c-2.1,6.5-1.7,30.9,1.1,54.9c1.8,15.1,6.5,52.4,10.9,83
		c2.8,19.2,6.4,33.7,8.2,40.9c4.6,19.1,15.1,43.1,23.6,50.7c2.8,2.5,6.5,6.5,12.7,9.4c13,6,28.3,13.1,29.4,13.5
		c1.8,0.6,5.1,1.4,10.2,2.3c3.4,0.6,6.4,2.7,8,4.2c0.7,0.6,0.4,1.7-0.4,2c-2.5,1-9.3,2.2-14.7,3.2c-11.5,2.2-11.8,1.8-23.5-1.4
		c-10.5-2.9-22.9-5.1-29.4-5.3c-7.6-0.3-20,5.1-30.5,4.4c-9.2-0.6-18.7-4-19.1-24.4c-0.1-6.5,4.6-18.2,4.8-26.9
		c0.4-16.6-7.9-34-13.6-43.3c-5.7-9.3-23.4-41.5-29-58.5c-6.5-19.8-7.5-36.3-7.9-54c-0.4-17.4,1.8-33.7,1.9-38.6
		c0.1-4.8,1.1-12.9-1.5-21.8c-2.6-8.9-18.3-46.6-20.1-56.8c-1.8-10.1-18.8-77.4-18.8-77.4l-3.5-15.7c-0.1-0.3-0.2-0.7-0.5-0.9
		l-0.4-0.5c-0.7-0.7-1.8-0.7-2.5,0.1l-0.4,0.5c-0.2,0.2-0.3,0.4-0.3,0.7l-3.5,15.8c0,0-16.9,67.3-18.8,77.4
		c-1.8,10.1-17.5,47.9-20.1,56.8c-2.6,8.9-1.6,17-1.5,21.8c0.1,4.8,2.3,21.1,1.9,38.6c-0.4,17.7-1.4,34.2-7.9,54
		c-5.6,17-23.4,49.2-29,58.5c-5.7,9.3-14,26.7-13.6,43.3c0.2,8.7,4.9,20.4,4.8,26.9c-0.4,20.3-9.9,23.7-19.1,24.4
		c-10.5,0.7-22.9-4.7-30.5-4.4c-6.5,0.2-18.9,2.4-29.4,5.3c-11.7,3.2-12,3.7-23.5,1.4c-5.4-1-12.2-2.2-14.7-3.2
		c-0.8-0.3-1.1-1.4-0.4-2c1.6-1.5,4.6-3.6,8-4.2c5-0.9,8.4-1.7,10.2-2.3c1.2-0.4,16.5-7.5,29.4-13.5c6.2-2.9,9.9-6.8,12.7-9.4
		c8.5-7.6,18.9-31.7,23.6-50.7c1.7-7.2,5.4-21.7,8.2-40.9c4.4-30.6,9.2-67.9,10.9-83c2.8-24,3.2-48.4,1.1-54.9
		c-3.2-10,0.2-17.4,2.5-25c2.2-7.3,0.9-19.9,0.9-19.9s-10.1-81.4-9.5-94.5c0.9-18.2,7.1-67.3,19.8-103.6
		c13.7-39.1,17-73.1,17.6-80.9c0.1-1,0.9-1.7,1.8-1.7H437.1z"/>
	<line class="st2" x1="895.9" y1="525.6" x2="10.2" y2="525.6"/>
	<line class="st2" x1="896.7" y1="577.9" x2="10.2" y2="577.9"/>
	<line class="st2" x1="896.7" y1="657.1" x2="10.2" y2="657.1"/>
	<line class="st2" x1="896.7" y1="695.9" x2="10.2" y2="695.9"/>
	<line class="st2" x1="896.7" y1="753.1" x2="10.2" y2="753.1"/>
	<line class="st2" x1="896.7" y1="811.2" x2="10.2" y2="811.2"/>
	<line class="st2" x1="895.7" y1="859.7" x2="10.2" y2="859.7"/>
	<line class="st2" x1="191.7" y1="901.7" x2="10.2" y2="901.7"/>
	<line class="st2" x1="191.7" y1="945.7" x2="10.2" y2="945.7"/>
	<line class="st2" x1="191.7" y1="997.7" x2="10.2" y2="997.7"/>
	<path class="st2" d="M718.3,525.6"/>
	<path class="st2" d="M473.2,525.6"/>
	<path class="st2" d="M719.1,577.9"/>
	<path class="st2" d="M468.7,577.9"/>
	<line class="st2" x1="537.5" y1="901.7" x2="896.7" y2="901.7"/>
	<line class="st2" x1="537.5" y1="945.7" x2="896.7" y2="945.7"/>
	<line class="st2" x1="537.5" y1="997.7" x2="896.7" y2="997.7"/>
	<polyline class="st2" points="474.6,506.3 548.8,477 896.7,477 	"/>
	<polyline class="st2" points="466.7,459.6 550.5,330.8 896.7,330.8 	"/>
	<polyline class="st2" points="440.9,357.1 547.7,280.6 896.7,280.6 	"/>
	<polyline class="st2" points="367,341.2 367,166.4 896.7,166.4 	"/>
	<line class="st2" x1="368.5" y1="228.1" x2="896.7" y2="228.1"/>
	<g>
		<polygon class="st3" points="440.9,360.2 293.2,360.2 294.2,353.9 440.1,353.9 		"/>
		<polygon class="st3" points="466.7,462.8 267.1,462.8 268.4,456.4 465.6,456.4 		"/>
		<polygon class="st3" points="361.2,528.8 257.5,528.8 258.2,522.5 362.6,522.5 		"/>
		<polygon class="st3" points="476.4,528.8 373.3,528.8 371.7,522.5 476.2,522.5 		"/>
		<polygon class="st3" points="475.1,509.3 259.5,509.3 260.3,502.9 474.1,502.9 		"/>
		<polygon class="st3" points="347.9,581.1 262.2,581.1 261.9,574.7 349.3,574.7 		"/>
		<polygon class="st3" points="471.7,581.4 385.6,581.4 384,575 472.5,575 		"/>
		<polygon class="st3" points="322.5,660.3 262.8,660.3 262.5,653.9 324.9,653.9 		"/>
		<polygon class="st3" points="471.3,660.3 411.6,660.3 409.6,653.9 471.4,653.9 		"/>
		<polygon class="st3" points="322.9,699.1 265.2,699.1 264.8,692.7 322.3,692.7 		"/>
		<polygon class="st3" points="469.6,699.1 411.9,699 411.9,692.7 469.2,692.7 		"/>
		<polygon class="st3" points="319.8,756.3 258.1,756.3 258.7,750 321.2,750 		"/>
		<polygon class="st3" points="475.9,757.3 414.3,757.3 413.2,751 475.1,751 		"/>
		<polygon class="st3" points="296.7,814.4 250.1,814.4 251,808 300.1,808 		"/>
		<polygon class="st3" points="484.1,814.4 437.5,814.3 434.1,808 482.9,808 		"/>
		<polygon class="st3" points="274.7,862.9 238.5,862.9 241.2,856.5 276.1,856.5 		"/>
		<polygon class="st3" points="496.5,862.9 460.6,862.8 458.6,856.5 494.4,856.5 		"/>
		<polygon class="st3" points="508.9,890.4 461.9,922.3 458.6,916.2 505.7,884.9 		"/>
		<polygon class="st3" points="553.8,917.8 548.9,932.5 542.6,931.6 547.9,915.4 		"/>
		<polygon class="st3" points="225.3,891.1 272.4,923.1 275.7,916.9 228.5,885.6 		"/>
		<polygon class="st3" points="181.8,917.8 186.7,932.5 193,931.6 187.7,915.4 		"/>
		<polygon class="st3" points="364.1,341.2 364.1,506.1 370.5,505 370.5,341.2 		"/>
		<rect x="189.8" y="942.5" class="st3" width="86.3" height="6.4"/>
		<rect x="159.1" y="994.5" class="st3" width="117" height="6.4"/>
		
			<rect x="457.5" y="942.5" transform="matrix(-1 -4.487223e-11 4.487223e-11 -1 1001.3118 1891.3741)" class="st3" width="86.3" height="6.4"/>
		
			<rect x="457.5" y="994.5" transform="matrix(-1 -4.488067e-11 4.488067e-11 -1 1031.9362 1995.3741)" class="st3" width="117" height="6.4"/>
	</g>
	<line class="st4" x1="721.1" y1="10.8" x2="721.1" y2="1047.7"/>
	<rect x="10.2" y="10.8" class="st2" width="886.5" height="1037"/>
	<line class="st2" x1="10.2" y1="103.6" x2="896.7" y2="103.6"/>
</g>
<g id="Layer_4">
	<text transform="matrix(1 0 0 1 121.5814 508.2891)" class="st3 st5 st6">cG</text>
	<text transform="matrix(1 0 0 1 121.5814 560.2891)" class="st3 st5 st6">cF</text>
	<text transform="matrix(1 0 0 1 121.5814 623.2891)" class="st3 st5 st6">cE</text>
	<text transform="matrix(1 0 0 1 121.5814 684.2891)" class="st3 st5 st6">cD</text>
	<text transform="matrix(1 0 0 1 121.5814 732.2891)" class="st3 st5 st6">cC</text>
	<text transform="matrix(1 0 0 1 121.5814 790.2891)" class="st3 st5 st6">cB</text>
	<text transform="matrix(0.583 0 0 0.583 145.9847 782.6871)" class="st3 st5 st6">1</text>
	<text transform="matrix(1 0 0 1 121.5814 843.2891)" class="st3 st5 st6">cB</text>
	<text transform="matrix(1 0 0 1 121.5814 888.2891)" class="st3 st5 st6">cY</text>
	<text transform="matrix(1 0 0 1 121.5814 930.2891)" class="st3 st5 st6">cA</text>
	<text transform="matrix(1 0 0 1 121.5814 980.2891)"><tspan x="0" y="0" class="st3 st7 st6">l</tspan><tspan x="6.5" y="0" class="st3 st5 st6">A</tspan></text>
	<text transform="matrix(1 0 0 1 121.5814 1032.2891)"><tspan x="0" y="0" class="st3 st7 st6">l</tspan><tspan x="6.5" y="0" class="st3 st5 st6">Z</tspan></text>
	<text transform="matrix(1 0 0 1 585.5814 508.2891)" class="st3 st5 st6">cG</text>
	<text transform="matrix(1 0 0 1 585.5814 560.2891)" class="st3 st5 st6">cF</text>
	<text transform="matrix(1 0 0 1 585.5814 623.2891)" class="st3 st5 st6">cE</text>
	<text transform="matrix(1 0 0 1 585.5814 684.2891)" class="st3 st5 st6">cD</text>
	<text transform="matrix(1 0 0 1 585.5814 732.2891)" class="st3 st5 st6">cC</text>
	<text transform="matrix(1 0 0 1 585.5814 790.2891)" class="st3 st5 st6">cB</text>
	<text transform="matrix(0.583 0 0 0.583 609.9847 782.6871)" class="st3 st5 st6">1</text>
	<text transform="matrix(1 0 0 1 585.5814 843.2891)" class="st3 st5 st6">cB</text>
	<text transform="matrix(1 0 0 1 585.5814 888.2891)" class="st3 st5 st6">cY</text>
	<text transform="matrix(1 0 0 1 585.5814 930.2891)" class="st3 st5 st6">cA</text>
	<text transform="matrix(1 0 0 1 585.5814 980.2891)"><tspan x="0" y="0" class="st3 st7 st6">l</tspan><tspan x="6.5" y="0" class="st3 st5 st6">A</tspan></text>
	<text transform="matrix(1 0 0 1 585.5814 1032.2891)"><tspan x="0" y="0" class="st3 st7 st6">l</tspan><tspan x="6.5" y="0" class="st3 st5 st6">Z</tspan></text>
	<text transform="matrix(1 0 0 1 585.5814 460.2891)" class="st3 st5 st6">cK</text>
	<text transform="matrix(1 0 0 1 585.5814 314.2891)" class="st3 st5 st6">cH</text>
	<text transform="matrix(1 0 0 1 585.5814 262.2891)" class="st3 st5 st6">cT</text>
	<text transform="matrix(1 0 0 1 743.5814 508.2891)"><tspan x="0" y="0" class="st3 st7 st6">l</tspan><tspan x="6.5" y="0" class="st3 st5 st6">G</tspan></text>
	<text transform="matrix(1 0 0 1 743.5814 560.2891)"><tspan x="0" y="0" class="st3 st7 st6">l</tspan><tspan x="6.5" y="0" class="st3 st5 st6">F</tspan></text>
	<text transform="matrix(1 0 0 1 743.5814 623.2891)"><tspan x="0" y="0" class="st3 st7 st6">l</tspan><tspan x="6.5" y="0" class="st3 st5 st6">E</tspan></text>
	<text transform="matrix(1 0 0 1 743.5814 684.2891)"><tspan x="0" y="0" class="st3 st7 st6">l</tspan><tspan x="6.5" y="0" class="st3 st5 st6">D</tspan></text>
	<text transform="matrix(1 0 0 1 743.5814 732.2891)"><tspan x="0" y="0" class="st3 st7 st6">l</tspan><tspan x="6.5" y="0" class="st3 st5 st6">C</tspan></text>
	<text transform="matrix(1 0 0 1 743.5814 790.2891)" class="st3 st7 st6">l</text>
	<text transform="matrix(1 0 0 1 750.1107 790.2891)" class="st3 st5 st6">B</text>
	<text transform="matrix(0.583 0 0 0.583 764.2405 782.6871)" class="st3 st5 st6">1</text>
	<text transform="matrix(1 0 0 1 743.5814 843.2891)"><tspan x="0" y="0" class="st3 st7 st6">l</tspan><tspan x="6.5" y="0" class="st3 st5 st6">B</tspan></text>
	<text transform="matrix(1 0 0 1 743.5814 980.2891)"><tspan x="0" y="0" class="st3 st7 st6">l</tspan><tspan x="6.5" y="0" class="st3 st5 st6">A</tspan></text>
	<text transform="matrix(1 0 0 1 743.5814 1032.2891)"><tspan x="0" y="0" class="st3 st7 st6">l</tspan><tspan x="6.5" y="0" class="st3 st5 st6">Z</tspan></text>
	<text transform="matrix(1 0 0 1 743.5814 314.2891)"><tspan x="0" y="0" class="st3 st7 st6">l</tspan><tspan x="6.5" y="0" class="st3 st5 st6">H</tspan></text>
	<text transform="matrix(1 0 0 1 743.5814 262.2891)"><tspan x="0" y="0" class="st3 st7 st6">l</tspan><tspan x="6.5" y="0" class="st3 st5 st6">T</tspan></text>
	<text transform="matrix(1 0 0 1 743.5814 205.2891)" class="st3 st5 st6">hinten</text>
	<text transform="matrix(1 0 0 1 743.5814 144.2891)" class="st3 st5 st6">vorn</text>
	<text transform="matrix(1 0 0 1 733.5814 368.2891)"><tspan x="0" y="0" class="st3 st8 st6">Längenmaße</tspan><tspan x="0" y="27.4" class="st3 st8 st6">Bein</tspan></text>
	<text transform="matrix(1 0 0 1 733.0541 49.1904)" class="st3 st8 st6">Leibteillänge</text>
	<text transform="matrix(1 0 0 1 541.5062 49.1904)" class="st3 st8 st6">UMFANGMAßE</text>
	<text transform="matrix(1 0 0 1 466.6058 77.1904)" class="st3 st8 st9">RECHTES PATIENTENbein/cm</text>
	<text transform="matrix(1 0 0 1 23.0541 49.1904)" class="st3 st8 st6">UMFANGMAßE</text>
	<text transform="matrix(1 0 0 1 23.0541 77.1904)" class="st3 st8 st9">linkES PATIENTENbein/cm</text>
	<text transform="matrix(1 0 0 1 364.1469 150.6153)" class="st3 st8 st9">Bitte leibteillängen angeben</text>
	<text transform="matrix(1 0 0 1 321.1758 968.972)" class="st3 st8 st9">Fußlängen</text>
</g>
</svg>
