<?xml version="1.0" encoding="utf-8"?>
<!-- Generator: Adobe Illustrator 25.0.1, SVG Export Plug-In . SVG Version: 6.00 Build 0)  -->
<svg version="1.1" id="Layer_1" xmlns="http://www.w3.org/2000/svg" xmlns:xlink="http://www.w3.org/1999/xlink" x="0px" y="0px"
	 viewBox="0 0 910.6 1060.5" style="enable-background:new 0 0 910.6 1060.5;" xml:space="preserve" preserveAspectRatio="none">
<style type="text/css">
	.st0{display:none;}
	.st1{fill:#F0EFEF;stroke:#787878;stroke-width:1.5;stroke-miterlimit:10;}
	.st2{fill:none;stroke:#787878;stroke-miterlimit:10;}
	.st3{fill:#787878;}
	.st4{fill:none;stroke:#787878;stroke-width:2;stroke-miterlimit:10;}
	.st5{enable-background:new    ;}
</style>
<g id="Layer_3" class="st0">
	
		<image style="display:inline;overflow:visible;enable-background:new    ;" width="684" height="806" xlink:href="25CABB53EEEE2EDD.jpg"  transform="matrix(1.3319 0 0 1.3319 -0.2107 -13.1561)">
	</image>
</g>
<g id="Layer_2_1_">
	<path class="st1" d="M437.1,341.2c1,0,1.8,0.7,1.8,1.7c0.6,7.9,3.9,41.9,17.6,80.9c12.7,36.4,18.9,85.4,19.8,103.6
		c0.7,13.1-9.5,94.5-9.5,94.5s-1.3,12.5,0.9,19.9c2.3,7.6,5.7,15,2.5,25c-2.1,6.5-1.7,30.9,1.1,54.9c1.8,15.1,6.5,52.4,10.9,83
		c2.8,19.2,6.4,33.7,8.2,40.9c4.6,19.1,15.1,43.1,23.6,50.7c2.8,2.5,6.5,6.5,12.7,9.4c13,6,28.3,13.1,29.4,13.5
		c1.8,0.6,5.1,1.4,10.2,2.3c3.4,0.6,6.4,2.7,8,4.2c0.7,0.6,0.4,1.7-0.4,2c-2.5,1-9.3,2.2-14.7,3.2c-11.5,2.2-11.8,1.8-23.5-1.4
		c-10.5-2.9-22.9-5.1-29.4-5.3c-7.6-0.3-20,5.1-30.5,4.4c-9.2-0.6-18.7-4-19.1-24.4c-0.1-6.5,4.6-18.2,4.8-26.9
		c0.4-16.6-7.9-34-13.6-43.3s-23.4-41.5-29-58.5c-6.5-19.8-7.5-36.3-7.9-54c-0.4-17.4,1.8-33.7,1.9-38.6c0.1-4.8,1.1-12.9-1.5-21.8
		c-2.6-8.9-18.3-46.6-20.1-56.8c-1.8-10.1-18.8-77.4-18.8-77.4l-3.5-15.7c-0.1-0.3-0.2-0.7-0.5-0.9l-0.4-0.5
		c-0.7-0.7-1.8-0.7-2.5,0.1l-0.4,0.5c-0.2,0.2-0.3,0.4-0.3,0.7l-3.5,15.8c0,0-16.9,67.3-18.8,77.4c-1.8,10.1-17.5,47.9-20.1,56.8
		c-2.6,8.9-1.6,17-1.5,21.8s2.3,21.1,1.9,38.6c-0.4,17.7-1.4,34.2-7.9,54c-5.6,17-23.4,49.2-29,58.5c-5.7,9.3-14,26.7-13.6,43.3
		c0.2,8.7,4.9,20.4,4.8,26.9c-0.4,20.3-9.9,23.7-19.1,24.4c-10.5,0.7-22.9-4.7-30.5-4.4c-6.5,0.2-18.9,2.4-29.4,5.3
		c-11.7,3.2-12,3.7-23.5,1.4c-5.4-1-12.2-2.2-14.7-3.2c-0.8-0.3-1.1-1.4-0.4-2c1.6-1.5,4.6-3.6,8-4.2c5-0.9,8.4-1.7,10.2-2.3
		c1.2-0.4,16.5-7.5,29.4-13.5c6.2-2.9,9.9-6.8,12.7-9.4c8.5-7.6,18.9-31.7,23.6-50.7c1.7-7.2,5.4-21.7,8.2-40.9
		c4.4-30.6,9.2-67.9,10.9-83c2.8-24,3.2-48.4,1.1-54.9c-3.2-10,0.2-17.4,2.5-25c2.2-7.3,0.9-19.9,0.9-19.9s-10.1-81.4-9.5-94.5
		c0.9-18.2,7.1-67.3,19.8-103.6c13.7-39.1,17-73.1,17.6-80.9c0.1-1,0.9-1.7,1.8-1.7H437.1z"/>
	<line class="st2" x1="895.9" y1="525.6" x2="10.2" y2="525.6"/>
	<line class="st2" x1="896.7" y1="577.9" x2="10.2" y2="577.9"/>
	<line class="st2" x1="896.7" y1="657.1" x2="10.2" y2="657.1"/>
	<line class="st2" x1="896.7" y1="695.9" x2="10.2" y2="695.9"/>
	<line class="st2" x1="896.7" y1="753.1" x2="10.2" y2="753.1"/>
	<line class="st2" x1="896.7" y1="811.2" x2="10.2" y2="811.2"/>
	<line class="st2" x1="895.7" y1="859.7" x2="10.2" y2="859.7"/>
	<line class="st2" x1="191.7" y1="901.7" x2="10.2" y2="901.7"/>
	<line class="st2" x1="191.7" y1="945.7" x2="10.2" y2="945.7"/>
	<line class="st2" x1="191.7" y1="997.7" x2="10.2" y2="997.7"/>
	<path class="st2" d="M718.3,525.6"/>
	<path class="st2" d="M473.2,525.6"/>
	<path class="st2" d="M719.1,577.9"/>
	<path class="st2" d="M468.7,577.9"/>
	<line class="st2" x1="537.5" y1="901.7" x2="896.7" y2="901.7"/>
	<line class="st2" x1="537.5" y1="945.7" x2="896.7" y2="945.7"/>
	<line class="st2" x1="537.5" y1="997.7" x2="896.7" y2="997.7"/>
	<polyline class="st2" points="474.6,506.3 548.8,477 896.7,477 	"/>
	<polyline class="st2" points="466.7,459.6 550.5,330.8 896.7,330.8 	"/>
	<polyline class="st2" points="440.9,357.1 547.7,280.6 896.7,280.6 	"/>
	<polyline class="st2" points="367,341.2 367,166.4 896.7,166.4 	"/>
	<line class="st2" x1="368.5" y1="228.1" x2="896.7" y2="228.1"/>
	<g>
		<polygon class="st3" points="440.9,360.2 293.2,360.2 294.2,353.9 440.1,353.9 		"/>
		<polygon class="st3" points="466.7,462.8 267.1,462.8 268.4,456.4 465.6,456.4 		"/>
		<polygon class="st3" points="361.2,528.8 257.5,528.8 258.2,522.5 362.6,522.5 		"/>
		<polygon class="st3" points="476.4,528.8 373.3,528.8 371.7,522.5 476.2,522.5 		"/>
		<polygon class="st3" points="475.1,509.3 259.5,509.3 260.3,502.9 474.1,502.9 		"/>
		<polygon class="st3" points="347.9,581.1 262.2,581.1 261.9,574.7 349.3,574.7 		"/>
		<polygon class="st3" points="471.7,581.4 385.6,581.4 384,575 472.5,575 		"/>
		<polygon class="st3" points="322.5,660.3 262.8,660.3 262.5,653.9 324.9,653.9 		"/>
		<polygon class="st3" points="471.3,660.3 411.6,660.3 409.6,653.9 471.4,653.9 		"/>
		<polygon class="st3" points="322.9,699.1 265.2,699.1 264.8,692.7 322.3,692.7 		"/>
		<polygon class="st3" points="469.6,699.1 411.9,699 411.9,692.7 469.2,692.7 		"/>
		<polygon class="st3" points="319.8,756.3 258.1,756.3 258.7,750 321.2,750 		"/>
		<polygon class="st3" points="475.9,757.3 414.3,757.3 413.2,751 475.1,751 		"/>
		<polygon class="st3" points="296.7,814.4 250.1,814.4 251,808 300.1,808 		"/>
		<polygon class="st3" points="484.1,814.4 437.5,814.3 434.1,808 482.9,808 		"/>
		<polygon class="st3" points="274.7,862.9 238.5,862.9 241.2,856.5 276.1,856.5 		"/>
		<polygon class="st3" points="496.5,862.9 460.6,862.8 458.6,856.5 494.4,856.5 		"/>
		<polygon class="st3" points="508.9,890.4 461.9,922.3 458.6,916.2 505.7,884.9 		"/>
		<polygon class="st3" points="553.8,917.8 548.9,932.5 542.6,931.6 547.9,915.4 		"/>
		<polygon class="st3" points="225.3,891.1 272.4,923.1 275.7,916.9 228.5,885.6 		"/>
		<polygon class="st3" points="181.8,917.8 186.7,932.5 193,931.6 187.7,915.4 		"/>
		<polygon class="st3" points="364.1,341.2 364.1,506.1 370.5,505 370.5,341.2 		"/>
		<rect x="189.8" y="942.5" class="st3" width="86.3" height="6.4"/>
		<rect x="159.1" y="994.5" class="st3" width="117" height="6.4"/>
		<rect x="457.5" y="942.5" class="st3" width="86.3" height="6.4"/>
		<rect x="457.4" y="994.5" class="st3" width="117" height="6.4"/>
	</g>
	<line class="st4" x1="721.1" y1="10.8" x2="721.1" y2="1047.7"/>
	<rect x="10.2" y="10.8" class="st2" width="886.5" height="1037"/>
	<line class="st2" x1="10.2" y1="103.6" x2="896.7" y2="103.6"/>
</g>
<g id="Layer_4">
	<g class="st5">
		<path class="st3" d="M128.2,508.5c-1.9,0-3.2-0.5-4.1-1.5c-0.9-1-1.3-2.4-1.3-4.2c0-1.9,0.5-3.3,1.5-4.2c1-0.9,2.3-1.4,4.1-1.4
			c0.7,0,1.3,0,1.7,0.1c0.4,0.1,0.8,0.2,1.3,0.4v1c-0.8-0.4-1.7-0.6-2.7-0.6c-1.4,0-2.5,0.4-3.3,1.1c-0.8,0.7-1.2,1.9-1.2,3.5
			c0,1.6,0.3,2.7,1,3.5c0.7,0.8,1.8,1.1,3.4,1.1c0.5,0,1-0.1,1.5-0.2c0.5-0.1,1-0.3,1.4-0.4v1c-0.4,0.2-0.9,0.3-1.4,0.4
			S128.8,508.5,128.2,508.5z"/>
		<path class="st3" d="M139.9,508.5c-1.6,0-2.8-0.3-3.8-0.9c-1-0.6-1.7-1.4-2.2-2.5s-0.7-2.3-0.7-3.8c0-1.6,0.2-3,0.7-4.2
			c0.4-1.2,1.2-2.1,2.1-2.8c1-0.7,2.3-1,3.9-1c0.8,0,1.6,0.1,2.3,0.2c0.7,0.1,1.3,0.3,1.9,0.5v1.1c-0.6-0.2-1.2-0.4-1.9-0.5
			c-0.7-0.1-1.4-0.2-2.2-0.2c-1.4,0-2.6,0.3-3.4,0.9c-0.8,0.6-1.4,1.4-1.7,2.4s-0.5,2.2-0.5,3.6c0,1.9,0.4,3.4,1.3,4.5
			s2.3,1.6,4.3,1.6c0.7,0,1.4-0.1,2.1-0.2c0.7-0.1,1.3-0.3,1.8-0.5v-5.2h-4.2v-1h5.3v6.9c-0.4,0.3-1,0.5-1.9,0.8
			C142.4,508.4,141.3,508.5,139.9,508.5z"/>
	</g>
	<g class="st5">
		<path class="st3" d="M128.2,560.5c-1.9,0-3.2-0.5-4.1-1.5c-0.9-1-1.3-2.4-1.3-4.2c0-1.9,0.5-3.3,1.5-4.2c1-0.9,2.3-1.4,4.1-1.4
			c0.7,0,1.3,0,1.7,0.1c0.4,0.1,0.8,0.2,1.3,0.4v1c-0.8-0.4-1.7-0.6-2.7-0.6c-1.4,0-2.5,0.4-3.3,1.1c-0.8,0.7-1.2,1.9-1.2,3.5
			c0,1.6,0.3,2.7,1,3.5c0.7,0.8,1.8,1.1,3.4,1.1c0.5,0,1-0.1,1.5-0.2c0.5-0.1,1-0.3,1.4-0.4v1c-0.4,0.2-0.9,0.3-1.4,0.4
			S128.8,560.5,128.2,560.5z"/>
		<path class="st3" d="M133.6,560.3v-14.7h9.3v1h-8v5.8h7.2v1h-7.2v6.8H133.6z"/>
	</g>
	<g class="st5">
		<path class="st3" d="M128.2,623.5c-1.9,0-3.2-0.5-4.1-1.5c-0.9-1-1.3-2.4-1.3-4.2c0-1.9,0.5-3.3,1.5-4.2c1-0.9,2.3-1.4,4.1-1.4
			c0.7,0,1.3,0,1.7,0.1c0.4,0.1,0.8,0.2,1.3,0.4v1c-0.8-0.4-1.7-0.6-2.7-0.6c-1.4,0-2.5,0.4-3.3,1.1c-0.8,0.7-1.2,1.9-1.2,3.5
			c0,1.6,0.3,2.7,1,3.5c0.7,0.8,1.8,1.1,3.4,1.1c0.5,0,1-0.1,1.5-0.2c0.5-0.1,1-0.3,1.4-0.4v1c-0.4,0.2-0.9,0.3-1.4,0.4
			S128.8,623.5,128.2,623.5z"/>
		<path class="st3" d="M133.6,623.3v-14.7h9.6v1h-8.4v5.8h7.6v1h-7.6v5.8h8.4v1H133.6z"/>
	</g>
	<g class="st5">
		<path class="st3" d="M128.2,684.5c-1.9,0-3.2-0.5-4.1-1.5c-0.9-1-1.3-2.4-1.3-4.2c0-1.9,0.5-3.3,1.5-4.2c1-0.9,2.3-1.4,4.1-1.4
			c0.7,0,1.3,0,1.7,0.1c0.4,0.1,0.8,0.2,1.3,0.4v1c-0.8-0.4-1.7-0.6-2.7-0.6c-1.4,0-2.5,0.4-3.3,1.1c-0.8,0.7-1.2,1.9-1.2,3.5
			c0,1.6,0.3,2.7,1,3.5c0.7,0.8,1.8,1.1,3.4,1.1c0.5,0,1-0.1,1.5-0.2c0.5-0.1,1-0.3,1.4-0.4v1c-0.4,0.2-0.9,0.3-1.4,0.4
			S128.8,684.5,128.2,684.5z"/>
		<path class="st3" d="M133.6,684.3v-14.7h5.5c1.4,0,2.6,0.3,3.4,0.8c0.9,0.5,1.5,1.3,1.9,2.4s0.6,2.5,0.6,4.3
			c0,2.5-0.5,4.3-1.4,5.5s-2.4,1.7-4.6,1.7H133.6z M134.8,683.3h4c1.1,0,2-0.2,2.8-0.5c0.7-0.3,1.3-1,1.6-1.8
			c0.4-0.9,0.5-2.2,0.5-3.9c0-1.7-0.2-3-0.5-3.9c-0.3-0.9-0.9-1.6-1.6-2c-0.7-0.4-1.7-0.6-2.9-0.6h-4V683.3z"/>
	</g>
	<g class="st5">
		<path class="st3" d="M128.2,732.5c-1.9,0-3.2-0.5-4.1-1.5c-0.9-1-1.3-2.4-1.3-4.2c0-1.9,0.5-3.3,1.5-4.2c1-0.9,2.3-1.4,4.1-1.4
			c0.7,0,1.3,0,1.7,0.1c0.4,0.1,0.8,0.2,1.3,0.4v1c-0.8-0.4-1.7-0.6-2.7-0.6c-1.4,0-2.5,0.4-3.3,1.1c-0.8,0.7-1.2,1.9-1.2,3.5
			c0,1.6,0.3,2.7,1,3.5c0.7,0.8,1.8,1.1,3.4,1.1c0.5,0,1-0.1,1.5-0.2c0.5-0.1,1-0.3,1.4-0.4v1c-0.4,0.2-0.9,0.3-1.4,0.4
			S128.8,732.5,128.2,732.5z"/>
		<path class="st3" d="M139.9,732.5c-1.6,0-2.8-0.3-3.8-0.9c-1-0.6-1.7-1.4-2.2-2.5s-0.7-2.3-0.7-3.8c0-1.6,0.2-3,0.7-4.2
			c0.4-1.2,1.2-2.1,2.1-2.8c1-0.7,2.3-1,3.9-1c0.8,0,1.6,0.1,2.3,0.2c0.7,0.1,1.3,0.3,1.9,0.5v1.1c-0.6-0.2-1.2-0.4-1.9-0.5
			c-0.7-0.1-1.4-0.2-2.2-0.2c-1.4,0-2.5,0.3-3.4,0.9c-0.8,0.6-1.4,1.4-1.7,2.4s-0.5,2.2-0.5,3.6c0,1.9,0.4,3.4,1.3,4.5
			s2.3,1.6,4.3,1.6c0.7,0,1.4-0.1,2.1-0.2c0.7-0.1,1.4-0.3,1.9-0.5v1.1c-0.6,0.2-1.2,0.3-1.9,0.4
			C141.4,732.5,140.7,732.5,139.9,732.5z"/>
	</g>
	<g class="st5">
		<path class="st3" d="M128.2,790.5c-1.9,0-3.2-0.5-4.1-1.5c-0.9-1-1.3-2.4-1.3-4.2c0-1.9,0.5-3.3,1.5-4.2c1-0.9,2.3-1.4,4.1-1.4
			c0.7,0,1.3,0,1.7,0.1c0.4,0.1,0.8,0.2,1.3,0.4v1c-0.8-0.4-1.7-0.6-2.7-0.6c-1.4,0-2.5,0.4-3.3,1.1c-0.8,0.7-1.2,1.9-1.2,3.5
			c0,1.6,0.3,2.7,1,3.5c0.7,0.8,1.8,1.1,3.4,1.1c0.5,0,1-0.1,1.5-0.2c0.5-0.1,1-0.3,1.4-0.4v1c-0.4,0.2-0.9,0.3-1.4,0.4
			S128.8,790.5,128.2,790.5z"/>
		<path class="st3" d="M133.6,790.3v-14.7h6.5c1.4,0,2.5,0.3,3.1,1c0.6,0.7,1,1.6,1,2.8c0,0.8-0.2,1.5-0.5,2.1s-0.8,1-1.4,1.2
			c0.8,0.2,1.4,0.5,1.8,1.1s0.7,1.3,0.7,2.4c0,1.4-0.4,2.5-1.1,3.1c-0.7,0.7-1.8,1-3.2,1H133.6z M134.8,782.2h5.3
			c1,0,1.8-0.3,2.2-0.8c0.4-0.5,0.6-1.2,0.6-2c0-0.9-0.2-1.7-0.7-2.2c-0.4-0.5-1.3-0.7-2.5-0.7h-4.9V782.2z M134.8,789.3h5.5
			c1.1,0,1.9-0.2,2.4-0.7c0.5-0.5,0.8-1.3,0.8-2.5c0-0.9-0.2-1.7-0.7-2.2c-0.5-0.5-1.4-0.7-2.8-0.7h-5.2V789.3z"/>
	</g>
	<g class="st5">
		<path class="st3" d="M148.1,782.7v-8l-1.3,0.2v-0.6l2.1-0.3v8.7H148.1z"/>
	</g>
	<g class="st5">
		<path class="st3" d="M128.2,843.5c-1.9,0-3.2-0.5-4.1-1.5c-0.9-1-1.3-2.4-1.3-4.2c0-1.9,0.5-3.3,1.5-4.2c1-0.9,2.3-1.4,4.1-1.4
			c0.7,0,1.3,0,1.7,0.1c0.4,0.1,0.8,0.2,1.3,0.4v1c-0.8-0.4-1.7-0.6-2.7-0.6c-1.4,0-2.5,0.4-3.3,1.1c-0.8,0.7-1.2,1.9-1.2,3.5
			c0,1.6,0.3,2.7,1,3.5c0.7,0.8,1.8,1.1,3.4,1.1c0.5,0,1-0.1,1.5-0.2c0.5-0.1,1-0.3,1.4-0.4v1c-0.4,0.2-0.9,0.3-1.4,0.4
			S128.8,843.5,128.2,843.5z"/>
		<path class="st3" d="M133.6,843.3v-14.7h6.5c1.4,0,2.5,0.3,3.1,1c0.6,0.7,1,1.6,1,2.8c0,0.8-0.2,1.5-0.5,2.1s-0.8,1-1.4,1.2
			c0.8,0.2,1.4,0.5,1.8,1.1s0.7,1.3,0.7,2.4c0,1.4-0.4,2.5-1.1,3.1c-0.7,0.7-1.8,1-3.2,1H133.6z M134.8,835.2h5.3
			c1,0,1.8-0.3,2.2-0.8c0.4-0.5,0.6-1.2,0.6-2c0-0.9-0.2-1.7-0.7-2.2c-0.4-0.5-1.3-0.7-2.5-0.7h-4.9V835.2z M134.8,842.3h5.5
			c1.1,0,1.9-0.2,2.4-0.7c0.5-0.5,0.8-1.3,0.8-2.5c0-0.9-0.2-1.7-0.7-2.2c-0.5-0.5-1.4-0.7-2.8-0.7h-5.2V842.3z"/>
	</g>
	<g class="st5">
		<path class="st3" d="M128.2,888.5c-1.9,0-3.2-0.5-4.1-1.5c-0.9-1-1.3-2.4-1.3-4.2c0-1.9,0.5-3.3,1.5-4.2c1-0.9,2.3-1.4,4.1-1.4
			c0.7,0,1.3,0,1.7,0.1c0.4,0.1,0.8,0.2,1.3,0.4v1c-0.8-0.4-1.7-0.6-2.7-0.6c-1.4,0-2.5,0.4-3.3,1.1c-0.8,0.7-1.2,1.9-1.2,3.5
			c0,1.6,0.3,2.7,1,3.5c0.7,0.8,1.8,1.1,3.4,1.1c0.5,0,1-0.1,1.5-0.2c0.5-0.1,1-0.3,1.4-0.4v1c-0.4,0.2-0.9,0.3-1.4,0.4
			S128.8,888.5,128.2,888.5z"/>
		<path class="st3" d="M136.9,888.3v-5.5l-5.2-9.2h1.3l4.6,8.1l4.6-8.1h1.3l-5.3,9.2v5.5H136.9z"/>
	</g>
	<g class="st5">
		<path class="st3" d="M128.2,930.5c-1.9,0-3.2-0.5-4.1-1.5c-0.9-1-1.3-2.4-1.3-4.2c0-1.9,0.5-3.3,1.5-4.2c1-0.9,2.3-1.4,4.1-1.4
			c0.7,0,1.3,0,1.7,0.1c0.4,0.1,0.8,0.2,1.3,0.4v1c-0.8-0.4-1.7-0.6-2.7-0.6c-1.4,0-2.5,0.4-3.3,1.1c-0.8,0.7-1.2,1.9-1.2,3.5
			c0,1.6,0.3,2.7,1,3.5c0.7,0.8,1.8,1.1,3.4,1.1c0.5,0,1-0.1,1.5-0.2c0.5-0.1,1-0.3,1.4-0.4v1c-0.4,0.2-0.9,0.3-1.4,0.4
			S128.8,930.5,128.2,930.5z"/>
		<path class="st3" d="M133,930.3l5.6-14.7h1.6l5.5,14.7h-1.3l-1.6-4.3h-6.9l-1.6,4.3H133z M136.2,925h6.3l-3.2-8.4L136.2,925z"/>
	</g>
	<g class="st5">
		<path class="st3" d="M127.9,968.8c-0.9,2.2-2.6,4.3-5.1,5.9c-0.5,2.4-0.5,4.6,0.8,4.7c2.3,0.3,3.9-3.1,4.4-4.5
			c0.1-0.2,0.8,0,0.6,0.4c-1.3,2.9-2.7,5.6-5.5,5.2c-2.6-0.4-2.2-4-1.2-7.9c0.9-3.3,2.1-6.4,3.5-7.5
			C127.4,963.5,129.4,965.3,127.9,968.8z M124.6,969c-0.4,0.9-1,2.6-1.5,4.5c1.3-1.2,2.4-2.5,3.1-4c1-2.1,1.3-3.7,0.5-3.7
			C126.1,965.7,125.4,967,124.6,969z"/>
	</g>
	<g class="st5">
		<path class="st3" d="M129.3,980.3l5.6-14.7h1.6l5.5,14.7h-1.3l-1.6-4.3h-6.9l-1.6,4.3H129.3z M132.5,975h6.3l-3.2-8.4L132.5,975z"
			/>
	</g>
	<g class="st5">
		<path class="st3" d="M127.9,1020.8c-0.9,2.2-2.6,4.3-5.1,5.9c-0.5,2.4-0.5,4.6,0.8,4.7c2.3,0.3,3.9-3.1,4.4-4.5
			c0.1-0.2,0.8,0,0.6,0.4c-1.3,2.9-2.7,5.6-5.5,5.2c-2.6-0.4-2.2-4-1.2-7.9c0.9-3.3,2.1-6.4,3.5-7.5
			C127.4,1015.5,129.4,1017.3,127.9,1020.8z M124.6,1021c-0.4,0.9-1,2.6-1.5,4.5c1.3-1.2,2.4-2.5,3.1-4c1-2.1,1.3-3.7,0.5-3.7
			C126.1,1017.7,125.4,1019,124.6,1021z"/>
	</g>
	<g class="st5">
		<path class="st3" d="M129.3,1032.3v-0.8l8.9-12.9h-8.5v-1h10.1v0.9l-8.8,12.8h8.9v1H129.3z"/>
	</g>
	<g class="st5">
		<path class="st3" d="M592.2,508.5c-1.9,0-3.2-0.5-4.1-1.5c-0.9-1-1.3-2.4-1.3-4.2c0-1.9,0.5-3.3,1.5-4.2s2.3-1.4,4.1-1.4
			c0.7,0,1.3,0,1.7,0.1s0.8,0.2,1.3,0.4v1c-0.8-0.4-1.7-0.6-2.7-0.6c-1.4,0-2.5,0.4-3.3,1.1c-0.8,0.7-1.2,1.9-1.2,3.5
			c0,1.6,0.3,2.7,1,3.5c0.7,0.8,1.8,1.1,3.4,1.1c0.5,0,1-0.1,1.5-0.2c0.5-0.1,1-0.3,1.4-0.4v1c-0.4,0.2-0.9,0.3-1.4,0.4
			C593.4,508.5,592.8,508.5,592.2,508.5z"/>
		<path class="st3" d="M603.9,508.5c-1.6,0-2.8-0.3-3.8-0.9c-1-0.6-1.7-1.4-2.2-2.5s-0.7-2.3-0.7-3.8c0-1.6,0.2-3,0.7-4.2
			c0.4-1.2,1.2-2.1,2.1-2.8c1-0.7,2.3-1,3.9-1c0.8,0,1.6,0.1,2.3,0.2s1.3,0.3,1.9,0.5v1.1c-0.6-0.2-1.2-0.4-1.9-0.5
			s-1.4-0.2-2.2-0.2c-1.4,0-2.6,0.3-3.4,0.9c-0.8,0.6-1.4,1.4-1.7,2.4c-0.3,1-0.5,2.2-0.5,3.6c0,1.9,0.4,3.4,1.3,4.5
			c0.9,1.1,2.3,1.6,4.3,1.6c0.7,0,1.4-0.1,2.1-0.2c0.7-0.1,1.3-0.3,1.8-0.5v-5.2h-4.2v-1h5.3v6.9c-0.4,0.3-1,0.5-1.9,0.8
			C606.4,508.4,605.3,508.5,603.9,508.5z"/>
	</g>
	<g class="st5">
		<path class="st3" d="M592.2,560.5c-1.9,0-3.2-0.5-4.1-1.5c-0.9-1-1.3-2.4-1.3-4.2c0-1.9,0.5-3.3,1.5-4.2s2.3-1.4,4.1-1.4
			c0.7,0,1.3,0,1.7,0.1s0.8,0.2,1.3,0.4v1c-0.8-0.4-1.7-0.6-2.7-0.6c-1.4,0-2.5,0.4-3.3,1.1c-0.8,0.7-1.2,1.9-1.2,3.5
			c0,1.6,0.3,2.7,1,3.5c0.7,0.8,1.8,1.1,3.4,1.1c0.5,0,1-0.1,1.5-0.2c0.5-0.1,1-0.3,1.4-0.4v1c-0.4,0.2-0.9,0.3-1.4,0.4
			C593.4,560.5,592.8,560.5,592.2,560.5z"/>
		<path class="st3" d="M597.6,560.3v-14.7h9.3v1h-8v5.8h7.2v1h-7.2v6.8H597.6z"/>
	</g>
	<g class="st5">
		<path class="st3" d="M592.2,623.5c-1.9,0-3.2-0.5-4.1-1.5c-0.9-1-1.3-2.4-1.3-4.2c0-1.9,0.5-3.3,1.5-4.2s2.3-1.4,4.1-1.4
			c0.7,0,1.3,0,1.7,0.1s0.8,0.2,1.3,0.4v1c-0.8-0.4-1.7-0.6-2.7-0.6c-1.4,0-2.5,0.4-3.3,1.1c-0.8,0.7-1.2,1.9-1.2,3.5
			c0,1.6,0.3,2.7,1,3.5c0.7,0.8,1.8,1.1,3.4,1.1c0.5,0,1-0.1,1.5-0.2c0.5-0.1,1-0.3,1.4-0.4v1c-0.4,0.2-0.9,0.3-1.4,0.4
			C593.4,623.5,592.8,623.5,592.2,623.5z"/>
		<path class="st3" d="M597.6,623.3v-14.7h9.6v1h-8.4v5.8h7.6v1h-7.6v5.8h8.4v1H597.6z"/>
	</g>
	<g class="st5">
		<path class="st3" d="M592.2,684.5c-1.9,0-3.2-0.5-4.1-1.5c-0.9-1-1.3-2.4-1.3-4.2c0-1.9,0.5-3.3,1.5-4.2s2.3-1.4,4.1-1.4
			c0.7,0,1.3,0,1.7,0.1s0.8,0.2,1.3,0.4v1c-0.8-0.4-1.7-0.6-2.7-0.6c-1.4,0-2.5,0.4-3.3,1.1c-0.8,0.7-1.2,1.9-1.2,3.5
			c0,1.6,0.3,2.7,1,3.5c0.7,0.8,1.8,1.1,3.4,1.1c0.5,0,1-0.1,1.5-0.2c0.5-0.1,1-0.3,1.4-0.4v1c-0.4,0.2-0.9,0.3-1.4,0.4
			C593.4,684.5,592.8,684.5,592.2,684.5z"/>
		<path class="st3" d="M597.6,684.3v-14.7h5.5c1.4,0,2.6,0.3,3.4,0.8s1.5,1.3,1.9,2.4s0.6,2.5,0.6,4.3c0,2.5-0.5,4.3-1.4,5.5
			s-2.4,1.7-4.6,1.7H597.6z M598.8,683.3h4c1.1,0,2-0.2,2.8-0.5c0.7-0.3,1.3-1,1.6-1.8c0.4-0.9,0.5-2.2,0.5-3.9c0-1.7-0.2-3-0.5-3.9
			c-0.3-0.9-0.9-1.6-1.6-2c-0.7-0.4-1.7-0.6-2.9-0.6h-4V683.3z"/>
	</g>
	<g class="st5">
		<path class="st3" d="M592.2,732.5c-1.9,0-3.2-0.5-4.1-1.5c-0.9-1-1.3-2.4-1.3-4.2c0-1.9,0.5-3.3,1.5-4.2s2.3-1.4,4.1-1.4
			c0.7,0,1.3,0,1.7,0.1s0.8,0.2,1.3,0.4v1c-0.8-0.4-1.7-0.6-2.7-0.6c-1.4,0-2.5,0.4-3.3,1.1c-0.8,0.7-1.2,1.9-1.2,3.5
			c0,1.6,0.3,2.7,1,3.5c0.7,0.8,1.8,1.1,3.4,1.1c0.5,0,1-0.1,1.5-0.2c0.5-0.1,1-0.3,1.4-0.4v1c-0.4,0.2-0.9,0.3-1.4,0.4
			C593.4,732.5,592.8,732.5,592.2,732.5z"/>
		<path class="st3" d="M603.9,732.5c-1.6,0-2.8-0.3-3.8-0.9c-1-0.6-1.7-1.4-2.2-2.5s-0.7-2.3-0.7-3.8c0-1.6,0.2-3,0.7-4.2
			c0.4-1.2,1.2-2.1,2.1-2.8c1-0.7,2.3-1,3.9-1c0.8,0,1.6,0.1,2.3,0.2s1.3,0.3,1.9,0.5v1.1c-0.6-0.2-1.2-0.4-1.9-0.5
			s-1.4-0.2-2.2-0.2c-1.4,0-2.5,0.3-3.4,0.9c-0.8,0.6-1.4,1.4-1.7,2.4c-0.3,1-0.5,2.2-0.5,3.6c0,1.9,0.4,3.4,1.3,4.5
			c0.9,1.1,2.3,1.6,4.3,1.6c0.7,0,1.4-0.1,2.1-0.2c0.7-0.1,1.4-0.3,1.9-0.5v1.1c-0.6,0.2-1.2,0.3-1.9,0.4S604.7,732.5,603.9,732.5z"
			/>
	</g>
	<g class="st5">
		<path class="st3" d="M592.2,790.5c-1.9,0-3.2-0.5-4.1-1.5c-0.9-1-1.3-2.4-1.3-4.2c0-1.9,0.5-3.3,1.5-4.2s2.3-1.4,4.1-1.4
			c0.7,0,1.3,0,1.7,0.1s0.8,0.2,1.3,0.4v1c-0.8-0.4-1.7-0.6-2.7-0.6c-1.4,0-2.5,0.4-3.3,1.1c-0.8,0.7-1.2,1.9-1.2,3.5
			c0,1.6,0.3,2.7,1,3.5c0.7,0.8,1.8,1.1,3.4,1.1c0.5,0,1-0.1,1.5-0.2c0.5-0.1,1-0.3,1.4-0.4v1c-0.4,0.2-0.9,0.3-1.4,0.4
			C593.4,790.5,592.8,790.5,592.2,790.5z"/>
		<path class="st3" d="M597.6,790.3v-14.7h6.5c1.4,0,2.5,0.3,3.1,1c0.6,0.7,1,1.6,1,2.8c0,0.8-0.2,1.5-0.5,2.1
			c-0.3,0.5-0.8,1-1.4,1.2c0.8,0.2,1.4,0.5,1.8,1.1c0.5,0.5,0.7,1.3,0.7,2.4c0,1.4-0.4,2.5-1.1,3.1c-0.7,0.7-1.8,1-3.2,1H597.6z
			 M598.8,782.2h5.3c1,0,1.8-0.3,2.2-0.8s0.6-1.2,0.6-2c0-0.9-0.2-1.7-0.7-2.2c-0.4-0.5-1.3-0.7-2.5-0.7h-4.9V782.2z M598.8,789.3
			h5.5c1.1,0,1.9-0.2,2.4-0.7c0.5-0.5,0.8-1.3,0.8-2.5c0-0.9-0.2-1.7-0.7-2.2c-0.5-0.5-1.4-0.7-2.8-0.7h-5.2V789.3z"/>
	</g>
	<g class="st5">
		<path class="st3" d="M612.1,782.7v-8l-1.3,0.2v-0.6l2.1-0.3v8.7H612.1z"/>
	</g>
	<g class="st5">
		<path class="st3" d="M592.2,843.5c-1.9,0-3.2-0.5-4.1-1.5c-0.9-1-1.3-2.4-1.3-4.2c0-1.9,0.5-3.3,1.5-4.2s2.3-1.4,4.1-1.4
			c0.7,0,1.3,0,1.7,0.1s0.8,0.2,1.3,0.4v1c-0.8-0.4-1.7-0.6-2.7-0.6c-1.4,0-2.5,0.4-3.3,1.1c-0.8,0.7-1.2,1.9-1.2,3.5
			c0,1.6,0.3,2.7,1,3.5c0.7,0.8,1.8,1.1,3.4,1.1c0.5,0,1-0.1,1.5-0.2c0.5-0.1,1-0.3,1.4-0.4v1c-0.4,0.2-0.9,0.3-1.4,0.4
			C593.4,843.5,592.8,843.5,592.2,843.5z"/>
		<path class="st3" d="M597.6,843.3v-14.7h6.5c1.4,0,2.5,0.3,3.1,1c0.6,0.7,1,1.6,1,2.8c0,0.8-0.2,1.5-0.5,2.1
			c-0.3,0.5-0.8,1-1.4,1.2c0.8,0.2,1.4,0.5,1.8,1.1c0.5,0.5,0.7,1.3,0.7,2.4c0,1.4-0.4,2.5-1.1,3.1c-0.7,0.7-1.8,1-3.2,1H597.6z
			 M598.8,835.2h5.3c1,0,1.8-0.3,2.2-0.8s0.6-1.2,0.6-2c0-0.9-0.2-1.7-0.7-2.2c-0.4-0.5-1.3-0.7-2.5-0.7h-4.9V835.2z M598.8,842.3
			h5.5c1.1,0,1.9-0.2,2.4-0.7c0.5-0.5,0.8-1.3,0.8-2.5c0-0.9-0.2-1.7-0.7-2.2c-0.5-0.5-1.4-0.7-2.8-0.7h-5.2V842.3z"/>
	</g>
	<g class="st5">
		<path class="st3" d="M592.2,888.5c-1.9,0-3.2-0.5-4.1-1.5c-0.9-1-1.3-2.4-1.3-4.2c0-1.9,0.5-3.3,1.5-4.2s2.3-1.4,4.1-1.4
			c0.7,0,1.3,0,1.7,0.1s0.8,0.2,1.3,0.4v1c-0.8-0.4-1.7-0.6-2.7-0.6c-1.4,0-2.5,0.4-3.3,1.1c-0.8,0.7-1.2,1.9-1.2,3.5
			c0,1.6,0.3,2.7,1,3.5c0.7,0.8,1.8,1.1,3.4,1.1c0.5,0,1-0.1,1.5-0.2c0.5-0.1,1-0.3,1.4-0.4v1c-0.4,0.2-0.9,0.3-1.4,0.4
			C593.4,888.5,592.8,888.5,592.2,888.5z"/>
		<path class="st3" d="M600.9,888.3v-5.5l-5.2-9.2h1.3l4.6,8.1l4.6-8.1h1.3l-5.2,9.2v5.5H600.9z"/>
	</g>
	<g class="st5">
		<path class="st3" d="M592.2,930.5c-1.9,0-3.2-0.5-4.1-1.5c-0.9-1-1.3-2.4-1.3-4.2c0-1.9,0.5-3.3,1.5-4.2s2.3-1.4,4.1-1.4
			c0.7,0,1.3,0,1.7,0.1s0.8,0.2,1.3,0.4v1c-0.8-0.4-1.7-0.6-2.7-0.6c-1.4,0-2.5,0.4-3.3,1.1c-0.8,0.7-1.2,1.9-1.2,3.5
			c0,1.6,0.3,2.7,1,3.5c0.7,0.8,1.8,1.1,3.4,1.1c0.5,0,1-0.1,1.5-0.2c0.5-0.1,1-0.3,1.4-0.4v1c-0.4,0.2-0.9,0.3-1.4,0.4
			C593.4,930.5,592.8,930.5,592.2,930.5z"/>
		<path class="st3" d="M597,930.3l5.6-14.7h1.6l5.5,14.7h-1.3l-1.6-4.3h-6.9l-1.6,4.3H597z M600.2,925h6.3l-3.2-8.4L600.2,925z"/>
	</g>
	<g class="st5">
		<path class="st3" d="M591.9,968.8c-0.9,2.2-2.6,4.3-5.1,5.9c-0.5,2.4-0.5,4.6,0.8,4.7c2.3,0.3,3.9-3.1,4.4-4.5
			c0.1-0.2,0.8,0,0.6,0.4c-1.3,2.9-2.7,5.6-5.5,5.2c-2.6-0.4-2.2-4-1.2-7.9c0.9-3.3,2.1-6.4,3.5-7.5
			C591.4,963.5,593.4,965.3,591.9,968.8z M588.6,969c-0.4,0.9-1,2.6-1.5,4.5c1.3-1.2,2.4-2.5,3.1-4c1-2.1,1.3-3.7,0.5-3.7
			C590.1,965.7,589.4,967,588.6,969z"/>
	</g>
	<g class="st5">
		<path class="st3" d="M593.3,980.3l5.6-14.7h1.6l5.5,14.7h-1.3l-1.6-4.3h-6.9l-1.6,4.3H593.3z M596.5,975h6.3l-3.2-8.4L596.5,975z"
			/>
	</g>
	<g class="st5">
		<path class="st3" d="M591.9,1020.8c-0.9,2.2-2.6,4.3-5.1,5.9c-0.5,2.4-0.5,4.6,0.8,4.7c2.3,0.3,3.9-3.1,4.4-4.5
			c0.1-0.2,0.8,0,0.6,0.4c-1.3,2.9-2.7,5.6-5.5,5.2c-2.6-0.4-2.2-4-1.2-7.9c0.9-3.3,2.1-6.4,3.5-7.5
			C591.4,1015.5,593.4,1017.3,591.9,1020.8z M588.6,1021c-0.4,0.9-1,2.6-1.5,4.5c1.3-1.2,2.4-2.5,3.1-4c1-2.1,1.3-3.7,0.5-3.7
			C590.1,1017.7,589.4,1019,588.6,1021z"/>
	</g>
	<g class="st5">
		<path class="st3" d="M593.3,1032.3v-0.8l8.9-12.9h-8.5v-1h10.1v0.9l-8.8,12.8h8.9v1H593.3z"/>
	</g>
	<g class="st5">
		<path class="st3" d="M592.2,460.5c-1.9,0-3.2-0.5-4.1-1.5c-0.9-1-1.3-2.4-1.3-4.2c0-1.9,0.5-3.3,1.5-4.2s2.3-1.4,4.1-1.4
			c0.7,0,1.3,0,1.7,0.1s0.8,0.2,1.3,0.4v1c-0.8-0.4-1.7-0.6-2.7-0.6c-1.4,0-2.5,0.4-3.3,1.1c-0.8,0.7-1.2,1.9-1.2,3.5
			c0,1.6,0.3,2.7,1,3.5c0.7,0.8,1.8,1.1,3.4,1.1c0.5,0,1-0.1,1.5-0.2c0.5-0.1,1-0.3,1.4-0.4v1c-0.4,0.2-0.9,0.3-1.4,0.4
			C593.4,460.5,592.8,460.5,592.2,460.5z"/>
		<path class="st3" d="M597.6,460.3v-14.7h1.3v7.8l7.5-7.8h1.5l-5.6,5.8l5.7,8.9h-1.4l-5.1-8l-2.6,2.8v5.3H597.6z"/>
	</g>
	<g class="st5">
		<path class="st3" d="M592.2,314.5c-1.9,0-3.2-0.5-4.1-1.5c-0.9-1-1.3-2.4-1.3-4.2c0-1.9,0.5-3.3,1.5-4.2s2.3-1.4,4.1-1.4
			c0.7,0,1.3,0,1.7,0.1s0.8,0.2,1.3,0.4v1c-0.8-0.4-1.7-0.6-2.7-0.6c-1.4,0-2.5,0.4-3.3,1.1c-0.8,0.7-1.2,1.9-1.2,3.5
			c0,1.6,0.3,2.7,1,3.5c0.7,0.8,1.8,1.1,3.4,1.1c0.5,0,1-0.1,1.5-0.2c0.5-0.1,1-0.3,1.4-0.4v1c-0.4,0.2-0.9,0.3-1.4,0.4
			C593.4,314.5,592.8,314.5,592.2,314.5z"/>
		<path class="st3" d="M597.6,314.3v-14.7h1.3v6.8h8.4v-6.8h1.3v14.7h-1.3v-6.8h-8.4v6.8H597.6z"/>
	</g>
	<g class="st5">
		<path class="st3" d="M592.2,262.5c-1.9,0-3.2-0.5-4.1-1.5c-0.9-1-1.3-2.4-1.3-4.2c0-1.9,0.5-3.3,1.5-4.2s2.3-1.4,4.1-1.4
			c0.7,0,1.3,0,1.7,0.1s0.8,0.2,1.3,0.4v1c-0.8-0.4-1.7-0.6-2.7-0.6c-1.4,0-2.5,0.4-3.3,1.1c-0.8,0.7-1.2,1.9-1.2,3.5
			c0,1.6,0.3,2.7,1,3.5c0.7,0.8,1.8,1.1,3.4,1.1c0.5,0,1-0.1,1.5-0.2c0.5-0.1,1-0.3,1.4-0.4v1c-0.4,0.2-0.9,0.3-1.4,0.4
			C593.4,262.5,592.8,262.5,592.2,262.5z"/>
		<path class="st3" d="M601.3,262.3v-13.7h-5.1v-1h11.4v1h-5.1v13.7H601.3z"/>
	</g>
	<g class="st5">
		<path class="st3" d="M749.9,496.8c-0.9,2.2-2.6,4.3-5.1,5.9c-0.5,2.4-0.5,4.6,0.8,4.7c2.3,0.3,3.9-3.1,4.4-4.5
			c0.1-0.2,0.8,0,0.6,0.4c-1.3,2.9-2.7,5.6-5.5,5.2c-2.6-0.4-2.2-4-1.2-7.9c0.9-3.3,2.1-6.4,3.5-7.5
			C749.4,491.5,751.4,493.3,749.9,496.8z M746.6,497c-0.4,0.9-1,2.6-1.5,4.5c1.3-1.2,2.4-2.5,3.1-4c1-2.1,1.3-3.7,0.5-3.7
			C748.1,493.7,747.4,495,746.6,497z"/>
	</g>
	<g class="st5">
		<path class="st3" d="M758.1,508.5c-1.6,0-2.8-0.3-3.8-0.9c-1-0.6-1.7-1.4-2.2-2.5s-0.7-2.3-0.7-3.8c0-1.6,0.2-3,0.7-4.2
			c0.4-1.2,1.2-2.1,2.1-2.8c1-0.7,2.3-1,3.9-1c0.8,0,1.6,0.1,2.3,0.2s1.3,0.3,1.9,0.5v1.1c-0.6-0.2-1.2-0.4-1.9-0.5
			s-1.4-0.2-2.2-0.2c-1.4,0-2.6,0.3-3.4,0.9c-0.8,0.6-1.4,1.4-1.7,2.4c-0.3,1-0.5,2.2-0.5,3.6c0,1.9,0.4,3.4,1.3,4.5
			c0.9,1.1,2.3,1.6,4.3,1.6c0.7,0,1.4-0.1,2.1-0.2c0.7-0.1,1.3-0.3,1.8-0.5v-5.2H758v-1h5.3v6.9c-0.4,0.3-1,0.5-1.9,0.8
			C760.6,508.4,759.5,508.5,758.1,508.5z"/>
	</g>
	<g class="st5">
		<path class="st3" d="M749.9,548.8c-0.9,2.2-2.6,4.3-5.1,5.9c-0.5,2.4-0.5,4.6,0.8,4.7c2.3,0.3,3.9-3.1,4.4-4.5
			c0.1-0.2,0.8,0,0.6,0.4c-1.3,2.9-2.7,5.6-5.5,5.2c-2.6-0.4-2.2-4-1.2-7.9c0.9-3.3,2.1-6.4,3.5-7.5
			C749.4,543.5,751.4,545.3,749.9,548.8z M746.6,549c-0.4,0.9-1,2.6-1.5,4.5c1.3-1.2,2.4-2.5,3.1-4c1-2.1,1.3-3.7,0.5-3.7
			C748.1,545.7,747.4,547,746.6,549z"/>
	</g>
	<g class="st5">
		<path class="st3" d="M751.8,560.3v-14.7h9.3v1h-8v5.8h7.2v1H753v6.8H751.8z"/>
	</g>
	<g class="st5">
		<path class="st3" d="M749.9,611.8c-0.9,2.2-2.6,4.3-5.1,5.9c-0.5,2.4-0.5,4.6,0.8,4.7c2.3,0.3,3.9-3.1,4.4-4.5
			c0.1-0.2,0.8,0,0.6,0.4c-1.3,2.9-2.7,5.6-5.5,5.2c-2.6-0.4-2.2-4-1.2-7.9c0.9-3.3,2.1-6.4,3.5-7.5
			C749.4,606.5,751.4,608.3,749.9,611.8z M746.6,612c-0.4,0.9-1,2.6-1.5,4.5c1.3-1.2,2.4-2.5,3.1-4c1-2.1,1.3-3.7,0.5-3.7
			C748.1,608.7,747.4,610,746.6,612z"/>
	</g>
	<g class="st5">
		<path class="st3" d="M751.8,623.3v-14.7h9.6v1H753v5.8h7.6v1H753v5.8h8.4v1H751.8z"/>
	</g>
	<g class="st5">
		<path class="st3" d="M749.9,672.8c-0.9,2.2-2.6,4.3-5.1,5.9c-0.5,2.4-0.5,4.6,0.8,4.7c2.3,0.3,3.9-3.1,4.4-4.5
			c0.1-0.2,0.8,0,0.6,0.4c-1.3,2.9-2.7,5.6-5.5,5.2c-2.6-0.4-2.2-4-1.2-7.9c0.9-3.3,2.1-6.4,3.5-7.5
			C749.4,667.5,751.4,669.3,749.9,672.8z M746.6,673c-0.4,0.9-1,2.6-1.5,4.5c1.3-1.2,2.4-2.5,3.1-4c1-2.1,1.3-3.7,0.5-3.7
			C748.1,669.7,747.4,671,746.6,673z"/>
	</g>
	<g class="st5">
		<path class="st3" d="M751.8,684.3v-14.7h5.5c1.4,0,2.6,0.3,3.4,0.8s1.5,1.3,1.9,2.4s0.6,2.5,0.6,4.3c0,2.5-0.5,4.3-1.4,5.5
			s-2.4,1.7-4.6,1.7H751.8z M753,683.3h4c1.1,0,2-0.2,2.8-0.5c0.7-0.3,1.3-1,1.6-1.8c0.4-0.9,0.5-2.2,0.5-3.9c0-1.7-0.2-3-0.5-3.9
			c-0.3-0.9-0.9-1.6-1.6-2c-0.7-0.4-1.7-0.6-2.9-0.6h-4V683.3z"/>
	</g>
	<g class="st5">
		<path class="st3" d="M749.9,720.8c-0.9,2.2-2.6,4.3-5.1,5.9c-0.5,2.4-0.5,4.6,0.8,4.7c2.3,0.3,3.9-3.1,4.4-4.5
			c0.1-0.2,0.8,0,0.6,0.4c-1.3,2.9-2.7,5.6-5.5,5.2c-2.6-0.4-2.2-4-1.2-7.9c0.9-3.3,2.1-6.4,3.5-7.5
			C749.4,715.5,751.4,717.3,749.9,720.8z M746.6,721c-0.4,0.9-1,2.6-1.5,4.5c1.3-1.2,2.4-2.5,3.1-4c1-2.1,1.3-3.7,0.5-3.7
			C748.1,717.7,747.4,719,746.6,721z"/>
	</g>
	<g class="st5">
		<path class="st3" d="M758.1,732.5c-1.6,0-2.8-0.3-3.8-0.9c-1-0.6-1.7-1.4-2.2-2.5s-0.7-2.3-0.7-3.8c0-1.6,0.2-3,0.7-4.2
			c0.4-1.2,1.2-2.1,2.1-2.8c1-0.7,2.3-1,3.9-1c0.8,0,1.6,0.1,2.3,0.2s1.3,0.3,1.9,0.5v1.1c-0.6-0.2-1.2-0.4-1.9-0.5
			s-1.4-0.2-2.2-0.2c-1.4,0-2.5,0.3-3.4,0.9c-0.8,0.6-1.4,1.4-1.7,2.4c-0.3,1-0.5,2.2-0.5,3.6c0,1.9,0.4,3.4,1.3,4.5
			c0.9,1.1,2.3,1.6,4.3,1.6c0.7,0,1.4-0.1,2.1-0.2c0.7-0.1,1.4-0.3,1.9-0.5v1.1c-0.6,0.2-1.2,0.3-1.9,0.4S758.9,732.5,758.1,732.5z"
			/>
	</g>
	<g class="st5">
		<path class="st3" d="M749.9,778.8c-0.9,2.2-2.6,4.3-5.1,5.9c-0.5,2.4-0.5,4.6,0.8,4.7c2.3,0.3,3.9-3.1,4.4-4.5
			c0.1-0.2,0.8,0,0.6,0.4c-1.3,2.9-2.7,5.6-5.5,5.2c-2.6-0.4-2.2-4-1.2-7.9c0.9-3.3,2.1-6.4,3.5-7.5
			C749.4,773.5,751.4,775.3,749.9,778.8z M746.6,779c-0.4,0.9-1,2.6-1.5,4.5c1.3-1.2,2.4-2.5,3.1-4c1-2.1,1.3-3.7,0.5-3.7
			C748.1,775.7,747.4,777,746.6,779z"/>
	</g>
	<g class="st5">
		<path class="st3" d="M751.8,790.3v-14.7h6.5c1.4,0,2.5,0.3,3.1,1c0.6,0.7,1,1.6,1,2.8c0,0.8-0.2,1.5-0.5,2.1
			c-0.3,0.5-0.8,1-1.4,1.2c0.8,0.2,1.4,0.5,1.8,1.1c0.5,0.5,0.7,1.3,0.7,2.4c0,1.4-0.4,2.5-1.1,3.1c-0.7,0.7-1.8,1-3.2,1H751.8z
			 M753.1,782.2h5.3c1,0,1.8-0.3,2.2-0.8s0.6-1.2,0.6-2c0-0.9-0.2-1.7-0.7-2.2c-0.4-0.5-1.3-0.7-2.5-0.7h-4.9V782.2z M753.1,789.3
			h5.5c1.1,0,1.9-0.2,2.4-0.7c0.5-0.5,0.8-1.3,0.8-2.5c0-0.9-0.2-1.7-0.7-2.2c-0.5-0.5-1.4-0.7-2.8-0.7h-5.2V789.3z"/>
	</g>
	<g class="st5">
		<path class="st3" d="M766.3,782.7v-8l-1.3,0.2v-0.6l2.1-0.3v8.7H766.3z"/>
	</g>
	<g class="st5">
		<path class="st3" d="M749.9,831.8c-0.9,2.2-2.6,4.3-5.1,5.9c-0.5,2.4-0.5,4.6,0.8,4.7c2.3,0.3,3.9-3.1,4.4-4.5
			c0.1-0.2,0.8,0,0.6,0.4c-1.3,2.9-2.7,5.6-5.5,5.2c-2.6-0.4-2.2-4-1.2-7.9c0.9-3.3,2.1-6.4,3.5-7.5
			C749.4,826.5,751.4,828.3,749.9,831.8z M746.6,832c-0.4,0.9-1,2.6-1.5,4.5c1.3-1.2,2.4-2.5,3.1-4c1-2.1,1.3-3.7,0.5-3.7
			C748.1,828.7,747.4,830,746.6,832z"/>
	</g>
	<g class="st5">
		<path class="st3" d="M751.8,843.3v-14.7h6.5c1.4,0,2.5,0.3,3.1,1c0.6,0.7,1,1.6,1,2.8c0,0.8-0.2,1.5-0.5,2.1
			c-0.3,0.5-0.8,1-1.4,1.2c0.8,0.2,1.4,0.5,1.8,1.1c0.5,0.5,0.7,1.3,0.7,2.4c0,1.4-0.4,2.5-1.1,3.1c-0.7,0.7-1.8,1-3.2,1H751.8z
			 M753,835.2h5.3c1,0,1.8-0.3,2.2-0.8s0.6-1.2,0.6-2c0-0.9-0.2-1.7-0.7-2.2c-0.4-0.5-1.3-0.7-2.5-0.7H753V835.2z M753,842.3h5.5
			c1.1,0,1.9-0.2,2.4-0.7c0.5-0.5,0.8-1.3,0.8-2.5c0-0.9-0.2-1.7-0.7-2.2c-0.5-0.5-1.4-0.7-2.8-0.7H753V842.3z"/>
	</g>
	<g class="st5">
		<path class="st3" d="M749.9,968.8c-0.9,2.2-2.6,4.3-5.1,5.9c-0.5,2.4-0.5,4.6,0.8,4.7c2.3,0.3,3.9-3.1,4.4-4.5
			c0.1-0.2,0.8,0,0.6,0.4c-1.3,2.9-2.7,5.6-5.5,5.2c-2.6-0.4-2.2-4-1.2-7.9c0.9-3.3,2.1-6.4,3.5-7.5
			C749.4,963.5,751.4,965.3,749.9,968.8z M746.6,969c-0.4,0.9-1,2.6-1.5,4.5c1.3-1.2,2.4-2.5,3.1-4c1-2.1,1.3-3.7,0.5-3.7
			C748.1,965.7,747.4,967,746.6,969z"/>
	</g>
	<g class="st5">
		<path class="st3" d="M751.3,980.3l5.6-14.7h1.6l5.5,14.7h-1.3l-1.6-4.3h-6.9l-1.6,4.3H751.3z M754.5,975h6.3l-3.2-8.4L754.5,975z"
			/>
	</g>
	<g class="st5">
		<path class="st3" d="M749.9,1020.8c-0.9,2.2-2.6,4.3-5.1,5.9c-0.5,2.4-0.5,4.6,0.8,4.7c2.3,0.3,3.9-3.1,4.4-4.5
			c0.1-0.2,0.8,0,0.6,0.4c-1.3,2.9-2.7,5.6-5.5,5.2c-2.6-0.4-2.2-4-1.2-7.9c0.9-3.3,2.1-6.4,3.5-7.5
			C749.4,1015.5,751.4,1017.3,749.9,1020.8z M746.6,1021c-0.4,0.9-1,2.6-1.5,4.5c1.3-1.2,2.4-2.5,3.1-4c1-2.1,1.3-3.7,0.5-3.7
			C748.1,1017.7,747.4,1019,746.6,1021z"/>
	</g>
	<g class="st5">
		<path class="st3" d="M751.3,1032.3v-0.8l8.9-12.9h-8.5v-1h10.1v0.9l-8.8,12.8h8.9v1H751.3z"/>
	</g>
	<g class="st5">
		<path class="st3" d="M749.9,302.8c-0.9,2.2-2.6,4.3-5.1,5.9c-0.5,2.4-0.5,4.6,0.8,4.7c2.3,0.3,3.9-3.1,4.4-4.5
			c0.1-0.2,0.8,0,0.6,0.4c-1.3,2.9-2.7,5.6-5.5,5.2c-2.6-0.4-2.2-4-1.2-7.9c0.9-3.3,2.1-6.4,3.5-7.5
			C749.4,297.5,751.4,299.3,749.9,302.8z M746.6,303c-0.4,0.9-1,2.6-1.5,4.5c1.3-1.2,2.4-2.5,3.1-4c1-2.1,1.3-3.7,0.5-3.7
			C748.1,299.7,747.4,301,746.6,303z"/>
	</g>
	<g class="st5">
		<path class="st3" d="M751.8,314.3v-14.7h1.3v6.8h8.4v-6.8h1.3v14.7h-1.3v-6.8H753v6.8H751.8z"/>
	</g>
	<g class="st5">
		<path class="st3" d="M749.9,250.8c-0.9,2.2-2.6,4.3-5.1,5.9c-0.5,2.4-0.5,4.6,0.8,4.7c2.3,0.3,3.9-3.1,4.4-4.5
			c0.1-0.2,0.8,0,0.6,0.4c-1.3,2.9-2.7,5.6-5.5,5.2c-2.6-0.4-2.2-4-1.2-7.9c0.9-3.3,2.1-6.4,3.5-7.5
			C749.4,245.5,751.4,247.3,749.9,250.8z M746.6,251c-0.4,0.9-1,2.6-1.5,4.5c1.3-1.2,2.4-2.5,3.1-4c1-2.1,1.3-3.7,0.5-3.7
			C748.1,247.7,747.4,249,746.6,251z"/>
	</g>
	<g class="st5">
		<path class="st3" d="M755.9,262.3v-13.7h-5.1v-1h11.4v1h-5.1v13.7H755.9z"/>
	</g>
	<g class="st5">
		<path class="st3" d="M745.3,205.3v-15.4h1.3v5.9c0.5-0.5,1.1-0.8,1.8-1.1c0.7-0.3,1.5-0.4,2.5-0.4c1.3,0,2.3,0.3,2.9,0.9
			c0.6,0.6,0.9,1.6,0.9,3v7.1h-1.3v-7.1c0-1.1-0.2-1.8-0.7-2.2c-0.4-0.4-1.3-0.6-2.4-0.6c-0.7,0-1.5,0.1-2.1,0.4
			c-0.7,0.3-1.2,0.7-1.7,1.2v8.4H745.3z"/>
		<path class="st3" d="M758.8,205.3v-9.8h-1.7l0.1-1h2.8v10.8H758.8z M758.7,191.7v-1.4h1.4v1.4H758.7z"/>
		<path class="st3" d="M763.5,205.3v-10.8h1.1l0.1,1.3c0.5-0.5,1.2-0.8,1.9-1.1s1.5-0.4,2.5-0.4c1.4,0,2.3,0.3,2.9,0.9
			c0.6,0.6,0.9,1.6,0.9,3v7.1h-1.3v-7.1c0-1.1-0.2-1.8-0.7-2.2s-1.3-0.6-2.5-0.6c-0.8,0-1.5,0.1-2.1,0.4c-0.6,0.3-1.2,0.7-1.7,1.1
			v8.4H763.5z"/>
		<path class="st3" d="M780.1,205.5c-1,0-1.7-0.3-2.2-0.8c-0.5-0.5-0.8-1.3-0.8-2.2v-7h-1.7v-1h1.7v-2.8l1.3-0.4v3.2h3.1l-0.1,1
			h-3.1v6.9c0,0.7,0.2,1.2,0.5,1.6s0.9,0.5,1.6,0.5c0.2,0,0.4,0,0.6-0.1c0.2,0,0.5-0.1,0.7-0.2v1
			C781.3,205.4,780.7,205.5,780.1,205.5z"/>
		<path class="st3" d="M789.3,205.5c-1.9,0-3.4-0.5-4.3-1.4c-0.9-0.9-1.3-2.4-1.3-4.3c0-1.7,0.4-3.1,1.2-4.1c0.8-1,2.1-1.5,3.8-1.5
			c1.1,0,1.9,0.2,2.6,0.6s1.1,0.9,1.5,1.6c0.3,0.7,0.5,1.4,0.5,2.2v2H785c0.1,1.4,0.4,2.4,1.1,3c0.7,0.6,1.8,0.9,3.5,0.9
			c1,0,2-0.2,2.9-0.6v1C791.6,205.3,790.5,205.5,789.3,205.5z M785,199.6h7.1v-1c0-1-0.3-1.8-0.8-2.4c-0.5-0.6-1.4-0.9-2.5-0.9
			c-1.4,0-2.4,0.4-3,1.1S785,198.2,785,199.6z"/>
		<path class="st3" d="M796.4,205.3v-10.8h1.1l0.1,1.3c0.5-0.5,1.2-0.8,1.9-1.1s1.5-0.4,2.5-0.4c1.4,0,2.3,0.3,2.9,0.9
			c0.6,0.6,0.9,1.6,0.9,3v7.1h-1.3v-7.1c0-1.1-0.2-1.8-0.7-2.2s-1.3-0.6-2.5-0.6c-0.8,0-1.5,0.1-2.1,0.4c-0.6,0.3-1.2,0.7-1.7,1.1
			v8.4H796.4z"/>
	</g>
	<g class="st5">
		<path class="st3" d="M749.1,144.3l-4.2-10.8h1.3l3.7,9.8l3.7-9.8h1.3l-4.2,10.8H749.1z"/>
		<path class="st3" d="M761.2,144.5c-1.8,0-3.1-0.5-3.9-1.4s-1.2-2.4-1.2-4.2c0-1.8,0.4-3.2,1.2-4.2c0.8-1,2.1-1.4,3.9-1.4
			c1.8,0,3.1,0.5,4,1.4c0.8,1,1.2,2.4,1.2,4.2c0,1.8-0.4,3.2-1.2,4.2S763,144.5,761.2,144.5z M761.2,143.4c1.4,0,2.5-0.4,3-1.1
			c0.6-0.7,0.9-1.9,0.9-3.4c0-1.5-0.3-2.7-0.9-3.4c-0.6-0.7-1.6-1.1-3-1.1s-2.4,0.4-3,1.1c-0.6,0.7-0.9,1.9-0.9,3.4
			c0,1.6,0.3,2.7,0.9,3.4C758.8,143.1,759.8,143.4,761.2,143.4z"/>
		<path class="st3" d="M769.4,144.3v-10.8h1.1l0.1,1.5c0.6-0.4,1.2-0.7,1.9-1c0.7-0.3,1.4-0.5,2.1-0.7v1c-0.4,0.1-0.9,0.3-1.4,0.4
			c-0.5,0.2-1,0.4-1.5,0.6c-0.5,0.2-0.8,0.4-1.2,0.7v8.3H769.4z"/>
		<path class="st3" d="M777,144.3v-10.8h1.1l0.1,1.3c0.5-0.5,1.2-0.8,1.9-1.1s1.5-0.4,2.5-0.4c1.4,0,2.3,0.3,2.9,0.9
			c0.6,0.6,0.9,1.6,0.9,3v7.1h-1.3v-7.1c0-1.1-0.2-1.8-0.7-2.2s-1.3-0.6-2.5-0.6c-0.8,0-1.5,0.1-2.1,0.4c-0.6,0.3-1.2,0.7-1.7,1.1
			v8.4H777z"/>
	</g>
	<g class="st5">
		<path class="st3" d="M735.2,368.3v-14.7h1.9v13.2h7.8v1.5H735.2z"/>
		<path class="st3" d="M750.5,368.5c-0.7,0-1.3-0.1-1.9-0.4s-1-0.6-1.4-1.1c-0.3-0.5-0.5-1.1-0.5-1.8c0-1,0.3-1.8,1-2.4
			c0.7-0.6,1.7-0.9,3.2-0.9h3.8v-0.7c0-0.6-0.1-1.1-0.2-1.4c-0.2-0.3-0.5-0.6-0.9-0.8s-1.1-0.2-1.9-0.2c-0.7,0-1.3,0.1-1.9,0.2
			c-0.6,0.1-1.2,0.3-1.7,0.4v-1.6c0.5-0.2,1.1-0.3,1.7-0.4s1.4-0.2,2.1-0.2c1.5,0,2.7,0.3,3.5,0.9c0.8,0.6,1.2,1.6,1.2,3v7.1h-1.6
			l-0.1-1.2c-0.5,0.5-1,0.9-1.7,1.1S751.5,368.5,750.5,368.5z M751,367c0.8,0,1.5-0.1,2.1-0.4c0.6-0.3,1.1-0.7,1.6-1.2v-2.1h-3.7
			c-0.9,0-1.5,0.2-1.8,0.5s-0.5,0.8-0.5,1.5s0.2,1.1,0.7,1.4S750.3,367,751,367z M749.2,355.8v-1.7h1.8v1.7H749.2z M753.2,355.8
			v-1.7h1.8v1.7H753.2z"/>
		<path class="st3" d="M759.5,368.3v-10.8h1.7l0.1,1.2c0.5-0.4,1.1-0.8,1.8-1c0.7-0.3,1.5-0.4,2.4-0.4c1.4,0,2.4,0.3,3,1
			c0.6,0.6,0.9,1.6,0.9,3v7.1h-1.9v-7c0-0.9-0.2-1.6-0.6-2c-0.4-0.4-1.1-0.6-2.2-0.6c-0.7,0-1.3,0.1-1.9,0.4s-1.1,0.6-1.5,1v8.2
			H759.5z"/>
		<path class="st3" d="M776.7,372.3c-0.8,0-1.6,0-2.4-0.1c-0.8-0.1-1.4-0.2-2-0.4v-1.6c0.6,0.2,1.3,0.4,2.1,0.5s1.5,0.2,2.2,0.2
			c1.1,0,2-0.1,2.5-0.2c0.5-0.1,0.8-0.5,0.8-1c0-0.4-0.1-0.7-0.4-0.8c-0.3-0.2-0.8-0.3-1.5-0.3h-2.9c-2,0-3-0.7-3-2
			c0-0.4,0.1-0.9,0.4-1.3c0.3-0.4,0.7-0.7,1.3-0.9c-0.6-0.3-1.1-0.7-1.3-1.3c-0.3-0.5-0.4-1.2-0.4-1.9c0-1.4,0.4-2.3,1.2-3
			c0.8-0.6,2-0.9,3.6-0.9c0.3,0,0.7,0,1,0.1c0.4,0.1,0.6,0.1,0.8,0.1h3.9l-0.1,1.3h-2c0.4,0.3,0.6,0.6,0.8,1
			c0.2,0.4,0.2,0.8,0.2,1.3c0,1.2-0.4,2.1-1.1,2.8c-0.7,0.7-1.8,1-3.2,1c-0.2,0-0.5,0-0.7,0c-0.2,0-0.4,0-0.7-0.1
			c-0.5,0-0.9,0.1-1.3,0.4c-0.4,0.3-0.6,0.6-0.6,1c0,0.3,0.1,0.4,0.3,0.6c0.2,0.1,0.6,0.2,1.1,0.2h3c1.1,0,1.9,0.2,2.5,0.7
			c0.6,0.4,0.9,1.1,0.9,1.9c0,1.1-0.4,1.8-1.3,2.2S778.4,372.3,776.7,372.3z M776.8,363.5c1.1,0,1.8-0.2,2.2-0.5
			c0.4-0.3,0.6-1,0.6-1.8s-0.2-1.5-0.7-1.9c-0.4-0.4-1.2-0.6-2.2-0.6c-1,0-1.8,0.2-2.2,0.6c-0.5,0.4-0.7,1-0.7,1.9
			c0,0.8,0.2,1.4,0.7,1.8C775,363.3,775.8,363.5,776.8,363.5z"/>
		<path class="st3" d="M789.9,368.5c-1.9,0-3.4-0.5-4.3-1.4s-1.4-2.4-1.4-4.3c0-1.7,0.4-3.1,1.2-4.1c0.8-1,2.1-1.5,3.9-1.5
			c1.1,0,1.9,0.2,2.6,0.6s1.2,0.9,1.6,1.6c0.3,0.7,0.5,1.4,0.5,2.3v2h-8c0.1,0.8,0.2,1.5,0.5,1.9s0.7,0.8,1.3,1
			c0.6,0.2,1.4,0.3,2.4,0.3c1.1,0,2.1-0.2,3.1-0.6v1.5c-0.5,0.2-1,0.3-1.6,0.5C791.1,368.5,790.5,368.5,789.9,368.5z M786,362.4h6.3
			v-0.9c0-0.9-0.2-1.6-0.7-2c-0.5-0.5-1.2-0.7-2.3-0.7c-1.3,0-2.2,0.3-2.6,0.9S786,361.2,786,362.4z"/>
		<path class="st3" d="M796.7,368.3v-10.8h1.7l0.1,1.2c0.5-0.4,1.1-0.8,1.8-1c0.7-0.3,1.5-0.4,2.4-0.4c1.4,0,2.4,0.3,3,1
			c0.6,0.6,0.9,1.6,0.9,3v7.1h-1.9v-7c0-0.9-0.2-1.6-0.6-2c-0.4-0.4-1.1-0.6-2.2-0.6c-0.7,0-1.3,0.1-1.9,0.4s-1.1,0.6-1.5,1v8.2
			H796.7z"/>
		<path class="st3" d="M809.7,368.3v-10.8h1.7l0.1,1.2c0.6-0.5,1.2-0.8,1.8-1.1s1.3-0.4,2.1-0.4c0.8,0,1.4,0.1,1.9,0.4
			c0.4,0.3,0.8,0.6,1,1.1c0.5-0.4,1.1-0.8,1.8-1.1c0.7-0.3,1.5-0.4,2.4-0.4c1.2,0,2.1,0.3,2.8,0.9s0.9,1.6,0.9,2.9v7.2h-1.8v-7
			c0-1-0.2-1.6-0.6-2c-0.4-0.4-1.1-0.5-2-0.5c-0.6,0-1.2,0.1-1.7,0.3c-0.5,0.2-1,0.5-1.4,0.9c0.1,0.4,0.1,0.8,0.1,1.3v7h-1.8v-7
			c0-0.9-0.2-1.6-0.5-2c-0.3-0.4-0.9-0.6-1.8-0.6c-0.6,0-1.2,0.1-1.7,0.4s-1,0.6-1.5,1v8.1H809.7z"/>
		<path class="st3" d="M832.3,368.5c-0.7,0-1.3-0.1-1.9-0.4c-0.6-0.2-1-0.6-1.4-1.1c-0.4-0.5-0.5-1.1-0.5-1.8c0-1,0.3-1.8,1-2.4
			c0.7-0.6,1.7-0.9,3.2-0.9h3.8v-0.7c0-0.6-0.1-1.1-0.2-1.4c-0.2-0.3-0.5-0.6-0.9-0.8s-1.1-0.2-1.9-0.2c-0.7,0-1.3,0.1-1.9,0.2
			c-0.6,0.1-1.2,0.3-1.7,0.4v-1.6c0.5-0.2,1.1-0.3,1.7-0.4s1.4-0.2,2.1-0.2c1.5,0,2.7,0.3,3.5,0.9c0.8,0.6,1.2,1.6,1.2,3v7.1h-1.6
			l-0.1-1.2c-0.5,0.5-1,0.9-1.7,1.1C834.1,368.4,833.3,368.5,832.3,368.5z M832.7,367c0.8,0,1.5-0.1,2.1-0.4
			c0.6-0.3,1.1-0.7,1.6-1.2v-2.1h-3.7c-0.9,0-1.5,0.2-1.8,0.5s-0.5,0.8-0.5,1.5s0.2,1.1,0.7,1.4S832,367,832.7,367z"/>
		<path class="st3" d="M848.2,368.5c-1.3,0-2.4-0.2-3.3-0.5v-1.6c0.4,0.2,0.9,0.3,1.4,0.4c0.5,0.1,1,0.1,1.6,0.1
			c0.9,0,1.7-0.3,2.2-0.8c0.5-0.5,0.8-1.3,0.8-2.2c0-0.9-0.2-1.7-0.7-2.2s-1.3-0.8-2.5-0.8h-1.9v-1.4h1.9c1,0,1.6-0.3,2-0.8
			c0.4-0.5,0.6-1.2,0.6-2c0-0.6-0.1-1.1-0.3-1.5c-0.2-0.4-0.6-0.8-1.1-1c-0.5-0.2-1.3-0.4-2.3-0.4c-2.5,0-3.7,1.3-3.7,3.8v10.6h-1.9
			v-10.7c0-1.1,0.2-2,0.7-2.8s1.1-1.4,1.9-1.8s1.8-0.7,3-0.7c1.2,0,2.3,0.2,3.1,0.6c0.8,0.4,1.4,0.9,1.8,1.6
			c0.4,0.7,0.6,1.4,0.6,2.2c0,0.8-0.2,1.6-0.5,2.2c-0.4,0.6-0.8,1-1.4,1.3c0.8,0.2,1.4,0.7,1.8,1.3c0.5,0.6,0.7,1.5,0.7,2.5
			c0,1.4-0.4,2.5-1.2,3.3C850.9,368.1,849.7,368.5,848.2,368.5z"/>
		<path class="st3" d="M860.9,368.5c-1.9,0-3.4-0.5-4.3-1.4s-1.4-2.4-1.4-4.3c0-1.7,0.4-3.1,1.2-4.1c0.8-1,2.1-1.5,3.9-1.5
			c1.1,0,1.9,0.2,2.6,0.6s1.2,0.9,1.6,1.6c0.3,0.7,0.5,1.4,0.5,2.3v2h-8c0.1,0.8,0.2,1.5,0.5,1.9s0.7,0.8,1.3,1
			c0.6,0.2,1.4,0.3,2.4,0.3c1.1,0,2.1-0.2,3.1-0.6v1.5c-0.5,0.2-1,0.3-1.6,0.5S861.5,368.5,860.9,368.5z M857,362.4h6.3v-0.9
			c0-0.9-0.2-1.6-0.7-2c-0.5-0.5-1.2-0.7-2.3-0.7c-1.3,0-2.2,0.3-2.6,0.9C857.2,360.3,857,361.2,857,362.4z"/>
	</g>
	<g class="st5">
		<path class="st3" d="M735.2,395.7V381h6.8c1.4,0,2.5,0.3,3.2,1c0.7,0.7,1,1.6,1,2.9c0,0.8-0.2,1.5-0.5,2c-0.3,0.5-0.8,0.9-1.4,1.2
			c0.7,0.2,1.3,0.5,1.8,1.1s0.7,1.3,0.7,2.3c0,1.4-0.4,2.5-1.1,3.2c-0.7,0.7-1.8,1-3.3,1H735.2z M737.1,387.4h4.8
			c0.9,0,1.6-0.2,2-0.7c0.4-0.4,0.6-1,0.6-1.7c0-0.9-0.2-1.5-0.6-1.9c-0.4-0.4-1.2-0.7-2.3-0.7h-4.5V387.4z M737.1,394.3h5
			c1,0,1.7-0.2,2.2-0.7c0.5-0.4,0.7-1.2,0.7-2.2c0-0.9-0.2-1.5-0.7-1.9c-0.4-0.4-1.3-0.7-2.5-0.7h-4.7V394.3z"/>
		<path class="st3" d="M754.8,395.9c-1.9,0-3.4-0.5-4.3-1.4s-1.4-2.4-1.4-4.3c0-1.7,0.4-3.1,1.2-4.1c0.8-1,2.1-1.5,3.9-1.5
			c1.1,0,1.9,0.2,2.6,0.6s1.2,0.9,1.6,1.6c0.3,0.7,0.5,1.4,0.5,2.3v2h-8c0.1,0.8,0.2,1.5,0.5,1.9s0.7,0.8,1.3,1
			c0.6,0.2,1.4,0.3,2.4,0.3c1.1,0,2.1-0.2,3.1-0.6v1.5c-0.5,0.2-1,0.3-1.6,0.5S755.5,395.9,754.8,395.9z M750.9,389.8h6.3v-0.9
			c0-0.9-0.2-1.6-0.7-2c-0.5-0.5-1.2-0.7-2.3-0.7c-1.3,0-2.2,0.3-2.6,0.9C751.1,387.7,750.9,388.6,750.9,389.8z"/>
		<path class="st3" d="M762.4,395.7v-9.3h-1.7l0.2-1.5h3.4v10.8H762.4z M762.2,382.3v-1.7h2.1v1.7H762.2z"/>
		<path class="st3" d="M767.5,395.7v-10.8h1.7l0.1,1.2c0.5-0.4,1.1-0.8,1.8-1c0.7-0.3,1.5-0.4,2.4-0.4c1.4,0,2.4,0.3,3,1
			c0.6,0.6,0.9,1.6,0.9,3v7.1h-1.9v-7c0-0.9-0.2-1.6-0.6-2c-0.4-0.4-1.1-0.6-2.2-0.6c-0.7,0-1.3,0.1-1.9,0.4s-1.1,0.6-1.5,1v8.2
			H767.5z"/>
	</g>
	<g class="st5">
		<path class="st3" d="M734.7,49.2V34.5h1.9v13.2h7.8v1.5H734.7z"/>
		<path class="st3" d="M751.2,49.4c-1.9,0-3.4-0.5-4.3-1.4s-1.4-2.4-1.4-4.3c0-1.7,0.4-3.1,1.2-4.1c0.8-1,2.1-1.5,3.9-1.5
			c1.1,0,1.9,0.2,2.6,0.6s1.2,0.9,1.6,1.6c0.3,0.7,0.5,1.4,0.5,2.3v2h-8c0.1,0.8,0.2,1.5,0.5,1.9s0.7,0.8,1.3,1
			c0.6,0.2,1.4,0.3,2.4,0.3c1.1,0,2.1-0.2,3.1-0.6v1.5c-0.5,0.2-1,0.3-1.6,0.5C752.4,49.4,751.8,49.4,751.2,49.4z M747.3,43.3h6.3
			v-0.9c0-0.9-0.2-1.6-0.7-2c-0.5-0.5-1.2-0.7-2.3-0.7c-1.3,0-2.2,0.3-2.6,0.9S747.3,42.1,747.3,43.3z"/>
		<path class="st3" d="M758.8,49.2v-9.3h-1.7l0.2-1.5h3.4v10.8H758.8z M758.6,35.8v-1.7h2.1v1.7H758.6z"/>
		<path class="st3" d="M769.4,49.4c-0.8,0-1.5-0.1-2.1-0.3c-0.6-0.2-1.2-0.6-1.7-1l-0.1,1.1h-1.6V33.8h1.9v5.4c1-0.7,2.2-1,3.6-1
			c1.5,0,2.7,0.4,3.6,1.3c0.9,0.9,1.3,2.3,1.3,4.2c0,2-0.4,3.4-1.3,4.3C772.1,49,770.9,49.4,769.4,49.4z M768.9,47.9
			c1.3,0,2.2-0.3,2.7-1c0.5-0.7,0.8-1.8,0.8-3.2c0-1.5-0.3-2.5-0.9-3.1c-0.6-0.6-1.5-0.9-2.7-0.9c-0.7,0-1.2,0.1-1.8,0.3
			c-0.5,0.2-1,0.5-1.3,0.8v5.9c0.4,0.4,0.9,0.8,1.4,1C767.7,47.8,768.2,47.9,768.9,47.9z"/>
		<path class="st3" d="M780.9,49.4c-1.1,0-1.9-0.3-2.4-0.9c-0.5-0.6-0.8-1.4-0.8-2.4v-6.3h-1.6v-1.5h1.6v-2.7l1.9-0.6v3.2h3
			l-0.1,1.5h-2.9v6.2c0,0.7,0.1,1.1,0.4,1.4c0.3,0.3,0.8,0.4,1.5,0.4c0.4,0,0.8-0.1,1.3-0.2v1.4C782.3,49.3,781.7,49.4,780.9,49.4z"
			/>
		<path class="st3" d="M790.4,49.4c-1.9,0-3.4-0.5-4.3-1.4s-1.4-2.4-1.4-4.3c0-1.7,0.4-3.1,1.2-4.1c0.8-1,2.1-1.5,3.9-1.5
			c1.1,0,1.9,0.2,2.6,0.6s1.2,0.9,1.6,1.6c0.3,0.7,0.5,1.4,0.5,2.3v2h-8c0.1,0.8,0.2,1.5,0.5,1.9s0.7,0.8,1.3,1
			c0.6,0.2,1.4,0.3,2.4,0.3c1.1,0,2.1-0.2,3.1-0.6v1.5c-0.5,0.2-1,0.3-1.6,0.5S791,49.4,790.4,49.4z M786.4,43.3h6.3v-0.9
			c0-0.9-0.2-1.6-0.7-2c-0.5-0.5-1.2-0.7-2.3-0.7c-1.3,0-2.2,0.3-2.6,0.9C786.7,41.2,786.4,42.1,786.4,43.3z"/>
		<path class="st3" d="M798,49.2v-9.3h-1.7l0.2-1.5h3.4v10.8H798z M797.8,35.8v-1.7h2.1v1.7H797.8z"/>
		<path class="st3" d="M805.4,49.4c-0.7,0-1.3-0.2-1.7-0.6c-0.4-0.4-0.6-1-0.6-2V33.8h1.9v12.9c0,0.5,0.1,0.8,0.2,0.9
			c0.2,0.2,0.4,0.3,0.7,0.3c0.4,0,0.7,0,1-0.1v1.5c-0.2,0.1-0.5,0.2-0.7,0.2S805.7,49.4,805.4,49.4z"/>
		<path class="st3" d="M810.8,49.4c-0.7,0-1.3-0.2-1.7-0.6c-0.4-0.4-0.6-1-0.6-2V33.8h1.9v12.9c0,0.5,0.1,0.8,0.2,0.9
			c0.2,0.2,0.4,0.3,0.7,0.3c0.3,0,0.7,0,1-0.1v1.5c-0.2,0.1-0.5,0.2-0.7,0.2C811.3,49.4,811.1,49.4,810.8,49.4z"/>
		<path class="st3" d="M817.8,49.4c-0.7,0-1.3-0.1-1.9-0.4s-1-0.6-1.4-1.1c-0.3-0.5-0.5-1.1-0.5-1.8c0-1,0.3-1.8,1-2.4
			c0.7-0.6,1.7-0.9,3.2-0.9h3.8v-0.7c0-0.6-0.1-1.1-0.2-1.4c-0.2-0.3-0.5-0.6-0.9-0.8s-1.1-0.2-1.9-0.2c-0.7,0-1.3,0.1-1.9,0.2
			c-0.6,0.1-1.2,0.3-1.7,0.4v-1.6c0.5-0.2,1.1-0.3,1.7-0.4s1.4-0.2,2.1-0.2c1.5,0,2.7,0.3,3.5,0.9c0.8,0.6,1.2,1.6,1.2,3v7.1h-1.6
			L822,48c-0.5,0.5-1,0.9-1.7,1.1S818.8,49.4,817.8,49.4z M818.3,47.9c0.8,0,1.5-0.1,2.1-0.4c0.6-0.3,1.1-0.7,1.6-1.2v-2.1h-3.7
			c-0.9,0-1.5,0.2-1.8,0.5s-0.5,0.8-0.5,1.5s0.2,1.1,0.7,1.4S817.6,47.9,818.3,47.9z M816.5,36.7V35h1.8v1.7H816.5z M820.6,36.7V35
			h1.8v1.7H820.6z"/>
		<path class="st3" d="M826.8,49.2V38.4h1.7l0.1,1.2c0.5-0.4,1.1-0.8,1.8-1c0.7-0.3,1.5-0.4,2.4-0.4c1.4,0,2.4,0.3,3,1
			c0.6,0.6,0.9,1.6,0.9,3v7.1h-1.9v-7c0-0.9-0.2-1.6-0.6-2c-0.4-0.4-1.1-0.6-2.2-0.6c-0.7,0-1.3,0.1-1.9,0.4c-0.6,0.2-1.1,0.6-1.5,1
			v8.2H826.8z"/>
		<path class="st3" d="M844,53.2c-0.8,0-1.6,0-2.4-0.1c-0.8-0.1-1.4-0.2-2-0.4v-1.6c0.6,0.2,1.3,0.4,2.1,0.5s1.5,0.2,2.2,0.2
			c1.1,0,2-0.1,2.5-0.2c0.5-0.1,0.8-0.5,0.8-1c0-0.4-0.1-0.7-0.4-0.8c-0.3-0.2-0.8-0.3-1.5-0.3h-2.9c-2,0-3-0.7-3-2
			c0-0.4,0.1-0.9,0.4-1.3c0.3-0.4,0.7-0.7,1.3-0.9c-0.6-0.3-1.1-0.7-1.3-1.3c-0.3-0.5-0.4-1.2-0.4-1.9c0-1.4,0.4-2.3,1.2-3
			c0.8-0.6,2-0.9,3.6-0.9c0.3,0,0.7,0,1,0.1c0.4,0.1,0.6,0.1,0.8,0.1h3.9l-0.1,1.3h-2c0.4,0.3,0.6,0.6,0.8,1
			c0.2,0.4,0.2,0.8,0.2,1.3c0,1.2-0.4,2.1-1.1,2.8c-0.7,0.7-1.8,1-3.2,1c-0.2,0-0.5,0-0.7,0c-0.2,0-0.4,0-0.7-0.1
			c-0.5,0-0.9,0.1-1.3,0.4c-0.4,0.3-0.6,0.6-0.6,1c0,0.3,0.1,0.4,0.3,0.6c0.2,0.1,0.6,0.2,1.1,0.2h3c1.1,0,1.9,0.2,2.5,0.7
			c0.6,0.4,0.9,1.1,0.9,1.9c0,1.1-0.4,1.8-1.3,2.2S845.7,53.2,844,53.2z M844.2,44.4c1.1,0,1.8-0.2,2.2-0.5c0.4-0.3,0.6-1,0.6-1.8
			s-0.2-1.5-0.7-1.9c-0.4-0.4-1.2-0.6-2.2-0.6c-1,0-1.8,0.2-2.2,0.6c-0.5,0.4-0.7,1-0.7,1.9c0,0.8,0.2,1.4,0.7,1.8
			C842.3,44.2,843.1,44.4,844.2,44.4z"/>
		<path class="st3" d="M857.2,49.4c-1.9,0-3.4-0.5-4.3-1.4s-1.4-2.4-1.4-4.3c0-1.7,0.4-3.1,1.2-4.1c0.8-1,2.1-1.5,3.9-1.5
			c1.1,0,1.9,0.2,2.6,0.6s1.2,0.9,1.6,1.6c0.3,0.7,0.5,1.4,0.5,2.3v2h-8c0.1,0.8,0.2,1.5,0.5,1.9s0.7,0.8,1.3,1
			c0.6,0.2,1.4,0.3,2.4,0.3c1.1,0,2.1-0.2,3.1-0.6v1.5c-0.5,0.2-1,0.3-1.6,0.5C858.4,49.4,857.8,49.4,857.2,49.4z M853.3,43.3h6.3
			v-0.9c0-0.9-0.2-1.6-0.7-2c-0.5-0.5-1.2-0.7-2.3-0.7c-1.3,0-2.2,0.3-2.6,0.9S853.3,42.1,853.3,43.3z"/>
	</g>
	<g class="st5">
		<path class="st3" d="M575.2,49.4c-2,0-3.6-0.5-4.7-1.5c-1.1-1-1.7-2.4-1.7-4.2v-9.2h2.5v9.2c0,1.2,0.3,2.2,1,2.8
			c0.7,0.6,1.6,0.9,2.9,0.9c1.2,0,2.2-0.3,2.9-0.9c0.7-0.6,1-1.5,1-2.8v-9.2h2.5v9.2c0,1.8-0.6,3.2-1.7,4.2
			C578.8,48.9,577.3,49.4,575.2,49.4z"/>
		<path class="st3" d="M584.4,49.2V38.4h2.3l0.1,1.1c0.5-0.4,1.1-0.8,1.8-1c0.6-0.2,1.3-0.4,2.1-0.4c0.8,0,1.4,0.1,1.8,0.4
			c0.4,0.3,0.8,0.6,1,1c0.5-0.4,1.1-0.7,1.7-1c0.7-0.3,1.4-0.4,2.4-0.4c1.2,0,2.2,0.3,2.8,1c0.6,0.6,0.9,1.6,0.9,2.9v7.1h-2.4v-6.9
			c0-0.8-0.2-1.4-0.5-1.8c-0.4-0.3-0.9-0.5-1.7-0.5c-0.5,0-1,0.1-1.5,0.3c-0.5,0.2-0.9,0.5-1.2,0.8c0,0.2,0.1,0.3,0.1,0.5
			c0,0.2,0,0.4,0,0.6v6.9h-2.3v-6.9c0-0.8-0.1-1.4-0.4-1.7c-0.3-0.4-0.8-0.5-1.6-0.5c-0.5,0-1,0.1-1.5,0.4c-0.5,0.3-0.9,0.6-1.3,0.9
			v7.9H584.4z"/>
		<path class="st3" d="M604.6,49.2v-8.9H603v-1.9h1.6V37c0-1.1,0.3-2,0.9-2.6c0.6-0.7,1.5-1,2.7-1c0.4,0,0.8,0,1.2,0.1
			c0.4,0.1,0.7,0.2,1,0.3v1.8c-0.5-0.2-1-0.3-1.4-0.3c-0.7,0-1.2,0.1-1.5,0.4c-0.3,0.3-0.4,0.7-0.4,1.3v1.3h2.8l-0.1,1.9H607v8.9
			H604.6z"/>
		<path class="st3" d="M614.2,49.4c-0.7,0-1.3-0.1-1.9-0.4c-0.6-0.2-1.1-0.6-1.4-1.1c-0.4-0.5-0.5-1.1-0.5-1.8c0-1,0.4-1.9,1.1-2.5
			c0.7-0.6,1.8-0.9,3.3-0.9h3.5v-0.5c0-0.5-0.1-0.9-0.2-1.2c-0.2-0.3-0.4-0.5-0.9-0.7c-0.4-0.1-1-0.2-1.8-0.2
			c-1.3,0-2.5,0.2-3.6,0.6v-1.8c0.5-0.2,1.1-0.4,1.8-0.5c0.7-0.1,1.5-0.2,2.3-0.2c1.6,0,2.8,0.3,3.6,1c0.8,0.6,1.2,1.7,1.2,3.1v7
			h-2.1l-0.2-1.1c-0.4,0.4-1,0.8-1.6,1S615.2,49.4,614.2,49.4z M614.9,47.6c0.7,0,1.4-0.1,2-0.4s1-0.6,1.4-1v-1.9h-3.4
			c-0.7,0-1.3,0.1-1.6,0.4s-0.5,0.7-0.5,1.3c0,0.6,0.2,1,0.6,1.2C613.7,47.5,614.2,47.6,614.9,47.6z"/>
		<path class="st3" d="M623.3,49.2V38.4h2.3l0.1,1.1c0.5-0.4,1.1-0.7,1.7-1c0.7-0.3,1.4-0.4,2.2-0.4c1.4,0,2.4,0.3,3.1,1
			c0.6,0.7,1,1.7,1,3.1v7h-2.5v-6.9c0-0.8-0.2-1.4-0.5-1.8c-0.3-0.3-1-0.5-1.9-0.5c-0.6,0-1.1,0.1-1.7,0.3s-1,0.5-1.4,0.9v7.9H623.3
			z"/>
		<path class="st3" d="M640.9,53.2c-0.8,0-1.6,0-2.4-0.1s-1.5-0.2-2.1-0.4v-1.9c0.6,0.2,1.3,0.3,2.1,0.5s1.5,0.2,2.3,0.2
			c1.1,0,1.9-0.1,2.4-0.2s0.8-0.4,0.8-0.8c0-0.3-0.1-0.5-0.4-0.7c-0.2-0.1-0.7-0.2-1.4-0.2h-2.9c-2,0-2.9-0.7-2.9-2.1
			c0-0.4,0.1-0.9,0.4-1.2c0.3-0.4,0.7-0.7,1.2-0.9c-0.6-0.3-1.1-0.7-1.4-1.3c-0.3-0.5-0.4-1.2-0.4-1.9c0-1.4,0.4-2.4,1.2-3
			c0.8-0.6,2.1-0.9,3.7-0.9c0.4,0,0.7,0,1.1,0.1c0.4,0.1,0.7,0.1,0.9,0.1h4L647,40h-1.8c0.3,0.2,0.5,0.5,0.6,0.9
			c0.1,0.4,0.2,0.8,0.2,1.2c0,1.2-0.4,2.1-1,2.7c-0.7,0.7-1.8,1-3.2,1c-0.2,0-0.5,0-0.7,0c-0.2,0-0.4,0-0.7-0.1
			c-0.5,0-0.9,0.2-1.2,0.4c-0.4,0.2-0.5,0.5-0.5,0.8c0,0.2,0.1,0.4,0.3,0.5c0.2,0.1,0.5,0.1,0.9,0.1h3c1.1,0,1.9,0.2,2.5,0.7
			c0.6,0.5,0.9,1.1,0.9,2c0,1.1-0.5,1.8-1.4,2.3S642.6,53.2,640.9,53.2z M641.1,44.2c1,0,1.7-0.2,2.1-0.5c0.4-0.3,0.6-0.9,0.6-1.7
			s-0.2-1.4-0.6-1.8c-0.4-0.4-1.1-0.5-2.1-0.5c-0.9,0-1.6,0.2-2,0.5c-0.4,0.4-0.6,0.9-0.6,1.8c0,0.8,0.2,1.3,0.6,1.7
			C639.4,44.1,640.1,44.2,641.1,44.2z"/>
		<path class="st3" d="M648.6,49.2V38.4h2.3l0.1,1.1c0.5-0.4,1.1-0.8,1.8-1c0.6-0.2,1.3-0.4,2.1-0.4c0.8,0,1.4,0.1,1.8,0.4
			c0.4,0.3,0.8,0.6,1,1c0.5-0.4,1.1-0.7,1.7-1c0.7-0.3,1.4-0.4,2.4-0.4c1.2,0,2.2,0.3,2.8,1c0.6,0.6,0.9,1.6,0.9,2.9v7.1h-2.4v-6.9
			c0-0.8-0.2-1.4-0.5-1.8c-0.4-0.3-0.9-0.5-1.7-0.5c-0.5,0-1,0.1-1.5,0.3c-0.5,0.2-0.9,0.5-1.2,0.8c0,0.2,0.1,0.3,0.1,0.5
			c0,0.2,0,0.4,0,0.6v6.9h-2.3v-6.9c0-0.8-0.1-1.4-0.4-1.7c-0.3-0.4-0.8-0.5-1.6-0.5c-0.5,0-1,0.1-1.5,0.4c-0.5,0.3-0.9,0.6-1.3,0.9
			v7.9H648.6z"/>
		<path class="st3" d="M671.2,49.4c-0.7,0-1.3-0.1-1.9-0.4c-0.6-0.2-1.1-0.6-1.4-1.1c-0.4-0.5-0.5-1.1-0.5-1.8c0-1,0.4-1.9,1.1-2.5
			c0.7-0.6,1.8-0.9,3.3-0.9h3.5v-0.5c0-0.5-0.1-0.9-0.2-1.2c-0.2-0.3-0.4-0.5-0.9-0.7c-0.4-0.1-1-0.2-1.8-0.2
			c-1.3,0-2.5,0.2-3.6,0.6v-1.8c0.5-0.2,1.1-0.4,1.8-0.5c0.7-0.1,1.5-0.2,2.3-0.2c1.6,0,2.8,0.3,3.6,1c0.8,0.6,1.2,1.7,1.2,3.1v7
			h-2.1l-0.2-1.1c-0.4,0.4-1,0.8-1.6,1S672.2,49.4,671.2,49.4z M671.9,47.6c0.7,0,1.4-0.1,2-0.4s1-0.6,1.4-1v-1.9h-3.4
			c-0.7,0-1.3,0.1-1.6,0.4s-0.5,0.7-0.5,1.3c0,0.6,0.2,1,0.6,1.2C670.6,47.5,671.2,47.6,671.9,47.6z"/>
		<path class="st3" d="M687.6,49.4c-1.3,0-2.4-0.2-3.3-0.5v-2.1c0.4,0.2,0.8,0.3,1.3,0.4c0.5,0.1,1,0.1,1.5,0.1
			c0.8,0,1.4-0.2,1.9-0.7c0.5-0.4,0.7-1.1,0.7-1.9c0-0.9-0.2-1.5-0.7-1.9s-1.2-0.6-2.2-0.6h-1.8v-1.9h1.8c0.9,0,1.5-0.2,1.9-0.7
			c0.4-0.5,0.6-1.1,0.6-1.8c0-0.7-0.2-1.3-0.7-1.8c-0.5-0.5-1.4-0.7-2.7-0.7c-1.1,0-1.9,0.3-2.5,0.8c-0.6,0.6-0.9,1.4-0.9,2.6v10.4
			h-2.4V38.7c0-1.1,0.2-2,0.7-2.9c0.5-0.8,1.1-1.5,2-2c0.9-0.5,1.9-0.7,3.1-0.7c1.3,0,2.3,0.2,3.2,0.6c0.8,0.4,1.5,1,1.9,1.7
			c0.4,0.7,0.6,1.5,0.6,2.3c0,0.8-0.2,1.6-0.5,2.1c-0.3,0.6-0.8,1-1.3,1.3c0.7,0.2,1.3,0.7,1.7,1.3c0.4,0.6,0.7,1.4,0.7,2.4
			c0,1.4-0.4,2.5-1.2,3.3C690.2,49,689.1,49.4,687.6,49.4z"/>
		<path class="st3" d="M700.2,49.4c-1.9,0-3.3-0.5-4.4-1.4c-1-0.9-1.6-2.4-1.6-4.3c0-1.7,0.4-3.1,1.3-4.1c0.9-1,2.2-1.5,4-1.5
			c1.6,0,2.9,0.4,3.7,1.3c0.8,0.9,1.2,2,1.2,3.3v2h-7.9c0.1,1,0.5,1.8,1.1,2.2c0.6,0.4,1.6,0.6,2.9,0.6c0.5,0,1.1-0.1,1.7-0.2
			c0.6-0.1,1.1-0.2,1.5-0.4v1.8c-0.5,0.2-1,0.4-1.7,0.5C701.6,49.4,700.9,49.4,700.2,49.4z M696.6,43.1h5.7v-0.8
			c0-0.7-0.2-1.3-0.6-1.7c-0.4-0.4-1.1-0.6-2.1-0.6c-1.2,0-2,0.3-2.4,0.8S696.6,42.1,696.6,43.1z"/>
	</g>
	<g class="st5">
		<path class="st3" d="M512,77.2v-8.1h1.7l0.1,0.9c0.4-0.2,0.8-0.5,1.4-0.7c0.5-0.2,1.1-0.3,1.6-0.4v1.4c-0.3,0.1-0.7,0.1-1,0.2
			c-0.4,0.1-0.7,0.2-1,0.4c-0.3,0.1-0.6,0.3-0.8,0.4v5.8H512z"/>
		<path class="st3" d="M521.8,77.4c-1.4,0-2.5-0.3-3.3-1c-0.8-0.7-1.2-1.8-1.2-3.2c0-1.3,0.3-2.3,1-3.1c0.7-0.7,1.7-1.1,3-1.1
			c1.2,0,2.1,0.3,2.8,1c0.6,0.6,0.9,1.5,0.9,2.5v1.5h-5.9c0.1,0.8,0.4,1.3,0.9,1.6c0.5,0.3,1.2,0.4,2.2,0.4c0.4,0,0.8,0,1.3-0.1
			c0.4-0.1,0.8-0.2,1.1-0.3v1.4c-0.4,0.2-0.8,0.3-1.2,0.4C522.9,77.3,522.4,77.4,521.8,77.4z M519.2,72.7h4.3v-0.6
			c0-0.6-0.2-1-0.5-1.3c-0.3-0.3-0.8-0.5-1.5-0.5c-0.9,0-1.5,0.2-1.8,0.6C519.3,71.3,519.2,71.9,519.2,72.7z"/>
		<path class="st3" d="M530.8,77.4c-1.4,0-2.5-0.4-3.2-1.1c-0.7-0.7-1.1-1.8-1.1-3.1c0-1.4,0.4-2.5,1.2-3.2c0.8-0.7,1.9-1,3.2-1
			c0.6,0,1,0,1.4,0.1c0.4,0.1,0.7,0.2,1.1,0.4v1.4c-0.6-0.3-1.3-0.4-2.1-0.4c-0.9,0-1.6,0.2-2.1,0.6c-0.5,0.4-0.7,1.1-0.7,2.2
			c0,1,0.2,1.7,0.7,2.1c0.4,0.4,1.2,0.7,2.2,0.7c0.8,0,1.5-0.2,2.2-0.5v1.4c-0.4,0.1-0.8,0.3-1.2,0.3
			C531.8,77.3,531.4,77.4,530.8,77.4z"/>
		<path class="st3" d="M534.9,77.2V65.7h1.9v4.2c0.4-0.3,0.8-0.5,1.3-0.7c0.5-0.2,1-0.3,1.6-0.3c1,0,1.8,0.2,2.3,0.7
			s0.7,1.2,0.7,2.3v5.2h-1.8v-5.1c0-0.6-0.1-1.1-0.4-1.3c-0.3-0.2-0.7-0.4-1.4-0.4c-0.4,0-0.8,0.1-1.2,0.3c-0.4,0.2-0.8,0.4-1,0.7
			v5.9H534.9z"/>
		<path class="st3" d="M547.8,77.4c-0.9,0-1.5-0.2-1.9-0.7s-0.6-1.1-0.6-1.9v-4.2h-1.2v-1.4h1.2v-1.9l1.8-0.6v2.4h2.1l-0.1,1.4h-2
			v4.1c0,0.5,0.1,0.8,0.3,1c0.2,0.2,0.6,0.3,1.1,0.3c0.3,0,0.6-0.1,1-0.2v1.3C549,77.3,548.5,77.4,547.8,77.4z"/>
		<path class="st3" d="M555,77.4c-1.4,0-2.5-0.3-3.3-1c-0.8-0.7-1.2-1.8-1.2-3.2c0-1.3,0.3-2.3,1-3.1c0.7-0.7,1.7-1.1,3-1.1
			c1.2,0,2.1,0.3,2.8,1c0.6,0.6,0.9,1.5,0.9,2.5v1.5h-5.9c0.1,0.8,0.4,1.3,0.9,1.6c0.5,0.3,1.2,0.4,2.2,0.4c0.4,0,0.8,0,1.3-0.1
			c0.4-0.1,0.8-0.2,1.1-0.3v1.4c-0.4,0.2-0.8,0.3-1.2,0.4C556,77.3,555.5,77.4,555,77.4z M552.3,72.7h4.3v-0.6c0-0.6-0.2-1-0.5-1.3
			c-0.3-0.3-0.8-0.5-1.5-0.5c-0.9,0-1.5,0.2-1.8,0.6C552.5,71.3,552.3,71.9,552.3,72.7z"/>
		<path class="st3" d="M562.6,77.4c-0.6,0-1.1,0-1.6-0.1c-0.5-0.1-0.9-0.2-1.2-0.3v-1.6c0.4,0.1,0.8,0.3,1.3,0.3s0.9,0.1,1.3,0.1
			c0.6,0,1.1-0.1,1.4-0.2c0.3-0.1,0.4-0.3,0.4-0.7c0-0.2-0.1-0.4-0.2-0.6c-0.2-0.1-0.4-0.3-0.7-0.4s-0.7-0.2-1.2-0.4
			c-0.5-0.2-0.9-0.3-1.2-0.5c-0.4-0.2-0.6-0.4-0.8-0.7c-0.2-0.3-0.3-0.7-0.3-1.2c0-0.7,0.3-1.3,0.8-1.7c0.5-0.4,1.4-0.6,2.6-0.6
			c0.5,0,0.9,0,1.3,0.1c0.4,0.1,0.8,0.2,1.1,0.3v1.5c-0.3-0.1-0.7-0.2-1-0.3c-0.4-0.1-0.7-0.1-1.1-0.1c-0.6,0-1,0.1-1.3,0.2
			c-0.3,0.1-0.5,0.3-0.5,0.6c0,0.3,0.2,0.5,0.5,0.7s0.8,0.3,1.5,0.5c0.6,0.2,1.1,0.4,1.5,0.6s0.6,0.5,0.8,0.8
			c0.2,0.3,0.2,0.7,0.2,1.2c0,0.8-0.3,1.4-0.9,1.8C564.5,77.2,563.7,77.4,562.6,77.4z"/>
		<path class="st3" d="M571.8,77.2V66.2h4.6c1.2,0,2.1,0.3,2.7,1s0.9,1.5,0.9,2.5c0,1.1-0.3,1.9-1,2.5c-0.7,0.6-1.5,0.9-2.7,0.9
			h-3.2v4H571.8z M573.2,72.1h2.9c0.8,0,1.4-0.2,1.8-0.6c0.4-0.4,0.6-1,0.6-1.7c0-0.8-0.2-1.4-0.6-1.8c-0.4-0.4-1-0.6-1.8-0.6h-3
			V72.1z"/>
		<path class="st3" d="M583.9,77.4c-0.5,0-1-0.1-1.4-0.3c-0.4-0.2-0.8-0.5-1-0.8c-0.3-0.4-0.4-0.8-0.4-1.4c0-0.7,0.2-1.3,0.7-1.8
			c0.5-0.5,1.3-0.7,2.4-0.7h2.8v-0.5c0-0.4-0.1-0.8-0.2-1.1s-0.3-0.4-0.7-0.6s-0.8-0.2-1.4-0.2c-0.5,0-1,0-1.4,0.1
			c-0.5,0.1-0.9,0.2-1.3,0.3v-1.2c0.4-0.1,0.8-0.2,1.3-0.3c0.5-0.1,1-0.1,1.6-0.1c1.1,0,2,0.2,2.6,0.7c0.6,0.5,0.9,1.2,0.9,2.3v5.3
			h-1.2l-0.1-0.9c-0.4,0.4-0.8,0.6-1.3,0.8C585.2,77.3,584.6,77.4,583.9,77.4z M584.2,76.2c0.6,0,1.1-0.1,1.6-0.3s0.8-0.5,1.2-0.9
			v-1.6h-2.8c-0.6,0-1.1,0.1-1.4,0.4c-0.3,0.2-0.4,0.6-0.4,1.1s0.2,0.8,0.5,1C583.2,76.1,583.7,76.2,584.2,76.2z"/>
		<path class="st3" d="M593.5,77.4c-0.8,0-1.4-0.2-1.8-0.6s-0.6-1-0.6-1.8v-4.7h-1.2v-1.1h1.2v-2l1.4-0.4v2.4h2.2l-0.1,1.1h-2.1v4.6
			c0,0.5,0.1,0.8,0.3,1c0.2,0.2,0.6,0.3,1.1,0.3c0.3,0,0.6-0.1,1-0.2v1.1C594.6,77.3,594.1,77.4,593.5,77.4z"/>
		<path class="st3" d="M597.1,77.2v-7h-1.2l0.1-1.1h2.5v8.1H597.1z M597,67.2V66h1.5v1.3H597z"/>
		<path class="st3" d="M604.9,77.4c-1.4,0-2.5-0.3-3.2-1s-1.1-1.8-1.1-3.2c0-1.3,0.3-2.3,0.9-3.1c0.6-0.7,1.6-1.1,2.9-1.1
			c0.8,0,1.4,0.1,2,0.4s0.9,0.7,1.2,1.2c0.3,0.5,0.4,1.1,0.4,1.7v1.5h-6c0,0.6,0.2,1.1,0.4,1.4c0.2,0.4,0.6,0.6,1,0.8
			c0.4,0.2,1,0.2,1.8,0.2c0.8,0,1.6-0.1,2.3-0.4v1.1c-0.4,0.1-0.7,0.3-1.2,0.3S605.4,77.4,604.9,77.4z M602,72.8h4.7v-0.7
			c0-0.7-0.2-1.2-0.5-1.5c-0.3-0.4-0.9-0.5-1.7-0.5c-1,0-1.6,0.2-2,0.7C602.2,71.2,602,71.9,602,72.8z"/>
		<path class="st3" d="M610,77.2v-8.1h1.3l0.1,0.9c0.4-0.3,0.8-0.6,1.4-0.8s1.1-0.3,1.8-0.3c1,0,1.8,0.2,2.2,0.7
			c0.5,0.5,0.7,1.2,0.7,2.2v5.3H616V72c0-0.7-0.1-1.2-0.4-1.5s-0.8-0.4-1.6-0.4c-0.5,0-1,0.1-1.4,0.3s-0.8,0.4-1.1,0.7v6.1H610z"/>
		<path class="st3" d="M622.6,77.4c-0.8,0-1.4-0.2-1.8-0.6s-0.6-1-0.6-1.8v-4.7H619v-1.1h1.2v-2l1.4-0.4v2.4h2.2l-0.1,1.1h-2.1v4.6
			c0,0.5,0.1,0.8,0.3,1c0.2,0.2,0.6,0.3,1.1,0.3c0.3,0,0.6-0.1,1-0.2v1.1C623.7,77.3,623.2,77.4,622.6,77.4z"/>
		<path class="st3" d="M629.7,77.4c-1.4,0-2.5-0.3-3.2-1s-1.1-1.8-1.1-3.2c0-1.3,0.3-2.3,0.9-3.1c0.6-0.7,1.6-1.1,2.9-1.1
			c0.8,0,1.4,0.1,2,0.4s0.9,0.7,1.2,1.2c0.3,0.5,0.4,1.1,0.4,1.7v1.5h-6c0,0.6,0.2,1.1,0.4,1.4c0.2,0.4,0.6,0.6,1,0.8
			c0.4,0.2,1,0.2,1.8,0.2c0.8,0,1.6-0.1,2.3-0.4v1.1c-0.4,0.1-0.7,0.3-1.2,0.3S630.1,77.4,629.7,77.4z M626.7,72.8h4.7v-0.7
			c0-0.7-0.2-1.2-0.5-1.5c-0.3-0.4-0.9-0.5-1.7-0.5c-1,0-1.6,0.2-2,0.7C626.9,71.2,626.7,71.9,626.7,72.8z"/>
		<path class="st3" d="M634.8,77.2v-8.1h1.3l0.1,0.9c0.4-0.3,0.8-0.6,1.4-0.8s1.1-0.3,1.8-0.3c1,0,1.8,0.2,2.2,0.7
			c0.5,0.5,0.7,1.2,0.7,2.2v5.3h-1.4V72c0-0.7-0.1-1.2-0.4-1.5c-0.3-0.3-0.8-0.4-1.6-0.4c-0.5,0-1,0.1-1.4,0.3
			c-0.4,0.2-0.8,0.4-1.1,0.7v6.1H634.8z"/>
		<path class="st3" d="M648.5,77.4c-0.6,0-1.1-0.1-1.6-0.2c-0.4-0.2-0.9-0.4-1.2-0.8l-0.1,0.8h-1.2V65.7h1.4v4
			c0.7-0.5,1.6-0.8,2.7-0.8c1.1,0,2,0.3,2.7,1c0.6,0.7,1,1.7,1,3.2c0,1.5-0.3,2.5-1,3.2C650.6,77,649.7,77.4,648.5,77.4z
			 M648.2,76.2c0.9,0,1.6-0.3,2-0.8c0.4-0.5,0.6-1.3,0.6-2.4c0-1.1-0.2-1.9-0.6-2.3c-0.4-0.5-1.1-0.7-2-0.7c-0.5,0-0.9,0.1-1.3,0.2
			c-0.4,0.1-0.7,0.3-1,0.6v4.4c0.3,0.3,0.7,0.6,1.1,0.7C647.3,76.2,647.7,76.2,648.2,76.2z"/>
		<path class="st3" d="M658.2,77.4c-1.4,0-2.5-0.3-3.2-1s-1.1-1.8-1.1-3.2c0-1.3,0.3-2.3,0.9-3.1c0.6-0.7,1.6-1.1,2.9-1.1
			c0.8,0,1.4,0.1,2,0.4s0.9,0.7,1.2,1.2c0.3,0.5,0.4,1.1,0.4,1.7v1.5h-6c0,0.6,0.2,1.1,0.4,1.4c0.2,0.4,0.6,0.6,1,0.8
			c0.4,0.2,1,0.2,1.8,0.2c0.8,0,1.6-0.1,2.3-0.4v1.1c-0.4,0.1-0.7,0.3-1.2,0.3S658.7,77.4,658.2,77.4z M655.3,72.8h4.7v-0.7
			c0-0.7-0.2-1.2-0.5-1.5c-0.3-0.4-0.9-0.5-1.7-0.5c-1,0-1.6,0.2-2,0.7C655.4,71.2,655.3,71.9,655.3,72.8z"/>
		<path class="st3" d="M663.8,77.2v-7h-1.2l0.1-1.1h2.5v8.1H663.8z M663.7,67.2V66h1.5v1.3H663.7z"/>
		<path class="st3" d="M667.6,77.2v-8.1h1.3l0.1,0.9c0.4-0.3,0.8-0.6,1.4-0.8s1.1-0.3,1.8-0.3c1,0,1.8,0.2,2.2,0.7
			c0.5,0.5,0.7,1.2,0.7,2.2v5.3h-1.4V72c0-0.7-0.1-1.2-0.4-1.5s-0.8-0.4-1.6-0.4c-0.5,0-1,0.1-1.4,0.3s-0.8,0.4-1.1,0.7v6.1H667.6z"
			/>
		<path class="st3" d="M677,77.2l4-11.3h1.4l-4,11.3H677z"/>
		<path class="st3" d="M688.2,77.4c-1.4,0-2.4-0.4-3.1-1.1c-0.7-0.7-1-1.8-1-3.1c0-1.4,0.4-2.5,1.2-3.2c0.8-0.7,1.8-1,3.1-1
			c0.5,0,1,0,1.3,0.1c0.4,0.1,0.7,0.2,1,0.3v1.1c-0.6-0.3-1.3-0.4-2.1-0.4c-1,0-1.8,0.2-2.3,0.7s-0.8,1.3-0.8,2.4
			c0,1.1,0.2,1.8,0.7,2.3c0.5,0.5,1.3,0.7,2.4,0.7c0.8,0,1.5-0.1,2.2-0.4v1.1c-0.4,0.1-0.7,0.3-1.1,0.3S688.7,77.4,688.2,77.4z"/>
		<path class="st3" d="M692.3,77.2v-8.1h1.3l0.1,0.9c0.4-0.3,0.9-0.6,1.4-0.8c0.5-0.2,1-0.3,1.6-0.3c0.6,0,1.1,0.1,1.4,0.3
			c0.3,0.2,0.6,0.5,0.7,0.8c0.4-0.3,0.8-0.6,1.3-0.8c0.5-0.2,1.1-0.3,1.8-0.3c0.9,0,1.6,0.2,2,0.7c0.4,0.5,0.7,1.2,0.7,2.2v5.4h-1.4
			V72c0-0.7-0.2-1.2-0.5-1.5c-0.3-0.3-0.8-0.4-1.5-0.4c-0.4,0-0.9,0.1-1.3,0.2s-0.7,0.4-1,0.7c0.1,0.3,0.1,0.6,0.1,1v5.2h-1.3V72
			c0-0.7-0.1-1.2-0.3-1.5c-0.2-0.3-0.7-0.5-1.3-0.5c-0.5,0-0.9,0.1-1.3,0.3s-0.8,0.4-1.1,0.7v6.1H692.3z"/>
	</g>
	<g class="st5">
		<path class="st3" d="M30.8,49.4c-2,0-3.6-0.5-4.7-1.5s-1.7-2.4-1.7-4.2v-9.2h2.5v9.2c0,1.2,0.3,2.2,1,2.8c0.7,0.6,1.6,0.9,2.9,0.9
			c1.2,0,2.2-0.3,2.9-0.9c0.7-0.6,1-1.5,1-2.8v-9.2h2.5v9.2c0,1.8-0.6,3.2-1.7,4.2C34.3,48.9,32.8,49.4,30.8,49.4z"/>
		<path class="st3" d="M39.9,49.2V38.4h2.3l0.1,1.1c0.5-0.4,1.1-0.8,1.8-1s1.3-0.4,2.1-0.4c0.8,0,1.4,0.1,1.8,0.4
			c0.4,0.3,0.8,0.6,1,1c0.5-0.4,1.1-0.7,1.7-1c0.7-0.3,1.4-0.4,2.4-0.4c1.2,0,2.2,0.3,2.8,1c0.6,0.6,0.9,1.6,0.9,2.9v7.1h-2.4v-6.9
			c0-0.8-0.2-1.4-0.5-1.8C53.3,40.2,52.7,40,52,40c-0.5,0-1,0.1-1.5,0.3c-0.5,0.2-0.9,0.5-1.2,0.8c0,0.2,0.1,0.3,0.1,0.5
			s0,0.4,0,0.6v6.9h-2.3v-6.9c0-0.8-0.1-1.4-0.4-1.7S45.9,40,45.1,40c-0.5,0-1,0.1-1.5,0.4c-0.5,0.3-0.9,0.6-1.3,0.9v7.9H39.9z"/>
		<path class="st3" d="M60.1,49.2v-8.9h-1.6v-1.9h1.6V37c0-1.1,0.3-2,0.9-2.6c0.6-0.7,1.5-1,2.7-1c0.4,0,0.8,0,1.2,0.1
			c0.4,0.1,0.7,0.2,1,0.3v1.8c-0.5-0.2-1-0.3-1.4-0.3c-0.7,0-1.2,0.1-1.5,0.4c-0.3,0.3-0.4,0.7-0.4,1.3v1.3h2.8l-0.1,1.9h-2.7v8.9
			H60.1z"/>
		<path class="st3" d="M69.8,49.4c-0.7,0-1.3-0.1-1.9-0.4c-0.6-0.2-1.1-0.6-1.4-1.1c-0.4-0.5-0.5-1.1-0.5-1.8c0-1,0.4-1.9,1.1-2.5
			c0.7-0.6,1.8-0.9,3.3-0.9h3.5v-0.5c0-0.5-0.1-0.9-0.2-1.2c-0.2-0.3-0.4-0.5-0.9-0.7c-0.4-0.1-1-0.2-1.8-0.2
			c-1.3,0-2.5,0.2-3.6,0.6v-1.8c0.5-0.2,1.1-0.4,1.8-0.5c0.7-0.1,1.5-0.2,2.3-0.2c1.6,0,2.8,0.3,3.6,1c0.8,0.6,1.2,1.7,1.2,3.1v7H74
			l-0.2-1.1c-0.4,0.4-1,0.8-1.6,1C71.5,49.3,70.7,49.4,69.8,49.4z M70.4,47.6c0.7,0,1.4-0.1,2-0.4c0.6-0.3,1-0.6,1.4-1v-1.9h-3.4
			c-0.7,0-1.3,0.1-1.6,0.4c-0.3,0.3-0.5,0.7-0.5,1.3c0,0.6,0.2,1,0.6,1.2C69.2,47.5,69.7,47.6,70.4,47.6z"/>
		<path class="st3" d="M78.9,49.2V38.4h2.3l0.1,1.1c0.5-0.4,1.1-0.7,1.7-1s1.4-0.4,2.2-0.4c1.4,0,2.4,0.3,3.1,1s1,1.7,1,3.1v7h-2.5
			v-6.9c0-0.8-0.2-1.4-0.5-1.8c-0.3-0.3-1-0.5-1.9-0.5c-0.6,0-1.1,0.1-1.7,0.3c-0.5,0.2-1,0.5-1.4,0.9v7.9H78.9z"/>
		<path class="st3" d="M96.4,53.2c-0.8,0-1.6,0-2.4-0.1s-1.5-0.2-2.1-0.4v-1.9c0.6,0.2,1.3,0.3,2.1,0.5c0.8,0.1,1.5,0.2,2.3,0.2
			c1.1,0,1.9-0.1,2.4-0.2c0.5-0.1,0.8-0.4,0.8-0.8c0-0.3-0.1-0.5-0.4-0.7c-0.2-0.1-0.7-0.2-1.4-0.2h-2.9c-2,0-2.9-0.7-2.9-2.1
			c0-0.4,0.1-0.9,0.4-1.2c0.3-0.4,0.7-0.7,1.2-0.9c-0.6-0.3-1.1-0.7-1.4-1.3c-0.3-0.5-0.4-1.2-0.4-1.9c0-1.4,0.4-2.4,1.2-3
			c0.8-0.6,2.1-0.9,3.7-0.9c0.4,0,0.7,0,1.1,0.1c0.4,0.1,0.7,0.1,0.9,0.1h4l-0.1,1.6h-1.8c0.3,0.2,0.5,0.5,0.6,0.9
			c0.1,0.4,0.2,0.8,0.2,1.2c0,1.2-0.4,2.1-1.1,2.7c-0.7,0.7-1.8,1-3.2,1c-0.2,0-0.5,0-0.7,0c-0.2,0-0.4,0-0.7-0.1
			c-0.5,0-0.9,0.2-1.2,0.4c-0.4,0.2-0.5,0.5-0.5,0.8c0,0.2,0.1,0.4,0.3,0.5c0.2,0.1,0.5,0.1,0.9,0.1h3c1.1,0,1.9,0.2,2.5,0.7
			c0.6,0.5,0.9,1.1,0.9,2c0,1.1-0.5,1.8-1.4,2.3S98.2,53.2,96.4,53.2z M96.6,44.2c1,0,1.7-0.2,2.1-0.5s0.6-0.9,0.6-1.7
			s-0.2-1.4-0.6-1.8s-1.1-0.5-2.1-0.5c-0.9,0-1.6,0.2-2,0.5C94.2,40.6,94,41.2,94,42c0,0.8,0.2,1.3,0.6,1.7
			C95,44.1,95.7,44.2,96.6,44.2z"/>
		<path class="st3" d="M104.1,49.2V38.4h2.3l0.1,1.1c0.5-0.4,1.1-0.8,1.8-1s1.3-0.4,2.1-0.4c0.8,0,1.4,0.1,1.8,0.4
			c0.4,0.3,0.8,0.6,1,1c0.5-0.4,1.1-0.7,1.7-1c0.7-0.3,1.4-0.4,2.4-0.4c1.2,0,2.2,0.3,2.8,1c0.6,0.6,0.9,1.6,0.9,2.9v7.1h-2.4v-6.9
			c0-0.8-0.2-1.4-0.5-1.8c-0.4-0.3-0.9-0.5-1.7-0.5c-0.5,0-1,0.1-1.5,0.3c-0.5,0.2-0.9,0.5-1.2,0.8c0,0.2,0.1,0.3,0.1,0.5
			s0,0.4,0,0.6v6.9h-2.3v-6.9c0-0.8-0.1-1.4-0.4-1.7s-0.8-0.5-1.6-0.5c-0.5,0-1,0.1-1.5,0.4c-0.5,0.3-0.9,0.6-1.3,0.9v7.9H104.1z"/>
		<path class="st3" d="M126.7,49.4c-0.7,0-1.3-0.1-1.9-0.4c-0.6-0.2-1.1-0.6-1.4-1.1c-0.4-0.5-0.5-1.1-0.5-1.8c0-1,0.4-1.9,1.1-2.5
			c0.7-0.6,1.8-0.9,3.3-0.9h3.5v-0.5c0-0.5-0.1-0.9-0.2-1.2c-0.2-0.3-0.4-0.5-0.9-0.7c-0.4-0.1-1-0.2-1.8-0.2
			c-1.3,0-2.5,0.2-3.6,0.6v-1.8c0.5-0.2,1.1-0.4,1.8-0.5c0.7-0.1,1.5-0.2,2.3-0.2c1.6,0,2.8,0.3,3.6,1c0.8,0.6,1.2,1.7,1.2,3.1v7
			h-2.1l-0.2-1.1c-0.4,0.4-1,0.8-1.6,1C128.5,49.3,127.7,49.4,126.7,49.4z M127.4,47.6c0.7,0,1.4-0.1,2-0.4c0.6-0.3,1-0.6,1.4-1
			v-1.9h-3.4c-0.7,0-1.3,0.1-1.6,0.4c-0.3,0.3-0.5,0.7-0.5,1.3c0,0.6,0.2,1,0.6,1.2C126.1,47.5,126.7,47.6,127.4,47.6z"/>
		<path class="st3" d="M143.1,49.4c-1.3,0-2.4-0.2-3.3-0.5v-2.1c0.4,0.2,0.8,0.3,1.3,0.4c0.5,0.1,1,0.1,1.5,0.1
			c0.8,0,1.4-0.2,1.9-0.7c0.5-0.4,0.7-1.1,0.7-1.9c0-0.9-0.2-1.5-0.7-1.9s-1.2-0.6-2.2-0.6h-1.8v-1.9h1.8c0.9,0,1.5-0.2,1.9-0.7
			c0.4-0.5,0.6-1.1,0.6-1.8c0-0.7-0.2-1.3-0.7-1.8c-0.5-0.5-1.4-0.7-2.7-0.7c-1.1,0-1.9,0.3-2.5,0.8c-0.6,0.6-0.9,1.4-0.9,2.6v10.4
			h-2.4V38.7c0-1.1,0.2-2,0.7-2.9c0.5-0.8,1.1-1.5,2-2c0.9-0.5,1.9-0.7,3.1-0.7c1.3,0,2.3,0.2,3.2,0.6c0.8,0.4,1.5,1,1.9,1.7
			s0.6,1.5,0.6,2.3c0,0.8-0.2,1.6-0.5,2.1s-0.8,1-1.3,1.3c0.7,0.2,1.3,0.7,1.7,1.3c0.4,0.6,0.7,1.4,0.7,2.4c0,1.4-0.4,2.5-1.2,3.3
			C145.8,49,144.6,49.4,143.1,49.4z"/>
		<path class="st3" d="M155.7,49.4c-1.9,0-3.3-0.5-4.4-1.4c-1-0.9-1.6-2.4-1.6-4.3c0-1.7,0.4-3.1,1.3-4.1c0.9-1,2.2-1.5,4-1.5
			c1.6,0,2.9,0.4,3.7,1.3c0.8,0.9,1.2,2,1.2,3.3v2h-7.9c0.1,1,0.5,1.8,1.1,2.2s1.6,0.6,2.9,0.6c0.5,0,1.1-0.1,1.7-0.2
			c0.6-0.1,1.1-0.2,1.5-0.4v1.8c-0.5,0.2-1,0.4-1.7,0.5C157.1,49.4,156.4,49.4,155.7,49.4z M152.1,43.1h5.7v-0.8
			c0-0.7-0.2-1.3-0.6-1.7c-0.4-0.4-1.1-0.6-2.1-0.6c-1.2,0-2,0.3-2.4,0.8S152.1,42.1,152.1,43.1z"/>
	</g>
	<g class="st5">
		<path class="st3" d="M26.1,77.4c-0.7,0-1.2-0.2-1.5-0.5s-0.5-0.9-0.5-1.6v-9.5H26v9.4c0,0.3,0.1,0.5,0.2,0.6
			c0.1,0.1,0.3,0.2,0.5,0.2c0.3,0,0.5,0,0.8-0.1v1.3c-0.2,0.1-0.4,0.1-0.6,0.2C26.6,77.3,26.4,77.4,26.1,77.4z"/>
		<path class="st3" d="M29.1,77.2v-6.6h-1.2l0.2-1.4H31v8.1H29.1z M29,67.4v-1.5h2v1.5H29z"/>
		<path class="st3" d="M33.1,77.2v-8.1h1.7l0.1,0.8c0.4-0.3,0.8-0.5,1.3-0.7c0.5-0.2,1.1-0.3,1.7-0.3c1,0,1.8,0.2,2.3,0.7
			s0.7,1.2,0.7,2.3v5.2h-1.8v-5.1c0-0.6-0.1-1.1-0.4-1.3c-0.3-0.2-0.7-0.4-1.4-0.4c-0.4,0-0.8,0.1-1.2,0.3c-0.4,0.2-0.7,0.4-1,0.7
			v5.9H33.1z"/>
		<path class="st3" d="M43,77.2V65.7h1.9v6.6l3.4-3.2h2.1L47,72.4l3.5,4.8h-2l-2.7-3.8l-1.1,1v2.8H43z"/>
		<path class="st3" d="M55.1,77.4c-1.4,0-2.5-0.3-3.3-1c-0.8-0.7-1.2-1.8-1.2-3.2c0-1.3,0.3-2.3,1-3.1c0.7-0.7,1.7-1.1,3-1.1
			c1.2,0,2.1,0.3,2.8,1c0.6,0.6,0.9,1.5,0.9,2.5v1.5h-5.9c0.1,0.8,0.4,1.3,0.9,1.6s1.2,0.4,2.2,0.4c0.4,0,0.8,0,1.3-0.1
			c0.4-0.1,0.8-0.2,1.1-0.3v1.4c-0.4,0.2-0.8,0.3-1.2,0.4S55.6,77.4,55.1,77.4z M52.4,72.7h4.3v-0.6c0-0.6-0.2-1-0.5-1.3
			c-0.3-0.3-0.8-0.5-1.5-0.5c-0.9,0-1.5,0.2-1.8,0.6C52.6,71.3,52.4,71.9,52.4,72.7z"/>
		<path class="st3" d="M62.7,77.4c-0.6,0-1.1,0-1.6-0.1s-0.9-0.2-1.2-0.3v-1.6c0.4,0.1,0.8,0.3,1.3,0.3s0.9,0.1,1.3,0.1
			c0.6,0,1.1-0.1,1.4-0.2s0.4-0.3,0.4-0.7c0-0.2-0.1-0.4-0.2-0.6c-0.2-0.1-0.4-0.3-0.7-0.4c-0.3-0.1-0.7-0.2-1.2-0.4
			c-0.5-0.2-0.9-0.3-1.2-0.5c-0.4-0.2-0.6-0.4-0.8-0.7c-0.2-0.3-0.3-0.7-0.3-1.2c0-0.7,0.3-1.3,0.8-1.7s1.4-0.6,2.6-0.6
			c0.5,0,0.9,0,1.3,0.1s0.8,0.2,1.1,0.3v1.5c-0.3-0.1-0.7-0.2-1-0.3c-0.4-0.1-0.7-0.1-1.1-0.1c-0.6,0-1,0.1-1.3,0.2
			c-0.3,0.1-0.5,0.3-0.5,0.6c0,0.3,0.2,0.5,0.5,0.7s0.8,0.3,1.5,0.5c0.6,0.2,1.1,0.4,1.5,0.6s0.6,0.5,0.8,0.8
			c0.2,0.3,0.2,0.7,0.2,1.2c0,0.8-0.3,1.4-0.9,1.8C64.7,77.2,63.8,77.4,62.7,77.4z"/>
		<path class="st3" d="M71.9,77.2V66.2h4.6c1.2,0,2.1,0.3,2.7,1s0.9,1.5,0.9,2.5c0,1.1-0.3,1.9-1,2.5c-0.7,0.6-1.5,0.9-2.7,0.9h-3.2
			v4H71.9z M73.3,72.1h2.9c0.8,0,1.4-0.2,1.8-0.6c0.4-0.4,0.6-1,0.6-1.7c0-0.8-0.2-1.4-0.6-1.8c-0.4-0.4-1-0.6-1.8-0.6h-3V72.1z"/>
		<path class="st3" d="M84,77.4c-0.5,0-1-0.1-1.4-0.3c-0.4-0.2-0.8-0.5-1-0.8c-0.3-0.4-0.4-0.8-0.4-1.4c0-0.7,0.2-1.3,0.7-1.8
			c0.5-0.5,1.3-0.7,2.4-0.7h2.8v-0.5c0-0.4-0.1-0.8-0.2-1.1s-0.3-0.4-0.7-0.6c-0.3-0.1-0.8-0.2-1.4-0.2c-0.5,0-1,0-1.4,0.1
			c-0.5,0.1-0.9,0.2-1.3,0.3v-1.2c0.4-0.1,0.8-0.2,1.3-0.3c0.5-0.1,1-0.1,1.6-0.1c1.1,0,2,0.2,2.6,0.7c0.6,0.5,0.9,1.2,0.9,2.3v5.3
			h-1.2l-0.1-0.9c-0.4,0.4-0.8,0.6-1.3,0.8C85.4,77.3,84.7,77.4,84,77.4z M84.4,76.2c0.6,0,1.1-0.1,1.6-0.3s0.8-0.5,1.2-0.9v-1.6
			h-2.8c-0.6,0-1.1,0.1-1.4,0.4c-0.3,0.2-0.4,0.6-0.4,1.1s0.2,0.8,0.5,1C83.4,76.1,83.8,76.2,84.4,76.2z"/>
		<path class="st3" d="M93.6,77.4c-0.8,0-1.4-0.2-1.8-0.6s-0.6-1-0.6-1.8v-4.7H90v-1.1h1.2v-2l1.4-0.4v2.4h2.2l-0.1,1.1h-2.1v4.6
			c0,0.5,0.1,0.8,0.3,1s0.6,0.3,1.1,0.3c0.3,0,0.6-0.1,1-0.2v1.1C94.7,77.3,94.2,77.4,93.6,77.4z"/>
		<path class="st3" d="M97.3,77.2v-7H96l0.1-1.1h2.5v8.1H97.3z M97.1,67.2V66h1.5v1.3H97.1z"/>
		<path class="st3" d="M105,77.4c-1.4,0-2.5-0.3-3.2-1s-1.1-1.8-1.1-3.2c0-1.3,0.3-2.3,0.9-3.1s1.6-1.1,2.9-1.1c0.8,0,1.4,0.1,2,0.4
			s0.9,0.7,1.2,1.2c0.3,0.5,0.4,1.1,0.4,1.7v1.5h-6c0,0.6,0.2,1.1,0.4,1.4c0.2,0.4,0.6,0.6,1,0.8s1,0.2,1.8,0.2
			c0.8,0,1.6-0.1,2.3-0.4v1.1c-0.4,0.1-0.7,0.3-1.2,0.3C105.9,77.3,105.5,77.4,105,77.4z M102.1,72.8h4.7v-0.7
			c0-0.7-0.2-1.2-0.5-1.5c-0.3-0.4-0.9-0.5-1.7-0.5c-1,0-1.6,0.2-2,0.7C102.3,71.2,102.1,71.9,102.1,72.8z"/>
		<path class="st3" d="M110.1,77.2v-8.1h1.3l0.1,0.9c0.4-0.3,0.8-0.6,1.4-0.8s1.1-0.3,1.8-0.3c1,0,1.8,0.2,2.2,0.7
			c0.5,0.5,0.7,1.2,0.7,2.2v5.3h-1.4V72c0-0.7-0.1-1.2-0.4-1.5c-0.3-0.3-0.8-0.4-1.6-0.4c-0.5,0-1,0.1-1.4,0.3
			c-0.4,0.2-0.8,0.4-1.1,0.7v6.1H110.1z"/>
		<path class="st3" d="M122.7,77.4c-0.8,0-1.4-0.2-1.8-0.6s-0.6-1-0.6-1.8v-4.7h-1.2v-1.1h1.2v-2l1.4-0.4v2.4h2.2l-0.1,1.1h-2.1v4.6
			c0,0.5,0.1,0.8,0.3,1s0.6,0.3,1.1,0.3c0.3,0,0.6-0.1,1-0.2v1.1C123.8,77.3,123.3,77.4,122.7,77.4z"/>
		<path class="st3" d="M129.8,77.4c-1.4,0-2.5-0.3-3.2-1s-1.1-1.8-1.1-3.2c0-1.3,0.3-2.3,0.9-3.1s1.6-1.1,2.9-1.1
			c0.8,0,1.4,0.1,2,0.4s0.9,0.7,1.2,1.2c0.3,0.5,0.4,1.1,0.4,1.7v1.5h-6c0,0.6,0.2,1.1,0.4,1.4c0.2,0.4,0.6,0.6,1,0.8s1,0.2,1.8,0.2
			c0.8,0,1.6-0.1,2.3-0.4v1.1c-0.4,0.1-0.7,0.3-1.2,0.3C130.7,77.3,130.2,77.4,129.8,77.4z M126.9,72.8h4.7v-0.7
			c0-0.7-0.2-1.2-0.5-1.5c-0.3-0.4-0.9-0.5-1.7-0.5c-1,0-1.6,0.2-2,0.7C127,71.2,126.9,71.9,126.9,72.8z"/>
		<path class="st3" d="M134.9,77.2v-8.1h1.3l0.1,0.9c0.4-0.3,0.8-0.6,1.4-0.8s1.1-0.3,1.8-0.3c1,0,1.8,0.2,2.2,0.7
			c0.5,0.5,0.7,1.2,0.7,2.2v5.3h-1.4V72c0-0.7-0.1-1.2-0.4-1.5c-0.3-0.3-0.8-0.4-1.6-0.4c-0.5,0-1,0.1-1.4,0.3
			c-0.4,0.2-0.8,0.4-1.1,0.7v6.1H134.9z"/>
		<path class="st3" d="M148.6,77.4c-0.6,0-1.1-0.1-1.6-0.2s-0.9-0.4-1.2-0.8l-0.1,0.8h-1.2V65.7h1.4v4c0.7-0.5,1.6-0.8,2.7-0.8
			c1.1,0,2,0.3,2.7,1c0.6,0.7,1,1.7,1,3.2c0,1.5-0.3,2.5-1,3.2S149.8,77.4,148.6,77.4z M148.3,76.2c0.9,0,1.6-0.3,2-0.8
			c0.4-0.5,0.6-1.3,0.6-2.4c0-1.1-0.2-1.9-0.6-2.3c-0.4-0.5-1.1-0.7-2-0.7c-0.5,0-0.9,0.1-1.3,0.2s-0.7,0.3-1,0.6v4.4
			c0.3,0.3,0.7,0.6,1.1,0.7C147.4,76.2,147.8,76.2,148.3,76.2z"/>
		<path class="st3" d="M158.3,77.4c-1.4,0-2.5-0.3-3.2-1s-1.1-1.8-1.1-3.2c0-1.3,0.3-2.3,0.9-3.1s1.6-1.1,2.9-1.1
			c0.8,0,1.4,0.1,2,0.4s0.9,0.7,1.2,1.2c0.3,0.5,0.4,1.1,0.4,1.7v1.5h-6c0,0.6,0.2,1.1,0.4,1.4c0.2,0.4,0.6,0.6,1,0.8s1,0.2,1.8,0.2
			c0.8,0,1.6-0.1,2.3-0.4v1.1c-0.4,0.1-0.7,0.3-1.2,0.3C159.2,77.3,158.8,77.4,158.3,77.4z M155.4,72.8h4.7v-0.7
			c0-0.7-0.2-1.2-0.5-1.5c-0.3-0.4-0.9-0.5-1.7-0.5c-1,0-1.6,0.2-2,0.7C155.6,71.2,155.4,71.9,155.4,72.8z"/>
		<path class="st3" d="M163.9,77.2v-7h-1.2l0.1-1.1h2.5v8.1H163.9z M163.8,67.2V66h1.5v1.3H163.8z"/>
		<path class="st3" d="M167.7,77.2v-8.1h1.3l0.1,0.9c0.4-0.3,0.8-0.6,1.4-0.8s1.1-0.3,1.8-0.3c1,0,1.8,0.2,2.2,0.7
			c0.5,0.5,0.7,1.2,0.7,2.2v5.3h-1.4V72c0-0.7-0.1-1.2-0.4-1.5c-0.3-0.3-0.8-0.4-1.6-0.4c-0.5,0-1,0.1-1.4,0.3
			c-0.4,0.2-0.8,0.4-1.1,0.7v6.1H167.7z"/>
		<path class="st3" d="M177.1,77.2l4-11.3h1.4l-4,11.3H177.1z"/>
		<path class="st3" d="M188.3,77.4c-1.4,0-2.4-0.4-3.1-1.1c-0.7-0.7-1-1.8-1-3.1c0-1.4,0.4-2.5,1.2-3.2c0.8-0.7,1.8-1,3.1-1
			c0.5,0,1,0,1.3,0.1c0.4,0.1,0.7,0.2,1,0.3v1.1c-0.6-0.3-1.3-0.4-2.1-0.4c-1,0-1.8,0.2-2.3,0.7s-0.8,1.3-0.8,2.4
			c0,1.1,0.2,1.8,0.7,2.3s1.3,0.7,2.4,0.7c0.8,0,1.5-0.1,2.2-0.4v1.1c-0.4,0.1-0.7,0.3-1.1,0.3C189.3,77.3,188.8,77.4,188.3,77.4z"
			/>
		<path class="st3" d="M192.4,77.2v-8.1h1.3l0.1,0.9c0.4-0.3,0.9-0.6,1.4-0.8c0.5-0.2,1-0.3,1.6-0.3c0.6,0,1.1,0.1,1.4,0.3
			c0.3,0.2,0.6,0.5,0.7,0.8c0.4-0.3,0.8-0.6,1.3-0.8c0.5-0.2,1.1-0.3,1.8-0.3c0.9,0,1.6,0.2,2,0.7c0.4,0.5,0.7,1.2,0.7,2.2v5.4h-1.4
			V72c0-0.7-0.2-1.2-0.5-1.5c-0.3-0.3-0.8-0.4-1.5-0.4c-0.4,0-0.9,0.1-1.3,0.2s-0.7,0.4-1,0.7c0.1,0.3,0.1,0.6,0.1,1v5.2h-1.3V72
			c0-0.7-0.1-1.2-0.3-1.5c-0.2-0.3-0.7-0.5-1.3-0.5c-0.5,0-0.9,0.1-1.3,0.3c-0.4,0.2-0.8,0.4-1.1,0.7v6.1H192.4z"/>
	</g>
	<g class="st5">
		<path class="st3" d="M365.3,150.6v-10.9h5.1c1.1,0,1.9,0.3,2.4,0.8s0.8,1.2,0.8,2.1c0,0.6-0.1,1.1-0.4,1.5c-0.2,0.4-0.6,0.7-1,0.9
			c0.6,0.1,1,0.4,1.3,0.8c0.3,0.4,0.5,1,0.5,1.7c0,1.1-0.3,1.9-0.8,2.4c-0.6,0.5-1.4,0.8-2.4,0.8H365.3z M366.7,144.5h3.6
			c0.7,0,1.2-0.2,1.5-0.5s0.4-0.8,0.4-1.3c0-0.6-0.1-1.1-0.4-1.4c-0.3-0.3-0.9-0.5-1.7-0.5h-3.3V144.5z M366.7,149.6h3.7
			c0.7,0,1.3-0.2,1.6-0.5c0.3-0.3,0.5-0.9,0.5-1.6c0-0.6-0.2-1.1-0.5-1.4c-0.3-0.3-0.9-0.5-1.8-0.5h-3.5V149.6z"/>
		<path class="st3" d="M376.6,150.6v-7h-1.2l0.1-1.1h2.5v8.1H376.6z M376.5,140.7v-1.3h1.5v1.3H376.5z"/>
		<path class="st3" d="M383.4,150.8c-0.8,0-1.4-0.2-1.8-0.6s-0.6-1-0.6-1.8v-4.7h-1.2v-1.1h1.2v-2l1.4-0.4v2.4h2.2l-0.1,1.1h-2.1
			v4.6c0,0.5,0.1,0.8,0.3,1s0.6,0.3,1.1,0.3c0.3,0,0.6-0.1,1-0.2v1.1C384.4,150.7,383.9,150.8,383.4,150.8z"/>
		<path class="st3" d="M389.4,150.8c-0.8,0-1.4-0.2-1.8-0.6s-0.6-1-0.6-1.8v-4.7h-1.2v-1.1h1.2v-2l1.4-0.4v2.4h2.2l-0.1,1.1h-2.1
			v4.6c0,0.5,0.1,0.8,0.3,1s0.6,0.3,1.1,0.3c0.3,0,0.6-0.1,1-0.2v1.1C390.4,150.7,389.9,150.8,389.4,150.8z"/>
		<path class="st3" d="M396.4,150.8c-1.4,0-2.5-0.3-3.2-1s-1.1-1.8-1.1-3.2c0-1.3,0.3-2.3,0.9-3.1s1.6-1.1,2.9-1.1
			c0.8,0,1.4,0.1,2,0.4s0.9,0.7,1.2,1.2c0.3,0.5,0.4,1.1,0.4,1.7v1.5h-6c0,0.6,0.2,1.1,0.4,1.4c0.2,0.4,0.6,0.6,1,0.8s1,0.2,1.8,0.2
			c0.8,0,1.6-0.1,2.3-0.4v1.1c-0.4,0.1-0.7,0.3-1.2,0.3C397.3,150.7,396.9,150.8,396.4,150.8z M393.5,146.2h4.7v-0.7
			c0-0.7-0.2-1.2-0.5-1.5c-0.3-0.4-0.9-0.5-1.7-0.5c-1,0-1.6,0.2-2,0.7C393.7,144.6,393.5,145.3,393.5,146.2z"/>
		<path class="st3" d="M405.4,150.6v-10.9h1.4v9.9h5.8v1.1H405.4z"/>
		<path class="st3" d="M417.7,150.8c-1.4,0-2.5-0.3-3.2-1s-1.1-1.8-1.1-3.2c0-1.3,0.3-2.3,0.9-3.1s1.6-1.1,2.9-1.1
			c0.8,0,1.4,0.1,2,0.4s0.9,0.7,1.2,1.2c0.3,0.5,0.4,1.1,0.4,1.7v1.5h-6c0,0.6,0.2,1.1,0.4,1.4c0.2,0.4,0.6,0.6,1,0.8s1,0.2,1.8,0.2
			c0.8,0,1.6-0.1,2.3-0.4v1.1c-0.4,0.1-0.7,0.3-1.2,0.3C418.6,150.7,418.2,150.8,417.7,150.8z M414.8,146.2h4.7v-0.7
			c0-0.7-0.2-1.2-0.5-1.5c-0.3-0.4-0.9-0.5-1.7-0.5c-1,0-1.6,0.2-2,0.7C415,144.6,414.8,145.3,414.8,146.2z"/>
		<path class="st3" d="M423.4,150.6v-7h-1.2l0.1-1.1h2.5v8.1H423.4z M423.2,140.7v-1.3h1.5v1.3H423.2z"/>
		<path class="st3" d="M431.2,150.8c-0.6,0-1.1-0.1-1.6-0.2s-0.9-0.4-1.2-0.8l-0.1,0.8h-1.2v-11.5h1.4v4c0.7-0.5,1.6-0.8,2.7-0.8
			c1.1,0,2,0.3,2.7,1c0.6,0.7,1,1.7,1,3.2c0,1.5-0.3,2.5-1,3.2S432.4,150.8,431.2,150.8z M430.9,149.7c0.9,0,1.6-0.3,2-0.8
			c0.4-0.5,0.6-1.3,0.6-2.4c0-1.1-0.2-1.9-0.6-2.3c-0.4-0.5-1.1-0.7-2-0.7c-0.5,0-0.9,0.1-1.3,0.2s-0.7,0.3-1,0.6v4.4
			c0.3,0.3,0.7,0.6,1.1,0.7C430,149.6,430.4,149.7,430.9,149.7z"/>
		<path class="st3" d="M439.9,150.8c-0.8,0-1.4-0.2-1.8-0.6s-0.6-1-0.6-1.8v-4.7h-1.2v-1.1h1.2v-2l1.4-0.4v2.4h2.2l-0.1,1.1h-2.1
			v4.6c0,0.5,0.1,0.8,0.3,1s0.6,0.3,1.1,0.3c0.3,0,0.6-0.1,1-0.2v1.1C440.9,150.7,440.4,150.8,439.9,150.8z"/>
		<path class="st3" d="M446.9,150.8c-1.4,0-2.5-0.3-3.2-1s-1.1-1.8-1.1-3.2c0-1.3,0.3-2.3,0.9-3.1s1.6-1.1,2.9-1.1
			c0.8,0,1.4,0.1,2,0.4s0.9,0.7,1.2,1.2c0.3,0.5,0.4,1.1,0.4,1.7v1.5h-6c0,0.6,0.2,1.1,0.4,1.4c0.2,0.4,0.6,0.6,1,0.8s1,0.2,1.8,0.2
			c0.8,0,1.6-0.1,2.3-0.4v1.1c-0.4,0.1-0.7,0.3-1.2,0.3C447.8,150.7,447.4,150.8,446.9,150.8z M444,146.2h4.7v-0.7
			c0-0.7-0.2-1.2-0.5-1.5c-0.3-0.4-0.9-0.5-1.7-0.5c-1,0-1.6,0.2-2,0.7C444.2,144.6,444,145.3,444,146.2z"/>
		<path class="st3" d="M452.5,150.6v-7h-1.2l0.1-1.1h2.5v8.1H452.5z M452.4,140.7v-1.3h1.5v1.3H452.4z"/>
		<path class="st3" d="M458.1,150.8c-0.5,0-1-0.1-1.3-0.4c-0.3-0.3-0.5-0.8-0.5-1.5v-9.7h1.4v9.6c0,0.3,0.1,0.6,0.2,0.7
			c0.1,0.1,0.3,0.2,0.5,0.2c0.3,0,0.5,0,0.8-0.1v1.1c-0.2,0.1-0.4,0.1-0.5,0.1C458.5,150.8,458.3,150.8,458.1,150.8z"/>
		<path class="st3" d="M462.1,150.8c-0.5,0-1-0.1-1.3-0.4c-0.3-0.3-0.5-0.8-0.5-1.5v-9.7h1.4v9.6c0,0.3,0.1,0.6,0.2,0.7
			c0.1,0.1,0.3,0.2,0.5,0.2c0.3,0,0.5,0,0.8-0.1v1.1c-0.2,0.1-0.4,0.1-0.5,0.1C462.5,150.8,462.3,150.8,462.1,150.8z"/>
		<path class="st3" d="M467.4,150.8c-0.5,0-1-0.1-1.4-0.3c-0.4-0.2-0.8-0.5-1-0.8c-0.3-0.4-0.4-0.8-0.4-1.4c0-0.7,0.2-1.3,0.7-1.8
			c0.5-0.5,1.3-0.7,2.4-0.7h2.8v-0.5c0-0.4-0.1-0.8-0.2-1.1s-0.3-0.4-0.7-0.6s-0.8-0.2-1.4-0.2c-0.5,0-1,0-1.4,0.1
			c-0.5,0.1-0.9,0.2-1.3,0.3v-1.2c0.4-0.1,0.8-0.2,1.3-0.3c0.5-0.1,1-0.1,1.6-0.1c1.1,0,2,0.2,2.6,0.7c0.6,0.5,0.9,1.2,0.9,2.3v5.3
			h-1.2l-0.1-0.9c-0.4,0.4-0.8,0.6-1.3,0.8C468.7,150.7,468.1,150.8,467.4,150.8z M467.7,149.6c0.6,0,1.1-0.1,1.6-0.3
			s0.8-0.5,1.2-0.9v-1.6h-2.8c-0.6,0-1.1,0.1-1.4,0.4c-0.3,0.2-0.4,0.6-0.4,1.1s0.2,0.8,0.5,1C466.7,149.6,467.2,149.6,467.7,149.6z
			 M466.4,141.4v-1.3h1.3v1.3H466.4z M469.4,141.4v-1.3h1.3v1.3H469.4z"/>
		<path class="st3" d="M474,150.6v-8.1h1.3l0.1,0.9c0.4-0.3,0.8-0.6,1.4-0.8s1.1-0.3,1.8-0.3c1,0,1.8,0.2,2.2,0.7
			c0.5,0.5,0.7,1.2,0.7,2.2v5.3h-1.4v-5.2c0-0.7-0.1-1.2-0.4-1.5s-0.8-0.4-1.6-0.4c-0.5,0-1,0.1-1.4,0.3s-0.8,0.4-1.1,0.7v6.1H474z"
			/>
		<path class="st3" d="M486.9,153.6c-0.6,0-1.2,0-1.8-0.1c-0.6-0.1-1.1-0.2-1.5-0.3V152c0.5,0.1,1,0.3,1.5,0.3s1.1,0.1,1.6,0.1
			c0.9,0,1.5-0.1,1.9-0.2c0.4-0.1,0.6-0.4,0.6-0.8c0-0.3-0.1-0.5-0.3-0.6c-0.2-0.1-0.6-0.2-1.1-0.2h-2.1c-1.5,0-2.2-0.5-2.2-1.5
			c0-0.3,0.1-0.6,0.3-0.9c0.2-0.3,0.5-0.5,0.9-0.6c-0.5-0.2-0.8-0.5-1-0.9c-0.2-0.4-0.3-0.9-0.3-1.4c0-1,0.3-1.7,0.9-2.2
			s1.5-0.7,2.7-0.7c0.2,0,0.5,0,0.8,0.1c0.3,0,0.5,0.1,0.6,0.1h2.9l-0.1,1h-1.5c0.3,0.2,0.4,0.5,0.6,0.8c0.1,0.3,0.2,0.6,0.2,1
			c0,0.9-0.3,1.6-0.8,2.1c-0.5,0.5-1.3,0.7-2.4,0.7c-0.2,0-0.3,0-0.5,0c-0.1,0-0.3,0-0.5-0.1c-0.4,0-0.7,0.1-1,0.3
			c-0.3,0.2-0.5,0.4-0.5,0.7c0,0.2,0.1,0.3,0.2,0.4c0.2,0.1,0.4,0.1,0.8,0.1h2.2c0.8,0,1.4,0.2,1.9,0.5c0.4,0.3,0.6,0.8,0.6,1.4
			c0,0.8-0.3,1.3-1,1.6C489,153.5,488.1,153.6,486.9,153.6z M487,147c0.8,0,1.4-0.1,1.7-0.4s0.5-0.7,0.5-1.4s-0.2-1.1-0.5-1.4
			s-0.9-0.4-1.6-0.4c-0.8,0-1.3,0.1-1.6,0.4c-0.3,0.3-0.5,0.8-0.5,1.4c0,0.6,0.2,1.1,0.5,1.4S486.2,147,487,147z"/>
		<path class="st3" d="M496.7,150.8c-1.4,0-2.5-0.3-3.2-1s-1.1-1.8-1.1-3.2c0-1.3,0.3-2.3,0.9-3.1c0.6-0.7,1.6-1.1,2.9-1.1
			c0.8,0,1.4,0.1,2,0.4s0.9,0.7,1.2,1.2c0.3,0.5,0.4,1.1,0.4,1.7v1.5h-6c0,0.6,0.2,1.1,0.4,1.4c0.2,0.4,0.6,0.6,1,0.8
			c0.4,0.2,1,0.2,1.8,0.2c0.8,0,1.6-0.1,2.3-0.4v1.1c-0.4,0.1-0.7,0.3-1.2,0.3S497.1,150.8,496.7,150.8z M493.8,146.2h4.7v-0.7
			c0-0.7-0.2-1.2-0.5-1.5c-0.3-0.4-0.9-0.5-1.7-0.5c-1,0-1.6,0.2-2,0.7C493.9,144.6,493.8,145.3,493.8,146.2z"/>
		<path class="st3" d="M501.8,150.6v-8.1h1.3l0.1,0.9c0.4-0.3,0.8-0.6,1.4-0.8s1.1-0.3,1.8-0.3c1,0,1.8,0.2,2.2,0.7
			c0.5,0.5,0.7,1.2,0.7,2.2v5.3h-1.4v-5.2c0-0.7-0.1-1.2-0.4-1.5c-0.3-0.3-0.8-0.4-1.6-0.4c-0.5,0-1,0.1-1.4,0.3
			c-0.4,0.2-0.8,0.4-1.1,0.7v6.1H501.8z"/>
		<path class="st3" d="M517.9,150.8c-0.5,0-1-0.1-1.4-0.3c-0.4-0.2-0.8-0.5-1-0.8c-0.3-0.4-0.4-0.8-0.4-1.4c0-0.7,0.2-1.3,0.7-1.8
			c0.5-0.5,1.3-0.7,2.4-0.7h2.8v-0.5c0-0.4-0.1-0.8-0.2-1.1s-0.3-0.4-0.7-0.6c-0.3-0.1-0.8-0.2-1.4-0.2c-0.5,0-1,0-1.4,0.1
			c-0.5,0.1-0.9,0.2-1.3,0.3v-1.2c0.4-0.1,0.8-0.2,1.3-0.3s1-0.1,1.6-0.1c1.1,0,2,0.2,2.6,0.7c0.6,0.5,0.9,1.2,0.9,2.3v5.3h-1.2
			l-0.1-0.9c-0.4,0.4-0.8,0.6-1.3,0.8C519.2,150.7,518.6,150.8,517.9,150.8z M518.2,149.6c0.6,0,1.1-0.1,1.6-0.3s0.8-0.5,1.2-0.9
			v-1.6h-2.8c-0.6,0-1.1,0.1-1.4,0.4c-0.3,0.2-0.4,0.6-0.4,1.1s0.2,0.8,0.5,1C517.2,149.6,517.7,149.6,518.2,149.6z"/>
		<path class="st3" d="M524.6,150.6v-8.1h1.3l0.1,0.9c0.4-0.3,0.8-0.6,1.4-0.8s1.1-0.3,1.8-0.3c1,0,1.8,0.2,2.2,0.7
			c0.5,0.5,0.7,1.2,0.7,2.2v5.3h-1.4v-5.2c0-0.7-0.1-1.2-0.4-1.5c-0.3-0.3-0.8-0.4-1.6-0.4c-0.5,0-1,0.1-1.4,0.3
			c-0.4,0.2-0.8,0.4-1.1,0.7v6.1H524.6z"/>
		<path class="st3" d="M537.4,153.6c-0.6,0-1.2,0-1.8-0.1c-0.6-0.1-1.1-0.2-1.5-0.3V152c0.5,0.1,1,0.3,1.5,0.3
			c0.6,0.1,1.1,0.1,1.6,0.1c0.8,0,1.5-0.1,1.9-0.2c0.4-0.1,0.6-0.4,0.6-0.8c0-0.3-0.1-0.5-0.3-0.6c-0.2-0.1-0.6-0.2-1.1-0.2h-2.1
			c-1.5,0-2.2-0.5-2.2-1.5c0-0.3,0.1-0.6,0.3-0.9c0.2-0.3,0.5-0.5,0.9-0.6c-0.5-0.2-0.8-0.5-1-0.9c-0.2-0.4-0.3-0.9-0.3-1.4
			c0-1,0.3-1.7,0.9-2.2c0.6-0.5,1.5-0.7,2.7-0.7c0.2,0,0.5,0,0.8,0.1c0.3,0,0.5,0.1,0.6,0.1h2.9l-0.1,1h-1.5
			c0.3,0.2,0.4,0.5,0.6,0.8c0.1,0.3,0.2,0.6,0.2,1c0,0.9-0.3,1.6-0.8,2.1c-0.5,0.5-1.3,0.7-2.4,0.7c-0.2,0-0.3,0-0.5,0
			c-0.1,0-0.3,0-0.5-0.1c-0.4,0-0.7,0.1-1,0.3c-0.3,0.2-0.5,0.4-0.5,0.7c0,0.2,0.1,0.3,0.2,0.4c0.2,0.1,0.4,0.1,0.8,0.1h2.2
			c0.8,0,1.4,0.2,1.9,0.5c0.4,0.3,0.6,0.8,0.6,1.4c0,0.8-0.3,1.3-1,1.6C539.5,153.5,538.6,153.6,537.4,153.6z M537.5,147
			c0.8,0,1.4-0.1,1.7-0.4c0.3-0.3,0.5-0.7,0.5-1.4s-0.2-1.1-0.5-1.4c-0.3-0.3-0.9-0.4-1.6-0.4c-0.8,0-1.3,0.1-1.6,0.4
			s-0.5,0.8-0.5,1.4c0,0.6,0.2,1.1,0.5,1.4C536.1,146.9,536.7,147,537.5,147z"/>
		<path class="st3" d="M547.2,150.8c-1.4,0-2.5-0.3-3.2-1s-1.1-1.8-1.1-3.2c0-1.3,0.3-2.3,0.9-3.1c0.6-0.7,1.6-1.1,2.9-1.1
			c0.8,0,1.4,0.1,2,0.4s0.9,0.7,1.2,1.2c0.3,0.5,0.4,1.1,0.4,1.7v1.5h-6c0,0.6,0.2,1.1,0.4,1.4c0.2,0.4,0.6,0.6,1,0.8
			c0.4,0.2,1,0.2,1.8,0.2c0.8,0,1.6-0.1,2.3-0.4v1.1c-0.4,0.1-0.7,0.3-1.2,0.3C548.1,150.7,547.6,150.8,547.2,150.8z M544.3,146.2
			h4.7v-0.7c0-0.7-0.2-1.2-0.5-1.5c-0.3-0.4-0.9-0.5-1.7-0.5c-1,0-1.6,0.2-2,0.7S544.3,145.3,544.3,146.2z"/>
		<path class="st3" d="M556.4,150.8c-0.6,0-1.1-0.1-1.6-0.2c-0.4-0.2-0.9-0.4-1.2-0.8l-0.1,0.8h-1.2v-11.5h1.4v4
			c0.7-0.5,1.6-0.8,2.7-0.8c1.1,0,2,0.3,2.7,1c0.6,0.7,1,1.7,1,3.2c0,1.5-0.3,2.5-1,3.2C558.4,150.4,557.5,150.8,556.4,150.8z
			 M556,149.7c0.9,0,1.6-0.3,2-0.8c0.4-0.5,0.6-1.3,0.6-2.4c0-1.1-0.2-1.9-0.6-2.3s-1.1-0.7-2-0.7c-0.5,0-0.9,0.1-1.3,0.2
			c-0.4,0.1-0.7,0.3-1,0.6v4.4c0.3,0.3,0.7,0.6,1.1,0.7C555.1,149.6,555.5,149.7,556,149.7z"/>
		<path class="st3" d="M566,150.8c-1.4,0-2.5-0.3-3.2-1s-1.1-1.8-1.1-3.2c0-1.3,0.3-2.3,0.9-3.1c0.6-0.7,1.6-1.1,2.9-1.1
			c0.8,0,1.4,0.1,2,0.4s0.9,0.7,1.2,1.2c0.3,0.5,0.4,1.1,0.4,1.7v1.5h-6c0,0.6,0.2,1.1,0.4,1.4c0.2,0.4,0.6,0.6,1,0.8
			c0.4,0.2,1,0.2,1.8,0.2c0.8,0,1.6-0.1,2.3-0.4v1.1c-0.4,0.1-0.7,0.3-1.2,0.3C566.9,150.7,566.5,150.8,566,150.8z M563.1,146.2h4.7
			v-0.7c0-0.7-0.2-1.2-0.5-1.5c-0.3-0.4-0.9-0.5-1.7-0.5c-1,0-1.6,0.2-2,0.7S563.1,145.3,563.1,146.2z"/>
		<path class="st3" d="M571.1,150.6v-8.1h1.3l0.1,0.9c0.4-0.3,0.8-0.6,1.4-0.8s1.1-0.3,1.8-0.3c1,0,1.8,0.2,2.2,0.7
			c0.5,0.5,0.7,1.2,0.7,2.2v5.3h-1.4v-5.2c0-0.7-0.1-1.2-0.4-1.5s-0.8-0.4-1.6-0.4c-0.5,0-1,0.1-1.4,0.3s-0.8,0.4-1.1,0.7v6.1H571.1
			z"/>
	</g>
	<g class="st5">
		<path class="st3" d="M327.4,969V958h7.2v1.1h-5.8v3.8h5.2v1.1h-5.2v4.9H327.4z"/>
		<path class="st3" d="M338.7,969.1c-1,0-1.7-0.3-2.2-0.8c-0.5-0.5-0.7-1.3-0.7-2.3v-5.1h1.4v5.2c0,0.7,0.2,1.2,0.5,1.5
			c0.3,0.3,0.9,0.5,1.6,0.5c0.5,0,1-0.1,1.4-0.3c0.4-0.2,0.8-0.4,1.1-0.7v-6.1h1.4v8.1h-1.3l-0.1-0.9c-0.4,0.3-0.8,0.6-1.4,0.8
			S339.3,969.1,338.7,969.1z"/>
		<path class="st3" d="M350.7,969.1c-1,0-1.8-0.1-2.4-0.4v-1.2c0.3,0.1,0.7,0.2,1,0.3c0.4,0.1,0.8,0.1,1.2,0.1
			c0.7,0,1.3-0.2,1.6-0.6c0.4-0.4,0.6-0.9,0.6-1.7c0-0.7-0.2-1.2-0.5-1.6c-0.4-0.4-1-0.6-1.8-0.6H349v-1.1h1.4
			c0.7,0,1.2-0.2,1.5-0.6c0.3-0.4,0.5-0.9,0.5-1.5c0-0.4-0.1-0.8-0.2-1.1c-0.2-0.3-0.4-0.6-0.9-0.7s-1-0.3-1.7-0.3
			c-1.8,0-2.8,0.9-2.8,2.8v7.9h-1.4v-8c0-0.8,0.2-1.5,0.5-2.1c0.3-0.6,0.8-1,1.4-1.4c0.6-0.3,1.4-0.5,2.2-0.5c0.9,0,1.7,0.2,2.3,0.5
			c0.6,0.3,1.1,0.7,1.4,1.2c0.3,0.5,0.4,1.1,0.4,1.7c0,0.6-0.1,1.2-0.4,1.6s-0.6,0.8-1,1c0.6,0.2,1,0.5,1.4,1
			c0.3,0.5,0.5,1.1,0.5,1.8c0,1.1-0.3,1.9-0.9,2.5C352.7,968.8,351.8,969.1,350.7,969.1z"/>
		<path class="st3" d="M357.9,969.1c-0.5,0-1-0.1-1.3-0.4c-0.3-0.3-0.5-0.8-0.5-1.5v-9.7h1.4v9.6c0,0.3,0.1,0.6,0.2,0.7
			c0.1,0.1,0.3,0.2,0.5,0.2c0.3,0,0.5,0,0.8-0.1v1.1c-0.2,0.1-0.4,0.1-0.5,0.1S358.1,969.1,357.9,969.1z"/>
		<path class="st3" d="M363.1,969.1c-0.5,0-1-0.1-1.4-0.3c-0.4-0.2-0.8-0.5-1-0.8c-0.3-0.4-0.4-0.8-0.4-1.4c0-0.7,0.2-1.3,0.7-1.8
			c0.5-0.5,1.3-0.7,2.4-0.7h2.8v-0.5c0-0.4-0.1-0.8-0.2-1.1s-0.3-0.4-0.7-0.6c-0.3-0.1-0.8-0.2-1.4-0.2c-0.5,0-1,0-1.4,0.1
			c-0.5,0.1-0.9,0.2-1.3,0.3v-1.2c0.4-0.1,0.8-0.2,1.3-0.3c0.5-0.1,1-0.1,1.6-0.1c1.1,0,2,0.2,2.6,0.7c0.6,0.5,0.9,1.2,0.9,2.3v5.3
			h-1.2l-0.1-0.9c-0.4,0.4-0.8,0.6-1.3,0.8C364.5,969.1,363.9,969.1,363.1,969.1z M363.5,968c0.6,0,1.1-0.1,1.6-0.3s0.8-0.5,1.2-0.9
			v-1.6h-2.8c-0.6,0-1.1,0.1-1.4,0.4c-0.3,0.2-0.4,0.6-0.4,1.1s0.2,0.8,0.5,1C362.5,967.9,362.9,968,363.5,968z M362.2,959.7v-1.3
			h1.3v1.3H362.2z M365.2,959.7v-1.3h1.3v1.3H365.2z"/>
		<path class="st3" d="M369.8,969v-8.1h1.3l0.1,0.9c0.4-0.3,0.8-0.6,1.4-0.8s1.1-0.3,1.8-0.3c1,0,1.8,0.2,2.2,0.7
			c0.5,0.5,0.7,1.2,0.7,2.2v5.3h-1.4v-5.2c0-0.7-0.1-1.2-0.4-1.5c-0.3-0.3-0.8-0.4-1.6-0.4c-0.5,0-1,0.1-1.4,0.3
			c-0.4,0.2-0.8,0.4-1.1,0.7v6.1H369.8z"/>
		<path class="st3" d="M382.6,972c-0.6,0-1.2,0-1.8-0.1c-0.6-0.1-1.1-0.2-1.5-0.3v-1.2c0.5,0.1,1,0.3,1.5,0.3
			c0.6,0.1,1.1,0.1,1.6,0.1c0.9,0,1.5-0.1,1.9-0.2c0.4-0.1,0.6-0.4,0.6-0.8c0-0.3-0.1-0.5-0.3-0.6c-0.2-0.1-0.6-0.2-1.1-0.2h-2.1
			c-1.5,0-2.2-0.5-2.2-1.5c0-0.3,0.1-0.6,0.3-0.9c0.2-0.3,0.5-0.5,0.9-0.6c-0.5-0.2-0.8-0.5-1-0.9s-0.3-0.9-0.3-1.4
			c0-1,0.3-1.7,0.9-2.2c0.6-0.5,1.5-0.7,2.7-0.7c0.2,0,0.5,0,0.8,0.1c0.3,0,0.5,0.1,0.6,0.1h2.9l-0.1,1h-1.5
			c0.3,0.2,0.4,0.5,0.6,0.8c0.1,0.3,0.2,0.6,0.2,1c0,0.9-0.3,1.6-0.8,2.1c-0.5,0.5-1.3,0.7-2.4,0.7c-0.2,0-0.3,0-0.5,0
			c-0.1,0-0.3,0-0.5-0.1c-0.4,0-0.7,0.1-1,0.3c-0.3,0.2-0.5,0.4-0.5,0.7c0,0.2,0.1,0.3,0.2,0.4c0.2,0.1,0.4,0.1,0.8,0.1h2.2
			c0.8,0,1.4,0.2,1.9,0.5c0.4,0.3,0.6,0.8,0.6,1.4c0,0.8-0.3,1.3-1,1.6C384.8,971.8,383.9,972,382.6,972z M382.7,965.4
			c0.8,0,1.4-0.1,1.7-0.4c0.3-0.3,0.5-0.7,0.5-1.4s-0.2-1.1-0.5-1.4c-0.3-0.3-0.9-0.4-1.6-0.4c-0.8,0-1.3,0.1-1.6,0.4
			c-0.3,0.3-0.5,0.8-0.5,1.4c0,0.6,0.2,1.1,0.5,1.4C381.4,965.3,381.9,965.4,382.7,965.4z"/>
		<path class="st3" d="M392.4,969.1c-1.4,0-2.5-0.3-3.2-1s-1.1-1.8-1.1-3.2c0-1.3,0.3-2.3,0.9-3.1s1.6-1.1,2.9-1.1
			c0.8,0,1.4,0.1,2,0.4s0.9,0.7,1.2,1.2c0.3,0.5,0.4,1.1,0.4,1.7v1.5h-6c0,0.6,0.2,1.1,0.4,1.4c0.2,0.4,0.6,0.6,1,0.8s1,0.2,1.8,0.2
			c0.8,0,1.6-0.1,2.3-0.4v1.1c-0.4,0.1-0.7,0.3-1.2,0.3C393.4,969.1,392.9,969.1,392.4,969.1z M389.5,964.6h4.7v-0.7
			c0-0.7-0.2-1.2-0.5-1.5c-0.3-0.4-0.9-0.5-1.7-0.5c-1,0-1.6,0.2-2,0.7C389.7,963,389.5,963.7,389.5,964.6z"/>
		<path class="st3" d="M397.5,969v-8.1h1.3l0.1,0.9c0.4-0.3,0.8-0.6,1.4-0.8s1.1-0.3,1.8-0.3c1,0,1.8,0.2,2.2,0.7
			c0.5,0.5,0.7,1.2,0.7,2.2v5.3h-1.4v-5.2c0-0.7-0.1-1.2-0.4-1.5c-0.3-0.3-0.8-0.4-1.6-0.4c-0.5,0-1,0.1-1.4,0.3
			c-0.4,0.2-0.8,0.4-1.1,0.7v6.1H397.5z"/>
	</g>
</g>
</svg>
