<?xml version="1.0" encoding="utf-8"?>
<!-- Generator: Adobe Illustrator 25.0.1, SVG Export Plug-In . SVG Version: 6.00 Build 0)  -->
<svg version="1.1" id="Layer_1" xmlns="http://www.w3.org/2000/svg" xmlns:xlink="http://www.w3.org/1999/xlink" x="0px" y="0px"
	 viewBox="0 0 250 250" style="enable-background:new 0 0 250 250;" xml:space="preserve">
<style type="text/css">
	.st0{fill:#707070;}
</style>
<path class="st0" d="M69.1,78.1H12.4c-5.1,0-9.3-4.2-9.3-9.3V12.2c0-5.1,4.2-9.3,9.3-9.3h56.6c5.1,0,9.3,4.2,9.3,9.3v56.6
	C78.4,74,74.2,78.1,69.1,78.1z M12.4,10.8c-0.7,0-1.3,0.6-1.3,1.3v56.6c0,0.7,0.6,1.3,1.3,1.3h56.6c0.7,0,1.3-0.6,1.3-1.3V12.2
	c0-0.7-0.6-1.3-1.3-1.3H12.4z"/>
<g>
	<path class="st0" d="M32.9,65c-1.3,0-2.5-0.5-3.5-1.6L14.1,48c-1.8-1.8-2-4.4-0.4-6.3c0.9-1.1,2.2-1.7,3.5-1.7c1.2,0,2.4,0.5,3.3,1.4
		c1,0.9,1.9,1.9,2.9,2.9c0,0,6.8,6.8,9.3,9.3l27.8-32.4c0.2-0.2,0.4-0.5,0.6-0.7c0.9-0.9,2-1.4,3.3-1.4c1.9,0,3.6,1.2,4.3,3l0.3,0.7
		v2l-0.3,0.5c-0.1,0.2-0.2,0.4-0.4,0.6c-0.3,0.5-0.7,1-1.1,1.6c-7.7,9-15.4,18-23.1,26.9l-7.4,8.7C35.6,64.3,34.3,65,32.9,65z"/>
</g>
<path class="st0" d="M69.1,163.4H12.4c-5.1,0-9.3-4.2-9.3-9.3V97.4c0-5.1,4.2-9.3,9.3-9.3h56.6c5.1,0,9.3,4.2,9.3,9.3V154
	C78.4,159.2,74.2,163.4,69.1,163.4z M12.4,96.1c-0.7,0-1.3,0.6-1.3,1.3V154c0,0.7,0.6,1.3,1.3,1.3h56.6c0.7,0,1.3-0.6,1.3-1.3V97.4
	c0-0.7-0.6-1.3-1.3-1.3H12.4z"/>
<path class="st0" d="M69.1,248.6H12.4c-5.1,0-9.3-4.2-9.3-9.3v-56.6c0-5.1,4.2-9.3,9.3-9.3h56.6c5.1,0,9.3,4.2,9.3,9.3v56.6
	C78.4,244.4,74.2,248.6,69.1,248.6z M12.4,181.3c-0.7,0-1.3,0.6-1.3,1.3v56.6c0,0.7,0.6,1.3,1.3,1.3h56.6c0.7,0,1.3-0.6,1.3-1.3
	v-56.6c0-0.7-0.6-1.3-1.3-1.3H12.4z"/>
<path class="st0" d="M230.1,217.9H105.3c-3.9,0-7-3.1-7-7s3.1-7,7-7h124.8c3.9,0,7,3.1,7,7S233.9,217.9,230.1,217.9z"/>
<path class="st0" d="M230.1,49H105.3c-3.9,0-7-3.1-7-7s3.1-7,7-7h124.8c3.9,0,7,3.1,7,7S233.9,49,230.1,49z"/>
<path class="st0" d="M230.1,133.5H105.3c-3.9,0-7-3.1-7-7s3.1-7,7-7h124.8c3.9,0,7,3.1,7,7S233.9,133.5,230.1,133.5z"/>
</svg>
