<svg xmlns="http://www.w3.org/2000/svg" width="17.028" height="18.476" viewBox="0 0 17.028 18.476">
  <g id="Gruppe_327" data-name="Gruppe 327" transform="translate(-517.073 -68.835)">
    <g id="Gruppe_15" data-name="Gruppe 15" transform="translate(520.306 68.835)">
      <path id="Pfad_36" data-name="Pfad 36" d="M553.052,82.339a1.919,1.919,0,0,1-1.92,1.921l-9.818,0a1.971,1.971,0,0,1-2.054-1.885c0-.053,0-7.715,0-11.494a1.975,1.975,0,0,1,1.9-2.045c.052,0,6.419,0,6.419,0,0,.082.01,2.091.01,3.023a1.977,1.977,0,0,0,1.863,2.086c.078,0,2.333,0,3.382,0,.176,0,.221.054.218.223C553.045,74.772,553.05,79.907,553.052,82.339Z" transform="translate(-539.258 -68.835)" fill="#7a7a7a"/>
      <path id="Pfad_38" data-name="Pfad 38" d="M605.51,71.4l3.706,3.389c-.092.008-.147.018-.2.018h-2.775a.654.654,0,0,1-.726-.71C605.508,73.219,605.51,72.345,605.51,71.4Z" transform="translate(-595.857 -71.028)" fill="#7a7a7a"/>
    </g>
    <path id="Pfad_36-2" data-name="Pfad 36" d="M530.868,103.284a1.919,1.919,0,0,1-1.919,1.921l-9.818,0a1.971,1.971,0,0,1-2.054-1.885c0-.053,0-7.715,0-11.494a1.974,1.974,0,0,1,1.9-2.045l.068,11.254a2.265,2.265,0,0,0,2.265,2.251Z" transform="translate(0 -17.894)" fill="#7a7a7a"/>
  </g>
</svg>
