<svg xmlns="http://www.w3.org/2000/svg" width="20.779" height="20.805" viewBox="0 0 20.779 20.805">
  <g id="stift" transform="translate(-136.001 -258.89)">
    <path id="Pfad_488" data-name="Pfad 488" d="M370.854,263.156a4.142,4.142,0,0,1-1.391,1.867l-4.717-4.717a3.782,3.782,0,0,1,2-1.416h.569a2.942,2.942,0,0,1,1.62,1.031c.3.321.61.631.93.93a3,3,0,0,1,.985,1.492Z" transform="translate(-214.074)" fill="#ffffff"/>
    <path id="Pfad_489" data-name="Pfad 489" d="M188.705,291.92l4.656,4.656-11.372,11.372-4.656-4.656Z" transform="translate(-38.681 -30.912)" fill="#ffffff"/>
    <path id="Pfad_490" data-name="Pfad 490" d="M138.153,482.5l4.31,4.31L136,488.959Z" transform="translate(0 -209.264)" fill="#ffffff"/>
  </g>
</svg>
