<?xml version="1.0" encoding="UTF-8"?>
<svg id="Ebene_1" data-name="Ebene 1" xmlns="http://www.w3.org/2000/svg" version="1.1" viewBox="0 0 214.6 214.6">
  <defs>
    <style>
      .cls-1 {
        fill: #fff;
      }

      .cls-1, .cls-2 {
        stroke-width: 0px;
      }

      .cls-2 {
        fill: #777;
      }
    </style>
  </defs>
  <g>
    <path class="cls-2" d="M188.7,1.1H25.8C11.6,1.1,0,12.7,0,27v162.9c0,14.3,11.6,25.8,25.8,25.8h162.9c14.3,0,25.8-11.6,25.8-25.8V27c0-14.3-11.6-25.8-25.8-25.8ZM149.5,20.1l-33.9,64.3,33.7,64.3-57-54-57.2,54,33.7-64.3L35.1,19.9l57.2,54.2,57.2-54ZM38.5,196.1c0,.5-.4.8-.8.8h-16.3c-2.7,0-3.5-.6-3.5-2.9s.2-1.8.6-2.5l15.1-22.1c0,0,0-.3,0-.3,0-.2-.2-.3-.4-.3h-13.9c-.4,0-.8-.3-.8-.7v-2c0-.4.3-.7.8-.7h15c2.4,0,3.6.4,3.6,2.8s-.3,1.9-.7,2.5l-15.1,22c0,.2,0,.3,0,.3,0,.2,0,.3.4.3h15.2c.4,0,.8.3.8.7v2ZM65.4,185.5c.2,8.1-3.8,11.8-10.7,11.8s-10.9-3.6-10.9-11.7v-19.3c0-.4.3-.8.8-.8h2.3c.4,0,.8.3.8.8v19.2c0,5.4,1.7,8.4,7,8.4s7-2.9,7-8.4v-19.2c0-.4.3-.8.8-.8h2.3c.4,0,.8.3.8.8v19.2ZM91.3,195.7c0,.5-.3.8-.8.9-2,.3-4.4.6-8.4.6s-10.9-3.5-10.9-13.2v-5.7c0-10.3,5.9-13.2,11.4-13.2s6.4.3,8.1.6c.3,0,.7.2.7.6v2.1c0,.3-.2.4-.5.4h-.2c-2.5-.2-4.4-.3-8.1-.3s-7.5,2.1-7.5,9.8v5.7c0,7,3.1,9.8,7.1,9.8s4.3-.2,5.3-.3v-12.1c0-.4.3-.8.8-.8h2.3c.4,0,.8.3.8.8v14.2ZM118.8,170.4c0,.6-.3,1-.8,1h-8.6c-2,0-2.7.7-2.7,2.9v3.8h10.9c.4,0,.8.3.8.8v4c0,.4-.3.8-.8.8h-10.9v12.3c0,.4-.3.8-.8.8h-5.5c-.4,0-.8-.3-.8-.8v-21.9c0-7.7,4.8-9.1,10.4-9.1s6.7.3,8.1.5c.6,0,.8.3.8.8v3.9ZM143,186c0,.7-.3,1-.8,1h-13.5c0,2.5,1,4.7,4.3,4.7s6.4-.2,8.1-.3h0c.4,0,.8.2.8.7v3.2c0,.7-.2.9-.8,1.1-2.7.7-5,1-8.7,1s-10.6-2.7-10.6-10.9v-3c0-6.8,4-11.1,10.7-11.1s10.4,4.8,10.4,11.1v2.5ZM171.5,197h-6.4c-.4,0-.6-.4-.8-.8l-5.7-10.7h-.4c-.8,0-2.2,0-3,0v10.8c0,.4-.3.8-.8.8h-5.5c-.4,0-.8-.3-.8-.8v-28.3c0-1.4.6-1.8,1.9-2,2-.3,5.5-.5,8.6-.5,7.2,0,12.7,2.4,12.7,9.9v.5c0,4.5-2.4,7.2-5.4,8.5l6.4,12c0,.2,0,.3,0,.4,0,.3-.2.4-.6.4ZM200.4,184c0,8.9-5.1,13.4-13.5,13.4-3.5,0-7.3-.3-9-.6-.8-.2-1.2-.5-1.2-1.4v-28.1c0-.9.4-1.4,1.2-1.4,1.7-.3,5.5-.6,9-.6,8.4,0,13.5,4.4,13.5,13.3v5.4Z"/>
    <path class="cls-2" d="M158.4,171.4c-.6,0-2.8,0-3.3,0v8.1c.4,0,2.5,0,3,0,4.4,0,5.9-1.1,5.9-4v-.6c0-2.5-2-3.7-5.5-3.7Z"/>
    <polygon class="cls-2" points="92.3 94.7 103.3 84.4 92.4 74.1 81.4 84.4 92.3 94.7"/>
    <path class="cls-2" d="M132.5,178c-2.4,0-3.9,1.6-3.9,4.7v.2h7.7v-.2c0-3.1-1.4-4.7-3.8-4.7Z"/>
    <path class="cls-2" d="M186.9,171.4c-1,0-2.4,0-3,0v19.8c.6,0,2,0,3,0,3.8,0,6.3-1.5,6.3-7.2v-5.5c0-5.7-2.5-7.2-6.3-7.2Z"/>
  </g>
  <g>
    <path class="cls-1" d="M146.5,100.7v-3.4l14.3-13.8c1.3-1.2,2.2-2.3,2.8-3.2.6-.9,1-1.8,1.3-2.6.2-.8.3-1.5.3-2.3,0-1.8-.6-3.2-1.9-4.3-1.3-1-3.1-1.6-5.6-1.6s-3.6.3-5.1.9c-1.5.6-2.8,1.6-3.9,2.9l-3.4-3c1.3-1.7,3.1-3,5.4-3.9,2.3-.9,4.7-1.4,7.5-1.4s4.6.4,6.4,1.2c1.8.8,3.2,1.9,4.2,3.4,1,1.5,1.5,3.2,1.5,5.2s-.2,2.3-.5,3.4-.9,2.3-1.7,3.5c-.8,1.2-2,2.6-3.6,4.2l-12.8,12.3-1.2-2h21.2v4.4h-25.3Z"/>
    <path class="cls-1" d="M179.7,101c-.9,0-1.7-.3-2.4-1-.7-.7-1-1.5-1-2.5s.3-1.8,1-2.5c.7-.6,1.5-1,2.4-1s1.7.3,2.3,1c.7.6,1,1.5,1,2.5s-.3,1.8-1,2.5c-.7.7-1.4,1-2.3,1Z"/>
    <path class="cls-1" d="M193.1,100.7v-33.1l2.2,2.4h-10.1v-4.4h12.9v35.2h-5Z"/>
  </g>
</svg>