<?xml version="1.0" standalone="no"?>
<!DOCTYPE svg PUBLIC "-//W3C//DTD SVG 20010904//EN"
 "http://www.w3.org/TR/2001/REC-SVG-20010904/DTD/svg10.dtd">
<svg version="1.0" xmlns="http://www.w3.org/2000/svg"
 width="200.000000pt" height="205.000000pt" viewBox="0 0 200.000000 205.000000"
 preserveAspectRatio="xMidYMid meet">
<metadata>
Created by potrace 1.16, written by Peter Selinger 2001-2019
</metadata>
<g transform="translate(0.000000,205.000000) scale(0.100000,-0.100000)"
fill="#000000" stroke="none">
<path d="M853 2036 c-60 -33 -92 -84 -118 -187 -16 -62 -18 -65 -61 -83 -65
-27 -154 -87 -215 -145 -46 -45 -58 -51 -84 -47 -85 15 -164 18 -198 7 -81
-27 -99 -102 -47 -206 39 -79 97 -158 103 -142 3 7 6 6 6 -5 1 -9 -4 -18 -9
-20 -11 -3 -17 -30 -29 -130 -1 -3 -18 -17 -38 -29 -61 -38 -141 -118 -153
-155 -30 -90 48 -165 186 -178 43 -5 44 -4 38 22 -4 15 -11 36 -16 47 -9 19
-8 19 5 2 13 -16 15 -16 21 -2 3 9 2 13 -4 10 -6 -3 -10 4 -11 17 0 13 -3 17
-6 11 -2 -7 -13 -13 -24 -13 -31 0 -99 31 -99 46 0 8 17 31 38 52 22 20 41 44
44 52 4 10 8 5 13 -15 4 -16 11 -34 15 -40 4 -5 6 -18 5 -28 -2 -9 0 -15 5
-12 9 6 8 24 -2 40 -5 9 -3 78 5 130 2 11 0 27 -5 37 -5 11 -2 18 9 22 9 4 13
9 10 13 -4 3 -1 13 6 21 6 9 7 13 1 9 -7 -4 -11 7 -12 31 0 31 1 34 8 15 5
-13 12 -23 14 -23 3 0 3 7 0 15 -4 8 0 23 7 32 10 11 10 14 2 9 -10 -5 -12 4
-11 34 1 23 5 35 9 29 4 -7 6 -21 4 -31 -2 -10 0 -16 6 -13 5 4 7 10 4 15 -3
4 2 13 10 20 8 7 13 16 10 20 -3 4 4 18 14 31 19 24 21 30 21 50 0 5 6 7 13 3
6 -4 9 -4 5 1 -10 10 11 47 22 40 10 -6 5 28 -6 47 -4 6 -3 8 4 4 6 -3 12 -1
15 6 2 7 3 6 2 -3 -1 -9 3 -16 10 -16 9 0 10 8 5 28 -6 20 -5 28 3 26 7 -1 10
5 9 13 -2 8 0 12 3 8 11 -11 47 11 39 24 -4 6 -3 8 4 4 6 -3 15 2 21 11 6 10
11 13 11 6 0 -7 -18 -27 -40 -44 -22 -18 -39 -39 -39 -48 1 -13 2 -12 6 2 2 9
9 14 15 11 7 -5 8 -2 3 6 -6 10 -4 12 9 7 9 -4 15 -3 12 2 -3 4 3 16 13 25 13
11 21 14 26 7 3 -6 2 -11 -3 -11 -6 0 -13 -8 -17 -17 -3 -10 10 -3 29 16 35
34 45 48 27 37 -5 -3 -11 6 -14 19 -2 14 -2 23 1 21 3 -3 11 2 19 12 13 15 13
14 3 -6 -7 -13 -9 -26 -6 -30 3 -3 6 0 6 7 0 7 4 10 9 6 5 -3 12 -1 16 5 4 6
10 8 14 6 4 -3 6 8 5 24 -1 22 1 27 14 22 10 -4 12 -7 4 -10 -7 -2 -12 -8 -12
-13 0 -16 21 1 30 25 7 17 9 17 9 4 1 -10 5 -18 10 -18 6 0 8 9 6 20 -2 11 1
23 7 26 6 4 8 3 5 -3 -4 -6 0 -13 8 -17 8 -3 17 0 21 6 4 6 3 8 -3 5 -5 -3
-10 0 -10 8 0 8 4 12 8 9 4 -2 10 0 13 5 4 5 12 8 19 7 20 -3 38 -17 32 -26
-3 -5 -1 -12 5 -15 6 -4 9 -1 8 7 -2 7 2 12 9 11 6 -2 21 9 32 23 11 14 25 23
31 19 5 -3 10 -2 10 4 0 5 11 8 25 5 14 -2 25 -1 25 4 0 15 221 6 291 -11 251
-61 455 -254 524 -492 9 -33 22 -69 27 -79 8 -15 7 -18 -4 -13 -33 12 -43 -10
-35 -75 4 -36 11 -42 28 -21 12 14 12 16 0 8 -9 -5 -12 -4 -7 3 3 6 2 13 -3
16 -11 7 -11 55 0 61 4 3 11 0 15 -6 4 -7 3 -9 -3 -6 -6 4 -10 -4 -10 -18 0
-22 2 -24 16 -13 14 11 14 11 3 -3 -10 -13 -10 -18 1 -27 10 -8 11 -27 7 -69
-4 -34 -3 -61 3 -64 5 -4 4 -8 -3 -11 -6 -2 -12 -19 -13 -38 -1 -19 -6 -38
-11 -41 -5 -4 -8 -18 -8 -33 0 -14 -4 -26 -9 -26 -5 0 -9 -5 -9 -11 0 -5 4 -7
10 -4 6 3 7 -1 4 -9 -3 -9 -11 -13 -16 -10 -6 4 -4 -4 3 -17 11 -21 10 -22 -2
-12 -13 10 -15 8 -13 -17 1 -17 -2 -33 -7 -36 -5 -3 -6 -10 -3 -16 4 -6 2 -8
-3 -5 -16 10 -24 -18 -10 -33 8 -8 5 -8 -10 1 -18 11 -25 11 -35 1 -11 -11
-10 -12 3 -7 10 4 20 0 25 -7 4 -7 3 -10 -1 -5 -5 4 -17 -1 -28 -10 -10 -10
-22 -18 -25 -18 -6 0 -5 -14 1 -35 1 -3 -2 -5 -7 -5 -9 0 -30 -45 -27 -58 1
-5 -3 -6 -9 -2 -8 5 -8 11 0 20 7 8 10 22 7 32 -4 14 -5 13 -6 -4 0 -13 -4
-22 -8 -22 -19 3 -23 -2 -14 -19 8 -15 3 -26 -28 -56 -28 -27 -41 -34 -46 -25
-6 8 -4 10 5 4 9 -6 11 -4 5 5 -6 9 -4 11 5 5 9 -6 11 -4 5 5 -6 9 -4 11 5 5
9 -6 11 -4 5 5 -6 9 -4 11 6 5 8 -5 10 -4 6 0 -10 12 -39 16 -32 4 3 -4 -17
-25 -45 -45 -27 -20 -50 -41 -50 -47 0 -7 5 -6 11 3 7 10 9 11 7 2 -2 -8 -7
-12 -10 -10 -4 2 -14 -6 -22 -17 -8 -11 -20 -20 -28 -20 -7 -1 -12 -6 -11 -11
2 -10 -33 -13 -39 -3 -2 2 -1 3 1 2 2 -1 13 3 25 9 11 7 24 11 28 10 4 -1 4 6
1 15 -4 11 -8 13 -11 5 -2 -7 -9 -9 -14 -6 -7 5 -8 2 -3 -6 6 -10 4 -12 -8 -7
-8 3 -21 -1 -27 -8 -7 -8 -16 -12 -21 -10 -4 3 -15 -7 -24 -22 -9 -15 -14 -20
-11 -11 4 13 0 16 -17 12 -38 -9 -52 -12 -54 -14 -2 -2 -12 -4 -23 -5 -11 -1
-22 -4 -25 -5 -3 -1 -13 -3 -22 -4 -23 -2 -43 -14 -43 -26 0 -6 11 -9 25 -8
14 1 25 5 25 8 0 3 17 4 38 2 24 -2 44 2 57 13 16 13 17 16 3 11 -10 -3 -20 0
-24 7 -4 7 -4 9 1 5 4 -4 16 -3 25 2 24 13 21 2 -18 -82 -19 -42 -37 -68 -47
-68 -8 0 -30 20 -47 45 -18 25 -36 45 -41 45 -5 0 -7 9 -4 20 6 24 -2 26 -18
3 -11 -15 -13 -15 -24 5 -12 22 -31 22 -31 -1 0 -7 4 -6 10 3 6 9 10 10 10 3
0 -23 -20 -24 -29 -1 -8 20 -10 20 -10 4 -1 -20 -1 -20 -17 0 -8 10 -13 13 -9
7 7 -15 -11 -18 -19 -4 -4 5 -14 8 -24 7 -9 -2 -30 1 -46 5 -20 6 -26 5 -20
-1 6 -6 26 -12 45 -14 19 -2 45 -8 59 -13 14 -6 29 -8 34 -5 5 2 6 -1 4 -9
-12 -33 76 -155 133 -185 36 -18 53 -18 95 2 42 20 75 74 104 171 11 40 24 72
28 71 16 -3 61 15 56 23 -3 5 3 6 12 2 14 -5 16 -3 11 12 -6 14 -5 16 6 6 11
-8 29 -1 82 33 56 36 73 42 92 35 52 -19 146 -28 192 -18 114 25 130 114 47
252 l-35 58 20 47 c36 82 59 201 59 302 l1 95 55 38 c61 43 102 98 110 148 13
77 -77 140 -217 155 -60 6 -68 9 -84 36 -32 55 -147 168 -220 217 -92 61 -199
106 -306 127 l-85 16 -25 47 c-32 62 -95 129 -137 147 -40 16 -40 16 -69 0z
m-524 -552 c2 -2 -10 -31 -28 -64 -29 -55 -34 -89 -10 -74 5 3 6 10 3 16 -4 7
-2 8 4 4 11 -7 17 6 13 27 -1 5 4 5 10 1 9 -5 10 -2 5 12 -4 10 -4 15 0 12 9
-9 33 15 26 26 -3 5 0 6 6 2 9 -5 4 -18 -14 -41 -14 -19 -26 -40 -28 -47 -1
-7 -9 -24 -18 -37 -10 -13 -15 -28 -12 -32 2 -4 0 -10 -5 -13 -5 -3 -11 3 -14
14 -3 11 -1 17 4 14 17 -10 3 32 -17 52 -11 11 -31 42 -44 69 -23 47 -23 48
-4 62 14 10 33 12 69 7 28 -3 52 -8 54 -10z"/>
</g>
</svg>
