<?xml version="1.0" encoding="utf-8"?>
<!-- Generator: Adobe Illustrator 25.0.1, SVG Export Plug-In . SVG Version: 6.00 Build 0)  -->
<svg version="1.1" id="Layer_1" xmlns="http://www.w3.org/2000/svg" xmlns:xlink="http://www.w3.org/1999/xlink" x="0px" y="0px"
	 viewBox="0 0 400 400" style="enable-background:new 0 0 400 400;" xml:space="preserve">
<g>
	<path d="M200,398.4c-7.7,0-15.2-3.3-21.8-9.5l-2.3-2.2c-6.5-6.2-13.2-12.6-19.6-19.1c-4.4-4.4-9.6-6.7-15.4-6.7
		c-1.4,0-2.8,0.1-4.3,0.4c-10.3,1.7-20.5,3.2-30.1,4.3c-1.7,0.2-3.4,0.3-5.1,0.3c-16.4,0-27.5-10-30.4-27.5
		c-0.8-4.7-1.6-9.4-2.4-14.1c-0.8-4.6-1.7-9.9-2.6-15c-1.2-7.2-5-12.5-11.5-15.8c-8-4.1-16-8.4-23.7-12.5l-3.3-1.8
		c-16.7-8.9-21.9-25.1-13.6-42.2c0.8-1.7,2.7-5.7,2.7-5.7c3.3-6.8,6.6-13.8,10.2-20.6c3.8-7.2,3.8-14.3,0.1-21.4
		c-4.4-8.3-8.5-17-12.5-25.4l-0.7-1.6c-8-16.7-2.8-32.6,13.4-41.4l0.8-0.4c8.5-4.6,17.3-9.4,26.1-13.8c7-3.5,11-9.1,12.2-17.1
		c1.7-11.2,3.4-21,5.3-29.9C74.8,43.3,85.7,34,101.4,34c2.2,0,4.4,0.2,6.7,0.6c6.8,1.1,13.6,2,20.3,3c3.3,0.5,6.6,0.9,9.8,1.4
		c1.1,0.2,2.2,0.2,3.2,0.2c5.3,0,9.9-2,13.9-5.8c2.4-2.4,4.9-4.8,7.2-6.9c3.8-3.7,7.8-7.4,11.5-11.3c7.7-8,14.6-12.1,22.4-13.5
		l0.1,0h7l0.1,0c7.8,1.4,14.7,5.6,22.4,13.5c3.3,3.4,6.7,6.6,10,9.7c2.7,2.6,5.5,5.2,8.1,7.9c4.2,4.2,9.2,6.4,14.9,6.4
		c1.3,0,2.7-0.1,4.1-0.3c11.8-1.9,21.4-3.3,30.2-4.4c1.8-0.2,3.6-0.3,5.3-0.3c16.2,0,27.2,9.8,30.3,26.9c2.1,11.8,3.7,20.9,5,29.4
		c1.2,7.4,5.1,12.8,11.7,16.1c9.6,4.9,19.2,10,27.3,14.5c16.2,8.8,21.4,24.7,13.4,41.4c-4.2,8.8-8.7,18.1-13.4,27.4
		c-3.5,6.8-3.5,13.8,0.1,20.7c3.4,6.6,6.7,13.4,9.9,20c1,2.1,2.1,4.3,3.1,6.4c8.6,17.6,3.4,33.6-13.8,42.7c-2.4,1.3-4.7,2.5-7.1,3.8
		c-6.3,3.4-12.7,6.9-19.2,10.1c-6.8,3.4-10.8,9-12.1,16.8c-1.4,9.1-3.2,19.9-5.3,30.4c-3.2,16-14.4,25.5-29.8,25.5
		c-2.1,0-4.3-0.2-6.5-0.5c-7-1.1-14.3-2.1-20.7-3l-0.7-0.1c-3-0.4-6.1-0.9-9.1-1.3c-1.1-0.2-2.1-0.2-3.1-0.2c-5.2,0-9.9,2-13.9,5.9
		c-7.6,7.5-15.3,14.9-22.9,22.1C215.2,395.1,207.7,398.4,200,398.4z M141.3,349.3c8.8,0,16.4,3.3,23.3,10.2
		c5.5,5.5,11.1,10.9,16.6,16.1c1.7,1.6,3.3,3.2,5,4.8c4.4,4.2,9,6.4,13.8,6.4c4.8,0,9.4-2.1,13.8-6.3c1.7-1.7,3.5-3.3,5.2-5l0.3-0.3
		c5.3-5.1,10.8-10.3,16.1-15.7c6.7-6.9,14.4-10.2,23.4-10.2c2.3,0,4.8,0.2,7.3,0.7c7.4,1.3,14.8,2.3,22,3.2l0.4,0.1
		c2.9,0.4,5.8,0.8,8.6,1.2l0.4,0.1l0.8,0c9.8,0,16.9-5.8,18.7-15.1c0.3-1.7,0.7-3.5,1-5.2l0.1-0.5c1.4-7.1,2.8-14.4,3.7-21.8
		c1.7-14.8,8.6-24.4,21.6-30.3c6-2.7,11.9-6,17.5-9l0.1-0.1c2.1-1.2,4.3-2.3,6.4-3.5c11-5.9,14-15.3,8.6-26.5l-1-2
		c-4.1-8.5-8.4-17.3-12.7-26c-4.9-9.8-4.9-19.3,0.1-29.1c3.2-6.3,6.3-12.7,9.3-18.8c1.3-2.6,2.5-5.1,3.8-7.7
		c6.3-13,3.5-21.7-9.1-28.5c-2.4-1.3-7.5-4-7.5-4c-6.2-3.3-12.6-6.7-19-10c-9.8-5.1-15.3-12.7-17.1-24c-1.5-9-3.2-18.9-5.5-31.2
		c-1.8-9.9-8.6-15.8-18.1-15.8c-1.2,0-2.4,0.1-3.6,0.3c-2.6,0.4-5.1,0.7-7.7,1.1L287,47c-7.2,1-14.7,2.1-22.1,3.3
		c-2.1,0.3-4.2,0.5-6.2,0.5c-8.8,0-16.4-3.3-23.1-10.1c-5.2-5.3-10.6-10.4-15.8-15.4l-0.2-0.2c-1.9-1.8-3.7-3.6-5.6-5.4
		c-4.5-4.3-9.2-6.5-14-6.5c-4.8,0-9.4,2.2-13.9,6.5c-4.5,4.4-9.1,8.8-13.6,13.2c0,0-6.1,5.9-9,8.8c-6.4,6.2-13.3,9.2-21,9.2
		c-1.4,0-2.7-0.1-4.2-0.3c-11.6-1.5-22.3-3-32.7-4.5c-1.5-0.2-3-0.3-4.4-0.3c-13.3,0-17.2,10.3-18.4,16.4c-0.3,1.8-0.7,3.6-1,5.4
		c-1.3,6.7-2.7,13.6-3.5,20.6c-1.6,14.9-8.6,24.6-21.8,30.6c-6.1,2.8-12,6-17.7,9.1l-0.1,0.1c-2.1,1.1-4.1,2.3-6.2,3.4
		c-10.7,5.7-13.8,15.3-8.5,26.2l1.1,2.4c4.1,8.4,8.3,17.1,12.6,25.6c5,10,5,19.4,0,29.4c-3.4,6.7-6.7,13.5-9.8,20l-0.4,0.8
		c-1.1,2.2-2.1,4.4-3.2,6.5c-5.8,12-2.9,20.9,9,27.3c2.5,1.3,5,2.6,7.4,4c6.3,3.4,12.9,6.9,19.4,10.3c10,5.2,15.5,12.9,17.3,24.3
		c1.8,11.2,3.8,22.4,5.4,30.8c1.9,10.1,8.6,15.9,18.2,15.9c1.3,0,2.7-0.1,4.1-0.3c5.3-0.8,10.7-1.6,15.9-2.3
		c4.8-0.7,9.6-1.4,14.5-2.1C137.6,349.5,139.5,349.3,141.3,349.3z"/>
	<path d="M122.4,283.5c-2.6,0-4.1-0.9-5.2-3.1c-0.9-1.7-1.4-3.6,0.7-6.3c0.5-0.6,119-119.2,154-154.2c2.6-2.6,4.1-3.5,5.9-3.5
		c2.8,0,5.2,1.9,6.1,4.8l-0.1,0.9c-0.7,1.6-2,4.4-2,4.4l-0.1,0.1c-0.2,0.2-118.7,118.6-153.1,153.1c-2.6,2.6-4,3.7-5.7,3.8
		L122.4,283.5z"/>
	<path d="M152.7,174.3c-10,0-19.3-3.9-26.3-11c-7-7.1-10.8-16.5-10.7-26.6c0.1-20.3,16.8-36.8,37.1-36.8l0.3,0
		c20.4,0.2,37,17,36.9,37.5c-0.1,20.4-16.7,36.9-37.1,36.9L152.7,174.3z M152.9,111.6c-14.1,0-25.3,11-25.6,25.1
		c-0.2,6.6,2.5,13.3,7.3,18.2c4.9,5,11.5,7.8,18.3,7.8c14.1,0,25.5-11.5,25.6-25.6c0.1-14-11.3-25.5-25.4-25.6L152.9,111.6z"/>
	<path d="M247,300.1c-20.5-0.1-37.1-16.8-37-37.3c0-20.4,16.7-37.1,37.1-37.1c20.4,0,37.1,16.6,37.2,37c0,9.9-3.8,19.3-10.9,26.4
		c-7,7.1-16.3,11-26.2,11H247z M247.1,237.2c-6.7,0-13.3,2.8-18.2,7.7c-4.9,5-7.5,11.4-7.4,18.3c0.2,14.1,11.5,25.2,25.6,25.2h0.2
		c14.1-0.1,25.5-11.5,25.5-25.5c0-14-11.5-25.5-25.5-25.6H247.1z"/>
</g>
</svg>
