<?xml version="1.0" encoding="UTF-8"?>
<svg xmlns="http://www.w3.org/2000/svg" version="1.1" viewBox="0 0 1000 1000">
  <!-- Generator: Adobe Illustrator 28.7.3, SVG Export Plug-In . SVG Version: 1.2.0 Build 164)  -->

    <defs>
    <style>
      .cls-1 {
        fill: #858585;
      }
    </style>
  </defs>

  <g>
    <g id="Ebene_1">
      <g>
        <path class="cls-1" d="M881.63,680.4c-17.23-8.61-38.02-5.98-52.49,8.2-24.21,23.73-47.73,48.16-74.19,74.98-8.29-9.24-14.7-17.15-21.9-24.26-21.17-20.92-49.43-21.71-68.47-2.3-18.61,18.98-17.67,46.85,2.58,67.45,17.33,17.63,34.86,35.07,52.45,52.45,22.48,22.23,49.07,22.59,71.85.21,33.88-33.3,67.68-66.72,100.5-101.05,7.22-7.55,12.55-18.69,14.63-29.01,3.85-19.03-7.61-37.99-24.97-46.66Z"/>
        <path class="cls-1" d="M194.13,255.95c1.53,11.03,5.25,23.59,12.34,31.65,19.12,21.75,40.23,41.81,61.19,61.86,18.2,17.41,43.49,16.77,59.63-.45,15.09-16.1,13.75-40.11-3.45-57.62-14.15-14.4-28.87-28.25-42.56-43.07-3.76-4.07-6.42-10.7-6.6-16.25-.74-22.69-.03-45.42-.41-68.13-.38-23.33-18.66-41.28-40.89-40.86-21.85.41-39.24,18.08-39.7,40.82-.32,15.56-.06,31.13-.07,46.69,0,15.14-1.56,30.5.5,45.36Z"/>
        <path class="cls-1" d="M907.89.97H88.5C39.23.97-.72,40.92-.72,90.2v819.38c0,49.28,39.95,89.23,89.23,89.23h819.38c49.28,0,89.23-39.95,89.23-89.23V90.2c0-49.28-39.95-89.23-89.23-89.23ZM243.22,52.68c108.33.12,196.71,88.77,196.58,197.18-.13,108.33-88.79,196.75-197.15,196.63-108.28-.13-196.69-88.82-196.57-197.2.12-108.32,88.77-196.73,197.14-196.6ZM954.67,866.93c-.1,55.4-39.33,94.47-94.87,94.54-58.01.07-116.02.09-174.03,0-55.33-.09-94.41-39.37-94.52-94.9-.06-29.01-.01-58.02,0-87.03,0-29.33-.09-58.65.02-87.98.21-54.12,39.65-93.46,93.93-93.56,58.33-.12,116.65-.1,174.98,0,55.35.08,94.42,39.32,94.5,94.88.09,58.02.1,116.05,0,174.07ZM964.56,435.68c-3.78,31.62-19.26,60.55-43.61,81.45-24.07,20.67-55.1,32.09-87.4,32.17-38.21.09-79.52.13-130,.13-30.58,0-61.15-.01-91.73-.03-30.57-.01-61.14-.03-91.71-.03h-204.75c-47.48,0-94.94,0-142.42,0-35.01,0-54.3,19.42-54.31,54.66,0,6.96-.01,13.92-.02,20.87-.02,20.14-.04,40.96.04,61.43.12,30.5,20.74,51.02,51.32,51.06,25.12.04,50.25.04,75.37.04h75.49c18.8,0,37.59,0,56.39.01,20.66.02,36.48,11.26,42.33,30.08,5.59,17.99-1.37,37.27-16.93,46.9-7.47,4.62-16.17,7.29-23.86,7.33-9.87.05-19.75.1-29.62.15-32.11.17-65.32.34-97.99.34s-62.41-.18-89.33-.56c-33.33-.47-65.06-14.34-89.35-39.06-24.15-24.58-37.75-56.58-38.27-90.09-.49-31.16-.5-63.17-.02-97.85.47-34.12,14.29-66.45,38.91-91.05,24.66-24.63,57.03-38.38,91.16-38.71,20.98-.2,43.6-.3,71.2-.3,17.12,0,34.23.04,51.35.07,17.1.04,34.2.07,51.3.07h488.74c36.15,0,55.26-19.24,55.27-55.63,0-6.51.01-13.02.03-19.53.03-15.6.06-31.74-.06-47.58-.22-29.47-20.93-50.08-50.38-50.12-26.26-.03-52.52-.04-78.78-.04h-37.16c-60.64,0-120.06-.02-180.33-.33-10.23-.05-21.77-3.64-30.87-9.59-14.24-9.31-19.99-27.94-13.99-45.3,5.75-16.65,18.65-27,36.32-29.15,1.58-.19,3.24-.28,5.22-.28.87,0,1.74.02,2.61.04.71.01,1.41.03,2.11.03h178.21c37.76,0,75.53,0,113.29,0,39.19,0,74.59,13.86,99.67,39.02,24.98,25.04,38.68,60.26,38.59,99.16-.02,7.2.07,14.59.15,21.73.26,22.43.52,45.63-2.21,68.48Z"/>
      </g>
    </g>
  </g>
</svg>