<?xml version="1.0" encoding="utf-8"?>
<!-- Generator: Adobe Illustrator 25.0.1, SVG Export Plug-In . SVG Version: 6.00 Build 0)  -->
<svg version="1.1" id="Layer_1" xmlns="http://www.w3.org/2000/svg" xmlns:xlink="http://www.w3.org/1999/xlink" x="0px" y="0px"
	 viewBox="0 0 400 400" style="enable-background:new 0 0 400 400;" xml:space="preserve">
<g>
	<path d="M196.3,392c-3.9-1.6-6.1-4.2-6-11.5c0.2-39.6,0.1-172.9,0.1-172.9s-150,0-172.6,0.1h-0.1c-7.2,0-9.7-2.2-11.3-6v-3.4
		c1.6-3.8,4.1-6,11.3-6l0.1,0c22.6,0.1,172.6,0.1,172.6,0.1s0.1-133.2-0.1-172.9c0-7.3,2.2-9.9,6-11.5h3.3c3.9,1.6,6.1,4.2,6,11.5
		c-0.2,39.9-0.1,172.9-0.1,172.9s143.8,0,174.2,0c4.8,0,6.5,1.1,7.6,2.3c2.4,2.6,2.9,5,1.7,8c-1.2,3-3.2,4.5-6.7,4.9
		c-0.5,0.1-176.8,0.1-176.8,0.1s-0.1,133,0.1,172.9c0,7.3-2.2,9.9-6,11.5H196.3z"/>
</g>
</svg>
