<?xml version="1.0" encoding="utf-8"?>
<!-- Generator: Adobe Illustrator 25.0.1, SVG Export Plug-In . SVG Version: 6.00 Build 0)  -->
<svg version="1.1" id="Layer_1" xmlns="http://www.w3.org/2000/svg" xmlns:xlink="http://www.w3.org/1999/xlink" x="0px" y="0px"
	 viewBox="0 0 300 300" style="enable-background:new 0 0 300 300;" xml:space="preserve">
<style type="text/css">
	.st0{fill:#FFFFFF;}
</style>
<path fill="#707070" d="M268.9,58.8c-22.3-29-51.5-47.8-87.4-55.3C136.7-5.8,95.6,3.4,59.1,31C29.7,53.3,11.2,82.8,3.4,118.8
	c-1.4,6.4-1.9,12.9-2.9,19.4c-0.2,1-0.4,2.1-0.5,3.1c0,5.9,0,11.7,0,17.6c0.8,5.7,1.3,11.4,2.3,17c8.4,44.9,32.3,79.2,71.2,103.1
	c20,12.3,42,19,65.5,20.6c0.8,0.1,1.5,0.3,2.3,0.5c5.9,0,11.7,0,17.6,0c5.7-0.8,11.4-1.3,17.1-2.3c34.6-6.2,63.5-22.5,86.8-48.8
	c21.2-24,33.5-52,36.6-83.8C303,125.8,293,90.1,268.9,58.8z M219.4,166H166v53.4c0,8.8-7.2,16-16,16s-16-7.2-16-16V166H80.6
	c-8.8,0-16-7.2-16-16s7.2-16,16-16H134V80.6c0-8.8,7.2-16,16-16s16,7.2,16,16V134h53.4c8.8,0,16,7.2,16,16S228.3,166,219.4,166z"/>
</svg>
