<?xml version="1.0" encoding="utf-8"?>
<!-- Generator: Adobe Illustrator 28.0.0, SVG Export Plug-In . SVG Version: 6.00 Build 0)  -->
<svg version="1.1" id="Ebene_1" xmlns="http://www.w3.org/2000/svg" xmlns:xlink="http://www.w3.org/1999/xlink" x="0px" y="0px"
	 viewBox="0 0 512 512" style="enable-background:new 0 0 512 512;" xml:space="preserve">
<style type="text/css">
	.st7{fill:#22a79eb5;}
</style>
<path id="Puzzle_00000131327975333146586370000009900376782218856839_" class="st7" d="M266.51,11.79
	c18.56,18.35,56.33,56.16,74.73,74.58c5.82,5.82,15.26,5.82,21.08,0c7.57-7.55,17.35-17.26,23.14-22.69
	c9.82-9.55,23.68-13.7,37.13-11.11c24.52,4.01,41.14,27.14,37.13,51.65c-1.49,9.08-5.72,17.49-12.14,24.09
	c-5.2,5.51-14.39,14.77-21.63,22.03c-5.82,5.82-5.82,15.26,0,21.08l73.09,73.14c5.82,5.83,5.82,15.27,0,21.1l-74.13,74.28
	c-5.81,5.85-15.26,5.89-21.12,0.09c-0.08-0.08-0.17-0.17-0.25-0.25c-6.65-6.91-13.48-13.93-20.58-20.68
	c-17.83-17.21-46.23-16.7-63.44,1.13c-16.81,17.42-16.77,45.03,0.08,62.4c2.21,2.37,12.87,12.96,21.89,21.84
	c5.86,5.78,5.92,15.22,0.14,21.08c-0.01,0.01-0.01,0.01-0.02,0.02c-18.23,18.47-55.52,56.19-73.59,74.58
	c-5.77,5.87-15.21,5.96-21.08,0.19c-18.66-18.33-56.81-56.19-75.51-74.68c-5.83-5.81-15.27-5.79-21.08,0.04
	c-0.1,0.1-0.19,0.19-0.28,0.29c-7.24,7.62-14.43,15.14-22.03,22.27c-18.31,16.64-46.64,15.28-63.28-3.02
	c-15.51-17.07-15.53-43.13-0.03-60.21c4.87-5.34,14.69-15,22.5-22.55c5.95-5.71,6.15-15.16,0.44-21.11
	c-0.08-0.09-0.16-0.17-0.25-0.25l-74.49-74.66c-5.8-5.82-5.8-15.24,0-21.06c18.28-18.35,55.9-55.88,74.28-74.2
	c5.82-5.83,15.25-5.84,21.08-0.02c0.01,0.01,0.01,0.01,0.02,0.02c7.34,7.36,16.76,16.62,22.5,22.01
	c12.61,12.57,31.7,16.01,47.9,8.62c22.8-9.44,33.63-35.57,24.19-58.37c-1.95-4.71-4.7-9.06-8.12-12.85
	c-5.41-5.98-15.29-15.98-22.95-23.74c-5.82-5.82-5.82-15.26,0-21.08c18.23-18.3,55.4-55.74,73.59-74.06
	C251.27,5.92,260.71,5.95,266.51,11.79z"/>
</svg>
