<svg xmlns="http://www.w3.org/2000/svg" width="20.843" height="20.942" viewBox="0 0 20.843 20.942">
  <path id="Puzzle" d="M223.46,112.807c.782.773,2.373,2.366,3.148,3.142a.628.628,0,0,0,.888,0c.319-.318.731-.727.975-.956a1.765,1.765,0,0,1,1.564-.468,1.895,1.895,0,0,1,1.053,3.191c-.219.232-.606.622-.911.928a.628.628,0,0,0,0,.888l3.079,3.081a.629.629,0,0,1,0,.889l-3.123,3.129a.629.629,0,0,1-.9-.007c-.28-.291-.568-.587-.867-.871a1.89,1.89,0,0,0-2.669,2.676c.093.1.542.546.922.92a.628.628,0,0,1,.005.889c-.768.778-2.339,2.367-3.1,3.142a.628.628,0,0,1-.888.008c-.786-.772-2.393-2.367-3.181-3.146a.628.628,0,0,0-.9.014c-.305.321-.608.638-.928.938a1.887,1.887,0,0,1-2.667-2.664c.205-.225.619-.632.948-.95a.629.629,0,0,0,.008-.9l-3.138-3.145a.628.628,0,0,1,0-.887c.77-.773,2.355-2.354,3.129-3.126a.628.628,0,0,1,.889,0c.309.31.706.7.948.927a1.8,1.8,0,0,0,2.018.363,1.882,1.882,0,0,0,.677-3c-.228-.252-.644-.673-.967-1a.628.628,0,0,1,0-.888c.768-.771,2.334-2.348,3.1-3.12A.628.628,0,0,1,223.46,112.807Z" transform="translate(-212.597 -112.625)" fill="#d83356"/>
</svg>
