<?xml version="1.0" encoding="UTF-8"?>
<svg id="Ebene_1" data-name="Ebene 1" xmlns="http://www.w3.org/2000/svg" version="1.1" viewBox="0 0 172.3 144.3">
  <defs>
    <style>
      .cls-1 {
        fill: #fff;
        stroke-width: 0px;
      }
    </style>
  </defs>
  <path class="cls-1" d="M30.2,123.4c-1.3-1.3-2.6-2.6-3.8-4-14.9-16.8-20.7-36.5-17.2-58.6,2.1-13.1,7.8-25,16.9-35.3-.3,0-.5,0-.8,0-4,0-8.1.2-12.1.1h-.5c-3.5,0-6.7-1.2-9-3.5S0,16.8,0,13.3c0-.2,0-.5,0-.8C.3,6,5.1,1.1,11.7.7c.2,0,.4,0,.6,0C27.2.4,41.8.1,56.2,0c3.4,0,6.6,1.2,8.8,3.4s3.6,5.3,3.6,8.8c.3,14,.5,28.8.6,44,0,7.1-5.1,12.5-12.2,12.7-3.5,0-6.7-1.1-9.1-3.5s-3.6-5.3-3.7-8.7c-.1-4.2-.2-8.4-.2-12.5,0-.2,0-.4,0-.6-2.2,2.7-4.1,5.5-5.6,8.5-9.1,17.7-5.6,38.9,8.6,52.7,1.2,1.1,2.4,2.2,3.7,3.2,6,4.7,12.5,7.5,19.7,8.7,2.9.5,5.4,1.7,7.4,3.6s3,4,3.5,6.4c1,5.2-1.6,10.9-6,13.7-2.5,1.6-5.4,2.1-8.7,1.6-13.9-2.2-26.1-8.3-36.3-18.2h0Z"/>
  <path class="cls-1" d="M106.7,140.9c-2.3-2.3-3.6-5.4-3.7-9.1-.2-14.8-.4-29.4-.6-43.4,0-7.4,5.1-12.8,12.3-13,3.5,0,6.7,1.1,9,3.4s3.7,5.6,3.8,9.3c0,3.9.1,7.8.2,11.8,0,.3,0,.6,0,1,4.4-5.3,7.4-11,9.1-17.4,4.2-15.7-.5-32.5-12.3-44s-14.8-10.5-23.3-11.7c-2.5-.4-4.9-1.6-6.8-3.4-3.1-3-4.6-7.5-3.9-11.5,1.2-7,7.6-11.4,14.9-10.2,13.9,2.4,26.5,8.8,36.6,18.5,24.4,23.7,28.7,61.2,10.1,89.1-1.9,2.9-4.2,5.5-6.3,8-.1.2-.3.3-.4.5,1.6,0,12.7-.2,12.7-.2.6,0,1.1,0,1.8,0,1.7,0,3.3.5,4.8,1.1h.1c.3.2.7.4,1,.5,0,0,0,0,.2,0,.8.5,1.6,1.1,2.3,1.7,2.3,2.2,3.6,5.4,3.6,8.9,0,.2,0,.4,0,.7l.4,1.4-.6.6c-.9,4.8-4.4,8.4-9.3,9.6l-.3.3h-2s0,0,0,0c-.2,0-.4,0-.7,0-14,.3-28.6.5-43.4.7h0s-.2,0-.2,0c-3.6,0-6.8-1.1-9.1-3.4Z"/>
</svg>