<svg xmlns="http://www.w3.org/2000/svg" width="26.938" height="26.97" viewBox="0 0 26.938 26.97">
  <g id="Gruppe_327" data-name="Gruppe 327" transform="translate(-129.938 -253.218)">
    <path id="Pfad_459" data-name="Pfad 459" d="M144.082,279.744a15.617,15.617,0,0,1-5.566-1.023,2.036,2.036,0,0,0-1.585,0c-1.209.477-2.444.889-3.664,1.338a1.548,1.548,0,0,1-2.085-1.913c.352-1.252.687-2.509,1.044-3.76a.879.879,0,0,0-.126-.789,13,13,0,0,1,2.862-17.438,13.57,13.57,0,0,1,17.357.4,12.645,12.645,0,0,1,4.543,10.519,13.155,13.155,0,0,1-10.71,12.409C145.35,279.648,144.525,279.692,144.082,279.744Zm-6.455-14.953a1.925,1.925,0,1,0,1.935,1.921A1.927,1.927,0,0,0,137.626,264.791Zm5.793,3.85a1.925,1.925,0,1,0-1.932-1.924A1.93,1.93,0,0,0,143.42,268.641Zm5.778-3.85a1.925,1.925,0,1,0,1.911,1.945A1.927,1.927,0,0,0,149.2,264.791Z" transform="translate(0 0)" fill="#fff"/>
  </g>
</svg>
