<svg id="Gruppe_359" data-name="Gruppe 359" xmlns="http://www.w3.org/2000/svg" width="26.883" height="26.903" viewBox="0 0 26.883 26.903">
  <path id="Pfad_572" data-name="Pfad 572" d="M150.428,279.435h.463q6.185,0,12.37,0a3.037,3.037,0,0,1,.719.069,1.321,1.321,0,0,1,.941,1.648,13.1,13.1,0,0,1-8.688,9.609,13.463,13.463,0,1,1-7.626-25.792,1.365,1.365,0,0,1,1.819,1.43q0,6.3,0,12.594Z" transform="translate(-138.34 -264.631)" fill="#707070"/>
  <path id="Pfad_573" data-name="Pfad 573" d="M304.326,275.041q-2.619,0-5.238,0a1.362,1.362,0,0,1-1.5-1.506q0-5.239,0-10.478a1.349,1.349,0,0,1,1.521-1.478,12.071,12.071,0,0,1,11.7,9.72,15.142,15.142,0,0,1,.232,2.349,1.3,1.3,0,0,1-1.38,1.391C307.881,275.044,306.1,275.04,304.326,275.041Z" transform="translate(-284.157 -261.579)" fill="#707070"/>
</svg>
