<svg xmlns="http://www.w3.org/2000/svg" width="18.473" height="18.473" viewBox="0 0 18.473 18.473">
  <g id="Gruppe_8" data-name="Gruppe 8" transform="translate(-42 -164.89)">
    <path id="Pfad_29" data-name="Pfad 29" d="M60.473,169.075v12.447a.391.391,0,0,0-.033.079,1.947,1.947,0,0,1-.876,1.368,5.943,5.943,0,0,1-.931.393H43.84a.4.4,0,0,0-.079-.033,2.114,2.114,0,0,1-1.367-.855,2.693,2.693,0,0,1-.394-.952V166.73a.4.4,0,0,0,.033-.08,2.106,2.106,0,0,1,.841-1.355,2.672,2.672,0,0,1,.966-.4H56.287a1,1,0,0,0,.12.032,2.97,2.97,0,0,1,1.686.819c.517.5,1.023,1.014,1.528,1.528a2.856,2.856,0,0,1,.706,1.2C60.387,168.666,60.425,168.872,60.473,169.075Zm-9.245,4.285a3.463,3.463,0,1,0,3.472,3.452A3.459,3.459,0,0,0,51.228,173.36ZM49.7,170.275h3.948a.582.582,0,0,0,.661-.665q0-.874,0-1.749a.586.586,0,0,0-.666-.662h-7.9a.594.594,0,0,0-.674.676q0,.847,0,1.694c0,.493.21.705.7.705Z" fill="#7a7a7a"/>
  </g>
</svg>
