<?xml version="1.0" encoding="utf-8"?>
<!-- Generator: Adobe Illustrator 25.0.1, SVG Export Plug-In . SVG Version: 6.00 Build 0)  -->
<svg version="1.1" xmlns="http://www.w3.org/2000/svg" xmlns:xlink="http://www.w3.org/1999/xlink" x="0px" y="0px"
	 viewBox="0 0 512 512" style="enable-background:new 0 0 512 512;" xml:space="preserve">
<style type="text/css">
	.st0{fill:none;stroke:#2388AE;stroke-width:15;stroke-linecap:round;stroke-linejoin:round;stroke-miterlimit:10;}
	.st1{fill:none;stroke:#2388AE;stroke-width:15;stroke-miterlimit:10;}
	.st2{fill:none;stroke:#2388AE;stroke-width:15;stroke-linecap:round;stroke-miterlimit:10;}
	.st3{fill:none;stroke:#2388AE;stroke-width:15;stroke-linecap:round;}
	.st4{fill:#2388AE;}
	.st5{fill:none;stroke:#2388AE;stroke-width:15;stroke-linecap:round;stroke-linejoin:round;}
	.st6{fill:none;stroke:#2388AE;stroke-width:15;stroke-linecap:round;stroke-linejoin:round;stroke-dasharray:24.8533,49.7066;}
	
		.st7{fill:none;stroke:#2388AE;stroke-width:15;stroke-linecap:round;stroke-linejoin:round;stroke-dasharray:24.8533,49.7066,24.8533,49.7066;}
	.st8{fill:#BABABA;}
	.st9{fill:none;stroke:#2388AE;stroke-width:15;stroke-linecap:round;}
	.st10{fill:none;stroke:#2388AE;stroke-width:15;stroke-linecap:round;stroke-miterlimit:10;stroke-dasharray:32.1931,42.9241;}
	
		.st11{fill:none;stroke:#2388AE;stroke-width:15;stroke-linecap:round;stroke-miterlimit:10;stroke-dasharray:32.1931,42.9241,32.1931,42.9241;}
	.st12{fill:none;stroke:#2388AE;stroke-width:15;stroke-linejoin:round;stroke-miterlimit:10;}
	.st13{fill:#FFFFFF;}
	.st14{fill:url(#SVGID_1_);}
	.st15{fill:url(#SVGID_2_);}
	.st16{fill:url(#SVGID_3_);}
	.st17{fill:url(#SVGID_4_);}
	.st18{fill:url(#SVGID_5_);}
	.st19{fill:url(#SVGID_6_);}
	.st20{fill:url(#SVGID_7_);}
	.st21{fill:url(#SVGID_8_);}
	.st22{fill:url(#SVGID_9_);}
	.st23{fill:url(#SVGID_10_);}
	.st24{fill:url(#SVGID_11_);}
	.st25{fill:url(#SVGID_12_);}
	.st26{fill:url(#SVGID_13_);}
	.st27{fill:url(#SVGID_14_);}
	.st28{fill:url(#SVGID_15_);}
	.st29{fill:url(#SVGID_16_);}
	.st30{fill:url(#SVGID_17_);}
	.st31{fill:url(#SVGID_18_);}
	.st32{fill:url(#SVGID_19_);}
	.st33{fill:url(#SVGID_20_);}
	.st34{fill:url(#SVGID_21_);}
	.st35{fill:url(#SVGID_22_);}
</style>
<g id="Layer_1">
</g>
<g id="Einstellungen">
	<g>
		<path class="st4" d="M511.4,101.3c-5.4,17.3-10.8,34.6-16.1,52c-16.6,54.9-33.1,109.9-49.6,164.8c-2.4,7.9-4.1,9.2-12.6,9.2
			c-46.4,0-92.8,0.1-139.2-0.1c-5.3,0-8.8,1.6-12.3,5.5c-20.3,22.3-40.9,44.4-61.3,66.5c-1.5,1.6-2.9,3.2-4.4,4.7
			c-6.2,6.2-12.8,4.5-15.1-4c-6.5-23.7-12.8-47.5-19.2-71.2c-3.6-13.6-7.3-27.1-11-41c-2.4,0-4.5,0-6.6,0c-50.7,0-101.4,0-152.1,0
			c-2,0-4.4,0.5-5.8-0.4c-2.5-1.6-5.6-4-6-6.5c-0.4-2.4,2-5.6,3.8-8c0.9-1.2,3.1-1.5,4.8-2.2c162.3-59.3,324.7-118.5,487-177.8
			c9.3-3.4,10.7-3.1,15.8,3C511.4,97.8,511.4,99.6,511.4,101.3z M431.1,310.9c18.9-62.9,37.9-125.8,57.2-190
			c-80.3,63.7-159.4,126.4-239.6,190C310.2,310.9,370.2,310.9,431.1,310.9z M400.2,146c-0.1-0.3-0.3-0.6-0.4-0.9
			c-114.7,41.9-229.4,83.7-344.1,125.6c38.8,0.9,77.3,1,115.9,0.8c2.1,0,4.5-1,6.4-2.1c20.7-11.6,41.3-23.3,62-34.9
			c2-1.1,4.4-2.9,6.3-2.5c3,0.6,6.7,2.2,8,4.5c1.1,2-0.3,5.9-1.4,8.6c-0.7,1.5-3,2.4-4.7,3.3c-19.2,10.9-38.5,21.8-57.8,32.4
			c-3.4,1.9-4,3.6-3,7.1c6.4,23.4,12.6,46.8,18.9,70.2c0.3,1.2,0.8,2.3,1.7,4.5c2.8-14.2,5.5-27.1,7.9-40.1c1-5.4,3.4-9.3,7.8-12.8
			c52.1-41.1,104.1-82.3,156.1-123.6c12.4-9.8,24.8-19.7,37.2-29.5c-2.4,0-4.2,1-5.9,2c-42.8,23.6-85.6,47.1-128.3,70.7
			c-6.9,3.8-11.4,3.3-14-1.3c-2.7-4.9-0.6-9.1,6.4-13c0.8-0.4,1.6-0.8,2.3-1.3c39.3-21.7,78.7-43.4,118-65
			C396.9,147.8,398.5,146.9,400.2,146z M223.2,370.3c0.3,0.2,0.7,0.4,1,0.6c13.1-14.2,26.3-28.4,40.2-43.4
			c-10.9,0-20.2-0.1-29.4,0.1c-1.3,0-3.5,1.4-3.7,2.5C228.5,343.4,225.9,356.9,223.2,370.3z"/>
	</g>
</g>
</svg>
