<?xml version="1.0" encoding="utf-8"?>
<!-- Generator: Adobe Illustrator 28.0.0, SVG Export Plug-In . SVG Version: 6.00 Build 0)  -->
<svg version="1.1" id="Layer_1" xmlns="http://www.w3.org/2000/svg" xmlns:xlink="http://www.w3.org/1999/xlink" x="0px" y="0px"
	 viewBox="0 0 300 300" style="enable-background:new 0 0 300 300;" xml:space="preserve">
<style type="text/css">
	.st0{fill:#707070;}
	.st1{fill:none;}
	.green {fill: #4caf50;}
</style>
<path fill="#707070" d="M300,83.2c-100.2,0-199.9,0-300,0c0-1.5,0-2.8,0-4.1c0-20.2,0-40.4,0-60.5C0,5.8,5.2,0,16.8,0c88.9,0,177.7,0,266.6,0
	C294.7,0,300,5.8,300,18.4c0,20.3,0,40.6,0,60.9C300,80.5,300,81.6,300,83.2z"/>
<path fill="#707070" d="M74.7,300c-5,0-9.6,0-14.3,0c-15,0-30,0-45,0c-9.5,0-15.3-6.2-15.3-16.6C0,228.8,0,168.2,0,113.7c0-0.9,0.2-1.8,0.3-2.9
	c24.8,0,49.5,0,74.4,0C74.7,171.8,74.7,238.7,74.7,300z"/>
<g>
	<path class="st0 green" d="M101.2,204.69c1.97-2.88,3.75-5.94,5.96-8.63c11.94-14.52,25.9-26.64,42.77-35.18c11.51-5.83,23.65-9.54,36.54-10.76
		c25.03-2.37,47.66,4.27,68.39,18.1c13.46,8.98,24.68,20.3,34.46,33.1c2.41,3.16,2.42,6.58,0.02,9.73
		c-11.29,14.77-24.47,27.48-40.59,36.94c-13.33,7.82-27.6,12.79-43.05,14.25c-22.49,2.13-43.26-3.1-62.58-14.53
		c-15.98-9.45-29.03-22.12-40.2-36.82c-0.73-0.96-1.15-2.15-1.72-3.23C101.2,206.66,101.2,205.67,101.2,204.69z M196.55,246.06
		c22.36-0.33,39.74-18.35,39.51-40.96c-0.22-21.28-18.67-39.13-40.13-38.82c-22.59,0.33-39.89,18.18-39.67,40.94
		C156.45,228.59,174.92,246.38,196.55,246.06z"/>
	<path class="st0 green"  d="M215.86,206.23c-0.08,10.84-9.04,19.68-19.92,19.63c-10.77-0.04-19.54-8.99-19.47-19.86c0.07-10.78,9.1-19.59,20.01-19.53
		C207.17,186.53,215.94,195.47,215.86,206.23z"/>
</g>
</svg>
