<?xml version="1.0" encoding="utf-8"?>
<!-- Generator: Adobe Illustrator 25.0.1, SVG Export Plug-In . SVG Version: 6.00 Build 0)  -->
<svg version="1.1" id="Layer_1" xmlns="http://www.w3.org/2000/svg" xmlns:xlink="http://www.w3.org/1999/xlink" x="0px" y="0px"
	 viewBox="0 0 300 300" style="enable-background:new 0 0 300 300;" xml:space="preserve">
<style type="text/css">
	.st0{fill:#FFFFFF;}
</style>
<g>
	<path class="st0" d="M198.1,253.4c-15.3,15.3-30.5,30.5-45.5,45.5c-1.4,1.4-3.7,1.4-5.2,0c-15-15-30.2-30.3-45.5-45.5c-2.3-2.3-0.7-6.3,2.6-6.3
		h91C198.8,247.1,200.4,251.1,198.1,253.4z"/>
</g>
<path class="st0" d="M135.9,217.4c-0.3,8.1-5.8,15.1-13.6,16.7c-8.1,1.7-15.9-2.1-19.2-9.8c-2.9-6.8-5.4-13.8-7.9-20.8c-0.8-2.3-2-2.9-4.3-2.9
	c-15.5,0.1-31,0.1-46.5,0c-2.3,0-3.5,0.6-4.3,2.9c-2.2,6.5-4.7,12.9-7.2,19.3c-3.7,9.6-13,14-22.1,10.6c-9.1-3.4-13.3-12.9-9.7-22.5
	C18,166.3,34.8,121.6,51.5,76.9c2.8-7.5,9-11.9,16.2-11.9c7.3,0,13.4,4.3,16.2,11.9c16.8,44.7,33.6,89.4,50.3,134.1
	C135,213,135.4,215.2,135.9,217.4z M67.8,130.3c-4.7,12.6-9.1,24.2-13.5,36.1c9.2,0,17.9,0,27,0C76.8,154.3,72.4,142.8,67.8,130.3z"
	/>
<path class="st0" d="M214.3,200.6c22.4,0,44,0,65.6,0c2.4,0,4.8,0.2,7.1,0.8c7.5,2.1,12.5,9.3,12,17.1c-0.4,7.6-6,14.1-13.6,15.5
	c-1.7,0.3-3.4,0.5-5.1,0.5c-32.7,0-65.4,0-98.1,0c-10.4,0-17.4-5.8-18.6-15.2c-0.6-5,1.2-9.3,4.2-13.2
	c22.4-29.8,44.8-59.7,67.2-89.5c4.2-5.6,8.4-11.2,13.2-17.6c-2,0-3.4,0-4.7,0c-21.1,0-42.1,0-63.2,0c-7.5,0-13.7-4.7-16-11.5
	c-2.3-6.9-0.3-14.7,5.8-18.7c3.2-2.1,7.3-3.6,11-3.6c33.2-0.3,66.5-0.2,99.7-0.2c7.2,0,13,2.8,16.3,9.4c3.4,6.7,2.1,13-2.3,18.9
	c-25.8,34.3-51.5,68.6-77.2,102.9C216.6,197.4,215.7,198.7,214.3,200.6z"/>
<path class="st0" d="M102.1,46.6c15.3-15.3,30.5-30.5,45.5-45.5c1.4-1.4,3.7-1.4,5.2,0c15,15,30.2,30.3,45.5,45.5c2.3,2.3,0.7,6.3-2.6,6.3l-91,0
	C101.4,52.9,99.8,48.9,102.1,46.6z"/>
</svg>
