<?xml version="1.0" encoding="utf-8"?>
<!-- Generator: Adobe Illustrator 25.0.1, SVG Export Plug-In . SVG Version: 6.00 Build 0)  -->
<svg version="1.1" id="Layer_1" xmlns="http://www.w3.org/2000/svg" xmlns:xlink="http://www.w3.org/1999/xlink" x="0px" y="0px"
	 viewBox="0 0 300 300" style="enable-background:new 0 0 300 300;" xml:space="preserve">
<style type="text/css">
	.st0{fill:#FFFFFF;}
</style>
<path d="M218.2,252.4c0-1.2,0-2.5,0-3.7c0-41.5,0-83,0-124.6c0-9.1,5.9-15.3,14.1-15c6.9,0.3,12.5,5.7,12.9,12.6
	c0.1,1.4,0.1,2.8,0.1,4.1c0,41,0,82,0,123c0,1.2,0,2.4,0,3.7c0.5,0.3,0.9,0.7,1.4,1c0.5-1,0.9-2.3,1.7-3.1
	c9.4-9.5,18.8-18.9,28.2-28.2c4-4,8.9-5,14.1-3.2c5.3,1.8,8.3,5.8,9,11.3c0.5,4.3-0.8,8-3.9,11.1c-18.1,18.2-36.2,36.3-54.5,54.4
	c-5.7,5.7-13.8,5.6-19.5,0c-18.1-18-36.2-36.1-54.2-54.2c-5.5-5.5-5.4-13.9-0.1-19.2c5.3-5.4,13.6-5.5,19.2-0.1
	c9.4,9.2,18.7,18.6,28,28c0.8,0.8,1.3,1.9,2,2.9C217.4,252.9,217.8,252.6,218.2,252.4z"/>
<path d="M41,272.6c18,0,35.4,0,52.7,0c1.9,0,3.9,0.1,5.7,0.6c6.1,1.7,10,7.5,9.7,13.8c-0.3,6.1-4.9,11.3-10.9,12.5
	c-1.3,0.3-2.7,0.4-4.1,0.4c-26.3,0-52.6,0-78.9,0c-8.4,0-14-4.7-15-12.2c-0.5-4,1-7.5,3.4-10.6c18-24,36-48,54-72
	c3.4-4.5,6.8-9,10.6-14.2c-1.6,0-2.7,0-3.8,0c-16.9,0-33.9,0-50.8,0c-6,0-11-3.7-12.9-9.2c-1.9-5.5-0.2-11.8,4.7-15
	c2.5-1.6,5.9-2.9,8.9-2.9c26.7-0.2,53.5-0.1,80.2-0.1c5.8,0,10.4,2.3,13.1,7.5c2.7,5.4,1.7,10.5-1.9,15.2
	C85,213.9,64.3,241.5,43.6,269C42.9,270,42.2,271.1,41,272.6z"/>
<path d="M163.6,46.8c-1.4,1.3-2.3,2.1-3.1,2.9c-9.3,9.2-18.5,18.5-27.8,27.7c-4.1,4-9,5.3-14.4,3.4c-5.2-1.8-8.2-5.7-8.9-11.1
	c-0.7-4.9,1.3-8.8,4.8-12.3c14.1-14,28.2-28.1,42.3-42.2c3.5-3.5,7.1-7.1,10.6-10.6c6.3-6.2,14.2-6.3,20.4-0.1
	c17.8,17.7,35.6,35.5,53.3,53.3c5.9,5.9,6,14.2,0.6,19.7c-5.5,5.6-13.9,5.4-19.9-0.5c-10-9.9-19.9-19.9-30.5-30.5c0,1.8,0,2.9,0,4
	c0,37.4,0,74.7,0,112.1c0,7-3.8,12.4-9.8,14c-7.9,2.2-15.8-2.8-17.2-10.9c-0.3-1.6-0.3-3.2-0.3-4.8c0-36.5,0-73,0-109.5
	C163.6,50.2,163.6,49,163.6,46.8z"/>
<path d="M109.4,122.5c-0.2,6.5-4.7,12.1-10.9,13.4c-6.5,1.4-12.8-1.7-15.4-7.9c-2.3-5.5-4.4-11.1-6.3-16.7c-0.6-1.8-1.6-2.3-3.4-2.3
	c-12.5,0.1-24.9,0.1-37.4,0c-1.9,0-2.8,0.5-3.5,2.3c-1.8,5.2-3.8,10.4-5.8,15.5c-3,7.7-10.5,11.3-17.8,8.5
	c-7.3-2.7-10.7-10.3-7.8-18.1C14.5,81.4,28,45.5,41.5,9.6c2.3-6,7.2-9.6,13-9.6c5.8,0,10.7,3.5,13,9.6c13.5,35.9,27,71.8,40.4,107.8
	C108.6,119,108.9,120.8,109.4,122.5z M54.6,52.5c-3.8,10.2-7.3,19.5-10.9,29c7.4,0,14.4,0,21.7,0C61.8,71.8,58.3,62.6,54.6,52.5z"/>
</svg>
