<?xml version="1.0" encoding="utf-8"?>
<!-- Generator: Adobe Illustrator 25.0.1, SVG Export Plug-In . SVG Version: 6.00 Build 0)  -->
<svg version="1.1" id="Layer_1" xmlns="http://www.w3.org/2000/svg" xmlns:xlink="http://www.w3.org/1999/xlink" x="0px" y="0px"
	 viewBox="0 0 406 408" style="enable-background:new 0 0 406 408;" xml:space="preserve">
<g>
	<path d="M373.3,10c1.1,0.4,2.2,0.9,3.4,1.3c10.3,3.5,17.4,12.8,17.5,23.7c0.1,21.7,0.2,43.5,0,65.2c-0.1,12.7-9.7,23.1-22.3,24.7
		c-2.3,0.3-4.7,0.3-7.1,0.3c-107.5,0-215,0-322.5,0c-18.4,0-25-4.5-31.3-21.5c0-24.2,0-48.5,0-72.8c1.9-5.5,3.9-11.2,8.9-14.7
		c3.7-2.6,8-4.3,12-6.3C145.7,10,259.5,10,373.3,10z M202.2,112.4c54.8,0,109.5,0,164.3,0c10.1,0,15-4.9,15-14.9
		c0-20.1,0-40.2,0-60.4c0-9.3-5.1-14.4-14.4-14.4c-109.6,0-219.3,0-328.9,0c-9.3,0-14.4,5.1-14.4,14.3c0,20.4,0,40.7,0,61.1
		c0,1.4,0,2.8,0.3,4.1c1.5,6.8,6.5,10.1,15,10.1C93.5,112.4,147.9,112.4,202.2,112.4z"/>
	<path d="M11,300.2c0.5-1.4,0.9-2.8,1.4-4.2c3.7-9.7,10.6-15.5,20.9-16.9c2-0.3,4-0.3,6-0.3c108.8,0,217.7,0,326.5,0.1
		c3.9,0,8,0.5,11.7,1.7c10.1,3.4,16.6,12.9,16.6,23.9c0.1,21.2,0.1,42.5,0,63.7c0,12.5-7.8,22.1-20,25.2c-0.6,0.2-1.2,0.4-1.7,0.7
		c-113.3,0-226.6,0-339.8,0c-7.9-2-14.5-5.9-18.4-13.2c-1.3-2.5-2.2-5.2-3.3-7.8C11,348.8,11,324.5,11,300.2z M202.2,381.2
		c54.9,0,109.8,0,164.7,0c9.5,0,14.6-5.1,14.6-14.5c0-20.2,0-40.5,0-60.7c0-9.3-5-14.4-14.4-14.4c-109.6,0-219.3,0-328.9,0
		c-9.5,0-14.4,5.1-14.4,14.7c0,19.7,0,39.5,0,59.2c0,11.1,4.6,15.7,15.7,15.7C93.7,381.2,148,381.2,202.2,381.2z"/>
	<path d="M209.3,208.7c0,11.7,0,23,0,34.2c0.4,0.1,0.5,0.2,0.6,0.1c4.7-3.1,7.8-3.2,10.2-0.3c2.6,3,1.9,6.5-2,10.4
		c-3.3,3.4-6.7,6.7-10.1,10.1c-3.8,3.7-7,3.7-10.7,0.1c-3.6-3.6-7.3-7.2-10.8-10.9c-3.3-3.3-3.8-6.8-1.4-9.6c2.4-2.9,5.8-3,9.6-0.3
		c0.3,0.2,0.6,0.3,1.2,0.7c0-11.6,0-23,0-34.5c-5.1-0.8-12.4,1.3-12.2-6.8c0.1-7.8,7.2-5.8,12.2-6.5c0-11.5,0-22.9,0-34.2
		c-0.3-0.1-0.5-0.2-0.6-0.1c-4.7,3.1-7.8,3.1-10.3,0.3c-2.6-3-1.9-6.5,2.1-10.4c3.4-3.4,6.8-6.9,10.3-10.3c3.4-3.3,6.7-3.4,10.1-0.1
		c3.8,3.6,7.5,7.4,11.1,11.1c3.3,3.3,3.7,6.8,1.4,9.6c-2.4,2.9-5.8,2.9-9.9,0c-0.2-0.1-0.4-0.1-0.9-0.2c0,11.4,0,22.8,0,34.3
		c5,0.8,12.3-1.3,12.2,6.8C221.4,209.9,214.4,208,209.3,208.7z"/>
	<path d="M100.3,208.4c-4,0-8,0.1-12,0c-4.3-0.1-6.9-2.6-7-6.2c-0.1-3.9,2.5-6.4,7.1-6.5c8-0.1,16-0.1,24,0c4.5,0.1,7.2,2.6,7.2,6.4
		c0,3.8-2.7,6.2-7.3,6.3C108.3,208.5,104.3,208.4,100.3,208.4z"/>
	<path d="M304.5,208.4c-3.9,0-7.7,0.1-11.6,0c-4.5-0.1-7.2-2.7-7.2-6.5c0-3.8,2.7-6.3,7.3-6.3c7.9-0.1,15.7-0.1,23.6,0
		c4.6,0.1,7.3,2.4,7.3,6.3c0.1,4-2.6,6.4-7.5,6.5c-0.2,0-0.5,0-0.7,0C312,208.4,308.2,208.4,304.5,208.4z"/>
	<path d="M151.2,208.4c-3.9,0-7.7,0.1-11.6,0c-4.5-0.1-7.2-2.7-7.2-6.5c0-3.7,2.8-6.3,7.3-6.3c7.9-0.1,15.7-0.1,23.6,0
		c4.6,0.1,7.2,2.4,7.3,6.3c0.1,4-2.6,6.3-7.4,6.5c-0.2,0-0.5,0-0.7,0C158.6,208.4,154.9,208.4,151.2,208.4
		C151.2,208.4,151.2,208.4,151.2,208.4z"/>
	<path d="M253.9,195.6c3.9,0,7.7-0.1,11.6,0c4.5,0.1,7.3,2.6,7.4,6.3c0.1,3.7-2.7,6.4-7.2,6.5c-8,0.1-16,0.1-23.9,0
		c-4.6-0.1-7.1-2.6-7.1-6.5c0-3.9,2.6-6.2,7.3-6.3C245.9,195.5,249.9,195.6,253.9,195.6z"/>
	<path d="M49.3,195.6c4,0,8-0.1,12,0c4.4,0.1,7.2,2.8,7.2,6.5c-0.1,3.6-2.8,6.2-7,6.3c-8.1,0.1-16.2,0.1-24.3,0
		c-4.3-0.1-6.9-2.6-6.9-6.3c0-3.9,2.5-6.3,7.1-6.5C41.4,195.5,45.4,195.6,49.3,195.6z"/>
	<path d="M355.7,208.4c-3.9,0-7.7,0.1-11.6,0c-4.5-0.1-7.3-2.6-7.4-6.3c-0.1-3.7,2.8-6.4,7.2-6.5c8-0.1,16-0.1,23.9,0
		c4.5,0.1,7.1,2.6,7.1,6.5c-0.1,3.9-2.6,6.1-7.3,6.3c-0.2,0-0.5,0-0.7,0C363.2,208.4,359.5,208.4,355.7,208.4z"/>
</g>
</svg>
