<svg xmlns="http://www.w3.org/2000/svg" width="18.431" height="18.47" viewBox="0 0 18.431 18.47">
  <g id="Gruppe_324" data-name="Gruppe 324" transform="translate(-243.862 -143.892)">
    <path id="Pfad_483" data-name="Pfad 483" d="M243.863,153.1q0-3.473,0-6.947a2.134,2.134,0,0,1,2.261-2.265h13.909a2.132,2.132,0,0,1,2.26,2.266q0,6.969,0,13.939a2.133,2.133,0,0,1-2.261,2.265H246.123a2.134,2.134,0,0,1-2.26-2.266Q243.862,156.6,243.863,153.1Zm6.833.053a1.73,1.73,0,0,0-.22.156q-1.052,1.048-2.1,2.1a.711.711,0,1,0,1,1q1.365-1.363,2.725-2.73a.718.718,0,0,0-.006-1.125q-.8-.81-1.612-1.617c-.381-.382-.76-.765-1.144-1.144a.707.707,0,0,0-1.208.41.731.731,0,0,0,.248.635C249.135,151.6,249.886,152.349,250.7,153.157Zm4.517,2.811c.686,0,1.373,0,2.06,0a.712.712,0,1,0-.006-1.42q-2.06,0-4.119,0a.713.713,0,1,0,.006,1.42C253.84,155.97,254.526,155.969,255.213,155.969Z" transform="translate(0)" fill="#707070"/>
  </g>
</svg>
