<svg id="Aufteilen" xmlns="http://www.w3.org/2000/svg" width="18.274" height="18.608" viewBox="0 0 18.274 18.608">
  <g id="Gruppe_10" data-name="Gruppe 10" transform="translate(-113 -229.629)">
    <path id="Pfad_32" data-name="Pfad 32" d="M129.791,445.7H114.447a.124.124,0,0,0-.035-.022c-.981-.224-1.411-.67-1.411-1.467,0-1.853,0-5.839.042-5.973a1.7,1.7,0,0,1,1.771-1.068c4.057,0,14.753,0,14.807,0,.931.055,1.643.609,1.647,1.319.011,1.962.006,3.924,0,5.885a1.153,1.153,0,0,1-.4.833A2.1,2.1,0,0,1,129.791,445.7Z" transform="translate(0 -197.465)" fill="#7a7a7a"/>
    <path id="Pfad_33" data-name="Pfad 33" d="M129.4,229.63c1.16,0,1.875.561,1.875,1.472q0,2.8,0,5.6c0,.894-.725,1.462-1.868,1.463H114.851a1.716,1.716,0,0,1-1.81-1.078c-.034-.123-.039-4.122-.038-5.993,0-.9.715-1.459,1.864-1.46Z" transform="translate(-0.002)" fill="#7a7a7a"/>
  </g>
</svg>
