<svg xmlns="http://www.w3.org/2000/svg" width="26.622" height="27.509" viewBox="0 0 26.622 27.509">
  <g id="Gruppe_334" data-name="Gruppe 334" transform="translate(-44.831 -647.449)">
    <g id="Gruppe_334-2" data-name="Gruppe 334" transform="translate(45.808 649.23)">
      <path id="Pfad_462" data-name="Pfad 462" d="M67.706,665.985l-4.037-4.038a.7.7,0,0,0-1.245.51v.442l4.639,4.811.643-.644a.635.635,0,0,0,.11-.11A.69.69,0,0,0,67.706,665.985Z" transform="translate(-44.508 -648.191)" fill="#737373"/>
      <path id="Pfad_463" data-name="Pfad 463" d="M57.962,658.272q.382-.574.764-1.15a1.934,1.934,0,0,1,1.5-.946c.719-.048,1.448-.011,2.195-.011v.234c0,.591-.005,1.182,0,1.772A.689.689,0,0,0,63,658.9a.753.753,0,0,0,.691-.275l3.962-3.962a.741.741,0,0,0,.185-.185.722.722,0,0,0-.185-1l-3.931-3.93c-.04-.04-.081-.082-.124-.12a.692.692,0,0,0-1.172.5c-.005.237,0,.475,0,.713v1.351H62.19c-.613,0-1.226-.016-1.838.006a5.962,5.962,0,0,0-4.685,2.314c-.23.292-.448.594-.66.9Z" transform="translate(-44.508 -649.23)" fill="#737373"/>
      <path id="Pfad_464" data-name="Pfad 464" d="M52.511,658.115a2.187,2.187,0,0,1-.771.1c-1.672-.009-3.345.006-5.018-.009a.859.859,0,0,0-.914.525v3.115a.862.862,0,0,0,.91.528c1.672-.015,3.345,0,5.017-.009a2.2,2.2,0,0,1,1.977,1.057c.642.973,1.258,1.971,1.977,2.887a5.786,5.786,0,0,0,4.183,2.242c.748.066,1.508.034,2.268.046h.28v.982c0,.3.015.606,0,.908a.783.783,0,0,0,.565.879h.3a2.646,2.646,0,0,0,.378-.27q.349-.347.7-.7Z" transform="translate(-45.808 -647.886)" fill="#737373"/>
    </g>
    <path id="Pfad_465" data-name="Pfad 465" d="M70.121,674.959a1.327,1.327,0,0,1-.958-.407L45.2,649.7a1.331,1.331,0,0,1,1.917-1.847L71.08,672.7a1.332,1.332,0,0,1-.959,2.255Z" transform="translate(0)" fill="#2388ae"/>
  </g>
</svg>
