<svg xmlns="http://www.w3.org/2000/svg" width="17.5" height="19.567" viewBox="0 0 17.5 19.567">
  <g id="Gruppe_15" data-name="Gruppe 15" transform="translate(-539.258 -68.835)">
    <path id="Pfad_36" data-name="Pfad 36" d="M556.751,128.5c0,2.155,0,4.514,0,6.1a2.434,2.434,0,0,1-2.435,2.437l-12.454,0a2.5,2.5,0,0,1-2.605-2.391c0-.036,0-2.825,0-6.147Z" transform="translate(0 -48.64)" fill="#7a7a7a"/>
    <path id="Pfad_36-2" data-name="Pfad 36" d="M539.258,78.064c0-2.562,0-4.716,0-6.635a2.5,2.5,0,0,1,2.412-2.593c.066,0,8.143,0,8.143,0,0,.1.013,2.652.013,3.835a2.508,2.508,0,0,0,2.363,2.646c.1.006,2.959,0,4.29-.005.223,0,.28.068.276.283,0,.3-.006.944-.007,2.469Z" transform="translate(0 0)" fill="#7a7a7a"/>
    <path id="Pfad_38" data-name="Pfad 38" d="M605.511,71.4l4.7,4.3c-.116.011-.186.023-.258.023h-3.52a.83.83,0,0,1-.921-.9C605.508,73.707,605.511,72.6,605.511,71.4Z" transform="translate(-54.007 -2.093)" fill="#7a7a7a"/>
  </g>
</svg>
