<svg xmlns="http://www.w3.org/2000/svg" width="26.251" height="26.24" viewBox="0 0 26.251 26.24">
  <g id="Gruppe_333" data-name="Gruppe 333" transform="translate(-93 -216.685)">
    <path id="Pfad_461" data-name="Pfad 461" d="M93,227.959a1.017,1.017,0,0,1,1.083-.622c1.982.018,3.964,0,5.945.011a2.605,2.605,0,0,0,2.342-1.254c.751-1.14,1.469-2.31,2.31-3.381a7.069,7.069,0,0,1,5.551-2.742c.725-.026,1.452-.006,2.178-.007h.276c0-.55,0-1.077,0-1.6,0-.282-.006-.564,0-.845a.819.819,0,0,1,1.388-.593c.051.045.1.095.147.143l4.657,4.656a.855.855,0,0,1,0,1.409q-2.346,2.346-4.693,4.693a.892.892,0,0,1-.819.326.816.816,0,0,1-.683-.863c-.006-.7,0-1.4,0-2.1v-.277c-.885,0-1.748-.044-2.6.013a2.29,2.29,0,0,0-1.777,1.121q-.927,1.4-1.862,2.79c-.224.331-.471.647-.689.945.884,1.311,1.755,2.625,2.651,3.922a2.33,2.33,0,0,0,1.968,1.022c.759.015,1.518,0,2.313,0v-.283c0-.692,0-1.384,0-2.075a.832.832,0,0,1,1.475-.605q2.391,2.393,4.783,4.784a.819.819,0,0,1,0,1.281q-2.389,2.394-4.786,4.781a3.309,3.309,0,0,1-.448.32h-.359a.929.929,0,0,1-.67-1.042c.018-.358,0-.717,0-1.076v-1.163c-.131,0-.232,0-.332,0-.9-.014-1.8.024-2.687-.055a6.858,6.858,0,0,1-4.956-2.656c-.851-1.085-1.581-2.267-2.342-3.42a2.607,2.607,0,0,0-2.342-1.253c-1.981.012-3.963-.007-5.944.011A1.02,1.02,0,0,1,93,231.649Z" fill="#737373"/>
  </g>
</svg>
