<?xml version="1.0" encoding="utf-8"?>
<!-- Generator: Adobe Illustrator 25.0.1, SVG Export Plug-In . SVG Version: 6.00 Build 0)  -->
<svg version="1.1" id="Layer_1" xmlns="http://www.w3.org/2000/svg" xmlns:xlink="http://www.w3.org/1999/xlink" x="0px" y="0px"
	 viewBox="0 0 323.3 287.4" style="enable-background:new 0 0 323.3 287.4;" xml:space="preserve">
<style type="text/css">
	.st0{fill:#707070;}
	.st1{fill:none;}
</style>
<g>
	<g>
		<rect x="35.9" y="71.8" class="st1" width="107.8" height="71.8"/>
		<path class="st1" d="M273.9,143.7c-2.7-1.6-5.8-2.6-9.2-3"/>
		<rect x="35.9" y="179.6" class="st1" width="107.8" height="71.8"/>
		<path class="st0" d="M209.3,143.7h-29.7V71.8h107.8v49.8c9.6,3.5,22.9,19.2,23.2,40.2c-0.4,0.2,12.8,0.2,12.8,0.2V35.9
			c0-19.8-16-35.9-35.9-35.9H35.9C16.2,0,0,16.2,0,35.9v215.5c0,19.9,16.2,35.9,35.9,35.9h108.6c19.4,0,35.2-15.8,35.2-35.2
			l-0.1-72.6h29.7L209.3,143.7z M143.7,251.4H35.9v-71.8h107.8V251.4z M143.7,143.7H35.9V71.8h107.8V143.7z"/>
	</g>
	<path class="st0" d="M323.2,217.9c-0.1-11.4-7.7-20.5-18.8-22.8c-1.4-0.3-2.8-0.4-4.3-0.6c0-0.5-0.1-0.8-0.1-1.2c0-9.5,0-19,0-28.4
		c0-2.1-0.1-4.2-0.4-6.3c-4.1-28.3-35.7-42.7-59.5-27c-11.3,7.5-17,18.3-17.4,31.8v31.3c-13.3,0.3-23.2,10.3-23.2,23.7
		c0,15.1-0.1,30.3,0,45.4c0,13.4,10.1,23.5,23.5,23.5c25.6,0.1,51.2,0.1,76.8,0c13.2,0,23.3-10.1,23.4-23.3
		C323.3,248.7,323.3,233.3,323.2,217.9z M284.6,191.2c0,1.1,0,2.1,0,3.4c-1.1,0-1.8,0-2.6,0c-14.6,0-29.1,0-43.7,0v-31
		c0.1-1.6,0.2-3.3,0.6-4.8c2.6-11.5,13.5-19.4,24.9-18.1c12.1,1.4,20.8,11.1,20.9,23.2C284.6,173,284.6,182.1,284.6,191.2z"/>
</g>
</svg>
