<?xml version="1.0" encoding="utf-8"?>
<!-- Generator: Adobe Illustrator 25.0.1, SVG Export Plug-In . SVG Version: 6.00 Build 0)  -->
<svg version="1.1" id="Layer_1" xmlns="http://www.w3.org/2000/svg" xmlns:xlink="http://www.w3.org/1999/xlink" x="0px" y="0px"
	 viewBox="0 0 250 250" style="enable-background:new 0 0 250 250;" xml:space="preserve">
<style type="text/css">
	.st0{fill:#707070;}
</style>
<g>
	<path class="st0" d="M224.5,2.7H25.9C13.3,2.7,3.1,13,3.1,25.5v199.8c0,12.1,9.8,21.9,21.8,21.9h199.5c12.3,0,22.3-10,22.3-22.3
		v-24.3c0-3.9-3.1-7-7-7s-7,3.1-7,7v24.3c0,4.6-3.7,8.3-8.3,8.3h-57.6V76h65.9v98.1c0,3.9,3.1,7,7,7s7-3.1,7-7v-149
		C246.8,12.8,236.8,2.7,224.5,2.7z M17.1,225.3V76h59.6v157.2H25C20.7,233.2,17.1,229.6,17.1,225.3z M152.9,233.2H90.8V76h62.1
		V233.2z M17.1,62V25.5c0-4.8,3.9-8.8,8.7-8.8h198.6c4.6,0,8.3,3.7,8.3,8.3V62H17.1z"/>
</g>
</svg>
