<?xml version="1.0" encoding="utf-8"?>
<!-- Generator: Adobe Illustrator 25.0.1, SVG Export Plug-In . SVG Version: 6.00 Build 0)  -->
<svg version="1.1" id="Layer_1" xmlns="http://www.w3.org/2000/svg" xmlns:xlink="http://www.w3.org/1999/xlink" x="0px" y="0px"
	 viewBox="0 0 250 250" style="enable-background:new 0 0 250 250;" xml:space="preserve">
<style type="text/css">
	.st0{fill:#707070;}
</style>
<path class="st0" d="M240.1,93.6H115.3c-3.9,0-7-3.1-7-7s3.1-7,7-7h124.8c3.9,0,7,3.1,7,7S244,93.6,240.1,93.6z"/>
<path class="st0" d="M240.1,132.2H10.5c-3.9,0-7-3.1-7-7s3.1-7,7-7h229.6c3.9,0,7,3.1,7,7S244,132.2,240.1,132.2z"/>
<path class="st0" d="M240.1,170.9H10.5c-3.9,0-7-3.1-7-7s3.1-7,7-7h229.6c3.9,0,7,3.1,7,7S244,170.9,240.1,170.9z"/>
<path class="st0" d="M240.1,209.5H10.5c-3.9,0-7-3.1-7-7s3.1-7,7-7h229.6c3.9,0,7,3.1,7,7S244,209.5,240.1,209.5z"/>
<path class="st0" d="M240.1,248.1H10.5c-3.9,0-7-3.1-7-7s3.1-7,7-7h229.6c3.9,0,7,3.1,7,7S244,248.1,240.1,248.1z"/>
<path class="st0" d="M240.1,16.4H115.3c-3.9,0-7-3.1-7-7s3.1-7,7-7h124.8c3.9,0,7,3.1,7,7S244,16.4,240.1,16.4z"/>
<path class="st0" d="M240.1,55H115.3c-3.9,0-7-3.1-7-7s3.1-7,7-7h124.8c3.9,0,7,3.1,7,7S244,55,240.1,55z"/>
<g>
	<path class="st0" d="M69.2,81.6l-4.1-10.7H30.3l-4.1,11c-1.6,4.3-3,7.2-4.1,8.7c-1.1,1.5-3,2.2-5.5,2.2c-2.2,0-4.1-0.8-5.8-2.4
		c-1.7-1.6-2.5-3.4-2.5-5.4c0-1.2,0.2-2.4,0.6-3.6c0.4-1.2,1-3,1.9-5.2l21.9-55.6c0.6-1.6,1.4-3.5,2.2-5.8c0.9-2.2,1.8-4.1,2.8-5.6
		c1-1.5,2.3-2.7,3.9-3.6c1.6-0.9,3.6-1.4,6-1.4c2.4,0,4.4,0.5,6,1.4c1.6,0.9,2.9,2.1,3.9,3.5c1,1.4,1.8,3,2.5,4.6
		c0.7,1.7,1.5,3.9,2.6,6.6l22.4,55.3c1.8,4.2,2.6,7.3,2.6,9.2c0,2-0.8,3.8-2.5,5.5c-1.7,1.7-3.7,2.5-6,2.5c-1.4,0-2.5-0.2-3.5-0.7
		c-1-0.5-1.8-1.1-2.5-2c-0.7-0.8-1.4-2.1-2.1-3.9C70.4,84.4,69.7,82.9,69.2,81.6z M34.8,57.8h25.6L47.5,22.5L34.8,57.8z"/>
</g>
</svg>
