<?xml version="1.0" encoding="utf-8"?>
<!-- Generator: Adobe Illustrator 25.0.1, SVG Export Plug-In . SVG Version: 6.00 Build 0)  -->
<svg version="1.1" id="Layer_1" xmlns="http://www.w3.org/2000/svg" xmlns:xlink="http://www.w3.org/1999/xlink" x="0px" y="0px"
	 viewBox="0 0 400 400" style="enable-background:new 0 0 400 400;" xml:space="preserve">
<style type="text/css">
	.bg-secondary{fill:#6C6C6C;}
</style>
<g>
	<path class="bg-secondary" d="M233.3,8c2.8,1.1,5.7,1.9,8.2,3.4C249.1,16.1,252.9,23,253,32c0,6.3,0,12.7,0,19.4c1.9,0,60.4-0.1,88.2,0
		c14,0,25.2,10.7,26,24.4c0.8,14.6-10.6,26.9-25.3,27.3c-2.1,0.1-4.2,0-6.6,0c-0.6,6.5-13.9,163-15.9,187c-0.4,4.4-2.6,6.7-6.1,6.4
		c-3.5-0.3-5.4-3-5-7.4c3.4-39.6,15.5-184.4,15.5-186c-1.7,0-135.9,0-201.5,0c-1,0-2,0-3,0c-4.4-0.1-6.9-2.1-6.8-5.7
		c0-3.5,2.5-5.6,7-5.6c31.6,0,178.1,0,219.8,0c2.3,0,4.8-0.1,7-0.8c6.6-2.1,10.8-9.1,9.7-15.9c-1.1-7-6.8-12.2-13.8-12.5
		c-1,0-2,0-3,0c-93.1,0-186.2,0-279.3,0c-2.1,0-4.3,0.1-6.3,0.7c-6.9,2-11.3,8.8-10.4,15.8c1,7.1,6.8,12.6,14,12.7
		c11.1,0.2,22.2,0.1,33.3,0.1c3.2,0,5.7,1,6.5,4.3c0.9,3.7-1.6,6.8-5.8,6.9c-5.2,0.1-10.4,0-16.1,0c0.7,8.2,18.4,217.4,20.3,242.5
		c0.7,9.5,2.7,18.2,9.8,25.1c6.1,5.9,13.3,9.2,21.8,9.2c48.3,0.1,96.6,0.1,144.9,0c16.3,0,29.4-12.3,31.1-28.7
		c1.1-10.9,2.9-34.3,3.1-35c0.7-3,2.6-4.8,5.8-4.7c3,0.1,5.4,2.4,5.2,5.7c-1.1,13.4-1.6,27-3.9,40.2c-3.3,19.3-20.7,33.6-40.3,33.7
		c-48.9,0.2-97.8,0.2-146.7,0c-21.4-0.1-39.4-17.2-41.2-38.5c-3.3-38.5-20.5-241.4-21.1-249.6c-2,0-4,0-5.9,0
		c-14.6-0.2-26-11.6-26-25.9c0-14.3,11.5-25.8,26-25.8c27.7-0.1,86.1,0,88.2,0c0-1.9-0.1-15.2,0.1-20.2c0.4-11.2,7.1-19.5,18-22.5
		c0.6-0.2,1.1-0.5,1.7-0.7C188.3,8,210.8,8,233.3,8z M157.6,51.2c28,0,55.9,0,83.9,0c0-7.5,0.4-14.8-0.1-22.1
		c-0.4-5.5-5.8-9.8-11.5-9.8c-20.2-0.1-40.4-0.1-60.6,0c-5.8,0-11.2,4.3-11.5,9.8C157.2,36.4,157.6,43.7,157.6,51.2z"/>
	<path class="bg-secondary" d="M205.2,318.3c0,6-1.8,8.7-5.8,8.6c-3.8-0.1-5.4-2.6-5.4-8.6c0-53.2,0-106.3,0-159.5c0-6,1.9-8.8,5.8-8.6
		c3.8,0.1,5.4,2.7,5.4,8.6C205.2,185.6,205.2,291.9,205.2,318.3z"/>
	<path class="bg-secondary" d="M271.5,161c-2.7,31.1-11.7,138-13.5,159.5c-0.5,5.5-5,8.5-8.7,5.4c-1.5-1.3-2.5-4.1-2.3-6.1c0.8-12.8,12-143.3,13.6-162.2
		c0.1-1,0.2-2,0.4-3c0.8-2.9,2.8-4.5,5.7-4.3c3,0.2,4.8,2,5.1,5C272,156.9,271.7,158.6,271.5,161z"/>
	<path class="bg-secondary" d="M152.4,320.8c0.1,3.4-1.7,5.9-5.1,6.1c-3.6,0.3-5.7-2-6.1-6.4c-3.7-43.2-12.9-152.1-13.8-163.3c-0.3-4,1.7-6.7,5-7
		c3.2-0.3,5.7,1.8,6,5.7C139.7,169.4,151,304.3,152.4,320.8z"/>
</g>
</svg>
