<?xml version="1.0" encoding="utf-8"?>
<!-- Generator: Adobe Illustrator 25.0.1, SVG Export Plug-In . SVG Version: 6.00 Build 0)  -->
<svg version="1.1" id="Layer_1" xmlns="http://www.w3.org/2000/svg" xmlns:xlink="http://www.w3.org/1999/xlink" x="0px" y="0px"
	 viewBox="0 0 300 300" style="enable-background:new 0 0 300 300;" xml:space="preserve">
<style type="text/css">
	.st0{fill:#FFFFFF;}
</style>
<g>
	<path fill="#707070" d="M20.9,88.3V35.9c0-8.7,7.1-15.8,15.8-15.8H89c5.5,0,10-4.5,10-10v0c0-5.5-4.5-10-10-10H36.7c-19.8,0-35.8,16-35.8,35.8
		v52.3c0,5.5,4.5,10,10,10h0C16.4,98.3,20.9,93.8,20.9,88.3z"/>
	<path fill="#707070" d="M212.4,20.1h52.3c8.7,0,15.8,7.1,15.8,15.8v52.3c0,5.5,4.5,10,10,10h0c5.5,0,10-4.5,10-10V35.9c0-19.8-16-35.8-35.8-35.8
		h-52.3c-5.5,0-10,4.5-10,10v0C202.4,15.6,206.8,20.1,212.4,20.1z"/>
	<path fill="#707070" d="M89,279.8H36.7c-8.7,0-15.8-7.1-15.8-15.8v-52.3c0-5.5-4.5-10-10-10h0c-5.5,0-10,4.5-10,10V264c0,19.8,16,35.8,35.8,35.8
		H89c5.5,0,10-4.5,10-10v0C99,284.3,94.5,279.8,89,279.8z"/>
	<path fill="#707070" d="M280.5,211.6V264c0,8.7-7.1,15.8-15.8,15.8h-52.3c-5.5,0-10,4.5-10,10v0c0,5.5,4.5,10,10,10h52.3c19.8,0,35.8-16,35.8-35.8
		v-52.3c0-5.5-4.5-10-10-10h0C285,201.6,280.5,206.1,280.5,211.6z"/>
</g>
<g>
	<path fill="#707070" d="M87.6,128.9c-3.1-1.8-6.7-2.8-10.8-2.8c-2.9,0-5.6,0.5-8,1.5c-2.5,1-4.6,2.5-6.3,4.5c-1.8,2-3.2,4.5-4.2,7.5
		c-1,3-1.5,6.5-1.5,10.2c0,3.8,0.5,7.3,1.5,10.4c1,3.1,2.5,5.6,4.3,7.7c1.9,2,4,3.6,6.4,4.6c2.4,1,5.1,1.5,8,1.5
		c3.7,0,7.1-0.9,10.2-2.6c3.1-1.7,5.6-4.4,7.4-8.1c1.8-3.6,2.8-8.1,2.8-13.4c0-4.9-0.8-9.2-2.5-12.8
		C93.2,133.4,90.8,130.7,87.6,128.9z"/>
	<path fill="#707070" d="M242,135.8c0-1.9-0.5-3.5-1.5-4.9c-1-1.4-2.4-2.5-4.2-3.2c-1.7-0.7-5-1-10-1h-13.4v18.5h13c3.5,0,6.4-0.3,8.8-0.8
		c2.4-0.6,4.2-1.5,5.4-2.9C241.4,140,242,138.1,242,135.8z"/>
	<path fill="#707070" d="M227.8,38.9H72.2c-18.4,0-33.3,14.9-33.3,33.3v155.6c0,18.4,14.9,33.3,33.3,33.3h155.6c18.4,0,33.3-14.9,33.3-33.3V72.2
		C261.1,53.8,246.2,38.9,227.8,38.9z M109.9,164.1c-1.5,4.2-3.7,7.9-6.7,11c-3,3.1-6.7,5.5-11,7.1c-4.4,1.6-9.4,2.5-15,2.5
		c-5.6,0-10.6-0.8-15-2.5c-4.4-1.7-8.1-4.1-11.1-7.2c-3-3.1-5.2-6.8-6.7-11.1s-2.3-9-2.3-14.1c0-5.2,0.8-9.9,2.4-14.2
		c1.6-4.3,3.9-8,6.9-11c3-3,6.6-5.3,10.9-6.9c4.3-1.6,9.2-2.4,14.6-2.4c7.4,0,13.8,1.4,19.1,4.2c5.3,2.8,9.3,6.8,12.1,12.1
		c2.7,5.2,4.1,11.3,4.1,18.3C112.1,155.1,111.4,159.8,109.9,164.1z M183.8,169.3c-1.1,2.5-2.9,4.9-5.3,7.3c-2.4,2.4-5.5,4.3-9.2,5.8
		c-3.7,1.5-8.1,2.2-13.1,2.2c-3.8,0-7.2-0.3-10.3-1c-3.1-0.7-5.9-1.7-8.4-3.1c-2.5-1.4-4.8-3.3-7-5.6c-1.9-2.1-3.5-4.5-4.8-7.1
		c-1.3-2.6-2.3-5.4-3-8.4c-0.7-3-1-6.1-1-9.4c0-5.4,0.8-10.2,2.5-14.5c1.7-4.3,4.1-7.9,7.2-11c3.1-3,6.8-5.4,11-6.9
		c4.2-1.6,8.7-2.4,13.4-2.4c5.8,0,11,1.1,15.5,3.3c4.5,2.2,8,4.8,10.4,8c2.4,3.2,3.6,6.2,3.6,9c0,1.6-0.6,2.9-1.8,4.1
		c-1.2,1.2-2.6,1.8-4.2,1.8c-1.9,0-3.2-0.4-4.2-1.2c-0.9-0.8-2-2.2-3.1-4.3c-1.9-3.3-4.1-5.8-6.7-7.5c-2.6-1.6-5.7-2.5-9.4-2.5
		c-6,0-10.7,2.1-14.2,6.4c-3.5,4.2-5.3,10.3-5.3,18.1c0,5.2,0.8,9.6,2.3,13c1.6,3.5,3.8,6.1,6.6,7.8c2.9,1.7,6.2,2.6,10.1,2.6
		c4.2,0,7.7-1,10.6-2.9c2.9-1.9,5.1-4.8,6.5-8.5c0.6-1.8,1.4-3.2,2.3-4.3c0.9-1.1,2.4-1.7,4.4-1.7c1.7,0,3.2,0.6,4.4,1.7
		c1.2,1.1,1.9,2.5,1.9,4.2C185.5,164.5,184.9,166.8,183.8,169.3z M257.1,181.9c-0.6,0.9-1.4,1.6-2.5,2.1c-1,0.5-2.2,0.8-3.6,0.8
		c-1.6,0-3-0.4-4.1-1.1c-1.1-0.7-2.1-1.6-2.9-2.7c-0.8-1.1-1.9-2.7-3.2-4.9L235,167c-2.1-3.3-3.9-5.9-5.6-7.6
		c-1.6-1.7-3.3-2.9-5-3.6c-1.7-0.6-3.8-1-6.4-1h-5.1v21.6c0,2.8-0.7,4.9-2,6.3c-1.3,1.3-3.1,2-5.2,2c-2.3,0-4.1-0.7-5.4-2.1
		c-1.3-1.4-1.9-3.5-1.9-6.2v-51.7c0-2.9,0.7-5.1,2.1-6.4c1.4-1.3,3.7-2,6.8-2h23.6c3.3,0,6,0.1,8.3,0.4c2.3,0.3,4.4,0.8,6.2,1.6
		c2.2,0.9,4.2,2.2,6,3.8c1.7,1.6,3,3.6,3.9,5.8c0.9,2.2,1.3,4.5,1.3,6.9c0,5-1.5,9-4.5,12c-3,3-7.6,5.1-13.7,6.4
		c2.6,1.3,5,3.2,7.4,5.7c2.3,2.5,4.4,5.2,6.3,8c1.8,2.8,3.3,5.4,4.3,7.7c1,2.3,1.5,3.8,1.5,4.7C258,180.2,257.7,181,257.1,181.9z"/>
</g>
</svg>
