<?xml version="1.0" encoding="utf-8"?>
<!-- Generator: Adobe Illustrator 25.0.1, SVG Export Plug-In . SVG Version: 6.00 Build 0)  -->
<svg version="1.1" id="Layer_1" xmlns="http://www.w3.org/2000/svg" xmlns:xlink="http://www.w3.org/1999/xlink" x="0px" y="0px"
	 viewBox="0 0 239.6 287.5" style="enable-background:new 0 0 239.6 287.5;" xml:space="preserve">
<style type="text/css">
	.st0{fill:#FFFFFF;}
</style>
<g>
	<path class="st0" d="M107.8,40.9c0,2.5,0,3.8,0,5.2c0,55.5,0,111,0,166.5c0,1.2,0,2.5,0,3.7c0.4,6,5.1,10.9,11,11.3
		c6,0.5,11.6-3.7,12.7-9.8c0.3-1.6,0.2-3.2,0.2-4.8c0-55.6,0-111.2,0-166.8c0-1.4,0-2.8,0-5c1.6,1.5,2.6,2.4,3.6,3.4
		c11.7,11.7,23.5,23.4,35.2,35.2c3.4,3.5,7.4,5,12.2,3.8c9.4-2.5,11.9-13.5,4.7-20.7C168,43.3,148.6,23.9,129.2,4.5
		c-6.1-6.1-12.8-6-19,0.2C91,23.9,71.8,43.1,52.5,62.4c-0.6,0.6-1.3,1.2-1.8,1.9c-4,4.8-3.7,11.6,0.6,16c4.3,4.4,11.1,4.9,16,1
		c1.2-0.9,2.2-2,3.2-3.1C82.7,66,94.9,53.8,107.8,40.9z M119.4,287.5c27.6,0,55.1,0,82.7,0c22,0,37.3-15.5,37.4-37.5
		c0-15,0-29.9,0-44.9c0-7.9-4.9-13.4-12-13.4c-7.1,0-11.9,5.4-11.9,13.4c0,15,0,29.9,0,44.9c0,8.9-4.7,13.5-13.7,13.5
		c-54.8,0-109.5,0-164.3,0c-8.9,0-13.6-4.7-13.6-13.6c0-15,0-29.9,0-44.9c0-7.9-5-13.4-12-13.3c-7.1,0-11.9,5.4-11.9,13.4
		c0,14.7,0,29.4,0,44.2c0,23,15.2,38.2,38.2,38.2C65.3,287.5,92.4,287.5,119.4,287.5z"/>
	<path d="M107.8,40.9C94.9,53.8,82.7,66,70.6,78.2c-1.1,1.1-2.1,2.2-3.2,3.1c-4.9,3.9-11.7,3.4-16-1c-4.3-4.4-4.6-11.2-0.6-16
		c0.6-0.7,1.2-1.3,1.8-1.9C71.8,43.1,91,23.9,110.2,4.7c6.2-6.2,12.8-6.3,19-0.2c19.4,19.4,38.8,38.8,58.2,58.2
		c7.2,7.3,4.7,18.3-4.7,20.7c-4.8,1.3-8.8-0.3-12.2-3.8c-11.7-11.8-23.4-23.5-35.2-35.2c-0.9-0.9-1.9-1.8-3.6-3.4c0,2.2,0,3.6,0,5
		c0,55.6,0,111.2,0,166.8c0,1.6,0.1,3.3-0.2,4.8c-1.1,6-6.7,10.3-12.7,9.8c-5.9-0.5-10.6-5.4-11-11.3c-0.1-1.2,0-2.5,0-3.7
		c0-55.5,0-111,0-166.5C107.8,44.7,107.8,43.3,107.8,40.9z"/>
	<path d="M119.4,287.5c-27.1,0-54.1,0-81.2,0c-23,0-38.2-15.2-38.2-38.2c0-14.7,0-29.4,0-44.2c0-8,4.8-13.4,11.9-13.4
		c7.1,0,12,5.4,12,13.3c0,15,0,29.9,0,44.9c0,8.9,4.7,13.6,13.6,13.6c54.8,0,109.5,0,164.3,0c9,0,13.7-4.7,13.7-13.5
		c0-15,0-29.9,0-44.9c0-8,4.9-13.4,11.9-13.4c7.1,0,12,5.4,12,13.4c0,15,0,29.9,0,44.9c0,22-15.4,37.5-37.4,37.5
		C174.6,287.5,147,287.5,119.4,287.5z"/>
</g>
</svg>
