<?xml version="1.0" encoding="UTF-8"?>
<svg id="Ebene_1" data-name="Ebene 1" xmlns="http://www.w3.org/2000/svg" version="1.1" viewBox="0 0 452.65 429.53">
  <defs>
    <style>
      .cls-1 {
        fill: #707070;
        stroke-width: 0px;
      }
    </style>
  </defs>
  <g>
    <path class="cls-1" d="M255.84,214.84c-2.76-6.99-8.35-10.13-15.68-10.16-15.48-.07-30.97-.03-46.45-.03-29.63,0-59.27.03-88.9-.02-6.58-.01-12.19,1.8-15.82,7.64-6.64,10.68.83,24,13.74,24.11,22.97.18,45.95.05,68.92.06,22.64,0,45.28-.05,67.93.04,5.09.02,9.59-1.16,13.09-4.97,4.47-4.87,5.59-10.57,3.18-16.67Z"/>
    <path class="cls-1" d="M172.3,322.21c-23.14,0-46.28-.07-69.42.03-9.84.05-16.45,6.92-16.2,16.37.25,9.34,7.39,15.36,18.41,15.37,44.45.02,58.9.02,103.35-.02,2.31,0,4.69-.18,6.92-.72,6.42-1.56,11.15-7.49,11.51-14.08.52-9.63-6.2-16.86-16.15-16.91-22.81-.11-15.62-.04-38.42-.04Z"/>
  </g>
  <path class="cls-1" d="M235.84,273.61c-2.76-6.99-8.35-10.13-15.68-10.16-15.48-.07-10.97-.03-26.45-.03-29.63,0-59.27.03-88.9-.02-6.58-.01-12.19,1.8-15.82,7.64-6.64,10.68.83,24,13.74,24.11,22.97.18,45.95.05,68.92.06,22.64,0,25.28-.05,47.93.04,5.09.02,9.59-1.16,13.09-4.97,4.47-4.87,5.59-10.57,3.18-16.67Z"/>
  <path class="cls-1" d="M349.5,424.86c-56.79,0-103-46.21-103-103s46.21-103,103-103,103,46.21,103,103-46.21,103-103,103ZM349.5,251.86c-38.6,0-70,31.4-70,70s31.4,70,70,70,70-31.4,70-70-31.4-70-70-70Z"/>
  <path class="cls-1" d="M350.23,370.03c-6.33,0-11.47-5.13-11.47-11.47v-22.94h-22.94c-6.33,0-11.47-5.13-11.47-11.47s5.13-11.47,11.47-11.47h22.94v-22.94c0-6.33,5.13-11.47,11.47-11.47s11.47,5.14,11.47,11.47v22.94h22.94c6.33,0,11.47,5.14,11.47,11.47s-5.13,11.47-11.47,11.47h-22.94v22.94c0,6.33-5.13,11.47-11.47,11.47Z"/>
  <path class="cls-1" d="M257.24,396.72c-70.1,0-140.19.01-210.29,0-10.21,0-13.87-3.67-13.88-13.86-.02-15.58-.01-31.17,0-46.75h0v-106.71c0-60.35,0-120.69,0-181.04,0-11,3.43-14.49,14.24-14.5,39.67-.01,79.33,0,119,0,1.77,0,3.54.16,5.72.26v5.81c0,29.01-.01,58.01,0,87.02.02,27.55,17.78,45.41,45.26,45.45,29,.04,58,0,87,.01,1.95,0,3.91,0,6.33,0,.1,2.26.22,3.58.22,4.9,0,10.16,0,20.31,0,30.47,10.07-3.45,20.74-5.59,31.82-6.22,0-9.93,0-19.86,0-29.79.01-13.73-4.66-25.16-14.47-34.91-40.19-39.95-80.25-80.04-120.22-120.22-9.85-9.9-21.34-14.7-35.33-14.63-42.17.2-84.33.06-126.5.1-3.32,0-6.71.03-9.95.66C14.9,6.88,1.32,24.06,1.3,46.98c-.06,61.35-.02,122.69-.01,184.04,0,1.27.09,63.53.16,91.62h-.17c0,1.91,0,3.39,0,4.87,0,18.67-.06,37.34.01,56.01.11,27.15,18.02,44.98,45.26,44.99,83.67.03,167.34.04,251,0,.03,0,.05,0,.08,0-15.67-7.58-29.44-18.48-40.39-31.78ZM203.88,59.34c27.09,27.06,54.07,54.03,81.11,81.05-1.2.07-2.78.23-4.37.23-21,.02-41.99.03-62.99,0-10.27-.01-13.75-3.55-13.75-13.87,0-21,0-42,0-63v-4.4Z"/>
</svg>