<?xml version="1.0" encoding="utf-8"?>
<!-- Generator: Adobe Illustrator 28.0.0, SVG Export Plug-In . SVG Version: 6.00 Build 0)  -->
<svg version="1.1" id="Ebene_1" xmlns="http://www.w3.org/2000/svg" xmlns:xlink="http://www.w3.org/1999/xlink" x="0px" y="0px"
	 viewBox="0 0 512 512" style="enable-background:new 0 0 512 512;" xml:space="preserve">
<style type="text/css">
	.st0{fill:#22A79E;}
	.st1{fill:#FFC400;}
	.st2{fill:#D83356;}
	.st3{fill:#2388AE;}
	.st4{fill:#999999;}
	.st5{fill:#FF7900;}
	.st6{fill:#D807B1;}
	.st7{fill:#FFAA00;}
</style>
<g>
	<path class="st1" d="M120.53,489.79c-41.49,0-79.61-25.12-94.85-62.51C10.87,390.93,14.2,357.48,35.85,325
		C44.8,311.6,53.8,297.92,62.5,284.7c17.53-26.63,35.65-54.17,54.1-80.74c20.99-30.22,48.82-45.55,82.71-45.55
		c7.19,0,14.72,0.71,22.38,2.11c43.22,7.92,70.88,34.08,82.21,77.75c7.74,29.83,2.54,57.94-15.9,85.95
		c-1.95,2.96-3.24,3.52-6.12,3.69c-0.37,0.02-0.74,0.03-1.12,0.03c-10.78,0-22.87-8.82-25.88-18.87c-0.7-2.34-0.44-2.96,0.55-4.27
		c10.18-13.44,14.98-28.5,14.26-44.77c-1.21-27.2-18.75-50.87-44.68-60.29c-7.31-2.66-14.94-4.01-22.67-4.01
		c-18.81,0-36.85,8.13-49.51,22.3c-2.51,2.81-4.94,5.97-7.22,9.41c-9.77,14.68-19.52,29.37-29.27,44.07
		c-16.01,24.12-32.56,49.06-48.93,73.53c-14.72,22.01-17.54,44.02-8.38,65.42c10.16,23.72,29.27,38.01,55.27,41.34
		c3.1,0.4,6.19,0.6,9.19,0.6c21,0,39.33-9.91,53.04-28.66c4-5.46,7.66-11.22,10.94-16.43l31.16,20.51
		c-21.32,39.71-51.94,59.97-93.35,61.87C123.71,489.75,122.11,489.79,120.53,489.79z"/>
	<path class="st1" d="M280.62,402.9c-46.17,0-81.79-25.69-97.72-70.47c-10.57-29.72-7.09-59.43,10.35-88.3
		c3.31-5.48,8.35-8.5,14.19-8.5c3.29,0,6.71,1,9.87,2.89c10.34,6.18,12.92,15.34,7.25,25.79c-14.72,27.19-13.04,53.67,4.87,76.56
		c12.87,16.46,31.9,25.9,52.2,25.9c15.41,0,30.06-5.33,42.38-15.41c14.73-12.05,29.08-24.89,42.96-37.3
		c5.7-5.1,11.59-10.37,17.41-15.49c15.54-13.69,33.62-29.62,51.48-45.5c26-23.12,31.13-59.25,12.48-87.87
		c-12.32-18.89-33.06-30.17-55.49-30.17c-10.34,0-20.49,2.31-30.19,6.86c-4.77,2.24-9.58,4.56-14.23,6.8
		c-3.78,1.82-7.56,3.65-11.35,5.44c-2.76,1.31-5.6,1.98-8.44,1.98c-6.37,0-12.07-3.37-15.64-9.26c-4.4-7.24-3.8-18.69,4.09-23.52
		c20.99-12.88,46.4-26.05,75.69-26.05c2,0,4.03,0.06,6.03,0.18c50.56,3.07,92.37,43.13,97.24,93.18
		c3.54,36.34-8.02,65.92-35.35,90.43c-38.49,34.51-76.94,68.28-106.15,93.84c-11.77,10.3-27.68,22.46-46.42,25.08l-0.3,0.04
		l-0.3,0.06C298.38,401.95,289.33,402.9,280.62,402.9z"/>
</g>
<path class="st1" d="M101.54,102.68c9.49-9.43,19.8-9.81,31.33-3.61c7.77,4.17,16.04,7.25,24.03,10.94
	c12.41,5.87,17.2,17.78,11.83,29.1c-5.26,11.08-17.37,15.04-29.65,9.52c-7.99-3.69-15.81-7.74-24.08-10.82
	c-12.26-4.63-18.48-12.78-17.64-26.05C98.8,108.61,100.14,105.7,101.54,102.68z"/>
<path class="st1" d="M257.49,106.5c-3.99,7.7-10.3,12.14-19.14,11.88c-9.61-0.18-16.45-5.09-20.06-13.81
	c-3.68-8.89-6.77-18.1-10.1-27.13c-4.89-13.27-9.96-26.47-14.67-39.81c-3.08-8.91-0.67-17.64,6.3-23.52
	c6.69-5.58,16.54-7.2,23.67-2.29c4.14,2.79,8.28,7.2,9.97,11.8c8.62,21.74,16.59,43.92,24.68,65.86
	C260.23,95.14,260.23,100.86,257.49,106.5z"/>
<path class="st1" d="M353.29,58.63c-2.46,5.33-4.74,10.59-7.32,15.86c-5.22,10.37-17.14,14.56-27.55,9.75
	c-10.59-4.74-15.54-16.28-11.05-26.98c4.72-11.18,9.8-22.2,15.25-33.05c5.17-10.24,17.58-13.91,27.88-8.87
	c10.18,4.99,14.67,16.9,10.11,27.42C358.32,48.03,355.74,53.31,353.29,58.63z"/>
</svg>
