<?xml version="1.0" encoding="utf-8"?>
<!-- Generator: Adobe Illustrator 25.0.0, SVG Export Plug-In . SVG Version: 6.00 Build 0)  -->
<svg version="1.1" id="Ebene_1" xmlns="http://www.w3.org/2000/svg" xmlns:xlink="http://www.w3.org/1999/xlink" x="0px" y="0px"
	 viewBox="0 0 414.1 340.2" style="enable-background:new 0 0 414.1 340.2;" xml:space="preserve">
<g>
	<path d="M411.6,105.7c-1.8,5.7-3.2,11.5-5.4,16.9c-3.7,8.8-9.9,15.7-17.4,21.4c-1.3,1-2.6,3.1-2.6,4.7c-0.1,57.3-0.1,114.7-0.1,172
		c0,0.8,0.1,1.6,0.2,2.8c2.2,0,4.3-0.1,6.4,0c3.7,0.2,6.3,2.7,6.2,6c0,3.1-2.4,5.5-5.9,5.9c-1.2,0.1-2.4,0.1-3.6,0.1
		c-121.3,0-242.7,0-364,0c-1.6,0-3.2,0.1-4.8-0.3c-3.1-0.7-4.9-2.9-4.7-6c0.2-3.2,2.1-5.2,5.3-5.5c2.2-0.2,4.5,0,7.3,0
		c0-1.7,0-3.1,0-4.5c0-56.5,0-113.1,0.1-169.6c0-2.7-0.8-4.3-3-5.9C11.3,133.1,3.8,118.8,3,101.2c-0.1-2.1,0.5-4.5,1.5-6.4
		C19.7,67.9,35,41.2,50.3,14.4C54.5,7,60.8,3.5,69.3,3.5c91.9,0,183.9,0,275.8,0c8.8,0,15.1,3.9,19.4,11.6
		c14.9,26.3,29.9,52.4,44.9,78.6c0.6,1.1,1.5,2.1,2.2,3.2C411.6,99.8,411.6,102.8,411.6,105.7z M395.1,93.2c-1-1.8-1.5-2.9-2.1-3.9
		c-12.9-22.6-25.9-45.2-38.7-67.9c-2.4-4.2-5.4-5.9-10.2-5.9c-91.3,0.1-182.6,0.1-273.8,0c-4.9,0-7.8,1.7-10.2,5.9
		C47.3,44.1,34.3,66.6,21.3,89.3c-0.6,1.1-1.2,2.2-2,3.8c4.4,0,8.1,0,11.8,0c6.1,0,9.1,1.9,9.2,5.9c0.1,4.1-2.9,6.1-9.3,6.1
		c-5.1,0-10.2,0-15.3,0c1.7,21,22.2,38.1,43.6,37.6c24.1-0.6,41-20.8,41.6-37.6c-4.2,0-8.4,0-12.6,0c-9.3,0-18.6,0.1-27.9-0.1
		c-3.8-0.1-6.4-2.6-6.3-5.8c0.2-3.6,2.4-5.5,5.8-6c1.3-0.2,2.7-0.1,4-0.1c95.5,0,191.1,0,286.6,0c1.8,0,3.7,0.1,5.5,0.5
		c3,0.7,4.5,3,4.2,6c-0.2,2.9-1.9,4.9-5,5.3c-1.3,0.2-2.7,0.2-4,0.2c-11.2,0-22.4,0-33.5,0c-1.4,0-2.8,0-4.3,0
		c0.9,18.1,19,38,43.3,37.6c25-0.4,41.5-21.7,41.8-37.6c-4.8,0-9.5,0-14.3,0c-1.5,0-2.9,0-4.4-0.1c-3.4-0.3-5.3-2.2-5.6-5.6
		c-0.3-3.2,2.2-6,6-6.2C384.9,93,389.7,93.2,395.1,93.2z M40.5,323.3c75,0,149.7,0,224.8,0c0-1.8,0-3.4,0-5c0-46.4,0-92.9,0-139.3
		c0-7.5,1.5-9,9.2-9.1c23.3,0,46.6,0,69.9,0c8.3,0,9.8,1.5,9.8,9.8c0,46.3,0,92.6,0,138.9c0,1.5,0,3.1,0,4.6c6.9,0,13.4,0,19.9,0
		c0-57.2,0-114.1,0-171.5c-13.1,3.8-25.8,3.9-38.4-1.1c-12.7-5.1-22.1-14-29-26.3c-11.2,19.3-27.4,30.1-49.5,30.1
		c-22.3,0.1-38.5-10.8-49.8-30c-11.4,19.3-27.6,30-49.7,30c-22.1-0.1-38.3-11-49.5-30.1c-6.7,12.2-16,21-28.6,26.1
		c-12.7,5.2-25.6,5.2-38.8,1.3C40.5,209.2,40.5,266.1,40.5,323.3z M277.5,291.4c21.7,0,42.9,0,64.2,0c0-36.5,0-72.8,0-109.2
		c-21.6,0-42.8,0-64.2,0C277.5,218.7,277.5,254.9,277.5,291.4z M114.8,105.3c2.3,21.1,21.6,37.6,43.1,37.4
		c21.7-0.3,40.9-17.1,42.4-37.4C171.9,105.3,143.5,105.3,114.8,105.3z M299.6,105.3c-28.7,0-57.1,0-85.5,0
		c1.6,20.3,20.8,37.1,42.4,37.4C278,142.9,297.4,126.3,299.6,105.3z M277.5,303.8c0,6.8,0,13.1,0,19.6c21.5,0,42.9,0,64.3,0
		c0-6.6,0-13.1,0-19.6C320.3,303.8,299.1,303.8,277.5,303.8z"/>
	<path d="M152.7,170c27.7,0,55.3,0,83,0c8,0,9.6,1.5,9.6,9.5c0,38.2,0,76.4,0,114.5c0,7.9-1.7,9.5-9.7,9.5c-55.2,0-110.4,0-165.6,0
		c-7.9,0-9.6-1.7-9.6-9.6c0-38.2,0-76.4,0-114.5c0-7.8,1.6-9.4,9.3-9.4C97.3,170,125,170,152.7,170z M233,182.3
		c-53.6,0-107,0-160.4,0c0,36.6,0,72.8,0,109.1c53.6,0,106.9,0,160.4,0C233,254.9,233,218.7,233,182.3z"/>
</g>
</svg>
