<?xml version="1.0" encoding="utf-8"?>
<!-- Generator: Adobe Illustrator 25.0.1, SVG Export Plug-In . SVG Version: 6.00 Build 0)  -->
<svg version="1.1" id="Layer_1" xmlns="http://www.w3.org/2000/svg" xmlns:xlink="http://www.w3.org/1999/xlink" x="0px" y="0px"
	 viewBox="0 0 400 400" style="enable-background:new 0 0 400 400;" xml:space="preserve">
<g>
	<path d="M164.8,387.8c-11.3-1.3-18.2-6.8-21.8-17.4C120.4,302.4,31.6,36.4,30.6,30.9c-1.9-9.8,2.2-16.3,11.9-18.8
		c2.8-0.7,5.7-1.1,8.8-1.5c1.4-0.2,41.4-0.3,42.6-0.1c2.8,0.3,5.6,0.7,8.4,1.1c8.4,1.2,13.7,5.4,16.1,13.1
		c2.1,6.8,10.4,32.6,12.4,38.8c6.1,19.3,11.1,35.1,15.7,49.9c0.5,1.5,0.9,3.2,0.8,4.7c-0.2,2.4-2.3,4.3-5,4.6c-0.1,0-0.3,0-0.4,0
		c-2.4,0-4.4-1.6-5.3-4.4c-2-6.1-22.4-71.2-27-85.9c-2.7-8.6-4.1-10.3-13.6-10.5c-7.9-0.2-37.7-0.2-44.6-0.1
		c-4.8,0.1-7.7,0.5-9.2,2.7c-1.5,2.1-1,5,0.4,9.6c6.7,21.1,88.9,266.6,110.1,330.3c2.9,8.8,7.8,12.8,15.7,12.8
		c13.8,0.1,55.5,0.1,63.6,0.1c6.6,0,11-3.6,13.5-10.9c22.3-66.8,103.2-306.9,110-327.6c0.8-2.5,3-11.6,1.9-14.6
		c-1.2-3.5-9.7-2.8-11.2-2.8c0,0-26.7,0.5-40.6,1c-4.7,0.1-7.7,2.7-9.3,7.9c-25.9,83.7-52.4,168.7-78,251l-9.2,29.4
		c-1.5,4.9-3.8,5.5-5.7,5.5c-0.4,0-0.8,0-1.3-0.1c-2.5-0.4-3.8-1.8-4.9-5.4c-3.8-12.3-39.5-125.6-39.6-125.9
		c-0.1-0.2-0.1-0.4-0.2-0.6c-1.2-4-0.1-7,3-8c0.7-0.2,1.3-0.3,1.9-0.3c2.5,0,4.5,1.8,5.5,5c6,19.1,35.3,111.9,35.3,111.9l81.1-260.6
		l0.2-0.7c0.1-0.4,0.2-0.7,0.3-1.1c4.5-14.9,9.5-18.8,25.2-19.7c1.3-0.1,43.2,0.3,45.3,0.7c5.6,1,9.8,3.5,12,7
		c2.1,3.3,2.6,7.6,1.3,12.4C365,44.5,278,303.2,256,369.1c-4.2,12.6-11.8,18.5-24.7,19.2C217.9,389.1,175,388.9,164.8,387.8z"/>
	<path d="M152,154.6c-1.5,0-2.9-0.6-3.9-1.7c-1-1.1-1.6-2.5-1.5-3.9c0.1-3,2.5-5.2,5.5-5.2l0.1,0c3.1,0.1,5.3,2.3,5.3,5.4
		C157.3,152.2,155,154.6,152,154.6L152,154.6z"/>
</g>
</svg>
