<?xml version="1.0" encoding="utf-8"?>
<!-- Generator: Adobe Illustrator 25.0.1, SVG Export Plug-In . SVG Version: 6.00 Build 0)  -->
<svg version="1.1" id="Layer_1" xmlns="http://www.w3.org/2000/svg" xmlns:xlink="http://www.w3.org/1999/xlink" x="0px" y="0px"
	 viewBox="0 0 1154 560" style="enable-background:new 0 0 1154 560;" xml:space="preserve">
<style type="text/css">
	.st0{fill:url(#SVGID_1_);}
	.st1{fill:url(#SVGID_2_);}
	.st2{fill:#FFFFFF;}
	.st3{fill:url(#SVGID_3_);}
	.st4{fill:url(#SVGID_4_);}
	.st5{fill:url(#SVGID_5_);}
	.st6{fill:url(#SVGID_6_);}
	.st7{fill:url(#SVGID_7_);}
	.st8{fill:url(#SVGID_8_);}
	.st9{fill:url(#SVGID_9_);}
	.st10{fill:url(#SVGID_10_);}
	.st11{fill:url(#SVGID_11_);}
	.st12{fill:url(#SVGID_12_);}
	.st13{fill:url(#SVGID_13_);}
	.st14{fill:url(#SVGID_14_);}
	.st15{fill:url(#SVGID_15_);}
	.st16{fill:url(#SVGID_16_);}
	.st17{fill:url(#SVGID_17_);}
	.st18{fill:url(#SVGID_18_);}
	.st19{fill:url(#SVGID_19_);}
</style>
<linearGradient id="SVGID_1_" gradientUnits="userSpaceOnUse" x1="9.375000e-02" y1="280.1494" x2="1154.1421" y2="280.1494">
	<stop  offset="0" style="stop-color:#B90713"/>
	<stop  offset="1" style="stop-color:#FAA92B"/>
</linearGradient>
<path class="st0" d="M610.2,560l55.1-183.4h278v-39.7h210.8v-35.7h-209v-45.4h209v-34h-61c42.8-44.9,61-72.4,61-110.3
	c0-32.4-11.6-60.2-33.6-80.3c-21.8-19.9-51.9-30.5-86.9-30.5c-36.5,0-67.1,10.4-89.7,29.5V0.3H612.6l-78.5,297.9L450.9,0.3H333.2
	l-84.1,297.9L170.6,0.3H0.1L173,560h35.2L45.7,33.9h98.5L283.5,560h32.8l75.3-269.8L467.7,560H610.2z M534,414l46.4-158.3h329.3V343
	H640.6l-56.8,187.9L490,531l-98.4-365l-91.3,325.9l-34.4-129.7l92.9-328.3h66.5L534,414z M676.8,222.1l-87.5-0.1L639,33.9h271.3V122
	H706.2L676.8,222.1z M993.8,221.7c10-9.9,20.2-20.1,29.4-30c30.1-31.6,45.4-51,45.4-69.2c0-24.9-18.1-42.9-42.9-42.9
	c-18.3,0-33.2,9.6-40.4,25.5l30,17.4c2.6-4.4,6.1-7.7,10.4-7.6c5.2,0,7.7,2.4,7.7,7.6c-0.1,0.7-1.6,6.6-18.1,25.8
	c0,0-10.3,11.6-17.3,18.9c-14.9,15.4-36.8,37.1-55.1,55H711.4l19.6-66.5l212.9,0V90.5c18.5-49,67.8-54.6,89.2-54.6
	c26,0,47.7,7.2,62.9,20.8c14.9,13.3,22.8,32.2,22.8,54.8c0,32.7-23.1,57.8-75.2,110.3H993.8z"/>
</svg>
