<?xml version="1.0" encoding="UTF-8"?>
<svg id="Ebene_1" data-name="Ebene 1" xmlns="http://www.w3.org/2000/svg" version="1.1" viewBox="0 0 214.6 214.6">
  <defs>
    <style>
      .cls-1 {
        fill: #777;
        stroke-width: 0px;
      }
    </style>
  </defs>
  <path class="cls-1" d="M28.1,178h3.7c1.4,0,2.4-.3,3.2-.9.7-.6,1.1-1.4,1.1-2.5s-.4-1.9-1.1-2.5c-.7-.6-1.8-.9-3.2-.9h-3.7v6.8Z"/>
  <path class="cls-1" d="M188.7,1.1H25.8C11.6,1.1,0,12.7,0,27v162.9c0,14.3,11.6,25.8,25.8,25.8h162.9c14.3,0,25.8-11.6,25.8-25.8V27c0-14.3-11.6-25.8-25.8-25.8ZM50.7,33.8h35.1l22,31.9,21.7-31.9h33.5l-38.2,53.2,40.9,56.9h-35.9l-22.8-34.1-22.5,34.1h-35.5l40.1-55.9-38.4-54.2ZM36,187.1l-3.8-5.5c0,0-.1,0-.2,0h-3.9v5.5h-4.6v-19.7h8.5c1.8,0,3.3.3,4.6.9,1.3.6,2.3,1.4,3,2.5s1,2.3,1,3.8-.3,2.8-1,3.8-1.7,1.9-3,2.4c0,0,0,0,0,0l4.4,6.3h-4.9ZM59.4,187.1h-15.2v-19.7h14.9v3.7h-10.4v4.2h9.1v3.6h-9.1v4.6h10.7v3.7ZM66.9,179.9c.3.8.7,1.4,1.3,2,.6.6,1.2,1,2,1.3s1.6.5,2.5.5,1.9-.2,2.7-.6,1.6-1,2.2-1.8l3,2.7c-.9,1.1-2.1,2-3.5,2.6-1.4.6-2.9.9-4.7.9s-2.9-.2-4.2-.7c-1.3-.5-2.4-1.2-3.4-2.1-1-.9-1.7-2-2.2-3.2-.5-1.2-.8-2.6-.8-4.1s.3-2.8.8-4.1c.5-1.2,1.3-2.3,2.3-3.2,1-.9,2.1-1.6,3.4-2.1,1.3-.5,2.7-.7,4.2-.7s3.3.3,4.6.9c1.4.6,2.6,1.5,3.5,2.6l-3,2.7c-.7-.8-1.4-1.4-2.2-1.7-.8-.4-1.7-.6-2.7-.6s-1.8.2-2.5.5-1.4.7-2,1.3c-.6.6-1,1.2-1.3,2-.3.8-.5,1.6-.5,2.6s.2,1.8.5,2.6ZM101.7,187.1h-4.6v-8.1h-8.9v8.1h-4.6v-19.7h4.6v7.8h8.9v-7.8h4.6v19.7ZM124.5,187.1h-3.8l-9.8-11.9v11.9h-4.5v-19.7h3.8l9.8,11.9v-11.9h4.5v19.7ZM146.8,178.5c0,2.9-.8,5.1-2.4,6.7-1.6,1.6-3.8,2.3-6.5,2.3s-5-.8-6.6-2.3-2.4-3.8-2.4-6.7v-11h4.6v10.9c0,1.9.4,3.2,1.2,4,.8.8,1.8,1.3,3.2,1.3s2.5-.4,3.2-1.3c.8-.8,1.2-2.2,1.2-4v-10.9h4.5v11ZM169.4,187.1h-3.8l-9.8-11.9v11.9h-4.5v-19.7h3.8l9.8,11.9v-11.9h4.5v19.7ZM177.9,179.8c.3.8.8,1.4,1.3,2,.6.6,1.2,1,2,1.3.8.3,1.6.5,2.6.5s1.8-.1,2.6-.5c.3-.1.6-.3.9-.4v-5.8h4.2v8c-1.1.8-2.3,1.4-3.7,1.9-1.4.4-2.8.6-4.2.6s-3-.2-4.3-.7c-1.3-.5-2.4-1.2-3.4-2.1-1-.9-1.7-2-2.2-3.2-.5-1.2-.8-2.6-.8-4.1s.3-2.8.8-4.1c.5-1.2,1.3-2.3,2.3-3.2,1-.9,2.1-1.6,3.4-2.1,1.3-.5,2.8-.7,4.3-.7s3.3.3,4.7.9c1.4.6,2.6,1.4,3.5,2.5l-2.9,2.7c-.7-.8-1.5-1.3-2.4-1.7-.8-.4-1.8-.5-2.8-.5s-1.8.2-2.6.5c-.8.3-1.5.7-2,1.3-.6.6-1,1.2-1.3,2-.3.8-.5,1.6-.5,2.6s.2,1.7.5,2.5ZM194.9,103.9h-25.3v-3.4l14.3-13.8c1.3-1.2,2.2-2.3,2.8-3.2.6-.9,1-1.8,1.3-2.6.2-.8.3-1.5.3-2.3,0-1.8-.6-3.2-1.9-4.3-1.3-1-3.1-1.6-5.6-1.6s-3.6.3-5.1.9c-1.5.6-2.8,1.6-3.9,2.9l-3.4-3c1.3-1.7,3.1-3,5.4-3.9,2.3-.9,4.7-1.4,7.5-1.4s4.6.4,6.4,1.2c1.8.8,3.2,1.9,4.2,3.4,1,1.5,1.5,3.2,1.5,5.2s-.2,2.3-.5,3.4-.9,2.3-1.7,3.5c-.8,1.2-2,2.6-3.6,4.2l-10.7,10.3h18v4.4Z"/>
</svg>