<svg id="Zoom_out" data-name="Zoom out" xmlns="http://www.w3.org/2000/svg" width="22.746" height="22.766" viewBox="0 0 22.746 22.766">
  <path id="Pfad_45" data-name="Pfad 45" d="M92.587,190.39c-.557-.567-1.123-1.126-1.686-1.687-1.229-1.223-2.459-2.445-3.7-3.681a9.434,9.434,0,0,0-2.031-13.141,9.34,9.34,0,1,0,.131,15.042,2.872,2.872,0,0,0,.273.373q2.525,2.535,5.058,5.062a1.394,1.394,0,0,0,2.045.11A1.411,1.411,0,0,0,92.587,190.39Zm-6.978-11.02a.806.806,0,0,1-.806.806H74.7a.806.806,0,0,1-.806-.806v-.2a.806.806,0,0,1,.806-.806H84.8a.806.806,0,0,1,.806.806Z" transform="translate(-70.343 -170.097)" fill="#7a7a7a"/>
</svg>
