<svg id="Gruppe_379" data-name="Gruppe 379" xmlns="http://www.w3.org/2000/svg" xmlns:xlink="http://www.w3.org/1999/xlink" width="21.621" height="37.611" viewBox="0 0 21.621 37.611">
  <defs>
    <clipPath id="clip-path">
      <rect id="Rechteck_234" data-name="Rechteck 234" width="21.621" height="37.611" fill="none"/>
    </clipPath>
  </defs>
  <g id="Gruppe_378" data-name="Gruppe 378" clip-path="url(#clip-path)">
    <path id="Pfad_534" data-name="Pfad 534" d="M20.151,37.611H14.42A2.081,2.081,0,0,1,13,35.3c.056-1.749.008-3.5.02-5.25,0-.335-.107-.45-.446-.445-1.151.017-2.3.006-3.452.006-.5,0-.5,0-.5.484q0,2.772,0,5.545a2.643,2.643,0,0,1-.044.546,1.9,1.9,0,0,1-1.425,1.426H1.416A2,2,0,0,1,0,35.553Q.022,18.772.01,1.992A1.812,1.812,0,0,1,1.984,0Q10.817,0,19.65,0A1.814,1.814,0,0,1,21.62,1.964q0,16.836,0,33.672a2.608,2.608,0,0,1-.038.511,1.9,1.9,0,0,1-1.43,1.465M6.789,9.618c.318,0,.637,0,.955,0a1.805,1.805,0,0,0,1.875-1.8c.024-.672.025-1.347,0-2.02A1.779,1.779,0,0,0,7.843,4.007c-.7-.025-1.4-.028-2.093,0A1.78,1.78,0,0,0,4,5.785c-.02.685-.022,1.372,0,2.056A1.807,1.807,0,0,0,5.834,9.617c.318.005.637,0,.955,0M12,22.8c0,.306,0,.612,0,.918a1.812,1.812,0,0,0,1.824,1.9c.66.021,1.323.021,1.983,0a1.768,1.768,0,0,0,1.8-1.722,19.812,19.812,0,0,0,0-2.2A1.759,1.759,0,0,0,15.852,20c-.7-.025-1.4-.028-2.093,0A1.8,1.8,0,0,0,12,21.809c-.008.33,0,.661,0,.992m2.826-10.783v-.023c-.343,0-.686-.013-1.028,0A1.811,1.811,0,0,0,12,13.845q-.012.955,0,1.91a1.805,1.805,0,0,0,1.784,1.858c.685.025,1.372.025,2.057,0A1.755,1.755,0,0,0,17.6,15.931a19.4,19.4,0,0,0,0-2.275,1.709,1.709,0,0,0-1.562-1.631,10.291,10.291,0,0,0-1.21-.008M4,22.789c0,.318,0,.637,0,.955a1.813,1.813,0,0,0,1.814,1.869c.66.023,1.323.021,1.983,0a1.8,1.8,0,0,0,1.824-1.82c.021-.66.021-1.323,0-1.983A1.8,1.8,0,0,0,7.828,20c-.685-.022-1.372-.025-2.057,0A1.805,1.805,0,0,0,4,21.8c-.011.33,0,.661,0,.992M6.781,17.62c.33,0,.66.008.99,0a1.816,1.816,0,0,0,1.85-1.83c.019-.659.021-1.32,0-1.979A1.8,1.8,0,0,0,7.794,12c-.66-.018-1.32-.02-1.98,0A1.809,1.809,0,0,0,4,13.859c-.009.635-.01,1.271,0,1.906a1.82,1.82,0,0,0,1.828,1.852c.317.011.635,0,.953,0m8-8c.355,0,.71.009,1.065,0A1.749,1.749,0,0,0,17.59,8a18.582,18.582,0,0,0,0-2.384A1.682,1.682,0,0,0,16,4.026a19.154,19.154,0,0,0-2.348,0A1.755,1.755,0,0,0,12,5.776Q11.98,6.8,12,7.833a1.807,1.807,0,0,0,1.784,1.783c.33.009.661,0,.992,0" transform="translate(0 0)" fill="#fff"/>
  </g>
</svg>
