<svg id="Gruppe_670" data-name="Gruppe 670" xmlns="http://www.w3.org/2000/svg" xmlns:xlink="http://www.w3.org/1999/xlink" width="23.249" height="25.153" viewBox="0 0 23.249 25.153">
  <defs>
    <clipPath id="clip-path">
      <rect id="Rechteck_370" data-name="Rechteck 370" width="23.249" height="25.153" fill="#2388ae"/>
    </clipPath>
  </defs>
  <g id="Gruppe_568" data-name="Gruppe 568" clip-path="url(#clip-path)">
    <path id="Pfad_620" data-name="Pfad 620" d="M21.8,21.284c.177,0,.327-.005.476,0a.949.949,0,0,1,.96.953q.023.978,0,1.956a.964.964,0,0,1-.963.957c-.123.005-.246,0-.369,0H1.207c-.851,0-1.2-.352-1.2-1.206,0-.52,0-1.039,0-1.559a.983.983,0,0,1,1.1-1.1h.345V10.143c-.174,0-.332.005-.49,0a.941.941,0,0,1-.947-.934C-.005,8.263,0,7.318.01,6.373a1,1,0,0,1,.625-.9Q3.644,3.922,6.646,2.361C8.012,1.654,9.382.953,10.743.236A1.771,1.771,0,0,1,12.5.23q5.038,2.617,10.083,5.219a1.121,1.121,0,0,1,.665,1.114c-.014.812,0,1.625,0,2.438,0,.782-.359,1.139-1.144,1.144h-.3ZM10.187,10.159c-.009.08-.018.126-.018.172q0,5.355,0,10.711c0,.185.056.245.242.243.784-.008,1.568-.016,2.352,0,.27.006.326-.083.325-.335q-.011-5.242-.006-10.484c0-.1-.01-.2-.015-.31Zm-2.942.007H4.382v11.1H7.245Zm8.748,11.093h2.87V10.168h-2.87Z" transform="translate(0 0)" fill="#2388ae"/>
  </g>
</svg>
