<svg id="Gruppe_566" data-name="Gruppe 566" xmlns="http://www.w3.org/2000/svg" xmlns:xlink="http://www.w3.org/1999/xlink" width="26.739" height="34.565" viewBox="0 0 26.739 34.565">
  <defs>
    <clipPath id="clip-path">
      <rect id="Rechteck_369" data-name="Rechteck 369" width="26.739" height="34.565" fill="#fff"/>
    </clipPath>
  </defs>
  <g id="Gruppe_565" data-name="Gruppe 565" clip-path="url(#clip-path)">
    <path id="Pfad_618" data-name="Pfad 618" d="M0,221.2q.006-3.339.014-6.679a10.479,10.479,0,0,1,1.5-5.556,10.146,10.146,0,0,1,6.474-4.76,11.882,11.882,0,0,1,2.568-.307c2.1-.034,4.208-.048,6.308.03a9.952,9.952,0,0,1,6.914,3.142,9.89,9.89,0,0,1,2.7,5.076,13.545,13.545,0,0,1,.241,2.408c.033,2.08.011,4.161.011,6.241,0,.135.008.269.013.4Z" transform="translate(0 -186.64)" fill="#fff"/>
    <path id="Pfad_619" data-name="Pfad 619" d="M70.908,16.125a8.062,8.062,0,1,1,8.065-8.046,8.082,8.082,0,0,1-8.065,8.046" transform="translate(-57.549 0)" fill="#fff"/>
  </g>
</svg>
