<?xml version="1.0" encoding="UTF-8"?>
<svg id="Ebene_1" data-name="Ebene 1" xmlns="http://www.w3.org/2000/svg" version="1.1" viewBox="0 0 321.35 322.92">
  <defs>
    <style>
      .cls-1 {
        fill: #ffffff;
        stroke-width: 0px;
      }
    </style>
  </defs>
  <polygon class="cls-1" points="48.82 208.17 48.82 118.43 115.52 118.43 115.52 136.23 69.01 136.23 69.01 153.91 110.28 153.91 110.28 171.38 69.01 171.38 69.01 190.37 117.15 190.37 117.15 208.17 48.82 208.17"/>
  <path class="cls-1" d="M130.58,208.27v-89.84h39.63c9.44,0,17.92,1.88,25.22,5.59,7.45,3.72,13.26,9.04,17.26,15.79,4.17,6.83,6.2,14.56,6.2,23.6s-2.03,16.77-6.22,23.63l-4.05,6.63v-1.18c-3.55,4.11-7.91,7.48-13.19,10.2-7.43,3.71-15.91,5.59-25.23,5.59h-39.63ZM169.23,190.26c6.14,0,11.37-1.16,15.54-3.44,4.26-2.18,7.58-5.28,10.22-9.5,2.38-3.97,3.6-8.77,3.6-14.24s-1.22-10.38-3.62-14.38c-1.89-3.08-4.46-5.71-7.65-7.83l-2.5-1.28c-4.5-2.3-9.75-3.47-15.6-3.47h-18.45v54.15h18.45Z"/>
  <rect class="cls-1" x="231.34" y="118.43" width="20.2" height="89.73"/>
  <path class="cls-1" d="M57.81,250.02c0-3.97-.06-7,.01-10.02.15-6.57,5.01-11.47,11.29-11.42,6.11.04,11.05,4.88,11.11,11.24.11,11.25.11,22.5,0,33.75-.07,6.52-4.86,11.19-11.46,11.24-10.99.08-21.98.07-32.97,0-6.62-.04-11.57-4.83-11.66-11.06-.09-6.29,4.69-11.12,11.31-11.42.77-.03,1.53-.07,2.58-.12-3.67-5.11-7.31-9.8-10.55-14.76C8.01,217.61-.99,184.82,2.34,149.35,8.18,86.97,40.38,42.76,96.86,16.43c19.19-8.95,39.75-12.7,60.93-12.89,7.11-.06,12.24,4.61,12.29,11.13.05,6.52-4.93,11.13-12.09,11.38-51.57,1.75-90.8,24.81-116.72,69.41-27.57,47.44-21.51,109.6,13.85,151.57.66.79,1.38,1.53,2.7,3Z"/>
  <path class="cls-1" d="M259.91,72.1c0,3.92.06,6.94-.01,9.97-.15,6.57-5.02,11.49-11.27,11.46-6.23-.03-11.1-4.99-11.15-11.58-.07-11.01-.07-22.03,0-33.04.05-6.96,4.76-11.58,11.79-11.61,10.76-.06,21.51-.04,32.27,0,6.92.02,11.94,4.66,12.05,11.03.11,6.4-4.73,11.17-11.63,11.46-.66.03-1.31.08-2.27.13,3.55,4.91,7.07,9.4,10.19,14.15,19.69,29.98,28.48,62.92,25.59,98.7-5.5,68.05-51.29,122.97-117.06,140.75-12.57,3.4-25.44,4.96-38.47,5.04-7.09.04-12.23-4.64-12.28-11.14-.05-6.54,4.91-11.12,12.09-11.36,51.58-1.72,90.79-24.8,116.72-69.4,27.74-47.74,21.4-110.51-14.5-152.38-.45-.52-.94-1-2.04-2.16Z"/>
</svg>