<svg xmlns="http://www.w3.org/2000/svg" width="22.677" height="22.678" viewBox="0 0 22.677 22.678">
  <g id="Gruppe_315" data-name="Gruppe 315" transform="translate(-367 -527.509)">
    <path id="Pfad_458" data-name="Pfad 458" d="M380.686,527.509H388.3a1.706,1.706,0,0,1,.99.612,6.082,6.082,0,0,1,.383.806v10.408a.187.187,0,0,0-.023.037,1.676,1.676,0,0,1-1.824,1.369q-3.366,0-6.731,0a2.355,2.355,0,0,1-.569-.059,1.648,1.648,0,0,1-1.249-1.692q0-3.111,0-6.222c0-1.174,0-2.347,0-3.521a1.66,1.66,0,0,1,1.072-1.626C380.462,527.577,380.575,527.546,380.686,527.509Z" fill="#707070"/>
    <path id="Pfad_459" data-name="Pfad 459" d="M367,548.814V538.361a.212.212,0,0,0,.021-.039,1.68,1.68,0,0,1,1.827-1.367q3.387,0,6.775,0a1.668,1.668,0,0,1,1.774,1.776c0,.878,0,1.756,0,2.634q0,3.532,0,7.063a1.656,1.656,0,0,1-.952,1.6,3.819,3.819,0,0,1-.454.163h-7.574a1.732,1.732,0,0,1-1.213-.869A5.149,5.149,0,0,1,367,548.814Z" fill="#707070"/>
    <path id="Pfad_460" data-name="Pfad 460" d="M375.991,527.509a4.936,4.936,0,0,1,.819.41,1.532,1.532,0,0,1,.586,1.282c0,1.4.01,2.789,0,4.184a1.639,1.639,0,0,1-1.683,1.683q-3.508.016-7.018,0a1.643,1.643,0,0,1-1.653-1.3.8.8,0,0,0-.04-.1v-4.784c.027-.074.056-.148.081-.223a1.605,1.605,0,0,1,.865-.984c.138-.065.284-.111.427-.166Z" fill="#707070"/>
    <path id="Pfad_461" data-name="Pfad 461" d="M380.686,550.187a4.457,4.457,0,0,1-.473-.175,1.58,1.58,0,0,1-.927-1.473c-.015-1.424-.02-2.849,0-4.273a1.636,1.636,0,0,1,1.7-1.64c1.7-.008,3.395,0,5.092,0,.606,0,1.211,0,1.816,0a1.659,1.659,0,0,1,1.749,1.348.233.233,0,0,0,.031.058v4.739a5.6,5.6,0,0,1-.354.769,1.654,1.654,0,0,1-1.063.649Z" fill="#707070"/>
  </g>
</svg>
