<svg xmlns="http://www.w3.org/2000/svg" width="27" height="27.029" viewBox="0 0 27 27.029">
  <path id="Pfad_439" data-name="Pfad 439" d="M271.711,149.384q1.314,0,2.629,0a1.059,1.059,0,0,0,1.143-1.43,3.252,3.252,0,0,1,2.425-3.893,3.189,3.189,0,0,1,3.844,2.375A4.447,4.447,0,0,1,281.76,148a1.1,1.1,0,0,0,1.138,1.383c1.764,0,3.528,0,5.292,0a1.1,1.1,0,0,1,1.233,1.222q0,2.634,0,5.268a1.081,1.081,0,0,0,1.431,1.16,3.108,3.108,0,0,1,3.29,1.2,3.049,3.049,0,0,1,.3,3.459,3.113,3.113,0,0,1-3.005,1.74,3.465,3.465,0,0,1-.664-.1,1.05,1.05,0,0,0-1.347,1.083c0,1.779,0,3.557,0,5.336A1.108,1.108,0,0,1,288.156,171q-2.612,0-5.224,0a1.064,1.064,0,0,1-1.147-1.429,3.121,3.121,0,0,0-1.188-3.3,3.028,3.028,0,0,0-3.421-.317,3.121,3.121,0,0,0-1.769,2.992,3.813,3.813,0,0,0,.1.7A1.072,1.072,0,0,1,274.441,171q-2.747.012-5.494,0a1.068,1.068,0,0,1-1.1-1.117q-.008-2.752,0-5.5a1.043,1.043,0,0,1,1.344-1.05,3.237,3.237,0,1,0,.381-6.345c-.155.025-.308.066-.463.09a1.059,1.059,0,0,1-1.259-1.034q-.018-2.8,0-5.606a1.05,1.05,0,0,1,1.095-1.048C269.868,149.379,270.789,149.385,271.711,149.384Z" transform="translate(-267.843 -143.978)" fill="#707070"/>
</svg>
