<svg xmlns="http://www.w3.org/2000/svg" width="22.263" height="22.246" viewBox="0 0 22.263 22.246">
  <g id="Gruppe_323" data-name="Gruppe 323" transform="translate(-93 -216.811)">
    <path id="Pfad_479" data-name="Pfad 479" d="M93,453.009a1.26,1.26,0,0,1,.18.059q2.435,1.215,4.869,2.429a.265.265,0,0,1,.171.279q-.008,3.311,0,6.621h-.043c-.064-.044-.125-.093-.193-.131q-2.194-1.231-4.39-2.458a1.274,1.274,0,0,1-.59-.541Z" transform="translate(0 -223.341)" fill="#707070"/>
    <path id="Pfad_480" data-name="Pfad 480" d="M406.069,462.092q0-3.3,0-6.6c0-.114-.01-.21.131-.28q2.488-1.231,4.969-2.478c.025-.012.052-.021.117-.046v.242c0,1.9,0,3.808,0,5.712a.815.815,0,0,1-.46.79q-2.267,1.258-4.525,2.532c-.068.038-.129.087-.193.131Z" transform="translate(-296.027 -223.035)" fill="#707070"/>
    <path id="Pfad_481" data-name="Pfad 481" d="M213.517,473.444c0-2.194,0-4.388,0-6.582a.323.323,0,0,1,.215-.34c1.155-.569,2.3-1.148,3.455-1.723.07-.035.141-.065.235-.108,0,.09.011.159.011.227,0,2.02,0,4.04.005,6.061a.332.332,0,0,1-.2.334q-1.745.993-3.482,2c-.067.039-.128.088-.191.133Z" transform="translate(-113.953 -234.387)" fill="#707070"/>
    <path id="Pfad_482" data-name="Pfad 482" d="M313.24,473.632c-.064-.045-.124-.094-.191-.133q-1.758-1.013-3.519-2.022a.252.252,0,0,1-.163-.245q.008-3.117,0-6.234c0-.029,0-.057.008-.108a1.5,1.5,0,0,1,.161.058c1.2.6,2.392,1.2,3.592,1.79.142.07.153.161.153.29q0,3.3,0,6.6Z" transform="translate(-204.589 -234.575)" fill="#707070"/>
    <path id="Pfad_483" data-name="Pfad 483" d="M212.5,219.381c-.067.037-.115.065-.165.09q-2.434,1.217-4.871,2.43a.378.378,0,0,1-.293.008q-2.479-1.226-4.949-2.467c-.026-.013-.05-.03-.1-.061.062-.039.11-.073.161-.1q2.329-1.186,4.658-2.372a.745.745,0,0,1,.725-.008q2.348,1.2,4.7,2.391C212.406,219.313,212.445,219.344,212.5,219.381Z" transform="translate(-103.182 0)" fill="#707070"/>
    <path id="Pfad_484" data-name="Pfad 484" d="M194.76,292.641c-.088-.04-.16-.07-.228-.1l-4.793-2.395c-.1-.052-.189-.09-.189-.246.008-1.593,0-3.186.005-4.779,0-.028.005-.056.011-.116.075.035.138.062.2.093l4.832,2.413c.1.048.18.082.179.23-.008,1.593,0,3.186-.005,4.779C194.771,292.55,194.765,292.584,194.76,292.641Z" transform="translate(-91.294 -64.479)" fill="#707070"/>
    <path id="Pfad_485" data-name="Pfad 485" d="M309.4,292.717v-.878q0-1.987,0-3.975a.248.248,0,0,1,.145-.273q2.458-1.219,4.91-2.451c.043-.021.089-.037.153-.063,0,.085.01.147.01.209q0,2.324,0,4.648a.232.232,0,0,1-.135.256q-2.478,1.228-4.949,2.47C309.505,292.677,309.472,292.688,309.4,292.717Z" transform="translate(-204.621 -64.551)" fill="#707070"/>
    <path id="Pfad_486" data-name="Pfad 486" d="M106.2,399.781c.082-.045.142-.081.2-.112,1.125-.563,2.25-1.127,3.379-1.684a.354.354,0,0,1,.273-.016q2.48,1.227,4.952,2.469c.031.016.06.036.111.068-.06.039-.1.072-.149.1q-1.717.86-3.436,1.714a.33.33,0,0,1-.255.011q-2.5-1.238-4.989-2.49C106.263,399.824,106.241,399.809,106.2,399.781Z" transform="translate(-12.479 -171.277)" fill="#707070"/>
    <path id="Pfad_487" data-name="Pfad 487" d="M324.506,400.463l3.224-1.611c.615-.307,1.228-.618,1.846-.918a.329.329,0,0,1,.254-.006c1.161.572,2.318,1.153,3.476,1.732a1.4,1.4,0,0,1,.137.092l-2.112,1.058c-.977.488-1.953.979-2.933,1.46a.356.356,0,0,1-.274.011c-1.162-.571-2.319-1.152-3.476-1.732C324.611,400.53,324.578,400.506,324.506,400.463Z" transform="translate(-218.904 -171.237)" fill="#707070"/>
  </g>
</svg>
