<?xml version="1.0" encoding="utf-8"?>
<!-- Generator: Adobe Illustrator 28.2.0, SVG Export Plug-In . SVG Version: 6.00 Build 0)  -->
<svg version="1.1" id="Ebene_1" xmlns="http://www.w3.org/2000/svg" xmlns:xlink="http://www.w3.org/1999/xlink" x="0px" y="0px"
	 viewBox="0 0 355 353" style="enable-background:new 0 0 355 353;" xml:space="preserve">
<style type="text/css">
	.st0{fill:#2388AE;}
</style>
<g>
	<path class="st0" d="M29.2,99.14c31.52,0,62.52,0,93.99,0c0,1.69,0,3.15,0,4.61c0,21.22-0.02,42.43,0.02,63.65
		c0.01,6.45,3.79,10.33,9.27,9.16c2.03-0.43,4.04-1.9,5.6-3.38c8.66-8.26,17.18-16.66,26.67-25.92c2.11,2.47,3.96,4.97,6.13,7.14
		c6.44,6.44,13.07,12.7,19.51,19.14c2.82,2.82,5.96,4.22,9.77,2.68c3.85-1.56,4.98-4.78,4.97-8.78
		c-0.07-21.34-0.03-42.68-0.03-64.02c0-1.34,0-2.69,0-4.26c31.35,0,62.35,0,93.61,0c0,24.18,0,48.18,0,72.48
		c-35.62-6.15-67.17,2.11-93.32,27.08c-26.02,24.85-35.95,55.79-31.48,91.72c-1.27,0-2.37,0-3.47,0c-37.43,0-74.86-0.02-112.29,0.02
		c-7.12,0.01-13.53-1.96-19.18-6.27c-6.32-4.82-9.79-11.08-9.78-19.22c0.04-54.16,0.02-108.32,0.02-162.48
		C29.2,101.49,29.2,100.5,29.2,99.14z"/>
	<path class="st0" d="M122.97,21.06c0,20.77,0,41.17,0,61.96c-1.67,0-3.14,0-4.6,0c-28.68,0-57.37-0.26-86.05,0.18
		c-7.51,0.11-16.36-6.25-16.46-15.81c-0.1-10.1-0.21-20.21,0.03-30.31c0.22-9.25,7.21-16.15,16.25-16.18
		c29.56-0.08,59.12-0.03,88.67-0.02C121.44,20.88,122.05,20.98,122.97,21.06z"/>
	<path class="st0" d="M205.28,83.02c0-20.78,0-41.2,0-62.15c1.34,0,2.65,0,3.97,0c28.44,0,56.89-0.01,85.33,0
		c11.03,0,17.67,6.62,17.72,17.68c0.04,9.23-0.31,18.48,0.1,27.7c0.4,9.1-7.71,17.13-16.84,16.96c-28.56-0.51-57.13-0.19-85.7-0.19
		C208.39,83.02,206.93,83.02,205.28,83.02z"/>
	<path class="st0" d="M188.91,149.66c-6.22-6.03-11.92-11.58-17.64-17.12c-5.34-5.17-8.96-5.16-14.38,0.08
		c-5.7,5.52-11.37,11.06-17.51,17.04c0-43.23,0-85.79,0-128.57c16.45,0,32.85,0,49.53,0C188.91,63.66,188.91,106.23,188.91,149.66z"
		/>
</g>
<path class="st0" d="M349.66,258.21c-0.01-3.12-1.62-4.83-4.76-5.18c-4-0.44-8-0.92-12-1.34c-0.96-0.1-1.37-0.48-1.63-1.45
	c-1.36-5.1-3.38-9.95-6.02-14.53c-0.2-0.35-0.37-0.72-0.59-1.15c2.62-3.28,5.23-6.54,7.83-9.81c2.62-3.29,2.52-5.26-0.42-8.2
	c-3.76-3.76-7.52-7.52-11.29-11.28c-2.95-2.94-4.89-3.05-8.19-0.42c-3.27,2.6-6.53,5.21-9.41,7.52c-5.16-2.08-9.99-4.1-14.89-5.96
	c-2.5-0.95-2.52-0.82-2.79-3.5c-0.38-3.7-0.79-7.39-1.26-11.08c-0.31-2.46-2.15-4.11-4.64-4.13c-6.15-0.04-12.29-0.04-18.44,0
	c-2.64,0.02-4.46,1.72-4.76,4.35c-0.45,3.9-0.92,7.79-1.27,11.7c-0.13,1.41-0.56,2.13-2.06,2.51c-4.87,1.22-9.48,3.19-13.8,5.75
	c-1.04,0.62-1.68,0.49-2.55-0.22c-3.03-2.49-6.1-4.93-9.19-7.36c-2.65-2.08-4.85-1.93-7.26,0.46c-4.06,4.04-8.12,8.1-12.16,12.16
	c-2.29,2.31-2.41,4.56-0.37,7.14c2.72,3.44,5.47,6.86,8.23,10.33c-1.02,1.99-2.15,3.9-2.98,5.93c-1.28,3.09-2.46,6.23-3.45,9.42
	c-0.41,1.32-1,1.79-2.3,1.9c-3.6,0.33-7.17,0.89-10.78,1.14c-2.57,0.18-4.39,1.22-5.46,3.55c0,7.02,0,14.05,0,21.07
	c1.09,2.32,2.89,3.36,5.47,3.54c3.7,0.26,7.39,0.81,11.08,1.2c1.02,0.11,1.58,0.42,1.88,1.56c1.43,5.47,3.68,10.6,6.61,15.55
	c-2.77,3.48-5.57,6.92-8.28,10.43c-0.61,0.79-1.1,1.76-1.34,2.72c-0.39,1.57,0.24,2.95,1.36,4.07c4.3,4.32,8.59,8.64,12.93,12.92
	c1.93,1.9,4.26,2.01,6.44,0.32c3.3-2.56,6.57-5.18,9.8-7.82c0.7-0.57,1.22-0.66,2.02-0.18c4.55,2.69,9.4,4.71,14.51,6.05
	c1.14,0.3,1.45,0.86,1.56,1.88c0.39,3.69,0.93,7.38,1.19,11.08c0.18,2.57,1.24,4.37,3.55,5.46c7.02,0,14.05,0,21.07,0
	c2.33-1.08,3.36-2.9,3.55-5.46c0.26-3.65,0.81-7.28,1.17-10.93c0.11-1.16,0.49-1.76,1.74-2.08c5.43-1.4,10.5-3.67,15.42-6.56
	c3.11,2.48,6.21,4.95,9.31,7.42c0.52,0.42,1.04,0.85,1.58,1.25c2.06,1.5,4.37,1.46,6.2-0.32c4.43-4.33,8.81-8.71,13.15-13.15
	c1.86-1.91,1.85-4.25,0.13-6.45c-2.77-3.53-5.59-7.03-8.44-10.6c0.17-0.33,0.31-0.65,0.48-0.95c2.69-4.67,4.76-9.61,6.15-14.81
	c0.24-0.9,0.62-1.26,1.53-1.36c4.06-0.42,8.11-0.89,12.16-1.36c3.11-0.36,4.67-2.1,4.68-5.26
	C349.67,269.89,349.68,264.05,349.66,258.21z M270.33,293.39c-14.57,0-26.38-11.81-26.38-26.38c0-14.57,11.81-26.38,26.38-26.38
	c14.57,0,26.38,11.81,26.38,26.38C296.72,281.58,284.91,293.39,270.33,293.39z"/>
</svg>
