<?xml version="1.0" encoding="UTF-8"?>
<svg id="Ebene_1" data-name="Ebene 1" xmlns="http://www.w3.org/2000/svg" version="1.1" viewBox="0 0 335.38 326.49">
  <defs>
    <style>
      .cls-1 {
        fill: #000;
        stroke-width: 0px;
      }
    </style>
  </defs>
  <path class="cls-1" d="M301.63,318c-11.38-6.5-22.18-12.66-32.98-18.82-10.28-5.87-20.6-11.67-30.81-17.67-2.23-1.31-3.81-1.33-6.06-.03-20.07,11.6-40.24,23.01-60.3,34.62-2.68,1.55-4.63,1.68-7.4.08-20.05-11.63-40.24-23.02-60.3-34.63-2.4-1.39-4.07-1.28-6.4.07-19.85,11.47-39.78,22.82-59.69,34.19-1.15.66-2.35,1.23-3.91,2.04-.08-1.64-.19-2.84-.19-4.03,0-87.47-.02-174.94,0-262.41,0-19.57,11.43-34.57,29.68-38.86,3.36-.79,6.91-1.1,10.37-1.1,62.75-.06,125.5-.07,188.26-.03,23.23.01,39.86,16.38,39.87,39.41.06,87.85.03,175.69.02,263.54,0,.98-.08,1.96-.16,3.65ZM244.26,88.23c.04-7.78-4.43-14.82-11.56-17.69-7.99-3.22-15.25-1.72-21.32,4.34-38.3,38.24-76.57,76.52-114.79,114.84-7.79,7.81-7.74,19.62-.18,27.18,7.55,7.55,19.38,7.65,27.19-.14,38.41-38.31,76.74-76.7,115.08-115.08,3.69-3.69,5.59-8.19,5.57-13.45ZM244.27,193.66c.05-15.94-12.77-28.84-28.66-28.84-15.74,0-28.52,12.68-28.66,28.46-.15,15.93,12.59,28.94,28.47,29.08,15.82.13,28.81-12.78,28.86-28.69ZM148.44,97.78c.05-15.93-12.79-28.83-28.69-28.82-15.74,0-28.51,12.7-28.64,28.49-.13,15.92,12.63,28.94,28.49,29.05,15.83.11,28.79-12.79,28.83-28.71Z"/>
</svg>