<?xml version="1.0" encoding="utf-8"?>
<!-- Generator: Adobe Illustrator 25.0.1, SVG Export Plug-In . SVG Version: 6.00 Build 0)  -->
<svg version="1.1" id="Layer_1" xmlns="http://www.w3.org/2000/svg" xmlns:xlink="http://www.w3.org/1999/xlink" x="0px" y="0px"
	 viewBox="0 0 383 383.3" style="enable-background:new 0 0 383 383.3;" xml:space="preserve">
<g>
	<path fill="#fff" d="M273.3,383.3c-85.9,0-171.7,0-257.6,0C10,381,4.7,378,2.3,371.9c-1-2.6-1.5-5.4-2.3-8.1C0,249,0,134.2,0,19.5
		c0.1-0.5,0.3-0.9,0.4-1.4C3.3,4.9,9.4,0,22.8,0C104.4,0,186,0,267.6,0C281.1,0,289,7.9,289,21.4c0,25.1,0,77.7,0,79.2
		c-1.9,0-41.5-0.1-59.8,0c-16.2,0.1-26.3,10.4-26.3,26.6c0,20.2,0,211,0,218.2c0.1,15.4,10.5,25.8,25.9,25.9c18.1,0,56.9,0,58.9,0
		c-1.1,1.9-1.6,3.5-2.7,4.3C281.1,378.3,277.2,380.7,273.3,383.3z M91.4,294.6c0,5.7-0.3,10.9,0.1,16.1c0.6,9.8,8.8,17.4,18.4,17.3
		c9.5-0.1,17.2-7.2,18.1-16.9c0.2-2.6,0.5-5.3,0.1-7.9c-0.9-6.3,1.3-9.2,7.7-11.5c28.8-10.3,43-37.8,34.1-65
		c-5.8-17.6-18.1-28.7-35.8-34c-4.6-1.4-6.6-3.4-6.2-8.5c0.5-5.4,0.1-10.9,0.1-16.3c0-4.9,0-9.7,0-14.6c0.8-0.3,1.5-0.6,2.3-0.9
		c4,4.9,8.5,9.5,11.9,14.7c6.4,9.8,16.7,13.3,25.9,8.1c9.2-5.2,11.9-16.2,6.3-26.3c-7.5-13.7-17.9-25.1-32.4-30.6
		c-11.1-4.1-15.6-9.2-14.4-21.4c1-10.2-8.3-17.9-18.2-17.8c-9.9,0.2-17.8,8-18.2,18.2c-0.2,3.8,0.4,7.7-0.2,11.5
		c-0.3,1.8-2,4-3.6,4.9c-5.1,2.7-10.9,4.3-15.8,7.4c-17.5,11.1-25.9,27.4-24.2,48.1c1.7,20,12.5,34,30.5,42.5c4.3,2,10.4,2.7,12.6,6
		c2.2,3.5,0.6,9.4,0.7,14.2c0,7.3,0,14.6,0,21.9c-0.8,0.3-1.5,0.6-2.3,0.9c-4.3-5.4-8.9-10.7-12.8-16.4c-6.9-10.1-20.3-12-28.7-3.7
		c-6.2,6-7.3,14.5-2.8,22.8C54.9,276.4,70.5,288.4,91.4,294.6z"/>
	<path fill="#fff" d="M383,236.5c0,35.6,0,71.1,0,106.7c0,5.4,0,5.4-5.4,5.4c-48.9,0-97.8,0-146.7,0c-5.2,0-5.3-0.1-5.3-5.2
		c0-71.6,0-143.2,0-214.8c0-5.2,0-5.2,5.3-5.2c49,0,98.1,0,147.1,0c5.1,0,5.1,0,5.1,5.3C383,164.7,383,200.6,383,236.5z
		 M304.2,137.6c-15.3,0-30.7-0.1-46,0c-11,0.1-19.1,7.5-19.6,18.4c-0.4,8.3-0.4,16.7,0,25c0.5,11,8.8,18.7,19.9,18.7
		c30.6,0.1,61.1,0.1,91.7,0c11.6,0,19.7-8.3,19.9-19.8c0.1-7.2,0.1-14.5,0-21.7c-0.1-12.8-8-20.6-20.9-20.7
		C334.2,137.6,319.2,137.6,304.2,137.6z M304,243.7C304,243.6,304,243.6,304,243.7c-1.7,0-3.5-0.1-5.2,0c-6.4,0.5-11.1,5.4-11,11.4
		c0.1,6,4.6,10.8,10.8,11.2c3.7,0.2,7.5,0.3,11.2,0c6.1-0.5,10.7-5.5,10.6-11.4c-0.1-5.9-4.6-10.7-10.8-11.2
		C307.7,243.5,305.8,243.7,304,243.7z M303.5,330.8c2.8-0.1,5.1,0,7.3-0.4c5.7-1,9.6-5.6,9.6-11.2c0-5.5-4-10.5-9.6-11.1
		c-4.7-0.5-9.5-0.4-14.1,0.2c-5.3,0.7-8.9,5.6-8.9,10.9c0,5.3,3.6,9.9,8.9,11C299.1,330.7,301.6,330.7,303.5,330.8z M254.8,330.8
		c0-0.1,0-0.1,0-0.2c2,0,4,0.2,6,0c5.9-0.7,10.1-5.3,10.2-11c0.1-5.9-3.9-10.9-10-11.5c-4.3-0.4-8.7-0.4-13,0.1
		c-5.8,0.7-9.6,5.5-9.5,11.1c0,5.6,3.9,10.2,9.7,11.1C250.3,330.7,252.6,330.7,254.8,330.8z M248.9,275.9
		c-6.1,0.7-10.4,5.3-10.4,11.1c-0.1,5.9,4.1,10.7,10.2,11.3c3.9,0.4,8,0.4,11.9,0.1c6.2-0.5,10.5-5.5,10.4-11.6
		c-0.1-5.8-4.5-10.5-10.6-11.1c-1.8-0.2-3.7,0-5.6,0 M304.2,275.7c-1.9,0-3.7-0.1-5.6,0c-6.2,0.5-10.8,5.2-10.9,11.2
		c-0.1,6.1,4.6,11.1,10.9,11.5c3.6,0.2,7.2,0.2,10.8,0c6.2-0.4,10.8-5.3,10.9-11.2c0.1-6.1-4.6-11-10.9-11.5
		C307.7,275.6,306,275.7,304.2,275.7z M353.7,275.8c-1.9,0-3.7-0.1-5.6,0c-6.3,0.5-10.6,5.3-10.6,11.3c0,6.1,4.4,10.9,10.6,11.3
		c3.7,0.3,7.5,0.3,11.2,0c6.2-0.4,10.7-5.3,10.7-11.3c0-6-4.4-10.8-10.7-11.3C357.5,275.6,355.6,275.8,353.7,275.8z M254.9,243.7
		C254.9,243.7,254.9,243.7,254.9,243.7c-1.9,0-3.7-0.1-5.6,0c-6.3,0.5-10.7,5.2-10.8,11.2c0,6,4.3,10.9,10.6,11.4
		c3.8,0.3,7.7,0.3,11.6,0c6.1-0.5,10.5-5.6,10.4-11.6c-0.1-5.8-4.5-10.5-10.6-11C258.6,243.5,256.7,243.7,254.9,243.7z M353.8,243.7
		c-2,0-4-0.2-6,0c-5.9,0.6-10.2,5-10.4,10.8c-0.2,5.9,3.5,10.9,9.4,11.6c4.4,0.6,9,0.6,13.4,0c6-0.7,9.9-5.8,9.7-11.8
		c-0.2-5.7-4.6-10.1-10.5-10.7C357.6,243.5,355.7,243.7,353.8,243.7z M353,330.8c2.8-0.2,5.2-0.1,7.5-0.5c5.6-1,9.3-5.5,9.4-10.9
		c0.1-5.7-3.6-10.6-9.4-11.2c-4.8-0.5-9.7-0.5-14.5,0.2c-5.2,0.7-8.6,5.4-8.6,10.7c-0.1,5.4,3.3,10,8.6,11.1
		C348.5,330.7,351,330.6,353,330.8z M304.2,211.5c-1.9,0-3.7-0.1-5.6,0c-6.1,0.4-10.5,4.9-10.8,10.8c-0.3,5.7,3.9,11.1,9.9,11.7
		c4.2,0.4,8.5,0.4,12.7,0c5.9-0.5,10.2-5.7,10.1-11.5c-0.1-6-4.8-10.7-11-11C307.7,211.5,306,211.5,304.2,211.5z M254.6,234.2
		c1.9,0,3.7,0.1,5.6,0c6.3-0.4,10.9-5.4,10.9-11.5c-0.1-6-4.6-10.8-10.8-11.1c-3.6-0.2-7.2-0.2-10.8,0c-6.4,0.4-10.8,5-10.9,11
		c-0.1,6.2,4.5,11.1,10.9,11.5C251.1,234.3,252.8,234.2,254.6,234.2z M353.7,211.6c-1.9,0-3.7-0.1-5.6,0c-6.1,0.5-10.4,5-10.6,10.9
		c-0.1,6.1,4.1,11.1,10.3,11.6c3.8,0.3,7.7,0.3,11.6,0c6.1-0.4,10.6-5.3,10.6-11.4c0-6-4.5-10.8-10.7-11.2
		C357.4,211.5,355.5,211.6,353.7,211.6z"/>
	<path fill="#707070" d="M128.8,230.5c9,6.8,9.1,17,0,23.9C128.8,246.3,128.8,238.7,128.8,230.5z"/>
	<path fill="#707070" d="M91.2,153c0,8.2,0,15.7,0,23.4C81.7,171.7,81.5,159.7,91.2,153z"/>
	<path fill="#707070" d="M261.4,176.8c0-5.5,0-10.9,0-16.3c28.6,0,57,0,85.6,0c0,5.4,0,10.7,0,16.3C318.7,176.8,290.2,176.8,261.4,176.8z"/>
</g>
</svg>
