<svg xmlns="http://www.w3.org/2000/svg" width="18.48" height="18.513" viewBox="0 0 18.48 18.513">
  <g id="Gruppe_325" data-name="Gruppe 325" transform="translate(-253.889 -153.953)">
    <path id="Pfad_484" data-name="Pfad 484" d="M253.9,231.051h18.465v.254q0,5.4,0,10.8a2.432,2.432,0,0,1-1.948,2.518,3.119,3.119,0,0,1-.637.052q-6.658,0-13.315,0a2.433,2.433,0,0,1-2.518-1.944,2.983,2.983,0,0,1-.055-.614q0-5.411,0-10.823C253.889,231.217,253.9,231.139,253.9,231.051Zm9.713,3.387h-.969v2.934h-2.923v.974h2.926v2.92h.967v-2.925h2.916v-.983h-2.917Z" transform="translate(0 -72.209)" fill="#707070"/>
    <path id="Pfad_485" data-name="Pfad 485" d="M254.15,157.828a12.971,12.971,0,0,1,.016-1.893,2.38,2.38,0,0,1,2.477-1.98c1.8,0,3.607,0,5.41,0q3.986,0,7.973,0a2.4,2.4,0,0,1,2.452,1.778,5.705,5.705,0,0,1,.1,1.131c.015.315,0,.631,0,.965Z" transform="translate(-0.217)" fill="#707070"/>
  </g>
</svg>
