<svg id="Layout" xmlns="http://www.w3.org/2000/svg" width="18.609" height="18.608" viewBox="0 0 18.609 18.608">
  <g id="Gruppe_291" data-name="Gruppe 291" transform="translate(-44 0)">
    <path id="Pfad_63" data-name="Pfad 63" d="M308.875,245.963q0-2.045,0-4.091a.884.884,0,0,1,.977-.981h6.773a.882.882,0,0,1,.974.964q0,4.12,0,8.239a.885.885,0,0,1-.967.975q-3.4,0-6.792,0a.885.885,0,0,1-.964-.977Q308.874,248.027,308.875,245.963Z" transform="translate(-254.99 -240.891)" fill="#7a7a7a"/>
    <path id="Pfad_64" data-name="Pfad 64" d="M125.973,409.387q0,2.045,0,4.091a.89.89,0,0,1-.989.99h-6.753a.887.887,0,0,1-.981-.978q0-4.11,0-8.22a.885.885,0,0,1,.979-.981q3.386,0,6.773,0a.883.883,0,0,1,.972.968Q125.974,407.322,125.973,409.387Z" transform="translate(-73.249 -395.859)" fill="#7a7a7a"/>
    <path id="Pfad_65" data-name="Pfad 65" d="M121.61,248.155h-3.4a.877.877,0,0,1-.965-.971q0-2.664,0-5.328a.881.881,0,0,1,.973-.966H125a.885.885,0,0,1,.975.984q0,2.654,0,5.308a.878.878,0,0,1-.964.972Z" transform="translate(-73.247 -240.89)" fill="#7a7a7a"/>
    <path id="Pfad_66" data-name="Pfad 66" d="M313.252,460.8h3.378a.874.874,0,0,1,.967.967q0,2.664,0,5.328a.885.885,0,0,1-.971.969H309.85a.888.888,0,0,1-.977-.983q0-2.654,0-5.308a.876.876,0,0,1,.981-.973Z" transform="translate(-254.989 -449.454)" fill="#7a7a7a"/>
  </g>
</svg>
