<svg id="Layer_1" data-name="Layer 1" xmlns="http://www.w3.org/2000/svg" viewBox="0 0 1385 561"><defs><style>.cls-1{fill:#fff;}</style></defs><path class="cls-1" d="M1239.05,228.48c1.64-1.58,3.32-3.19,5-4.86h141.05V198.43h-44.81c30.54-32,43.49-51.56,43.49-78.57,0-23-8.24-42.75-23.84-57s-36.83-21.63-61.74-21.63c-40.07,0-70.16,17.69-84.6,48.47C1162.56,32.53,1089.05.3,1007,.3c-76.1,0-146.09,28.22-196.38,78.59-34.67-35.6-79.08-59.14-128.78-70.61-10.07-3.1-21.7-4.65-32.55-6.2V157.86a90.45,90.45,0,0,1,32.55,15.5c31.76,22.37,48.05,60.21,50.14,98.48.15,2.82.24,5.65.24,8.47s-.08,5.53-.23,8.3c-3.21,58.73-40.6,118.81-117.58,118.81-74.88,0-111.63-56.87-116.47-114-.36-4.36-.55-8.73-.55-13.07s.19-8.78.57-13.17c3.12-36.79,19.42-73.09,50.58-94.56a90.61,90.61,0,0,1,32.55-15.5V123.76a133.56,133.56,0,0,0-32.55,10.85c-26.86,13-47.41,33.48-61.53,57.8-9.43-34.47-24.69-64.93-45.2-90.83,28.72-28.75,65.05-49.72,106.73-60.75,10.07-2.33,20.92-4.65,32.55-5.43V2.08c-11.63,1.55-22.48,3.1-32.55,5.42-49.75,11.31-93.63,35.08-128.79,69.88C368.61,28.63,294.45,1.54,202.9,1.54H2.6V438.85H202.9c68.21,0,120.51-28.2,147.42-76.07a276.91,276.91,0,0,0,47.36,95.44C352.63,502,286.27,525.83,202.9,525.83H2.6v33.52H202.9c91.6,0,165.79-27.11,216.9-76C470,533.28,539.18,560.1,614.38,560.1c76.89,0,146.13-27.47,196.41-78.6,50.28,51,120.18,79.15,196.18,79.15,87.58,0,166.63-38,217-103.08a10.77,10.77,0,0,0,2.32-3.1l10.08-13.18-27.13-17.82a312.19,312.19,0,0,1-20.15,24.8V449a227.19,227.19,0,0,1-105.4,67.43A273.79,273.79,0,0,1,1007,527.32c-70.5,0-131.4-26.23-174.55-70.52a271,271,0,0,0,45.51-91.44c23.8,43.39,67.25,75.16,129,75.16,17,0,33.33-3.1,48.83-7.75,20.15-6.2,38-17,53.47-31.78.78-.77,1.55-1.55,3.1-3.1a131.09,131.09,0,0,0,20.93-24.8l-27.9-18.6-1.55,1.55-7.75,10.85c-.78,1.55-2.33,2.33-3.1,3.88-13.18,14.72-29.45,25.57-48,31a118.39,118.39,0,0,1-38,6.2c-80.6,0-117-66.66-117-127.88S926.37,153,1007,153c47.28,0,74.4,21.7,89.13,40.3l9.3,11.63,113.51-74.55,66.2,15.76.6-15.13v-.23c0-8.54,5-8.54,6.89-8.54,3.78,0,5.55,1.75,5.57,5.5-.09.56-1.67,7.25-25.16,31.81-21.21,21.92-46,45.94-59,58.3l-3.72,3.73v58.53h174.8V254.91H1235.19v-22.7C1236.41,231,1237.71,229.77,1239.05,228.48Zm-557.24-93.1V41.6c42.13,10.92,78.72,32.4,107.41,62a276.92,276.92,0,0,0-45.61,91.56C729.76,169.77,709.13,148.47,681.81,135.38Zm-478.91,270H165.4v-249h37.5c83.79,0,134.07,46.28,134.07,123.69C337,358.25,286.69,405.33,202.9,405.33Zm908.7-243.82c-26.35-26.35-62.78-41.08-104.63-41.08-61.82,0-105.29,31.5-129.08,74.7-12.72,23.1-19.81,49.54-21.06,76.31.08,2.94.14,5.9.14,8.87s-.06,5.72-.14,8.56c-1.56,54.75-18.06,103.41-46,142.28a226.42,226.42,0,0,1-21.48,25.69c-43.06,44.4-104,70.71-175,70.71-69.4,0-129.5-25.44-172.52-68.49a228.32,228.32,0,0,1-22.28-25.94c-30.33-41.19-48.45-93.39-48.45-152.57,0-31.35-7.75-59.51-20.85-82.56-26.92-47.34-79.21-75.15-147.38-75.15H131.08V405.33h-95V35.06H202.9c83.33,0,149.67,23.82,194.71,67.44a201.06,201.06,0,0,1,21.9,25c27.48,37.13,43,84.57,44.92,140.75.13,3.89.22,7.82.22,11.8s-.09,8.12-.23,12.12A174.89,174.89,0,0,0,487,368c24.13,41.69,67,72,127.37,72,61.89,0,105.38-31.87,129.16-75.17a175.88,175.88,0,0,0,21-75.94c-.08-2.91-.14-5.83-.14-8.77s.05-5.64.13-8.44c1.55-54.8,18.18-103.51,46.19-142.4a227.6,227.6,0,0,1,21.52-25.67C875.39,59.17,936.37,32.85,1007,32.85c73.63,0,137.18,27.9,182.13,78.28Zm179.16,15.43c21.41-22.46,32.28-36.23,32.28-49.15,0-17.63-12.8-30.43-30.43-30.43-13,0-23.56,6.82-28.69,18.14l-30.66-7.36c5-15.67,14.69-27.16,28.74-34.2,13.64-6.85,28.34-7.87,35.9-7.87,18.49,0,34,5.11,44.82,14.79,10.62,9.49,16.23,23,16.23,39,0,23.27-16.42,41.14-53.5,78.57h-35.78C1276.83,191.31,1284.15,184,1290.76,176.94Z"/></svg>