<?xml version="1.0" encoding="UTF-8"?>
<svg id="Ebene_1" data-name="Ebene 1" xmlns="http://www.w3.org/2000/svg" version="1.1" viewBox="0 0 307.42 306.75">
  <defs>
    <style>
      .cls-1 {
        fill: #32a9a2;
        stroke-width: 0px;
      }
    </style>
  </defs>
  <path class="cls-1" d="M307.42,153.45C307.52,69.04,238.63.19,153.87,0,69.17-.19-.14,68.95,0,153.48c.14,84.59,69.03,153.28,153.72,153.26,84.68-.01,153.6-68.75,153.7-153.3ZM172.97,163.42c.35.13.69.27,1.04.4,3.92-4.01,7.81-8.05,11.76-12.03,3.95-3.99,7.88-8.01,11.95-11.89,7.88-7.51,19.45-7.56,27-.22,7.62,7.41,7.92,19.36.17,27.19-19.14,19.34-38.41,38.56-57.8,57.65-7.65,7.54-19.04,7.57-26.67.07-19.48-19.18-38.84-38.48-58.05-57.93-7.59-7.69-7.21-19.54.28-26.91,7.5-7.38,19.16-7.44,26.99.1,7.28,7.01,14.34,14.25,21.51,21.39.84.84,1.74,1.63,3.32,3.1v-4.77c0-20.33-.02-40.65.02-60.98,0-2.23.11-4.5.51-6.7,1.44-7.91,8.59-14.27,16.61-14.97,12.28-1.07,21.3,7.47,21.35,20.44.08,20.7.02,41.4.02,62.1,0,1.32,0,2.65,0,3.97Z"/>
</svg>