<svg xmlns="http://www.w3.org/2000/svg" width="54.06" height="51.026" viewBox="0 0 54.06 51.026">
  <g id="Gruppe_432" data-name="Gruppe 432" transform="translate(-71.805 -512.124)">
    <path id="Pfad_653" data-name="Pfad 653" d="M98.014,512.124c6.767.071,12.427,1.3,17.484,4.612a21.784,21.784,0,0,1,10.218,17.15,22.88,22.88,0,0,1-4.355,16.236,23.819,23.819,0,0,1-12.43,8.5,33.793,33.793,0,0,1-20.262-.011,1.047,1.047,0,0,0-.863.1,14.982,14.982,0,0,1-8.3,3.958c-1.955.314-3.958.333-5.941.462A1.474,1.474,0,0,1,72.6,560.4a14.351,14.351,0,0,0,4.943-7.89A1.2,1.2,0,0,0,77.3,551.3a22.73,22.73,0,0,1-5.364-17.216,22.128,22.128,0,0,1,5.286-13.046,24.876,24.876,0,0,1,12.509-7.667,28.961,28.961,0,0,1,3.839-.823C95.3,512.31,97.059,512.211,98.014,512.124Zm.783,20.255c4,0-1.992.01,2.012-.006a2.182,2.182,0,0,0,2.259-2.1v-.016a2.233,2.233,0,0,0-2.1-2.358c-.232-.023-.468-.014-.7-.014H87.438a6.21,6.21,0,0,0-.841.031,2.242,2.242,0,0,0,.4,4.464q5.9.013,11.8,0Zm-4.45,7.532v-.006c-2.434,0-4.869-.007-7.3,0a2.214,2.214,0,0,0-2.435,2.227A2.245,2.245,0,0,0,86.83,544.4c.068,0,.135,0,.2-.007,4.867.012-.264.01,4.606-.007a3.02,3.02,0,0,0,1.217-.264,2.222,2.222,0,0,0-.922-4.21c-2.53-.022,4.94-.005,2.414-.005Z" fill="#707070"/>
    <path id="Pfad_717" data-name="Pfad 717" d="M108.774,538.538l-.719-10.756q-.2-3.144-.2-4.514a4.093,4.093,0,0,1,.977-2.908,3.356,3.356,0,0,1,2.571-1.044,2.588,2.588,0,0,1,2.583,1.336,9.04,9.04,0,0,1,.651,3.851,29.6,29.6,0,0,1-.157,3.009l-.966,11.071a8.694,8.694,0,0,1-.673,3.032,1.767,1.767,0,0,1-1.707,1.055,1.7,1.7,0,0,1-1.684-1.021A10.162,10.162,0,0,1,108.774,538.538Zm2.493,14.777a3.536,3.536,0,0,1-2.392-.888,3.11,3.11,0,0,1-1.022-2.481,3.336,3.336,0,0,1,3.369-3.346,3.326,3.326,0,0,1,2.414.977,3.19,3.19,0,0,1,1,2.369,3.136,3.136,0,0,1-1.01,2.47A3.439,3.439,0,0,1,111.267,553.315Z" fill="#ffce00"/>
  </g>
</svg>
