<svg xmlns="http://www.w3.org/2000/svg" width="20" height="20.006" viewBox="0 0 20 20.006">
  <g id="Gruppe_417" data-name="Gruppe 417" transform="translate(-1055.932 -517.146)">
    <path id="Pfad_654" data-name="Pfad 654" d="M1066.3,537.152h-.748a.239.239,0,0,1-.039,0c-.083-.014-.165-.029-.248-.04-.457-.061-.92-.09-1.37-.185a9.987,9.987,0,1,1,11.952-10.885c.025.234.053.467.08.7a.224.224,0,0,1,0,.027v.734a.24.24,0,0,1-.01.07.516.516,0,0,0-.024.1c-.043.381-.064.765-.129,1.142a9.783,9.783,0,0,1-3.59,6.12,9.651,9.651,0,0,1-5.168,2.143c-.227.024-.454.052-.681.078Zm-2.681-4.227a.237.237,0,0,0,.334.012c.752-.7,1.485-1.372,2.215-2.052q1.53-1.424,3.055-2.854,1.584-1.481,3.169-2.961a1.322,1.322,0,0,0,.43-1.343,1.338,1.338,0,0,0-2.235-.664c-.788.721-1.568,1.45-2.349,2.179q-2.078,1.939-4.154,3.881h0a.235.235,0,0,1-.332-.014l-.094-.1c-.845-.9-1.686-1.811-2.535-2.711a1.333,1.333,0,0,0-1.621-.3,1.348,1.348,0,0,0-.344,2.151q1.823,1.96,3.653,3.912Z" transform="translate(0 0)" fill="#64ada5"/>
  </g>
</svg>
