<svg xmlns="http://www.w3.org/2000/svg" width="20" height="20.006" viewBox="0 0 20 20.006">
  <path id="Pfad_655" data-name="Pfad 655" d="M1075.82,526.74c-.027-.234-.055-.467-.08-.7a9.98,9.98,0,1,0-11.952,10.885c.45.094.913.124,1.37.185.083.011.165.026.248.04a.236.236,0,0,0,.039,0h.748l.027,0c.227-.026.454-.054.681-.078a9.652,9.652,0,0,0,5.168-2.143,9.784,9.784,0,0,0,3.589-6.12c.064-.377.085-.762.128-1.142a.529.529,0,0,1,.024-.1.236.236,0,0,0,.01-.07v-.734A.227.227,0,0,0,1075.82,526.74Zm-4.47,3.791a1.554,1.554,0,0,1,.521,1.267,1.509,1.509,0,0,1-2.568.969c-1.035-1.019-2.057-2.052-3.085-3.078-.121-.121-.248-.237-.462-.44-.339.375-.652.747-.992,1.093q-1.161,1.183-2.344,2.345a1.506,1.506,0,0,1-2.233.063,1.523,1.523,0,0,1,.086-2.2q1.5-1.517,3.016-3.013a3.205,3.205,0,0,1,.464-.316c-1.207-1.206-2.322-2.3-3.4-3.419a2.167,2.167,0,0,1-.548-.957,1.415,1.415,0,0,1,.761-1.586,1.5,1.5,0,0,1,1.788.282c1.047,1.03,2.079,2.074,3.118,3.112.109.109.224.213.36.343,1.118-1.12,2.207-2.24,3.334-3.321a2.185,2.185,0,0,1,1-.551,1.405,1.405,0,0,1,1.558.813,1.5,1.5,0,0,1-.306,1.746c-.994,1.016-2,2.016-3.011,3.018-.134.133-.293.24-.5.405C1069.116,528.305,1070.229,529.422,1071.35,530.531Z" transform="translate(-1055.821 -517.146)" fill="#d83356"/>
</svg>
