<svg id="stift" xmlns="http://www.w3.org/2000/svg" width="16.158" height="16.178" viewBox="0 0 16.158 16.178">
  <path id="Pfad_488" data-name="Pfad 488" d="M369.5,262.207a3.221,3.221,0,0,1-1.081,1.452l-3.668-3.668a2.941,2.941,0,0,1,1.558-1.1h.442a2.288,2.288,0,0,1,1.259.8c.232.25.474.491.723.723a2.334,2.334,0,0,1,.766,1.16Z" transform="translate(-353.338 -258.89)" fill="#707070"/>
  <path id="Pfad_489" data-name="Pfad 489" d="M186.176,291.92l3.62,3.621-8.843,8.843-3.621-3.62Z" transform="translate(-175.272 -290.273)" fill="#707070"/>
  <path id="Pfad_490" data-name="Pfad 490" d="M137.675,482.5l3.352,3.351L136,487.522Z" transform="translate(-136.001 -471.344)" fill="#707070"/>
</svg>
